<svg width="20" height="20" viewBox="0 0 20 20" fill="none" xmlns="http://www.w3.org/2000/svg">
<path fill-rule="evenodd" clip-rule="evenodd" d="M4.7002 7.59961H6.2002V9.09961H4.7002V7.59961ZM6.2002 10.5996H4.7002V12.0996H6.2002V10.5996ZM9.2998 10.5996H7.7998V12.0996H9.2998V10.5996ZM9.2998 7.59961H7.7998V9.09961H9.2998V7.59961ZM4.7002 13.5996H6.2002V15.0996H4.7002V13.5996ZM9.2998 13.5996H7.7998V15.0996H9.2998V13.5996ZM10.7998 10.5996H12.2998V12.0996H10.7998V10.5996ZM15.2998 10.5996H13.7998V12.0996H15.2998V10.5996ZM10.7998 7.59961H12.2998V9.09961H10.7998V7.59961ZM15.2998 7.59961H13.7998V9.09961H15.2998V7.59961ZM18.5 18.5H1.5V3H4.7002V4.5H6.2002V3H13.7002V4.5H15.2002V3H18.4004V18.5H18.5ZM15.2998 1.5V0H13.7998V1.5H6.2002V0H4.7002V1.5H0V20H20V1.5H15.2998Z" fill="#6D7189"/>
</svg>
