<svg width="76" height="30" viewBox="0 0 76 30" fill="none" xmlns="http://www.w3.org/2000/svg">
<g clip-path="url(#clip0_720_63442)">
<path d="M53.481 15.0552C53.481 19.0361 50.9319 22.2057 46.6444 22.2057H42.4922V8.40625H46.4901C50.9319 8.40625 53.481 11.0153 53.481 15.0552ZM46.7025 21.0074C49.5611 21.0074 52.0521 18.978 52.0521 15.0552C52.0521 11.1323 49.5611 9.60451 46.5863 9.60451H43.902V21.0074H46.7025Z" fill="white"/>
<path d="M59.4824 22.3799C56.4886 22.3799 54.6738 20.1378 54.6738 17.1999C54.6738 14.262 56.5474 12.0391 59.4251 12.0391C62.6887 12.0391 63.8669 14.5327 63.964 17.1418C63.9831 17.2771 63.9831 17.4507 63.9831 17.6052H55.9682C56.1035 19.809 57.4743 21.2581 59.4641 21.2581C60.932 21.2581 62.1102 20.5431 62.5351 19.2485H63.8868C63.3076 21.2007 61.7236 22.3791 59.4832 22.3791L59.4824 22.3799ZM62.6306 16.5239C62.4373 14.4555 61.4332 13.1417 59.4244 13.1417C57.4155 13.1417 56.1799 14.5526 55.9866 16.5239H62.6306Z" fill="white"/>
<path d="M67.0216 8.40625V22.2057H65.6699V8.40625H67.0216Z" fill="white"/>
<path d="M72.1044 8.40625H73.1283V9.52727H72.3558C71.6215 9.52727 71.1393 9.85609 71.1393 10.9962V12.2144H72.8387V13.3163H71.1393V22.2065H69.8067V13.3163H68.416V12.2144H69.8067V10.9389C69.8067 9.60527 70.444 8.40701 72.1052 8.40701L72.1044 8.40625ZM74.5511 12.2136H75.9029V22.2057H74.5511V12.2136ZM74.5702 8.40625H75.9991V10.3394H74.5702V8.40625Z" fill="white"/>
<path d="M15 0C6.71544 0 0 6.71544 0 15C0 23.2846 6.71544 30 15 30C23.2846 30 30 23.2846 30 15C30 6.71544 23.2846 0 15 0ZM15.445 22.2002H11.5001C10.2919 22.2002 9.30312 21.2115 9.30312 20.0033V8.40003H15.7165C18.0503 8.40003 20.2342 9.64952 21.33 11.7103C24.1142 16.9446 20.3933 22.2002 15.445 22.2002Z" fill="white"/>
</g>
<defs>
<clipPath id="clip0_720_63442">
<rect width="76" height="30" fill="white"/>
</clipPath>
</defs>
</svg>
