<svg width="21" height="21" viewBox="0 0 21 21" fill="none" xmlns="http://www.w3.org/2000/svg">
<path fill-rule="evenodd" clip-rule="evenodd" d="M10.0005 0C12.6948 0 15.208 1.10742 17.0527 2.94727L20 0V5.3457V6.99951H18.2183H13L15.9951 4.00488C14.4272 2.44141 12.2905 1.5 10.0005 1.5C5.31348 1.5 1.5 5.31299 1.5 9.99951H0C0 4.48584 4.48633 0 10.0005 0ZM4.00684 15.9932C5.57812 17.5566 7.72168 18.5 10.0005 18.5C14.687 18.5 18.5 14.6865 18.5 10H20C20 15.5137 15.5142 20 10.0005 20C7.31982 20 4.79834 18.8906 2.94922 17.0508L0 20V14.6543V13H1.78125H7L4.00684 15.9932Z" fill="#D11F1F"/>
<path d="M1 1L19.5 19.5" stroke="#D11F1F" stroke-width="1.5"/>
</svg>
