<svg width="20" height="20" viewBox="0 0 20 20" fill="none" xmlns="http://www.w3.org/2000/svg">
<path fill-rule="evenodd" clip-rule="evenodd" d="M0 0H5.65527L3.35938 2.29736L7.28027 6.21875L6.21973 7.2793L2.29883 3.35791L0.0019531 5.65527L0 0ZM2.29883 16.6406L6.21973 12.7197L7.28027 13.7803L3.35938 17.7012L5.65527 19.999L0.0019531 20V14.3438L2.29883 16.6406ZM13.7803 7.28027L17.7012 3.35889L19.998 5.65625V0L14.3447 0.0009766L16.6406 2.29834L12.7197 6.21973L13.7803 7.28027ZM19.998 14.3447L20 20H14.3447L16.6406 17.7031L12.7197 13.7812L13.7803 12.7207L17.7012 16.6426L19.998 14.3447Z" fill="#CCCFDE"/>
</svg>
