<svg width="20" height="20" viewBox="0 0 20 20" fill="none" xmlns="http://www.w3.org/2000/svg">
<path fill-rule="evenodd" clip-rule="evenodd" d="M17.0527 2.93254C15.208 1.10189 12.6943 0 10.0005 0C4.48633 0 0 4.46343 0 9.95004C0 15.4362 4.48633 19.9001 10.0005 19.9001C15.5146 19.9001 20 15.4362 20 9.95004H18.5C18.5 14.6132 14.6875 18.4076 10.0005 18.4076C5.31348 18.4076 1.5 14.6132 1.5 9.95004C1.5 5.28645 5.31348 1.49251 10.0005 1.49251C12.29 1.49251 14.4268 2.42921 15.9951 3.98488L13 6.96503H18.2188H20V5.319V0L17.0527 2.93254Z" fill="white"/>
</svg>
