<svg width="20" height="20" viewBox="0 0 20 20" fill="none" xmlns="http://www.w3.org/2000/svg">
<path fill-rule="evenodd" clip-rule="evenodd" d="M17.0527 2.94727C15.208 1.10742 12.6943 0 10.0005 0C4.48633 0 0 4.48584 0 10C0 15.5137 4.48633 20 10.0005 20C15.5146 20 20 15.5137 20 10H18.5C18.5 14.6865 14.6875 18.5 10.0005 18.5C5.31348 18.5 1.5 14.6865 1.5 10C1.5 5.31299 5.31348 1.5 10.0005 1.5C12.29 1.5 14.4268 2.44141 15.9951 4.00488L13 7H18.2188H20V5.3457V0L17.0527 2.94727Z" fill="#6D7189"/>
</svg>
