<svg width="20" height="20" viewBox="0 0 20 20" fill="none" xmlns="http://www.w3.org/2000/svg">
<path fill-rule="evenodd" clip-rule="evenodd" d="M0 8.97559C1.91602 5.33301 5.78711 3 10.002 3C14.1895 3 18.084 5.33398 20 8.96289L18.8125 9.80566L18.7402 9.84082C17.123 6.59766 13.6934 4.50098 10.002 4.50098C6.2832 4.50098 2.87695 6.60742 1.26172 9.87305L0 8.97559ZM9.99023 6.4707C6.87695 6.4707 4.02148 8.13574 2.49414 10.748L3.74219 11.6357C4.97656 9.40234 7.37305 7.97168 9.99023 7.97168C12.5957 7.97168 15.0098 9.40527 16.2402 11.6338L17.4883 10.748C15.9609 8.14062 13.0879 6.4707 9.99023 6.4707ZM5.13672 12.627C6.24609 11.1211 8.03906 10.1836 9.97852 10.1836C11.9121 10.1836 13.7227 11.125 14.832 12.6357L13.5918 13.5166C12.7695 12.3887 11.4199 11.6846 9.97852 11.6846C8.53516 11.6846 7.19922 12.3848 6.37695 13.5078L5.13672 12.627ZM7.65039 15.748C7.65039 14.5068 8.68555 13.4961 9.95508 13.4961C11.2246 13.4961 12.2598 14.5068 12.2598 15.748C12.2598 16.9893 11.2246 18 9.95508 18C8.68555 18 7.65039 16.9893 7.65039 15.748ZM9.1875 15.748C9.1875 16.1621 9.5332 16.499 9.95508 16.499C10.3789 16.499 10.7227 16.1621 10.7227 15.748C10.7227 15.335 10.3789 14.998 9.95508 14.998C9.5332 14.998 9.1875 15.335 9.1875 15.748Z" fill="#ADB1C7"/>
</svg>
