<?xml version="1.0" standalone="no"?>
<!DOCTYPE svg PUBLIC "-//W3C//DTD SVG 1.1//EN" "http://www.w3.org/Graphics/SVG/1.1/DTD/svg11.dtd" >
<svg xmlns="http://www.w3.org/2000/svg" xmlns:xlink="http://www.w3.org/1999/xlink" version="1.1">
<metadata>
Created by FontForge 20170731 at Mon Jun 19 15:04:55 2023
 By Aleksey,,,
(c) 2017-2022. Copyright by TYPE.WELTKERN. All rights reserved.
</metadata>
<defs>
<font id="SLBSans-BookItalic" horiz-adv-x="0" >
  <font-face 
    font-family="SLB Sans Book"
    font-weight="450"
    font-style="italic"
    font-stretch="normal"
    units-per-em="2048"
    panose-1="2 0 5 3 4 0 0 2 0 4"
    ascent="1638"
    descent="-410"
    x-height="1059"
    cap-height="1462"
    bbox="-233 -438 2687 2169"
    underline-thickness="122"
    underline-position="-695"
    slope="-10"
    unicode-range="U+000D-FEFF"
  />
<missing-glyph horiz-adv-x="1454" 
d="M-4 766h692v696h78v-696h692v-70h-692v-696h-78v696h-692v70z" />
    <glyph glyph-name="f_f" unicode="ff" horiz-adv-x="1216" 
d="M915 1059l25 141q21 115 92 188.5t193 73.5h114l-22 -119h-76q-137 0 -164 -161l-22 -123h182l-20 -117h-181l-166 -942h-141l166 942h-467l-166 -942h-141l166 942h-148l21 117h147l25 141q21 115 91.5 188.5t192.5 73.5h115l-22 -119h-76q-137 0 -164 -161l-23 -123
h469z" />
    <glyph glyph-name="f_i" unicode="fi" horiz-adv-x="1040" 
d="M332 1200q21 115 91.5 188.5t192.5 73.5h115l-22 -119h-76q-137 0 -164 -161l-23 -123h183l-21 -117h-180l-166 -942h-141l166 942h-148l21 117h147zM662 0l186 1059h143l-186 -1059h-143zM877 1257l36 205h152l-37 -205h-151z" />
    <glyph glyph-name="f_l" unicode="fl" horiz-adv-x="1028" 
d="M332 1200q21 115 91.5 188.5t192.5 73.5h115l-22 -119h-76q-137 0 -164 -161l-23 -123h183l-21 -117h-180l-166 -942h-141l166 942h-148l21 117h147zM653 0l258 1462h144l-258 -1462h-144z" />
    <glyph glyph-name=".notdef" horiz-adv-x="1454" 
d="M-4 766h692v696h78v-696h692v-70h-692v-696h-78v696h-692v70z" />
    <glyph glyph-name=".null" 
 />
    <glyph glyph-name=".null" 
 />
    <glyph glyph-name="nonmarkingreturn" horiz-adv-x="682" 
 />
    <glyph glyph-name="CR" unicode="&#xd;" horiz-adv-x="454" 
 />
    <glyph glyph-name="space" unicode=" " horiz-adv-x="454" 
 />
    <glyph glyph-name="exclam" unicode="!" horiz-adv-x="491" 
d="M408 979l-148 -621h-76l70 621l86 483h154zM66 0l43 240h163l-41 -240h-165z" />
    <glyph glyph-name="quotedbl" unicode="&#x22;" horiz-adv-x="718" 
d="M299 1462h166l-103 -489h-110zM510 973l70 489h168l-130 -489h-108z" />
    <glyph glyph-name="numbersign" unicode="#" horiz-adv-x="1210" 
d="M604 1462h121l-152 -481h301l152 481h119l-152 -481h205l-18 -107h-222l-102 -321h205l-19 -107h-219l-141 -446h-119l142 446h-302l-141 -446h-121l142 446h-205l18 107h219l103 321h-203l18 107h220zM436 553h301l103 321h-301z" />
    <glyph glyph-name="dollar" unicode="$" horiz-adv-x="1232" 
d="M770 1712h145l-41 -246q254 -75 306 -399h-144q-48 295 -331 295q-148 0 -236 -62.5t-88 -183.5q0 -103 76.5 -168.5t249.5 -140.5q43 -18 66.5 -28t61.5 -28t60 -30.5t53.5 -31.5t49.5 -35.5t40.5 -39t35 -46t24.5 -51t17 -59.5t5 -67q0 -112 -41.5 -195.5t-113 -130.5
t-156.5 -69.5t-184 -22.5h-15l-41 -227h-145l43 246q-157 39 -262.5 154t-126.5 298h149q13 -91 55 -160t100 -108t120.5 -57.5t126.5 -18.5q68 0 128.5 17t109 50t77 88t27.5 126q0 27 -5 51t-11 43t-20.5 37.5t-25.5 31t-33.5 28t-36.5 24t-43 22.5t-44.5 21t-50 21.5
t-50.5 21.5q-70 30 -120 54.5t-102 56t-86 63.5t-62 71t-41 85.5t-13 101.5q0 91 39.5 163.5t106.5 118t152 69.5t180 24h26z" />
    <glyph glyph-name="percent" unicode="%" horiz-adv-x="1839" 
d="M453 760q-86 0 -118 88t-9 213q22 123 83.5 207t147.5 84q59 0 94 -41t41 -106t-6 -144q-22 -126 -84 -213.5t-149 -87.5zM195 1059q-9 -62 -9.5 -120.5t16.5 -111.5t45.5 -92.5t76.5 -62.5t110 -23q77 0 144 35t114 94t79 131t46 150q9 62 9.5 120.5t-16.5 110t-45.5 90
t-76.5 60.5t-110 22q-77 0 -144 -34t-114 -91t-79 -128t-46 -150zM477 4l819 1456h127l-819 -1456h-127zM1092 399q-16 -77 -7.5 -151t34 -131.5t80.5 -93t132 -35.5q76 0 143.5 35.5t114.5 94.5t79.5 131t45.5 150q16 76 7 148.5t-34.5 128.5t-80.5 90.5t-131 34.5
q-77 0 -144 -34t-114.5 -91t-79.5 -128t-45 -149zM1223 401q22 122 83.5 205.5t147.5 83.5q87 0 119 -83t10 -206q-22 -126 -84.5 -214.5t-148.5 -88.5t-118 89t-9 214z" />
    <glyph glyph-name="ampersand" unicode="&#x26;" horiz-adv-x="1306" 
d="M895 193q-89 -101 -197.5 -156t-253.5 -55q-190 0 -292.5 99.5t-102.5 248.5q0 64 16 120.5t48.5 103t69 84t90 73t98 60.5t106.5 56q-69 121 -93 180.5t-24 135.5q0 136 94.5 227.5t243.5 91.5t239.5 -79.5t90.5 -192.5q0 -60 -21 -113.5t-52.5 -92.5t-83 -78.5
t-96 -65.5t-107.5 -58l252 -372q79 126 118 247h121q-60 -189 -176 -354l205 -303h-164zM188 330q0 -99 70.5 -165.5t183.5 -66.5q66 0 123 15.5t106.5 48.5t80.5 60.5t77 74.5l-284 428q-149 -78 -199 -113q-130 -92 -153 -218q-5 -30 -5 -64zM500 1145q0 -14 1.5 -27.5
t3 -24.5t6 -26t6.5 -23.5t10 -26t11 -24.5t13.5 -27t13.5 -26.5t16 -31t17 -31.5q15 9 54 30.5t55 31t48.5 30t47 34t36.5 35.5t31.5 41.5t17 45t7.5 53.5q0 75 -51 122.5t-146 47.5q-86 0 -142 -57t-56 -146z" />
    <glyph glyph-name="quotesingle" unicode="'" horiz-adv-x="438" 
d="M299 1462h166l-113 -489h-112z" />
    <glyph glyph-name="parenleft" unicode="(" horiz-adv-x="575" 
d="M266 -399q-238 462 -151 952q42 244 167 490t318 454h129q-394 -482 -473 -944q-32 -164 -21.5 -331t49.5 -315.5t109 -305.5h-127z" />
    <glyph glyph-name="parenright" unicode=")" horiz-adv-x="577" 
d="M-145 -399q394 489 477 952q78 460 -142 944h127q119 -207 158 -456.5t-4 -487.5q-86 -484 -489 -952h-127z" />
    <glyph glyph-name="asterisk" unicode="*" horiz-adv-x="827" 
d="M256 1372l45 80l205 -119l41 236l90 -15l-41 -237l240 43l18 -94l-240 -41l95 -211l-82 -41l-101 217l-164 -170l-67 67l162 166z" />
    <glyph glyph-name="plus" unicode="+" horiz-adv-x="1200" 
d="M668 590h419v-119h-419v-428h-136v428h-419v119h419v428h136v-428z" />
    <glyph glyph-name="comma" unicode="," horiz-adv-x="425" 
d="M109 240h159l-223 -482h-123z" />
    <glyph glyph-name="hyphen" unicode="-" horiz-adv-x="952" 
d="M170 598h641l-23 -121h-641z" />
    <glyph glyph-name="period" unicode="." horiz-adv-x="395" 
d="M63 240h164l-41 -240h-166z" />
    <glyph glyph-name="slash" unicode="/" horiz-adv-x="659" 
d="M694 1575h137l-808 -1770h-138z" />
    <glyph glyph-name="zero" unicode="0" horiz-adv-x="1286" 
d="M766 1470q103 0 183.5 -33.5t128.5 -86t79.5 -123.5t43 -137.5t11.5 -135.5q0 -146 -23 -284.5t-72.5 -265t-121 -221.5t-176 -151.5t-229.5 -56.5q-97 0 -174 28.5t-126.5 76.5t-82.5 115t-46.5 139t-13.5 153q0 158 24 302t74.5 268.5t122.5 216t174 144t224 52.5z
M291 477q0 -80 17.5 -147t52.5 -119.5t93.5 -82.5t135.5 -30q99 0 181.5 52.5t136.5 139t91 200.5t53.5 234t16.5 243q0 52 -7 100.5t-27.5 101.5t-52.5 91t-88 63t-128 25q-92 0 -170.5 -48.5t-134 -131.5t-94.5 -194.5t-57.5 -237t-18.5 -259.5z" />
    <glyph glyph-name="one" unicode="1" horiz-adv-x="1286" 
d="M1071 119l-22 -119h-973l22 119h373l174 983h-334l15 108q58 0 96 2t78 7.5t66 16.5t52.5 29t45.5 45.5t37 64.5t34 87h117l-238 -1343h457z" />
    <glyph glyph-name="two" unicode="2" horiz-adv-x="1286" 
d="M248 1034q35 196 167.5 320.5t334.5 124.5q108 0 194 -31.5t139 -86t81 -123t28 -146.5q0 -82 -24 -151.5t-54 -116.5t-94 -100t-107 -81t-129 -80q-43 -26 -119 -70.5t-115 -68.5t-96 -63.5t-89 -71.5t-64 -76.5t-49 -93.5h799l-25 -119l-956 2q22 120 61.5 206.5
t118.5 160t135 112t187 117.5q17 11 26 16q29 18 76 45.5t72.5 43t63.5 39.5t59 39.5t49.5 38.5t44 42t33 44t26 49t14.5 54t6 62q0 125 -77.5 201t-221.5 76q-134 0 -227.5 -82t-120.5 -232h-147z" />
    <glyph glyph-name="three" unicode="3" horiz-adv-x="1286" 
d="M295 1090q35 174 149 280.5t293 106.5q192 0 301 -95t109 -266q0 -255 -289 -346q123 -38 184.5 -133.5t61.5 -226.5q0 -193 -135 -313t-357 -120q-220 0 -335 101t-148 305l-6 35h147l6 -33q22 -139 97.5 -213t226.5 -74q167 0 265 79.5t98 242.5q0 141 -87.5 219
t-224.5 78q-69 0 -102 -2l18 114q66 0 103 2q62 2 118.5 17t107.5 45.5t81.5 84.5t30.5 124q0 120 -69.5 188t-201.5 68q-118 0 -192.5 -71t-98.5 -173l-6 -24h-145z" />
    <glyph glyph-name="four" unicode="4" horiz-adv-x="1286" 
d="M106 393l19 109l827 960h129l-168 -950h181l-21 -119h-180l-70 -393h-143l68 393h-642zM291 512h479l121 694h-4z" />
    <glyph glyph-name="five" unicode="5" horiz-adv-x="1286" 
d="M1178 1341h-625l-166 -524q142 153 342 150q206 -5 324 -129t118 -351q0 -239 -136 -377.5t-382 -138.5q-97 0 -179 24.5t-139.5 65t-101 96t-68 116t-36.5 126.5h152q24 -139 123.5 -222t250.5 -83q162 0 267.5 103t105.5 290q0 167 -85.5 262t-237.5 95
q-117 0 -205.5 -54.5t-143.5 -134.5l-151 21l254 788l739 -2z" />
    <glyph glyph-name="six" unicode="6" horiz-adv-x="1286" 
d="M162 682q20 126 52 237t85 215t121 178t163.5 118.5t207.5 44.5q87 0 155 -21.5t111 -54t73.5 -82t46 -95.5t25.5 -104h-139q-9 38 -17 62.5t-28.5 61t-48 58t-75.5 38t-110 16.5q-334 0 -471 -594q73 109 180.5 161.5t235.5 49.5q104 -2 186.5 -38.5t134 -97t78.5 -137
t27 -163.5q0 -104 -30 -194.5t-82.5 -156.5t-123 -114t-152 -71.5t-167.5 -23.5q-150 0 -255 55t-155 160q-78 168 -28 492zM276 395q0 -136 91.5 -216.5t220.5 -80.5q185 0 304.5 120.5t119.5 326.5q0 134 -89 219.5t-218 85.5q-183 0 -306 -127t-123 -328z" />
    <glyph glyph-name="seven" unicode="7" horiz-adv-x="1286" 
d="M1245 1337q-263 -226 -496.5 -605t-316.5 -732h-141q91 371 310.5 735.5t469.5 603.5h-760l21 123h934z" />
    <glyph glyph-name="eight" unicode="8" horiz-adv-x="1286" 
d="M782 1475q86 0 156.5 -19.5t118 -52t80 -76.5t47 -91t14.5 -97q0 -142 -84.5 -233.5t-220.5 -129.5q106 -29 177 -118.5t71 -194.5q0 -148 -72.5 -260t-197 -170t-283.5 -58q-122 0 -215.5 32t-149.5 88t-84 126.5t-28 153.5t35.5 155t93 121.5t124 82t136.5 46.5
q-105 34 -162 110.5t-57 168.5q0 190 142 303t359 113zM258 358q0 -114 92.5 -188t229.5 -74q186 0 302.5 98t116.5 275q0 107 -84 174.5t-229 67.5q-120 0 -214.5 -37t-154 -118.5t-59.5 -197.5zM424 1042q0 -98 74.5 -154.5t191.5 -56.5q159 0 259 79.5t100 232.5
q0 102 -75.5 156.5t-193.5 54.5q-161 0 -258.5 -82t-97.5 -230z" />
    <glyph glyph-name="nine" unicode="9" horiz-adv-x="1286" 
d="M1190 739q-15 -86 -34 -161.5t-47.5 -154.5t-63 -143.5t-82.5 -122.5t-104.5 -97t-130.5 -62t-159 -23q-83 0 -149 20t-109.5 52.5t-74.5 80.5t-47.5 96.5t-26.5 107.5h137q42 -236 276 -236q84 0 154 34t118 87.5t87.5 135t64.5 160t48 179.5q-70 -107 -174.5 -164
t-237.5 -51q-195 9 -312.5 136.5t-117.5 299.5q0 127 45 234t121 178t177 110.5t212 39.5q262 0 381 -183q64 -95 73.5 -237t-24.5 -316zM348 909q0 -130 94 -219.5t217 -89.5q180 0 300 122.5t120 336.5q0 122 -89 207.5t-224 85.5q-175 0 -296.5 -119.5t-121.5 -323.5z
" />
    <glyph glyph-name="colon" unicode=":" horiz-adv-x="395" 
d="M190 950h164l-41 -239h-166zM20 0l43 240h164l-41 -240h-166z" />
    <glyph glyph-name="semicolon" unicode=";" horiz-adv-x="417" 
d="M193 950h163l-41 -239h-165zM-78 -242l187 482h159l-223 -482h-123z" />
    <glyph glyph-name="less" unicode="&#x3c;" horiz-adv-x="1220" 
d="M1051 893l-826 -375l826 -375v-137l-965 449v127l965 448v-137z" />
    <glyph glyph-name="equal" unicode="=" horiz-adv-x="1298" 
d="M139 375h1010v-119h-1010v119zM139 618v119h1010v-119h-1010z" />
    <glyph glyph-name="greater" unicode="&#x3e;" horiz-adv-x="1220" 
d="M166 893v137l964 -448v-127l-964 -449v137l825 375z" />
    <glyph glyph-name="question" unicode="?" horiz-adv-x="1120" 
d="M223 1051q36 201 179.5 323.5t334.5 122.5q189 0 285 -111.5t65 -291.5q-9 -50 -29.5 -96t-38.5 -75.5t-57 -70t-55.5 -55.5t-62.5 -56q-11 -10 -41.5 -36.5t-44 -39t-38.5 -37.5t-38 -43.5t-29.5 -44t-26 -53t-14.5 -57.5l-10 -55h-141l12 71q11 60 34.5 110.5t64 97
t68 72t81.5 71.5q7 6 32.5 28t33 29t29.5 27.5t30.5 31t25.5 30t25.5 34t19 34.5t17 40.5t10.5 42.5q22 125 -41.5 202.5t-187.5 77.5q-126 0 -223.5 -87.5t-124.5 -235.5l-5 -29h-143zM381 0l41 240h164l-41 -240h-164z" />
    <glyph glyph-name="at" unicode="@" horiz-adv-x="1695" 
d="M885 -102q-231 0 -409.5 93.5t-273.5 268.5t-79 402q12 177 86.5 329t189.5 254.5t260.5 160.5t298.5 58q329 0 516 -191t164 -501q-15 -233 -112 -367.5t-246 -134.5q-94 0 -140 45.5t-46 122.5q-31 -82 -103.5 -134t-175.5 -52q-151 0 -239.5 105t-75.5 286
q12 186 137.5 313t277.5 127q103 0 161 -53t69 -139l24 156h123l-84 -504l-6 -49q-5 -57 13 -85t73 -28q102 0 160.5 108.5t71.5 282.5q13 171 -49.5 301.5t-197 204.5t-323.5 74q-131 0 -253.5 -51t-217.5 -140t-156.5 -219t-72.5 -280q-13 -190 60.5 -337.5t226 -231
t360.5 -83.5h360l-8 -112h-364zM627 647q-20 -278 217 -278q117 0 188.5 90.5t81.5 255.5q9 112 -42.5 181t-153.5 69q-117 0 -199.5 -90.5t-91.5 -227.5z" />
    <glyph glyph-name="A" unicode="A" horiz-adv-x="1374" 
d="M106 0h-159l796 1462h199l297 -1462h-152l-88 451h-653zM412 569h565l-150 760h-4z" />
    <glyph glyph-name="B" unicode="B" horiz-adv-x="1269" 
d="M66 0l258 1462h460q139 0 226 -43q93 -40 142.5 -113t49.5 -161q0 -156 -90 -266t-233 -129q130 -26 197 -99.5t67 -187.5q0 -177 -105 -293t-280 -152q-80 -18 -178 -18h-514zM238 127h254q89 0 158 7.5t136 29t111 57t71 95t27 139.5q0 107 -81.5 168t-251.5 61h-326z
M360 809h234q83 0 148 8.5t124.5 30t99 57t62.5 92.5t23 133q0 205 -316 205h-282z" />
    <glyph glyph-name="C" unicode="C" horiz-adv-x="1576" 
d="M786 -27q-137 0 -250 38.5t-188 102t-127 148.5t-75 175t-23 184q0 197 63.5 361t174.5 274t263.5 170.5t329.5 60.5q112 0 205 -24t159 -64.5t117.5 -98.5t83 -120t52.5 -136h-146q-106 316 -475 316q-307 0 -492.5 -205t-185.5 -543q0 -64 15.5 -130t54.5 -136
t96 -123.5t148.5 -88t204.5 -34.5q189 0 332.5 87.5t217.5 236.5h148q-103 -213 -281.5 -332t-421.5 -119z" />
    <glyph glyph-name="D" unicode="D" horiz-adv-x="1429" 
d="M672 1462q316 0 502 -162q100 -86 151 -208.5t51 -262.5q0 -211 -75 -373.5t-209 -267.5q-115 -93 -265 -140.5t-317 -47.5h-444l258 1462h348zM238 127h290q99 0 194 23t187.5 76.5t162 132.5t112.5 200.5t43 271.5q0 228 -142 366t-393 138h-241z" />
    <glyph glyph-name="E" unicode="E" horiz-adv-x="1179" 
d="M1212 1462l-22 -127h-739l-93 -526h697l-23 -127h-696l-98 -555h745l-22 -127h-895l258 1462h888z" />
    <glyph glyph-name="F" unicode="F" horiz-adv-x="1112" 
d="M66 0l258 1462h874l-22 -127h-723l-95 -526h664l-23 -127h-663l-121 -682h-149z" />
    <glyph glyph-name="G" unicode="G" horiz-adv-x="1599" 
d="M1399 1044q-22 72 -54.5 126t-84.5 98.5t-130 68t-180 23.5q-307 0 -492.5 -205t-185.5 -543q0 -64 15.5 -130t54 -136t95 -123.5t146 -88t199.5 -34.5q224 0 363 129t178 379l-463 -2l23 123h635l-148 -729h-108l43 301q-72 -164 -200.5 -246t-346.5 -82
q-126 0 -232.5 38.5t-179 103t-124 149t-75.5 175t-24 182.5q0 197 63.5 361t174.5 274t263.5 170.5t329.5 60.5q110 0 200.5 -23.5t153 -63.5t110 -98t76.5 -120t48 -138h-143zM1343 608l9 -14l2 14h-11z" />
    <glyph glyph-name="H" unicode="H" horiz-adv-x="1380" 
d="M1235 1462h151l-258 -1462h-151l119 676h-762l-119 -676h-149l258 1462h149l-117 -659h762z" />
    <glyph glyph-name="I" unicode="I" horiz-adv-x="468" 
d="M324 1462h149l-258 -1462h-149z" />
    <glyph glyph-name="J" unicode="J" horiz-adv-x="987" 
d="M184 356q-17 -123 42.5 -189.5t176.5 -66.5q63 0 109 21t75 62t46 89.5t29 116.5l190 1073h152l-191 -1075q-18 -100 -47 -172.5t-77.5 -127.5t-121 -82.5t-170.5 -27.5q-113 0 -199 45.5t-129 133t-28 202.5l8 66h144z" />
    <glyph glyph-name="K" unicode="K" horiz-adv-x="1277" 
d="M215 0h-149l258 1462h149l-135 -770l846 770h196l-678 -614l445 -848h-172l-383 750l-291 -258z" />
    <glyph glyph-name="L" unicode="L" horiz-adv-x="1099" 
d="M324 1462h149l-233 -1335h727l-23 -127h-878z" />
    <glyph glyph-name="M" unicode="M" horiz-adv-x="1722" 
d="M66 0l258 1462l239 -2l236 -1288l684 1290h243l-258 -1462h-149l203 1141l24 143h-2l-688 -1284h-174l-238 1284h-2l-26 -147l-201 -1137h-149z" />
    <glyph glyph-name="N" unicode="N" horiz-adv-x="1443" 
d="M324 1462h176l469 -1007q12 -27 34.5 -77t41 -89.5t34.5 -71.5q11 56 29 161t20 116l170 968h150l-258 -1462h-180l-457 993q-18 37 -56 120.5t-59 123.5q-14 -63 -53 -299l-166 -938h-153z" />
    <glyph glyph-name="O" unicode="O" horiz-adv-x="1669" 
d="M954 1487q140 0 254.5 -38t189.5 -100.5t125.5 -146t72.5 -170.5t22 -178q0 -203 -64 -370t-175.5 -278.5t-263.5 -172t-329 -60.5q-137 0 -250 38.5t-188 102t-127 148.5t-75 175t-23 184q0 197 63.5 361t174.5 274t263.5 170.5t329.5 60.5zM272 612q0 -64 15.5 -130
t54.5 -136t96 -123.5t148.5 -88t204.5 -34.5q201 0 356 96t238 263.5t83 378.5q0 69 -14.5 137t-51.5 139t-93.5 124.5t-149 87.5t-209.5 34q-307 0 -492.5 -205t-185.5 -543z" />
    <glyph glyph-name="P" unicode="P" horiz-adv-x="1187" 
d="M635 731q88 0 160.5 18.5t131 58t91.5 108.5t33 163q0 46 -15 88.5t-48 81.5t-94.5 62.5t-143.5 23.5h-297l-107 -604h289zM66 0l258 1462h456q101 0 183.5 -32t133.5 -85t78 -118t27 -135q0 -119 -45.5 -213.5t-125 -153t-181 -89t-217.5 -30.5h-309l-109 -606h-149z
" />
    <glyph glyph-name="Q" unicode="Q" horiz-adv-x="1683" 
d="M967 428q102 -36 250 -180q121 100 186 253t65 339q0 69 -14.5 137t-51.5 139t-93.5 124.5t-149 87.5t-209.5 34q-307 0 -492.5 -205t-185.5 -543q0 -64 15.5 -130t54.5 -136t96 -123.5t148.5 -88t204.5 -34.5q180 0 327 80q-33 33 -57.5 54.5t-68 49.5t-93.5 48z
M123 623q0 197 63.5 361t174.5 274t263.5 170.5t329.5 60.5q140 0 254.5 -38t189.5 -100.5t125.5 -146t72.5 -170.5t22 -178q0 -231 -80 -411t-225 -295q88 -82 188 -113l-61 -103q-34 7 -75.5 34t-67 49t-76.5 69q-193 -111 -435 -111q-137 0 -250 38.5t-188 102
t-127 148.5t-75 175t-23 184z" />
    <glyph glyph-name="R" unicode="R" horiz-adv-x="1294" 
d="M66 0l258 1462h497q95 0 171.5 -23t125 -60t81 -85.5t45.5 -96.5t13 -97q0 -345 -378 -430q34 -10 58.5 -24t43 -38.5t30.5 -48t22 -66t16 -78.5t14 -98q24 -174 82 -313l2 -4h-162q-50 159 -74 367q-10 65 -24.5 107t-43 78.5t-77 53.5t-119.5 17h-321l-111 -623h-149z
M348 750h359q116 0 203.5 34t141.5 110.5t54 188.5q0 27 -5 55t-23.5 65.5t-49 65t-88 47t-133.5 19.5h-354z" />
    <glyph glyph-name="S" unicode="S" horiz-adv-x="1232" 
d="M227 444q13 -91 55 -160t100 -108t120.5 -57.5t126.5 -18.5q68 0 128.5 17t109 50t77 88t27.5 126q0 27 -5 51t-11 43t-20.5 37.5t-25.5 31t-33.5 28t-36.5 24t-43 22.5t-44.5 21t-50 21.5t-50.5 21.5q-70 30 -120 54.5t-102 56t-86 63.5t-62 71t-41 85.5t-13 101.5
q0 91 39.5 163.5t106.5 118t152 69.5t180 24q208 0 326 -109t149 -313h-144q-48 295 -331 295q-148 0 -236 -62.5t-88 -183.5q0 -103 76.5 -168.5t249.5 -140.5q43 -18 66.5 -28t61.5 -28t60 -30.5t53.5 -31.5t49.5 -35.5t40.5 -39t35 -46t24.5 -51t17 -59.5t5 -67
q0 -112 -41.5 -195.5t-113 -130.5t-156.5 -69.5t-184 -22.5q-136 0 -251 50t-196.5 158.5t-99.5 262.5h149z" />
    <glyph glyph-name="T" unicode="T" horiz-adv-x="1153" 
d="M182 1335l23 127h1071l-21 -127h-462l-236 -1335h-149l235 1335h-461z" />
    <glyph glyph-name="U" unicode="U" horiz-adv-x="1363" 
d="M1212 514q-46 -270 -180.5 -405.5t-394.5 -135.5q-276 0 -403.5 163t-79.5 437l157 889h152l-160 -899q-38 -214 53.5 -338.5t284.5 -124.5q190 0 287.5 106t134.5 318l166 938h151z" />
    <glyph glyph-name="V" unicode="V" horiz-adv-x="1318" 
d="M188 1462h164l236 -1308h6l700 1308h166l-798 -1460l-193 -2z" />
    <glyph glyph-name="W" unicode="W" horiz-adv-x="1847" 
d="M188 1462h156l74 -1079l16 -223h4l539 1302h215l59 -1077l17 -227h2l96 227l461 1077h160l-474 -1077l-172 -385h-206l-23 383l-53 926h-2l-545 -1309h-207l-29 381z" />
    <glyph glyph-name="X" unicode="X" horiz-adv-x="1265" 
d="M-70 0l656 754l-371 708h176l299 -585l518 585h183l-635 -719l393 -743h-176l-320 621l-540 -621h-183z" />
    <glyph glyph-name="Y" unicode="Y" horiz-adv-x="1230" 
d="M201 1462h168l276 -723h4l535 723h174l-658 -864l-104 -598h-152l105 598z" />
    <glyph glyph-name="Z" unicode="Z" horiz-adv-x="1241" 
d="M25 131l1060 1200h-804l24 131h981l-22 -131l-1057 -1200h870l-24 -131h-1051z" />
    <glyph glyph-name="bracketleft" unicode="[" horiz-adv-x="546" 
d="M664 1386h-226l-295 -1681h224l-21 -111h-350l336 1903h350z" />
    <glyph glyph-name="backslash" unicode="\" horiz-adv-x="661" 
d="M334 1575l186 -1770h-137l-186 1770h137z" />
    <glyph glyph-name="bracketright" unicode="]" horiz-adv-x="546" 
d="M186 1386l21 111h350l-336 -1903h-350l18 111h226l295 1681h-224z" />
    <glyph glyph-name="asciicircum" unicode="^" horiz-adv-x="1224" 
d="M563 1427h107l458 -866h-135l-377 721l-370 -721h-137z" />
    <glyph glyph-name="underscore" unicode="_" horiz-adv-x="1445" 
d="M-106 -70h1433v-73h-1433v73z" />
    <glyph glyph-name="grave" unicode="`" horiz-adv-x="481" 
d="M342 1462l143 -268h-104l-219 268h180z" />
    <glyph glyph-name="a" unicode="a" horiz-adv-x="1093" 
d="M41 270q0 55 18 100.5t44 77t72 57.5t84.5 41.5t101 29.5t102 20.5t104.5 15.5q158 23 228.5 62.5t70.5 118.5q0 83 -72.5 124t-183.5 41q-234 0 -293 -215h-143q12 60 46 118t87 107t131.5 79t169.5 30q72 0 131.5 -12t100.5 -33.5t73.5 -50.5t49.5 -62.5t27.5 -70
t9 -72.5t-6.5 -71l-88 -492q-20 -111 -20 -213h-148q0 63 17 176q-20 -35 -49.5 -66t-74.5 -62t-111 -49.5t-144 -18.5q-74 0 -133 18.5t-95.5 48.5t-61 69t-34.5 77t-10 77zM180 274q0 -76 56.5 -128t173.5 -52q164 0 264.5 103.5t140.5 285.5q20 94 27 135
q-41 -49 -114.5 -78.5t-221.5 -52.5q-61 -9 -103 -17.5t-87.5 -24.5t-73 -37.5t-45 -55.5t-17.5 -78z" />
    <glyph glyph-name="b" unicode="b" horiz-adv-x="1210" 
d="M45 0l258 1462h143l-71 -409q-20 -102 -31 -172q136 196 377 196q95 0 170.5 -28.5t122.5 -74t78 -108.5t43 -127.5t12 -134.5q0 -277 -153 -449.5t-408 -172.5q-149 0 -238.5 59.5t-124.5 159.5l-39 -201h-139zM266 475q-14 -170 65 -270.5t236 -100.5q138 0 238 68.5
t148 180t48 251.5q0 74 -17 135.5t-53 111t-97.5 77.5t-143.5 28q-93 0 -171 -40.5t-130 -108.5t-83.5 -153t-39.5 -179z" />
    <glyph glyph-name="c" unicode="c" horiz-adv-x="1153" 
d="M1042 311q-66 -165 -189.5 -247t-320.5 -82q-111 0 -202 38.5t-148.5 103.5t-89 148t-31.5 174q0 147 45.5 267t125 199t186.5 122t231 43q93 0 168.5 -26t125 -71.5t81 -101t45.5 -122.5h-139q-28 92 -99 146t-184 54q-92 0 -171.5 -33t-140 -94.5t-95.5 -158
t-35 -215.5q0 -146 92.5 -249.5t239.5 -103.5q136 0 221.5 50.5t138.5 158.5h145z" />
    <glyph glyph-name="d" unicode="d" horiz-adv-x="1208" 
d="M61 455q0 275 160 448.5t406 173.5q146 0 235.5 -61t122.5 -154l107 600h143l-258 -1462h-141l26 184q-62 -102 -150 -152t-233 -50q-82 0 -150.5 25t-117.5 69t-83 103.5t-50.5 129.5t-16.5 146zM205 451q0 -71 16.5 -131.5t51 -110t93.5 -77.5t138 -28q104 0 187 42
t134 111.5t79.5 151t33.5 169.5q15 172 -65.5 275t-241.5 103q-124 0 -222.5 -69.5t-151 -184.5t-52.5 -251z" />
    <glyph glyph-name="e" unicode="e" horiz-adv-x="1150" 
d="M516 -18q-111 0 -198.5 37t-142.5 102.5t-83.5 152t-28.5 189.5q0 272 159 443t415 171q87 0 159.5 -26.5t122.5 -71t85 -104.5t52 -126t19 -137q0 -97 -4 -127h-866q-2 -185 79 -285t242 -100q266 0 357 209h145q-131 -327 -512 -327zM221 604h721q-4 164 -89.5 259
t-225.5 95q-160 0 -266.5 -95t-139.5 -259z" />
    <glyph glyph-name="f" unicode="f" horiz-adv-x="608" 
d="M332 1200q21 115 91.5 188.5t192.5 73.5h115l-22 -119h-76q-137 0 -164 -161l-23 -123h183l-21 -117h-180l-166 -942h-141l166 942h-148l21 117h147z" />
    <glyph glyph-name="g" unicode="g" horiz-adv-x="1204" 
d="M983 57q-40 -218 -172 -333t-344 -115q-189 0 -308 88.5t-134 245.5h135q13 -115 95.5 -168.5t217.5 -53.5q308 0 375 355q14 77 18 110q-67 -102 -162 -153t-235 -51q-84 0 -153.5 26.5t-116 70.5t-79 103t-47 122.5t-14.5 129.5q0 148 46 271.5t122.5 203.5t174.5 124
t204 44q276 0 375 -209l35 191h143zM207 440q0 -155 77.5 -245.5t223.5 -90.5q96 0 176 42t131 111.5t81 152t36 170.5q14 171 -69 273.5t-247 102.5q-115 0 -209 -68.5t-147 -186.5t-53 -261z" />
    <glyph glyph-name="h" unicode="h" horiz-adv-x="1116" 
d="M45 0l258 1462h143l-65 -358q-18 -106 -47 -236q64 103 151.5 156t210.5 53q184 0 266.5 -115t45.5 -325l-113 -637h-143l108 614q16 80 12 139t-17 98t-42 62.5t-64 33t-81 9.5q-64 0 -122.5 -24t-111.5 -73t-93 -132.5t-60 -194.5l-93 -532h-143z" />
    <glyph glyph-name="i" unicode="i" horiz-adv-x="432" 
d="M420 1257h-152l37 205h152zM53 0l187 1059h143l-186 -1059h-144z" />
    <glyph glyph-name="j" unicode="j" horiz-adv-x="462" 
d="M451 1257h-152l37 205h151zM-184 -403l22 118h78q64 0 96.5 26t42.5 91l217 1227h142l-215 -1227q-42 -235 -279 -235h-104z" />
    <glyph glyph-name="k" unicode="k" horiz-adv-x="987" 
d="M188 0h-143l258 1462h143l-157 -893l577 490h183l-533 -451l352 -608h-166l-292 520l-150 -119z" />
    <glyph glyph-name="l" unicode="l" horiz-adv-x="419" 
d="M303 1462h143l-258 -1462h-143z" />
    <glyph glyph-name="m" unicode="m" horiz-adv-x="1673" 
d="M47 0l186 1059h136l-35 -185q131 205 334 205q226 0 264 -207q127 207 354 207q170 0 244 -107t39 -302l-117 -670h-143l118 670q27 154 -15.5 221t-143.5 67q-120 0 -216 -106t-130 -299l-99 -553h-143l106 614q16 101 16.5 167.5t-22 105.5t-58 55t-91.5 16
q-130 0 -221 -114.5t-127 -311.5l-93 -532h-143z" />
    <glyph glyph-name="n" unicode="n" horiz-adv-x="1118" 
d="M47 0l186 1059h136l-35 -191q69 105 155 157t209 52q184 0 266.5 -115t45.5 -325l-113 -637h-143l108 614q16 80 12 139t-17 98t-42 62.5t-64 33t-81 9.5q-64 0 -122.5 -24t-111.5 -73t-93 -132.5t-60 -194.5l-93 -532h-143z" />
    <glyph glyph-name="o" unicode="o" horiz-adv-x="1187" 
d="M651 1077q119 0 210.5 -38.5t147.5 -106.5t84.5 -156.5t28.5 -193.5q0 -264 -161 -432t-422 -168q-231 0 -353.5 135t-122.5 356q0 171 72.5 308.5t207 216.5t308.5 79zM207 477q0 -174 90 -274.5t252 -100.5q188 0 311 130.5t123 345.5q0 173 -87 275.5t-253 102.5
q-191 0 -313.5 -133t-122.5 -346z" />
    <glyph glyph-name="p" unicode="p" horiz-adv-x="1214" 
d="M-25 -403l258 1462h144l-31 -178q132 196 381 196q93 0 167.5 -29t121.5 -76t78 -110t44 -126.5t13 -129.5q0 -277 -156 -450.5t-397 -173.5q-144 0 -237.5 69.5t-131.5 179.5l-110 -634h-144zM266 451q0 -156 79 -252.5t235 -96.5q126 0 224.5 69.5t150 183.5t51.5 251
q0 152 -77.5 251t-232.5 99q-97 0 -180.5 -46.5t-136.5 -120.5t-83 -162.5t-30 -175.5z" />
    <glyph glyph-name="q" unicode="q" horiz-adv-x="1208" 
d="M61 451q0 173 68.5 315t198.5 226.5t299 84.5q148 0 238.5 -60.5t119.5 -154.5l37 197h141l-258 -1462h-143l72 413l32 168q-63 -95 -152 -145.5t-231 -50.5q-138 0 -235 63.5t-142 167.5t-45 238zM203 446q0 -71 17 -131t51.5 -109t95 -76.5t141.5 -27.5q125 0 222 68
t149 174.5t61 233.5q14 175 -67.5 276.5t-241.5 101.5q-102 0 -185 -43t-135 -115.5t-80 -163t-28 -188.5z" />
    <glyph glyph-name="r" unicode="r" horiz-adv-x="659" 
d="M47 0l186 1059h144l-33 -187q54 91 145 142t209 55l-22 -141q-139 -3 -217 -58q-70 -47 -111.5 -133t-64.5 -215l-93 -522h-143z" />
    <glyph glyph-name="s" unicode="s" horiz-adv-x="962" 
d="M780 764q-22 106 -87.5 149t-170.5 43q-100 0 -166.5 -40.5t-66.5 -122.5q0 -32 11.5 -57.5t26.5 -42.5t51.5 -36.5t63 -30.5t84.5 -34q81 -31 128.5 -53t97.5 -57t73 -80t23 -103q0 -71 -26.5 -127t-68.5 -90.5t-98 -57t-110 -31.5t-109 -9q-76 0 -142.5 19t-123 57
t-93.5 104t-46 153h141q17 -112 82.5 -163.5t187.5 -51.5q111 0 187 46t76 139q0 68 -52.5 106.5t-191.5 87.5q-52 19 -82.5 31.5t-72.5 33t-66.5 41.5t-48.5 50t-35 65t-11 80q0 77 34.5 136t91.5 92.5t122 50t135 16.5q165 0 266 -80t121 -233h-135z" />
    <glyph glyph-name="t" unicode="t" horiz-adv-x="589" 
d="M266 246q-21 -129 99 -129h84l-23 -117h-78q-133 0 -187.5 68.5t-33.5 185.5l119 688h-156l21 117h155l45 254l154 63l-55 -317h202l-20 -117h-203z" />
    <glyph glyph-name="u" unicode="u" horiz-adv-x="1118" 
d="M1071 1059l-186 -1059h-135l32 193q-54 -99 -147 -155t-215 -56q-184 0 -266.5 115t-44.5 325l112 637h144l-109 -615q-16 -80 -12 -139t17.5 -98t42.5 -62.5t64 -33t81 -9.5q63 0 121.5 24t111.5 73t93 133t59 194l94 533h143z" />
    <glyph glyph-name="v" unicode="v" horiz-adv-x="1007" 
d="M264 1059l172 -905l4 4q276 513 488 901h153q-374 -672 -594 -1059h-153q-41 190 -113.5 546.5t-105.5 512.5h149z" />
    <glyph glyph-name="w" unicode="w" horiz-adv-x="1472" 
d="M236 0l-121 1059h145l68 -692q3 -33 8 -98.5t8 -98.5h2q58 142 84 201l307 688h181l63 -686q4 -65 16 -203h2l91 207l307 682h149l-497 -1059h-160l-70 717q-3 30 -8 91t-8 93h-2q-17 -35 -44 -100t-36 -86l-324 -715h-161z" />
    <glyph glyph-name="x" unicode="x" horiz-adv-x="1052" 
d="M-57 0l503 549l-296 510h165l232 -406l375 406h174l-484 -514l310 -545h-164l-242 442l-399 -442h-174z" />
    <glyph glyph-name="y" unicode="y" horiz-adv-x="1032" 
d="M115 1059h143l143 -653q38 -171 58 -271h2l143 271l344 653h158l-700 -1270q-56 -99 -122 -149t-167 -50h-115l21 119h98q26 0 49.5 8t37 15.5t32 30.5t24 30.5t24.5 40.5t21 37l56 98z" />
    <glyph glyph-name="z" unicode="z" horiz-adv-x="991" 
d="M799 940h-135h-467l20 119h780l-16 -92l-809 -848h111h563l-23 -119h-843l18 100z" />
    <glyph glyph-name="braceleft" unicode="{" horiz-adv-x="706" 
d="M696 1403q-59 0 -98 -49.5t-53 -134.5l-70 -396q-12 -67 -42.5 -121t-66.5 -85t-66 -48.5t-52 -21.5v-4q16 -3 34 -12.5t40.5 -30.5t37 -52t22 -76.5t-4.5 -105.5l-70 -395q-14 -85 7 -135.5t79 -50.5h96l-16 -93h-129q-83 0 -136.5 73t-31.5 196l68 379
q21 115 -20.5 183.5t-112.5 68.5l18 106q70 0 136 69.5t85 182.5l68 379q22 123 100.5 195.5t161.5 72.5h129l-16 -94h-97z" />
    <glyph glyph-name="bar" unicode="|" horiz-adv-x="593" 
d="M264 1774h115v-2212h-115v2212z" />
    <glyph glyph-name="braceright" unicode="}" horiz-adv-x="706" 
d="M223 1403l17 94h129q84 0 137 -72.5t31 -195.5l-68 -379q-21 -113 20 -182.5t111 -69.5l-18 -106q-71 0 -136 -68.5t-86 -183.5l-65 -379q-22 -123 -100.5 -196t-161.5 -73h-129l16 93h96q58 0 98 51t54 135l70 395q13 70 43.5 126t66.5 86t65.5 45.5t51.5 19.5v4
q-20 5 -44 21t-50.5 49.5t-35.5 83.5t1 122l70 396q15 85 -6.5 134.5t-80.5 49.5h-96z" />
    <glyph glyph-name="asciitilde" unicode="~" horiz-adv-x="1206" 
d="M1124 645q-14 -125 -90.5 -196.5t-208.5 -71.5q-57 0 -122 22.5t-114 50t-109 50t-109 22.5q-73 0 -114.5 -38.5t-47.5 -106.5h-133q9 121 86.5 194.5t208.5 73.5q66 0 135.5 -22.5t117.5 -50t103.5 -50t97.5 -22.5q146 0 168 145h131z" />
    <glyph glyph-name="uni00A0" unicode="&#xa0;" horiz-adv-x="454" 
 />
    <glyph glyph-name="exclamdown" unicode="&#xa1;" horiz-adv-x="491" 
d="M84 82l147 620h76l-69 -620l-86 -483h-154zM219 821l41 240h166l-43 -240h-164z" />
    <glyph glyph-name="cent" unicode="&#xa2;" horiz-adv-x="1144" 
d="M393 -209l35 201q-172 33 -269.5 161t-97.5 293q0 143 42.5 260.5t118 196.5t176.5 124t220 50l33 187h137l-34 -197q133 -25 211.5 -109t103.5 -202h-139q-48 154 -197 190l-149 -842q115 7 190 58t123 149h145q-63 -159 -179.5 -241t-301.5 -88l-33 -191h-135zM205 455
q0 -122 67 -217t179 -125l145 841q-171 -18 -281 -149t-110 -350z" />
    <glyph glyph-name="sterling" unicode="&#xa3;" horiz-adv-x="1280" 
d="M121 639l20 115l168 4q-47 108 -58 158q-19 83 -5 171q20 123 100.5 217.5t198.5 143.5t252 49q225 0 333 -124t87 -329l-148 11q6 154 -58.5 234.5t-219.5 80.5q-149 0 -260.5 -79.5t-137.5 -215.5q-2 -29 -3.5 -48t4 -47t10.5 -46.5t15 -46t17.5 -46t18.5 -46.5t18 -47
l406 6l-19 -115l-352 -4q11 -52 2 -119q-23 -126 -103 -223t-200 -180q111 50 207 47q99 -2 213 -41q125 -31 184 -27q53 1 117.5 22.5t107.5 51.5l58 -109q-65 -47 -151 -69.5t-171 -22.5q-107 0 -221 43q-132 35 -227 35q-104 0 -224 -74l-69 121q20 17 59.5 50t60.5 51.5
t53.5 50t51.5 59t41 64.5t36 79.5t23 92.5q9 52 -4 108z" />
    <glyph glyph-name="currency" unicode="&#xa4;" horiz-adv-x="1302" 
d="M170 715q0 175 115 319l-109 111l82 82l111 -111q140 111 319 111q173 0 309 -111l113 111l82 -84l-109 -111q111 -140 111 -313q0 -177 -113 -316l111 -112l-78 -80l-110 113q-143 -117 -318 -117q-180 0 -321 115l-107 -113l-82 82l109 110q-115 141 -115 314zM307 715
q0 -163 110.5 -276t268.5 -113q155 0 264 113.5t109 279.5q0 162 -108.5 275.5t-262.5 113.5q-162 0 -271.5 -113.5t-109.5 -279.5z" />
    <glyph glyph-name="yen" unicode="&#xa5;" horiz-adv-x="1230" 
d="M367 1462q46 -119 138 -361.5t138 -361.5h4l4 6q77 105 257 345t274 370l176 2l-551 -723h219l-18 -110h-285l-23 -31l-18 -106h301l-20 -113h-301l-68 -379h-152l68 379h-301l20 113h301l19 106l-12 31h-285l20 110h220l-291 723h166z" />
    <glyph glyph-name="brokenbar" unicode="&#xa6;" horiz-adv-x="468" 
d="M305 844h-115v508h115v-508zM190 -139v508h115v-508h-115z" />
    <glyph glyph-name="section" unicode="&#xa7;" horiz-adv-x="1118" 
d="M950 1178q-22 106 -87.5 149t-170.5 43q-99 0 -166 -41.5t-67 -122.5q0 -27 6 -48.5t22.5 -39.5t32 -31t48 -28.5t57 -25t71.5 -27.5q75 -29 128 -57.5t100.5 -69t71.5 -93.5t24 -120q0 -80 -38.5 -141t-94 -94t-127.5 -52q149 -81 149 -219q0 -70 -26.5 -126t-68.5 -91
t-97.5 -58t-109.5 -32t-109 -9q-60 0 -114.5 11.5t-105 37.5t-88.5 64t-63.5 95t-32.5 128h139q19 -113 84.5 -164t186.5 -51q112 0 187 44.5t75 137.5q0 68 -51.5 107t-190.5 90q-52 19 -86 32.5t-83 37t-80.5 48.5t-62 58.5t-45.5 76.5t-15 93q0 63 24 113t67.5 83.5
t95 54.5t114.5 32q-138 79 -138 221q0 78 34.5 137t91.5 92.5t122 49.5t135 16q165 0 266 -79t121 -232h-135zM295 702q0 -33 10 -61t33 -51t45.5 -40.5t62.5 -36t68 -29.5t76 -29l45 -19q96 13 169 73.5t73 141.5q0 89 -56.5 143t-189.5 101l-60 23q-110 -11 -193 -69.5
t-83 -146.5z" />
    <glyph glyph-name="dieresis" unicode="&#xa8;" horiz-adv-x="712" 
d="M295 1462h137l-35 -198h-137zM567 1264l35 198h137l-34 -198h-138z" />
    <glyph glyph-name="copyright" unicode="&#xa9;" horiz-adv-x="1771" 
d="M924 -49q-159 0 -304 60.5t-251 164.5t-169 250t-63 309q0 160 63 304.5t169 247.5t251 163.5t304 60.5q158 0 302.5 -60.5t249.5 -163.5t167.5 -247.5t62.5 -304.5q0 -163 -62.5 -309t-168 -250t-249.5 -164.5t-302 -60.5zM262 735q0 -188 88.5 -344t240.5 -245t333 -89
q179 0 329.5 89t239 245t88.5 344q0 137 -52 261.5t-140.5 214t-209.5 142t-255 52.5q-181 0 -333 -89t-240.5 -243.5t-88.5 -337.5zM561 735q0 164 102.5 271.5t270.5 107.5q257 0 334 -237h-117q-56 139 -217 139q-118 0 -186 -78.5t-68 -202.5q0 -122 68 -200t186 -78
q169 0 215 139h121q-27 -107 -115.5 -173.5t-220.5 -66.5q-168 0 -270.5 107t-102.5 272z" />
    <glyph glyph-name="ordfeminine" unicode="&#xaa;" horiz-adv-x="802" 
d="M371 664q-111 0 -172.5 56.5t-55.5 143.5q2 31 12.5 58t23 47.5t37 39t41.5 30t51 23.5t49.5 17t53.5 13t47.5 9.5t44.5 6.5q17 3 25 4q82 13 122.5 37t43.5 72q4 51 -34 75.5t-109 24.5q-69 0 -124 -39t-79 -108l-112 4q10 37 35.5 77t65 79t98.5 64t126 25
q291 0 240 -272l-56 -317q-12 -88 -16 -158l-129 4q0 30 14 102l2 17q-92 -135 -245 -135zM266 870q-5 -46 30 -75t97 -29q99 0 170.5 66.5t98.5 203.5l10 60q-48 -63 -207 -88q-190 -29 -199 -138z" />
    <glyph glyph-name="guillemotleft" unicode="&#xab;" horiz-adv-x="829" 
d="M78 530l319 428h131l-295 -428l146 -428h-131zM377 530l319 428h131l-295 -428l146 -428h-131z" />
    <glyph glyph-name="logicalnot" unicode="&#xac;" horiz-adv-x="1320" 
d="M145 672v110h1020v-557h-112v447h-908z" />
    <glyph glyph-name="uni00AD" unicode="&#xad;" horiz-adv-x="952" 
d="M170 598h641l-23 -121h-641z" />
    <glyph glyph-name="registered" unicode="&#xae;" horiz-adv-x="1771" 
d="M1161 545q3 -10 13 -43.5t13.5 -45t13 -33.5t20.5 -40v-8h-123q-14 19 -24 45t-21.5 67.5t-16.5 57.5q-19 60 -48 88.5t-87 28.5h-108v-287h-119v731h264q122 0 190 -58.5t68 -150.5q0 -70 -38.5 -122t-102.5 -73q41 -17 62 -51.5t44 -105.5zM137 735q0 -163 63 -309
t169 -250t251 -164.5t304 -60.5q158 0 302 60.5t249.5 164.5t168 250t62.5 309q0 160 -62.5 304.5t-167.5 247.5t-249.5 163.5t-302.5 60.5q-159 0 -304 -60.5t-251 -163.5t-169 -247.5t-63 -304.5zM262 735q0 183 88.5 337.5t240.5 243.5t333 89q133 0 255 -53t210 -142.5
t140 -213.5t52 -261q0 -188 -88.5 -344t-239 -245t-329.5 -89q-181 0 -333 89t-240.5 245t-88.5 344zM793 758h139q67 0 106 36t39 93q0 56 -36.5 87.5t-110.5 31.5h-137v-248z" />
    <glyph glyph-name="macron" unicode="&#xaf;" horiz-adv-x="835" 
d="M217 1350h686l-14 -88h-688z" />
    <glyph glyph-name="degree" unicode="&#xb0;" horiz-adv-x="739" 
d="M489 1038q78 0 126.5 51.5t48.5 120.5t-48.5 120.5t-126.5 51.5t-125 -51t-47 -121t47 -121t125 -51zM219 1210q0 113 77.5 192t192.5 79q113 0 192 -79.5t79 -191.5q0 -115 -79 -192.5t-192 -77.5q-115 0 -192.5 77t-77.5 193z" />
    <glyph glyph-name="plusminus" unicode="&#xb1;" horiz-adv-x="1325" 
d="M129 160h1010v-113h-1010v113zM129 567v115h446v319h117v-319h447v-115h-447v-317h-117v317h-446z" />
    <glyph glyph-name="uni00B2" unicode="&#xb2;" horiz-adv-x="716" 
d="M215 1407q19 125 106 203t209 78q130 0 203.5 -66.5t73.5 -161.5q0 -47 -14 -88t-32.5 -70t-55.5 -61.5t-64.5 -52t-77.5 -51.5q-28 -18 -75 -46t-74 -45.5t-60 -41.5t-55 -49t-37 -54h463l-16 -100l-603 2q11 58 33 106.5t45.5 81.5t66.5 69.5t75.5 58.5t93.5 61
q18 11 57 34t54 32.5t44 28.5t40.5 30t29.5 29t25 33.5t12.5 36t5.5 42.5q-2 61 -42 101t-118 40q-74 0 -126.5 -47t-65.5 -133h-121z" />
    <glyph glyph-name="uni00B3" unicode="&#xb3;" horiz-adv-x="727" 
d="M250 1448q24 107 98.5 173.5t181.5 66.5q122 0 190 -59t68 -161q0 -82 -47.5 -133t-117.5 -71q68 -24 101.5 -81.5t33.5 -133.5q0 -115 -85 -190t-220 -75q-132 0 -208.5 65.5t-92.5 178.5l-2 25h116l2 -19q8 -68 52.5 -108.5t123.5 -40.5q89 0 144 47t55 125
q0 72 -45 114.5t-119 42.5h-63l10 97h63q74 3 128.5 41t54.5 106q0 131 -140 131q-63 0 -102.5 -36t-56.5 -93l-2 -12h-121z" />
    <glyph glyph-name="acute" unicode="&#xb4;" horiz-adv-x="530" 
d="M719 1462h178l-358 -268h-107z" />
    <glyph glyph-name="uni00B5" unicode="&#xb5;" horiz-adv-x="1120" 
d="M-37 -406l258 1465h144l-117 -666q-54 -291 211 -291q62 0 119.5 23.5t109 71.5t91 131.5t59.5 193.5l94 537h143l-186 -1059h-137l34 193q-53 -100 -145.5 -155.5t-210.5 -55.5q-77 0 -142 21t-100 63l-82 -472h-143z" />
    <glyph glyph-name="paragraph" unicode="&#xb6;" horiz-adv-x="1118" 
d="M840 -236h-113l283 1604h-267l-280 -1604h-113l158 879q-74 0 -135.5 21.5t-104 58.5t-72.5 86.5t-43.5 105t-13.5 115.5q0 132 75.5 231.5t198.5 150t273 50.5h453z" />
    <glyph glyph-name="periodcentered" unicode="&#xb7;" horiz-adv-x="493" 
d="M248 666q54 0 92.5 -38.5t38.5 -92.5q0 -50 -39.5 -91t-89.5 -41q-54 0 -93.5 39t-39.5 93t38.5 92.5t92.5 38.5z" />
    <glyph glyph-name="cedilla" unicode="&#xb8;" horiz-adv-x="542" 
d="M74 -424q-99 0 -180 41l45 82q61 -39 133 -39q59 0 103.5 20.5t51.5 59.5q6 35 -17.5 55.5t-66.5 20.5q-48 0 -118 -27l-39 70l151 141h96l-129 -125l2 -4q39 27 99 27q73 0 113.5 -38t29.5 -110q-12 -60 -57 -101t-100 -57t-117 -16z" />
    <glyph glyph-name="uni00B9" unicode="&#xb9;" horiz-adv-x="499" 
d="M422 801h-119l113 637h-209l14 84q108 0 163.5 29.5t92.5 127.5h101z" />
    <glyph glyph-name="ordmasculine" unicode="&#xba;" horiz-adv-x="864" 
d="M467 649q-145 0 -234.5 93t-89.5 237q0 181 124.5 307.5t303.5 126.5q145 0 235.5 -93t90.5 -239q0 -180 -125 -306t-305 -126zM268 973q0 -99 54.5 -160t146.5 -61q123 0 213 101t90 237q0 99 -55 161t-148 62q-121 0 -211 -101.5t-90 -238.5z" />
    <glyph glyph-name="guillemotright" unicode="&#xbb;" horiz-adv-x="833" 
d="M754 530l-322 -428h-131l299 428l-147 428h131zM2 102l299 428l-147 428h131l170 -428l-322 -428h-131z" />
    <glyph glyph-name="onequarter" unicode="&#xbc;" horiz-adv-x="1492" 
d="M383 584h-119l113 637h-209l14 84q108 0 163.5 29.5t92.5 127.5h101zM258 4l819 1456h127l-819 -1456h-127zM776 225l19 105l481 549h117l-99 -555h107l-17 -99h-108l-39 -225h-117l39 225h-383zM911 324h265l65 374h-2z" />
    <glyph glyph-name="onehalf" unicode="&#xbd;" horiz-adv-x="1564" 
d="M383 584h-119l113 637h-209l14 84q108 0 163.5 29.5t92.5 127.5h101zM231 4l820 1456h127l-820 -1456h-127zM813 2q11 58 33 106.5t45.5 81.5t66 69.5t75 59t93.5 60.5q19 12 57 34.5t54 32t44.5 28.5t40.5 30t30 29t25 33.5t12.5 36t5.5 42.5q-2 61 -42 101t-118 40
q-74 0 -127 -47t-66 -133h-120q19 125 106 203t209 78q130 0 203 -66.5t73 -161.5q0 -47 -13.5 -88t-32.5 -70t-55.5 -61.5t-64 -52t-77.5 -51.5q-28 -18 -75 -46t-74 -45.5t-60 -41.5t-55 -49t-37 -54h463l-17 -100z" />
    <glyph glyph-name="threequarters" unicode="&#xbe;" horiz-adv-x="1796" 
d="M211 1231q24 107 98.5 173t182.5 66q122 0 190 -58.5t68 -160.5q0 -82 -48 -133t-118 -71q68 -24 101.5 -82t33.5 -134q0 -115 -85 -189.5t-220 -74.5q-132 0 -208.5 65.5t-92.5 178.5l-2 25h116l2 -19q8 -67 53 -108t124 -41q89 0 143.5 47t54.5 125q0 72 -45 114.5
t-119 42.5h-63l10 97h64q74 3 128 41t54 106q0 131 -139 131q-63 0 -103 -36.5t-57 -92.5l-2 -12h-121zM571 4l820 1456h127l-820 -1456h-127zM1079 225l19 105l481 549h117l-99 -555h107l-16 -99h-109l-39 -225h-117l39 225h-383zM1214 324h265l65 374h-2z" />
    <glyph glyph-name="questiondown" unicode="&#xbf;" horiz-adv-x="1112" 
d="M889 10q-36 -201 -179.5 -323.5t-334.5 -122.5q-189 0 -285 111.5t-65 291.5q9 49 29.5 95.5t38.5 75.5t57.5 70.5t54.5 55t63 55.5q10 9 41.5 36.5t44 39.5t38 37.5t38.5 43.5t29.5 44t26 53.5t14.5 57.5l10 55h141l-12 -72q-9 -48 -29 -93t-39.5 -75.5t-56.5 -69
t-58 -56.5t-65 -56q-7 -6 -32.5 -28t-33 -29t-29.5 -27.5t-30.5 -31t-25.5 -30t-25.5 -34t-19 -34.5t-17 -40.5t-10.5 -42.5q-22 -125 41.5 -202.5t187.5 -77.5q126 0 223.5 87.5t124.5 235.5l5 29h143zM528 821l41 240h164l-43 -240h-162z" />
    <glyph glyph-name="Agrave" unicode="&#xc0;" horiz-adv-x="1374" 
d="M106 0h-159l796 1462h199l297 -1462h-152l-88 451h-653zM412 569h565l-150 760h-4zM518 1802h213l260 -209h-155z" />
    <glyph glyph-name="Aacute" unicode="&#xc1;" horiz-adv-x="1374" 
d="M106 0h-159l796 1462h199l297 -1462h-152l-88 451h-653zM412 569h565l-150 760h-4zM772 1593l297 209h213l-354 -209h-156z" />
    <glyph glyph-name="Acircumflex" unicode="&#xc2;" horiz-adv-x="1374" 
d="M106 0h-159l796 1462h199l297 -1462h-152l-88 451h-653zM412 569h565l-150 760h-4zM543 1577l291 231h161l209 -231h-155l-150 152l-201 -152h-155z" />
    <glyph glyph-name="Atilde" unicode="&#xc3;" horiz-adv-x="1374" 
d="M106 0h-159l796 1462h199l297 -1462h-152l-88 451h-653zM412 569h565l-150 760h-4zM528 1593q19 94 80 150.5t152 56.5q37 0 77.5 -16t69.5 -36t64 -36t63 -16q93 0 119 106h104q-24 -94 -88.5 -151.5t-150.5 -57.5q-49 0 -102.5 26.5t-100.5 52.5t-80 26
q-87 0 -108 -105h-99z" />
    <glyph glyph-name="Adieresis" unicode="&#xc4;" horiz-adv-x="1374" 
d="M106 0h-159l796 1462h199l297 -1462h-152l-88 451h-653zM412 569h565l-150 760h-4zM639 1593l37 209h141l-35 -209h-143zM967 1593l34 209h142l-35 -209h-141z" />
    <glyph glyph-name="Aring" unicode="&#xc5;" horiz-adv-x="1374" 
d="M106 0h-159l796 1462h199l297 -1462h-152l-88 451h-653zM412 569h565l-150 760h-4zM686 1792q17 92 93 156.5t167 64.5t145 -64.5t37 -156.5q-15 -92 -92 -156.5t-168 -64.5t-144 64.5t-38 156.5zM786 1790q-9 -54 18 -87.5t81 -33.5q55 0 93.5 33.5t47.5 87.5
q9 55 -17 88t-81 33q-54 0 -92.5 -33.5t-49.5 -87.5z" />
    <glyph glyph-name="AE" unicode="&#xc6;" horiz-adv-x="2011" 
d="M-53 0l1106 1462h991l-23 -127h-716l-95 -526h674l-20 -127h-674l-100 -555h722l-20 -127h-874l81 467h-532l-350 -467h-170zM559 592h463l131 743h-31z" />
    <glyph glyph-name="Ccedilla" unicode="&#xc7;" horiz-adv-x="1576" 
d="M678 -424q-99 0 -180 41l45 82q61 -39 133 -39q59 0 103.5 20.5t51.5 59.5q6 35 -17 55.5t-66 20.5q-49 0 -119 -27l-39 70l125 116q-122 10 -222.5 52.5t-168 106t-113.5 145.5t-67 167.5t-21 174.5q0 197 63.5 361t174.5 274t263.5 170.5t329.5 60.5q112 0 205 -24
t159 -64.5t117.5 -98.5t83 -120t52.5 -136h-146q-106 316 -475 316q-307 0 -492.5 -205t-185.5 -543q0 -64 15.5 -130t54.5 -136t96 -123.5t148.5 -88t204.5 -34.5q189 0 332.5 87.5t217.5 236.5h148q-99 -208 -271.5 -326.5t-406.5 -124.5l-102 -98l2 -4q39 27 98 27
q73 0 113.5 -38t29.5 -110q-12 -60 -57 -101t-100 -57t-117 -16z" />
    <glyph glyph-name="Egrave" unicode="&#xc8;" horiz-adv-x="1179" 
d="M1212 1462l-22 -127h-739l-93 -526h697l-23 -127h-696l-98 -555h745l-22 -127h-895l258 1462h888zM418 1802h213l260 -209h-156z" />
    <glyph glyph-name="Eacute" unicode="&#xc9;" horiz-adv-x="1179" 
d="M1212 1462l-22 -127h-739l-93 -526h697l-23 -127h-696l-98 -555h745l-22 -127h-895l258 1462h888zM672 1593l297 209h213l-355 -209h-155z" />
    <glyph glyph-name="Ecircumflex" unicode="&#xca;" horiz-adv-x="1179" 
d="M1212 1462l-22 -127h-739l-93 -526h697l-23 -127h-696l-98 -555h745l-22 -127h-895l258 1462h888zM442 1577l291 231h162l209 -231h-156l-149 152l-201 -152h-156z" />
    <glyph glyph-name="Edieresis" unicode="&#xcb;" horiz-adv-x="1179" 
d="M1212 1462l-22 -127h-739l-93 -526h697l-23 -127h-696l-98 -555h745l-22 -127h-895l258 1462h888zM541 1593l37 209h141l-35 -209h-143zM868 1593l35 209h141l-34 -209h-142z" />
    <glyph glyph-name="Igrave" unicode="&#xcc;" horiz-adv-x="468" 
d="M324 1462h149l-258 -1462h-149zM66 1802h213l260 -209h-156z" />
    <glyph glyph-name="Iacute" unicode="&#xcd;" horiz-adv-x="468" 
d="M324 1462h149l-258 -1462h-149zM317 1593l297 209h213l-354 -209h-156z" />
    <glyph glyph-name="Icircumflex" unicode="&#xce;" horiz-adv-x="468" 
d="M324 1462h149l-258 -1462h-149zM88 1577l291 231h162l209 -231h-156l-150 152l-200 -152h-156z" />
    <glyph glyph-name="Idieresis" unicode="&#xcf;" horiz-adv-x="468" 
d="M324 1462h149l-258 -1462h-149zM186 1593l37 209h142l-35 -209h-144zM514 1593l35 209h141l-35 -209h-141z" />
    <glyph glyph-name="Eth" unicode="&#xd0;" horiz-adv-x="1429" 
d="M672 1462q316 0 502 -162q100 -86 151 -208.5t51 -262.5q0 -211 -75 -373.5t-209 -267.5q-115 -93 -265 -140.5t-317 -47.5h-444l118 668h-153l14 108h158l121 686h348zM238 127h290q99 0 194 23t187.5 76.5t162 132.5t112.5 200.5t43 271.5q0 228 -142 366t-393 138
h-241l-99 -559h338l-16 -108h-340z" />
    <glyph glyph-name="Ntilde" unicode="&#xd1;" horiz-adv-x="1443" 
d="M324 1462h176l469 -1007q12 -27 34.5 -77t41 -89.5t34.5 -71.5q11 56 29 161t20 116l170 968h150l-258 -1462h-180l-457 993q-18 37 -56 120.5t-59 123.5q-14 -63 -53 -299l-166 -938h-153zM563 1593q19 94 80 150.5t152 56.5q37 0 77.5 -16t69.5 -36t64 -36t63 -16
q93 0 119 106h104q-24 -94 -88.5 -151.5t-150.5 -57.5q-49 0 -102.5 26.5t-100.5 52.5t-80 26q-87 0 -108 -105h-99z" />
    <glyph glyph-name="Ograve" unicode="&#xd2;" horiz-adv-x="1669" 
d="M954 1487q140 0 254.5 -38t189.5 -100.5t125.5 -146t72.5 -170.5t22 -178q0 -203 -64 -370t-175.5 -278.5t-263.5 -172t-329 -60.5q-137 0 -250 38.5t-188 102t-127 148.5t-75 175t-23 184q0 197 63.5 361t174.5 274t263.5 170.5t329.5 60.5zM272 612q0 -64 15.5 -130
t54.5 -136t96 -123.5t148.5 -88t204.5 -34.5q201 0 356 96t238 263.5t83 378.5q0 69 -14.5 137t-51.5 139t-93.5 124.5t-149 87.5t-209.5 34q-307 0 -492.5 -205t-185.5 -543zM664 1802h213l260 -209h-156z" />
    <glyph glyph-name="Oacute" unicode="&#xd3;" horiz-adv-x="1669" 
d="M954 1487q140 0 254.5 -38t189.5 -100.5t125.5 -146t72.5 -170.5t22 -178q0 -203 -64 -370t-175.5 -278.5t-263.5 -172t-329 -60.5q-137 0 -250 38.5t-188 102t-127 148.5t-75 175t-23 184q0 197 63.5 361t174.5 274t263.5 170.5t329.5 60.5zM272 612q0 -64 15.5 -130
t54.5 -136t96 -123.5t148.5 -88t204.5 -34.5q201 0 356 96t238 263.5t83 378.5q0 69 -14.5 137t-51.5 139t-93.5 124.5t-149 87.5t-209.5 34q-307 0 -492.5 -205t-185.5 -543zM918 1593l296 209h213l-354 -209h-155z" />
    <glyph glyph-name="Ocircumflex" unicode="&#xd4;" horiz-adv-x="1669" 
d="M954 1487q140 0 254.5 -38t189.5 -100.5t125.5 -146t72.5 -170.5t22 -178q0 -203 -64 -370t-175.5 -278.5t-263.5 -172t-329 -60.5q-137 0 -250 38.5t-188 102t-127 148.5t-75 175t-23 184q0 197 63.5 361t174.5 274t263.5 170.5t329.5 60.5zM272 612q0 -64 15.5 -130
t54.5 -136t96 -123.5t148.5 -88t204.5 -34.5q201 0 356 96t238 263.5t83 378.5q0 69 -14.5 137t-51.5 139t-93.5 124.5t-149 87.5t-209.5 34q-307 0 -492.5 -205t-185.5 -543zM688 1577l291 231h162l209 -231h-156l-150 152l-200 -152h-156z" />
    <glyph glyph-name="Otilde" unicode="&#xd5;" horiz-adv-x="1669" 
d="M954 1487q140 0 254.5 -38t189.5 -100.5t125.5 -146t72.5 -170.5t22 -178q0 -203 -64 -370t-175.5 -278.5t-263.5 -172t-329 -60.5q-137 0 -250 38.5t-188 102t-127 148.5t-75 175t-23 184q0 197 63.5 361t174.5 274t263.5 170.5t329.5 60.5zM272 612q0 -64 15.5 -130
t54.5 -136t96 -123.5t148.5 -88t204.5 -34.5q201 0 356 96t238 263.5t83 378.5q0 69 -14.5 137t-51.5 139t-93.5 124.5t-149 87.5t-209.5 34q-307 0 -492.5 -205t-185.5 -543zM674 1593q19 94 79.5 150.5t151.5 56.5q47 0 98 -26t97 -52t80 -26q92 0 118 106h105
q-24 -94 -88.5 -151.5t-151.5 -57.5q-49 0 -102 26.5t-100 52.5t-80 26q-88 0 -109 -105h-98z" />
    <glyph glyph-name="Odieresis" unicode="&#xd6;" horiz-adv-x="1669" 
d="M954 1487q140 0 254.5 -38t189.5 -100.5t125.5 -146t72.5 -170.5t22 -178q0 -203 -64 -370t-175.5 -278.5t-263.5 -172t-329 -60.5q-137 0 -250 38.5t-188 102t-127 148.5t-75 175t-23 184q0 197 63.5 361t174.5 274t263.5 170.5t329.5 60.5zM272 612q0 -64 15.5 -130
t54.5 -136t96 -123.5t148.5 -88t204.5 -34.5q201 0 356 96t238 263.5t83 378.5q0 69 -14.5 137t-51.5 139t-93.5 124.5t-149 87.5t-209.5 34q-307 0 -492.5 -205t-185.5 -543zM786 1593l37 209h142l-35 -209h-144zM1114 1593l35 209h141l-35 -209h-141z" />
    <glyph glyph-name="multiply" unicode="&#xd7;" horiz-adv-x="1243" 
d="M166 893l86 86l369 -369l368 369l86 -86l-368 -369l368 -368l-86 -86l-368 368l-369 -368l-86 86l369 368z" />
    <glyph glyph-name="Oslash" unicode="&#xd8;" horiz-adv-x="1669" 
d="M954 1487q329 0 510 -203l215 176l62 -76l-219 -178q96 -154 96 -352q0 -203 -64 -370t-175.5 -278.5t-263.5 -172t-329 -60.5q-335 0 -514 215l-215 -176l-57 76l217 178q-94 163 -94 355q0 197 63.5 361t174.5 274t263.5 170.5t329.5 60.5zM272 612q0 -128 62 -252
l1018 832q-137 168 -402 168q-307 0 -492.5 -205t-185.5 -543zM385 281q146 -181 406 -181q201 0 356 96t238 263.5t83 378.5q0 149 -63 272z" />
    <glyph glyph-name="Ugrave" unicode="&#xd9;" horiz-adv-x="1363" 
d="M1212 514q-46 -270 -180.5 -405.5t-394.5 -135.5q-276 0 -403.5 163t-79.5 437l157 889h152l-160 -899q-38 -214 53.5 -338.5t284.5 -124.5q190 0 287.5 106t134.5 318l166 938h151zM516 1802h213l260 -209h-155z" />
    <glyph glyph-name="Uacute" unicode="&#xda;" horiz-adv-x="1363" 
d="M1212 514q-46 -270 -180.5 -405.5t-394.5 -135.5q-276 0 -403.5 163t-79.5 437l157 889h152l-160 -899q-38 -214 53.5 -338.5t284.5 -124.5q190 0 287.5 106t134.5 318l166 938h151zM768 1593l297 209h213l-354 -209h-156z" />
    <glyph glyph-name="Ucircumflex" unicode="&#xdb;" horiz-adv-x="1363" 
d="M1212 514q-46 -270 -180.5 -405.5t-394.5 -135.5q-276 0 -403.5 163t-79.5 437l157 889h152l-160 -899q-38 -214 53.5 -338.5t284.5 -124.5q190 0 287.5 106t134.5 318l166 938h151zM539 1577l290 231h162l209 -231h-156l-149 152l-201 -152h-155z" />
    <glyph glyph-name="Udieresis" unicode="&#xdc;" horiz-adv-x="1363" 
d="M1212 514q-46 -270 -180.5 -405.5t-394.5 -135.5q-276 0 -403.5 163t-79.5 437l157 889h152l-160 -899q-38 -214 53.5 -338.5t284.5 -124.5q190 0 287.5 106t134.5 318l166 938h151zM637 1593l37 209h141l-35 -209h-143zM965 1593l34 209h142l-35 -209h-141z" />
    <glyph glyph-name="Yacute" unicode="&#xdd;" horiz-adv-x="1230" 
d="M201 1462h168l276 -723h4l535 723h174l-658 -864l-104 -598h-152l105 598zM696 1593l297 209h213l-354 -209h-156z" />
    <glyph glyph-name="Thorn" unicode="&#xde;" horiz-adv-x="1171" 
d="M737 1182q209 0 321 -116t77 -310q-34 -191 -182 -303.5t-363 -110.5h-316l-59 -342h-149l258 1462h149l-49 -280h313zM297 467h287q347 0 403 311q25 135 -45 206t-240 71h-301z" />
    <glyph glyph-name="germandbls" unicode="&#xdf;" horiz-adv-x="1087" 
d="M225 1083q35 194 154 301t297 107q166 0 265 -94.5t99 -229.5q0 -68 -19 -125.5t-48.5 -96.5t-70.5 -70t-79 -49t-80 -29q128 -37 187 -134.5t59 -220.5q0 -115 -41.5 -204.5t-113.5 -144.5t-164.5 -83t-200.5 -28q-107 0 -180 26l14 121q59 -27 152 -27q177 0 287 86.5
t110 251.5q0 126 -73 206.5t-212 80.5h-61l14 117q55 2 105.5 12t101.5 32.5t88.5 56t60.5 86.5t23 120q0 93 -57 156t-164 63q-259 0 -313 -319l-187 -1051h-143z" />
    <glyph glyph-name="agrave" unicode="&#xe0;" horiz-adv-x="1093" 
d="M41 270q0 55 18 100.5t44 77t72 57.5t84.5 41.5t101 29.5t102 20.5t104.5 15.5q158 23 228.5 62.5t70.5 118.5q0 83 -72.5 124t-183.5 41q-234 0 -293 -215h-143q12 60 46 118t87 107t131.5 79t169.5 30q72 0 131.5 -12t100.5 -33.5t73.5 -50.5t49.5 -62.5t27.5 -70
t9 -72.5t-6.5 -71l-88 -492q-20 -111 -20 -213h-148q0 63 17 176q-20 -35 -49.5 -66t-74.5 -62t-111 -49.5t-144 -18.5q-74 0 -133 18.5t-95.5 48.5t-61 69t-34.5 77t-10 77zM180 274q0 -76 56.5 -128t173.5 -52q164 0 264.5 103.5t140.5 285.5q20 94 27 135
q-41 -49 -114.5 -78.5t-221.5 -52.5q-61 -9 -103 -17.5t-87.5 -24.5t-73 -37.5t-45 -55.5t-17.5 -78zM436 1470h180l144 -268h-105z" />
    <glyph glyph-name="aacute" unicode="&#xe1;" horiz-adv-x="1093" 
d="M41 270q0 55 18 100.5t44 77t72 57.5t84.5 41.5t101 29.5t102 20.5t104.5 15.5q158 23 228.5 62.5t70.5 118.5q0 83 -72.5 124t-183.5 41q-234 0 -293 -215h-143q12 60 46 118t87 107t131.5 79t169.5 30q72 0 131.5 -12t100.5 -33.5t73.5 -50.5t49.5 -62.5t27.5 -70
t9 -72.5t-6.5 -71l-88 -492q-20 -111 -20 -213h-148q0 63 17 176q-20 -35 -49.5 -66t-74.5 -62t-111 -49.5t-144 -18.5q-74 0 -133 18.5t-95.5 48.5t-61 69t-34.5 77t-10 77zM180 274q0 -76 56.5 -128t173.5 -52q164 0 264.5 103.5t140.5 285.5q20 94 27 135
q-41 -49 -114.5 -78.5t-221.5 -52.5q-61 -9 -103 -17.5t-87.5 -24.5t-73 -37.5t-45 -55.5t-17.5 -78zM592 1202l287 268h178l-359 -268h-106z" />
    <glyph glyph-name="acircumflex" unicode="&#xe2;" horiz-adv-x="1093" 
d="M41 270q0 55 18 100.5t44 77t72 57.5t84.5 41.5t101 29.5t102 20.5t104.5 15.5q158 23 228.5 62.5t70.5 118.5q0 83 -72.5 124t-183.5 41q-234 0 -293 -215h-143q12 60 46 118t87 107t131.5 79t169.5 30q72 0 131.5 -12t100.5 -33.5t73.5 -50.5t49.5 -62.5t27.5 -70
t9 -72.5t-6.5 -71l-88 -492q-20 -111 -20 -213h-148q0 63 17 176q-20 -35 -49.5 -66t-74.5 -62t-111 -49.5t-144 -18.5q-74 0 -133 18.5t-95.5 48.5t-61 69t-34.5 77t-10 77zM180 274q0 -76 56.5 -128t173.5 -52q164 0 264.5 103.5t140.5 285.5q20 94 27 135
q-41 -49 -114.5 -78.5t-221.5 -52.5q-61 -9 -103 -17.5t-87.5 -24.5t-73 -37.5t-45 -55.5t-17.5 -78zM352 1202l275 268h149l178 -268h-139l-129 191l-194 -191h-140z" />
    <glyph glyph-name="atilde" unicode="&#xe3;" horiz-adv-x="1093" 
d="M41 270q0 55 18 100.5t44 77t72 57.5t84.5 41.5t101 29.5t102 20.5t104.5 15.5q158 23 228.5 62.5t70.5 118.5q0 83 -72.5 124t-183.5 41q-234 0 -293 -215h-143q12 60 46 118t87 107t131.5 79t169.5 30q72 0 131.5 -12t100.5 -33.5t73.5 -50.5t49.5 -62.5t27.5 -70
t9 -72.5t-6.5 -71l-88 -492q-20 -111 -20 -213h-148q0 63 17 176q-20 -35 -49.5 -66t-74.5 -62t-111 -49.5t-144 -18.5q-74 0 -133 18.5t-95.5 48.5t-61 69t-34.5 77t-10 77zM180 274q0 -76 56.5 -128t173.5 -52q164 0 264.5 103.5t140.5 285.5q20 94 27 135
q-41 -49 -114.5 -78.5t-221.5 -52.5q-61 -9 -103 -17.5t-87.5 -24.5t-73 -37.5t-45 -55.5t-17.5 -78zM315 1264q19 93 80.5 149.5t151.5 56.5q48 0 99 -26.5t97 -53t80 -26.5q90 0 119 106h102q-22 -93 -87 -150.5t-152 -57.5q-39 0 -81.5 16t-73 36t-66 36t-62.5 16
q-88 0 -108 -102h-99z" />
    <glyph glyph-name="adieresis" unicode="&#xe4;" horiz-adv-x="1093" 
d="M41 270q0 55 18 100.5t44 77t72 57.5t84.5 41.5t101 29.5t102 20.5t104.5 15.5q158 23 228.5 62.5t70.5 118.5q0 83 -72.5 124t-183.5 41q-234 0 -293 -215h-143q12 60 46 118t87 107t131.5 79t169.5 30q72 0 131.5 -12t100.5 -33.5t73.5 -50.5t49.5 -62.5t27.5 -70
t9 -72.5t-6.5 -71l-88 -492q-20 -111 -20 -213h-148q0 63 17 176q-20 -35 -49.5 -66t-74.5 -62t-111 -49.5t-144 -18.5q-74 0 -133 18.5t-95.5 48.5t-61 69t-34.5 77t-10 77zM180 274q0 -76 56.5 -128t173.5 -52q164 0 264.5 103.5t140.5 285.5q20 94 27 135
q-41 -49 -114.5 -78.5t-221.5 -52.5q-61 -9 -103 -17.5t-87.5 -24.5t-73 -37.5t-45 -55.5t-17.5 -78zM442 1272l35 198h137l-34 -198h-138zM750 1272l34 198h138l-35 -198h-137z" />
    <glyph glyph-name="aring" unicode="&#xe5;" horiz-adv-x="1093" 
d="M41 270q0 55 18 100.5t44 77t72 57.5t84.5 41.5t101 29.5t102 20.5t104.5 15.5q158 23 228.5 62.5t70.5 118.5q0 83 -72.5 124t-183.5 41q-234 0 -293 -215h-143q12 60 46 118t87 107t131.5 79t169.5 30q72 0 131.5 -12t100.5 -33.5t73.5 -50.5t49.5 -62.5t27.5 -70
t9 -72.5t-6.5 -71l-88 -492q-20 -111 -20 -213h-148q0 63 17 176q-20 -35 -49.5 -66t-74.5 -62t-111 -49.5t-144 -18.5q-74 0 -133 18.5t-95.5 48.5t-61 69t-34.5 77t-10 77zM180 274q0 -76 56.5 -128t173.5 -52q164 0 264.5 103.5t140.5 285.5q20 94 27 135
q-41 -49 -114.5 -78.5t-221.5 -52.5q-61 -9 -103 -17.5t-87.5 -24.5t-73 -37.5t-45 -55.5t-17.5 -78zM459 1362q15 92 92 156.5t168 64.5t144 -64.5t38 -156.5q-17 -92 -93 -156.5t-167 -64.5t-145 64.5t-37 156.5zM557 1360q-9 -54 18.5 -88.5t81.5 -34.5t92.5 34.5
t47.5 88.5q9 55 -17.5 89t-79.5 34q-54 0 -94 -34.5t-49 -88.5z" />
    <glyph glyph-name="ae" unicode="&#xe6;" horiz-adv-x="1806" 
d="M385 -20q-73 0 -132 19t-97.5 49.5t-64.5 71t-37 80.5t-11 81q0 53 17 97t46 75t68 55.5t84 40.5t93.5 27.5t96 19.5t91.5 15q24 3 36 5q58 9 96 17t75 21.5t58 31t33.5 44t12.5 61.5q0 83 -61 125t-177 42q-229 0 -297 -215h-139q14 61 49 118.5t87.5 106.5t130 79
t167.5 30q85 0 151 -18.5t107 -50.5t64.5 -69t32.5 -79q144 217 393 217q98 0 172.5 -29t117 -79.5t67.5 -119.5t25.5 -148.5t-9.5 -165.5q-6 -42 -7 -46h-784q-25 -181 41 -285t217 -104q112 0 198.5 55t139.5 160h143q-156 -333 -481 -333q-157 0 -249.5 69t-119.5 197
q-159 -268 -444 -268zM184 281q0 -73 51.5 -129t157.5 -56q145 0 261.5 102t148.5 289l24 131q-42 -44 -114.5 -72t-218.5 -52q-74 -12 -125.5 -26.5t-96 -39t-66.5 -61t-22 -86.5zM965 602h637q14 176 -43.5 267.5t-204.5 91.5q-148 0 -248.5 -97.5t-140.5 -261.5z" />
    <glyph glyph-name="ccedilla" unicode="&#xe7;" horiz-adv-x="1153" 
d="M1042 311q-60 -151 -167.5 -232.5t-276.5 -94.5l-113 -109l2 -4q39 27 99 27q73 0 113.5 -38t29.5 -110q-12 -60 -57 -101t-100 -57t-117 -16q-100 0 -181 41l45 82q61 -39 134 -39q59 0 103.5 20.5t51.5 59.5q6 35 -17.5 55.5t-66.5 20.5q-48 0 -118 -27l-39 70l133 123
q-137 8 -239 76t-151 169t-49 219q0 147 45.5 267t125 199t186.5 122t231 43q93 0 168.5 -26t125 -71.5t81 -101t45.5 -122.5h-139q-28 92 -99 146t-184 54q-92 0 -171.5 -33t-140 -94.5t-95.5 -158t-35 -215.5q0 -146 92.5 -249.5t239.5 -103.5q136 0 221.5 50.5
t138.5 158.5h145z" />
    <glyph glyph-name="egrave" unicode="&#xe8;" horiz-adv-x="1150" 
d="M516 -18q-111 0 -198.5 37t-142.5 102.5t-83.5 152t-28.5 189.5q0 272 159 443t415 171q87 0 159.5 -26.5t122.5 -71t85 -104.5t52 -126t19 -137q0 -97 -4 -127h-866q-2 -185 79 -285t242 -100q266 0 357 209h145q-131 -327 -512 -327zM221 604h721q-4 164 -89.5 259
t-225.5 95q-160 0 -266.5 -95t-139.5 -259zM440 1462h181l143 -268h-105z" />
    <glyph glyph-name="eacute" unicode="&#xe9;" horiz-adv-x="1150" 
d="M516 -18q-111 0 -198.5 37t-142.5 102.5t-83.5 152t-28.5 189.5q0 272 159 443t415 171q87 0 159.5 -26.5t122.5 -71t85 -104.5t52 -126t19 -137q0 -97 -4 -127h-866q-2 -185 79 -285t242 -100q266 0 357 209h145q-131 -327 -512 -327zM221 604h721q-4 164 -89.5 259
t-225.5 95q-160 0 -266.5 -95t-139.5 -259zM596 1194l287 268h178l-359 -268h-106z" />
    <glyph glyph-name="ecircumflex" unicode="&#xea;" horiz-adv-x="1150" 
d="M516 -18q-111 0 -198.5 37t-142.5 102.5t-83.5 152t-28.5 189.5q0 272 159 443t415 171q87 0 159.5 -26.5t122.5 -71t85 -104.5t52 -126t19 -137q0 -97 -4 -127h-866q-2 -185 79 -285t242 -100q266 0 357 209h145q-131 -327 -512 -327zM221 604h721q-4 164 -89.5 259
t-225.5 95q-160 0 -266.5 -95t-139.5 -259zM354 1194l275 268h149l178 -268h-139l-129 190l-194 -190h-140z" />
    <glyph glyph-name="edieresis" unicode="&#xeb;" horiz-adv-x="1150" 
d="M516 -18q-111 0 -198.5 37t-142.5 102.5t-83.5 152t-28.5 189.5q0 272 159 443t415 171q87 0 159.5 -26.5t122.5 -71t85 -104.5t52 -126t19 -137q0 -97 -4 -127h-866q-2 -185 79 -285t242 -100q266 0 357 209h145q-131 -327 -512 -327zM221 604h721q-4 164 -89.5 259
t-225.5 95q-160 0 -266.5 -95t-139.5 -259zM444 1264l35 198h137l-34 -198h-138zM752 1264l34 198h138l-35 -198h-137z" />
    <glyph glyph-name="igrave" unicode="&#xec;" horiz-adv-x="421" 
d="M47 0l186 1059h144l-187 -1059h-143zM109 1462h180l143 -268h-104z" />
    <glyph glyph-name="iacute" unicode="&#xed;" horiz-adv-x="421" 
d="M47 0l186 1059h144l-187 -1059h-143zM264 1194l287 268h178l-358 -268h-107z" />
    <glyph glyph-name="icircumflex" unicode="&#xee;" horiz-adv-x="421" 
d="M47 0l186 1059h144l-187 -1059h-143zM23 1194l274 268h149l179 -268h-140l-129 190l-194 -190h-139z" />
    <glyph glyph-name="idieresis" unicode="&#xef;" horiz-adv-x="421" 
d="M47 0l186 1059h144l-187 -1059h-143zM113 1264l34 198h138l-35 -198h-137zM420 1264l35 198h137l-35 -198h-137z" />
    <glyph glyph-name="eth" unicode="&#xf0;" horiz-adv-x="1179" 
d="M461 1276l237 104q-75 64 -161 113l137 70q90 -73 149 -127l279 123l26 -80l-241 -107q158 -164 218.5 -359.5t10.5 -477.5q-21 -115 -72.5 -214.5t-128.5 -175.5t-184.5 -119.5t-230.5 -43.5q-168 0 -277.5 78.5t-147.5 207t-9 287.5q19 105 68 199t122.5 167.5
t177 116.5t221.5 43q211 0 322 -141q-37 192 -213 379l-279 -123zM211 535q-35 -193 48 -311t245 -118q168 0 299.5 124.5t167.5 324.5q20 113 -5.5 202.5t-102.5 145t-197 55.5q-176 0 -299 -117.5t-156 -305.5z" />
    <glyph glyph-name="ntilde" unicode="&#xf1;" horiz-adv-x="1118" 
d="M47 0l186 1059h136l-35 -191q69 105 155 157t209 52q184 0 266.5 -115t45.5 -325l-113 -637h-143l108 614q16 80 12 139t-17 98t-42 62.5t-64 33t-81 9.5q-64 0 -122.5 -24t-111.5 -73t-93 -132.5t-60 -194.5l-93 -532h-143zM338 1255q19 93 80 150t151 57
q48 0 99.5 -26.5t97.5 -53t80 -26.5q90 0 119 106h102q-22 -93 -87.5 -151t-152.5 -58q-50 0 -103 26.5t-99.5 52.5t-79.5 26q-89 0 -109 -103h-98z" />
    <glyph glyph-name="ograve" unicode="&#xf2;" horiz-adv-x="1187" 
d="M651 1077q119 0 210.5 -38.5t147.5 -106.5t84.5 -156.5t28.5 -193.5q0 -264 -161 -432t-422 -168q-231 0 -353.5 135t-122.5 356q0 171 72.5 308.5t207 216.5t308.5 79zM207 477q0 -174 90 -274.5t252 -100.5q188 0 311 130.5t123 345.5q0 173 -87 275.5t-253 102.5
q-191 0 -313.5 -133t-122.5 -346zM463 1462h180l143 -268h-104z" />
    <glyph glyph-name="oacute" unicode="&#xf3;" horiz-adv-x="1187" 
d="M651 1077q119 0 210.5 -38.5t147.5 -106.5t84.5 -156.5t28.5 -193.5q0 -264 -161 -432t-422 -168q-231 0 -353.5 135t-122.5 356q0 171 72.5 308.5t207 216.5t308.5 79zM207 477q0 -174 90 -274.5t252 -100.5q188 0 311 130.5t123 345.5q0 173 -87 275.5t-253 102.5
q-191 0 -313.5 -133t-122.5 -346zM618 1194l287 268h178l-358 -268h-107z" />
    <glyph glyph-name="ocircumflex" unicode="&#xf4;" horiz-adv-x="1187" 
d="M651 1077q119 0 210.5 -38.5t147.5 -106.5t84.5 -156.5t28.5 -193.5q0 -264 -161 -432t-422 -168q-231 0 -353.5 135t-122.5 356q0 171 72.5 308.5t207 216.5t308.5 79zM207 477q0 -174 90 -274.5t252 -100.5q188 0 311 130.5t123 345.5q0 173 -87 275.5t-253 102.5
q-191 0 -313.5 -133t-122.5 -346zM379 1194l274 268h150l178 -268h-139l-129 190l-195 -190h-139z" />
    <glyph glyph-name="otilde" unicode="&#xf5;" horiz-adv-x="1187" 
d="M651 1077q119 0 210.5 -38.5t147.5 -106.5t84.5 -156.5t28.5 -193.5q0 -264 -161 -432t-422 -168q-231 0 -353.5 135t-122.5 356q0 171 72.5 308.5t207 216.5t308.5 79zM207 477q0 -174 90 -274.5t252 -100.5q188 0 311 130.5t123 345.5q0 173 -87 275.5t-253 102.5
q-191 0 -313.5 -133t-122.5 -346zM342 1255q19 93 80 150t151 57q48 0 99.5 -26.5t97.5 -53t80 -26.5q90 0 119 106h102q-22 -93 -87.5 -151t-152.5 -58q-50 0 -103 26.5t-99.5 52.5t-79.5 26q-89 0 -109 -103h-98z" />
    <glyph glyph-name="odieresis" unicode="&#xf6;" horiz-adv-x="1187" 
d="M651 1077q119 0 210.5 -38.5t147.5 -106.5t84.5 -156.5t28.5 -193.5q0 -264 -161 -432t-422 -168q-231 0 -353.5 135t-122.5 356q0 171 72.5 308.5t207 216.5t308.5 79zM207 477q0 -174 90 -274.5t252 -100.5q188 0 311 130.5t123 345.5q0 173 -87 275.5t-253 102.5
q-191 0 -313.5 -133t-122.5 -346zM467 1264l35 198h137l-35 -198h-137zM774 1264l35 198h137l-35 -198h-137z" />
    <glyph glyph-name="divide" unicode="&#xf7;" horiz-adv-x="1232" 
d="M510 162q0 44 30.5 75t73.5 31q44 0 75.5 -31t31.5 -75q0 -40 -32 -72.5t-73 -32.5q-44 0 -75 31t-31 74zM111 465v119h1009v-119h-1009zM510 887q0 43 30.5 73.5t73.5 30.5q44 0 75.5 -30.5t31.5 -73.5q0 -40 -32 -73.5t-73 -33.5q-44 0 -75 31.5t-31 75.5z" />
    <glyph glyph-name="oslash" unicode="&#xf8;" horiz-adv-x="1187" 
d="M651 1077q209 0 334 -119l139 132l58 -74l-140 -129q80 -122 80 -305q0 -264 -161 -432t-422 -168q-214 0 -338 118l-133 -125l-68 64l143 133q-80 124 -80 301q0 171 72.5 308.5t207 216.5t308.5 79zM207 477q0 -120 43 -205l635 594q-87 90 -242 90q-191 0 -313.5 -133
t-122.5 -346zM303 195q90 -93 246 -93q188 0 311 130.5t123 345.5q0 124 -45 210z" />
    <glyph glyph-name="ugrave" unicode="&#xf9;" horiz-adv-x="1118" 
d="M1071 1059l-186 -1059h-135l32 193q-54 -99 -147 -155t-215 -56q-184 0 -266.5 115t-44.5 325l112 637h144l-109 -615q-16 -80 -12 -139t17.5 -98t42.5 -62.5t64 -33t81 -9.5q63 0 121.5 24t111.5 73t93 133t59 194l94 533h143zM459 1462h180l143 -268h-104z" />
    <glyph glyph-name="uacute" unicode="&#xfa;" horiz-adv-x="1118" 
d="M1071 1059l-186 -1059h-135l32 193q-54 -99 -147 -155t-215 -56q-184 0 -266.5 115t-44.5 325l112 637h144l-109 -615q-16 -80 -12 -139t17.5 -98t42.5 -62.5t64 -33t81 -9.5q63 0 121.5 24t111.5 73t93 133t59 194l94 533h143zM614 1194l287 268h178l-358 -268h-107z
" />
    <glyph glyph-name="ucircumflex" unicode="&#xfb;" horiz-adv-x="1118" 
d="M1071 1059l-186 -1059h-135l32 193q-54 -99 -147 -155t-215 -56q-184 0 -266.5 115t-44.5 325l112 637h144l-109 -615q-16 -80 -12 -139t17.5 -98t42.5 -62.5t64 -33t81 -9.5q63 0 121.5 24t111.5 73t93 133t59 194l94 533h143zM373 1194l274 268h150l178 -268h-139
l-129 190l-195 -190h-139z" />
    <glyph glyph-name="udieresis" unicode="&#xfc;" horiz-adv-x="1118" 
d="M1071 1059l-186 -1059h-135l32 193q-54 -99 -147 -155t-215 -56q-184 0 -266.5 115t-44.5 325l112 637h144l-109 -615q-16 -80 -12 -139t17.5 -98t42.5 -62.5t64 -33t81 -9.5q63 0 121.5 24t111.5 73t93 133t59 194l94 533h143zM463 1264l35 198h137l-35 -198h-137z
M770 1264l35 198h137l-35 -198h-137z" />
    <glyph glyph-name="yacute" unicode="&#xfd;" horiz-adv-x="1032" 
d="M115 1059h143l143 -653q38 -171 58 -271h2l143 271l344 653h158l-700 -1270q-56 -99 -122 -149t-167 -50h-115l21 119h98q26 0 49.5 8t37 15.5t32 30.5t24 30.5t24.5 40.5t21 37l56 98zM545 1194l286 268h179l-359 -268h-106z" />
    <glyph glyph-name="thorn" unicode="&#xfe;" horiz-adv-x="1210" 
d="M184 0l-71 -410h-140l72 410h2l258 1462h144l-72 -409q-20 -102 -31 -172q136 196 377 196q95 0 170.5 -28.5t122.5 -74t78 -108.5t43 -127.5t12 -134.5q0 -277 -153 -449.5t-408 -172.5q-149 0 -238.5 59.5t-124.5 159.5l-39 -201h-2zM268 475q-14 -170 65 -270.5
t236 -100.5q104 0 187.5 39.5t137 108t82 158.5t28.5 194q0 155 -76 253.5t-236 98.5q-93 0 -171 -40.5t-130 -108.5t-83.5 -153t-39.5 -179z" />
    <glyph glyph-name="ydieresis" unicode="&#xff;" horiz-adv-x="1032" 
d="M115 1059h143l143 -653q38 -171 58 -271h2l143 271l344 653h158l-700 -1270q-56 -99 -122 -149t-167 -50h-115l21 119h98q26 0 49.5 8t37 15.5t32 30.5t24 30.5t24.5 40.5t21 37l56 98zM395 1264l35 198h137l-35 -198h-137zM702 1264l35 198h137l-34 -198h-138z" />
    <glyph glyph-name="Amacron" unicode="&#x100;" horiz-adv-x="1374" 
d="M106 0h-159l796 1462h199l297 -1462h-152l-88 451h-653zM412 569h565l-150 760h-4zM580 1634l18 95h598l-16 -95h-600z" />
    <glyph glyph-name="amacron" unicode="&#x101;" horiz-adv-x="1093" 
d="M41 270q0 55 18 100.5t44 77t72 57.5t84.5 41.5t101 29.5t102 20.5t104.5 15.5q158 23 228.5 62.5t70.5 118.5q0 83 -72.5 124t-183.5 41q-234 0 -293 -215h-143q12 60 46 118t87 107t131.5 79t169.5 30q72 0 131.5 -12t100.5 -33.5t73.5 -50.5t49.5 -62.5t27.5 -70
t9 -72.5t-6.5 -71l-88 -492q-20 -111 -20 -213h-148q0 63 17 176q-20 -35 -49.5 -66t-74.5 -62t-111 -49.5t-144 -18.5q-74 0 -133 18.5t-95.5 48.5t-61 69t-34.5 77t-10 77zM180 274q0 -76 56.5 -128t173.5 -52q164 0 264.5 103.5t140.5 285.5q20 94 27 135
q-41 -49 -114.5 -78.5t-221.5 -52.5q-61 -9 -103 -17.5t-87.5 -24.5t-73 -37.5t-45 -55.5t-17.5 -78zM319 1270l17 88h686l-14 -88h-689z" />
    <glyph glyph-name="Abreve" unicode="&#x102;" horiz-adv-x="1374" 
d="M106 0h-159l796 1462h199l297 -1462h-152l-88 451h-653zM412 569h565l-150 760h-4zM614 1806h113q-2 -57 41 -102t115 -45q75 0 134 45t75 102h112q-28 -106 -118.5 -174.5t-200.5 -68.5q-125 0 -199 69t-72 174z" />
    <glyph glyph-name="abreve" unicode="&#x103;" horiz-adv-x="1093" 
d="M41 270q0 55 18 100.5t44 77t72 57.5t84.5 41.5t101 29.5t102 20.5t104.5 15.5q158 23 228.5 62.5t70.5 118.5q0 83 -72.5 124t-183.5 41q-234 0 -293 -215h-143q12 60 46 118t87 107t131.5 79t169.5 30q72 0 131.5 -12t100.5 -33.5t73.5 -50.5t49.5 -62.5t27.5 -70
t9 -72.5t-6.5 -71l-88 -492q-20 -111 -20 -213h-148q0 63 17 176q-20 -35 -49.5 -66t-74.5 -62t-111 -49.5t-144 -18.5q-74 0 -133 18.5t-95.5 48.5t-61 69t-34.5 77t-10 77zM180 274q0 -76 56.5 -128t173.5 -52q164 0 264.5 103.5t140.5 285.5q20 94 27 135
q-41 -49 -114.5 -78.5t-221.5 -52.5q-61 -9 -103 -17.5t-87.5 -24.5t-73 -37.5t-45 -55.5t-17.5 -78zM408 1470h110q-10 -76 29 -126t123 -50q86 0 140 49t73 127h114q-29 -123 -123.5 -198.5t-220.5 -75.5q-125 0 -192 75t-53 199z" />
    <glyph glyph-name="Aogonek" unicode="&#x104;" horiz-adv-x="1374" 
d="M106 0h-159l796 1462h199l297 -1462q-103 -66 -158.5 -116.5t-62.5 -104.5q-8 -53 22.5 -80t100.5 -27l-17 -88q-116 0 -180.5 46t-50.5 137q6 36 22 67.5t46.5 61.5t55.5 51t70 53l-88 451h-653zM412 569h565l-150 760h-4z" />
    <glyph glyph-name="aogonek" unicode="&#x105;" horiz-adv-x="1095" 
d="M41 270q0 55 18 100.5t44 77t72 57.5t84.5 41.5t101 29.5t102 20.5t104.5 15.5q158 23 228.5 62.5t70.5 118.5q0 83 -72.5 124t-183.5 41q-234 0 -293 -215h-143q12 60 46 118t87 107t131.5 79t169.5 30q72 0 131.5 -12t100.5 -33.5t73.5 -50.5t49.5 -62.5t27.5 -70
t9 -72.5t-6.5 -71l-88 -492q-20 -111 -20 -213h-4q-99 -63 -148.5 -113.5t-62.5 -107.5q-13 -52 21.5 -80.5t107.5 -28.5l-15 -86q-119 0 -182.5 46t-46.5 137q11 69 54.5 121t125.5 112h2q0 63 17 176q-20 -35 -49.5 -66t-74.5 -62t-111 -49.5t-144 -18.5q-74 0 -133 18.5
t-95.5 48.5t-61 69t-34.5 77t-10 77zM180 274q0 -76 56.5 -128t173.5 -52q164 0 264.5 103.5t140.5 285.5q20 94 27 135q-41 -49 -114.5 -78.5t-221.5 -52.5q-61 -9 -103 -17.5t-87.5 -24.5t-73 -37.5t-45 -55.5t-17.5 -78z" />
    <glyph glyph-name="Cacute" unicode="&#x106;" horiz-adv-x="1589" 
d="M786 -27q-137 0 -250 38.5t-188 102t-127 148.5t-75 175t-23 184q0 197 63.5 361t174.5 274t263.5 170.5t329.5 60.5q112 0 205 -24t159 -64.5t117.5 -98.5t83 -120t52.5 -136h-146q-106 316 -475 316q-307 0 -492.5 -205t-185.5 -543q0 -64 15.5 -130t54.5 -136
t96 -123.5t148.5 -88t204.5 -34.5q189 0 332.5 87.5t217.5 236.5h148q-103 -213 -281.5 -332t-421.5 -119zM911 1593l297 209h213l-354 -209h-156z" />
    <glyph glyph-name="cacute" unicode="&#x107;" horiz-adv-x="1153" 
d="M1042 311q-66 -165 -189.5 -247t-320.5 -82q-111 0 -202 38.5t-148.5 103.5t-89 148t-31.5 174q0 147 45.5 267t125 199t186.5 122t231 43q93 0 168.5 -26t125 -71.5t81 -101t45.5 -122.5h-139q-28 92 -99 146t-184 54q-92 0 -171.5 -33t-140 -94.5t-95.5 -158
t-35 -215.5q0 -146 92.5 -249.5t239.5 -103.5q136 0 221.5 50.5t138.5 158.5h145zM575 1194l287 268h178l-358 -268h-107z" />
    <glyph glyph-name="Ccircumflex" unicode="&#x108;" horiz-adv-x="1589" 
d="M786 -27q-137 0 -250 38.5t-188 102t-127 148.5t-75 175t-23 184q0 197 63.5 361t174.5 274t263.5 170.5t329.5 60.5q112 0 205 -24t159 -64.5t117.5 -98.5t83 -120t52.5 -136h-146q-106 316 -475 316q-307 0 -492.5 -205t-185.5 -543q0 -64 15.5 -130t54.5 -136
t96 -123.5t148.5 -88t204.5 -34.5q189 0 332.5 87.5t217.5 236.5h148q-103 -213 -281.5 -332t-421.5 -119zM682 1577l291 231h162l208 -231h-155l-150 152l-200 -152h-156z" />
    <glyph glyph-name="ccircumflex" unicode="&#x109;" horiz-adv-x="1153" 
d="M1042 311q-66 -165 -189.5 -247t-320.5 -82q-111 0 -202 38.5t-148.5 103.5t-89 148t-31.5 174q0 147 45.5 267t125 199t186.5 122t231 43q93 0 168.5 -26t125 -71.5t81 -101t45.5 -122.5h-139q-28 92 -99 146t-184 54q-92 0 -171.5 -33t-140 -94.5t-95.5 -158
t-35 -215.5q0 -146 92.5 -249.5t239.5 -103.5q136 0 221.5 50.5t138.5 158.5h145zM336 1194l274 268h150l178 -268h-139l-129 190l-195 -190h-139z" />
    <glyph glyph-name="Cdotaccent" unicode="&#x10a;" horiz-adv-x="1589" 
d="M786 -27q-137 0 -250 38.5t-188 102t-127 148.5t-75 175t-23 184q0 197 63.5 361t174.5 274t263.5 170.5t329.5 60.5q112 0 205 -24t159 -64.5t117.5 -98.5t83 -120t52.5 -136h-146q-106 316 -475 316q-307 0 -492.5 -205t-185.5 -543q0 -64 15.5 -130t54.5 -136
t96 -123.5t148.5 -88t204.5 -34.5q189 0 332.5 87.5t217.5 236.5h148q-103 -213 -281.5 -332t-421.5 -119zM948 1602l35 200h141l-34 -200h-142z" />
    <glyph glyph-name="cdotaccent" unicode="&#x10b;" horiz-adv-x="1153" 
d="M1042 311q-66 -165 -189.5 -247t-320.5 -82q-111 0 -202 38.5t-148.5 103.5t-89 148t-31.5 174q0 147 45.5 267t125 199t186.5 122t231 43q93 0 168.5 -26t125 -71.5t81 -101t45.5 -122.5h-139q-28 92 -99 146t-184 54q-92 0 -171.5 -33t-140 -94.5t-95.5 -158
t-35 -215.5q0 -146 92.5 -249.5t239.5 -103.5q136 0 221.5 50.5t138.5 158.5h145zM578 1264l34 198h140l-33 -198h-141z" />
    <glyph glyph-name="Ccaron" unicode="&#x10c;" horiz-adv-x="1589" 
d="M786 -27q-137 0 -250 38.5t-188 102t-127 148.5t-75 175t-23 184q0 197 63.5 361t174.5 274t263.5 170.5t329.5 60.5q112 0 205 -24t159 -64.5t117.5 -98.5t83 -120t52.5 -136h-146q-106 316 -475 316q-307 0 -492.5 -205t-185.5 -543q0 -64 15.5 -130t54.5 -136
t96 -123.5t148.5 -88t204.5 -34.5q189 0 332.5 87.5t217.5 236.5h148q-103 -213 -281.5 -332t-421.5 -119zM719 1808h155l148 -151l203 151h155l-290 -231h-162z" />
    <glyph glyph-name="ccaron" unicode="&#x10d;" horiz-adv-x="1153" 
d="M1042 311q-66 -165 -189.5 -247t-320.5 -82q-111 0 -202 38.5t-148.5 103.5t-89 148t-31.5 174q0 147 45.5 267t125 199t186.5 122t231 43q93 0 168.5 -26t125 -71.5t81 -101t45.5 -122.5h-139q-28 92 -99 146t-184 54q-92 0 -171.5 -33t-140 -94.5t-95.5 -158
t-35 -215.5q0 -146 92.5 -249.5t239.5 -103.5q136 0 221.5 50.5t138.5 158.5h145zM381 1460h139l129 -190l195 190h139l-272 -268h-152z" />
    <glyph glyph-name="Dcaron" unicode="&#x10e;" horiz-adv-x="1429" 
d="M672 1462q316 0 502 -162q100 -86 151 -208.5t51 -262.5q0 -211 -75 -373.5t-209 -267.5q-115 -93 -265 -140.5t-317 -47.5h-444l258 1462h348zM238 127h290q99 0 194 23t187.5 76.5t162 132.5t112.5 200.5t43 271.5q0 228 -142 366t-393 138h-241zM561 1808h156
l147 -151l203 151h156l-291 -231h-162z" />
    <glyph glyph-name="dcaron" unicode="&#x10f;" horiz-adv-x="1208" 
d="M61 455q0 275 160 448.5t406 173.5q146 0 235.5 -61t122.5 -154l107 600h143l-258 -1462h-141l26 184q-62 -102 -150 -152t-233 -50q-82 0 -150.5 25t-117.5 69t-83 103.5t-50.5 129.5t-16.5 146zM205 451q0 -71 16.5 -131.5t51 -110t93.5 -77.5t138 -28q104 0 187 42
t134 111.5t79.5 151t33.5 169.5q15 172 -65.5 275t-241.5 103q-124 0 -222.5 -69.5t-151 -184.5t-52.5 -251zM1278 1151l70 311h151l-129 -311h-92z" />
    <glyph glyph-name="Dcroat" unicode="&#x110;" horiz-adv-x="1429" 
d="M672 1462q316 0 502 -162q100 -86 151 -208.5t51 -262.5q0 -211 -75 -373.5t-209 -267.5q-115 -93 -265 -140.5t-317 -47.5h-444l118 668h-153l14 108h158l121 686h348zM238 127h290q99 0 194 23t187.5 76.5t162 132.5t112.5 200.5t43 271.5q0 228 -142 366t-393 138
h-241l-99 -559h338l-16 -108h-340z" />
    <glyph glyph-name="dcroat" unicode="&#x111;" horiz-adv-x="1208" 
d="M61 455q0 275 160 448.5t406 173.5q146 0 235.5 -61t122.5 -154l62 342h-211l16 94h211l29 164h143l-29 -164h324l-17 -94h-323l-213 -1204h-141l26 184q-62 -102 -150 -152t-233 -50q-82 0 -150.5 25t-117.5 69t-83 103.5t-50.5 129.5t-16.5 146zM205 451
q0 -71 16.5 -131.5t51 -110t93.5 -77.5t138 -28q104 0 187 42t134 111.5t79.5 151t33.5 169.5q15 172 -65.5 275t-241.5 103q-124 0 -222.5 -69.5t-151 -184.5t-52.5 -251z" />
    <glyph glyph-name="Emacron" unicode="&#x112;" horiz-adv-x="1179" 
d="M1212 1462l-22 -127h-739l-93 -526h697l-23 -127h-696l-98 -555h745l-22 -127h-895l258 1462h888zM481 1634l19 95h598l-17 -95h-600z" />
    <glyph glyph-name="emacron" unicode="&#x113;" horiz-adv-x="1150" 
d="M516 -18q-111 0 -198.5 37t-142.5 102.5t-83.5 152t-28.5 189.5q0 272 159 443t415 171q87 0 159.5 -26.5t122.5 -71t85 -104.5t52 -126t19 -137q0 -97 -4 -127h-866q-2 -185 79 -285t242 -100q266 0 357 209h145q-131 -327 -512 -327zM221 604h721q-4 164 -89.5 259
t-225.5 95q-160 0 -266.5 -95t-139.5 -259zM324 1262l16 88h686l-14 -88h-688z" />
    <glyph glyph-name="Ebreve" unicode="&#x114;" horiz-adv-x="1179" 
d="M1212 1462l-22 -127h-739l-93 -526h697l-23 -127h-696l-98 -555h745l-22 -127h-895l258 1462h888zM514 1806h113q-2 -57 40.5 -102t114.5 -45q75 0 134 45t75 102h113q-27 -106 -118.5 -174.5t-201.5 -68.5q-125 0 -198.5 69t-71.5 174z" />
    <glyph glyph-name="ebreve" unicode="&#x115;" horiz-adv-x="1150" 
d="M516 -18q-111 0 -198.5 37t-142.5 102.5t-83.5 152t-28.5 189.5q0 272 159 443t415 171q87 0 159.5 -26.5t122.5 -71t85 -104.5t52 -126t19 -137q0 -97 -4 -127h-866q-2 -185 79 -285t242 -100q266 0 357 209h145q-131 -327 -512 -327zM221 604h721q-4 164 -89.5 259
t-225.5 95q-160 0 -266.5 -95t-139.5 -259zM412 1462h110q-10 -76 29 -126t123 -50q86 0 140 49t73 127h114q-29 -123 -123.5 -198.5t-220.5 -75.5q-125 0 -192 75t-53 199z" />
    <glyph glyph-name="Edotaccent" unicode="&#x116;" horiz-adv-x="1179" 
d="M1212 1462l-22 -127h-739l-93 -526h697l-23 -127h-696l-98 -555h745l-22 -127h-895l258 1462h888zM707 1602l34 200h142l-35 -200h-141z" />
    <glyph glyph-name="edotaccent" unicode="&#x117;" horiz-adv-x="1150" 
d="M516 -18q-111 0 -198.5 37t-142.5 102.5t-83.5 152t-28.5 189.5q0 272 159 443t415 171q87 0 159.5 -26.5t122.5 -71t85 -104.5t52 -126t19 -137q0 -97 -4 -127h-866q-2 -185 79 -285t242 -100q266 0 357 209h145q-131 -327 -512 -327zM221 604h721q-4 164 -89.5 259
t-225.5 95q-160 0 -266.5 -95t-139.5 -259zM598 1264l35 198h139l-33 -198h-141z" />
    <glyph glyph-name="Eogonek" unicode="&#x118;" horiz-adv-x="1179" 
d="M1212 1462l-22 -127h-739l-93 -526h697l-23 -127h-696l-98 -555h745l-22 -127h-3q-103 -66 -158.5 -116.5t-62.5 -104.5q-8 -53 22 -80t101 -27l-16 -88q-116 0 -182 46t-52 137q6 36 22.5 67.5t48 62t56 50t70.5 53.5h-741l258 1462h888z" />
    <glyph glyph-name="eogonek" unicode="&#x119;" horiz-adv-x="1150" 
d="M942 604q-4 164 -89.5 259t-225.5 95q-160 0 -266.5 -95t-139.5 -259h721zM63 463q0 272 159 443t415 171q87 0 159.5 -26.5t122.5 -71t85 -104.5t52 -126t19 -137q0 -97 -4 -127h-866q-2 -185 79 -285t242 -100q266 0 357 209h145q-116 -293 -432 -323
q-87 -59 -131 -106t-55 -101q-12 -52 22 -80.5t105 -28.5l-15 -86q-115 0 -177 46t-48 137q10 64 49 114.5t109 102.5q-191 20 -291.5 151t-100.5 328z" />
    <glyph glyph-name="Ecaron" unicode="&#x11a;" horiz-adv-x="1179" 
d="M1212 1462l-22 -127h-739l-93 -526h697l-23 -127h-696l-98 -555h745l-22 -127h-895l258 1462h888zM477 1808h156l147 -151l203 151h156l-291 -231h-162z" />
    <glyph glyph-name="ecaron" unicode="&#x11b;" horiz-adv-x="1150" 
d="M516 -18q-111 0 -198.5 37t-142.5 102.5t-83.5 152t-28.5 189.5q0 272 159 443t415 171q87 0 159.5 -26.5t122.5 -71t85 -104.5t52 -126t19 -137q0 -97 -4 -127h-866q-2 -185 79 -285t242 -100q266 0 357 209h145q-131 -327 -512 -327zM221 604h721q-4 164 -89.5 259
t-225.5 95q-160 0 -266.5 -95t-139.5 -259zM401 1460h140l129 -190l194 190h140l-273 -268h-151z" />
    <glyph glyph-name="Gcircumflex" unicode="&#x11c;" horiz-adv-x="1599" 
d="M1399 1044q-22 72 -54.5 126t-84.5 98.5t-130 68t-180 23.5q-307 0 -492.5 -205t-185.5 -543q0 -64 15.5 -130t54 -136t95 -123.5t146 -88t199.5 -34.5q224 0 363 129t178 379l-463 -2l23 123h635l-148 -729h-108l43 301q-72 -164 -200.5 -246t-346.5 -82
q-126 0 -232.5 38.5t-179 103t-124 149t-75.5 175t-24 182.5q0 197 63.5 361t174.5 274t263.5 170.5t329.5 60.5q110 0 200.5 -23.5t153 -63.5t110 -98t76.5 -120t48 -138h-143zM651 1577l291 231h162l209 -231h-156l-149 152l-201 -152h-156zM1343 608l9 -14l2 14h-11z" />
    <glyph glyph-name="gcircumflex" unicode="&#x11d;" horiz-adv-x="1204" 
d="M983 57q-40 -218 -172 -333t-344 -115q-189 0 -308 88.5t-134 245.5h135q13 -115 95.5 -168.5t217.5 -53.5q308 0 375 355q14 77 18 110q-67 -102 -162 -153t-235 -51q-84 0 -153.5 26.5t-116 70.5t-79 103t-47 122.5t-14.5 129.5q0 148 46 271.5t122.5 203.5t174.5 124
t204 44q276 0 375 -209l35 191h143zM207 440q0 -155 77.5 -245.5t223.5 -90.5q96 0 176 42t131 111.5t81 152t36 170.5q14 171 -69 273.5t-247 102.5q-115 0 -209 -68.5t-147 -186.5t-53 -261zM344 1194l274 268h150l178 -268h-139l-129 190l-195 -190h-139z" />
    <glyph glyph-name="Gbreve" unicode="&#x11e;" horiz-adv-x="1599" 
d="M1399 1044q-22 72 -54.5 126t-84.5 98.5t-130 68t-180 23.5q-307 0 -492.5 -205t-185.5 -543q0 -64 15.5 -130t54 -136t95 -123.5t146 -88t199.5 -34.5q224 0 363 129t178 379l-463 -2l23 123h635l-148 -729h-108l43 301q-72 -164 -200.5 -246t-346.5 -82
q-126 0 -232.5 38.5t-179 103t-124 149t-75.5 175t-24 182.5q0 197 63.5 361t174.5 274t263.5 170.5t329.5 60.5q110 0 200.5 -23.5t153 -63.5t110 -98t76.5 -120t48 -138h-143zM723 1806h113q-2 -57 40.5 -102t114.5 -45q75 0 134 45t75 102h113q-27 -106 -118.5 -174.5
t-201.5 -68.5q-125 0 -198.5 69t-71.5 174zM1343 608l9 -14l2 14h-11z" />
    <glyph glyph-name="gbreve" unicode="&#x11f;" horiz-adv-x="1204" 
d="M983 57q-40 -218 -172 -333t-344 -115q-189 0 -308 88.5t-134 245.5h135q13 -115 95.5 -168.5t217.5 -53.5q308 0 375 355q14 77 18 110q-67 -102 -162 -153t-235 -51q-84 0 -153.5 26.5t-116 70.5t-79 103t-47 122.5t-14.5 129.5q0 148 46 271.5t122.5 203.5t174.5 124
t204 44q276 0 375 -209l35 191h143zM207 440q0 -155 77.5 -245.5t223.5 -90.5q96 0 176 42t131 111.5t81 152t36 170.5q14 171 -69 273.5t-247 102.5q-115 0 -209 -68.5t-147 -186.5t-53 -261zM399 1462h111q-10 -76 29 -126t123 -50q86 0 139.5 49t72.5 127h115
q-29 -123 -123.5 -198.5t-220.5 -75.5t-193 75.5t-53 198.5z" />
    <glyph glyph-name="Gdotaccent" unicode="&#x120;" horiz-adv-x="1599" 
d="M1399 1044q-22 72 -54.5 126t-84.5 98.5t-130 68t-180 23.5q-307 0 -492.5 -205t-185.5 -543q0 -64 15.5 -130t54 -136t95 -123.5t146 -88t199.5 -34.5q224 0 363 129t178 379l-463 -2l23 123h635l-148 -729h-108l43 301q-72 -164 -200.5 -246t-346.5 -82
q-126 0 -232.5 38.5t-179 103t-124 149t-75.5 175t-24 182.5q0 197 63.5 361t174.5 274t263.5 170.5t329.5 60.5q110 0 200.5 -23.5t153 -63.5t110 -98t76.5 -120t48 -138h-143zM915 1602l35 200h142l-35 -200h-142zM1343 608l9 -14l2 14h-11z" />
    <glyph glyph-name="gdotaccent" unicode="&#x121;" horiz-adv-x="1204" 
d="M983 57q-40 -218 -172 -333t-344 -115q-189 0 -308 88.5t-134 245.5h135q13 -115 95.5 -168.5t217.5 -53.5q308 0 375 355q14 77 18 110q-67 -102 -162 -153t-235 -51q-84 0 -153.5 26.5t-116 70.5t-79 103t-47 122.5t-14.5 129.5q0 148 46 271.5t122.5 203.5t174.5 124
t204 44q276 0 375 -209l35 191h143zM207 440q0 -155 77.5 -245.5t223.5 -90.5q96 0 176 42t131 111.5t81 152t36 170.5q14 171 -69 273.5t-247 102.5q-115 0 -209 -68.5t-147 -186.5t-53 -261zM586 1264l35 198h139l-33 -198h-141z" />
    <glyph glyph-name="uni0122" unicode="&#x122;" horiz-adv-x="1599" 
d="M1399 1044q-22 72 -54.5 126t-84.5 98.5t-130 68t-180 23.5q-307 0 -492.5 -205t-185.5 -543q0 -64 15.5 -130t54 -136t95 -123.5t146 -88t199.5 -34.5q224 0 363 129t178 379l-463 -2l23 123h635l-148 -729h-108l43 301q-72 -164 -200.5 -246t-346.5 -82
q-126 0 -232.5 38.5t-179 103t-124 149t-75.5 175t-24 182.5q0 197 63.5 361t174.5 274t263.5 170.5t329.5 60.5q110 0 200.5 -23.5t153 -63.5t110 -98t76.5 -120t48 -138h-143zM594 -428l10 61q48 11 63.5 30t20.5 56h-90l33 177h186l-29 -154q-29 -170 -194 -170z
M1343 608l9 -14l2 14h-11z" />
    <glyph glyph-name="uni0123" unicode="&#x123;" horiz-adv-x="1204" 
d="M983 57q-40 -218 -172 -333t-344 -115q-189 0 -308 88.5t-134 245.5h135q13 -115 95.5 -168.5t217.5 -53.5q308 0 375 355q14 77 18 110q-67 -102 -162 -153t-235 -51q-84 0 -153.5 26.5t-116 70.5t-79 103t-47 122.5t-14.5 129.5q0 148 46 271.5t122.5 203.5t174.5 124
t204 44q276 0 375 -209l35 191h143zM207 440q0 -155 77.5 -245.5t223.5 -90.5q96 0 176 42t131 111.5t81 152t36 170.5q14 171 -69 273.5t-247 102.5q-115 0 -209 -68.5t-147 -186.5t-53 -261zM557 1241l27 154q15 85 66 127.5t130 42.5l-10 -62q-48 -11 -64.5 -30.5
t-21.5 -55.5h92l-31 -176h-188z" />
    <glyph glyph-name="Hcircumflex" unicode="&#x124;" horiz-adv-x="1380" 
d="M1235 1462h151l-258 -1462h-151l119 676h-762l-119 -676h-149l258 1462h149l-117 -659h762zM545 1577l291 231h161l209 -231h-155l-150 152l-201 -152h-155z" />
    <glyph glyph-name="hcircumflex" unicode="&#x125;" horiz-adv-x="1116" 
d="M45 0l258 1462h143l-65 -358q-18 -106 -47 -236q64 103 151.5 156t210.5 53q184 0 266.5 -115t45.5 -325l-113 -637h-143l108 614q16 80 12 139t-17 98t-42 62.5t-64 33t-81 9.5q-64 0 -122.5 -24t-111.5 -73t-93 -132.5t-60 -194.5l-93 -532h-143zM61 1577l291 231h162
l209 -231h-156l-149 152l-201 -152h-156z" />
    <glyph glyph-name="Hbar" unicode="&#x126;" horiz-adv-x="1380" 
d="M1235 1462h151l-49 -278h103l-15 -90h-104l-193 -1094h-151l119 676h-762l-119 -676h-149l192 1094h-102l14 90h104l50 278h149l-49 -278h762zM356 803h762l51 291h-761z" />
    <glyph glyph-name="hbar" unicode="&#x127;" horiz-adv-x="1116" 
d="M45 0l213 1204h-145l16 94h145l29 164h143l-30 -164h411l-16 -94h-412l-18 -100q-18 -106 -47 -236q64 103 151.5 156t210.5 53q184 0 266.5 -115t45.5 -325l-113 -637h-143l108 614q16 80 12 139t-17 98t-42 62.5t-64 33t-81 9.5q-64 0 -122.5 -24t-111.5 -73
t-93 -132.5t-60 -194.5l-93 -532h-143z" />
    <glyph glyph-name="Itilde" unicode="&#x128;" horiz-adv-x="468" 
d="M324 1462h149l-258 -1462h-149zM76 1593q19 94 79.5 150.5t151.5 56.5q47 0 98 -26t97 -52t80 -26q92 0 118 106h105q-24 -94 -88.5 -151.5t-151.5 -57.5q-49 0 -102 26.5t-100 52.5t-80 26q-88 0 -109 -105h-98z" />
    <glyph glyph-name="itilde" unicode="&#x129;" horiz-adv-x="421" 
d="M47 0l186 1059h144l-187 -1059h-143zM-12 1255q19 93 80 150t151 57q48 0 99.5 -26.5t97.5 -53t80 -26.5q89 0 118 106h103q-22 -93 -87.5 -151t-152.5 -58q-50 0 -103 26.5t-99.5 52.5t-79.5 26q-89 0 -109 -103h-98z" />
    <glyph glyph-name="Imacron" unicode="&#x12a;" horiz-adv-x="468" 
d="M324 1462h149l-258 -1462h-149zM127 1634l18 95h598l-16 -95h-600z" />
    <glyph glyph-name="imacron" unicode="&#x12b;" horiz-adv-x="421" 
d="M47 0l186 1059h144l-187 -1059h-143zM-8 1262l16 88h686l-14 -88h-688z" />
    <glyph glyph-name="Ibreve" unicode="&#x12c;" horiz-adv-x="468" 
d="M324 1462h149l-258 -1462h-149zM162 1806h112q-2 -57 41 -102t115 -45q75 0 134 45t75 102h113q-27 -106 -118.5 -174.5t-201.5 -68.5q-125 0 -198.5 69t-71.5 174z" />
    <glyph glyph-name="ibreve" unicode="&#x12d;" horiz-adv-x="421" 
d="M47 0l186 1059h144l-187 -1059h-143zM80 1462h110q-10 -76 29 -126t123 -50q86 0 140 49t73 127h115q-29 -123 -123.5 -198.5t-220.5 -75.5t-193 75.5t-53 198.5z" />
    <glyph glyph-name="Iogonek" unicode="&#x12e;" horiz-adv-x="479" 
d="M215 0q-6 -5 -33 -25.5t-36 -27.5t-32.5 -26.5t-33.5 -29.5t-26.5 -27.5t-24.5 -30.5t-15.5 -29t-9.5 -31q-6 -52 24.5 -76.5t92.5 -24.5l-19 -96q-116 0 -178.5 45.5t-46.5 138.5q8 47 39.5 92.5t62.5 74t87 73.5l258 1462h149z" />
    <glyph glyph-name="iogonek" unicode="&#x12f;" horiz-adv-x="421" 
d="M47 0l186 1059h144l-187 -1059h-8q-98 -64 -147 -114t-62 -107q-12 -52 22 -80.5t105 -28.5l-14 -86q-115 0 -177 46t-48 137q11 69 54 121t124 112h8zM266 1264l35 198h139l-32 -198h-142z" />
    <glyph glyph-name="Idotaccent" unicode="&#x130;" horiz-adv-x="468" 
d="M324 1462h149l-258 -1462h-149zM354 1602l35 200h141l-34 -200h-142z" />
    <glyph glyph-name="dotlessi" unicode="&#x131;" horiz-adv-x="421" 
d="M47 0l186 1059h144l-187 -1059h-143z" />
    <glyph glyph-name="IJ" unicode="&#x132;" horiz-adv-x="1083" 
d="M416 1462h149l-258 -946h-149zM137 358l8 66h144l-8 -68q-17 -123 42.5 -189.5t176.5 -66.5q63 0 109 21t75 62.5t45.5 89.5t28.5 116l190 1073h152l-191 -1075q-36 -205 -130.5 -307.5t-284.5 -102.5q-113 0 -199 45.5t-129.5 133t-28.5 202.5z" />
    <glyph glyph-name="ij" unicode="&#x133;" horiz-adv-x="847" 
d="M420 1257h-152l37 205h152zM53 0l187 1059h143l-186 -1059h-144zM203 -403l22 118h78q64 0 96.5 26t42.5 91l217 1227h142l-215 -1227q-42 -235 -279 -235h-104zM684 1257l37 205h151l-36 -205h-152z" />
    <glyph glyph-name="Jcircumflex" unicode="&#x134;" horiz-adv-x="987" 
d="M184 356q-17 -123 42.5 -189.5t176.5 -66.5q63 0 109 21t75 62t46 89.5t29 116.5l190 1073h152l-191 -1075q-18 -100 -47 -172.5t-77.5 -127.5t-121 -82.5t-170.5 -27.5q-113 0 -199 45.5t-129 133t-28 202.5l8 66h144zM616 1577l291 231h162l209 -231h-156l-149 152
l-201 -152h-156z" />
    <glyph glyph-name="jcircumflex" unicode="&#x135;" horiz-adv-x="462" 
d="M201 -168q-42 -235 -279 -235h-104l22 118h78q64 0 96.5 26t42.5 91l217 1227h142zM66 1194l274 268h149l179 -268h-140l-129 190l-194 -190h-139z" />
    <glyph glyph-name="uni0136" unicode="&#x136;" horiz-adv-x="1277" 
d="M215 0h-149l258 1462h149l-135 -770l846 770h196l-678 -614l445 -848h-172l-383 750l-291 -258zM444 -428l11 61q48 11 63.5 30t20.5 56h-90l32 177h187l-29 -154q-29 -170 -195 -170z" />
    <glyph glyph-name="uni0137" unicode="&#x137;" horiz-adv-x="987" 
d="M188 0h-143l258 1462h143l-157 -893l577 490h183l-533 -451l352 -608h-166l-292 520l-150 -119zM319 -428l11 61q48 11 63.5 30t20.5 56h-90l32 177h187l-29 -154q-29 -170 -195 -170z" />
    <glyph glyph-name="kgreenlandic" unicode="&#x138;" horiz-adv-x="989" 
d="M190 0h-143l186 1059h144l-90 -512l581 512h181l-523 -463l344 -596h-172l-284 502l-158 -129z" />
    <glyph glyph-name="Lacute" unicode="&#x139;" horiz-adv-x="1099" 
d="M324 1462h149l-233 -1335h727l-23 -127h-878zM420 1593l297 209h213l-355 -209h-155z" />
    <glyph glyph-name="lacute" unicode="&#x13a;" horiz-adv-x="419" 
d="M303 1462h143l-258 -1462h-143zM377 1593l297 209h213l-355 -209h-155z" />
    <glyph glyph-name="uni013B" unicode="&#x13b;" horiz-adv-x="1099" 
d="M324 1462h149l-233 -1335h727l-23 -127h-878zM301 -428l10 61q48 11 63.5 30t20.5 56h-90l33 177h186l-28 -154q-29 -170 -195 -170z" />
    <glyph glyph-name="uni013C" unicode="&#x13c;" horiz-adv-x="419" 
d="M303 1462h143l-258 -1462h-143zM-18 -428l10 61q48 11 63.5 30t20.5 56h-90l32 177h187l-29 -154q-29 -170 -194 -170z" />
    <glyph glyph-name="Lcaron" unicode="&#x13d;" horiz-adv-x="1099" 
d="M324 1462h149l-233 -1335h727l-23 -127h-878zM596 1051l133 411h156l-195 -411h-94z" />
    <glyph glyph-name="lcaron" unicode="&#x13e;" horiz-adv-x="419" 
d="M303 1462h143l-258 -1462h-143zM494 1151l69 311h152l-129 -311h-92z" />
    <glyph glyph-name="Ldot" unicode="&#x13f;" horiz-adv-x="1099" 
d="M324 1462h149l-233 -1335h727l-23 -127h-878zM975 688l35 201h141l-35 -201h-141z" />
    <glyph glyph-name="ldot" unicode="&#x140;" horiz-adv-x="604" 
d="M303 1462h143l-258 -1462h-143zM455 651l34 199h140l-33 -199h-141z" />
    <glyph glyph-name="Lslash" unicode="&#x141;" horiz-adv-x="1099" 
d="M324 1462h149l-127 -727l563 355l-20 -113l-563 -354l-86 -496h727l-23 -127h-878l92 516l-195 -121l21 113l192 121z" />
    <glyph glyph-name="lslash" unicode="&#x142;" horiz-adv-x="446" 
d="M483 924l-157 -117l-142 -803h-143l121 682l-174 -129l22 121l172 129l117 659h143l-94 -536l156 117z" />
    <glyph glyph-name="Nacute" unicode="&#x143;" horiz-adv-x="1443" 
d="M324 1462h176l469 -1007q12 -27 34.5 -77t41 -89.5t34.5 -71.5q11 56 29 161t20 116l170 968h150l-258 -1462h-180l-457 993q-18 37 -56 120.5t-59 123.5q-14 -63 -53 -299l-166 -938h-153zM805 1593l297 209h213l-354 -209h-156z" />
    <glyph glyph-name="nacute" unicode="&#x144;" horiz-adv-x="1118" 
d="M47 0l186 1059h136l-35 -191q69 105 155 157t209 52q184 0 266.5 -115t45.5 -325l-113 -637h-143l108 614q16 80 12 139t-17 98t-42 62.5t-64 33t-81 9.5q-64 0 -122.5 -24t-111.5 -73t-93 -132.5t-60 -194.5l-93 -532h-143zM614 1194l287 268h178l-358 -268h-107z" />
    <glyph glyph-name="uni0145" unicode="&#x145;" horiz-adv-x="1443" 
d="M324 1462h176l469 -1007q12 -27 34.5 -77t41 -89.5t34.5 -71.5q11 56 29 161t20 116l170 968h150l-258 -1462h-180l-457 993q-18 37 -56 120.5t-59 123.5q-14 -63 -53 -299l-166 -938h-153zM492 -428l10 61q48 11 63.5 30t20.5 56h-90l32 177h187l-29 -154
q-29 -170 -194 -170z" />
    <glyph glyph-name="uni0146" unicode="&#x146;" horiz-adv-x="1118" 
d="M47 0l186 1059h136l-35 -191q69 105 155 157t209 52q184 0 266.5 -115t45.5 -325l-113 -637h-143l108 614q16 80 12 139t-17 98t-42 62.5t-64 33t-81 9.5q-64 0 -122.5 -24t-111.5 -73t-93 -132.5t-60 -194.5l-93 -532h-143zM338 -428l10 61q48 11 63.5 30t20.5 56h-90
l33 177h186l-29 -154q-29 -170 -194 -170z" />
    <glyph glyph-name="Ncaron" unicode="&#x147;" horiz-adv-x="1443" 
d="M324 1462h176l469 -1007q12 -27 34.5 -77t41 -89.5t34.5 -71.5q11 56 29 161t20 116l170 968h150l-258 -1462h-180l-457 993q-18 37 -56 120.5t-59 123.5q-14 -63 -53 -299l-166 -938h-153zM612 1808h156l147 -151l203 151h156l-291 -231h-162z" />
    <glyph glyph-name="ncaron" unicode="&#x148;" horiz-adv-x="1118" 
d="M47 0l186 1059h136l-35 -191q69 105 155 157t209 52q184 0 266.5 -115t45.5 -325l-113 -637h-143l108 614q16 80 12 139t-17 98t-42 62.5t-64 33t-81 9.5q-64 0 -122.5 -24t-111.5 -73t-93 -132.5t-60 -194.5l-93 -532h-143zM420 1460h139l129 -190l195 190h139
l-272 -268h-152z" />
    <glyph glyph-name="napostrophe" unicode="&#x149;" horiz-adv-x="1118" 
d="M47 0l186 1059h136l-35 -191q69 105 155 157t209 52q184 0 266.5 -115t45.5 -325l-113 -637h-143l108 614q16 80 12 139t-17 98t-42 62.5t-64 33t-81 9.5q-64 0 -122.5 -24t-111.5 -73t-93 -132.5t-60 -194.5l-93 -532h-143zM10 1128l88 168h-35l29 166h115l-29 -170
l-102 -164h-66z" />
    <glyph glyph-name="Eng" unicode="&#x14a;" horiz-adv-x="1443" 
d="M324 1462h176l469 -1007q12 -27 34.5 -77t41 -89.5t34.5 -71.5q11 56 29 161t20 116l170 968h150l-258 -1462q0 -194 -90.5 -305.5t-286.5 -114.5v125q121 1 175 73.5t56 221.5h-34l-457 993q-18 37 -56 120.5t-59 123.5q-14 -63 -53 -299l-166 -938h-153z" />
    <glyph glyph-name="eng" unicode="&#x14b;" horiz-adv-x="1118" 
d="M866 -170q-20 -107 -90.5 -170t-187.5 -63h-119l20 118h91q65 0 99 26t46 91l29 168l108 614q16 80 12 139t-17 98t-42 62.5t-64 33t-81 9.5q-64 0 -122.5 -24t-111.5 -73t-93 -132.5t-60 -194.5l-93 -532h-143l186 1059h136l-35 -191q69 105 155 157t209 52
q184 0 266.5 -115t45.5 -325l-113 -637z" />
    <glyph glyph-name="Omacron" unicode="&#x14c;" horiz-adv-x="1669" 
d="M954 1487q140 0 254.5 -38t189.5 -100.5t125.5 -146t72.5 -170.5t22 -178q0 -203 -64 -370t-175.5 -278.5t-263.5 -172t-329 -60.5q-137 0 -250 38.5t-188 102t-127 148.5t-75 175t-23 184q0 197 63.5 361t174.5 274t263.5 170.5t329.5 60.5zM272 612q0 -64 15.5 -130
t54.5 -136t96 -123.5t148.5 -88t204.5 -34.5q201 0 356 96t238 263.5t83 378.5q0 69 -14.5 137t-51.5 139t-93.5 124.5t-149 87.5t-209.5 34q-307 0 -492.5 -205t-185.5 -543zM727 1634l18 95h598l-16 -95h-600z" />
    <glyph glyph-name="omacron" unicode="&#x14d;" horiz-adv-x="1187" 
d="M651 1077q119 0 210.5 -38.5t147.5 -106.5t84.5 -156.5t28.5 -193.5q0 -264 -161 -432t-422 -168q-231 0 -353.5 135t-122.5 356q0 171 72.5 308.5t207 216.5t308.5 79zM207 477q0 -174 90 -274.5t252 -100.5q188 0 311 130.5t123 345.5q0 173 -87 275.5t-253 102.5
q-191 0 -313.5 -133t-122.5 -346zM346 1262l16 88h687l-15 -88h-688z" />
    <glyph glyph-name="Obreve" unicode="&#x14e;" horiz-adv-x="1669" 
d="M954 1487q140 0 254.5 -38t189.5 -100.5t125.5 -146t72.5 -170.5t22 -178q0 -203 -64 -370t-175.5 -278.5t-263.5 -172t-329 -60.5q-137 0 -250 38.5t-188 102t-127 148.5t-75 175t-23 184q0 197 63.5 361t174.5 274t263.5 170.5t329.5 60.5zM272 612q0 -64 15.5 -130
t54.5 -136t96 -123.5t148.5 -88t204.5 -34.5q201 0 356 96t238 263.5t83 378.5q0 69 -14.5 137t-51.5 139t-93.5 124.5t-149 87.5t-209.5 34q-307 0 -492.5 -205t-185.5 -543zM760 1806h112q-2 -57 41 -102t115 -45q75 0 134 45t75 102h113q-27 -106 -118.5 -174.5
t-201.5 -68.5q-125 0 -198.5 69t-71.5 174z" />
    <glyph glyph-name="obreve" unicode="&#x14f;" horiz-adv-x="1187" 
d="M651 1077q119 0 210.5 -38.5t147.5 -106.5t84.5 -156.5t28.5 -193.5q0 -264 -161 -432t-422 -168q-231 0 -353.5 135t-122.5 356q0 171 72.5 308.5t207 216.5t308.5 79zM207 477q0 -174 90 -274.5t252 -100.5q188 0 311 130.5t123 345.5q0 173 -87 275.5t-253 102.5
q-191 0 -313.5 -133t-122.5 -346zM434 1462h111q-10 -76 28.5 -126t122.5 -50q86 0 140 49t73 127h115q-29 -123 -123.5 -198.5t-220.5 -75.5t-193 75.5t-53 198.5z" />
    <glyph glyph-name="Ohungarumlaut" unicode="&#x150;" horiz-adv-x="1669" 
d="M954 1487q140 0 254.5 -38t189.5 -100.5t125.5 -146t72.5 -170.5t22 -178q0 -203 -64 -370t-175.5 -278.5t-263.5 -172t-329 -60.5q-137 0 -250 38.5t-188 102t-127 148.5t-75 175t-23 184q0 197 63.5 361t174.5 274t263.5 170.5t329.5 60.5zM272 612q0 -64 15.5 -130
t54.5 -136t96 -123.5t148.5 -88t204.5 -34.5q201 0 356 96t238 263.5t83 378.5q0 69 -14.5 137t-51.5 139t-93.5 124.5t-149 87.5t-209.5 34q-307 0 -492.5 -205t-185.5 -543zM791 1597l217 207h168l-281 -207h-104zM1065 1597l217 207h170l-281 -207h-106z" />
    <glyph glyph-name="ohungarumlaut" unicode="&#x151;" horiz-adv-x="1187" 
d="M651 1077q119 0 210.5 -38.5t147.5 -106.5t84.5 -156.5t28.5 -193.5q0 -264 -161 -432t-422 -168q-231 0 -353.5 135t-122.5 356q0 171 72.5 308.5t207 216.5t308.5 79zM207 477q0 -174 90 -274.5t252 -100.5q188 0 311 130.5t123 345.5q0 173 -87 275.5t-253 102.5
q-191 0 -313.5 -133t-122.5 -346zM457 1194l258 268h168l-320 -268h-106zM733 1194l256 268h168l-319 -268h-105z" />
    <glyph glyph-name="OE" unicode="&#x152;" horiz-adv-x="2320" 
d="M127 741q27 153 99 289.5t177.5 238.5t247.5 162t299 60q190 0 314.5 -82t179.5 -221l51 274h858l-22 -127h-707l-94 -526h665l-22 -127h-664l-100 -555h715l-23 -127h-864l47 264q-102 -138 -250 -215.5t-334 -77.5q-107 0 -199.5 28t-160 78.5t-119 121.5t-76.5 156.5
t-32 183.5t14 202zM274 719q-16 -77 -12 -153.5t20 -145.5t53 -128.5t87 -103t123 -68t160 -24.5q110 0 209 36t174 98t135 145t97 175.5t54 190.5q16 78 13 154.5t-18 145.5t-51 128t-85.5 102.5t-123.5 68t-163 24.5q-133 0 -251 -55t-202 -147t-140.5 -206t-78.5 -237z
" />
    <glyph glyph-name="oe" unicode="&#x153;" horiz-adv-x="2062" 
d="M655 1077q156 0 261.5 -68t156.5 -180q74 118 196.5 183t276.5 65q87 0 160.5 -26.5t123.5 -71t85 -104.5t52 -126t18 -137q3 -78 -3 -127h-868q-2 -185 79.5 -285t244.5 -100q265 0 356 209h143q-131 -327 -510 -327q-149 0 -251.5 64t-153.5 177
q-73 -118 -199.5 -179.5t-292.5 -61.5q-111 0 -201.5 38.5t-148 103.5t-88.5 148t-31 174q0 147 46 267t126 199t188 122t234 43zM205 455q0 -146 92 -249.5t238 -103.5q211 0 327.5 126.5t116.5 371.5q0 147 -85.5 251.5t-240.5 104.5q-93 0 -174 -33t-142 -95t-96.5 -158
t-35.5 -215zM1133 604h718q-4 164 -89 259t-226 95q-159 0 -264.5 -95t-138.5 -259z" />
    <glyph glyph-name="Racute" unicode="&#x154;" horiz-adv-x="1294" 
d="M66 0l258 1462h497q95 0 171.5 -23t125 -60t81 -85.5t45.5 -96.5t13 -97q0 -345 -378 -430q34 -10 58.5 -24t43 -38.5t30.5 -48t22 -66t16 -78.5t14 -98q24 -174 82 -313l2 -4h-162q-50 159 -74 367q-10 65 -24.5 107t-43 78.5t-77 53.5t-119.5 17h-321l-111 -623h-149z
M348 750h359q116 0 203.5 34t141.5 110.5t54 188.5q0 27 -5 55t-23.5 65.5t-49 65t-88 47t-133.5 19.5h-354zM696 1593l297 209h213l-354 -209h-156z" />
    <glyph glyph-name="racute" unicode="&#x155;" horiz-adv-x="659" 
d="M47 0l186 1059h144l-33 -187q54 91 145 142t209 55l-22 -141q-139 -3 -217 -58q-70 -47 -111.5 -133t-64.5 -215l-93 -522h-143zM414 1194l286 268h179l-359 -268h-106z" />
    <glyph glyph-name="uni0156" unicode="&#x156;" horiz-adv-x="1294" 
d="M66 0l258 1462h497q95 0 171.5 -23t125 -60t81 -85.5t45.5 -96.5t13 -97q0 -345 -378 -430q34 -10 58.5 -24t43 -38.5t30.5 -48t22 -66t16 -78.5t14 -98q24 -174 82 -313l2 -4h-162q-50 159 -74 367q-10 65 -24.5 107t-43 78.5t-77 53.5t-119.5 17h-321l-111 -623h-149z
M348 750h359q116 0 203.5 34t141.5 110.5t54 188.5q0 27 -5 55t-23.5 65.5t-49 65t-88 47t-133.5 19.5h-354zM453 -428l10 61q48 11 63.5 30t20.5 56h-90l32 177h187l-29 -154q-29 -170 -194 -170z" />
    <glyph glyph-name="uni0157" unicode="&#x157;" horiz-adv-x="659" 
d="M47 0l186 1059h144l-33 -187q54 91 145 142t209 55l-22 -141q-139 -3 -217 -58q-70 -47 -111.5 -133t-64.5 -215l-93 -522h-143zM-20 -428l10 61q48 11 63.5 30t20.5 56h-90l32 177h187l-29 -154q-29 -170 -194 -170z" />
    <glyph glyph-name="Rcaron" unicode="&#x158;" horiz-adv-x="1294" 
d="M66 0l258 1462h497q95 0 171.5 -23t125 -60t81 -85.5t45.5 -96.5t13 -97q0 -345 -378 -430q34 -10 58.5 -24t43 -38.5t30.5 -48t22 -66t16 -78.5t14 -98q24 -174 82 -313l2 -4h-162q-50 159 -74 367q-10 65 -24.5 107t-43 78.5t-77 53.5t-119.5 17h-321l-111 -623h-149z
M348 750h359q116 0 203.5 34t141.5 110.5t54 188.5q0 27 -5 55t-23.5 65.5t-49 65t-88 47t-133.5 19.5h-354zM502 1808h155l148 -151l203 151h155l-291 -231h-161z" />
    <glyph glyph-name="rcaron" unicode="&#x159;" horiz-adv-x="659" 
d="M47 0l186 1059h144l-33 -187q54 91 145 142t209 55l-22 -141q-139 -3 -217 -58q-70 -47 -111.5 -133t-64.5 -215l-93 -522h-143zM219 1460h139l129 -190l195 190h139l-272 -268h-152z" />
    <glyph glyph-name="Sacute" unicode="&#x15a;" horiz-adv-x="1232" 
d="M227 444q13 -91 55 -160t100 -108t120.5 -57.5t126.5 -18.5q68 0 128.5 17t109 50t77 88t27.5 126q0 27 -5 51t-11 43t-20.5 37.5t-25.5 31t-33.5 28t-36.5 24t-43 22.5t-44.5 21t-50 21.5t-50.5 21.5q-70 30 -120 54.5t-102 56t-86 63.5t-62 71t-41 85.5t-13 101.5
q0 91 39.5 163.5t106.5 118t152 69.5t180 24q208 0 326 -109t149 -313h-144q-48 295 -331 295q-148 0 -236 -62.5t-88 -183.5q0 -103 76.5 -168.5t249.5 -140.5q43 -18 66.5 -28t61.5 -28t60 -30.5t53.5 -31.5t49.5 -35.5t40.5 -39t35 -46t24.5 -51t17 -59.5t5 -67
q0 -112 -41.5 -195.5t-113 -130.5t-156.5 -69.5t-184 -22.5q-136 0 -251 50t-196.5 158.5t-99.5 262.5h149zM633 1593l297 209h213l-355 -209h-155z" />
    <glyph glyph-name="sacute" unicode="&#x15b;" horiz-adv-x="962" 
d="M780 764q-22 106 -87.5 149t-170.5 43q-100 0 -166.5 -40.5t-66.5 -122.5q0 -32 11.5 -57.5t26.5 -42.5t51.5 -36.5t63 -30.5t84.5 -34q81 -31 128.5 -53t97.5 -57t73 -80t23 -103q0 -71 -26.5 -127t-68.5 -90.5t-98 -57t-110 -31.5t-109 -9q-76 0 -142.5 19t-123 57
t-93.5 104t-46 153h141q17 -112 82.5 -163.5t187.5 -51.5q111 0 187 46t76 139q0 68 -52.5 106.5t-191.5 87.5q-52 19 -82.5 31.5t-72.5 33t-66.5 41.5t-48.5 50t-35 65t-11 80q0 77 34.5 136t91.5 92.5t122 50t135 16.5q165 0 266 -80t121 -233h-135zM489 1194l287 268h178
l-358 -268h-107z" />
    <glyph glyph-name="Scircumflex" unicode="&#x15c;" horiz-adv-x="1232" 
d="M227 444q13 -91 55 -160t100 -108t120.5 -57.5t126.5 -18.5q68 0 128.5 17t109 50t77 88t27.5 126q0 27 -5 51t-11 43t-20.5 37.5t-25.5 31t-33.5 28t-36.5 24t-43 22.5t-44.5 21t-50 21.5t-50.5 21.5q-70 30 -120 54.5t-102 56t-86 63.5t-62 71t-41 85.5t-13 101.5
q0 91 39.5 163.5t106.5 118t152 69.5t180 24q208 0 326 -109t149 -313h-144q-48 295 -331 295q-148 0 -236 -62.5t-88 -183.5q0 -103 76.5 -168.5t249.5 -140.5q43 -18 66.5 -28t61.5 -28t60 -30.5t53.5 -31.5t49.5 -35.5t40.5 -39t35 -46t24.5 -51t17 -59.5t5 -67
q0 -112 -41.5 -195.5t-113 -130.5t-156.5 -69.5t-184 -22.5q-136 0 -251 50t-196.5 158.5t-99.5 262.5h149zM403 1577l291 231h162l209 -231h-156l-149 152l-201 -152h-156z" />
    <glyph glyph-name="scircumflex" unicode="&#x15d;" horiz-adv-x="962" 
d="M780 764q-22 106 -87.5 149t-170.5 43q-100 0 -166.5 -40.5t-66.5 -122.5q0 -32 11.5 -57.5t26.5 -42.5t51.5 -36.5t63 -30.5t84.5 -34q81 -31 128.5 -53t97.5 -57t73 -80t23 -103q0 -71 -26.5 -127t-68.5 -90.5t-98 -57t-110 -31.5t-109 -9q-76 0 -142.5 19t-123 57
t-93.5 104t-46 153h141q17 -112 82.5 -163.5t187.5 -51.5q111 0 187 46t76 139q0 68 -52.5 106.5t-191.5 87.5q-52 19 -82.5 31.5t-72.5 33t-66.5 41.5t-48.5 50t-35 65t-11 80q0 77 34.5 136t91.5 92.5t122 50t135 16.5q165 0 266 -80t121 -233h-135zM248 1194l274 268h150
l178 -268h-139l-129 190l-195 -190h-139z" />
    <glyph glyph-name="Scedilla" unicode="&#x15e;" horiz-adv-x="1232" 
d="M227 444q13 -91 55 -160t100 -108t120.5 -57.5t126.5 -18.5q68 0 128.5 17t109 50t77 88t27.5 126q0 27 -5 51t-11 43t-20.5 37.5t-25.5 31t-33.5 28t-36.5 24t-43 22.5t-44.5 21t-50 21.5t-50.5 21.5q-70 30 -120 54.5t-102 56t-86 63.5t-62 71t-41 85.5t-13 101.5
q0 91 39.5 163.5t106.5 118t152 69.5t180 24q208 0 326 -109t149 -313h-144q-48 295 -331 295q-148 0 -236 -62.5t-88 -183.5q0 -103 76.5 -168.5t249.5 -140.5q43 -18 66.5 -28t61.5 -28t60 -30.5t53.5 -31.5t49.5 -35.5t40.5 -39t35 -46t24.5 -51t17 -59.5t5 -67
q0 -107 -38 -188.5t-104 -129t-145.5 -72t-173.5 -28.5l-102 -98l2 -4q39 27 98 27q73 0 114 -38t30 -110q-12 -60 -57.5 -101t-100.5 -57t-117 -16q-99 0 -180 41l45 82q61 -39 133 -39q59 0 104 20.5t52 59.5q6 35 -17.5 55.5t-66.5 20.5q-49 0 -119 -27l-39 70l125 116
q-92 9 -172.5 42t-146.5 90t-109.5 143t-56.5 194h149z" />
    <glyph glyph-name="scedilla" unicode="&#x15f;" horiz-adv-x="962" 
d="M780 764q-22 106 -87.5 149t-170.5 43q-100 0 -166.5 -40.5t-66.5 -122.5q0 -32 11.5 -57.5t26.5 -42.5t51.5 -36.5t63 -30.5t84.5 -34q81 -31 128.5 -53t97.5 -57t73 -80t23 -103q0 -64 -21.5 -116t-56 -86t-82.5 -58.5t-96 -36.5t-100 -16l-115 -111l2 -4q39 27 98 27
q73 0 114 -38t30 -110q-12 -60 -57.5 -101t-100.5 -57t-117 -16q-99 0 -180 41l45 82q61 -39 133 -39q59 0 104 20.5t52 59.5q6 35 -17.5 55.5t-66.5 20.5q-49 0 -119 -27l-39 70l135 127q-145 10 -245.5 92.5t-116.5 238.5h141q17 -112 82.5 -163.5t187.5 -51.5
q111 0 187 46t76 139q0 68 -52.5 106.5t-191.5 87.5q-52 19 -82.5 31.5t-72.5 33t-66.5 41.5t-48.5 50t-35 65t-11 80q0 77 34.5 136t91.5 92.5t122 50t135 16.5q165 0 266 -80t121 -233h-135z" />
    <glyph glyph-name="Scaron" unicode="&#x160;" horiz-adv-x="1232" 
d="M227 444q13 -91 55 -160t100 -108t120.5 -57.5t126.5 -18.5q68 0 128.5 17t109 50t77 88t27.5 126q0 27 -5 51t-11 43t-20.5 37.5t-25.5 31t-33.5 28t-36.5 24t-43 22.5t-44.5 21t-50 21.5t-50.5 21.5q-70 30 -120 54.5t-102 56t-86 63.5t-62 71t-41 85.5t-13 101.5
q0 91 39.5 163.5t106.5 118t152 69.5t180 24q208 0 326 -109t149 -313h-144q-48 295 -331 295q-148 0 -236 -62.5t-88 -183.5q0 -103 76.5 -168.5t249.5 -140.5q43 -18 66.5 -28t61.5 -28t60 -30.5t53.5 -31.5t49.5 -35.5t40.5 -39t35 -46t24.5 -51t17 -59.5t5 -67
q0 -112 -41.5 -195.5t-113 -130.5t-156.5 -69.5t-184 -22.5q-136 0 -251 50t-196.5 158.5t-99.5 262.5h149zM438 1808h156l147 -151l203 151h156l-291 -231h-162z" />
    <glyph glyph-name="scaron" unicode="&#x161;" horiz-adv-x="962" 
d="M780 764q-22 106 -87.5 149t-170.5 43q-100 0 -166.5 -40.5t-66.5 -122.5q0 -32 11.5 -57.5t26.5 -42.5t51.5 -36.5t63 -30.5t84.5 -34q81 -31 128.5 -53t97.5 -57t73 -80t23 -103q0 -71 -26.5 -127t-68.5 -90.5t-98 -57t-110 -31.5t-109 -9q-76 0 -142.5 19t-123 57
t-93.5 104t-46 153h141q17 -112 82.5 -163.5t187.5 -51.5q111 0 187 46t76 139q0 68 -52.5 106.5t-191.5 87.5q-52 19 -82.5 31.5t-72.5 33t-66.5 41.5t-48.5 50t-35 65t-11 80q0 77 34.5 136t91.5 92.5t122 50t135 16.5q165 0 266 -80t121 -233h-135zM295 1460h139
l129 -190l195 190h139l-272 -268h-152z" />
    <glyph glyph-name="uni0162" unicode="&#x162;" horiz-adv-x="1153" 
d="M182 1335l23 127h1071l-21 -127h-462l-236 -1335h-149l235 1335h-461zM348 -428l10 61q48 11 63.5 30t20.5 56h-90l33 177h186l-28 -154q-29 -170 -195 -170z" />
    <glyph glyph-name="uni0163" unicode="&#x163;" horiz-adv-x="589" 
d="M266 246q-21 -129 99 -129h84l-23 -117h-78q-133 0 -187.5 68.5t-33.5 185.5l119 688h-156l21 117h155l45 254l154 63l-55 -317h202l-20 -117h-203zM106 -424l11 62q48 11 63.5 30t20.5 56h-90l32 176h187l-29 -154q-29 -170 -195 -170z" />
    <glyph glyph-name="Tcaron" unicode="&#x164;" horiz-adv-x="1153" 
d="M182 1335l23 127h1071l-21 -127h-462l-236 -1335h-149l235 1335h-461zM467 1808h156l147 -151l203 151h155l-290 -231h-162z" />
    <glyph glyph-name="tcaron" unicode="&#x165;" horiz-adv-x="589" 
d="M266 246q-21 -129 99 -129h84l-23 -117h-78q-133 0 -187.5 68.5t-33.5 185.5l119 688h-156l21 117h155l45 254l154 63l-55 -317h202l-20 -117h-203zM530 1151l70 311h152l-129 -311h-93z" />
    <glyph glyph-name="Tbar" unicode="&#x166;" horiz-adv-x="1153" 
d="M182 1335l23 127h1071l-21 -127h-462l-60 -334h330l-19 -108h-329l-158 -893h-149l157 893h-325l18 108h326l59 334h-461z" />
    <glyph glyph-name="tbar" unicode="&#x167;" horiz-adv-x="589" 
d="M496 594h-168l-62 -348q-21 -129 99 -129h84l-23 -117h-78q-133 0 -187.5 68.5t-33.5 185.5l59 340h-168v100h185l43 248h-156l21 117h155l45 254l154 63l-55 -317h202l-20 -117h-203l-45 -248h152v-100z" />
    <glyph glyph-name="Utilde" unicode="&#x168;" horiz-adv-x="1363" 
d="M1212 514q-46 -270 -180.5 -405.5t-394.5 -135.5q-276 0 -403.5 163t-79.5 437l157 889h152l-160 -899q-38 -214 53.5 -338.5t284.5 -124.5q190 0 287.5 106t134.5 318l166 938h151zM526 1593q19 94 80 150.5t152 56.5q37 0 77.5 -16t69.5 -36t64 -36t63 -16
q93 0 119 106h104q-24 -94 -88.5 -151.5t-150.5 -57.5q-49 0 -102.5 26.5t-100.5 52.5t-80 26q-87 0 -108 -105h-99z" />
    <glyph glyph-name="utilde" unicode="&#x169;" horiz-adv-x="1118" 
d="M1071 1059l-186 -1059h-135l32 193q-54 -99 -147 -155t-215 -56q-184 0 -266.5 115t-44.5 325l112 637h144l-109 -615q-16 -80 -12 -139t17.5 -98t42.5 -62.5t64 -33t81 -9.5q63 0 121.5 24t111.5 73t93 133t59 194l94 533h143zM338 1255q19 93 80 150t151 57
q48 0 99.5 -26.5t97.5 -53t80 -26.5q90 0 119 106h102q-22 -93 -87.5 -151t-152.5 -58q-50 0 -103 26.5t-99.5 52.5t-79.5 26q-89 0 -109 -103h-98z" />
    <glyph glyph-name="Umacron" unicode="&#x16a;" horiz-adv-x="1363" 
d="M1212 514q-46 -270 -180.5 -405.5t-394.5 -135.5q-276 0 -403.5 163t-79.5 437l157 889h152l-160 -899q-38 -214 53.5 -338.5t284.5 -124.5q190 0 287.5 106t134.5 318l166 938h151zM578 1634l18 95h598l-16 -95h-600z" />
    <glyph glyph-name="umacron" unicode="&#x16b;" horiz-adv-x="1118" 
d="M1071 1059l-186 -1059h-135l32 193q-54 -99 -147 -155t-215 -56q-184 0 -266.5 115t-44.5 325l112 637h144l-109 -615q-16 -80 -12 -139t17.5 -98t42.5 -62.5t64 -33t81 -9.5q63 0 121.5 24t111.5 73t93 133t59 194l94 533h143zM342 1262l16 88h686l-14 -88h-688z" />
    <glyph glyph-name="Ubreve" unicode="&#x16c;" horiz-adv-x="1363" 
d="M1212 514q-46 -270 -180.5 -405.5t-394.5 -135.5q-276 0 -403.5 163t-79.5 437l157 889h152l-160 -899q-38 -214 53.5 -338.5t284.5 -124.5q190 0 287.5 106t134.5 318l166 938h151zM612 1806h113q-2 -57 41 -102t115 -45q75 0 134 45t75 102h112q-28 -106 -118.5 -174.5
t-200.5 -68.5q-125 0 -199 69t-72 174z" />
    <glyph glyph-name="ubreve" unicode="&#x16d;" horiz-adv-x="1118" 
d="M1071 1059l-186 -1059h-135l32 193q-54 -99 -147 -155t-215 -56q-184 0 -266.5 115t-44.5 325l112 637h144l-109 -615q-16 -80 -12 -139t17.5 -98t42.5 -62.5t64 -33t81 -9.5q63 0 121.5 24t111.5 73t93 133t59 194l94 533h143zM430 1462h111q-10 -76 28.5 -126
t122.5 -50q86 0 140 49t73 127h115q-29 -123 -123.5 -198.5t-220.5 -75.5t-193 75.5t-53 198.5z" />
    <glyph glyph-name="Uring" unicode="&#x16e;" horiz-adv-x="1363" 
d="M1212 514q-46 -270 -180.5 -405.5t-394.5 -135.5q-276 0 -403.5 163t-79.5 437l157 889h152l-160 -899q-38 -214 53.5 -338.5t284.5 -124.5q190 0 287.5 106t134.5 318l166 938h151zM682 1792q17 92 93 156.5t167 64.5t145 -64.5t37 -156.5q-15 -92 -92 -156.5
t-168 -64.5t-144 64.5t-38 156.5zM782 1790q-9 -54 18 -87.5t81 -33.5q55 0 93.5 33.5t47.5 87.5q9 55 -17 88t-81 33q-54 0 -92.5 -33.5t-49.5 -87.5z" />
    <glyph glyph-name="uring" unicode="&#x16f;" horiz-adv-x="1118" 
d="M1071 1059l-186 -1059h-135l32 193q-54 -99 -147 -155t-215 -56q-184 0 -266.5 115t-44.5 325l112 637h144l-109 -615q-16 -80 -12 -139t17.5 -98t42.5 -62.5t64 -33t81 -9.5q63 0 121.5 24t111.5 73t93 133t59 194l94 533h143zM481 1354q15 92 92 156.5t168 64.5
t144.5 -64.5t38.5 -156.5q-17 -92 -93 -156.5t-167 -64.5t-145.5 64.5t-37.5 156.5zM580 1352q-9 -54 18.5 -88.5t81.5 -34.5t92 34.5t47 88.5q9 55 -17 89t-79 34q-54 0 -94 -34.5t-49 -88.5z" />
    <glyph glyph-name="Uhungarumlaut" unicode="&#x170;" horiz-adv-x="1363" 
d="M1212 514q-46 -270 -180.5 -405.5t-394.5 -135.5q-276 0 -403.5 163t-79.5 437l157 889h152l-160 -899q-38 -214 53.5 -338.5t284.5 -124.5q190 0 287.5 106t134.5 318l166 938h151zM643 1597l217 207h168l-280 -207h-105zM918 1597l217 207h170l-281 -207h-106z" />
    <glyph glyph-name="uhungarumlaut" unicode="&#x171;" horiz-adv-x="1118" 
d="M1071 1059l-186 -1059h-135l32 193q-54 -99 -147 -155t-215 -56q-184 0 -266.5 115t-44.5 325l112 637h144l-109 -615q-16 -80 -12 -139t17.5 -98t42.5 -62.5t64 -33t81 -9.5q63 0 121.5 24t111.5 73t93 133t59 194l94 533h143zM453 1194l258 268h168l-320 -268h-106z
M729 1194l256 268h168l-319 -268h-105z" />
    <glyph glyph-name="Uogonek" unicode="&#x172;" horiz-adv-x="1363" 
d="M1212 514q-43 -250 -160.5 -384.5t-340.5 -154.5q-84 -56 -130 -101.5t-51 -94.5q-8 -53 21.5 -80t99.5 -27l-16 -88q-114 0 -178.5 46t-50.5 137q10 61 50.5 109t110.5 99q-242 23 -350 182.5t-63 415.5l157 889h152l-160 -899q-38 -214 53.5 -338.5t284.5 -124.5
q190 0 287.5 106t134.5 318l166 938h151z" />
    <glyph glyph-name="uogonek" unicode="&#x173;" horiz-adv-x="1118" 
d="M1071 1059l-186 -1059h2q-98 -64 -147 -114t-62 -107q-12 -52 22 -80.5t105 -28.5l-14 -86q-115 0 -177.5 46t-48.5 137q11 69 54 121t124 112h7l32 193q-54 -99 -147 -155t-215 -56q-184 0 -266.5 115t-44.5 325l112 637h144l-109 -615q-16 -80 -12 -139t17.5 -98
t42.5 -62.5t64 -33t81 -9.5q63 0 121.5 24t111.5 73t93 133t59 194l94 533h143z" />
    <glyph glyph-name="Wcircumflex" unicode="&#x174;" horiz-adv-x="1847" 
d="M188 1462h156l74 -1079l16 -223h4l539 1302h215l59 -1077l17 -227h2l96 227l461 1077h160l-474 -1077l-172 -385h-206l-23 383l-53 926h-2l-545 -1309h-207l-29 381zM774 1577l291 231h162l209 -231h-156l-150 152l-200 -152h-156z" />
    <glyph glyph-name="wcircumflex" unicode="&#x175;" horiz-adv-x="1472" 
d="M236 0l-121 1059h145l68 -692q3 -33 8 -98.5t8 -98.5h2q58 142 84 201l307 688h181l63 -686q4 -65 16 -203h2l91 207l307 682h149l-497 -1059h-160l-70 717q-3 30 -8 91t-8 93h-2q-17 -35 -44 -100t-36 -86l-324 -715h-161zM551 1194l274 268h150l178 -268h-139l-129 190
l-195 -190h-139z" />
    <glyph glyph-name="Ycircumflex" unicode="&#x176;" horiz-adv-x="1230" 
d="M201 1462h168l276 -723h4l535 723h174l-658 -864l-104 -598h-152l105 598zM467 1577l291 231h162l208 -231h-155l-150 152l-200 -152h-156z" />
    <glyph glyph-name="ycircumflex" unicode="&#x177;" horiz-adv-x="1032" 
d="M115 1059h143l143 -653q38 -171 58 -271h2l143 271l344 653h158l-700 -1270q-56 -99 -122 -149t-167 -50h-115l21 119h98q26 0 49.5 8t37 15.5t32 30.5t24 30.5t24.5 40.5t21 37l56 98zM305 1194l275 268h149l178 -268h-139l-129 190l-195 -190h-139z" />
    <glyph glyph-name="Ydieresis" unicode="&#x178;" horiz-adv-x="1230" 
d="M201 1462h168l276 -723h4l535 723h174l-658 -864l-104 -598h-152l105 598zM565 1593l37 209h141l-34 -209h-144zM893 1593l35 209h141l-35 -209h-141z" />
    <glyph glyph-name="Zacute" unicode="&#x179;" horiz-adv-x="1241" 
d="M25 131l1060 1200h-804l24 131h981l-22 -131l-1057 -1200h870l-24 -131h-1051zM688 1593l297 209h213l-354 -209h-156z" />
    <glyph glyph-name="zacute" unicode="&#x17a;" horiz-adv-x="991" 
d="M799 940h-135h-467l20 119h780l-16 -92l-809 -848h111h563l-23 -119h-843l18 100zM543 1194l286 268h179l-359 -268h-106z" />
    <glyph glyph-name="Zdotaccent" unicode="&#x17b;" horiz-adv-x="1241" 
d="M25 131l1060 1200h-804l24 131h981l-22 -131l-1057 -1200h870l-24 -131h-1051zM725 1602l35 200h141l-35 -200h-141z" />
    <glyph glyph-name="zdotaccent" unicode="&#x17c;" horiz-adv-x="991" 
d="M799 940h-135h-467l20 119h780l-16 -92l-809 -848h111h563l-23 -119h-843l18 100zM545 1264l35 198h139l-33 -198h-141z" />
    <glyph glyph-name="Zcaron" unicode="&#x17d;" horiz-adv-x="1241" 
d="M25 131l1060 1200h-804l24 131h981l-22 -131l-1057 -1200h870l-24 -131h-1051zM496 1808h155l148 -151l202 151h156l-291 -231h-161z" />
    <glyph glyph-name="zcaron" unicode="&#x17e;" horiz-adv-x="991" 
d="M799 940h-135h-467l20 119h780l-16 -92l-809 -848h111h563l-23 -119h-843l18 100zM348 1460h139l129 -190l195 190h139l-272 -268h-152z" />
    <glyph glyph-name="florin" unicode="&#x192;" horiz-adv-x="788" 
d="M-203 -293l41 115h62q135 0 200 188l275 778h-199l39 113h201l106 303q44 123 120 190.5t208 67.5h121l-43 -119h-64q-80 0 -125.5 -34t-76.5 -125l-101 -283h205l-41 -113h-205l-284 -802q-97 -279 -351 -279h-88z" />
    <glyph glyph-name="Aringacute" unicode="&#x1fa;" horiz-adv-x="1374" 
d="M106 0h-159l796 1462h199l297 -1462h-152l-88 451h-653zM412 569h565l-150 760h-4zM686 1792q15 81 76.5 142t140.5 75l242 160h213l-320 -178q52 -27 77 -80.5t13 -118.5q-15 -92 -92 -156.5t-168 -64.5t-144 64.5t-38 156.5zM786 1790q-9 -54 18 -87.5t81 -33.5
q55 0 93.5 33.5t47.5 87.5q9 55 -17 88t-81 33q-54 0 -92.5 -33.5t-49.5 -87.5z" />
    <glyph glyph-name="aringacute" unicode="&#x1fb;" horiz-adv-x="1093" 
d="M41 270q0 55 18 100.5t44 77t72 57.5t84.5 41.5t101 29.5t102 20.5t104.5 15.5q158 23 228.5 62.5t70.5 118.5q0 83 -72.5 124t-183.5 41q-234 0 -293 -215h-143q12 60 46 118t87 107t131.5 79t169.5 30q72 0 131.5 -12t100.5 -33.5t73.5 -50.5t49.5 -62.5t27.5 -70
t9 -72.5t-6.5 -71l-88 -492q-20 -111 -20 -213h-148q0 63 17 176q-20 -35 -49.5 -66t-74.5 -62t-111 -49.5t-144 -18.5q-74 0 -133 18.5t-95.5 48.5t-61 69t-34.5 77t-10 77zM180 274q0 -76 56.5 -128t173.5 -52q164 0 264.5 103.5t140.5 285.5q20 94 27 135
q-41 -49 -114.5 -78.5t-221.5 -52.5q-61 -9 -103 -17.5t-87.5 -24.5t-73 -37.5t-45 -55.5t-17.5 -78zM459 1362q15 92 92 156.5t168 64.5h10l250 234h178l-344 -258q50 -27 74 -80t14 -117q-17 -92 -93 -156.5t-167 -64.5t-145 64.5t-37 156.5zM557 1360q-9 -54 18.5 -88.5
t81.5 -34.5t92.5 34.5t47.5 88.5q9 55 -17.5 89t-79.5 34q-54 0 -94 -34.5t-49 -88.5z" />
    <glyph glyph-name="AEacute" unicode="&#x1fc;" horiz-adv-x="2011" 
d="M-53 0l1106 1462h991l-23 -127h-716l-95 -526h674l-20 -127h-674l-100 -555h722l-20 -127h-874l81 467h-532l-350 -467h-170zM559 592h463l131 743h-31zM1442 1593l297 209h213l-355 -209h-155z" />
    <glyph glyph-name="aeacute" unicode="&#x1fd;" horiz-adv-x="1806" 
d="M385 -20q-73 0 -132 19t-97.5 49.5t-64.5 71t-37 80.5t-11 81q0 53 17 97t46 75t68 55.5t84 40.5t93.5 27.5t96 19.5t91.5 15q24 3 36 5q58 9 96 17t75 21.5t58 31t33.5 44t12.5 61.5q0 83 -61 125t-177 42q-229 0 -297 -215h-139q14 61 49 118.5t87.5 106.5t130 79
t167.5 30q85 0 151 -18.5t107 -50.5t64.5 -69t32.5 -79q144 217 393 217q98 0 172.5 -29t117 -79.5t67.5 -119.5t25.5 -148.5t-9.5 -165.5q-6 -42 -7 -46h-784q-25 -181 41 -285t217 -104q112 0 198.5 55t139.5 160h143q-156 -333 -481 -333q-157 0 -249.5 69t-119.5 197
q-159 -268 -444 -268zM184 281q0 -73 51.5 -129t157.5 -56q145 0 261.5 102t148.5 289l24 131q-42 -44 -114.5 -72t-218.5 -52q-74 -12 -125.5 -26.5t-96 -39t-66.5 -61t-22 -86.5zM952 1194l287 268h178l-358 -268h-107zM965 602h637q14 176 -43.5 267.5t-204.5 91.5
q-148 0 -248.5 -97.5t-140.5 -261.5z" />
    <glyph glyph-name="Oslashacute" unicode="&#x1fe;" horiz-adv-x="1669" 
d="M954 1487q329 0 510 -203l215 176l62 -76l-219 -178q96 -154 96 -352q0 -203 -64 -370t-175.5 -278.5t-263.5 -172t-329 -60.5q-335 0 -514 215l-215 -176l-57 76l217 178q-94 163 -94 355q0 197 63.5 361t174.5 274t263.5 170.5t329.5 60.5zM272 612q0 -128 62 -252
l1018 832q-137 168 -402 168q-307 0 -492.5 -205t-185.5 -543zM385 281q146 -181 406 -181q201 0 356 96t238 263.5t83 378.5q0 149 -63 272zM918 1593l296 209h213l-354 -209h-155z" />
    <glyph glyph-name="oslashacute" unicode="&#x1ff;" horiz-adv-x="1187" 
d="M651 1077q209 0 334 -119l139 132l58 -74l-140 -129q80 -122 80 -305q0 -264 -161 -432t-422 -168q-214 0 -338 118l-133 -125l-68 64l143 133q-80 124 -80 301q0 171 72.5 308.5t207 216.5t308.5 79zM207 477q0 -120 43 -205l635 594q-87 90 -242 90q-191 0 -313.5 -133
t-122.5 -346zM303 195q90 -93 246 -93q188 0 311 130.5t123 345.5q0 124 -45 210zM618 1194l287 268h178l-358 -268h-107z" />
    <glyph glyph-name="uni0218" unicode="&#x218;" horiz-adv-x="1232" 
d="M227 444q13 -91 55 -160t100 -108t120.5 -57.5t126.5 -18.5q68 0 128.5 17t109 50t77 88t27.5 126q0 27 -5 51t-11 43t-20.5 37.5t-25.5 31t-33.5 28t-36.5 24t-43 22.5t-44.5 21t-50 21.5t-50.5 21.5q-70 30 -120 54.5t-102 56t-86 63.5t-62 71t-41 85.5t-13 101.5
q0 91 39.5 163.5t106.5 118t152 69.5t180 24q208 0 326 -109t149 -313h-144q-48 295 -331 295q-148 0 -236 -62.5t-88 -183.5q0 -103 76.5 -168.5t249.5 -140.5q43 -18 66.5 -28t61.5 -28t60 -30.5t53.5 -31.5t49.5 -35.5t40.5 -39t35 -46t24.5 -51t17 -59.5t5 -67
q0 -112 -41.5 -195.5t-113 -130.5t-156.5 -69.5t-184 -22.5q-136 0 -251 50t-196.5 158.5t-99.5 262.5h149zM496 -428l10 61q48 11 63.5 30t20.5 56h-90l32 177h187l-29 -154q-29 -170 -194 -170z" />
    <glyph glyph-name="uni0219" unicode="&#x219;" horiz-adv-x="962" 
d="M780 764q-22 106 -87.5 149t-170.5 43q-100 0 -166.5 -40.5t-66.5 -122.5q0 -32 11.5 -57.5t26.5 -42.5t51.5 -36.5t63 -30.5t84.5 -34q81 -31 128.5 -53t97.5 -57t73 -80t23 -103q0 -71 -26.5 -127t-68.5 -90.5t-98 -57t-110 -31.5t-109 -9q-76 0 -142.5 19t-123 57
t-93.5 104t-46 153h141q17 -112 82.5 -163.5t187.5 -51.5q111 0 187 46t76 139q0 68 -52.5 106.5t-191.5 87.5q-52 19 -82.5 31.5t-72.5 33t-66.5 41.5t-48.5 50t-35 65t-11 80q0 77 34.5 136t91.5 92.5t122 50t135 16.5q165 0 266 -80t121 -233h-135zM305 -428l10 61
q48 11 63.5 30t20.5 56h-90l33 177h186l-28 -154q-29 -170 -195 -170z" />
    <glyph glyph-name="uni021A" unicode="&#x21a;" horiz-adv-x="1153" 
d="M182 1335l23 127h1071l-21 -127h-462l-236 -1335h-149l235 1335h-461zM348 -428l10 61q48 11 63.5 30t20.5 56h-90l33 177h186l-28 -154q-29 -170 -195 -170z" />
    <glyph glyph-name="uni021B" unicode="&#x21b;" horiz-adv-x="589" 
d="M266 246q-21 -129 99 -129h84l-23 -117h-78q-133 0 -187.5 68.5t-33.5 185.5l119 688h-156l21 117h155l45 254l154 63l-55 -317h202l-20 -117h-203zM106 -424l11 62q48 11 63.5 30t20.5 56h-90l32 176h187l-29 -154q-29 -170 -195 -170z" />
    <glyph glyph-name="uni0237" unicode="&#x237;" horiz-adv-x="462" 
d="M201 -168q-42 -235 -279 -235h-104l22 118h78q64 0 96.5 26t42.5 91l217 1227h142z" />
    <glyph glyph-name="circumflex" unicode="&#x2c6;" horiz-adv-x="856" 
d="M209 1194l274 268h150l178 -268h-139l-129 190l-195 -190h-139z" />
    <glyph glyph-name="caron" unicode="&#x2c7;" horiz-adv-x="768" 
d="M246 1460h139l129 -190l195 190h139l-273 -268h-151z" />
    <glyph glyph-name="breve" unicode="&#x2d8;" horiz-adv-x="780" 
d="M508 1188q-126 0 -193 75.5t-53 198.5h111q-10 -76 28.5 -126t122.5 -50q86 0 140 49t73 127h115q-29 -123 -123.5 -198.5t-220.5 -75.5z" />
    <glyph glyph-name="dotaccent" unicode="&#x2d9;" horiz-adv-x="249" 
d="M326 1264h-142l35 198h139z" />
    <glyph glyph-name="ring" unicode="&#x2da;" horiz-adv-x="604" 
d="M225 1354q15 92 92 156.5t168 64.5t144.5 -64.5t38.5 -156.5q-17 -92 -93 -156.5t-167 -64.5t-145.5 64.5t-37.5 156.5zM324 1352q-9 -54 18.5 -88.5t81.5 -34.5t92 34.5t47 88.5q9 55 -17 89t-79 34q-54 0 -94 -34.5t-49 -88.5z" />
    <glyph glyph-name="ogonek" unicode="&#x2db;" horiz-adv-x="550" 
d="M334 0q-98 -64 -147 -114t-62 -107q-12 -52 22 -80.5t105 -28.5l-14 -86q-115 0 -177.5 46t-48.5 137q11 69 54 121t124 112h144z" />
    <glyph glyph-name="tilde" unicode="&#x2dc;" horiz-adv-x="1271" 
d="M412 1255q19 93 80 150t151 57q48 0 99.5 -26.5t97.5 -53t80 -26.5q89 0 118 106h103q-22 -93 -87.5 -151t-152.5 -58q-50 0 -103.5 26.5t-100 52.5t-79.5 26q-88 0 -108 -103h-98z" />
    <glyph glyph-name="hungarumlaut" unicode="&#x2dd;" horiz-adv-x="841" 
d="M807 1462h168l-320 -268h-104zM274 1194l258 268h168l-319 -268h-107z" />
    <glyph glyph-name="gravecomb" unicode="&#x300;" 
d="M342 1462l143 -268h-104l-219 268h180z" />
    <glyph glyph-name="acutecomb" unicode="&#x301;" 
d="M719 1462h178l-358 -268h-107z" />
    <glyph glyph-name="uni0302" unicode="&#x302;" 
d="M209 1194l274 268h150l178 -268h-139l-129 190l-195 -190h-139z" />
    <glyph glyph-name="tildecomb" unicode="&#x303;" 
d="M412 1255q19 93 80 150t151 57q48 0 99.5 -26.5t97.5 -53t80 -26.5q89 0 118 106h103q-22 -93 -87.5 -151t-152.5 -58q-50 0 -103.5 26.5t-100 52.5t-79.5 26q-88 0 -108 -103h-98z" />
    <glyph glyph-name="uni0304" unicode="&#x304;" 
d="M217 1350h686l-14 -88h-688z" />
    <glyph glyph-name="uni0306" unicode="&#x306;" 
d="M508 1188q-126 0 -193 75.5t-53 198.5h111q-10 -76 28.5 -126t122.5 -50q86 0 140 49t73 127h115q-29 -123 -123.5 -198.5t-220.5 -75.5z" />
    <glyph glyph-name="uni0307" unicode="&#x307;" 
d="M326 1264h-142l35 198h139z" />
    <glyph glyph-name="uni0308" unicode="&#x308;" 
d="M295 1462h137l-35 -198h-137zM567 1264l35 198h137l-34 -198h-138z" />
    <glyph glyph-name="uni030A" unicode="&#x30a;" 
d="M225 1354q15 92 92 156.5t168 64.5t144.5 -64.5t38.5 -156.5q-17 -92 -93 -156.5t-167 -64.5t-145.5 64.5t-37.5 156.5zM324 1352q-9 -54 18.5 -88.5t81.5 -34.5t92 34.5t47 88.5q9 55 -17 89t-79 34q-54 0 -94 -34.5t-49 -88.5z" />
    <glyph glyph-name="uni030B" unicode="&#x30b;" 
d="M807 1462h168l-320 -268h-104zM274 1194l258 268h168l-319 -268h-107z" />
    <glyph glyph-name="uni030C" unicode="&#x30c;" 
d="M246 1460h139l129 -190l195 190h139l-273 -268h-151z" />
    <glyph glyph-name="uni0312" unicode="&#x312;" 
d="M403 1241h-188l27 154q15 85 66 127.5t130 42.5l-10 -62q-48 -11 -64.5 -30.5t-21.5 -55.5h92z" />
    <glyph glyph-name="uni0326" unicode="&#x326;" 
d="M-10 -104h186l-29 -154q-29 -170 -194 -170l10 61q48 11 63.5 30t20.5 56h-90z" />
    <glyph glyph-name="uni0327" unicode="&#x327;" 
d="M74 -424q-99 0 -180 41l45 82q61 -39 133 -39q59 0 103.5 20.5t51.5 59.5q6 35 -17.5 55.5t-66.5 20.5q-48 0 -118 -27l-39 70l151 141h96l-129 -125l2 -4q39 27 99 27q73 0 113.5 -38t29.5 -110q-12 -60 -57 -101t-100 -57t-117 -16z" />
    <glyph glyph-name="uni0328" unicode="&#x328;" 
d="M334 0q-98 -64 -147 -114t-62 -107q-12 -52 22 -80.5t105 -28.5l-14 -86q-115 0 -177.5 46t-48.5 137q11 69 54 121t124 112h144z" />
    <glyph glyph-name="uni0335" unicode="&#x335;" 
d="M1362 1204h-698l16 94h698z" />
    <glyph glyph-name="uni0338" unicode="&#x338;" 
d="M1200 1016l-1114 -1041l-68 64l1125 1051z" />
    <glyph glyph-name="uni0374" unicode="&#x374;" horiz-adv-x="436" 
d="M348 1462h158l-189 -309h-106z" />
    <glyph glyph-name="uni0375" unicode="&#x375;" horiz-adv-x="444" 
d="M92 -418h-158l189 309h106z" />
    <glyph glyph-name="uni037E" unicode="&#x37e;" horiz-adv-x="421" 
d="M193 950h163l-41 -239h-165zM-78 -242l187 482h159l-223 -482h-123z" />
    <glyph glyph-name="tonos" unicode="&#x384;" horiz-adv-x="532" 
d="M334 1462h158l-189 -268h-106z" />
    <glyph glyph-name="dieresistonos" unicode="&#x385;" horiz-adv-x="704" 
d="M209 1462h137l-35 -196h-137zM354 1217l127 309h158l-178 -309h-107zM631 1266l35 196h137l-35 -196h-137z" />
    <glyph glyph-name="Alphatonos" unicode="&#x386;" horiz-adv-x="1374" 
d="M106 0h-159l796 1462h199l297 -1462h-152l-88 451h-653zM238 1155l104 307h158l-154 -307h-108zM412 569h565l-150 760h-4z" />
    <glyph glyph-name="anoteleia" unicode="&#x387;" horiz-adv-x="514" 
d="M248 666q54 0 92.5 -38.5t38.5 -92.5q0 -50 -39.5 -91t-89.5 -41q-54 0 -93.5 39t-39.5 93t38.5 92.5t92.5 38.5z" />
    <glyph glyph-name="Epsilontonos" unicode="&#x388;" horiz-adv-x="1179" 
d="M1212 1462l-22 -127h-739l-93 -526h697l-23 -127h-696l-98 -555h745l-22 -127h-895l258 1462h888zM-35 1155l105 307h157l-153 -307h-109z" />
    <glyph glyph-name="Etatonos" unicode="&#x389;" horiz-adv-x="1380" 
d="M1235 1462h151l-258 -1462h-151l119 676h-762l-119 -676h-149l258 1462h149l-117 -659h762zM-33 1155l105 307h157l-153 -307h-109z" />
    <glyph glyph-name="Iotatonos" unicode="&#x38a;" horiz-adv-x="468" 
d="M324 1462h149l-258 -1462h-149zM-29 1155l105 307h157l-153 -307h-109z" />
    <glyph glyph-name="Omicrontonos" unicode="&#x38c;" horiz-adv-x="1669" 
d="M954 1487q140 0 254.5 -38t189.5 -100.5t125.5 -146t72.5 -170.5t22 -178q0 -203 -64 -370t-175.5 -278.5t-263.5 -172t-329 -60.5q-137 0 -250 38.5t-188 102t-127 148.5t-75 175t-23 184q0 197 63.5 361t174.5 274t263.5 170.5t329.5 60.5zM-14 1155l104 307h158
l-154 -307h-108zM272 612q0 -64 15.5 -130t54.5 -136t96 -123.5t148.5 -88t204.5 -34.5q201 0 356 96t238 263.5t83 378.5q0 69 -14.5 137t-51.5 139t-93.5 124.5t-149 87.5t-209.5 34q-307 0 -492.5 -205t-185.5 -543z" />
    <glyph glyph-name="Upsilontonos" unicode="&#x38e;" horiz-adv-x="1230" 
d="M201 1462h168l276 -723h4l535 723h174l-658 -864l-104 -598h-152l105 598zM-141 1155l104 307h158l-154 -307h-108z" />
    <glyph glyph-name="Omegatonos" unicode="&#x38f;" horiz-adv-x="1478" 
d="M35 0l22 127h426l29 162q-77 22 -144 73t-116 125t-69 175t-1 212q48 268 249.5 438.5t490.5 170.5q192 0 327 -79.5t191.5 -223t23.5 -328.5q-24 -137 -107 -259.5t-194 -201.5t-229 -108l-29 -156h424l-22 -127h-543l70 387q187 32 326.5 164.5t170.5 306.5
q25 142 -17 255t-147.5 178t-257.5 65q-227 0 -392 -140.5t-202 -357.5q-31 -176 58.5 -307.5t271.5 -163.5l-67 -387h-543zM12 1155l105 307h157l-153 -307h-109z" />
    <glyph glyph-name="iotadieresistonos" unicode="&#x390;" horiz-adv-x="489" 
d="M264 -4q-131 0 -172.5 63t-17.5 195l145 805h143l-143 -799q-13 -72 10 -103.5t88 -31.5q25 0 45 2l-18 -127q-54 -4 -80 -4zM35 1266l35 196h137l-35 -196h-137zM215 1217l127 309h158l-178 -309h-107zM492 1266l34 196h138l-35 -196h-137z" />
    <glyph glyph-name="Alpha" unicode="&#x391;" horiz-adv-x="1374" 
d="M106 0h-159l796 1462h199l297 -1462h-152l-88 451h-653zM412 569h565l-150 760h-4z" />
    <glyph glyph-name="Beta" unicode="&#x392;" horiz-adv-x="1269" 
d="M66 0l258 1462h460q139 0 226 -43q93 -40 142.5 -113t49.5 -161q0 -156 -90 -266t-233 -129q130 -26 197 -99.5t67 -187.5q0 -177 -105 -293t-280 -152q-80 -18 -178 -18h-514zM238 127h254q89 0 158 7.5t136 29t111 57t71 95t27 139.5q0 107 -81.5 168t-251.5 61h-326z
M360 809h234q83 0 148 8.5t124.5 30t99 57t62.5 92.5t23 133q0 205 -316 205h-282z" />
    <glyph glyph-name="Gamma" unicode="&#x393;" horiz-adv-x="1042" 
d="M66 0l258 1462h837l-22 -127h-688l-236 -1335h-149z" />
    <glyph glyph-name="uni0394" unicode="&#x394;" horiz-adv-x="1415" 
d="M-53 0l825 1462h199l309 -1462h-1333zM178 123h928l-248 1206h-6z" />
    <glyph glyph-name="Epsilon" unicode="&#x395;" horiz-adv-x="1179" 
d="M1212 1462l-22 -127h-739l-93 -526h697l-23 -127h-696l-98 -555h745l-22 -127h-895l258 1462h888z" />
    <glyph glyph-name="Zeta" unicode="&#x396;" horiz-adv-x="1241" 
d="M25 131l1060 1200h-804l24 131h981l-22 -131l-1057 -1200h870l-24 -131h-1051z" />
    <glyph glyph-name="Eta" unicode="&#x397;" horiz-adv-x="1380" 
d="M1235 1462h151l-258 -1462h-151l119 676h-762l-119 -676h-149l258 1462h149l-117 -659h762z" />
    <glyph glyph-name="Theta" unicode="&#x398;" horiz-adv-x="1669" 
d="M954 1487q140 0 254.5 -38t189.5 -100.5t125.5 -146t72.5 -170.5t22 -178q0 -203 -64 -370t-175.5 -278.5t-263.5 -172t-329 -60.5q-137 0 -250 38.5t-188 102t-127 148.5t-75 175t-23 184q0 197 63.5 361t174.5 274t263.5 170.5t329.5 60.5zM272 612q0 -64 15.5 -130
t54.5 -136t96 -123.5t148.5 -88t204.5 -34.5q201 0 356 96t238 263.5t83 378.5q0 69 -14.5 137t-51.5 139t-93.5 124.5t-149 87.5t-209.5 34q-307 0 -492.5 -205t-185.5 -543zM494 664l20 131h733l-22 -131h-731z" />
    <glyph glyph-name="Iota" unicode="&#x399;" horiz-adv-x="468" 
d="M324 1462h149l-258 -1462h-149z" />
    <glyph glyph-name="Kappa" unicode="&#x39a;" horiz-adv-x="1277" 
d="M215 0h-149l258 1462h149l-135 -770l846 770h196l-678 -614l445 -848h-172l-383 750l-291 -258z" />
    <glyph glyph-name="Lambda" unicode="&#x39b;" horiz-adv-x="1318" 
d="M-70 0l803 1462h180l289 -1462h-160l-243 1290h-4l-701 -1290h-164z" />
    <glyph glyph-name="Mu" unicode="&#x39c;" horiz-adv-x="1722" 
d="M66 0l258 1462l239 -2l236 -1288l684 1290h243l-258 -1462h-149l203 1141l24 143h-2l-688 -1284h-174l-238 1284h-2l-26 -147l-201 -1137h-149z" />
    <glyph glyph-name="Nu" unicode="&#x39d;" horiz-adv-x="1443" 
d="M324 1462h176l469 -1007q12 -27 34.5 -77t41 -89.5t34.5 -71.5q11 56 29 161t20 116l170 968h150l-258 -1462h-180l-457 993q-18 37 -56 120.5t-59 123.5q-14 -63 -53 -299l-166 -938h-153z" />
    <glyph glyph-name="Xi" unicode="&#x39e;" horiz-adv-x="1230" 
d="M-4 0l22 127h1051l-20 -127h-1053zM199 684l20 123h903l-22 -123h-901zM233 1335l21 127h1046l-22 -127h-1045z" />
    <glyph glyph-name="Omicron" unicode="&#x39f;" horiz-adv-x="1669" 
d="M954 1487q140 0 254.5 -38t189.5 -100.5t125.5 -146t72.5 -170.5t22 -178q0 -203 -64 -370t-175.5 -278.5t-263.5 -172t-329 -60.5q-137 0 -250 38.5t-188 102t-127 148.5t-75 175t-23 184q0 197 63.5 361t174.5 274t263.5 170.5t329.5 60.5zM272 612q0 -64 15.5 -130
t54.5 -136t96 -123.5t148.5 -88t204.5 -34.5q201 0 356 96t238 263.5t83 378.5q0 69 -14.5 137t-51.5 139t-93.5 124.5t-149 87.5t-209.5 34q-307 0 -492.5 -205t-185.5 -543z" />
    <glyph glyph-name="Pi" unicode="&#x3a0;" horiz-adv-x="1388" 
d="M1393 1462l-258 -1462h-150l236 1335h-770l-236 -1335h-149l258 1462h1069z" />
    <glyph glyph-name="Rho" unicode="&#x3a1;" horiz-adv-x="1187" 
d="M635 731q88 0 160.5 18.5t131 58t91.5 108.5t33 163q0 46 -15 88.5t-48 81.5t-94.5 62.5t-143.5 23.5h-297l-107 -604h289zM66 0l258 1462h456q101 0 183.5 -32t133.5 -85t78 -118t27 -135q0 -119 -45.5 -213.5t-125 -153t-181 -89t-217.5 -30.5h-309l-109 -606h-149z
" />
    <glyph glyph-name="Sigma" unicode="&#x3a3;" horiz-adv-x="1204" 
d="M813 729l-590 -602h848l-22 -127h-1039l21 117l618 622l-403 607l22 116h1039l-21 -127h-870z" />
    <glyph glyph-name="Tau" unicode="&#x3a4;" horiz-adv-x="1153" 
d="M182 1335l23 127h1071l-21 -127h-462l-236 -1335h-149l235 1335h-461z" />
    <glyph glyph-name="Upsilon" unicode="&#x3a5;" horiz-adv-x="1230" 
d="M201 1462h168l276 -723h4l535 723h174l-658 -864l-104 -598h-152l105 598z" />
    <glyph glyph-name="Phi" unicode="&#x3a6;" horiz-adv-x="1583" 
d="M616 -41l33 188q-292 12 -443 132.5t-151 330.5q0 312 214 500.5t583 200.5l35 192h151l-34 -192q291 -10 444.5 -128t153.5 -331q0 -315 -216 -504.5t-587 -200.5l-33 -188h-150zM209 633q0 -167 117 -259.5t346 -101.5l159 914q-291 -12 -456.5 -158.5t-165.5 -394.5z
M821 270q292 12 459.5 161t167.5 398q0 165 -118 256.5t-347 100.5z" />
    <glyph glyph-name="Chi" unicode="&#x3a7;" horiz-adv-x="1265" 
d="M-70 0l656 754l-371 708h176l299 -585l518 585h183l-635 -719l393 -743h-176l-320 621l-540 -621h-183z" />
    <glyph glyph-name="Psi" unicode="&#x3a8;" horiz-adv-x="1488" 
d="M588 0l61 352q-290 9 -423 158.5t-87 411.5l94 540h152l-94 -540q-36 -200 63.5 -318t317.5 -125l174 983h151l-174 -983q200 8 339 127.5t173 315.5l97 540h151l-96 -540q-43 -255 -226 -409.5t-460 -160.5l-62 -352h-151z" />
    <glyph glyph-name="uni03A9" unicode="&#x3a9;" horiz-adv-x="1478" 
d="M35 0l22 127h426l29 162q-77 22 -144 73t-116 125t-69 175t-1 212q48 268 249.5 438.5t490.5 170.5q192 0 327 -79.5t191.5 -223t23.5 -328.5q-24 -137 -107 -259.5t-194 -201.5t-229 -108l-29 -156h424l-22 -127h-543l70 387q187 32 326.5 164.5t170.5 306.5
q25 142 -17 255t-147.5 178t-257.5 65q-227 0 -392 -140.5t-202 -357.5q-31 -176 58.5 -307.5t271.5 -163.5l-67 -387h-543z" />
    <glyph glyph-name="Iotadieresis" unicode="&#x3aa;" horiz-adv-x="468" 
d="M324 1462h149l-258 -1462h-149zM186 1593l37 209h142l-35 -209h-144zM514 1593l35 209h141l-35 -209h-141z" />
    <glyph glyph-name="Upsilondieresis" unicode="&#x3ab;" horiz-adv-x="1230" 
d="M201 1462h168l276 -723h4l535 723h174l-658 -864l-104 -598h-152l105 598zM541 1593l37 209h141l-35 -209h-143zM868 1593l35 209h141l-34 -209h-142z" />
    <glyph glyph-name="alphatonos" unicode="&#x3ac;" horiz-adv-x="1280" 
d="M467 -18q-102 0 -181.5 32.5t-127.5 90.5t-72.5 132.5t-24.5 163.5q0 178 69.5 332t200.5 250t296 96q148 0 234 -59.5t112 -147.5h6l33 187h141l-143 -803q-12 -72 10.5 -102.5t87.5 -30.5q27 0 47 2l-18 -127q-29 -4 -80 -4q-115 0 -161 46.5t-38 141.5
q-138 -200 -391 -200zM209 420q0 -143 72.5 -227t212.5 -84q198 0 325 151t127 385q0 146 -77 225.5t-222 79.5q-185 0 -311.5 -152.5t-126.5 -377.5zM530 1194l138 268h157l-188 -268h-107z" />
    <glyph glyph-name="epsilontonos" unicode="&#x3ad;" horiz-adv-x="1056" 
d="M424 -18q-183 0 -287 68t-104 188q0 119 77 201.5t224 115.5v2q-178 52 -178 199q0 145 118.5 232t313.5 87q122 0 216 -37t150 -115t54 -188h-136q1 106 -76.5 162.5t-207.5 56.5q-116 0 -200.5 -53t-84.5 -145q0 -70 59.5 -112t172.5 -42h141l-23 -113h-141
q-146 0 -236 -63t-90 -164q0 -75 66.5 -119.5t187.5 -44.5q157 0 257 58t134 153h140q-54 -154 -189 -240.5t-358 -86.5zM520 1194l137 268h158l-188 -268h-107z" />
    <glyph glyph-name="etatonos" unicode="&#x3ae;" horiz-adv-x="1118" 
d="M680 -410l82 453l100 571q16 80 12 139t-17 98t-42 62.5t-64 33t-81 9.5q-64 0 -122.5 -24t-111.5 -73t-93 -132.5t-60 -194.5l-93 -532h-143l186 1059h136l-35 -191q69 105 155 157t209 52q184 0 266.5 -115t45.5 -325l-92 -522l-13 -70l-8 -45l-74 -410h-143zM627 1194
l137 268h158l-189 -268h-106z" />
    <glyph glyph-name="iotatonos" unicode="&#x3af;" horiz-adv-x="489" 
d="M264 -4q-131 0 -172.5 63t-17.5 195l145 805h143l-143 -799q-13 -72 10 -103.5t88 -31.5q25 0 45 2l-18 -127q-54 -4 -80 -4zM205 1194l137 268h158l-189 -268h-106z" />
    <glyph glyph-name="upsilondieresistonos" unicode="&#x3b0;" horiz-adv-x="1110" 
d="M473 -16q-211 0 -308.5 110t-58.5 324l115 641h144l-111 -619q-28 -152 26.5 -239.5t198.5 -87.5q143 0 230 88t114 239l111 619h143l-114 -641q-73 -434 -490 -434zM389 1266l35 196h137l-35 -196h-137zM569 1217l127 309h158l-178 -309h-107zM846 1266l35 196h137
l-35 -196h-137z" />
    <glyph glyph-name="alpha" unicode="&#x3b1;" horiz-adv-x="1280" 
d="M467 -18q-102 0 -181.5 32.5t-127.5 90.5t-72.5 132.5t-24.5 163.5q0 178 69.5 332t200.5 250t296 96q148 0 234 -59.5t112 -147.5h6l33 187h141l-143 -803q-12 -72 10.5 -102.5t87.5 -30.5q27 0 47 2l-18 -127q-29 -4 -80 -4q-115 0 -161 46.5t-38 141.5
q-138 -200 -391 -200zM209 420q0 -143 72.5 -227t212.5 -84q198 0 325 151t127 385q0 146 -77 225.5t-222 79.5q-185 0 -311.5 -152.5t-126.5 -377.5z" />
    <glyph glyph-name="beta" unicode="&#x3b2;" horiz-adv-x="1144" 
d="M207 1004q28 161 105 271.5t184 161t239 50.5q166 0 275.5 -78.5t109.5 -216.5q0 -141 -91.5 -249.5t-246.5 -149.5v-2q141 -28 214.5 -121.5t70.5 -214.5q-5 -204 -142 -339.5t-343 -135.5q-138 0 -235.5 52.5t-137.5 149.5h-2l-105 -588h-143zM262 498
q-22 -181 55 -283t248 -102q148 0 252.5 105.5t104.5 254.5q0 116 -88.5 181t-210.5 65h-97l19 119q195 6 311.5 93.5t116.5 229.5q0 93 -67 145t-177 52q-142 0 -244.5 -82t-130.5 -246z" />
    <glyph glyph-name="gamma" unicode="&#x3b3;" horiz-adv-x="1093" 
d="M379 -8q-106 414 -254 1067h143q105 -469 207 -893h4q107 170 293 498.5t225 394.5h160q-106 -164 -342 -567.5t-291 -495.5l-75 -408h-144z" />
    <glyph glyph-name="delta" unicode="&#x3b4;" horiz-adv-x="1112" 
d="M467 -16q-193 0 -303.5 107.5t-110.5 281.5q0 203 124.5 363t318.5 204v2q-195 88 -195 227q0 187 197.5 266.5t591.5 18.5l-21 -121q-120 19 -219 24t-166 -3.5t-116 -24.5t-76 -41t-39.5 -51t-12.5 -55q0 -40 25.5 -74t74.5 -62t107.5 -50t138.5 -44
q126 -37 189 -137.5t63 -234.5q0 -166 -75 -302.5t-206 -215t-290 -78.5zM199 395q0 -127 74 -205.5t204 -78.5q172 0 294 133.5t122 320.5q0 130 -75 209.5t-206 79.5q-111 0 -206 -61.5t-151 -167.5t-56 -230z" />
    <glyph glyph-name="epsilon" unicode="&#x3b5;" horiz-adv-x="1056" 
d="M424 -18q-183 0 -287 68t-104 188q0 119 77 201.5t224 115.5v2q-178 52 -178 199q0 145 118.5 232t313.5 87q122 0 216 -37t150 -115t54 -188h-136q1 106 -76.5 162.5t-207.5 56.5q-116 0 -200.5 -53t-84.5 -145q0 -70 59.5 -112t172.5 -42h141l-23 -113h-141
q-146 0 -236 -63t-90 -164q0 -75 66.5 -119.5t187.5 -44.5q157 0 257 58t134 153h140q-54 -154 -189 -240.5t-358 -86.5z" />
    <glyph glyph-name="zeta" unicode="&#x3b6;" horiz-adv-x="933" 
d="M575 -322q30 85 28 144t-58.5 98.5t-182.5 65.5q-78 17 -135 41t-104 61.5t-71 94.5t-23 132q1 91 52 197.5t107 186t188 209.5t198 188.5t233 203.5q7 7 11 10.5t10.5 9t11.5 9.5h-625l21 133h825l-19 -121q-45 -40 -120.5 -106t-123.5 -108.5t-118 -105.5t-116 -107
t-104 -103t-95 -103.5t-76.5 -97.5t-61.5 -97t-36.5 -90t-14.5 -87q0 -30 5 -55t18 -45.5t26 -35.5t38 -28.5t44.5 -22.5t55.5 -19t60.5 -16t68.5 -16q87 -21 143.5 -51t84.5 -64.5t34 -84.5t-3 -100t-32 -120h-144z" />
    <glyph glyph-name="eta" unicode="&#x3b7;" horiz-adv-x="1118" 
d="M680 -410l82 453l100 571q16 80 12 139t-17 98t-42 62.5t-64 33t-81 9.5q-64 0 -122.5 -24t-111.5 -73t-93 -132.5t-60 -194.5l-93 -532h-143l186 1059h136l-35 -191q69 105 155 157t209 52q184 0 266.5 -115t45.5 -325l-92 -522l-13 -70l-8 -45l-74 -410h-143z" />
    <glyph glyph-name="theta" unicode="&#x3b8;" horiz-adv-x="1275" 
d="M555 -16q-204 0 -324 144.5t-120 391.5q0 156 34 302.5t97 265.5t146.5 209t188 139t216.5 49q206 0 326 -145t120 -394q0 -194 -54 -371.5t-145 -307t-218 -206.5t-267 -77zM258 535q0 -197 80.5 -310.5t224.5 -113.5q166 0 305 159t195 402h-797q-8 -60 -8 -137z
M287 793h796q9 71 9 141q0 198 -81 312t-225 114q-165 0 -304 -161t-195 -406z" />
    <glyph glyph-name="iota" unicode="&#x3b9;" horiz-adv-x="489" 
d="M264 -4q-131 0 -172.5 63t-17.5 195l145 805h143l-143 -799q-13 -72 10 -103.5t88 -31.5q25 0 45 2l-18 -127q-54 -4 -80 -4z" />
    <glyph glyph-name="kappa" unicode="&#x3ba;" horiz-adv-x="1032" 
d="M174 0h-143l186 1059h143l-88 -506l637 506h191l-592 -486l401 -573h-172l-344 481l-155 -121z" />
    <glyph glyph-name="lambda" unicode="&#x3bb;" horiz-adv-x="1021" 
d="M-74 0q44 76 604 1063l-30 123q-20 82 -50 116.5t-108 34.5h-84l18 127h84q48 0 86 -8t64 -15.5t47.5 -32.5t32.5 -37.5t23.5 -52.5t16.5 -55.5t15 -68.5l6 -27q164 -704 258 -1167h-145l-189 868h-2l-495 -868h-152z" />
    <glyph glyph-name="uni03BC" unicode="&#x3bc;" horiz-adv-x="1124" 
d="M-37 -406l258 1465h144l-117 -666q-54 -291 211 -291q62 0 119.5 23.5t109 71.5t91 131.5t59.5 193.5l94 537h143l-186 -1059h-137l34 193q-53 -100 -145.5 -155.5t-210.5 -55.5q-77 0 -142 21t-100 63l-82 -472h-143z" />
    <glyph glyph-name="nu" unicode="&#x3bd;" horiz-adv-x="1009" 
d="M258 1059q17 -86 81.5 -397t96.5 -484h4q339 602 494 881h151q-99 -177 -298 -529.5t-298 -529.5h-153q-44 203 -121 576.5t-100 482.5h143z" />
    <glyph glyph-name="xi" unicode="&#x3be;" horiz-adv-x="923" 
d="M653 -322q30 82 25.5 137.5t-62 93t-190.5 68.5q-71 17 -124 33.5t-106 42.5t-86 57.5t-54 76.5t-21 100q0 119 72.5 216t190 154t261.5 74v2q-170 27 -264 94t-94 170q0 121 92.5 209t273.5 137l-321 -6l20 125h817l-10 -63l-8 -53q-344 -18 -533.5 -111t-189.5 -225
q0 -97 125 -155t364 -64l-20 -129q-286 0 -458.5 -91.5t-172.5 -240.5q0 -41 19 -74t39.5 -52t75.5 -40.5t81.5 -29.5t104.5 -28q15 -4 22 -6q161 -40 232.5 -97t72.5 -136t-34 -189h-140z" />
    <glyph glyph-name="omicron" unicode="&#x3bf;" horiz-adv-x="1187" 
d="M516 -16q-160 0 -270 71.5t-154 187.5t-24 257q15 118 62.5 222t122.5 183t183 124.5t234 45.5q119 0 213 -42t149.5 -113t79 -164t8.5 -197q-15 -119 -63 -223t-124 -182.5t-183.5 -124t-233.5 -45.5zM213 506q-27 -169 57 -282t248 -113q175 0 301 124t154 314
q30 174 -54 287.5t-249 113.5q-176 0 -302.5 -126t-154.5 -318z" />
    <glyph glyph-name="pi" unicode="&#x3c0;" horiz-adv-x="1288" 
d="M162 0l168 942h-199l21 117h1175l-20 -117h-209l-123 -682q-13 -72 10 -103.5t88 -31.5q25 0 45 2l-18 -127q-54 -4 -80 -4q-132 0 -173.5 63t-17.5 195l125 688h-481l-168 -942h-143z" />
    <glyph glyph-name="rho" unicode="&#x3c1;" horiz-adv-x="1181" 
d="M547 -16q-150 0 -237 61t-113 154l-111 -609h-137l166 951l2 -2q32 231 195.5 383.5t377.5 152.5q207 0 322.5 -125t103.5 -336q-5 -174 -81 -318.5t-205 -228t-283 -83.5zM242 432q-5 -151 70 -236t218 -85q120 0 220.5 66.5t159 181.5t61.5 255q5 152 -69.5 244
t-219.5 92q-181 0 -308 -150.5t-132 -367.5z" />
    <glyph glyph-name="uni03C2" unicode="&#x3c2;" horiz-adv-x="1134" 
d="M70 438q0 177 77 323t213 230t302 84q181 0 300.5 -93.5t137.5 -270.5h-144q-18 119 -97.5 179t-199.5 60q-119 0 -221.5 -65.5t-162.5 -177t-60 -240.5q0 -69 22.5 -122.5t67.5 -92t100.5 -65t133.5 -50.5q103 -33 165 -69.5t95.5 -90.5t32.5 -126t-33 -173h-140
q20 61 25.5 103t-1.5 78t-35 62.5t-72.5 49t-116.5 45.5q-87 28 -152.5 62.5t-121.5 84t-85.5 119t-29.5 156.5z" />
    <glyph glyph-name="sigma" unicode="&#x3c3;" horiz-adv-x="1198" 
d="M514 -16q-207 0 -330 122t-123 312q0 136 47.5 257.5t129.5 209t197 139t245 51.5h4q97 -1 549 -12l-19 -123l-258 6q82 -49 125 -135.5t43 -192.5q0 -171 -80.5 -316.5t-221 -231.5t-308.5 -86zM209 436q0 -144 83 -234.5t228 -90.5q124 0 231 69.5t169.5 187
t62.5 253.5q0 143 -81 234.5t-220 94.5h-10q-92 0 -177.5 -41.5t-148 -110.5t-100 -164t-37.5 -198z" />
    <glyph glyph-name="tau" unicode="&#x3c4;" horiz-adv-x="964" 
d="M111 938l20 121h891l-21 -121h-407l-123 -678q-11 -72 12.5 -103.5t102.5 -31.5q30 0 59 2l-20 -127q-29 -4 -93 -4q-97 0 -147.5 29.5t-60.5 87t4 141.5l121 684h-338z" />
    <glyph glyph-name="upsilon" unicode="&#x3c5;" horiz-adv-x="1110" 
d="M473 -16q-211 0 -308.5 110t-58.5 324l115 641h144l-111 -619q-28 -152 26.5 -239.5t198.5 -87.5q143 0 230 88t114 239l111 619h143l-114 -641q-73 -434 -490 -434z" />
    <glyph glyph-name="phi" unicode="&#x3c6;" horiz-adv-x="1515" 
d="M838 1462h145l-70 -387q132 -4 235.5 -39.5t169.5 -95t100 -138t34 -171.5q0 -182 -94 -328.5t-261 -230.5t-376 -88l-70 -394h-143l70 394q-251 9 -383 130t-132 310q0 136 53.5 255t147 204.5t225 136.5t281.5 55zM209 444q0 -146 100.5 -236.5t290.5 -96.5l148 837
q-151 -8 -273.5 -73t-194 -178t-71.5 -253zM743 111q243 11 403.5 151t160.5 348q0 151 -106.5 243.5t-307.5 96.5z" />
    <glyph glyph-name="chi" unicode="&#x3c7;" horiz-adv-x="1126" 
d="M-133 -410l579 748l-305 721h152l254 -594l465 594h159l-561 -719l318 -750h-152l-264 623l-481 -623h-164z" />
    <glyph glyph-name="psi" unicode="&#x3c8;" horiz-adv-x="1576" 
d="M883 1462h145l-237 -1349q209 8 347.5 122.5t172.5 309.5l92 514h143l-94 -535q-45 -250 -223 -393t-461 -147l-70 -394h-145l70 394q-271 11 -405 154.5t-91 385.5l94 535h144l-93 -514q-34 -199 63.5 -312.5t309.5 -119.5z" />
    <glyph glyph-name="omega" unicode="&#x3c9;" horiz-adv-x="1701" 
d="M420 -18q-159 0 -252.5 93.5t-93.5 264.5q0 187 68 350.5t191 269t275 123.5l-20 -133q-99 -17 -185 -109t-134 -219.5t-48 -252.5q0 -123 57.5 -191.5t159.5 -68.5q127 0 224.5 120.5t132.5 317.5l36 196h117q-9 -57 -22 -129t-17 -100q-31 -184 23.5 -294.5
t177.5 -110.5q99 0 181 68t128.5 186t46.5 260q0 129 -51.5 219t-148.5 108l20 133q104 -15 179.5 -79.5t112 -159.5t36.5 -209q0 -285 -140 -469t-360 -184q-139 0 -222 90.5t-77 230.5h-2q-51 -150 -152.5 -235.5t-240.5 -85.5z" />
    <glyph glyph-name="iotadieresis" unicode="&#x3ca;" horiz-adv-x="489" 
d="M264 -4q-131 0 -172.5 63t-17.5 195l145 805h143l-143 -799q-13 -72 10 -103.5t88 -31.5q25 0 45 2l-18 -127q-54 -4 -80 -4zM106 1264l35 198h138l-35 -198h-138zM414 1264l35 198h137l-35 -198h-137z" />
    <glyph glyph-name="upsilondieresis" unicode="&#x3cb;" horiz-adv-x="1110" 
d="M473 -16q-211 0 -308.5 110t-58.5 324l115 641h144l-111 -619q-28 -152 26.5 -239.5t198.5 -87.5q143 0 230 88t114 239l111 619h143l-114 -641q-73 -434 -490 -434zM459 1264l35 198h137l-35 -198h-137zM766 1264l35 198h137l-35 -198h-137z" />
    <glyph glyph-name="omicrontonos" unicode="&#x3cc;" horiz-adv-x="1187" 
d="M516 -16q-160 0 -270 71.5t-154 187.5t-24 257q15 118 62.5 222t122.5 183t183 124.5t234 45.5q119 0 213 -42t149.5 -113t79 -164t8.5 -197q-15 -119 -63 -223t-124 -182.5t-183.5 -124t-233.5 -45.5zM213 506q-27 -169 57 -282t248 -113q175 0 301 124t154 314
q30 174 -54 287.5t-249 113.5q-176 0 -302.5 -126t-154.5 -318zM586 1194l137 268h158l-189 -268h-106z" />
    <glyph glyph-name="upsilontonos" unicode="&#x3cd;" horiz-adv-x="1110" 
d="M473 -16q-211 0 -308.5 110t-58.5 324l115 641h144l-111 -619q-28 -152 26.5 -239.5t198.5 -87.5q143 0 230 88t114 239l111 619h143l-114 -641q-73 -434 -490 -434zM559 1194l137 268h158l-188 -268h-107z" />
    <glyph glyph-name="omegatonos" unicode="&#x3ce;" horiz-adv-x="1701" 
d="M420 -18q-159 0 -252.5 93.5t-93.5 264.5q0 187 68 350.5t191 269t275 123.5l-20 -133q-99 -17 -185 -109t-134 -219.5t-48 -252.5q0 -123 57.5 -191.5t159.5 -68.5q127 0 224.5 120.5t132.5 317.5l36 196h117q-9 -57 -22 -129t-17 -100q-31 -184 23.5 -294.5
t177.5 -110.5q99 0 181 68t128.5 186t46.5 260q0 129 -51.5 219t-148.5 108l20 133q104 -15 179.5 -79.5t112 -159.5t36.5 -209q0 -285 -140 -469t-360 -184q-139 0 -222 90.5t-77 230.5h-2q-51 -150 -152.5 -235.5t-240.5 -85.5zM858 1194l137 268h158l-188 -268h-107z" />
    <glyph glyph-name="uni03CF" unicode="&#x3cf;" horiz-adv-x="1050" 
d="M37 0l33 188h-189l21 121h190l170 969h146l-91 -516l646 516h182l-592 -473l405 -496l-22 -121h-721l-33 -188h-145zM238 309h550l-342 412l-159 -125z" />
    <glyph glyph-name="uni03D7" unicode="&#x3d7;" horiz-adv-x="1095" 
d="M186 0h-143l186 1059h144l-90 -512l647 512h182l-598 -490l283 -393l153 131l78 -106l-733 -611l-184 2l575 490l-293 391l-143 -113z" />
    <glyph glyph-name="uni0400" unicode="&#x400;" horiz-adv-x="1179" 
d="M1212 1462l-22 -127h-739l-93 -526h697l-23 -127h-696l-98 -555h745l-22 -127h-895l258 1462h888zM451 1802h213l260 -209h-156z" />
    <glyph glyph-name="uni0401" unicode="&#x401;" horiz-adv-x="1179" 
d="M1212 1462l-22 -127h-739l-93 -526h697l-23 -127h-696l-98 -555h745l-22 -127h-895l258 1462h888zM571 1593l37 209h142l-35 -209h-144zM899 1593l35 209h141l-35 -209h-141z" />
    <glyph glyph-name="uni0402" unicode="&#x402;" horiz-adv-x="1484" 
d="M958 879q230 0 337.5 -99t107.5 -276q0 -223 -146 -368.5t-376 -145.5q-124 0 -215 49l39 117q93 -39 176 -39q107 0 192 55t129.5 143t44.5 189q0 127 -81 187.5t-255 60.5q-160 0 -327 -41l-125 -711h-152l236 1335h-400l23 127h1073l-22 -127h-523l-88 -501
q200 45 352 45z" />
    <glyph glyph-name="uni0403" unicode="&#x403;" horiz-adv-x="1042" 
d="M66 0l258 1462h837l-22 -127h-688l-236 -1335h-149zM717 1593l297 209h213l-355 -209h-155z" />
    <glyph glyph-name="uni0404" unicode="&#x404;" horiz-adv-x="1605" 
d="M786 -27q-137 0 -250 38.5t-188 102t-127 148.5t-75 175t-23 184q0 197 63.5 361t174.5 274t263.5 170.5t329.5 60.5q112 0 205 -24t159 -64.5t117.5 -98.5t83 -120t52.5 -136h-146q-106 316 -475 316q-258 0 -433 -148t-226 -403h715l-21 -127h-711q-2 -23 -2 -70
q0 -64 15.5 -130t54.5 -136t96 -123.5t148.5 -88t204.5 -34.5q189 0 332.5 87.5t217.5 236.5h148q-103 -213 -281.5 -332t-421.5 -119z" />
    <glyph glyph-name="uni0405" unicode="&#x405;" horiz-adv-x="1232" 
d="M227 444q13 -91 55 -160t100 -108t120.5 -57.5t126.5 -18.5q68 0 128.5 17t109 50t77 88t27.5 126q0 27 -5 51t-11 43t-20.5 37.5t-25.5 31t-33.5 28t-36.5 24t-43 22.5t-44.5 21t-50 21.5t-50.5 21.5q-70 30 -120 54.5t-102 56t-86 63.5t-62 71t-41 85.5t-13 101.5
q0 91 39.5 163.5t106.5 118t152 69.5t180 24q208 0 326 -109t149 -313h-144q-48 295 -331 295q-148 0 -236 -62.5t-88 -183.5q0 -103 76.5 -168.5t249.5 -140.5q43 -18 66.5 -28t61.5 -28t60 -30.5t53.5 -31.5t49.5 -35.5t40.5 -39t35 -46t24.5 -51t17 -59.5t5 -67
q0 -112 -41.5 -195.5t-113 -130.5t-156.5 -69.5t-184 -22.5q-136 0 -251 50t-196.5 158.5t-99.5 262.5h149z" />
    <glyph glyph-name="uni0406" unicode="&#x406;" horiz-adv-x="468" 
d="M324 1462h149l-258 -1462h-149z" />
    <glyph glyph-name="uni0407" unicode="&#x407;" horiz-adv-x="468" 
d="M324 1462h149l-258 -1462h-149zM186 1593l37 209h142l-35 -209h-144zM514 1593l35 209h141l-35 -209h-141z" />
    <glyph glyph-name="uni0408" unicode="&#x408;" horiz-adv-x="987" 
d="M184 356q-17 -123 42.5 -189.5t176.5 -66.5q63 0 109 21t75 62t46 89.5t29 116.5l190 1073h152l-191 -1075q-18 -100 -47 -172.5t-77.5 -127.5t-121 -82.5t-170.5 -27.5q-113 0 -199 45.5t-129 133t-28 202.5l8 66h144z" />
    <glyph glyph-name="uni0409" unicode="&#x409;" horiz-adv-x="1931" 
d="M-63 -8l22 127h12q77 0 131 45q28 22 52.5 54t47 81.5t34 77.5t34.5 90q18 47 36.5 100.5t32 96t32.5 113.5t29.5 110t32.5 130.5t31 130t36 154.5t37 160h827l-107 -606h259q196 0 308.5 -112t112.5 -275q0 -220 -151 -344.5t-391 -124.5h-441l236 1335h-537
q-11 -44 -38 -157t-35.5 -148t-30 -121.5t-31 -121t-27.5 -99.5t-31 -103.5t-30 -87.5t-35 -94q-99 -249 -213 -340q-93 -71 -209 -71h-36zM1128 127h244q193 0 303.5 83.5t110.5 250.5q0 118 -76.5 194t-230.5 76h-244z" />
    <glyph glyph-name="uni040A" unicode="&#x40a;" horiz-adv-x="1908" 
d="M215 0h-149l258 1462h149l-113 -633h721l113 633h152l-113 -633h260q192 0 305 -110.5t113 -284.5q0 -199 -147.5 -316.5t-381.5 -117.5h-446l125 705h-721zM1110 127h268q183 0 285 80t102 227q0 127 -76.5 199t-224.5 72h-252z" />
    <glyph glyph-name="uni040B" unicode="&#x40b;" horiz-adv-x="1503" 
d="M307 0l236 1335h-400l23 127h1073l-22 -127h-523l-88 -499q187 43 348 43q263 0 370 -117t69 -334l-76 -428h-152l72 412q31 169 -50 254.5t-272 85.5q-160 0 -331 -41l-125 -711h-152z" />
    <glyph glyph-name="uni040C" unicode="&#x40c;" horiz-adv-x="1288" 
d="M975 0l-461 682h-178l-121 -682h-149l258 1462h149l-115 -653h168l645 653h191l-715 -708l506 -754h-178zM731 1593l297 209h213l-354 -209h-156z" />
    <glyph glyph-name="uni040D" unicode="&#x40d;" horiz-adv-x="1443" 
d="M66 0l258 1462h149l-168 -944q-8 -53 -26.5 -152.5t-24.5 -132.5q34 40 101.5 124t101.5 124l825 981h166l-258 -1462h-150l168 944q8 53 27 151t25 134q-34 -40 -101.5 -124t-101.5 -124l-826 -981h-165zM553 1802h213l260 -209h-156z" />
    <glyph glyph-name="uni040E" unicode="&#x40e;" horiz-adv-x="1226" 
d="M123 0l22 127h66q39 0 68 8t51.5 20.5t51 45t50 62t64.5 91.5l43 60l-338 1048h161l277 -891l569 891h170l-755 -1171q-79 -121 -141 -183t-123.5 -85t-151.5 -23h-84zM549 1804h110q-9 -72 34.5 -115.5t121.5 -43.5t136 43.5t73 115.5h121q-29 -114 -120.5 -182
t-217.5 -68q-128 0 -198 68t-60 182z" />
    <glyph glyph-name="uni040F" unicode="&#x40f;" horiz-adv-x="1388" 
d="M471 -326l57 326h-462l258 1462h149l-235 -1335h770l235 1335h150l-258 -1462h-465l-58 -326h-141z" />
    <glyph glyph-name="uni0410" unicode="&#x410;" horiz-adv-x="1374" 
d="M106 0h-159l796 1462h199l297 -1462h-152l-88 451h-653zM412 569h565l-150 760h-4z" />
    <glyph glyph-name="uni0411" unicode="&#x411;" horiz-adv-x="1191" 
d="M66 0l258 1462h845l-20 -127h-698l-86 -491h309q101 0 183.5 -31.5t133.5 -84.5t78 -117t27 -132q0 -118 -46 -211t-125 -150.5t-180.5 -87.5t-218.5 -30h-460zM238 127h290q88 0 160.5 18t131 57t91.5 106.5t33 158.5q0 44 -15.5 86t-48 80.5t-94 62t-143.5 23.5h-297
l-4 4z" />
    <glyph glyph-name="uni0412" unicode="&#x412;" horiz-adv-x="1263" 
d="M66 0l258 1462h460q139 0 226 -43q93 -40 142.5 -113t49.5 -161q0 -156 -90 -266t-233 -129q130 -26 197 -99.5t67 -187.5q0 -177 -105 -293t-280 -152q-80 -18 -178 -18h-514zM238 127h254q89 0 158 7.5t136 29t111 57t71 95t27 139.5q0 107 -81.5 168t-251.5 61h-326z
M360 809h234q83 0 148 8.5t124.5 30t99 57t62.5 92.5t23 133q0 205 -316 205h-282z" />
    <glyph glyph-name="uni0413" unicode="&#x413;" horiz-adv-x="1042" 
d="M66 0l258 1462h837l-22 -127h-688l-236 -1335h-149z" />
    <glyph glyph-name="uni0414" unicode="&#x414;" horiz-adv-x="1468" 
d="M1425 1462l-237 -1335h149l-88 -496h-143l65 369h-1077l-65 -369h-144l88 496h133q130 178 220 393q18 44 36 94t31.5 89.5t32 107.5t28 103t31 123.5t29.5 123t34.5 148t35.5 153.5h841zM266 127h772l213 1208h-553q-61 -256 -84.5 -349.5t-64 -233t-80.5 -238.5
q-90 -221 -203 -387z" />
    <glyph glyph-name="uni0415" unicode="&#x415;" horiz-adv-x="1179" 
d="M1212 1462l-22 -127h-739l-93 -526h697l-23 -127h-696l-98 -555h745l-22 -127h-895l258 1462h888z" />
    <glyph glyph-name="uni0416" unicode="&#x416;" horiz-adv-x="1865" 
d="M1565 0l-391 682h-138l-121 -682h-151l121 682h-127l-631 -682h-184l704 760l-391 702h172l348 -653h131l115 653h152l-115 -653h119l579 653h187l-644 -706l435 -756h-170z" />
    <glyph glyph-name="uni0417" unicode="&#x417;" horiz-adv-x="1286" 
d="M258 1081q48 178 184.5 288t360.5 110q190 0 303 -94t113 -234q0 -252 -308 -367q118 -27 187 -108.5t69 -204.5q0 -224 -163.5 -360t-434.5 -136q-256 0 -377.5 119.5t-107.5 323.5h147q-6 -87 19 -150t75 -98.5t111.5 -51.5t136.5 -16q199 0 322 102t123 269
q0 66 -26.5 113.5t-72.5 74t-100.5 38.5t-118.5 12h-213l21 127h203q153 0 253.5 89.5t100.5 225.5q0 98 -70 149.5t-200 51.5q-302 0 -387 -273h-150z" />
    <glyph glyph-name="uni0418" unicode="&#x418;" horiz-adv-x="1443" 
d="M66 0l258 1462h149l-168 -944q-8 -53 -26.5 -152.5t-24.5 -132.5q34 40 101.5 124t101.5 124l825 981h166l-258 -1462h-150l168 944q8 53 27 151t25 134q-34 -40 -101.5 -124t-101.5 -124l-826 -981h-165z" />
    <glyph glyph-name="uni0419" unicode="&#x419;" horiz-adv-x="1443" 
d="M66 0l258 1462h149l-168 -944q-8 -53 -26.5 -152.5t-24.5 -132.5q34 40 101.5 124t101.5 124l825 981h166l-258 -1462h-150l168 944q8 53 27 151t25 134q-34 -40 -101.5 -124t-101.5 -124l-826 -981h-165zM651 1804h111q-9 -72 34.5 -115.5t121.5 -43.5t135.5 43.5
t72.5 115.5h121q-29 -114 -120.5 -182t-217.5 -68q-128 0 -198 68t-60 182z" />
    <glyph glyph-name="uni041A" unicode="&#x41a;" horiz-adv-x="1288" 
d="M975 0l-461 682h-178l-121 -682h-149l258 1462h149l-115 -653h168l645 653h191l-715 -708l506 -754h-178z" />
    <glyph glyph-name="uni041B" unicode="&#x41b;" horiz-adv-x="1396" 
d="M-63 -8l22 127h12q71 0 127 49q55 43 94.5 118t77.5 183q63 167 118.5 380t146.5 613h868l-258 -1464h-152l236 1337h-576q-90 -379 -142 -571.5t-114 -360.5q-94 -249 -209 -340q-93 -71 -227 -71h-24z" />
    <glyph glyph-name="uni041C" unicode="&#x41c;" horiz-adv-x="1722" 
d="M66 0l258 1462l239 -2l236 -1288l684 1290h243l-258 -1462h-149l203 1141l24 143h-2l-688 -1284h-174l-238 1284h-2l-26 -147l-201 -1137h-149z" />
    <glyph glyph-name="uni041D" unicode="&#x41d;" horiz-adv-x="1380" 
d="M1235 1462h151l-258 -1462h-151l119 676h-762l-119 -676h-149l258 1462h149l-117 -659h762z" />
    <glyph glyph-name="uni041E" unicode="&#x41e;" horiz-adv-x="1669" 
d="M954 1487q140 0 254.5 -38t189.5 -100.5t125.5 -146t72.5 -170.5t22 -178q0 -203 -64 -370t-175.5 -278.5t-263.5 -172t-329 -60.5q-137 0 -250 38.5t-188 102t-127 148.5t-75 175t-23 184q0 197 63.5 361t174.5 274t263.5 170.5t329.5 60.5zM272 612q0 -64 15.5 -130
t54.5 -136t96 -123.5t148.5 -88t204.5 -34.5q201 0 356 96t238 263.5t83 378.5q0 69 -14.5 137t-51.5 139t-93.5 124.5t-149 87.5t-209.5 34q-307 0 -492.5 -205t-185.5 -543z" />
    <glyph glyph-name="uni041F" unicode="&#x41f;" horiz-adv-x="1388" 
d="M1393 1462l-258 -1462h-150l236 1335h-770l-236 -1335h-149l258 1462h1069z" />
    <glyph glyph-name="uni0420" unicode="&#x420;" horiz-adv-x="1187" 
d="M635 731q88 0 160.5 18.5t131 58t91.5 108.5t33 163q0 46 -15 88.5t-48 81.5t-94.5 62.5t-143.5 23.5h-297l-107 -604h289zM66 0l258 1462h456q101 0 183.5 -32t133.5 -85t78 -118t27 -135q0 -119 -45.5 -213.5t-125 -153t-181 -89t-217.5 -30.5h-309l-109 -606h-149z
" />
    <glyph glyph-name="uni0421" unicode="&#x421;" horiz-adv-x="1593" 
d="M786 -27q-137 0 -250 38.5t-188 102t-127 148.5t-75 175t-23 184q0 197 63.5 361t174.5 274t263.5 170.5t329.5 60.5q112 0 205 -24t159 -64.5t117.5 -98.5t83 -120t52.5 -136h-146q-106 316 -475 316q-307 0 -492.5 -205t-185.5 -543q0 -64 15.5 -130t54.5 -136
t96 -123.5t148.5 -88t204.5 -34.5q189 0 332.5 87.5t217.5 236.5h148q-103 -213 -281.5 -332t-421.5 -119z" />
    <glyph glyph-name="uni0422" unicode="&#x422;" horiz-adv-x="1153" 
d="M182 1335l23 127h1071l-21 -127h-462l-236 -1335h-149l235 1335h-461z" />
    <glyph glyph-name="uni0423" unicode="&#x423;" horiz-adv-x="1226" 
d="M123 0l22 127h66q39 0 68 8t51.5 20.5t51 45t50 62t64.5 91.5l43 60l-338 1048h161l277 -891l569 891h170l-755 -1171q-79 -121 -141 -183t-123.5 -85t-151.5 -23h-84z" />
    <glyph glyph-name="uni0424" unicode="&#x424;" horiz-adv-x="1619" 
d="M641 0l29 158q-252 12 -411 150.5t-159 361.5q0 197 96 352t273.5 245t411.5 99l28 158h152l-29 -160q257 -14 413.5 -152.5t156.5 -359.5q0 -199 -98 -354t-275 -243t-408 -97l-28 -158h-152zM252 674q0 -171 113.5 -276t324.5 -117l170 964q-265 -14 -436.5 -174
t-171.5 -397zM842 281q177 9 315.5 84.5t214.5 201t76 279.5q0 177 -115 281.5t-321 115.5z" />
    <glyph glyph-name="uni0425" unicode="&#x425;" horiz-adv-x="1265" 
d="M-70 0l656 754l-371 708h176l299 -585l518 585h183l-635 -719l393 -743h-176l-320 621l-540 -621h-183z" />
    <glyph glyph-name="uni0426" unicode="&#x426;" horiz-adv-x="1441" 
d="M68 0l258 1462h149l-235 -1335h770l235 1335h150l-236 -1335h150l-23 -127l-65 -367h-144l66 367h-1075z" />
    <glyph glyph-name="uni0427" unicode="&#x427;" horiz-adv-x="1261" 
d="M618 569q-264 0 -370 117t-68 334l78 442h152l-74 -426q-62 -340 321 -340q166 0 332 43l127 723h152l-258 -1462h-152l109 612q-187 -43 -349 -43z" />
    <glyph glyph-name="uni0428" unicode="&#x428;" horiz-adv-x="1966" 
d="M66 0l258 1462h149l-235 -1335h598l235 1335h152l-236 -1335h598l236 1335h151l-258 -1462h-1648z" />
    <glyph glyph-name="uni0429" unicode="&#x429;" horiz-adv-x="2019" 
d="M66 0l258 1462h149l-235 -1335h598l235 1335h152l-236 -1335h598l236 1335h151l-235 -1335h149l-22 -127l-66 -367h-143l65 367h-1654z" />
    <glyph glyph-name="uni042A" unicode="&#x42a;" horiz-adv-x="1345" 
d="M182 1335l23 127h559l-109 -606h277q102 0 184 -32t133 -85t78 -118.5t27 -135.5q0 -120 -44 -214t-120.5 -152.5t-176.5 -88.5t-216 -30h-443l236 1335h-408zM526 127h260q88 0 160.5 18.5t131 58t91.5 108t33 161.5q0 37 -9 71.5t-31 69t-55 60t-85.5 41.5t-118.5 16
h-270z" />
    <glyph glyph-name="uni042B" unicode="&#x42b;" horiz-adv-x="1546" 
d="M66 0l258 1462h149l-106 -606h276q102 0 184 -32t133 -85t78 -118.5t27 -135.5q0 -119 -45.5 -213.5t-125 -152.5t-181 -88.5t-217.5 -30.5h-430zM238 127h260q88 0 160.5 18.5t131 58t91 108t32.5 161.5q0 47 -15 89.5t-48 82t-94.5 63t-143.5 23.5h-266l-2 2zM1143 0
l258 1462h151l-258 -1462h-151z" />
    <glyph glyph-name="uni042C" unicode="&#x42c;" horiz-adv-x="1087" 
d="M66 0l258 1462h149l-106 -606h307q102 0 184 -32t133 -85t78 -118.5t27 -135.5q0 -120 -44 -214t-120.5 -152.5t-176.5 -88.5t-216 -30h-473zM238 127h290q88 0 160.5 18.5t131 58t91.5 108t33 161.5q0 47 -15 89.5t-48 82t-94.5 63t-143.5 23.5h-297l-2 2z" />
    <glyph glyph-name="uni042D" unicode="&#x42d;" horiz-adv-x="1574" 
d="M217 418q32 -140 155 -227t314 -87q137 0 254.5 44.5t202 123t140.5 183.5t77 227h-725l20 127h715v10q0 158 -54 277.5t-168.5 190.5t-277.5 71q-354 0 -536 -311h-152q104 201 285.5 318.5t423.5 117.5q191 0 335 -85.5t220 -235.5t76 -343q0 -173 -57.5 -325.5
t-163.5 -267.5t-268 -182t-359 -67q-250 0 -403 121.5t-197 319.5h143z" />
    <glyph glyph-name="uni042E" unicode="&#x42e;" horiz-adv-x="2000" 
d="M217 0h-151l258 1462h149l-115 -653h179q53 314 267 496t515 182q112 0 207 -26.5t162.5 -73t119 -107.5t82 -133t45.5 -145t15 -148q0 -203 -61 -370t-168.5 -278.5t-253.5 -172t-316 -60.5q-129 0 -236 38.5t-178.5 102t-121 148.5t-71.5 175t-22 184q0 41 2 61h-188z
M674 612q0 -64 14.5 -130t50.5 -136t88.5 -123.5t137.5 -88t190 -34.5q191 0 338.5 96t227 263.5t79.5 378.5q0 69 -13.5 137t-48.5 139t-88 124.5t-139.5 87.5t-195.5 34q-290 0 -465.5 -205t-175.5 -543z" />
    <glyph glyph-name="uni042F" unicode="&#x42f;" horiz-adv-x="1298" 
d="M1044 0h-151l111 623h-304q-69 0 -122 -18t-94 -57t-69.5 -81.5t-64.5 -110.5q-25 -47 -62.5 -121.5t-68 -131t-61.5 -103.5h-170l2 14q82 111 182 316q79 166 144.5 243.5t164.5 100.5q-115 31 -182.5 112t-67.5 207q0 216 150.5 342.5t421.5 126.5h500zM383 1018
q0 -125 73 -196.5t214 -71.5h356l104 585h-335q-197 0 -304.5 -83t-107.5 -234z" />
    <glyph glyph-name="uni0430" unicode="&#x430;" horiz-adv-x="1093" 
d="M41 270q0 55 18 100.5t44 77t72 57.5t84.5 41.5t101 29.5t102 20.5t104.5 15.5q158 23 228.5 62.5t70.5 118.5q0 83 -72.5 124t-183.5 41q-234 0 -293 -215h-143q12 60 46 118t87 107t131.5 79t169.5 30q72 0 131.5 -12t100.5 -33.5t73.5 -50.5t49.5 -62.5t27.5 -70
t9 -72.5t-6.5 -71l-88 -492q-20 -111 -20 -213h-148q0 63 17 176q-20 -35 -49.5 -66t-74.5 -62t-111 -49.5t-144 -18.5q-74 0 -133 18.5t-95.5 48.5t-61 69t-34.5 77t-10 77zM180 274q0 -76 56.5 -128t173.5 -52q164 0 264.5 103.5t140.5 285.5q20 94 27 135
q-41 -49 -114.5 -78.5t-221.5 -52.5q-61 -9 -103 -17.5t-87.5 -24.5t-73 -37.5t-45 -55.5t-17.5 -78z" />
    <glyph glyph-name="uni0431" unicode="&#x431;" horiz-adv-x="1165" 
d="M539 -16q-210 0 -335.5 133t-125.5 340q0 235 96 464t250 341q115 83 300.5 128t451.5 76l-27 -135q-89 -12 -125 -17t-117.5 -17.5t-126.5 -24t-106.5 -29.5t-105.5 -40.5t-79 -49.5q-141 -115 -208 -350q149 213 405 213q89 0 167.5 -37t131.5 -98t83 -140.5t30 -162.5
q0 -265 -155.5 -429.5t-403.5 -164.5zM221 428q0 -140 86 -233t228 -93q184 0 302.5 130.5t118.5 336.5q0 140 -86.5 233t-228.5 93q-183 0 -301.5 -130.5t-118.5 -336.5z" />
    <glyph glyph-name="uni0432" unicode="&#x432;" horiz-adv-x="1044" 
d="M47 0l186 1059h420q141 0 221 -70.5t80 -175.5q0 -89 -51 -156.5t-139 -107.5q81 -24 126.5 -86t45.5 -139q0 -145 -114 -234.5t-292 -89.5h-483zM209 104h332q106 0 179 64t73 156q0 72 -52 114.5t-135 42.5h-332zM293 586h274q103 0 174.5 63.5t71.5 155.5
q0 68 -50 108.5t-130 40.5h-275z" />
    <glyph glyph-name="uni0433" unicode="&#x433;" horiz-adv-x="829" 
d="M907 1059l-22 -119h-531l-166 -940h-143l188 1059h674z" />
    <glyph glyph-name="uni0434" unicode="&#x434;" horiz-adv-x="1220" 
d="M1139 1059l-166 -940h135l-80 -445h-131l57 326h-874l-57 -326h-132l78 445h29q76 0 135 53q48 41 84 124t72 214q53 196 135 549h715zM238 119h591l146 821h-438q-54 -226 -78 -315q-74 -282 -121 -373q-49 -93 -100 -133z" />
    <glyph glyph-name="uni0435" unicode="&#x435;" horiz-adv-x="1150" 
d="M516 -18q-111 0 -198.5 37t-142.5 102.5t-83.5 152t-28.5 189.5q0 272 159 443t415 171q87 0 159.5 -26.5t122.5 -71t85 -104.5t52 -126t19 -137q0 -97 -4 -127h-866q-2 -185 79 -285t242 -100q266 0 357 209h145q-131 -327 -512 -327zM221 604h721q-4 164 -89.5 259
t-225.5 95q-160 0 -266.5 -95t-139.5 -259z" />
    <glyph glyph-name="uni0436" unicode="&#x436;" horiz-adv-x="1417" 
d="M-66 0l494 545l-301 514h156l266 -457h102l80 457h143l-79 -457h86l424 457h176l-482 -516l299 -543h-163l-263 483h-98l-86 -483h-143l86 483h-84l-438 -483h-175z" />
    <glyph glyph-name="uni0437" unicode="&#x437;" horiz-adv-x="972" 
d="M414 -18q-184 0 -277 82.5t-92 246.5h133q-6 -107 62.5 -158t191.5 -51q135 0 213 65t78 169q0 81 -62.5 116t-160.5 35h-156l23 119h159q96 0 164 63.5t68 151.5q0 66 -51 100.5t-142 34.5q-207 0 -266 -178h-139q41 137 147.5 218t280.5 81q146 0 229.5 -66t83.5 -173
q0 -95 -55.5 -170.5t-147.5 -112.5q77 -24 122.5 -82t45.5 -141q0 -158 -124 -254t-328 -96z" />
    <glyph glyph-name="uni0438" unicode="&#x438;" horiz-adv-x="1157" 
d="M47 0l186 1059h144l-150 -844l721 844h162l-186 -1059h-144l148 844l-719 -844h-162z" />
    <glyph glyph-name="uni0439" unicode="&#x439;" horiz-adv-x="1157" 
d="M47 0l186 1059h144l-150 -844l721 844h162l-186 -1059h-144l148 844l-719 -844h-162zM444 1444h113q-9 -72 33.5 -116t120.5 -44q80 0 138 44t71 116h120q-28 -115 -119.5 -183.5t-218.5 -68.5t-197 69t-61 183z" />
    <glyph glyph-name="uni043A" unicode="&#x43a;" horiz-adv-x="980" 
d="M190 0h-143l186 1059h144l-80 -459h111l462 459h177l-521 -514l338 -545h-164l-303 481h-123z" />
    <glyph glyph-name="uni043B" unicode="&#x43b;" horiz-adv-x="1122" 
d="M1077 1059l-186 -1059h-143l163 940h-432q-62 -274 -73 -315q-2 -9 -15 -58t-18 -67t-19 -65.5t-22.5 -71.5t-23.5 -65.5t-28.5 -67t-30.5 -57t-36 -54.5t-39 -41q-96 -86 -231 -86h-37l20 119h21q67 0 125 51q85 73 161 350q49 186 129 547h715z" />
    <glyph glyph-name="uni043C" unicode="&#x43c;" horiz-adv-x="1415" 
d="M45 0l188 1059h183l223 -873h4l533 873h194l-188 -1059h-144l148 831h-2l-512 -831h-117l-217 831h-2l-148 -831h-143z" />
    <glyph glyph-name="uni043D" unicode="&#x43d;" horiz-adv-x="1134" 
d="M377 1059l-82 -465h567l82 465h146l-189 -1059h-145l84 475h-568l-84 -475h-143l188 1059h144z" />
    <glyph glyph-name="uni043E" unicode="&#x43e;" horiz-adv-x="1187" 
d="M651 1077q119 0 210.5 -38.5t147.5 -106.5t84.5 -156.5t28.5 -193.5q0 -264 -161 -432t-422 -168q-231 0 -353.5 135t-122.5 356q0 171 72.5 308.5t207 216.5t308.5 79zM207 477q0 -174 90 -274.5t252 -100.5q188 0 311 130.5t123 345.5q0 173 -87 275.5t-253 102.5
q-191 0 -313.5 -133t-122.5 -346z" />
    <glyph glyph-name="uni043F" unicode="&#x43f;" horiz-adv-x="1134" 
d="M1090 1059l-189 -1059h-145l168 940h-568l-168 -940h-143l188 1059h857z" />
    <glyph glyph-name="uni0440" unicode="&#x440;" horiz-adv-x="1214" 
d="M-25 -403l258 1462h144l-31 -178q132 196 381 196q93 0 167.5 -29t121.5 -76t78 -110t44 -126.5t13 -129.5q0 -277 -156 -450.5t-397 -173.5q-144 0 -237.5 69.5t-131.5 179.5l-110 -634h-144zM266 451q0 -156 79 -252.5t235 -96.5q126 0 224.5 69.5t150 183.5t51.5 251
q0 152 -77.5 251t-232.5 99q-97 0 -180.5 -46.5t-136.5 -120.5t-83 -162.5t-30 -175.5z" />
    <glyph glyph-name="uni0441" unicode="&#x441;" horiz-adv-x="1153" 
d="M1042 311q-66 -165 -189.5 -247t-320.5 -82q-111 0 -202 38.5t-148.5 103.5t-89 148t-31.5 174q0 147 45.5 267t125 199t186.5 122t231 43q93 0 168.5 -26t125 -71.5t81 -101t45.5 -122.5h-139q-28 92 -99 146t-184 54q-92 0 -171.5 -33t-140 -94.5t-95.5 -158
t-35 -215.5q0 -146 92.5 -249.5t239.5 -103.5q136 0 221.5 50.5t138.5 158.5h145z" />
    <glyph glyph-name="uni0442" unicode="&#x442;" horiz-adv-x="933" 
d="M1004 1059l-23 -119h-369l-168 -940h-143l168 940h-371l23 119h883z" />
    <glyph glyph-name="uni0443" unicode="&#x443;" horiz-adv-x="1032" 
d="M115 1059h143l143 -653q38 -171 58 -271h2l143 271l344 653h158l-700 -1270q-56 -99 -122 -149t-167 -50h-115l21 119h98q26 0 49.5 8t37 15.5t32 30.5t24 30.5t24.5 40.5t21 37l56 98z" />
    <glyph glyph-name="uni0444" unicode="&#x444;" horiz-adv-x="1429" 
d="M475 -410l68 381q-218 24 -349 155.5t-131 344.5q0 174 85.5 313t240 219t352.5 84l66 375h143l-65 -375q219 -24 350 -155.5t131 -345.5q0 -264 -188.5 -436.5t-491.5 -178.5l-68 -381h-143zM207 487q0 -162 95.5 -267t262.5 -128l154 875q-112 -2 -207.5 -40
t-162.5 -101.5t-104.5 -151.5t-37.5 -187zM707 92q230 6 373 140t143 335q0 164 -97.5 271t-263.5 129z" />
    <glyph glyph-name="uni0445" unicode="&#x445;" horiz-adv-x="1052" 
d="M-57 0l503 549l-296 510h165l232 -406l375 406h174l-484 -514l310 -545h-164l-242 442l-399 -442h-174z" />
    <glyph glyph-name="uni0446" unicode="&#x446;" horiz-adv-x="1173" 
d="M45 0l188 1059h146l-168 -940h567l168 940h144l-168 -940h141l-74 -416h-131l53 297h-866z" />
    <glyph glyph-name="uni0447" unicode="&#x447;" horiz-adv-x="1013" 
d="M457 379q-214 0 -299.5 101t-51.5 300l50 279h143l-49 -281q-27 -145 31 -210.5t223 -65.5q116 0 227 20l94 537h144l-187 -1059h-143l70 401q-132 -22 -252 -22z" />
    <glyph glyph-name="uni0448" unicode="&#x448;" horiz-adv-x="1640" 
d="M45 0l21 119l167 940h144l-168 -940h467l168 940h143l-168 -940h467l168 940h143l-188 -1059h-1364z" />
    <glyph glyph-name="uni0449" unicode="&#x449;" horiz-adv-x="1681" 
d="M45 0l21 119l167 940h144l-168 -940h467l168 940h143l-168 -940h467l168 940h143l-167 -940h139l-74 -416h-131l53 297h-1372z" />
    <glyph glyph-name="uni044A" unicode="&#x44a;" horiz-adv-x="1177" 
d="M88 940l21 119h514l-68 -383h193q152 0 251 -92t99 -222q0 -166 -131 -264t-332 -98h-342l166 940h-371zM457 119h184q139 0 225 65.5t86 177.5q0 88 -64.5 141.5t-168.5 53.5h-184z" />
    <glyph glyph-name="uni044B" unicode="&#x44b;" horiz-adv-x="1323" 
d="M946 0l189 1059h143l-188 -1059h-144zM47 0l186 1059h144l-68 -383h191q152 0 252 -92t100 -222q0 -166 -132 -264t-331 -98h-342zM211 119h182q140 0 226 65.5t86 177.5q0 88 -65 141.5t-169 53.5h-182z" />
    <glyph glyph-name="uni044C" unicode="&#x44c;" horiz-adv-x="972" 
d="M47 0l186 1059h144l-68 -383h232q152 0 252 -92t100 -222q0 -166 -132 -264t-331 -98h-383zM211 119h223q140 0 225.5 65t85.5 178q0 88 -64.5 141.5t-168.5 53.5h-223z" />
    <glyph glyph-name="uni044D" unicode="&#x44d;" horiz-adv-x="1118" 
d="M360 477l21 115h537v24q0 151 -84.5 248t-231.5 97q-119 0 -206 -56t-136 -147h-145q65 147 196.5 233t309.5 86q196 0 318 -126.5t122 -315.5q0 -137 -42.5 -257t-118 -207.5t-185 -138t-238.5 -50.5q-195 0 -308 85t-132 242h137q19 -101 98 -155t213 -54
q148 0 263.5 105.5t152.5 271.5h-541z" />
    <glyph glyph-name="uni044E" unicode="&#x44e;" horiz-adv-x="1525" 
d="M377 1059l-82 -465h160q38 227 187 355t370 128q111 0 198.5 -39t140.5 -105t81 -149t28 -176q0 -291 -155.5 -458.5t-411.5 -167.5q-111 0 -198.5 39t-141 105t-81.5 149t-28 176v24h-170l-84 -475h-143l186 1059h144zM586 465q0 -158 83 -260.5t230 -102.5
q186 0 303 131t117 361q0 158 -83 260t-230 102q-186 0 -303 -131t-117 -360z" />
    <glyph glyph-name="uni044F" unicode="&#x44f;" horiz-adv-x="1058" 
d="M-8 4q49 68 131 229q52 105 102.5 162t122.5 84q-81 30 -128.5 98t-47.5 148q0 155 122.5 244.5t321.5 89.5h398l-187 -1059h-143l76 438h-203q-72 0 -121 -22.5t-79 -60t-68 -107.5q-10 -19 -38.5 -77t-51 -98.5t-45.5 -72.5h-162v4zM315 725q0 -80 67.5 -128t172.5 -48
h223l72 399h-227q-138 0 -223 -60t-85 -163z" />
    <glyph glyph-name="uni0450" unicode="&#x450;" horiz-adv-x="1150" 
d="M516 -18q-111 0 -198.5 37t-142.5 102.5t-83.5 152t-28.5 189.5q0 272 159 443t415 171q87 0 159.5 -26.5t122.5 -71t85 -104.5t52 -126t19 -137q0 -97 -4 -127h-866q-2 -185 79 -285t242 -100q266 0 357 209h145q-131 -327 -512 -327zM221 604h721q-4 164 -89.5 259
t-225.5 95q-160 0 -266.5 -95t-139.5 -259zM440 1462h181l143 -268h-105z" />
    <glyph glyph-name="uni0451" unicode="&#x451;" horiz-adv-x="1150" 
d="M516 -18q-111 0 -198.5 37t-142.5 102.5t-83.5 152t-28.5 189.5q0 272 159 443t415 171q87 0 159.5 -26.5t122.5 -71t85 -104.5t52 -126t19 -137q0 -97 -4 -127h-866q-2 -185 79 -285t242 -100q266 0 357 209h145q-131 -327 -512 -327zM221 604h721q-4 164 -89.5 259
t-225.5 95q-160 0 -266.5 -95t-139.5 -259zM444 1264l35 198h137l-34 -198h-138zM752 1264l34 198h138l-35 -198h-137z" />
    <glyph glyph-name="uni0452" unicode="&#x452;" horiz-adv-x="1126" 
d="M489 -403l21 120h72q66 0 98.5 34t46.5 108l133 755q16 80 12 139t-17 98t-42 62.5t-64 33t-81 9.5q-64 0 -122.5 -24t-111.5 -73t-93 -132.5t-60 -194.5l-93 -532h-143l213 1204h-145l16 94h145l29 164h143l-30 -164h411l-16 -94h-412l-18 -100q-18 -106 -47 -236
q64 103 151.5 156t210.5 53q184 0 266.5 -115t45.5 -325l-138 -776q-24 -136 -91 -200t-206 -64h-84z" />
    <glyph glyph-name="uni0453" unicode="&#x453;" horiz-adv-x="829" 
d="M907 1059l-22 -119h-531l-166 -940h-143l188 1059h674zM545 1194l286 268h179l-359 -268h-106z" />
    <glyph glyph-name="uni0454" unicode="&#x454;" horiz-adv-x="1153" 
d="M741 477h-536v-22q0 -146 92.5 -249.5t239.5 -103.5q136 0 221.5 50.5t138.5 158.5h145q-66 -165 -189.5 -247t-320.5 -82q-111 0 -202 38.5t-148.5 103.5t-89 148t-31.5 174q0 147 45.5 267t125 199t186.5 122t231 43q93 0 168.5 -26t125 -71.5t81 -101t45.5 -122.5
h-139q-28 92 -99 146t-184 54q-159 0 -276.5 -95t-153.5 -269h543z" />
    <glyph glyph-name="uni0455" unicode="&#x455;" horiz-adv-x="962" 
d="M780 764q-22 106 -87.5 149t-170.5 43q-100 0 -166.5 -40.5t-66.5 -122.5q0 -32 11.5 -57.5t26.5 -42.5t51.5 -36.5t63 -30.5t84.5 -34q81 -31 128.5 -53t97.5 -57t73 -80t23 -103q0 -71 -26.5 -127t-68.5 -90.5t-98 -57t-110 -31.5t-109 -9q-76 0 -142.5 19t-123 57
t-93.5 104t-46 153h141q17 -112 82.5 -163.5t187.5 -51.5q111 0 187 46t76 139q0 68 -52.5 106.5t-191.5 87.5q-52 19 -82.5 31.5t-72.5 33t-66.5 41.5t-48.5 50t-35 65t-11 80q0 77 34.5 136t91.5 92.5t122 50t135 16.5q165 0 266 -80t121 -233h-135z" />
    <glyph glyph-name="uni0456" unicode="&#x456;" horiz-adv-x="432" 
d="M420 1257h-152l37 205h152zM53 0l187 1059h143l-186 -1059h-144z" />
    <glyph glyph-name="uni0457" unicode="&#x457;" horiz-adv-x="421" 
d="M47 0l186 1059h144l-187 -1059h-143zM113 1264l34 198h138l-35 -198h-137zM420 1264l35 198h137l-35 -198h-137z" />
    <glyph glyph-name="uni0458" unicode="&#x458;" horiz-adv-x="462" 
d="M451 1257h-152l37 205h151zM-184 -403l22 118h78q64 0 96.5 26t42.5 91l217 1227h142l-215 -1227q-42 -235 -279 -235h-104z" />
    <glyph glyph-name="uni0459" unicode="&#x459;" horiz-adv-x="1628" 
d="M1057 1059l-68 -383h207q154 0 253 -92t99 -222q0 -166 -131 -264t-332 -98h-358l166 942l-2 -2h-412q-62 -274 -73 -315q-2 -9 -15 -58t-18 -67t-19 -65.5t-22.5 -71.5t-23.5 -65.5t-28.5 -67t-30.5 -57t-36 -54.5t-39 -41q-96 -86 -231 -86h-37l20 119h21q67 0 125 51
q85 73 161 350q49 186 129 547h695zM891 119h201q139 0 224 65.5t85 177.5q0 88 -65 141.5t-169 53.5h-198z" />
    <glyph glyph-name="uni045A" unicode="&#x45a;" horiz-adv-x="1644" 
d="M377 1059l-76 -430h549l76 430h143l-76 -430h248q148 0 235 -80.5t87 -198.5q0 -163 -117.5 -256.5t-308.5 -93.5h-398l90 510h-548l-91 -510h-143l186 1059h144zM903 119h232q130 0 207 61.5t77 169.5q0 73 -57 116.5t-158 43.5h-231z" />
    <glyph glyph-name="uni045B" unicode="&#x45b;" horiz-adv-x="1116" 
d="M45 0l213 1204h-145l16 94h145l29 164h143l-30 -164h411l-16 -94h-412l-18 -100q-18 -106 -47 -236q64 103 151.5 156t210.5 53q184 0 266.5 -115t45.5 -325l-113 -637h-143l108 614q16 80 12 139t-17 98t-42 62.5t-64 33t-81 9.5q-64 0 -122.5 -24t-111.5 -73
t-93 -132.5t-60 -194.5l-93 -532h-143z" />
    <glyph glyph-name="uni045C" unicode="&#x45c;" horiz-adv-x="980" 
d="M190 0h-143l186 1059h144l-80 -459h111l462 459h177l-521 -514l338 -545h-164l-303 481h-123zM532 1194l287 268h178l-358 -268h-107z" />
    <glyph glyph-name="uni045D" unicode="&#x45d;" horiz-adv-x="1157" 
d="M47 0l186 1059h144l-150 -844l721 844h162l-186 -1059h-144l148 844l-719 -844h-162zM481 1462h181l143 -268h-105z" />
    <glyph glyph-name="uni045E" unicode="&#x45e;" horiz-adv-x="1032" 
d="M115 1059h143l143 -653q38 -171 58 -271h2l143 271l344 653h158l-700 -1270q-56 -99 -122 -149t-167 -50h-115l21 119h98q26 0 49.5 8t37 15.5t32 30.5t24 30.5t24.5 40.5t21 37l56 98zM352 1444h113q-9 -72 33 -116t120 -44q80 0 138 44t71 116h121
q-28 -115 -119.5 -183.5t-218.5 -68.5t-197 69t-61 183z" />
    <glyph glyph-name="uni045F" unicode="&#x45f;" horiz-adv-x="1134" 
d="M354 -297l54 297h-363l188 1059h146l-168 -940h567l168 940h144l-189 -1059h-362l-54 -297h-131z" />
    <glyph glyph-name="uni0490" unicode="&#x490;" horiz-adv-x="1042" 
d="M451 1335l-236 -1335h-149l258 1462h696l57 326h142l-80 -453h-688z" />
    <glyph glyph-name="uni0491" unicode="&#x491;" horiz-adv-x="849" 
d="M354 940l-166 -940h-143l188 1059h564l51 297h131l-74 -416h-551z" />
    <glyph glyph-name="uni0492" unicode="&#x492;" horiz-adv-x="1042" 
d="M31 666l18 108h154l121 688h837l-22 -127h-688l-99 -561h357l-19 -108h-358l-117 -666h-149l116 666h-151z" />
    <glyph glyph-name="uni0493" unicode="&#x493;" horiz-adv-x="845" 
d="M592 471h-322l-84 -471h-143l84 471h-121l19 98h118l88 490h674l-22 -119h-531l-65 -371h323z" />
    <glyph glyph-name="uni0496" unicode="&#x496;" horiz-adv-x="1921" 
d="M1565 0l-391 682h-138l-121 -682h-151l121 682h-127l-631 -682h-184l704 760l-391 702h172l348 -653h131l115 653h152l-115 -653h119l579 653h187l-644 -706l361 -629h145l-22 -127l-66 -367h-141l63 367h-75z" />
    <glyph glyph-name="uni0497" unicode="&#x497;" horiz-adv-x="1449" 
d="M-66 0l494 545l-301 514h156l266 -457h102l80 457h143l-79 -457h86l424 457h176l-482 -516l234 -424h131l-74 -416h-131l53 297h-77l-263 483h-98l-86 -483h-143l86 483h-84l-438 -483h-175z" />
    <glyph glyph-name="uni049A" unicode="&#x49a;" horiz-adv-x="1343" 
d="M975 0l-461 682h-178l-121 -682h-149l258 1462h149l-115 -653h168l645 653h191l-715 -708l420 -627h162l-23 -127l-65 -367h-142l64 367h-88z" />
    <glyph glyph-name="uni049B" unicode="&#x49b;" horiz-adv-x="1015" 
d="M190 0h-143l186 1059h144l-80 -459h111l462 459h177l-521 -514l265 -426h137l-74 -416h-131l53 297h-76l-303 481h-123z" />
    <glyph glyph-name="uni049C" unicode="&#x49c;" horiz-adv-x="1288" 
d="M66 0l258 1462h149l-115 -653h82l43 246h74l-43 -246h41l616 653h191l-684 -706l475 -756h-178l-430 682h-53l-50 -272h-73l49 272h-82l-121 -682h-149z" />
    <glyph glyph-name="uni049D" unicode="&#x49d;" horiz-adv-x="978" 
d="M190 0h-143l186 1059h144l-82 -465h63l37 205h70l-37 -205h29l413 465h177l-482 -531l295 -528h-166l-262 475h-24l-37 -203h-70l37 203h-64z" />
    <glyph glyph-name="uni04A2" unicode="&#x4a2;" horiz-adv-x="1433" 
d="M1235 1462h151l-235 -1335h149l-22 -127l-66 -367h-143l66 367h-158l119 676h-762l-119 -676h-149l258 1462h149l-117 -659h762z" />
    <glyph glyph-name="uni04A3" unicode="&#x4a3;" horiz-adv-x="1173" 
d="M377 1059l-82 -465h567l82 465h146l-168 -940h141l-74 -416h-131l53 297h-155l84 475h-568l-84 -475h-143l188 1059h144z" />
    <glyph glyph-name="uni04AE" unicode="&#x4ae;" horiz-adv-x="1230" 
d="M201 1462h168l276 -723h4l535 723h174l-658 -864l-104 -598h-152l105 598z" />
    <glyph glyph-name="uni04AF" unicode="&#x4af;" horiz-adv-x="1007" 
d="M266 -410l72 400q-40 185 -115.5 552.5t-107.5 516.5h147q29 -151 172 -903h2q378 698 490 903h157l-602 -1071l-71 -398h-144z" />
    <glyph glyph-name="uni04B2" unicode="&#x4b2;" horiz-adv-x="1320" 
d="M-70 0l656 754l-371 708h176l299 -585l518 585h183l-635 -719l325 -616h125l-22 -127l-66 -367h-141l63 367h-67l-320 621l-540 -621h-183z" />
    <glyph glyph-name="uni04B3" unicode="&#x4b3;" horiz-adv-x="1085" 
d="M-57 0l503 549l-296 510h165l232 -406l375 406h174l-484 -514l242 -426h145l-73 -416h-131l53 297h-90l-242 442l-399 -442h-174z" />
    <glyph glyph-name="uni04B8" unicode="&#x4b8;" horiz-adv-x="1261" 
d="M528 317l45 252q-239 10 -334 127t-59 324l78 442h152l-74 -426q-56 -311 260 -338l47 265h74l-47 -267q171 3 319 43l127 723h152l-258 -1462h-152l109 612q-176 -40 -320 -43l-45 -252h-74z" />
    <glyph glyph-name="uni04B9" unicode="&#x4b9;" horiz-adv-x="1013" 
d="M381 174l37 205q-193 10 -269 110.5t-43 290.5l50 279h143l-49 -281q-24 -130 19.5 -196t168.5 -78l35 196h70l-35 -198q114 0 223 20l94 537h144l-187 -1059h-143l70 401q-113 -19 -222 -22l-36 -205h-70z" />
    <glyph glyph-name="uni04BA" unicode="&#x4ba;" horiz-adv-x="1261" 
d="M715 893q264 0 370 -117t68 -334l-78 -442h-151l73 426q62 340 -321 340q-166 0 -332 -43l-127 -723h-151l258 1462h151l-108 -612q187 43 348 43z" />
    <glyph glyph-name="uni04BB" unicode="&#x4bb;" horiz-adv-x="1116" 
d="M45 0l258 1462h143l-65 -358q-18 -106 -47 -236q64 103 151.5 156t210.5 53q184 0 266.5 -115t45.5 -325l-113 -637h-143l108 614q16 80 12 139t-17 98t-42 62.5t-64 33t-81 9.5q-64 0 -122.5 -24t-111.5 -73t-93 -132.5t-60 -194.5l-93 -532h-143z" />
    <glyph glyph-name="uni04C0" unicode="&#x4c0;" horiz-adv-x="468" 
d="M324 1462h149l-258 -1462h-149z" />
    <glyph glyph-name="uni04CF" unicode="&#x4cf;" horiz-adv-x="419" 
d="M303 1462h143l-258 -1462h-143z" />
    <glyph glyph-name="uni04D8" unicode="&#x4d8;" horiz-adv-x="1595" 
d="M711 -25q-186 0 -323.5 79.5t-206 212t-68.5 300.5q0 126 26 236h1250q7 87 -5.5 166.5t-48 150t-91.5 121.5t-141.5 81t-191.5 30q-175 0 -313.5 -77t-222.5 -212h-158q97 192 283 304t424 112q297 0 460.5 -171t163.5 -452q0 -143 -42 -277t-119 -242.5t-180 -190
t-231 -126.5t-265 -45zM264 680q-12 -74 -5 -146t25.5 -136t57.5 -118.5t90.5 -94t124 -61.5t158.5 -22q126 0 241 50t198 133t139.5 185t78.5 210h-1108z" />
    <glyph glyph-name="uni04D9" unicode="&#x4d9;" horiz-adv-x="1150" 
d="M635 1077q111 0 198.5 -37t142.5 -102.5t83 -152t28 -189.5q0 -272 -158.5 -443t-414.5 -171q-108 0 -193 39.5t-136.5 106.5t-79 147.5t-29.5 170.5q0 97 4 127h866q2 185 -79 285t-242 100q-266 0 -357 -208h-145q131 327 512 327zM209 455q4 -164 89.5 -259.5
t225.5 -95.5q160 0 266.5 95.5t139.5 259.5h-721z" />
    <glyph glyph-name="uni04E8" unicode="&#x4e8;" horiz-adv-x="1669" 
d="M954 1487q140 0 254.5 -38t189.5 -100.5t125.5 -146t72.5 -170.5t22 -178q0 -203 -64 -370t-175.5 -278.5t-263.5 -172t-329 -60.5q-137 0 -250 38.5t-188 102t-127 148.5t-75 175t-23 184q0 197 63.5 361t174.5 274t263.5 170.5t329.5 60.5zM272 612q0 -64 15.5 -130
t54.5 -136t96 -123.5t148.5 -88t204.5 -34.5q264 0 443 161t222 423h-1182q-2 -23 -2 -72zM291 807h1177v31q0 69 -14.5 137t-51.5 139t-93.5 124.5t-149 87.5t-209.5 34q-259 0 -434 -148t-225 -405z" />
    <glyph glyph-name="uni04E9" unicode="&#x4e9;" horiz-adv-x="1187" 
d="M651 1077q119 0 210.5 -38.5t147.5 -106.5t84.5 -156.5t28.5 -193.5q0 -264 -161 -432t-422 -168q-231 0 -353.5 135t-122.5 356q0 171 72.5 308.5t207 216.5t308.5 79zM207 477q0 -174 90 -274.5t252 -100.5q164 0 280.5 101.5t145.5 273.5h-768zM217 594h766
q-5 166 -92 264t-248 98q-162 0 -278 -98.5t-148 -263.5z" />
    <glyph glyph-name="Wgrave" unicode="&#x1e80;" horiz-adv-x="1847" 
d="M188 1462h156l74 -1079l16 -223h4l539 1302h215l59 -1077l17 -227h2l96 227l461 1077h160l-474 -1077l-172 -385h-206l-23 383l-53 926h-2l-545 -1309h-207l-29 381zM752 1802h213l260 -209h-156z" />
    <glyph glyph-name="wgrave" unicode="&#x1e81;" horiz-adv-x="1472" 
d="M236 0l-121 1059h145l68 -692q3 -33 8 -98.5t8 -98.5h2q58 142 84 201l307 688h181l63 -686q4 -65 16 -203h2l91 207l307 682h149l-497 -1059h-160l-70 717q-3 30 -8 91t-8 93h-2q-17 -35 -44 -100t-36 -86l-324 -715h-161zM635 1462h180l143 -268h-104z" />
    <glyph glyph-name="Wacute" unicode="&#x1e82;" horiz-adv-x="1847" 
d="M188 1462h156l74 -1079l16 -223h4l539 1302h215l59 -1077l17 -227h2l96 227l461 1077h160l-474 -1077l-172 -385h-206l-23 383l-53 926h-2l-545 -1309h-207l-29 381zM1004 1593l296 209h213l-354 -209h-155z" />
    <glyph glyph-name="wacute" unicode="&#x1e83;" horiz-adv-x="1472" 
d="M236 0l-121 1059h145l68 -692q3 -33 8 -98.5t8 -98.5h2q58 142 84 201l307 688h181l63 -686q4 -65 16 -203h2l91 207l307 682h149l-497 -1059h-160l-70 717q-3 30 -8 91t-8 93h-2q-17 -35 -44 -100t-36 -86l-324 -715h-161zM791 1194l286 268h178l-358 -268h-106z" />
    <glyph glyph-name="Wdieresis" unicode="&#x1e84;" horiz-adv-x="1847" 
d="M188 1462h156l74 -1079l16 -223h4l539 1302h215l59 -1077l17 -227h2l96 227l461 1077h160l-474 -1077l-172 -385h-206l-23 383l-53 926h-2l-545 -1309h-207l-29 381zM872 1593l37 209h142l-35 -209h-144zM1200 1593l35 209h141l-35 -209h-141z" />
    <glyph glyph-name="wdieresis" unicode="&#x1e85;" horiz-adv-x="1472" 
d="M236 0l-121 1059h145l68 -692q3 -33 8 -98.5t8 -98.5h2q58 142 84 201l307 688h181l63 -686q4 -65 16 -203h2l91 207l307 682h149l-497 -1059h-160l-70 717q-3 30 -8 91t-8 93h-2q-17 -35 -44 -100t-36 -86l-324 -715h-161zM639 1264l35 198h137l-35 -198h-137zM946 1264
l35 198h137l-35 -198h-137z" />
    <glyph glyph-name="uni1E9E" unicode="&#x1e9e;" horiz-adv-x="1363" 
d="M242 979q27 151 113 262t207.5 166t264.5 55q142 0 272.5 -43t229.5 -110l-506 -478q203 -15 314 -122.5t98 -286.5q-7 -102 -55 -186.5t-122.5 -138.5t-168.5 -83.5t-195 -29.5q-117 0 -209 30l47 125q63 -28 166 -28q168 0 271 90t114 227q11 126 -70.5 205.5
t-264.5 79.5h-84l16 129l450 432q-116 65 -299 65q-166 0 -291.5 -104t-158.5 -289l-168 -946h-143z" />
    <glyph glyph-name="Ygrave" unicode="&#x1ef2;" horiz-adv-x="1230" 
d="M201 1462h168l276 -723h4l535 723h174l-658 -864l-104 -598h-152l105 598zM442 1802h213l260 -209h-155z" />
    <glyph glyph-name="ygrave" unicode="&#x1ef3;" horiz-adv-x="1032" 
d="M115 1059h143l143 -653q38 -171 58 -271h2l143 271l344 653h158l-700 -1270q-56 -99 -122 -149t-167 -50h-115l21 119h98q26 0 49.5 8t37 15.5t32 30.5t24 30.5t24.5 40.5t21 37l56 98zM389 1462h180l144 -268h-105z" />
    <glyph glyph-name="uni2011" unicode="&#x2011;" horiz-adv-x="952" 
d="M170 598h641l-23 -121h-641z" />
    <glyph glyph-name="endash" unicode="&#x2013;" horiz-adv-x="1363" 
d="M182 598h1041l-37 -121h-1041z" />
    <glyph glyph-name="emdash" unicode="&#x2014;" horiz-adv-x="1816" 
d="M197 598h1478l-51 -121h-1479z" />
    <glyph glyph-name="quoteleft" unicode="&#x2018;" horiz-adv-x="428" 
d="M348 981h-160l224 481h123z" />
    <glyph glyph-name="quoteright" unicode="&#x2019;" horiz-adv-x="428" 
d="M326 1462h159l-223 -481h-123z" />
    <glyph glyph-name="quotesinglbase" unicode="&#x201a;" horiz-adv-x="425" 
d="M106 227h160l-223 -481h-123z" />
    <glyph glyph-name="quotedblleft" unicode="&#x201c;" horiz-adv-x="688" 
d="M606 981h-160l224 481h123zM188 981l224 481h123l-187 -481h-160z" />
    <glyph glyph-name="quotedblright" unicode="&#x201d;" horiz-adv-x="688" 
d="M326 1462h159l-223 -481h-123zM397 981l187 481h159l-223 -481h-123z" />
    <glyph glyph-name="quotedblbase" unicode="&#x201e;" horiz-adv-x="686" 
d="M109 240h159l-223 -482h-123zM180 -242l187 482h159l-223 -482h-123z" />
    <glyph glyph-name="dagger" unicode="&#x2020;" horiz-adv-x="1103" 
d="M160 940l20 119h402l71 403h127l-71 -403h403l-20 -119h-402l-223 -1255h-129l223 1255h-401z" />
    <glyph glyph-name="daggerdbl" unicode="&#x2021;" horiz-adv-x="1103" 
d="M1092 940h-402l-131 -735h402l-21 -117h-401l-72 -403h-129l72 403h-402l21 117h403l129 735h-401l20 119h402l71 403h127l-71 -403h403z" />
    <glyph glyph-name="bullet" unicode="&#x2022;" horiz-adv-x="1085" 
d="M545 909q159 0 268 -108t109 -266q0 -159 -109.5 -270t-267.5 -111t-268.5 111.5t-110.5 269.5t110 266t269 108z" />
    <glyph glyph-name="ellipsis" unicode="&#x2026;" horiz-adv-x="1191" 
d="M63 240h164l-41 -240h-166zM420 0l43 240h164l-41 -240h-166zM819 0l43 240h164l-41 -240h-166z" />
    <glyph glyph-name="perthousand" unicode="&#x2030;" horiz-adv-x="2562" 
d="M477 4l819 1456h127l-819 -1456h-127zM195 1059q14 79 46 150t79 128t114 91t144 34q62 0 110 -22t76.5 -60.5t45.5 -90t16.5 -110t-9.5 -120.5q-14 -78 -46 -150t-79 -131t-114 -94t-144 -35q-62 0 -110 23t-76.5 62.5t-45.5 92.5t-16.5 111.5t9.5 120.5zM326 1061
q-23 -125 9 -213t118 -88q87 0 149 87.5t84 213.5q12 79 6 144t-41 106t-94 41q-86 0 -147.5 -84t-83.5 -207zM1092 399q13 78 45 149t79.5 128t114.5 91t144 34q76 0 131 -34.5t80.5 -90.5t34.5 -128.5t-7 -148.5q-13 -78 -45.5 -150t-79.5 -131t-114.5 -94.5t-143.5 -35.5
q-77 0 -132 35.5t-80.5 93t-34 131.5t7.5 151zM1223 401q-23 -125 9 -214t118 -89t148.5 88.5t84.5 214.5q22 123 -10 206t-119 83q-86 0 -147.5 -83.5t-83.5 -205.5zM1815 399q13 78 45 149t79.5 128t114.5 91t144 34q76 0 131 -34.5t80.5 -90.5t34.5 -128.5t-7 -148.5
q-14 -78 -46 -150t-79.5 -131t-115 -94.5t-144.5 -35.5q-61 0 -109 23t-76 62.5t-45 92t-16.5 112t9.5 121.5zM1944 401q-22 -126 10 -214.5t119 -88.5q86 0 147.5 88t85.5 215q22 122 -10.5 205.5t-118.5 83.5q-87 0 -148.5 -83t-84.5 -206z" />
    <glyph glyph-name="guilsinglleft" unicode="&#x2039;" horiz-adv-x="530" 
d="M78 530l319 428h131l-295 -428l146 -428h-131z" />
    <glyph glyph-name="guilsinglright" unicode="&#x203a;" horiz-adv-x="534" 
d="M455 530l-322 -428h-131l299 428l-147 428h131z" />
    <glyph glyph-name="fraction" unicode="&#x2044;" horiz-adv-x="452" 
d="M713 1460l-819 -1456h-127l819 1456h127z" />
    <glyph glyph-name="Euro" unicode="&#x20ac;" horiz-adv-x="1501" 
d="M1090 539h-641q9 -96 44.5 -176.5t96 -141.5t152 -95t204.5 -34q173 0 328 72l-17 -133q-156 -58 -313 -58q-146 0 -264.5 43t-197 119.5t-123.5 179t-54 224.5h-203l60 112h143q3 49 12 99l11 53h-191l66 110h159q46 126 124.5 233t183.5 187.5t240 126t284 45.5
q224 0 373 -100l-56 -105q-62 42 -136 63t-183 21q-120 0 -229 -36.5t-194 -101t-150 -149t-107 -184.5h784l-61 -110h-762q-12 -52 -16 -74q-10 -71 -11 -78h705z" />
    <glyph glyph-name="uni20B4" unicode="&#x20b4;" horiz-adv-x="1312" 
d="M549 -18q-69 0 -130.5 9.5t-121.5 33t-103 59.5t-69.5 93.5t-26.5 131.5q0 181 138 305h-91l17 84h196q114 60 260 99q128 39 166 53h-596l15 84h753q109 76 109 205q0 104 -78 161.5t-201 57.5q-137 0 -243.5 -71t-149.5 -208h-153q65 206 209 304t339 98
q116 0 210.5 -33t156.5 -108t62 -183q0 -128 -76 -223h92l-16 -84h-164q-113 -83 -344 -152h481l-14 -84h-719q-207 -95 -207 -284q0 -61 23.5 -106t66 -70.5t94 -37.5t113.5 -12q154 0 281 86.5t171 241.5h158q-64 -220 -227.5 -335t-380.5 -115z" />
    <glyph glyph-name="uni20BD" unicode="&#x20bd;" horiz-adv-x="1189" 
d="M66 0l59 340h-150l23 127h149l27 154h-149l22 127h152l125 714h456q102 0 184 -32t133 -85.5t78 -119.5t27 -138q0 -92 -30 -168.5t-82.5 -131t-124.5 -92.5t-155.5 -56t-176.5 -18h-307l-27 -154h375l-23 -127h-375l-59 -340h-151zM348 748h287q70 0 130 10.5
t113.5 35.5t91 62t59.5 94t22 129q0 36 -9 70t-31 68.5t-55 60t-85.5 41.5t-118.5 16h-299z" />
    <glyph glyph-name="uni2113" unicode="&#x2113;" horiz-adv-x="958" 
d="M2 422l264 176l90 496q33 186 115 284.5t240 98.5q134 0 190.5 -89.5t32.5 -228.5q-17 -90 -55 -166.5t-103 -146t-139 -128t-184 -132.5l-58 -33l-41 -231q-23 -126 2.5 -176t112.5 -50q63 0 119.5 30t120.5 87l59 -100q-156 -133 -307 -133q-159 0 -215.5 85.5
t-22.5 280.5l23 113l-193 -129zM418 700l28 23q160 103 248.5 211.5t112.5 241.5q17 89 -12 136.5t-95 47.5q-79 0 -133.5 -70t-79.5 -205z" />
    <glyph glyph-name="uni2116" unicode="&#x2116;" horiz-adv-x="2183" 
d="M66 0l258 1462h188l530 -1255l224 1255h151l-258 -1462h-188l-535 1255l-221 -1255h-149zM1475 1049q0 187 121 310.5t296 123.5q148 0 242 -97t94 -235q0 -187 -122 -310.5t-298 -123.5q-148 0 -240.5 97t-92.5 235zM1606 1049q0 -102 55 -170t156 -68q116 0 198 99
t82 241q0 102 -56 170t-157 68q-115 0 -196.5 -99t-81.5 -241z" />
    <glyph glyph-name="uni2117" unicode="&#x2117;" horiz-adv-x="1771" 
d="M924 57q-181 0 -333 89t-240.5 245t-88.5 344q0 183 88.5 337.5t240.5 243.5t333 89q133 0 255 -53t210 -142.5t140 -213.5t52 -261q0 -188 -88.5 -344t-239 -245t-329.5 -89zM137 735q0 -163 63 -309t169 -250t251 -164.5t304 -60.5q158 0 302 60.5t249.5 164.5t168 250
t62.5 309q0 160 -62.5 304.5t-167.5 247.5t-249.5 163.5t-302.5 60.5q-159 0 -304 -60.5t-251 -163.5t-169 -247.5t-63 -304.5zM727 371v731h250q120 0 191 -62.5t71 -158.5q0 -99 -74 -163.5t-190 -64.5h-129v-282h-119zM846 750h119q77 0 117 33.5t40 95.5q0 61 -41 94
t-112 33h-123v-256z" />
    <glyph glyph-name="trademark" unicode="&#x2122;" horiz-adv-x="958" 
d="M518 1401h-129v-346h-76v346h-129v61h334v-61zM580 1055v407h112l101 -315l98 315h117v-407h-76v317h-2l-96 -317h-84l-97 317h-2v-317h-71z" />
    <glyph glyph-name="uni2126" unicode="&#x2126;" horiz-adv-x="1544" 
d="M39 0l22 127h426l29 162q-77 22 -144 73t-116 125t-69 175t-1 212q48 268 249.5 438.5t490.5 170.5q192 0 327 -79.5t191.5 -223t23.5 -328.5q-24 -137 -107 -259.5t-194 -201.5t-229 -108l-29 -156h424l-22 -127h-543l70 387q187 32 326.5 164.5t170.5 306.5
q25 142 -17 255t-147.5 178t-257.5 65q-227 0 -392 -140.5t-202 -357.5q-31 -176 58.5 -307.5t271.5 -163.5l-67 -387h-543z" />
    <glyph glyph-name="estimated" unicode="&#x212e;" horiz-adv-x="1269" 
d="M104 528q0 155 71.5 284t197 204.5t278.5 75.5q152 0 273.5 -75.5t187.5 -204t66 -284.5h-803v-405q125 -88 276 -88q131 0 241 65t173 174l59 -32q-72 -127 -196.5 -202t-276.5 -75q-114 0 -216 44.5t-174.5 120t-114.5 179.5t-42 219zM375 598h553v332q-123 92 -277 92
q-151 0 -276 -88v-336z" />
    <glyph glyph-name="uni2153" unicode="&#x2153;" horiz-adv-x="1544" 
d="M383 584h-119l113 637h-209l14 84q108 0 163.5 29.5t92.5 127.5h101zM238 4l819 1456h127l-819 -1456h-127zM825 252h117l2 -19q8 -68 52.5 -108.5t123.5 -40.5q89 0 144 47t55 125q0 72 -45 115t-119 43h-63l10 96h63q74 3 128.5 41t54.5 106q0 131 -140 131
q-63 0 -102.5 -36t-56.5 -93l-2 -12h-121q24 107 98.5 173.5t181.5 66.5q122 0 190 -58.5t68 -160.5q0 -82 -48 -133.5t-118 -71.5q68 -24 102 -81.5t34 -133.5q0 -115 -85.5 -189.5t-220.5 -74.5q-133 0 -209 65t-92 178z" />
    <glyph glyph-name="uni2154" unicode="&#x2154;" horiz-adv-x="1748" 
d="M176 1190q19 125 106 202.5t210 77.5q130 0 203 -66t73 -161q0 -47 -14 -88t-32.5 -70t-55.5 -61.5t-64.5 -52t-77.5 -51.5q-28 -18 -75 -46t-74 -45.5t-60 -41.5t-55 -49t-37 -54h463l-16 -100l-602 2q11 58 33 106.5t45.5 81.5t66 69.5t75 59t93.5 60.5q18 11 57 34
t54 32.5t44 28.5t40.5 30t29.5 29t25 33.5t12.5 36t5.5 42.5q-2 61 -42 101t-118 40q-74 0 -126.5 -47t-65.5 -133h-121zM465 4l819 1456h127l-819 -1456h-127zM1032 252h117l2 -19q8 -68 52.5 -108.5t123.5 -40.5q89 0 144 47t55 125q0 72 -45 115t-119 43h-64l11 96h63
q74 3 128 41t54 106q0 131 -139 131q-63 0 -103 -36.5t-57 -92.5l-2 -12h-120q24 107 98.5 173.5t181.5 66.5q122 0 190 -58.5t68 -160.5q0 -82 -48 -133.5t-118 -71.5q68 -24 101.5 -81.5t33.5 -133.5q0 -115 -85 -189.5t-220 -74.5q-133 0 -209 65t-92 178z" />
    <glyph glyph-name="oneeighth" unicode="&#x215b;" horiz-adv-x="1597" 
d="M383 584h-119l113 637h-209l14 84q108 0 163.5 29.5t92.5 127.5h101zM258 4l819 1456h127l-819 -1456h-127zM864 229q0 94 67.5 159t147.5 81q-55 22 -83.5 68t-28.5 100q0 114 88 183t219 69q66 0 117 -19t80.5 -50t44 -66.5t14.5 -71.5q0 -82 -50.5 -139.5
t-123.5 -77.5q58 -17 97.5 -73t39.5 -118q0 -132 -95 -211t-241 -79q-143 0 -218 71.5t-75 173.5zM987 223q0 -60 48.5 -100.5t119.5 -40.5q96 0 156.5 54t60.5 147q0 57 -42.5 95t-115.5 38q-98 0 -162.5 -50.5t-64.5 -142.5zM1085 627q0 -53 37.5 -85t96.5 -32
q81 0 134.5 45t53.5 121q0 49 -36 82t-103 33q-79 0 -131 -44t-52 -120z" />
    <glyph glyph-name="threeeighths" unicode="&#x215c;" horiz-adv-x="1812" 
d="M211 1231q24 107 98.5 173t182.5 66q122 0 190 -58.5t68 -160.5q0 -82 -48 -133t-118 -71q68 -24 101.5 -82t33.5 -134q0 -115 -85 -189.5t-220 -74.5q-132 0 -208.5 65.5t-92.5 178.5l-2 25h116l2 -19q8 -67 53 -108t124 -41q89 0 143.5 47t54.5 125q0 72 -45 114.5
t-119 42.5h-63l10 97h64q74 3 128 41t54 106q0 131 -139 131q-63 0 -103 -36.5t-57 -92.5l-2 -12h-121zM485 4l820 1456h127l-820 -1456h-127zM1079 229q0 94 67.5 159t147.5 81q-55 22 -83.5 68t-28.5 100q0 114 88 183t219 69q66 0 117 -19t80.5 -50t44 -66.5t14.5 -71.5
q0 -82 -50.5 -139.5t-123.5 -77.5q58 -17 97.5 -73t39.5 -118q0 -132 -95 -211t-241 -79q-143 0 -218 71.5t-75 173.5zM1202 223q0 -60 48.5 -100.5t119.5 -40.5q96 0 156.5 54t60.5 147q0 57 -42 95t-115 38q-98 0 -163 -50.5t-65 -142.5zM1300 627q0 -53 37.5 -85
t96.5 -32q81 0 134.5 45t53.5 121q0 49 -36 82t-103 33q-79 0 -131 -44t-52 -120z" />
    <glyph glyph-name="fiveeighths" unicode="&#x215d;" horiz-adv-x="1755" 
d="M225 821q19 -72 72 -113.5t131 -41.5q85 0 144 56t59 157q0 82 -44 136t-128 54q-117 0 -191 -102l-118 16l153 479h465l-18 -100h-367l-84 -258q77 64 186 61q124 -1 194.5 -80t70.5 -206q0 -142 -87.5 -227t-234.5 -85q-73 0 -131.5 21.5t-96 59t-60 81t-31.5 92.5h116
zM469 4l819 1456h127l-819 -1456h-127zM1020 229q0 94 67.5 159t147.5 81q-55 22 -84 68t-29 100q0 114 88.5 183t219.5 69q66 0 117 -19t80.5 -50t44 -66.5t14.5 -71.5q0 -81 -51 -139t-124 -78q58 -17 98 -73t40 -118q0 -132 -95 -211t-241 -79q-143 0 -218 71.5
t-75 173.5zM1143 223q0 -60 48.5 -100.5t119.5 -40.5q96 0 156.5 54t60.5 147q0 57 -42.5 95t-115.5 38q-98 0 -162.5 -50.5t-64.5 -142.5zM1241 627q0 -53 37 -85t96 -32q81 0 135 45t54 121q0 49 -36.5 82t-103.5 33q-79 0 -130.5 -44t-51.5 -120z" />
    <glyph glyph-name="seveneighths" unicode="&#x215e;" horiz-adv-x="1652" 
d="M780 1368q-157 -135 -294 -355.5t-185 -428.5h-117q56 228 178 433.5t269 342.5h-430l16 102h578zM293 4l819 1456h127l-819 -1456h-127zM920 229q0 94 67.5 159t147.5 81q-55 22 -84 68t-29 100q0 114 88 183t219 69q66 0 117 -19t80.5 -50t44 -66.5t14.5 -71.5
q0 -82 -50.5 -139.5t-123.5 -77.5q58 -17 97.5 -73t39.5 -118q0 -132 -95 -211t-241 -79q-143 0 -217.5 71.5t-74.5 173.5zM1042 223q0 -60 48.5 -100.5t119.5 -40.5q96 0 156.5 54t60.5 147q0 57 -42 95t-115 38q-98 0 -163 -50.5t-65 -142.5zM1141 627q0 -53 37 -85
t96 -32q81 0 134.5 45t53.5 121q0 49 -36 82t-103 33q-79 0 -130.5 -44t-51.5 -120z" />
    <glyph glyph-name="arrowleft" unicode="&#x2190;" horiz-adv-x="1787" 
d="M1669 637h-1257l37 -31l497 -497l-92 -95l-684 686l686 686l90 -94l-497 -497l-35 -33l1255 2v-127z" />
    <glyph glyph-name="arrowup" unicode="&#x2191;" horiz-adv-x="1648" 
d="M186 801l684 686l689 -684l-95 -92l-506 508l-22 24v-1243h-129l2 1243l-27 -29l-501 -503z" />
    <glyph glyph-name="arrowright" unicode="&#x2192;" horiz-adv-x="1787" 
d="M180 637v127l1256 -2l-35 33l-498 497l90 94l686 -686l-684 -686l-92 95l498 497l37 31h-1258z" />
    <glyph glyph-name="arrowdown" unicode="&#x2193;" horiz-adv-x="1648" 
d="M162 662l94 90l502 -504l26 -29l-2 1243h129v-1243l23 25l506 508l94 -93l-688 -684z" />
    <glyph glyph-name="uni2196" unicode="&#x2196;" horiz-adv-x="1544" 
d="M264 1241h926v-125h-612l-99 2l877 -876l-92 -92l-873 872l2 -107v-602h-129v928z" />
    <glyph glyph-name="uni2197" unicode="&#x2197;" horiz-adv-x="1368" 
d="M1190 1241v-928h-129v602l2 107l-873 -872l-92 92l877 876l-98 -2h-613v125h926z" />
    <glyph glyph-name="uni2198" unicode="&#x2198;" horiz-adv-x="1546" 
d="M1343 174h-925v125h612l98 -2l-876 877l92 92l873 -873l-3 107v602h129v-928z" />
    <glyph glyph-name="uni2199" unicode="&#x2199;" horiz-adv-x="1368" 
d="M240 174v928h129v-602l-2 -107l872 873l92 -92l-876 -877l98 2h612v-125h-925z" />
    <glyph glyph-name="uni219E" unicode="&#x219e;" horiz-adv-x="1798" 
d="M1669 637h-618l34 -31l498 -497l-90 -95l-623 623h-458l37 -31l497 -497l-92 -95l-684 686l686 686l90 -94l-497 -497l-35 -33h454l627 624l90 -94l-500 -499l-30 -29h614v-127z" />
    <glyph glyph-name="uni219F" unicode="&#x219f;" horiz-adv-x="1761" 
d="M819 45v619l-31 -35l-497 -498l-94 90l622 623v459l-31 -37l-497 -498l-94 92l686 684l686 -686l-94 -90l-498 498l-33 34v-454l625 -627l-94 -90l-500 500l-29 30v-614h-127z" />
    <glyph glyph-name="uni21A0" unicode="&#x21a0;" horiz-adv-x="1798" 
d="M190 637v127h615l-31 29l-500 499l91 94l626 -624h455l-35 33l-498 497l91 94l686 -686l-684 -686l-93 95l498 497l37 31h-459l-622 -623l-91 95l498 497l35 31h-619z" />
    <glyph glyph-name="uni21A1" unicode="&#x21a1;" horiz-adv-x="1761" 
d="M887 1419h127v-612l28 31l500 499l94 -90l-624 -626v-457l32 35l498 497l94 -90l-686 -686l-686 684l94 92l498 -497l31 -37v461l-623 622l94 90l498 -497l31 -35v616z" />
    <glyph glyph-name="uni21A2" unicode="&#x21a2;" horiz-adv-x="1787" 
d="M1565 53l-92 -94l-525 524h-565l43 -39l393 -391l-92 -94l-586 588l586 588l92 -95l-389 -387l-47 -45h565l525 527l92 -95l-430 -428l-62 -63l62 -64z" />
    <glyph glyph-name="uni21A3" unicode="&#x21a3;" horiz-adv-x="1787" 
d="M227 53l430 432l62 64l-62 63l-430 428l92 95l525 -527h565l-47 45l-389 387l92 95l586 -588l-586 -588l-92 94l393 391l43 39h-565l-525 -524z" />
    <glyph glyph-name="uni21A4" unicode="&#x21a4;" horiz-adv-x="1796" 
d="M729 1135l90 -95l-387 -387l-47 -45h1047v520h127v-1163h-127v518h-1047l43 -39l393 -391l-92 -94l-588 588z" />
    <glyph glyph-name="uni21A5" unicode="&#x21a5;" horiz-adv-x="1605" 
d="M205 899l586 588l587 -586l-92 -92l-432 434v-1126h518v-117l-1161 2v117h518v1124l-45 -47l-387 -387z" />
    <glyph glyph-name="uni21A6" unicode="&#x21a6;" horiz-adv-x="1796" 
d="M1073 1135l588 -588l-588 -588l-92 94l393 391l43 39h-1046v-518h-127v1163h127v-520h1046l-47 45l-387 387z" />
    <glyph glyph-name="uni21A7" unicode="&#x21a7;" horiz-adv-x="1603" 
d="M297 563l92 90l387 -387l45 -47v1124h-518v117l1161 2v-116h-518v-1127l432 434l92 -92l-587 -586z" />
    <glyph glyph-name="uni21B0" unicode="&#x21b0;" horiz-adv-x="1783" 
d="M791 1503l92 -92l-295 -295l-139 -137h1101v-979h-127v854h-974l137 -133l299 -299l-92 -92l-588 588z" />
    <glyph glyph-name="uni21B1" unicode="&#x21b1;" horiz-adv-x="1634" 
d="M979 1503l586 -585l-588 -588l-92 92l299 299l137 133h-975v-854h-127v979h1102l-139 137l-295 295z" />
    <glyph glyph-name="uni21B2" unicode="&#x21b2;" horiz-adv-x="1634" 
d="M725 -41l-586 586l588 588l92 -93l-299 -299l-137 -133h975v854h127v-979h-1102l139 -137l295 -295z" />
    <glyph glyph-name="uni21B3" unicode="&#x21b3;" horiz-adv-x="1783" 
d="M1063 -41l-92 92l295 295l139 137h-1102v979h127v-854h975l-137 133l-299 299l92 93l588 -588z" />
    <glyph glyph-name="partialdiff" unicode="&#x2202;" horiz-adv-x="1179" 
d="M68 555q19 105 68 199t122.5 167.5t177 116.5t221.5 43q211 0 322 -141q-33 169 -163 322t-277 231l137 70q75 -60 131.5 -110.5t113.5 -113t94.5 -123t68.5 -136t44 -156.5t11 -179.5t-21 -209.5q-21 -115 -72.5 -214.5t-128.5 -175.5t-184.5 -119.5t-230.5 -43.5
q-168 0 -277.5 78.5t-147.5 207t-9 287.5zM213 535q-35 -193 48 -311t245 -118q168 0 299.5 124.5t167.5 324.5q20 113 -5.5 202.5t-102.5 145t-197 55.5q-176 0 -299 -117.5t-156 -305.5z" />
    <glyph glyph-name="uni2206" unicode="&#x2206;" horiz-adv-x="1460" 
d="M-18 0l835 1462h137l334 -1462h-1306zM215 125h901l-254 1139z" />
    <glyph glyph-name="product" unicode="&#x220f;" horiz-adv-x="1636" 
d="M205 1331v131h1478v-131h-231v-1630h-149v1630h-719v-1630h-150v1630h-229z" />
    <glyph glyph-name="summation" unicode="&#x2211;" horiz-adv-x="1564" 
d="M139 -299v115l586 774l-557 758v114h1102v-123h-924l553 -749l-590 -766h985v-123h-1155z" />
    <glyph glyph-name="minus" unicode="&#x2212;" horiz-adv-x="1232" 
d="M113 598h1011v-121h-1011v121z" />
    <glyph glyph-name="uni2215" unicode="&#x2215;" horiz-adv-x="452" 
d="M733 1460l-821 -1456h-121l819 1456h123z" />
    <glyph glyph-name="uni2219" unicode="&#x2219;" horiz-adv-x="419" 
d="M229 768q54 0 92.5 -38.5t38.5 -92.5q0 -50 -39.5 -90.5t-89.5 -40.5q-54 0 -93.5 38.5t-39.5 92.5t38.5 92.5t92.5 38.5z" />
    <glyph glyph-name="radical" unicode="&#x221a;" horiz-adv-x="1269" 
d="M432 1059l324 -907h10l483 1310h160l-553 -1460l-188 -2l-346 940h-207v119h317z" />
    <glyph glyph-name="infinity" unicode="&#x221e;" horiz-adv-x="1591" 
d="M106 520q0 130 80 220.5t211 90.5q56 0 110 -20t105 -59.5t86 -72.5t84 -85q9 -9 13 -14q7 7 35 37t38 40t37 36.5t42 38t41 32t46.5 29.5t46.5 20.5t52 16t53 4.5q132 0 213.5 -90t81.5 -222q0 -137 -80 -226t-213 -89q-58 0 -114 20t-107.5 57t-89.5 72.5t-82 83.5
q-107 -102 -150 -135q-125 -96 -246 -96q-132 0 -212.5 86.5t-80.5 224.5zM215 514q0 -83 50 -141t136 -58q44 0 87.5 16.5t89.5 51.5t73 59t72 68q-102 102 -149 138q-98 75 -177 75q-85 0 -133.5 -61t-48.5 -148zM864 510q2 -2 27 -26t30 -28.5t28.5 -26t31.5 -27
t30 -22.5t34 -22.5t33 -16.5t36.5 -15t35.5 -7.5t40 -3.5q85 0 133.5 58t48.5 141q0 89 -49 150t-135 61q-22 0 -46.5 -6.5t-43.5 -14.5t-45 -26t-40.5 -28t-42 -35.5t-37 -34.5t-37.5 -37.5t-32 -32.5z" />
    <glyph glyph-name="integral" unicode="&#x222b;" horiz-adv-x="755" 
d="M-43 -293l20 115h66q70 0 109.5 44t54.5 138l211 1194q23 123 89.5 193.5t197.5 70.5h114l-22 -119h-68q-81 0 -118 -31t-54 -122l-213 -1198q-50 -285 -303 -285h-84z" />
    <glyph glyph-name="approxequal" unicode="&#x2248;" horiz-adv-x="1267" 
d="M1153 811q-14 -125 -90.5 -196.5t-208.5 -71.5q-57 0 -122 22.5t-114 50t-109.5 50t-109.5 22.5q-73 0 -114 -38.5t-47 -106.5h-134q9 121 86.5 194.5t208.5 73.5q66 0 135.5 -22.5t118 -50t104 -50t97.5 -22.5q146 0 168 145h131zM104 199q9 121 86.5 194.5t208.5 73.5
q66 0 135.5 -22.5t118 -50t104 -50t97.5 -22.5q146 0 168 145h131q-14 -125 -90.5 -196.5t-208.5 -71.5q-57 0 -122 22.5t-114 50t-109.5 50t-109.5 22.5q-73 0 -114 -38.5t-47 -106.5h-134z" />
    <glyph glyph-name="notequal" unicode="&#x2260;" horiz-adv-x="1298" 
d="M395 -51l-100 51l131 256h-287v119h348l125 243h-473v119h535l178 346l98 -49l-151 -297h350v-119h-412l-125 -243h537v-119h-596z" />
    <glyph glyph-name="lessequal" unicode="&#x2264;" horiz-adv-x="1277" 
d="M106 74v114h1014v-114h-1014zM106 573v125l1014 299v-127l-848 -235l848 -232v-127z" />
    <glyph glyph-name="greaterequal" unicode="&#x2265;" horiz-adv-x="1331" 
d="M1174 74h-1014v114h1014v-114zM160 276v127l848 232l-848 235v127l1014 -299v-125z" />
    <glyph glyph-name="lozenge" unicode="&#x25ca;" horiz-adv-x="1118" 
d="M659 1462l451 -733l-451 -729h-139l-440 729l440 733h139zM242 729l348 -582l356 582l-356 586z" />
    <glyph glyph-name="fi" unicode="&#xfb01;" horiz-adv-x="1040" 
d="M332 1200q21 115 91.5 188.5t192.5 73.5h115l-22 -119h-76q-137 0 -164 -161l-23 -123h183l-21 -117h-180l-166 -942h-141l166 942h-148l21 117h147zM662 0l186 1059h143l-186 -1059h-143zM877 1257l36 205h152l-37 -205h-151z" />
    <glyph glyph-name="fl" unicode="&#xfb02;" horiz-adv-x="1028" 
d="M332 1200q21 115 91.5 188.5t192.5 73.5h115l-22 -119h-76q-137 0 -164 -161l-23 -123h183l-21 -117h-180l-166 -942h-141l166 942h-148l21 117h147zM653 0l258 1462h144l-258 -1462h-144z" />
    <glyph glyph-name="uniFEFF" unicode="&#xfeff;" horiz-adv-x="14" 
 />
    <glyph glyph-name="Adieresis.ss02" horiz-adv-x="1374" 
d="M377 1462h141l-35 -207h-143zM-53 0l796 1462h199l297 -1462h-152l-88 451h-653l-240 -451h-159zM412 569h565l-150 760h-4zM1124 1255l35 207h141l-34 -207h-142z" />
    <glyph glyph-name="i.loclTRK" horiz-adv-x="421" 
d="M47 0l186 1059h144l-187 -1059h-143zM266 1264l35 198h139l-32 -198h-142z" />
    <glyph glyph-name="uni0414.loclBGR" horiz-adv-x="1589" 
d="M1368 -369h-141l65 367h-1181l-66 -367h-141l88 494h141l731 1335l193 2l256 -1337h143zM299 125h852l-213 1184h-6z" />
    <glyph glyph-name="uni041B.loclBGR" horiz-adv-x="1318" 
d="M-70 0l799 1460l193 2l280 -1462h-164l-235 1309h-6l-701 -1309h-166z" />
    <glyph glyph-name="uni042F.ss03" horiz-adv-x="1282" 
d="M1030 0h-151l108 623h-385l-459 -623h-180l494 653q-118 45 -180 131.5t-62 208.5q0 216 150 342.5t421 126.5h502zM369 1018q0 -125 71.5 -196.5t212.5 -71.5h359l102 585h-334q-199 0 -305 -82.5t-106 -234.5z" />
    </font>
</defs>
</svg>
