<?xml version="1.0" standalone="no"?>
<!DOCTYPE svg PUBLIC "-//W3C//DTD SVG 1.1//EN" "http://www.w3.org/Graphics/SVG/1.1/DTD/svg11.dtd" >
<svg xmlns="http://www.w3.org/2000/svg" xmlns:xlink="http://www.w3.org/1999/xlink" version="1.1">
<metadata>
Created by FontForge 20170731 at Tue Jun 13 13:34:31 2023
 By Aleksey,,,
(c) 2017-2022. Copyright by TYPE.WELTKERN. All rights reserved.
</metadata>
<defs>
<font id="SLBSans-Bold" horiz-adv-x="0" >
  <font-face 
    font-family="SLB Sans"
    font-weight="700"
    font-stretch="normal"
    units-per-em="2048"
    panose-1="2 0 5 3 4 0 0 2 0 4"
    ascent="1638"
    descent="-410"
    x-height="1059"
    cap-height="1462"
    bbox="-362 -438 2642 2171"
    underline-thickness="122"
    underline-position="-695"
    unicode-range="U+000D-FEFF"
  />
<missing-glyph horiz-adv-x="1454" 
d="M-4 766h692v696h78v-696h692v-70h-692v-696h-78v696h-692v70z" />
    <glyph glyph-name="f_f" unicode="ff" horiz-adv-x="1284" 
d="M823 1059v76q0 327 305 327h121v-184h-57q-73 0 -104 -32.5t-31 -121.5v-65h180v-185h-180v-874h-234v874h-397v-874h-233v874h-148v185h148v76q0 327 305 327h120v-184h-57q-73 0 -104 -32.5t-31 -121.5v-65h397z" />
    <glyph glyph-name="f_i" unicode="fi" horiz-adv-x="1157" 
d="M193 1135q0 327 305 327h120v-184h-57q-73 0 -104 -32.5t-31 -121.5v-65h180v-185h-180v-874h-233v874h-148v185h148v76zM780 0v1059h238v-1059h-238zM782 1229v233h248v-233h-248z" />
    <glyph glyph-name="f_l" unicode="fl" horiz-adv-x="1142" 
d="M193 1135q0 327 305 327h120v-184h-57q-73 0 -104 -32.5t-31 -121.5v-65h180v-185h-180v-874h-233v874h-148v185h148v76zM780 0v1462h238v-1462h-238z" />
    <glyph glyph-name=".notdef" horiz-adv-x="1454" 
d="M-4 766h692v696h78v-696h692v-70h-692v-696h-78v696h-692v70z" />
    <glyph glyph-name=".null" horiz-adv-x="1050" 
 />
    <glyph glyph-name=".null" horiz-adv-x="1050" 
 />
    <glyph glyph-name="nonmarkingreturn" horiz-adv-x="682" 
 />
    <glyph glyph-name="CR" unicode="&#xd;" horiz-adv-x="462" 
 />
    <glyph glyph-name="space" unicode=" " horiz-adv-x="462" 
 />
    <glyph glyph-name="exclam" unicode="!" horiz-adv-x="567" 
d="M408 1010l-52 -623h-145l-51 623v452h248v-452zM156 0v262h256v-262h-256z" />
    <glyph glyph-name="quotedbl" unicode="&#x22;" horiz-adv-x="872" 
d="M129 1462h246l-17 -524h-184zM498 1462h247l-45 -524h-186z" />
    <glyph glyph-name="numbersign" unicode="#" horiz-adv-x="1214" 
d="M406 1462h172l-64 -448h268l64 448h172l-64 -448h185v-158h-205l-41 -285h184v-157h-207l-57 -414h-172l57 414h-268l-57 -414h-172l57 414h-182v157h205l41 285h-183v158h203zM453 571h268l41 285h-268z" />
    <glyph glyph-name="dollar" unicode="$" horiz-adv-x="1277" 
d="M539 1722h223v-233q179 -26 288.5 -137.5t127.5 -309.5h-250q-21 128 -88.5 189t-194.5 61q-116 0 -188 -51.5t-72 -157.5q0 -48 21.5 -85t67 -65.5t96 -48t130.5 -42.5q185 -55 252 -86q162 -73 214 -199q28 -69 28 -160q0 -95 -34.5 -172.5t-95 -128.5t-137 -82.5
t-165.5 -42.5v-235h-223v237q-200 29 -324 153.5t-137 338.5h252q9 -141 99 -217t235 -76q129 0 205.5 56t76.5 167q0 44 -15 78t-36 55.5t-63.5 42t-76.5 32t-95 30.5q-7 2 -11 3.5t-10.5 3t-11.5 3.5q-51 15 -81 24.5t-77 26.5t-76 30.5t-68 35.5t-62.5 43.5t-50 51.5
t-41 62.5t-24 74.5t-10.5 89q-1 171 112.5 276t289.5 132v233z" />
    <glyph glyph-name="percent" unicode="%" horiz-adv-x="1923" 
d="M438 799q-73 0 -115 73t-42 183q0 108 42 179t115 71q72 0 113 -70.5t41 -179.5q0 -110 -41.5 -183t-112.5 -73zM86 1053q0 -81 22.5 -155.5t65.5 -133.5t111.5 -94t152.5 -35q112 0 194 61t120.5 154t38.5 203t-39 202.5t-121 151.5t-193 59q-112 0 -193.5 -59
t-120 -151t-38.5 -203zM571 -4l564 1472h202l-563 -1472h-203zM1133 395q0 -81 23 -155.5t66 -134t111 -95t152 -35.5t152 35.5t111 95t66 134t23 155.5q0 109 -38.5 201t-120.5 151.5t-193 59.5t-193 -59.5t-120.5 -151.5t-38.5 -201zM1331 397q0 108 40.5 178t113.5 70
t113 -69.5t40 -178.5q0 -111 -40.5 -184.5t-112.5 -73.5t-113 73.5t-41 184.5z" />
    <glyph glyph-name="ampersand" unicode="&#x26;" horiz-adv-x="1380" 
d="M971 150q-42 -42 -77 -69.5t-84.5 -55t-112 -41t-138.5 -13.5q-100 0 -183 26.5t-137.5 69t-93 98t-55 111.5t-16.5 111q0 79 24.5 146t71.5 119t100.5 90.5t124.5 76.5q-46 60 -65 87t-45 73t-35.5 88t-9.5 92q0 129 99.5 221.5t260.5 92.5q157 0 266 -84t109 -230
q0 -230 -260 -381l252 -295q35 82 53 199h188q-12 -97 -43 -193.5t-71 -166.5l278 -322h-278zM303 389q0 -96 75.5 -162.5t174.5 -66.5q47 0 87.5 9t66 19.5t55.5 34t42.5 35.5t39.5 41l-320 375q-54 -31 -87 -54.5t-67.5 -58t-50.5 -77t-16 -95.5zM457 1149q0 -18 3 -34.5
t12 -36.5t14.5 -32t22 -36l22 -32t27 -36.5t26.5 -34.5q35 24 53.5 38t46.5 39.5t42.5 47t25.5 52.5t10 65q0 64 -43.5 106.5t-110.5 42.5q-63 0 -107 -39t-44 -110z" />
    <glyph glyph-name="quotesingle" unicode="'" horiz-adv-x="503" 
d="M129 1462h246l-33 -524h-180z" />
    <glyph glyph-name="parenleft" unicode="(" horiz-adv-x="632" 
d="M424 -406q-160 248 -243 476.5t-83 482.5q0 243 84.5 488.5t241.5 455.5h205q-143 -240 -216 -470.5t-73 -473.5q0 -248 73 -480.5t216 -478.5h-205z" />
    <glyph glyph-name="parenright" unicode=")" horiz-adv-x="632" 
d="M4 -406q143 246 216 478.5t73 480.5q0 243 -73 473.5t-216 470.5h205q157 -210 241.5 -455.5t84.5 -488.5q0 -254 -83 -482.5t-243 -476.5h-205z" />
    <glyph glyph-name="asterisk" unicode="*" horiz-adv-x="800" 
d="M72 1305l45 125l213 -76v221h133v-223l221 80l47 -127l-221 -78l127 -180l-109 -78l-133 190l-129 -190l-110 78l127 184z" />
    <glyph glyph-name="plus" unicode="+" horiz-adv-x="1226" 
d="M719 625h399v-191h-399v-409h-209v409h-399v191h399v409h209v-409z" />
    <glyph glyph-name="comma" unicode="," horiz-adv-x="501" 
d="M158 262h258l-164 -518h-209z" />
    <glyph glyph-name="hyphen" unicode="-" horiz-adv-x="991" 
d="M152 627h688v-189h-688v189z" />
    <glyph glyph-name="period" unicode="." horiz-adv-x="491" 
d="M119 262h256v-262h-256v262z" />
    <glyph glyph-name="slash" unicode="/" horiz-adv-x="722" 
d="M496 1585h211l-502 -1790h-213z" />
    <glyph glyph-name="zero" unicode="0" horiz-adv-x="1275" 
d="M639 168q80 0 141 49t96.5 131t53.5 179.5t18 203.5t-17.5 201t-53.5 174t-97 125.5t-141 46.5t-141 -46.5t-97 -125.5t-53.5 -174t-17.5 -201t18 -203.5t53.5 -179.5t96.5 -131t141 -49zM96 731q0 118 17 222.5t57 201.5t101 167t155 111.5t213 41.5t213 -41.5
t155 -111.5t101 -167t57 -201.5t17 -222.5t-17 -224t-57 -205.5t-101 -171.5t-155.5 -115.5t-212.5 -43.5t-212.5 43.5t-155.5 115.5t-101 171.5t-57 205.5t-17 224z" />
    <glyph glyph-name="one" unicode="1" horiz-adv-x="1275" 
d="M1176 186v-186h-1024v186h426v861h-357v157q79 0 136.5 10t110.5 37t89.5 79.5t56.5 131.5h197v-1276h365z" />
    <glyph glyph-name="two" unicode="2" horiz-adv-x="1275" 
d="M150 989q0 227 138 356.5t365 129.5q212 0 346 -118t134 -310q0 -73 -14.5 -134t-36.5 -106t-64 -91.5t-81 -80t-103 -82.5q-39 -31 -96.5 -70.5t-97.5 -68t-82.5 -63t-73 -72t-48.5 -78.5h711v-201h-1018q3 94 27.5 175t59 140t93.5 117.5t112 99t134 93.5
q49 33 69.5 46.5t59 40.5t53.5 39.5t43 35.5t38.5 36.5t28.5 35t24 39t14.5 40t11 46t2.5 50.5q0 104 -67.5 175t-184.5 71q-124 0 -193 -80t-71 -211h-233z" />
    <glyph glyph-name="three" unicode="3" horiz-adv-x="1275" 
d="M158 1065q11 186 133.5 298t329.5 112q206 0 327 -102t121 -277q0 -115 -46 -190t-134 -126q244 -94 244 -364q1 -90 -32.5 -170t-96 -141.5t-159.5 -97.5t-214 -36q-231 0 -369 112t-160 316v23h238l2 -16q12 -116 88.5 -177t196.5 -61q127 0 201.5 72.5t74.5 189.5
t-84.5 177.5t-224.5 60.5q-57 0 -80 -2v202q30 0 100 4q222 13 222 201q0 97 -58.5 151t-159.5 54q-99 0 -154.5 -49t-68.5 -133l-6 -31h-231z" />
    <glyph glyph-name="four" unicode="4" horiz-adv-x="1275" 
d="M109 354v217l632 891h234v-913h170v-195h-170v-354h-234v354h-632zM328 549h413v584h-6z" />
    <glyph glyph-name="five" unicode="5" horiz-adv-x="1275" 
d="M1047 1268h-590l-58 -381q108 94 279 94q223 0 357 -134.5t134 -367.5q0 -141 -66.5 -256.5t-187 -183.5t-270.5 -68q-223 0 -361 118.5t-161 299.5l233 2q18 -93 96 -157t191 -64q121 0 207 85.5t86 223.5t-77.5 221.5t-219.5 83.5q-165 0 -256 -145l-231 20l114 805
l781 -2v-194z" />
    <glyph glyph-name="six" unicode="6" horiz-adv-x="1275" 
d="M98 696q0 121 18 231.5t60 212.5t104 176.5t156.5 118.5t210.5 44q111 0 198.5 -28.5t145 -80t93 -117.5t51.5 -147h-234q-12 32 -21 51t-29 46t-43.5 42.5t-63 27t-89.5 11.5q-276 0 -317 -457q49 66 139 110t209 44q215 0 352.5 -141.5t137.5 -352.5
q0 -224 -150.5 -370t-384.5 -146q-122 0 -227 48.5t-178 134.5q-75 89 -106.5 221.5t-31.5 320.5zM350 475q0 -130 83 -218.5t208 -88.5q127 0 214 89t87 218q0 130 -86 219.5t-215 89.5t-210 -87.5t-81 -221.5z" />
    <glyph glyph-name="seven" unicode="7" horiz-adv-x="1275" 
d="M1118 1276q-220 -217 -376.5 -577t-176.5 -699h-233q29 380 170 708.5t338 553.5h-699v200h977v-186z" />
    <glyph glyph-name="eight" unicode="8" horiz-adv-x="1275" 
d="M641 1481q213 0 342 -105.5t129 -269.5q0 -122 -61.5 -210.5t-159.5 -121.5q111 -32 192.5 -132.5t81.5 -240.5q0 -198 -142.5 -314t-379.5 -116q-243 0 -387 116t-143 314q1 140 85 242.5t193 132.5q-104 36 -162.5 120.5t-58.5 209.5q0 164 129.5 269.5t341.5 105.5z
M342 416q0 -110 79 -185t220 -75t218 74t77 186q0 109 -77 183.5t-218 74.5t-220 -74.5t-79 -183.5zM399 1077q0 -92 65.5 -155.5t176.5 -63.5q113 0 178.5 63t65.5 156q0 92 -65.5 154.5t-178.5 62.5q-111 0 -176.5 -62.5t-65.5 -154.5z" />
    <glyph glyph-name="nine" unicode="9" horiz-adv-x="1275" 
d="M98 965q0 222 150.5 368t384.5 146q118 0 219 -41.5t172 -118.5q152 -165 152 -565q0 -128 -19 -241.5t-60.5 -213.5t-103.5 -172.5t-153.5 -114t-204.5 -41.5q-212 0 -342.5 104t-159.5 269h234q61 -178 262 -178q274 0 305 448q-46 -57 -133.5 -101t-200.5 -44
q-219 0 -360.5 140.5t-141.5 355.5zM332 977q0 -132 85.5 -221.5t215.5 -89.5q129 0 214 93.5t85 217.5q0 131 -86 218t-213 87t-214 -88t-87 -217z" />
    <glyph glyph-name="colon" unicode=":" horiz-adv-x="491" 
d="M119 967h256v-262h-256v262zM119 0v262h256v-262h-256z" />
    <glyph glyph-name="semicolon" unicode=";" horiz-adv-x="524" 
d="M158 262h258l-164 -518h-209zM145 705v262h256v-262h-256z" />
    <glyph glyph-name="less" unicode="&#x3c;" horiz-adv-x="1177" 
d="M1075 844l-719 -326l719 -325v-222l-975 455v184l975 455v-221z" />
    <glyph glyph-name="equal" unicode="=" horiz-adv-x="1265" 
d="M111 406h1046v-191h-1046v191zM111 600v191h1046v-191h-1046z" />
    <glyph glyph-name="greater" unicode="&#x3e;" horiz-adv-x="1177" 
d="M100 844v221l975 -455v-184l-975 -455v222l719 325z" />
    <glyph glyph-name="question" unicode="?" horiz-adv-x="1138" 
d="M111 1044q5 199 130 326t334 127q210 0 331.5 -115t121.5 -299q0 -60 -13.5 -110t-44 -95.5t-52 -69.5t-64.5 -69q-41 -41 -53 -53.5t-43.5 -49.5t-43 -60t-23 -59t-11.5 -73v-47h-234v68q0 62 15 116t45 98t57 74.5t68 67.5q4 4 27 25.5t28 26.5t24 24.5t24.5 27.5
t19.5 26t19 30.5t12 29.5t9.5 34.5t2.5 35.5q0 100 -59.5 161t-162.5 61q-104 0 -168.5 -71.5t-66.5 -187.5l-2 -36h-227v36zM438 0v262h248v-262h-248z" />
    <glyph glyph-name="at" unicode="@" horiz-adv-x="1746" 
d="M934 -133q-247 0 -439.5 99.5t-299.5 281t-107 414.5q0 145 44 274t122 226.5t181.5 169t226 108.5t251.5 37q225 0 395 -88.5t261.5 -248t91.5 -368.5q0 -145 -41.5 -262t-125 -187.5t-196.5 -70.5q-96 0 -146.5 46t-55.5 126q-24 -80 -93 -131t-163 -51
q-162 0 -261.5 109t-99.5 292q0 190 117.5 318.5t275.5 128.5q103 0 163 -52t75 -133l10 142h168l-41 -480q-4 -36 -4 -59q-2 -51 13.5 -74.5t52.5 -23.5q84 0 128 99.5t44 262.5q0 250 -145.5 392.5t-422.5 142.5q-131 0 -246.5 -46t-200 -128.5t-133 -204.5t-48.5 -266
q0 -134 43.5 -248t124 -197t202.5 -129.5t273 -46.5h399v-174h-393zM676 649q0 -118 43 -176.5t141 -58.5q99 0 158 79.5t59 213.5q0 93 -49.5 150.5t-136.5 57.5q-95 0 -155 -74.5t-60 -191.5z" />
    <glyph glyph-name="A" unicode="A" horiz-adv-x="1437" 
d="M287 0h-258l536 1462h309l535 -1462h-260l-141 397h-580zM498 596h440l-217 641h-6z" />
    <glyph glyph-name="B" unicode="B" horiz-adv-x="1294" 
d="M152 0v1462h522q215 0 344 -100.5t129 -286.5q0 -234 -240 -327v-3q132 -25 214.5 -106.5t82.5 -222.5q0 -143 -67.5 -237.5t-186 -136.5t-286.5 -42h-512zM399 205h265q137 0 214.5 53.5t77.5 167.5q0 109 -72.5 162t-199.5 53h-285v-436zM399 842h232q134 0 203 52
t69 165q0 110 -65.5 154t-196.5 44h-242v-415z" />
    <glyph glyph-name="C" unicode="C" horiz-adv-x="1546" 
d="M1491 449q-51 -212 -229.5 -344t-446.5 -132q-224 0 -393.5 99t-258.5 270.5t-89 388.5q0 215 89.5 386.5t260.5 271.5t395 100q265 0 433.5 -126t240.5 -349h-248q-58 133 -162 199.5t-264 66.5q-151 0 -265.5 -74t-173 -197.5t-58.5 -277.5t58 -277.5t172.5 -197.5
t266.5 -74q166 0 274 71t154 196h244z" />
    <glyph glyph-name="D" unicode="D" horiz-adv-x="1441" 
d="M600 1462q368 0 569 -189.5t201 -520.5q0 -223 -88 -392t-261.5 -264.5t-412.5 -95.5h-456v1462h448zM399 209h211q229 0 369.5 140.5t140.5 402.5q0 125 -38 222t-107 157.5t-162 91t-207 30.5h-207v-1044z" />
    <glyph glyph-name="E" unicode="E" horiz-adv-x="1206" 
d="M1087 1462v-209h-688v-409h645v-207h-645v-428h695v-209h-942v1462h935z" />
    <glyph glyph-name="F" unicode="F" horiz-adv-x="1144" 
d="M152 0v1462h921v-209h-674v-409h619v-207h-619v-637h-247z" />
    <glyph glyph-name="G" unicode="G" horiz-adv-x="1583" 
d="M807 569v193h661l-18 -762h-166l-14 227q-119 -262 -475 -262q-168 0 -306.5 63t-228 169.5t-138 244t-48.5 289.5q0 153 49.5 290t142 243.5t237 169.5t320.5 63q108 0 202 -25t164 -69t125.5 -105t91.5 -130.5t58 -149.5h-247q-88 270 -394 270q-121 0 -218 -45
t-158 -122.5t-93 -177t-32 -212.5t31.5 -212.5t91.5 -177t154.5 -122.5t211.5 -45q89 0 164 22.5t135.5 69t97 124.5t43.5 181z" />
    <glyph glyph-name="H" unicode="H" horiz-adv-x="1443" 
d="M1044 1462h248v-1462h-248v629h-645v-629h-247v1462h247v-624h645v624z" />
    <glyph glyph-name="I" unicode="I" horiz-adv-x="548" 
d="M152 1462h247v-1462h-247v1462z" />
    <glyph glyph-name="J" unicode="J" horiz-adv-x="1081" 
d="M303 395q3 -103 53.5 -162t147.5 -59q56 0 94.5 20t57.5 57t26.5 78t7.5 95v1038h248v-1022q0 -471 -434 -471q-196 0 -318 109.5t-123 302.5l-2 96h238z" />
    <glyph glyph-name="K" unicode="K" horiz-adv-x="1357" 
d="M399 0h-247v1462h247v-690l621 690h303l-567 -614l579 -848h-291l-448 676l-197 -209v-467z" />
    <glyph glyph-name="L" unicode="L" horiz-adv-x="1144" 
d="M152 1462h247v-1253h688v-209h-935v1462z" />
    <glyph glyph-name="M" unicode="M" horiz-adv-x="1820" 
d="M152 0v1462l385 -2l376 -1165h2l371 1167h383v-1462h-237v1176h-7l-383 -1176h-262l-385 1176h-6v-1176h-237z" />
    <glyph glyph-name="N" unicode="N" horiz-adv-x="1507" 
d="M152 1462h319l487 -848q110 -206 160 -292q-4 218 -4 344v796h244v-1462h-322l-465 797q-41 78 -110 206t-70 130q4 -222 4 -367v-766h-243v1462z" />
    <glyph glyph-name="O" unicode="O" horiz-adv-x="1673" 
d="M836 1497q175 0 321 -62t241.5 -167.5t148 -244t52.5 -292.5t-52.5 -292.5t-148 -244t-241.5 -167.5t-321 -62t-321 62t-241.5 167.5t-147.5 244t-52 292.5t52 292.5t147.5 244t241.5 167.5t321 62zM322 731q0 -111 35 -211.5t98.5 -177.5t162.5 -122.5t218 -45.5
t218 45.5t163.5 122.5t99.5 177.5t35 211.5t-35 211.5t-99.5 177.5t-163.5 122.5t-218 45.5t-218 -45.5t-162.5 -122.5t-98.5 -177.5t-35 -211.5z" />
    <glyph glyph-name="P" unicode="P" horiz-adv-x="1255" 
d="M641 756q140 0 221.5 66.5t81.5 187.5t-78 183t-219 62h-248v-499h242zM152 0v1462h516q236 0 380 -127t144 -323q0 -130 -69.5 -236t-191 -166.5t-269.5 -60.5h-263v-549h-247z" />
    <glyph glyph-name="Q" unicode="Q" horiz-adv-x="1673" 
d="M965 500q94 -41 245 -164q69 76 105.5 178.5t36.5 216.5q0 111 -35 211.5t-99.5 177.5t-163.5 122.5t-218 45.5t-218 -45.5t-162.5 -122.5t-98.5 -177.5t-35 -211.5t35 -211.5t98.5 -177.5t162.5 -122.5t218 -45.5q121 0 219 45q-91 80 -203 135zM74 731q0 154 52 292.5
t147.5 244t241.5 167.5t321 62t321 -62t241.5 -167.5t148 -244t52.5 -292.5q0 -161 -56 -304.5t-161 -248.5q93 -78 197 -112l-100 -158q-71 5 -250 153q-175 -96 -393 -96q-175 0 -321 62t-241.5 167.5t-147.5 244t-52 292.5z" />
    <glyph glyph-name="R" unicode="R" horiz-adv-x="1345" 
d="M152 0v1462h548q244 0 380.5 -115t136.5 -300q0 -152 -84 -252t-211 -133q50 -14 86.5 -41t63.5 -71.5t45 -90t40 -117.5q29 -92 41 -128.5t35.5 -95.5t48.5 -102v-16h-256q-21 41 -41.5 96.5t-45.5 130t-40 115.5q-20 56 -41.5 94t-55 71.5t-81.5 49.5t-113 16h-209
v-573h-247zM399 778h289q136 0 209.5 67t73.5 183q0 104 -71 168t-220 64h-281v-482z" />
    <glyph glyph-name="S" unicode="S" horiz-adv-x="1277" 
d="M330 465q9 -141 99 -217t235 -76q129 0 205.5 56t76.5 167q0 44 -15 78t-36 55.5t-63.5 42t-76.5 32t-95 30.5q-7 2 -11 3.5t-10.5 3t-11.5 3.5q-51 15 -81 24.5t-77 26.5t-76 30.5t-68 35.5t-62.5 43.5t-50 51.5t-41 62.5t-24 74.5t-10.5 89q-1 101 41.5 182t115 131
t163.5 76.5t192 26.5q228 0 368 -113t161 -342h-250q-21 128 -88.5 189t-194.5 61q-116 0 -188 -51.5t-72 -157.5q0 -48 21.5 -85t67 -65.5t96 -48t130.5 -42.5q185 -55 252 -86q162 -73 214 -199q28 -69 28 -160q0 -108 -44.5 -193t-120 -136t-168.5 -77t-197 -26
q-122 0 -224 30.5t-181 90.5t-126.5 157t-54.5 222h252z" />
    <glyph glyph-name="T" unicode="T" horiz-adv-x="1171" 
d="M29 1253v209h1116v-209h-436v-1253h-248v1253h-432z" />
    <glyph glyph-name="U" unicode="U" horiz-adv-x="1431" 
d="M1288 559q0 -101 -20.5 -189t-64.5 -163t-110 -128.5t-161 -83.5t-213 -30q-147 0 -259 44.5t-180.5 125.5t-102.5 187.5t-34 236.5v903h248v-903q0 -82 19.5 -150t58.5 -121t103 -82.5t147 -29.5q82 0 144.5 29.5t100.5 82.5t57 121t19 150v903h248v-903z" />
    <glyph glyph-name="V" unicode="V" horiz-adv-x="1361" 
d="M16 1462h267l395 -1190h6l397 1190h267l-521 -1460l-295 -2z" />
    <glyph glyph-name="W" unicode="W" horiz-adv-x="1912" 
d="M16 1462h263l210 -1028l33 -172h6l37 172l228 1028h323l217 -1028l37 -174h4l37 174l223 1028h262l-254 -1028l-104 -434h-334l-86 434l-162 780h-4l-172 -780l-92 -434h-334l-96 434z" />
    <glyph glyph-name="X" unicode="X" horiz-adv-x="1361" 
d="M16 0l516 745l-499 717h299l346 -522l360 522h289l-506 -719l525 -743h-306l-362 545l-369 -545h-293z" />
    <glyph glyph-name="Y" unicode="Y" horiz-adv-x="1298" 
d="M311 1462q236 -449 340 -649h4q178 335 336 649h279l-498 -880v-582h-248v582l-495 880h282z" />
    <glyph glyph-name="Z" unicode="Z" horiz-adv-x="1253" 
d="M88 209l758 1042h-721v211h1026v-184l-766 -1067h791v-211h-1088v209z" />
    <glyph glyph-name="bracketleft" unicode="[" horiz-adv-x="604" 
d="M575 1315h-210v-1538h210v-183h-423v1903h423v-182z" />
    <glyph glyph-name="backslash" unicode="\" horiz-adv-x="716" 
d="M223 1579l500 -1778h-207l-500 1778h207z" />
    <glyph glyph-name="bracketright" unicode="]" horiz-adv-x="604" 
d="M29 1315v182h424v-1903h-424v183h211v1538h-211z" />
    <glyph glyph-name="asciicircum" unicode="^" horiz-adv-x="1245" 
d="M535 1427h174l442 -874h-221l-309 627l-306 -627h-221z" />
    <glyph glyph-name="underscore" unicode="_" horiz-adv-x="1425" 
d="M-4 -70h1434v-94h-1434v94z" />
    <glyph glyph-name="grave" unicode="`" horiz-adv-x="507" 
d="M221 1462l182 -268h-176l-280 268h274z" />
    <glyph glyph-name="a" unicode="a" horiz-adv-x="1128" 
d="M121 735q11 66 43 127t85 113t135 83.5t181 31.5q102 0 180.5 -24t128 -64.5t81.5 -98t44.5 -119t12.5 -133.5v-407q0 -163 16 -244h-242q-6 62 -6 125v49h-2q-15 -36 -38.5 -68t-62.5 -64t-99.5 -50.5t-135.5 -18.5q-173 0 -272.5 91.5t-99.5 224.5q0 43 11 80t27 65.5
t44 53t53.5 41.5t63.5 32t65.5 23.5t69.5 17t65 12.5t61.5 9.5t51.5 7.5q107 16 151.5 44t44.5 93q0 63 -56 100t-153 37q-86 0 -145 -45.5t-78 -124.5h-225zM305 297q0 -64 52.5 -104.5t144.5 -40.5q56 0 104 18.5t88.5 56.5t64 106t23.5 159v110q-19 -50 -76 -85.5
t-182 -59.5q-112 -21 -165.5 -58.5t-53.5 -101.5z" />
    <glyph glyph-name="b" unicode="b" horiz-adv-x="1261" 
d="M711 1085q218 0 354.5 -152t136.5 -401q0 -251 -137.5 -405t-355.5 -154q-126 0 -214.5 64t-121.5 145h-2v-182h-244v1462h242v-594h2q30 84 120.5 150.5t219.5 66.5zM352 532q0 -74 19 -139t55.5 -117t96.5 -82t136 -30q146 0 226 102.5t80 265.5q0 159 -81 261
t-225 102q-74 0 -134 -30.5t-97 -81.5t-56.5 -115.5t-19.5 -135.5z" />
    <glyph glyph-name="c" unicode="c" horiz-adv-x="1177" 
d="M1106 344q-38 -179 -167 -276t-321 -97q-242 0 -399.5 154t-157.5 403q0 167 72.5 295t199 196t285.5 68q193 0 321 -99.5t159 -264.5h-226q-67 176 -258 176q-143 0 -231 -106t-88 -265q0 -158 87.5 -262t231.5 -104q99 0 167.5 46t97.5 136h227z" />
    <glyph glyph-name="d" unicode="d" horiz-adv-x="1261" 
d="M553 1085q127 0 217.5 -66t122.5 -151h2v594h242v-1462h-246v182h-2q-33 -81 -121.5 -145t-214.5 -64q-218 0 -355 154t-137 405q0 249 136.5 401t355.5 152zM297 532q0 -163 79.5 -265.5t225.5 -102.5q76 0 136 30t96.5 82t55.5 117t19 139q0 71 -19.5 135.5
t-56.5 115.5t-97 81.5t-134 30.5q-143 0 -224 -102t-81 -261z" />
    <glyph glyph-name="e" unicode="e" horiz-adv-x="1175" 
d="M1090 313q-46 -161 -176.5 -251.5t-319.5 -90.5q-238 0 -385.5 155.5t-147.5 405.5q0 241 151 398t382 157q131 0 231.5 -47.5t160 -130t89.5 -183.5t31 -218q0 -27 -2 -45h-815q13 -139 96 -220t209 -81q95 0 164 38t96 113h236zM291 631h581q-11 121 -81.5 196.5
t-196.5 75.5q-125 0 -205.5 -73.5t-97.5 -198.5z" />
    <glyph glyph-name="f" unicode="f" horiz-adv-x="653" 
d="M193 1135q0 327 305 327h120v-184h-57q-73 0 -104 -32.5t-31 -121.5v-65h180v-185h-180v-874h-233v874h-148v185h148v76z" />
    <glyph glyph-name="g" unicode="g" horiz-adv-x="1257" 
d="M887 1059h246v-957q0 -126 -42 -223.5t-115.5 -156.5t-165.5 -89t-198 -30q-211 0 -348.5 100t-157.5 264h234q28 -178 272 -178q129 0 202 71t73 216v129h-2q-82 -207 -332 -207q-219 0 -355.5 150.5t-136.5 396.5q0 245 135 392.5t357 147.5q129 0 214 -56t118 -136h2
v166zM297 545q0 -97 32 -175.5t103 -129t170 -50.5q64 0 116.5 22t86.5 57.5t57 82.5t33 95t10 98q0 60 -19.5 120t-56 112.5t-96 85t-131.5 32.5q-97 0 -167.5 -50t-104 -128t-33.5 -172z" />
    <glyph glyph-name="h" unicode="h" horiz-adv-x="1177" 
d="M127 0v1462h233v-590q98 215 318 215q100 0 174.5 -31.5t119 -90t66 -134t21.5 -169.5v-662h-236v612q0 271 -202 271q-115 0 -185.5 -100t-70.5 -291v-492h-238z" />
    <glyph glyph-name="i" unicode="i" horiz-adv-x="503" 
d="M377 1229h-248v233h248v-233zM127 0v1059h238v-1059h-238z" />
    <glyph glyph-name="j" unicode="j" horiz-adv-x="526" 
d="M399 1229h-247v233h247v-233zM-29 -403v188h62q76 0 103.5 26.5t27.5 110.5v1137h229v-1147q0 -151 -67.5 -233t-229.5 -82h-125z" />
    <glyph glyph-name="k" unicode="k" horiz-adv-x="1097" 
d="M365 0h-238v1462h238v-841l417 438h285l-442 -453l454 -606h-284l-330 446l-100 -96v-350z" />
    <glyph glyph-name="l" unicode="l" horiz-adv-x="489" 
d="M127 1462h238v-1462h-238v1462z" />
    <glyph glyph-name="m" unicode="m" horiz-adv-x="1742" 
d="M127 0v1059h233v-176q24 81 99 142.5t180 61.5q115 0 189 -49.5t112 -152.5q47 102 118.5 152t180.5 50q190 0 287.5 -116.5t97.5 -308.5v-662h-235v612q0 128 -45 199.5t-138 71.5q-97 0 -156 -98t-59 -275v-510h-231v612q0 135 -38.5 203t-141.5 68q-215 0 -215 -391
v-492h-238z" />
    <glyph glyph-name="n" unicode="n" horiz-adv-x="1177" 
d="M127 0v1059h233v-187q98 215 318 215q100 0 174.5 -31.5t119 -90t66 -134t21.5 -169.5v-662h-236v612q0 271 -202 271q-115 0 -185.5 -100t-70.5 -291v-492h-238z" />
    <glyph glyph-name="o" unicode="o" horiz-adv-x="1214" 
d="M608 -29q-155 0 -279.5 69.5t-196 197t-71.5 290.5t71.5 291t196 198t279.5 70q154 0 278.5 -70t195.5 -198t71 -291t-71 -290.5t-195 -197t-279 -69.5zM293 528q0 -154 87.5 -259t227.5 -105q138 0 226 105t88 259q0 155 -87.5 261t-226.5 106q-140 0 -227.5 -105.5
t-87.5 -261.5z" />
    <glyph glyph-name="p" unicode="p" horiz-adv-x="1261" 
d="M711 1085q218 0 354.5 -152t136.5 -401q0 -251 -137.5 -405t-355.5 -154q-126 0 -214.5 64t-121.5 145h-2v-592h-244v1469h242v-191h2q30 84 120.5 150.5t219.5 66.5zM352 532q0 -74 19 -139t55.5 -117t96.5 -82t136 -30q146 0 226 102.5t80 265.5q0 159 -81 261
t-225 102q-74 0 -134 -30.5t-97 -81.5t-56.5 -115.5t-19.5 -135.5z" />
    <glyph glyph-name="q" unicode="q" horiz-adv-x="1261" 
d="M553 1085q127 0 217.5 -66t122.5 -151h2v191h242v-1469h-246v592h-2q-33 -81 -121.5 -145t-214.5 -64q-218 0 -355 154t-137 405q0 249 136.5 401t355.5 152zM297 532q0 -163 79.5 -265.5t225.5 -102.5q76 0 136 30t96.5 82t55.5 117t19 139q0 71 -19.5 135.5
t-56.5 115.5t-97 81.5t-134 30.5q-143 0 -224 -102t-81 -261z" />
    <glyph glyph-name="r" unicode="r" horiz-adv-x="720" 
d="M360 1059v-197q76 204 318 207v-225q-74 0 -107 -10q-35 -7 -62 -18t-55 -35.5t-46.5 -61t-30.5 -97t-12 -139.5v-483h-238v1059h233z" />
    <glyph glyph-name="s" unicode="s" horiz-adv-x="1003" 
d="M698 741q-8 84 -65.5 125t-136.5 41q-72 0 -123 -36t-51 -91q0 -54 43.5 -88t128.5 -55q117 -30 141 -37q307 -80 307 -297q0 -102 -62 -179t-159.5 -115t-212.5 -38q-83 0 -157 20t-137 60.5t-104 110.5t-49 162h234q29 -170 215 -170q83 0 141 34t58 103q0 25 -10 45
t-24 33.5t-38.5 25t-45.5 18.5t-52 15q-88 21 -152 39q-136 36 -215.5 112t-79.5 193q0 140 119.5 227.5t288.5 87.5q176 0 292 -89.5t134 -256.5h-228z" />
    <glyph glyph-name="t" unicode="t" horiz-adv-x="681" 
d="M412 365q0 -90 30.5 -133.5t104.5 -43.5h69v-190l-114 -2q-173 -1 -248.5 89.5t-75.5 250.5v538h-166v185h166v241l234 105v-346h206v-185h-206v-509z" />
    <glyph glyph-name="u" unicode="u" horiz-adv-x="1175" 
d="M119 397v662h235v-613q0 -270 203 -270q114 0 185 100t71 291v492h238v-1059h-234v186q-101 -215 -317 -215q-101 0 -175.5 32t-119 90t-65.5 134t-21 170z" />
    <glyph glyph-name="v" unicode="v" horiz-adv-x="1060" 
d="M266 1059q32 -98 124 -381t142 -440h3q42 137 132.5 416.5t129.5 404.5h252q-72 -194 -387 -1059h-263l-387 1059h254z" />
    <glyph glyph-name="w" unicode="w" horiz-adv-x="1597" 
d="M317 0l-305 1059h246l139 -547q14 -57 33 -151.5t27 -129.5h2q13 54 31.5 147.5t29.5 141.5l137 539h283l137 -541q15 -59 64 -289h2q33 141 63 289l135 541h244l-307 -1059h-274l-146 545q-58 256 -59 260h-4q-31 -150 -60 -258l-143 -547h-275z" />
    <glyph glyph-name="x" unicode="x" horiz-adv-x="1081" 
d="M29 0l377 541l-363 518h268l230 -334l227 334h268l-360 -516l375 -543h-269l-241 358l-244 -358h-268z" />
    <glyph glyph-name="y" unicode="y" horiz-adv-x="1083" 
d="M264 1059q49 -140 145.5 -406.5t145.5 -406.5h4q45 149 141 445.5t119 367.5h250q-136 -379 -238.5 -650.5t-228.5 -617.5q-37 -99 -101.5 -150t-168.5 -51h-182v189h116q61 0 89 25.5t48 86.5l33 84q-84 217 -225 575.5t-199 508.5h252z" />
    <glyph glyph-name="z" unicode="z" horiz-adv-x="1024" 
d="M647 872h-176h-367v187h830v-160l-586 -713q29 0 87.5 1t90.5 1h430v-188h-888v168z" />
    <glyph glyph-name="braceleft" unicode="{" horiz-adv-x="712" 
d="M580 1325q-99 0 -99 -176v-326q0 -66 -20.5 -120.5t-51.5 -85t-58 -47t-48 -21.5v-6q16 -2 36.5 -10.5t46 -29.5t46.5 -50t35 -77.5t14 -107.5v-325q0 -176 99 -176h77v-173h-168q-84 0 -152.5 73.5t-68.5 195.5v360q0 107 -49.5 165t-120.5 58v197q70 0 120 61t50 164
v361q0 122 68.5 195t152.5 73h168v-172h-77z" />
    <glyph glyph-name="bar" unicode="|" horiz-adv-x="477" 
d="M152 1774h176v-2212h-176v2212z" />
    <glyph glyph-name="braceright" unicode="}" horiz-adv-x="712" 
d="M133 1325h-78v172h168q84 0 152.5 -73t68.5 -195v-361q0 -103 50 -164t120 -61v-197q-71 0 -120.5 -58t-49.5 -165v-360q0 -122 -68.5 -195.5t-152.5 -73.5h-168v173h78q98 0 98 176v325q0 59 14.5 107.5t35 77.5t46.5 50t46.5 29.5t36.5 10.5v6q-16 3 -36.5 13.5
t-46.5 33t-46.5 52t-35 75.5t-14.5 100v326q0 176 -98 176z" />
    <glyph glyph-name="asciitilde" unicode="~" horiz-adv-x="1325" 
d="M1190 686q-6 -157 -85.5 -250.5t-219.5 -93.5q-56 0 -122.5 21.5t-117 47t-108 47t-97.5 21.5q-52 0 -83.5 -35t-34.5 -102h-207q6 158 85 251t222 93q64 0 134.5 -21t121 -45.5t104 -45.5t86.5 -21q48 0 79.5 34t37.5 99h205z" />
    <glyph glyph-name="uni00A0" unicode="&#xa0;" horiz-adv-x="462" 
 />
    <glyph glyph-name="exclamdown" unicode="&#xa1;" horiz-adv-x="567" 
d="M408 51v-452h-248v452l51 623h145zM156 799v262h256v-262h-256z" />
    <glyph glyph-name="cent" unicode="&#xa2;" horiz-adv-x="1165" 
d="M514 -209v189q-203 33 -328 180t-125 368q0 222 125 370t328 181v185h193v-183q158 -22 260.5 -117t130.5 -241h-226q-47 126 -165 164v-713q130 36 172 170h227q-33 -157 -137.5 -252t-261.5 -115v-186h-193zM295 528q0 -126 59 -221t160 -129v705
q-100 -33 -159.5 -130.5t-59.5 -224.5z" />
    <glyph glyph-name="sterling" unicode="&#xa3;" horiz-adv-x="1312" 
d="M84 612v168h149q-77 146 -77 289q-1 103 41.5 186t116 135t166 79.5t194.5 27.5q229 0 368 -120.5t154 -346.5h-248q-29 260 -278 260q-120 0 -194.5 -55t-74.5 -164q0 -25 5 -52t10 -46t18.5 -51t19.5 -45t25 -50.5t23 -46.5h364v-168h-301q10 -36 10 -90
q0 -176 -190 -338q94 46 174 49q87 3 191 -24q120 -35 188 -35q47 0 98.5 15.5t87.5 41.5l103 -170q-112 -98 -314 -98q-119 0 -241 39q-109 37 -234 37q-58 0 -121 -21t-112 -55l-109 154q13 12 45.5 41.5t45 41.5t38 39t36 44t27.5 46.5t24 56t12.5 62t5.5 74.5
q0 36 -15 90h-231z" />
    <glyph glyph-name="currency" unicode="&#xa4;" horiz-adv-x="1173" 
d="M74 715q0 160 100 297l-119 121l119 116l119 -119q138 97 299 97q157 0 287 -97l122 121l119 -121l-121 -118q99 -133 99 -293q0 -162 -99 -295l121 -121l-116 -115l-117 121q-139 -102 -297 -102q-160 0 -301 100l-115 -121l-119 117l119 119q-100 137 -100 293z
M285 715q0 -133 88.5 -225.5t216.5 -92.5q126 0 212.5 94.5t86.5 227.5q0 129 -86 223t-211 94q-131 0 -219 -92.5t-88 -228.5z" />
    <glyph glyph-name="yen" unicode="&#xa5;" horiz-adv-x="1298" 
d="M311 1462q141 -268 342 -665h2q252 497 338 665h279l-377 -665h176v-168h-272l-27 -47v-90h299v-168h-299v-324h-248v324h-299v168h299v90l-26 47h-273v168h178l-374 665h282z" />
    <glyph glyph-name="brokenbar" unicode="&#xa6;" horiz-adv-x="536" 
d="M358 838h-180v520h180v-520zM178 -145v520h180v-520h-180z" />
    <glyph glyph-name="section" unicode="&#xa7;" horiz-adv-x="1189" 
d="M117 727q0 89 52 149.5t138 92.5q-112 77 -112 205q0 95 56 169.5t148 114t201 39.5q176 0 292 -90t134 -256h-225q-11 81 -69 122.5t-136 41.5q-71 0 -121.5 -36.5t-50.5 -92.5q0 -19 6.5 -35.5t15.5 -29t28 -25.5t35 -22t45 -21t50 -19.5t59 -21.5t62 -23
q72 -28 132.5 -62.5t110 -78.5t77.5 -99t28 -116q0 -78 -46.5 -132.5t-125.5 -103.5q129 -88 129 -225q0 -102 -60.5 -180t-158 -117t-215.5 -39q-85 0 -160 20t-138.5 60.5t-104.5 110.5t-50 163h236q29 -170 221 -170q82 0 137.5 34.5t55.5 103.5q0 23 -6.5 42t-23 35
t-32 27.5t-46 25t-52 22t-64 24.5t-67.5 26q-95 38 -155 68.5t-117.5 74.5t-85 99t-27.5 125zM346 739q0 -31 13.5 -56t38 -45t60.5 -39t78.5 -36t94.5 -37q28 -10 43 -16l90 -37q72 59 72 148q0 43 -21 79t-64 64.5t-92.5 51t-121.5 46.5q-32 10 -74 27q-117 -46 -117 -150
z" />
    <glyph glyph-name="dieresis" unicode="&#xa8;" horiz-adv-x="692" 
d="M53 1462h209v-225h-209v225zM426 1237v225h209v-225h-209z" />
    <glyph glyph-name="copyright" unicode="&#xa9;" horiz-adv-x="1718" 
d="M862 -49q-159 0 -303.5 60t-251 163t-170 249.5t-63.5 311.5q0 162 63.5 306.5t170 247t251.5 162.5t303 60t302 -60t250.5 -162.5t169.5 -247t63 -306.5q0 -165 -63 -311.5t-169.5 -249.5t-250.5 -163t-302 -60zM242 735q0 -180 83 -327.5t225 -230.5t312 -83
q168 0 309.5 83t224.5 230.5t83 327.5q0 175 -83 320.5t-224.5 229t-309.5 83.5q-127 0 -241.5 -49t-197.5 -133.5t-132 -202t-49 -248.5zM496 735q0 169 105 274t267 105q134 0 223 -64t126 -186h-160q-51 113 -189 113q-89 0 -150 -67.5t-61 -174.5q0 -105 61 -172
t150 -67q143 0 187 112h162q-32 -121 -124 -186.5t-227 -65.5q-162 0 -266 103.5t-104 275.5z" />
    <glyph glyph-name="ordfeminine" unicode="&#xaa;" horiz-adv-x="823" 
d="M344 664q-112 0 -186 62.5t-74 162.5q0 37 11.5 68t28 52t44.5 39.5t50.5 28.5t58 19.5t55.5 13.5t53.5 9t42.5 7q67 11 96 28.5t29 53.5q0 86 -133 86q-57 0 -96 -30t-45 -88h-162q2 31 14.5 65.5t37.5 69.5t59 62.5t84 45t108 17.5q307 0 307 -306v-272q0 -104 10 -176
h-184q-4 20 -4 82h-2q-71 -100 -203 -100zM262 895q0 -40 31.5 -66t85.5 -26q77 0 120 50t50 163q0 9 1 26.5t1 26.5q-37 -52 -152 -76q-137 -25 -137 -98z" />
    <glyph glyph-name="guillemotleft" unicode="&#xab;" horiz-adv-x="1001" 
d="M68 530l272 455h209l-242 -455l242 -456h-209zM453 530l272 455h209l-242 -455l242 -456h-209z" />
    <glyph glyph-name="logicalnot" unicode="&#xac;" horiz-adv-x="1251" 
d="M100 635v180h1051v-594h-174v414h-877z" />
    <glyph glyph-name="uni00AD" unicode="&#xad;" horiz-adv-x="991" 
d="M152 627h688v-189h-688v189z" />
    <glyph glyph-name="registered" unicode="&#xae;" horiz-adv-x="1718" 
d="M1116 553q6 -18 15 -46t14.5 -44.5t15 -38.5t21.5 -41v-8h-162q-12 12 -21 32.5t-14.5 38t-13.5 47t-13 46.5q-17 50 -43 75.5t-79 26.5h-78v-266h-162v731h285q126 0 199 -56.5t73 -152.5q0 -79 -40 -132t-101 -67q30 -11 49 -32t28 -41t23 -60q3 -8 4 -12zM74 735
q0 -165 63.5 -311.5t170 -249.5t251 -163t303.5 -60q158 0 302 60t250.5 163t169.5 249.5t63 311.5q0 162 -63 306.5t-169.5 247t-250.5 162.5t-302 60t-303 -59.5t-251.5 -162t-170 -247.5t-63.5 -307zM242 735q0 131 49 248.5t132 202t197.5 133.5t241.5 49
q168 0 309.5 -83.5t224.5 -229t83 -320.5q0 -180 -83 -327.5t-224.5 -230.5t-309.5 -83q-170 0 -312 83t-225 230.5t-83 327.5zM758 770h112q56 0 89.5 30t33.5 77q0 45 -32.5 69.5t-90.5 24.5h-112v-201z" />
    <glyph glyph-name="macron" unicode="&#xaf;" horiz-adv-x="825" 
d="M55 1389h713v-121h-713v121z" />
    <glyph glyph-name="degree" unicode="&#xb0;" horiz-adv-x="704" 
d="M352 1063q65 0 106.5 44t41.5 103q0 58 -41.5 102t-106.5 44t-106 -44t-41 -102q0 -60 41 -103.5t106 -43.5zM70 1210q0 118 81.5 200.5t200.5 82.5q117 0 200 -83t83 -200q0 -119 -82.5 -200.5t-200.5 -81.5q-120 0 -201 81t-81 201z" />
    <glyph glyph-name="plusminus" unicode="&#xb1;" horiz-adv-x="1265" 
d="M111 172h1044v-176h-1044v176zM111 557v178h430v309h186v-309h428v-178h-428v-309h-186v309h-430z" />
    <glyph glyph-name="uni00B2" unicode="&#xb2;" horiz-adv-x="749" 
d="M53 801q1 73 15.5 126.5t50.5 98t75.5 76t110.5 78.5q49 33 69.5 46.5t51 36.5t41 36t23.5 33t16.5 39.5t3.5 45.5q0 54 -34.5 90.5t-94.5 36.5q-61 0 -98.5 -40.5t-38.5 -112.5h-178q0 133 90.5 217t224.5 84q138 0 221.5 -74t83.5 -188q0 -101 -41 -166t-139 -140
q-33 -26 -85 -59t-87 -59t-55 -54h417v-151h-643z" />
    <glyph glyph-name="uni00B3" unicode="&#xb3;" horiz-adv-x="755" 
d="M393 782q-147 0 -234 66.5t-104 191.5l-2 17h176l2 -13q7 -55 48.5 -85.5t107.5 -30.5t105.5 36t39.5 97q0 60 -42 91.5t-113 31.5q-49 0 -74 -2v143q43 0 72 2q56 2 88.5 28.5t32.5 80.5q0 50 -32 78t-85 28q-104 0 -119 -94l-2 -16h-178q11 118 89 189t210 71
q134 0 213.5 -64t79.5 -178q0 -128 -117 -186q147 -51 147 -224q0 -107 -83 -182.5t-226 -75.5z" />
    <glyph glyph-name="acute" unicode="&#xb4;" horiz-adv-x="542" 
d="M338 1462h274l-280 -268h-176z" />
    <glyph glyph-name="uni00B5" unicode="&#xb5;" horiz-adv-x="1177" 
d="M119 -410v1469h237v-639q0 -244 201 -244q115 0 185.5 100t70.5 291v492h238v-1059h-234v186q-101 -215 -317 -215q-88 0 -144 43v-424h-237z" />
    <glyph glyph-name="paragraph" unicode="&#xb6;" horiz-adv-x="1171" 
d="M1028 -236h-158v1565h-223v-1565h-155v836q-121 0 -225 60.5t-163 158t-59 205.5q0 199 130.5 318.5t336.5 119.5h516v-1698z" />
    <glyph glyph-name="periodcentered" unicode="&#xb7;" horiz-adv-x="497" 
d="M250 666q54 0 92.5 -38.5t38.5 -92.5q0 -50 -39.5 -91t-89.5 -41q-54 0 -93.5 39t-39.5 93t38.5 92.5t92.5 38.5z" />
    <glyph glyph-name="cedilla" unicode="&#xb8;" horiz-adv-x="548" 
d="M244 -434q-106 0 -191 35l35 110q58 -30 121 -30q46 0 79.5 14t33.5 43q0 27 -23.5 42t-62.5 15q-25 0 -72 -14l-64 84l127 143l125 -4l-102 -113l4 -4q20 13 63 13q80 -2 132.5 -41t52.5 -111q0 -49 -24 -86t-63.5 -57t-82.5 -29.5t-88 -9.5z" />
    <glyph glyph-name="uni00B9" unicode="&#xb9;" horiz-adv-x="536" 
d="M266 801v596h-225v112q94 0 156 37.5t92 132.5h153v-878h-176z" />
    <glyph glyph-name="ordmasculine" unicode="&#xba;" horiz-adv-x="929" 
d="M463 655q-163 0 -273 106.5t-110 282.5q0 177 110 283.5t273 106.5q165 0 276 -106.5t111 -283.5q0 -176 -111.5 -282.5t-275.5 -106.5zM256 1044q0 -106 58 -174.5t149 -68.5q93 0 152 68.5t59 174.5t-59.5 176t-151.5 70q-90 0 -148.5 -70t-58.5 -176z" />
    <glyph glyph-name="guillemotright" unicode="&#xbb;" horiz-adv-x="1001" 
d="M934 530l-272 -456h-209l241 456l-241 455h209zM68 74l241 456l-241 455h208l273 -455l-273 -456h-208z" />
    <glyph glyph-name="onequarter" unicode="&#xbc;" horiz-adv-x="1585" 
d="M266 584v596h-225v112q94 0 156 37.5t92 132.5h153v-878h-176zM399 -4l564 1472h202l-563 -1472h-203zM877 205v178l366 496h189v-529h106v-145h-106v-205h-177v205h-378zM1030 350h225v312z" />
    <glyph glyph-name="onehalf" unicode="&#xbd;" horiz-adv-x="1697" 
d="M266 584v596h-225v112q94 0 156 37.5t92 132.5h153v-878h-176zM395 -4l563 1472h203l-563 -1472h-203zM1001 0q1 73 15.5 126.5t50.5 98t75.5 76t110.5 78.5q49 33 69.5 46.5t51 36.5t41 36t23.5 33t16.5 39.5t3.5 45.5q0 54 -34.5 90.5t-94.5 36.5q-61 0 -98.5 -40.5
t-38.5 -112.5h-178q0 133 90.5 217t224.5 84q138 0 221.5 -74t83.5 -188q0 -101 -41 -165.5t-139 -139.5q-33 -26 -85 -59t-87 -59t-55 -54h418v-152h-644z" />
    <glyph glyph-name="threequarters" unicode="&#xbe;" horiz-adv-x="1712" 
d="M393 565q-147 0 -234 66.5t-104 191.5l-2 17h176l2 -13q7 -55 48.5 -85.5t107.5 -30.5t105.5 36t39.5 97q0 60 -42 91.5t-113 31.5q-49 0 -74 -2v143q43 0 72 2q56 2 88.5 28.5t32.5 80.5q0 50 -32 78t-85 28q-104 0 -119 -94l-2 -17h-178q11 119 89 190t210 71
q134 0 213.5 -64t79.5 -178q0 -127 -117 -186q147 -51 147 -224q0 -107 -83 -182.5t-226 -75.5zM524 -4l563 1472h203l-563 -1472h-203zM1004 205v178l366 496h189v-529h106v-145h-106v-205h-177v205h-378zM1157 350h225v312z" />
    <glyph glyph-name="questiondown" unicode="&#xbf;" horiz-adv-x="1081" 
d="M1026 20q-5 -199 -130 -325.5t-335 -126.5t-331 115t-121 299q0 60 13.5 110t44 95.5t52 69.5t64.5 69q41 41 53 53.5t43.5 49.5t43 60t23 59t11.5 73v47h233v-68q0 -62 -15 -116t-44.5 -98t-56.5 -74.5t-68 -67.5q-4 -4 -27 -25.5t-28 -26.5t-24 -24.5t-24.5 -27.5
t-19.5 -26t-19 -30.5t-12 -29.5t-9.5 -34.5t-2.5 -35.5q0 -100 59 -161t162 -61q104 0 169 71t67 187l2 37h227v-37zM453 803v262h245v-262h-245z" />
    <glyph glyph-name="Agrave" unicode="&#xc0;" horiz-adv-x="1437" 
d="M287 0h-258l536 1462h309l535 -1462h-260l-141 397h-580zM346 1802h299l242 -223h-238zM498 596h440l-217 641h-6z" />
    <glyph glyph-name="Aacute" unicode="&#xc1;" horiz-adv-x="1437" 
d="M287 0h-258l536 1462h309l535 -1462h-260l-141 397h-580zM498 596h440l-217 641h-6zM539 1579l241 223h299l-303 -223h-237z" />
    <glyph glyph-name="Acircumflex" unicode="&#xc2;" horiz-adv-x="1437" 
d="M287 0h-258l536 1462h309l535 -1462h-260l-141 397h-580zM377 1569l211 235h266l209 -235h-234l-110 125l-109 -125h-233zM498 596h440l-217 641h-6z" />
    <glyph glyph-name="Atilde" unicode="&#xc3;" horiz-adv-x="1437" 
d="M287 0h-258l536 1462h309l535 -1462h-260l-141 397h-580zM362 1565q5 102 64.5 168.5t157.5 66.5q58 0 143.5 -41t120.5 -41q60 0 76 84h153q-8 -106 -65.5 -171.5t-149.5 -65.5q-51 0 -103.5 20.5t-96.5 41t-74 20.5q-37 0 -57 -22.5t-23 -59.5h-146zM498 596h440
l-217 641h-6z" />
    <glyph glyph-name="Adieresis" unicode="&#xc4;" horiz-adv-x="1437" 
d="M287 0h-258l536 1462h309l535 -1462h-260l-141 397h-580zM432 1579v223h205v-223h-205zM498 596h440l-217 641h-6zM805 1579v223h203v-223h-203z" />
    <glyph glyph-name="Aring" unicode="&#xc5;" horiz-adv-x="1437" 
d="M287 0h-258l536 1462h309l535 -1462h-260l-141 397h-580zM496 1780q0 93 66 159t159 66q91 0 158 -66t67 -159q0 -92 -67 -158t-158 -66q-92 0 -158.5 66t-66.5 158zM498 596h440l-217 641h-6zM629 1778q0 -41 25.5 -66.5t66.5 -25.5t66.5 25.5t25.5 66.5t-25.5 67.5
t-66.5 26.5t-66.5 -26.5t-25.5 -67.5z" />
    <glyph glyph-name="AE" unicode="&#xc6;" horiz-adv-x="2050" 
d="M29 0l807 1462h1093v-205h-669v-409h626v-203h-626v-440h675v-205h-923v418h-484l-223 -418h-276zM629 608h383v649h-37z" />
    <glyph glyph-name="Ccedilla" unicode="&#xc7;" horiz-adv-x="1546" 
d="M1491 449q-47 -201 -212 -331.5t-413 -142.5l-75 -84l4 -4q19 13 63 13q80 -2 132 -41t52 -111q0 -49 -24 -86t-63.5 -57t-82.5 -29.5t-88 -9.5q-105 0 -190 35l35 110q58 -30 121 -30q46 0 79 14t33 43q0 27 -23.5 42t-62.5 15q-24 0 -71 -14l-64 84l98 110
q-202 17 -354 119.5t-231.5 267t-79.5 369.5q0 215 89.5 386.5t260.5 271.5t395 100q265 0 433.5 -126t240.5 -349h-248q-58 133 -162 199.5t-264 66.5q-151 0 -265.5 -74t-173 -197.5t-58.5 -277.5t58 -277.5t172.5 -197.5t266.5 -74q166 0 274 71t154 196h244z" />
    <glyph glyph-name="Egrave" unicode="&#xc8;" horiz-adv-x="1208" 
d="M1087 1462v-209h-688v-409h645v-207h-645v-428h695v-209h-942v1462h935zM225 1802h299l242 -223h-238z" />
    <glyph glyph-name="Eacute" unicode="&#xc9;" horiz-adv-x="1208" 
d="M1087 1462v-209h-688v-409h645v-207h-645v-428h695v-209h-942v1462h935zM416 1579l241 223h299l-303 -223h-237z" />
    <glyph glyph-name="Ecircumflex" unicode="&#xca;" horiz-adv-x="1208" 
d="M1087 1462v-209h-688v-409h645v-207h-645v-428h695v-209h-942v1462h935zM254 1569l211 235h266l209 -235h-233l-111 125l-109 -125h-233z" />
    <glyph glyph-name="Edieresis" unicode="&#xcb;" horiz-adv-x="1208" 
d="M1087 1462v-209h-688v-409h645v-207h-645v-428h695v-209h-942v1462h935zM309 1579v223h205v-223h-205zM682 1579v223h203v-223h-203z" />
    <glyph glyph-name="Igrave" unicode="&#xcc;" horiz-adv-x="548" 
d="M152 1462h247v-1462h-247v1462zM-98 1802h299l241 -223h-237z" />
    <glyph glyph-name="Iacute" unicode="&#xcd;" horiz-adv-x="548" 
d="M152 1462h247v-1462h-247v1462zM94 1579l242 223h299l-303 -223h-238z" />
    <glyph glyph-name="Icircumflex" unicode="&#xce;" horiz-adv-x="548" 
d="M152 1462h247v-1462h-247v1462zM-68 1569l211 235h267l208 -235h-233l-111 125l-108 -125h-234z" />
    <glyph glyph-name="Idieresis" unicode="&#xcf;" horiz-adv-x="548" 
d="M152 1462h247v-1462h-247v1462zM-12 1579v223h205v-223h-205zM360 1579v223h203v-223h-203z" />
    <glyph glyph-name="Eth" unicode="&#xd0;" horiz-adv-x="1441" 
d="M600 1462q368 0 569 -189.5t201 -520.5q0 -223 -88 -392t-261.5 -264.5t-412.5 -95.5h-456v625h-136v166h136v671h448zM399 209h211q229 0 369.5 140.5t140.5 402.5q0 125 -38 222t-107 157.5t-162 91t-207 30.5h-207v-462h269v-166h-269v-416z" />
    <glyph glyph-name="Ntilde" unicode="&#xd1;" horiz-adv-x="1507" 
d="M152 1462h319l487 -848q110 -206 160 -292q-4 218 -4 344v796h244v-1462h-322l-465 797q-41 78 -110 206t-70 130q4 -222 4 -367v-766h-243v1462zM395 1565q5 102 64 168.5t157 66.5q58 0 144 -41t121 -41q32 0 49.5 21t25.5 63h154q-8 -106 -65.5 -171.5t-149.5 -65.5
q-51 0 -103.5 20.5t-96.5 41t-74 20.5q-37 0 -57 -22.5t-23 -59.5h-146z" />
    <glyph glyph-name="Ograve" unicode="&#xd2;" horiz-adv-x="1673" 
d="M836 1497q175 0 321 -62t241.5 -167.5t148 -244t52.5 -292.5t-52.5 -292.5t-148 -244t-241.5 -167.5t-321 -62t-321 62t-241.5 167.5t-147.5 244t-52 292.5t52 292.5t147.5 244t241.5 167.5t321 62zM322 731q0 -111 35 -211.5t98.5 -177.5t162.5 -122.5t218 -45.5
t218 45.5t163.5 122.5t99.5 177.5t35 211.5t-35 211.5t-99.5 177.5t-163.5 122.5t-218 45.5t-218 -45.5t-162.5 -122.5t-98.5 -177.5t-35 -211.5zM463 1802h299l242 -223h-238z" />
    <glyph glyph-name="Oacute" unicode="&#xd3;" horiz-adv-x="1673" 
d="M836 1497q175 0 321 -62t241.5 -167.5t148 -244t52.5 -292.5t-52.5 -292.5t-148 -244t-241.5 -167.5t-321 -62t-321 62t-241.5 167.5t-147.5 244t-52 292.5t52 292.5t147.5 244t241.5 167.5t321 62zM322 731q0 -111 35 -211.5t98.5 -177.5t162.5 -122.5t218 -45.5
t218 45.5t163.5 122.5t99.5 177.5t35 211.5t-35 211.5t-99.5 177.5t-163.5 122.5t-218 45.5t-218 -45.5t-162.5 -122.5t-98.5 -177.5t-35 -211.5zM655 1579l242 223h299l-303 -223h-238z" />
    <glyph glyph-name="Ocircumflex" unicode="&#xd4;" horiz-adv-x="1673" 
d="M836 1497q175 0 321 -62t241.5 -167.5t148 -244t52.5 -292.5t-52.5 -292.5t-148 -244t-241.5 -167.5t-321 -62t-321 62t-241.5 167.5t-147.5 244t-52 292.5t52 292.5t147.5 244t241.5 167.5t321 62zM322 731q0 -111 35 -211.5t98.5 -177.5t162.5 -122.5t218 -45.5
t218 45.5t163.5 122.5t99.5 177.5t35 211.5t-35 211.5t-99.5 177.5t-163.5 122.5t-218 45.5t-218 -45.5t-162.5 -122.5t-98.5 -177.5t-35 -211.5zM494 1569l211 235h266l209 -235h-234l-110 125l-109 -125h-233z" />
    <glyph glyph-name="Otilde" unicode="&#xd5;" horiz-adv-x="1673" 
d="M836 1497q175 0 321 -62t241.5 -167.5t148 -244t52.5 -292.5t-52.5 -292.5t-148 -244t-241.5 -167.5t-321 -62t-321 62t-241.5 167.5t-147.5 244t-52 292.5t52 292.5t147.5 244t241.5 167.5t321 62zM322 731q0 -111 35 -211.5t98.5 -177.5t162.5 -122.5t218 -45.5
t218 45.5t163.5 122.5t99.5 177.5t35 211.5t-35 211.5t-99.5 177.5t-163.5 122.5t-218 45.5t-218 -45.5t-162.5 -122.5t-98.5 -177.5t-35 -211.5zM477 1565q5 102 64 168.5t157 66.5q58 0 144 -41t121 -41q32 0 49.5 21t25.5 63h154q-8 -106 -65.5 -171.5t-149.5 -65.5
q-51 0 -103.5 20.5t-97 41t-74.5 20.5q-72 0 -79 -82h-146z" />
    <glyph glyph-name="Odieresis" unicode="&#xd6;" horiz-adv-x="1673" 
d="M836 1497q175 0 321 -62t241.5 -167.5t148 -244t52.5 -292.5t-52.5 -292.5t-148 -244t-241.5 -167.5t-321 -62t-321 62t-241.5 167.5t-147.5 244t-52 292.5t52 292.5t147.5 244t241.5 167.5t321 62zM322 731q0 -111 35 -211.5t98.5 -177.5t162.5 -122.5t218 -45.5
t218 45.5t163.5 122.5t99.5 177.5t35 211.5t-35 211.5t-99.5 177.5t-163.5 122.5t-218 45.5t-218 -45.5t-162.5 -122.5t-98.5 -177.5t-35 -211.5zM549 1579v223h205v-223h-205zM922 1579v223h202v-223h-202z" />
    <glyph glyph-name="multiply" unicode="&#xd7;" horiz-adv-x="1257" 
d="M141 881l135 135l351 -350l352 352l139 -139l-352 -353l350 -350l-135 -135l-350 350l-352 -354l-140 139l353 354z" />
    <glyph glyph-name="Oslash" unicode="&#xd8;" horiz-adv-x="1673" 
d="M836 1497q285 0 491 -162l154 158l100 -92l-158 -162q86 -102 131 -233.5t45 -274.5q0 -154 -52.5 -292.5t-148 -244t-241.5 -167.5t-321 -62q-290 0 -494 164l-149 -154l-99 97l152 155q-172 209 -172 504q0 154 52 292.5t147.5 244t241.5 167.5t321 62zM322 731
q0 -190 92 -332l751 772q-137 117 -329 117q-119 0 -218 -45.5t-162.5 -122.5t-98.5 -177.5t-35 -211.5zM504 295q134 -121 332 -121q119 0 218 45.5t163.5 122.5t99.5 177.5t35 211.5q0 191 -97 336z" />
    <glyph glyph-name="Ugrave" unicode="&#xd9;" horiz-adv-x="1429" 
d="M1288 559q0 -101 -20.5 -189t-64.5 -163t-110 -128.5t-161 -83.5t-213 -30q-147 0 -259 44.5t-180.5 125.5t-102.5 187.5t-34 236.5v903h248v-903q0 -82 19.5 -150t58.5 -121t103 -82.5t147 -29.5q82 0 144.5 29.5t100.5 82.5t57 121t19 150v903h248v-903zM342 1802h299
l242 -223h-238z" />
    <glyph glyph-name="Uacute" unicode="&#xda;" horiz-adv-x="1429" 
d="M1288 559q0 -101 -20.5 -189t-64.5 -163t-110 -128.5t-161 -83.5t-213 -30q-147 0 -259 44.5t-180.5 125.5t-102.5 187.5t-34 236.5v903h248v-903q0 -82 19.5 -150t58.5 -121t103 -82.5t147 -29.5q82 0 144.5 29.5t100.5 82.5t57 121t19 150v903h248v-903zM535 1579
l241 223h299l-303 -223h-237z" />
    <glyph glyph-name="Ucircumflex" unicode="&#xdb;" horiz-adv-x="1429" 
d="M1288 559q0 -101 -20.5 -189t-64.5 -163t-110 -128.5t-161 -83.5t-213 -30q-147 0 -259 44.5t-180.5 125.5t-102.5 187.5t-34 236.5v903h248v-903q0 -82 19.5 -150t58.5 -121t103 -82.5t147 -29.5q82 0 144.5 29.5t100.5 82.5t57 121t19 150v903h248v-903zM373 1569
l211 235h266l209 -235h-234l-110 125l-109 -125h-233z" />
    <glyph glyph-name="Udieresis" unicode="&#xdc;" horiz-adv-x="1429" 
d="M1288 559q0 -101 -20.5 -189t-64.5 -163t-110 -128.5t-161 -83.5t-213 -30q-147 0 -259 44.5t-180.5 125.5t-102.5 187.5t-34 236.5v903h248v-903q0 -82 19.5 -150t58.5 -121t103 -82.5t147 -29.5q82 0 144.5 29.5t100.5 82.5t57 121t19 150v903h248v-903zM428 1579v223
h205v-223h-205zM801 1579v223h203v-223h-203z" />
    <glyph glyph-name="Yacute" unicode="&#xdd;" horiz-adv-x="1298" 
d="M311 1462q236 -449 340 -649h4q178 335 336 649h279l-498 -880v-582h-248v582l-495 880h282zM467 1579l242 223h299l-303 -223h-238z" />
    <glyph glyph-name="Thorn" unicode="&#xde;" horiz-adv-x="1251" 
d="M682 1198q234 0 369 -121.5t135 -318.5q0 -199 -140 -326t-364 -127h-283v-305h-247v1462h247v-264h283zM399 512h263q278 -3 278 242q0 122 -69 179.5t-209 57.5h-263v-479z" />
    <glyph glyph-name="germandbls" unicode="&#xdf;" horiz-adv-x="1120" 
d="M117 1051q0 205 117 325.5t319 120.5q189 0 309.5 -96t120.5 -268q0 -135 -60 -219t-159 -113q289 -67 289 -379q0 -202 -127.5 -321t-329.5 -119q-95 0 -158 14v201q58 -15 121 -15q125 0 192.5 68t67.5 192q0 150 -66.5 205t-211.5 55h-39v172q120 3 183 56.5t63 169.5
q0 95 -50.5 147.5t-136.5 52.5q-99 0 -152 -54.5t-53 -184.5v-1061h-239v1051z" />
    <glyph glyph-name="agrave" unicode="&#xe0;" horiz-adv-x="1126" 
d="M121 735q11 66 43 127t85 113t135 83.5t181 31.5q102 0 180.5 -24t128 -64.5t81.5 -98t44.5 -119t12.5 -133.5v-407q0 -163 16 -244h-242q-6 62 -6 125v49h-2q-15 -36 -38.5 -68t-62.5 -64t-99.5 -50.5t-135.5 -18.5q-173 0 -272.5 91.5t-99.5 224.5q0 43 11 80t27 65.5
t44 53t53.5 41.5t63.5 32t65.5 23.5t69.5 17t65 12.5t61.5 9.5t51.5 7.5q107 16 151.5 44t44.5 93q0 63 -56 100t-153 37q-86 0 -145 -45.5t-78 -124.5h-225zM248 1477h274l183 -269h-177zM305 297q0 -64 52.5 -104.5t144.5 -40.5q56 0 104 18.5t88.5 56.5t64 106t23.5 159
v110q-19 -50 -76 -85.5t-182 -59.5q-112 -21 -165.5 -58.5t-53.5 -101.5z" />
    <glyph glyph-name="aacute" unicode="&#xe1;" horiz-adv-x="1126" 
d="M121 735q11 66 43 127t85 113t135 83.5t181 31.5q102 0 180.5 -24t128 -64.5t81.5 -98t44.5 -119t12.5 -133.5v-407q0 -163 16 -244h-242q-6 62 -6 125v49h-2q-15 -36 -38.5 -68t-62.5 -64t-99.5 -50.5t-135.5 -18.5q-173 0 -272.5 91.5t-99.5 224.5q0 43 11 80t27 65.5
t44 53t53.5 41.5t63.5 32t65.5 23.5t69.5 17t65 12.5t61.5 9.5t51.5 7.5q107 16 151.5 44t44.5 93q0 63 -56 100t-153 37q-86 0 -145 -45.5t-78 -124.5h-225zM305 297q0 -64 52.5 -104.5t144.5 -40.5q56 0 104 18.5t88.5 56.5t64 106t23.5 159v110q-19 -50 -76 -85.5
t-182 -59.5q-112 -21 -165.5 -58.5t-53.5 -101.5zM440 1208l183 269h274l-281 -269h-176z" />
    <glyph glyph-name="acircumflex" unicode="&#xe2;" horiz-adv-x="1126" 
d="M121 735q11 66 43 127t85 113t135 83.5t181 31.5q102 0 180.5 -24t128 -64.5t81.5 -98t44.5 -119t12.5 -133.5v-407q0 -163 16 -244h-242q-6 62 -6 125v49h-2q-15 -36 -38.5 -68t-62.5 -64t-99.5 -50.5t-135.5 -18.5q-173 0 -272.5 91.5t-99.5 224.5q0 43 11 80t27 65.5
t44 53t53.5 41.5t63.5 32t65.5 23.5t69.5 17t65 12.5t61.5 9.5t51.5 7.5q107 16 151.5 44t44.5 93q0 63 -56 100t-153 37q-86 0 -145 -45.5t-78 -124.5h-225zM229 1212l230 265h215l231 -265h-215l-125 152l-123 -152h-213zM305 297q0 -64 52.5 -104.5t144.5 -40.5
q56 0 104 18.5t88.5 56.5t64 106t23.5 159v110q-19 -50 -76 -85.5t-182 -59.5q-112 -21 -165.5 -58.5t-53.5 -101.5z" />
    <glyph glyph-name="atilde" unicode="&#xe3;" horiz-adv-x="1126" 
d="M121 735q11 66 43 127t85 113t135 83.5t181 31.5q102 0 180.5 -24t128 -64.5t81.5 -98t44.5 -119t12.5 -133.5v-407q0 -163 16 -244h-242q-6 62 -6 125v49h-2q-15 -36 -38.5 -68t-62.5 -64t-99.5 -50.5t-135.5 -18.5q-173 0 -272.5 91.5t-99.5 224.5q0 43 11 80t27 65.5
t44 53t53.5 41.5t63.5 32t65.5 23.5t69.5 17t65 12.5t61.5 9.5t51.5 7.5q107 16 151.5 44t44.5 93q0 63 -56 100t-153 37q-86 0 -145 -45.5t-78 -124.5h-225zM207 1241q5 101 64 168.5t157 67.5q46 0 95.5 -21t93 -42t75.5 -21q60 0 76 84h152q-6 -106 -63.5 -172
t-149.5 -66q-51 0 -104 20.5t-98 41t-75 20.5q-35 0 -55 -22t-23 -58h-145zM305 297q0 -64 52.5 -104.5t144.5 -40.5q56 0 104 18.5t88.5 56.5t64 106t23.5 159v110q-19 -50 -76 -85.5t-182 -59.5q-112 -21 -165.5 -58.5t-53.5 -101.5z" />
    <glyph glyph-name="adieresis" unicode="&#xe4;" horiz-adv-x="1126" 
d="M121 735q11 66 43 127t85 113t135 83.5t181 31.5q102 0 180.5 -24t128 -64.5t81.5 -98t44.5 -119t12.5 -133.5v-407q0 -163 16 -244h-242q-6 62 -6 125v49h-2q-15 -36 -38.5 -68t-62.5 -64t-99.5 -50.5t-135.5 -18.5q-173 0 -272.5 91.5t-99.5 224.5q0 43 11 80t27 65.5
t44 53t53.5 41.5t63.5 32t65.5 23.5t69.5 17t65 12.5t61.5 9.5t51.5 7.5q107 16 151.5 44t44.5 93q0 63 -56 100t-153 37q-86 0 -145 -45.5t-78 -124.5h-225zM272 1251v226h209v-226h-209zM305 297q0 -64 52.5 -104.5t144.5 -40.5q56 0 104 18.5t88.5 56.5t64 106t23.5 159
v110q-19 -50 -76 -85.5t-182 -59.5q-112 -21 -165.5 -58.5t-53.5 -101.5zM645 1251v226h209v-226h-209z" />
    <glyph glyph-name="aring" unicode="&#xe5;" horiz-adv-x="1126" 
d="M121 735q11 66 43 127t85 113t135 83.5t181 31.5q102 0 180.5 -24t128 -64.5t81.5 -98t44.5 -119t12.5 -133.5v-407q0 -163 16 -244h-242q-6 62 -6 125v49h-2q-15 -36 -38.5 -68t-62.5 -64t-99.5 -50.5t-135.5 -18.5q-173 0 -272.5 91.5t-99.5 224.5q0 43 11 80t27 65.5
t44 53t53.5 41.5t63.5 32t65.5 23.5t69.5 17t65 12.5t61.5 9.5t51.5 7.5q107 16 151.5 44t44.5 93q0 63 -56 100t-153 37q-86 0 -145 -45.5t-78 -124.5h-225zM305 297q0 -64 52.5 -104.5t144.5 -40.5q56 0 104 18.5t88.5 56.5t64 106t23.5 159v110q-19 -50 -76 -85.5
t-182 -59.5q-112 -21 -165.5 -58.5t-53.5 -101.5zM338 1376q0 92 67 157.5t158 65.5t158 -65.5t67 -157.5q0 -93 -67 -159t-158 -66t-158 66t-67 159zM469 1374q0 -41 26.5 -68.5t67.5 -27.5t67.5 27.5t26.5 68.5t-26.5 67.5t-67.5 26.5t-67.5 -26.5t-26.5 -67.5z" />
    <glyph glyph-name="ae" unicode="&#xe6;" horiz-adv-x="1822" 
d="M70 289q0 42 10.5 79t26.5 65t43 52.5t52 41.5t62 32.5t64 24t67.5 18t63.5 13.5t60 10t50 8q102 19 142.5 49t40.5 86q0 63 -54 100t-149 37q-85 0 -139.5 -44.5t-73.5 -123.5h-221q7 47 27 94.5t56 94.5t83.5 83t116 58.5t147.5 22.5q268 0 360 -187q126 184 367 184
q102 0 184 -31.5t136.5 -85t91.5 -128t53 -157.5t16 -175q0 -5 1 -19.5t1 -23.5h-770q10 -144 85.5 -224.5t195.5 -80.5q177 0 231 151h236q-46 -163 -165.5 -252.5t-297.5 -89.5q-289 0 -406 234q-62 -115 -171 -173.5t-251 -58.5q-175 0 -273.5 91.5t-98.5 224.5zM305 297
q0 -66 46 -105.5t134 -39.5q121 0 196 81t75 250v111q-25 -47 -75 -80t-167 -55q-107 -22 -158 -61t-51 -101zM987 631h535q-13 124 -74 198t-178 74t-191 -74t-92 -198z" />
    <glyph glyph-name="ccedilla" unicode="&#xe7;" horiz-adv-x="1177" 
d="M1106 344q-38 -176 -162.5 -273t-310.5 -100l-74 -80l4 -4q19 13 64 13q80 -2 132 -41t52 -111q0 -49 -24 -86t-63.5 -57t-82.5 -29.5t-88 -9.5q-106 0 -191 35l35 110q58 -30 121 -30q46 0 79.5 14t33.5 43q0 27 -23.5 42t-62.5 15q-25 0 -72 -14l-63 84l102 115
q-202 34 -326.5 181.5t-124.5 366.5q0 167 72.5 295t199 196t285.5 68q193 0 321 -99.5t159 -264.5h-226q-67 176 -258 176q-143 0 -231 -106t-88 -265q0 -158 87.5 -262t231.5 -104q99 0 167.5 46t97.5 136h227z" />
    <glyph glyph-name="egrave" unicode="&#xe8;" horiz-adv-x="1173" 
d="M1090 313q-46 -161 -176.5 -251.5t-319.5 -90.5q-238 0 -385.5 155.5t-147.5 405.5q0 241 151 398t382 157q131 0 231.5 -47.5t160 -130t89.5 -183.5t31 -218q0 -27 -2 -45h-815q13 -139 96 -220t209 -81q95 0 164 38t96 113h236zM276 1462h275l182 -268h-176zM291 631
h581q-11 121 -81.5 196.5t-196.5 75.5q-125 0 -205.5 -73.5t-97.5 -198.5z" />
    <glyph glyph-name="eacute" unicode="&#xe9;" horiz-adv-x="1173" 
d="M1090 313q-46 -161 -176.5 -251.5t-319.5 -90.5q-238 0 -385.5 155.5t-147.5 405.5q0 241 151 398t382 157q131 0 231.5 -47.5t160 -130t89.5 -183.5t31 -218q0 -27 -2 -45h-815q13 -139 96 -220t209 -81q95 0 164 38t96 113h236zM291 631h581q-11 121 -81.5 196.5
t-196.5 75.5q-125 0 -205.5 -73.5t-97.5 -198.5zM467 1194l182 268h275l-281 -268h-176z" />
    <glyph glyph-name="ecircumflex" unicode="&#xea;" horiz-adv-x="1173" 
d="M1090 313q-46 -161 -176.5 -251.5t-319.5 -90.5q-238 0 -385.5 155.5t-147.5 405.5q0 241 151 398t382 157q131 0 231.5 -47.5t160 -130t89.5 -183.5t31 -218q0 -27 -2 -45h-815q13 -139 96 -220t209 -81q95 0 164 38t96 113h236zM256 1198l229 264h215l232 -264h-215
l-125 152l-123 -152h-213zM291 631h581q-11 121 -81.5 196.5t-196.5 75.5q-125 0 -205.5 -73.5t-97.5 -198.5z" />
    <glyph glyph-name="edieresis" unicode="&#xeb;" horiz-adv-x="1173" 
d="M1090 313q-46 -161 -176.5 -251.5t-319.5 -90.5q-238 0 -385.5 155.5t-147.5 405.5q0 241 151 398t382 157q131 0 231.5 -47.5t160 -130t89.5 -183.5t31 -218q0 -27 -2 -45h-815q13 -139 96 -220t209 -81q95 0 164 38t96 113h236zM291 631h581q-11 121 -81.5 196.5
t-196.5 75.5q-125 0 -205.5 -73.5t-97.5 -198.5zM301 1237v225h209v-225h-209zM674 1237v225h209v-225h-209z" />
    <glyph glyph-name="igrave" unicode="&#xec;" horiz-adv-x="489" 
d="M127 0v1059h238v-1059h-238zM-72 1462h275l182 -268h-176z" />
    <glyph glyph-name="iacute" unicode="&#xed;" horiz-adv-x="489" 
d="M127 0v1059h238v-1059h-238zM119 1194l182 268h274l-280 -268h-176z" />
    <glyph glyph-name="icircumflex" unicode="&#xee;" horiz-adv-x="489" 
d="M127 0v1059h238v-1059h-238zM-92 1198l229 264h215l232 -264h-215l-125 152l-123 -152h-213z" />
    <glyph glyph-name="idieresis" unicode="&#xef;" horiz-adv-x="489" 
d="M127 0v1059h238v-1059h-238zM-47 1237v225h209v-225h-209zM326 1237v225h209v-225h-209z" />
    <glyph glyph-name="eth" unicode="&#xf0;" horiz-adv-x="1230" 
d="M330 1280l174 84q-98 76 -172 109l213 124q133 -98 172 -131l231 111l51 -102l-188 -91q186 -173 272 -364.5t86 -454.5q0 -268 -149.5 -430t-401.5 -162q-251 0 -404 160t-153 416q0 151 62 274.5t177.5 196t262.5 72.5q92 0 159.5 -24.5t123.5 -80.5q-33 65 -99 143
t-147 152l-219 -104zM305 549q0 -174 88.5 -277.5t224.5 -103.5q137 0 226.5 104t89.5 277q0 96 -34 173t-109 126t-181 49q-146 0 -225.5 -95t-79.5 -253z" />
    <glyph glyph-name="ntilde" unicode="&#xf1;" horiz-adv-x="1175" 
d="M127 0v1059h233v-187q98 215 318 215q100 0 174.5 -31.5t119 -90t66 -134t21.5 -169.5v-662h-236v612q0 271 -202 271q-115 0 -185.5 -100t-70.5 -291v-492h-238zM229 1227q5 101 64.5 168t157.5 67q46 0 95.5 -21t93 -42t75.5 -21q60 0 76 84h151q-6 -106 -63.5 -171.5
t-149.5 -65.5q-51 0 -104 20.5t-97.5 41t-74.5 20.5q-35 0 -55 -22t-23 -58h-146z" />
    <glyph glyph-name="ograve" unicode="&#xf2;" horiz-adv-x="1212" 
d="M608 -29q-155 0 -279.5 69.5t-196 197t-71.5 290.5t71.5 291t196 198t279.5 70q154 0 278.5 -70t195.5 -198t71 -291t-71 -290.5t-195 -197t-279 -69.5zM291 1462h274l183 -268h-177zM293 528q0 -154 87.5 -259t227.5 -105q138 0 226 105t88 259q0 155 -87.5 261
t-226.5 106q-140 0 -227.5 -105.5t-87.5 -261.5z" />
    <glyph glyph-name="oacute" unicode="&#xf3;" horiz-adv-x="1212" 
d="M608 -29q-155 0 -279.5 69.5t-196 197t-71.5 290.5t71.5 291t196 198t279.5 70q154 0 278.5 -70t195.5 -198t71 -291t-71 -290.5t-195 -197t-279 -69.5zM293 528q0 -154 87.5 -259t227.5 -105q138 0 226 105t88 259q0 155 -87.5 261t-226.5 106q-140 0 -227.5 -105.5
t-87.5 -261.5zM483 1194l183 268h274l-281 -268h-176z" />
    <glyph glyph-name="ocircumflex" unicode="&#xf4;" horiz-adv-x="1212" 
d="M608 -29q-155 0 -279.5 69.5t-196 197t-71.5 290.5t71.5 291t196 198t279.5 70q154 0 278.5 -70t195.5 -198t71 -291t-71 -290.5t-195 -197t-279 -69.5zM270 1198l230 264h215l231 -264h-215l-125 152l-123 -152h-213zM293 528q0 -154 87.5 -259t227.5 -105
q138 0 226 105t88 259q0 155 -87.5 261t-226.5 106q-140 0 -227.5 -105.5t-87.5 -261.5z" />
    <glyph glyph-name="otilde" unicode="&#xf5;" horiz-adv-x="1212" 
d="M608 -29q-155 0 -279.5 69.5t-196 197t-71.5 290.5t71.5 291t196 198t279.5 70q154 0 278.5 -70t195.5 -198t71 -291t-71 -290.5t-195 -197t-279 -69.5zM250 1227q5 101 64 168t157 67q46 0 95.5 -21t93 -42t75.5 -21q60 0 76 84h152q-6 -106 -63.5 -171.5t-149.5 -65.5
q-51 0 -104 20.5t-98 41t-75 20.5q-35 0 -55 -22t-23 -58h-145zM293 528q0 -154 87.5 -259t227.5 -105q138 0 226 105t88 259q0 155 -87.5 261t-226.5 106q-140 0 -227.5 -105.5t-87.5 -261.5z" />
    <glyph glyph-name="odieresis" unicode="&#xf6;" horiz-adv-x="1212" 
d="M608 -29q-155 0 -279.5 69.5t-196 197t-71.5 290.5t71.5 291t196 198t279.5 70q154 0 278.5 -70t195.5 -198t71 -291t-71 -290.5t-195 -197t-279 -69.5zM293 528q0 -154 87.5 -259t227.5 -105q138 0 226 105t88 259q0 155 -87.5 261t-226.5 106q-140 0 -227.5 -105.5
t-87.5 -261.5zM315 1237v225h209v-225h-209zM688 1237v225h209v-225h-209z" />
    <glyph glyph-name="divide" unicode="&#xf7;" horiz-adv-x="1265" 
d="M494 154q0 59 40.5 100t100.5 41q58 0 98.5 -41t40.5 -100q0 -53 -42 -96.5t-95 -43.5q-60 0 -101.5 41.5t-41.5 98.5zM111 436v182h1046v-182h-1046zM494 899q0 59 40.5 99t100.5 40q57 0 98 -41t41 -98q0 -53 -42 -97t-95 -44q-59 0 -101 42t-42 99z" />
    <glyph glyph-name="oslash" unicode="&#xf8;" horiz-adv-x="1214" 
d="M608 -29q-183 0 -327 101l-99 -107l-96 82l102 111q-127 152 -127 370q0 163 71.5 291t196 198t279.5 70q192 0 332 -106l102 113l91 -90l-101 -111q121 -150 121 -365q0 -163 -71 -290.5t-195 -197t-279 -69.5zM293 528q0 -114 49 -202l457 499q-79 70 -191 70
q-140 0 -227.5 -105.5t-87.5 -261.5zM422 227q82 -63 186 -63q138 0 226 105t88 259q0 109 -45 197z" />
    <glyph glyph-name="ugrave" unicode="&#xf9;" horiz-adv-x="1175" 
d="M119 397v662h235v-613q0 -270 203 -270q114 0 185 100t71 291v492h238v-1059h-234v186q-101 -215 -317 -215q-101 0 -175.5 32t-119 90t-65.5 134t-21 170zM272 1462h275l182 -268h-176z" />
    <glyph glyph-name="uacute" unicode="&#xfa;" horiz-adv-x="1175" 
d="M119 397v662h235v-613q0 -270 203 -270q114 0 185 100t71 291v492h238v-1059h-234v186q-101 -215 -317 -215q-101 0 -175.5 32t-119 90t-65.5 134t-21 170zM465 1194l182 268h275l-281 -268h-176z" />
    <glyph glyph-name="ucircumflex" unicode="&#xfb;" horiz-adv-x="1175" 
d="M119 397v662h235v-613q0 -270 203 -270q114 0 185 100t71 291v492h238v-1059h-234v186q-101 -215 -317 -215q-101 0 -175.5 32t-119 90t-65.5 134t-21 170zM254 1198l229 264h215l232 -264h-215l-125 152l-123 -152h-213z" />
    <glyph glyph-name="udieresis" unicode="&#xfc;" horiz-adv-x="1175" 
d="M119 397v662h235v-613q0 -270 203 -270q114 0 185 100t71 291v492h238v-1059h-234v186q-101 -215 -317 -215q-101 0 -175.5 32t-119 90t-65.5 134t-21 170zM299 1237v225h209v-225h-209zM672 1237v225h209v-225h-209z" />
    <glyph glyph-name="yacute" unicode="&#xfd;" horiz-adv-x="1083" 
d="M264 1059q49 -140 145.5 -406.5t145.5 -406.5h4q45 149 141 445.5t119 367.5h250q-136 -379 -238.5 -650.5t-228.5 -617.5q-37 -99 -101.5 -150t-168.5 -51h-182v189h116q61 0 89 25.5t48 86.5l33 84q-84 217 -225 575.5t-199 508.5h252zM416 1194l182 268h274l-280 -268
h-176z" />
    <glyph glyph-name="thorn" unicode="&#xfe;" horiz-adv-x="1261" 
d="M371 -408h-244v1870h242v-594h2q30 84 120.5 150.5t219.5 66.5q218 0 354.5 -152t136.5 -401q0 -251 -137.5 -405t-355.5 -154q-126 0 -214.5 64t-121.5 145h-2v-590zM352 532q0 -74 19 -139t55.5 -117t96.5 -82t136 -30q146 0 226 102.5t80 265.5q0 159 -81 261
t-225 102q-74 0 -134 -30.5t-97 -81.5t-56.5 -115.5t-19.5 -135.5z" />
    <glyph glyph-name="ydieresis" unicode="&#xff;" horiz-adv-x="1083" 
d="M264 1059q49 -140 145.5 -406.5t145.5 -406.5h4q45 149 141 445.5t119 367.5h250q-136 -379 -238.5 -650.5t-228.5 -617.5q-37 -99 -101.5 -150t-168.5 -51h-182v189h116q61 0 89 25.5t48 86.5l33 84q-84 217 -225 575.5t-199 508.5h252zM250 1237v225h209v-225h-209z
M623 1237v225h208v-225h-208z" />
    <glyph glyph-name="Amacron" unicode="&#x100;" horiz-adv-x="1437" 
d="M287 0h-258l536 1462h309l535 -1462h-260l-141 397h-580zM395 1622v127h647v-127h-647zM498 596h440l-217 641h-6z" />
    <glyph glyph-name="amacron" unicode="&#x101;" horiz-adv-x="1126" 
d="M121 735q11 66 43 127t85 113t135 83.5t181 31.5q102 0 180.5 -24t128 -64.5t81.5 -98t44.5 -119t12.5 -133.5v-407q0 -163 16 -244h-242q-6 62 -6 125v49h-2q-15 -36 -38.5 -68t-62.5 -64t-99.5 -50.5t-135.5 -18.5q-173 0 -272.5 91.5t-99.5 224.5q0 43 11 80t27 65.5
t44 53t53.5 41.5t63.5 32t65.5 23.5t69.5 17t65 12.5t61.5 9.5t51.5 7.5q107 16 151.5 44t44.5 93q0 63 -56 100t-153 37q-86 0 -145 -45.5t-78 -124.5h-225zM209 1282v121h713v-121h-713zM305 297q0 -64 52.5 -104.5t144.5 -40.5q56 0 104 18.5t88.5 56.5t64 106t23.5 159
v110q-19 -50 -76 -85.5t-182 -59.5q-112 -21 -165.5 -58.5t-53.5 -101.5z" />
    <glyph glyph-name="Abreve" unicode="&#x102;" horiz-adv-x="1437" 
d="M287 0h-258l536 1462h309l535 -1462h-260l-141 397h-580zM412 1802h170q8 -46 46.5 -76t92.5 -30q52 0 90.5 30t44.5 76h172q-20 -111 -105 -181.5t-202 -70.5q-119 0 -204 70.5t-105 181.5zM498 596h440l-217 641h-6z" />
    <glyph glyph-name="abreve" unicode="&#x103;" horiz-adv-x="1126" 
d="M121 735q11 66 43 127t85 113t135 83.5t181 31.5q102 0 180.5 -24t128 -64.5t81.5 -98t44.5 -119t12.5 -133.5v-407q0 -163 16 -244h-242q-6 62 -6 125v49h-2q-15 -36 -38.5 -68t-62.5 -64t-99.5 -50.5t-135.5 -18.5q-173 0 -272.5 91.5t-99.5 224.5q0 43 11 80t27 65.5
t44 53t53.5 41.5t63.5 32t65.5 23.5t69.5 17t65 12.5t61.5 9.5t51.5 7.5q107 16 151.5 44t44.5 93q0 63 -56 100t-153 37q-86 0 -145 -45.5t-78 -124.5h-225zM262 1477h168q5 -61 40 -96t99 -35q65 0 100 35t38 96h172q-9 -123 -95 -200t-215 -77q-127 0 -212.5 77
t-94.5 200zM305 297q0 -64 52.5 -104.5t144.5 -40.5q56 0 104 18.5t88.5 56.5t64 106t23.5 159v110q-19 -50 -76 -85.5t-182 -59.5q-112 -21 -165.5 -58.5t-53.5 -101.5z" />
    <glyph glyph-name="Aogonek" unicode="&#x104;" horiz-adv-x="1437" 
d="M287 0h-258l536 1462h309l535 -1462q-94 -53 -149.5 -107t-55.5 -100q0 -51 29 -70.5t100 -19.5l-10 -137q-313 0 -313 190q-1 69 45 126t133 118h-39l-141 397h-580zM498 596h440l-217 641h-6z" />
    <glyph glyph-name="aogonek" unicode="&#x105;" horiz-adv-x="1128" 
d="M121 735q11 66 43 127t85 113t135 83.5t181 31.5q102 0 180.5 -24t128 -64.5t81.5 -98t44.5 -119t12.5 -133.5v-407q0 -163 16 -244h-6q-178 -105 -188 -207q-6 -50 29 -73t106 -23l-8 -131q-299 0 -302 190q0 71 40.5 129.5t119.5 114.5h-33q-6 62 -6 125v49h-2
q-15 -36 -38.5 -68t-62.5 -64t-99.5 -50.5t-135.5 -18.5q-173 0 -272.5 91.5t-99.5 224.5q0 43 11 80t27 65.5t44 53t53.5 41.5t63.5 32t65.5 23.5t69.5 17t65 12.5t61.5 9.5t51.5 7.5q107 16 151.5 44t44.5 93q0 63 -56 100t-153 37q-86 0 -145 -45.5t-78 -124.5h-225z
M305 297q0 -64 52.5 -104.5t144.5 -40.5q56 0 104 18.5t88.5 56.5t64 106t23.5 159v110q-19 -50 -76 -85.5t-182 -59.5q-112 -21 -165.5 -58.5t-53.5 -101.5z" />
    <glyph glyph-name="Cacute" unicode="&#x106;" horiz-adv-x="1564" 
d="M1491 449q-51 -212 -229.5 -344t-446.5 -132q-224 0 -393.5 99t-258.5 270.5t-89 388.5q0 215 89.5 386.5t260.5 271.5t395 100q265 0 433.5 -126t240.5 -349h-248q-58 133 -162 199.5t-264 66.5q-151 0 -265.5 -74t-173 -197.5t-58.5 -277.5t58 -277.5t172.5 -197.5
t266.5 -74q166 0 274 71t154 196h244zM641 1579l242 223h299l-303 -223h-238z" />
    <glyph glyph-name="cacute" unicode="&#x107;" horiz-adv-x="1177" 
d="M1106 344q-38 -179 -167 -276t-321 -97q-242 0 -399.5 154t-157.5 403q0 167 72.5 295t199 196t285.5 68q193 0 321 -99.5t159 -264.5h-226q-67 176 -258 176q-143 0 -231 -106t-88 -265q0 -158 87.5 -262t231.5 -104q99 0 167.5 46t97.5 136h227zM487 1194l183 268h274
l-280 -268h-177z" />
    <glyph glyph-name="Ccircumflex" unicode="&#x108;" horiz-adv-x="1564" 
d="M1491 449q-51 -212 -229.5 -344t-446.5 -132q-224 0 -393.5 99t-258.5 270.5t-89 388.5q0 215 89.5 386.5t260.5 271.5t395 100q265 0 433.5 -126t240.5 -349h-248q-58 133 -162 199.5t-264 66.5q-151 0 -265.5 -74t-173 -197.5t-58.5 -277.5t58 -277.5t172.5 -197.5
t266.5 -74q166 0 274 71t154 196h244zM477 1569l211 235h266l209 -235h-233l-111 125l-108 -125h-234z" />
    <glyph glyph-name="ccircumflex" unicode="&#x109;" horiz-adv-x="1177" 
d="M1106 344q-38 -179 -167 -276t-321 -97q-242 0 -399.5 154t-157.5 403q0 167 72.5 295t199 196t285.5 68q193 0 321 -99.5t159 -264.5h-226q-67 176 -258 176q-143 0 -231 -106t-88 -265q0 -158 87.5 -262t231.5 -104q99 0 167.5 46t97.5 136h227zM274 1198l230 264h215
l231 -264h-215l-125 152l-123 -152h-213z" />
    <glyph glyph-name="Cdotaccent" unicode="&#x10a;" horiz-adv-x="1564" 
d="M1491 449q-51 -212 -229.5 -344t-446.5 -132q-224 0 -393.5 99t-258.5 270.5t-89 388.5q0 215 89.5 386.5t260.5 271.5t395 100q265 0 433.5 -126t240.5 -349h-248q-58 133 -162 199.5t-264 66.5q-151 0 -265.5 -74t-173 -197.5t-58.5 -277.5t58 -277.5t172.5 -197.5
t266.5 -74q166 0 274 71t154 196h244zM715 1585v217h217v-217h-217z" />
    <glyph glyph-name="cdotaccent" unicode="&#x10b;" horiz-adv-x="1177" 
d="M1106 344q-38 -179 -167 -276t-321 -97q-242 0 -399.5 154t-157.5 403q0 167 72.5 295t199 196t285.5 68q193 0 321 -99.5t159 -264.5h-226q-67 176 -258 176q-143 0 -231 -106t-88 -265q0 -158 87.5 -262t231.5 -104q99 0 167.5 46t97.5 136h227zM508 1237v225h205v-225
h-205z" />
    <glyph glyph-name="Ccaron" unicode="&#x10c;" horiz-adv-x="1564" 
d="M1491 449q-51 -212 -229.5 -344t-446.5 -132q-224 0 -393.5 99t-258.5 270.5t-89 388.5q0 215 89.5 386.5t260.5 271.5t395 100q265 0 433.5 -126t240.5 -349h-248q-58 133 -162 199.5t-264 66.5q-151 0 -265.5 -74t-173 -197.5t-58.5 -277.5t58 -277.5t172.5 -197.5
t266.5 -74q166 0 274 71t154 196h244zM471 1804h234l108 -125l111 125h233l-209 -235h-266z" />
    <glyph glyph-name="ccaron" unicode="&#x10d;" horiz-adv-x="1177" 
d="M1106 344q-38 -179 -167 -276t-321 -97q-242 0 -399.5 154t-157.5 403q0 167 72.5 295t199 196t285.5 68q193 0 321 -99.5t159 -264.5h-226q-67 176 -258 176q-143 0 -231 -106t-88 -265q0 -158 87.5 -262t231.5 -104q99 0 167.5 46t97.5 136h227zM274 1462h213l123 -151
l125 151h215l-231 -264h-215z" />
    <glyph glyph-name="Dcaron" unicode="&#x10e;" horiz-adv-x="1441" 
d="M600 1462q368 0 569 -189.5t201 -520.5q0 -223 -88 -392t-261.5 -264.5t-412.5 -95.5h-456v1462h448zM338 1804h233l109 -125l111 125h233l-209 -235h-266zM399 209h211q229 0 369.5 140.5t140.5 402.5q0 125 -38 222t-107 157.5t-162 91t-207 30.5h-207v-1044z" />
    <glyph glyph-name="dcaron" unicode="&#x10f;" horiz-adv-x="1261" 
d="M553 1085q127 0 217.5 -66t122.5 -151h2v594h242v-1462h-246v182h-2q-33 -81 -121.5 -145t-214.5 -64q-218 0 -355 154t-137 405q0 249 136.5 401t355.5 152zM297 532q0 -163 79.5 -265.5t225.5 -102.5q76 0 136 30t96.5 82t55.5 117t19 139q0 71 -19.5 135.5
t-56.5 115.5t-97 81.5t-134 30.5q-143 0 -224 -102t-81 -261zM1237 1137l12 325h217l-84 -325h-145z" />
    <glyph glyph-name="Dcroat" unicode="&#x110;" horiz-adv-x="1441" 
d="M600 1462q368 0 569 -189.5t201 -520.5q0 -223 -88 -392t-261.5 -264.5t-412.5 -95.5h-456v625h-136v166h136v671h448zM399 209h211q229 0 369.5 140.5t140.5 402.5q0 125 -38 222t-107 157.5t-162 91t-207 30.5h-207v-462h269v-166h-269v-416z" />
    <glyph glyph-name="dcroat" unicode="&#x111;" horiz-adv-x="1261" 
d="M553 1085q127 0 217.5 -66t122.5 -151h2v326h-289v115h289v153h242v-153h200v-115h-200v-1194h-246v182h-2q-33 -81 -121.5 -145t-214.5 -64q-218 0 -355 154t-137 405q0 249 136.5 401t355.5 152zM297 532q0 -163 79.5 -265.5t225.5 -102.5q76 0 136 30t96.5 82
t55.5 117t19 139q0 71 -19.5 135.5t-56.5 115.5t-97 81.5t-134 30.5q-143 0 -224 -102t-81 -261z" />
    <glyph glyph-name="Emacron" unicode="&#x112;" horiz-adv-x="1208" 
d="M1087 1462v-209h-688v-409h645v-207h-645v-428h695v-209h-942v1462h935zM272 1622v127h648v-127h-648z" />
    <glyph glyph-name="emacron" unicode="&#x113;" horiz-adv-x="1173" 
d="M1090 313q-46 -161 -176.5 -251.5t-319.5 -90.5q-238 0 -385.5 155.5t-147.5 405.5q0 241 151 398t382 157q131 0 231.5 -47.5t160 -130t89.5 -183.5t31 -218q0 -27 -2 -45h-815q13 -139 96 -220t209 -81q95 0 164 38t96 113h236zM236 1268v121h712v-121h-712zM291 631
h581q-11 121 -81.5 196.5t-196.5 75.5q-125 0 -205.5 -73.5t-97.5 -198.5z" />
    <glyph glyph-name="Ebreve" unicode="&#x114;" horiz-adv-x="1208" 
d="M1087 1462v-209h-688v-409h645v-207h-645v-428h695v-209h-942v1462h935zM289 1802h170q8 -46 46.5 -76t92.5 -30q52 0 90.5 30t44.5 76h172q-20 -111 -105 -181.5t-202 -70.5q-119 0 -204 70.5t-105 181.5z" />
    <glyph glyph-name="ebreve" unicode="&#x115;" horiz-adv-x="1173" 
d="M1090 313q-46 -161 -176.5 -251.5t-319.5 -90.5q-238 0 -385.5 155.5t-147.5 405.5q0 241 151 398t382 157q131 0 231.5 -47.5t160 -130t89.5 -183.5t31 -218q0 -27 -2 -45h-815q13 -139 96 -220t209 -81q95 0 164 38t96 113h236zM289 1462h168q5 -61 40 -96t99 -35
q65 0 99.5 35t37.5 96h172q-9 -123 -94.5 -199.5t-214.5 -76.5q-128 0 -213 76.5t-94 199.5zM291 631h581q-11 121 -81.5 196.5t-196.5 75.5q-125 0 -205.5 -73.5t-97.5 -198.5z" />
    <glyph glyph-name="Edotaccent" unicode="&#x116;" horiz-adv-x="1208" 
d="M1087 1462v-209h-688v-409h645v-207h-645v-428h695v-209h-942v1462h935zM489 1585v217h218v-217h-218z" />
    <glyph glyph-name="edotaccent" unicode="&#x117;" horiz-adv-x="1173" 
d="M1090 313q-46 -161 -176.5 -251.5t-319.5 -90.5q-238 0 -385.5 155.5t-147.5 405.5q0 241 151 398t382 157q131 0 231.5 -47.5t160 -130t89.5 -183.5t31 -218q0 -27 -2 -45h-815q13 -139 96 -220t209 -81q95 0 164 38t96 113h236zM291 631h581q-11 121 -81.5 196.5
t-196.5 75.5q-125 0 -205.5 -73.5t-97.5 -198.5zM489 1237v225h205v-225h-205z" />
    <glyph glyph-name="Eogonek" unicode="&#x118;" horiz-adv-x="1208" 
d="M1087 1462v-209h-688v-409h645v-207h-645v-428h695v-209q-94 -54 -149.5 -108t-55.5 -99q0 -51 29 -70.5t100 -19.5l-10 -137q-314 0 -314 190q-1 69 45 126t133 118h-720v1462h935z" />
    <glyph glyph-name="eogonek" unicode="&#x119;" horiz-adv-x="1173" 
d="M1090 313q-33 -121 -116 -202t-204 -115q-166 -102 -176 -201q-6 -50 29 -73t106 -23l-8 -131q-298 0 -301 190q0 118 121 215q-216 19 -348 171.5t-132 387.5q0 241 151 398t382 157q131 0 231.5 -47.5t160 -130t89.5 -183.5t31 -218q0 -27 -2 -45h-815q13 -139 96 -220
t209 -81q95 0 164 38t96 113h236zM291 631h581q-11 121 -81.5 196.5t-196.5 75.5q-125 0 -205.5 -73.5t-97.5 -198.5z" />
    <glyph glyph-name="Ecaron" unicode="&#x11a;" horiz-adv-x="1208" 
d="M1087 1462v-209h-688v-409h645v-207h-645v-428h695v-209h-942v1462h935zM248 1804h233l109 -125l110 125h234l-209 -235h-266z" />
    <glyph glyph-name="ecaron" unicode="&#x11b;" horiz-adv-x="1173" 
d="M1090 313q-46 -161 -176.5 -251.5t-319.5 -90.5q-238 0 -385.5 155.5t-147.5 405.5q0 241 151 398t382 157q131 0 231.5 -47.5t160 -130t89.5 -183.5t31 -218q0 -27 -2 -45h-815q13 -139 96 -220t209 -81q95 0 164 38t96 113h236zM256 1462h213l123 -151l125 151h215
l-232 -264h-215zM291 631h581q-11 121 -81.5 196.5t-196.5 75.5q-125 0 -205.5 -73.5t-97.5 -198.5z" />
    <glyph glyph-name="Gcircumflex" unicode="&#x11c;" horiz-adv-x="1583" 
d="M807 569v193h661l-18 -762h-166l-14 227q-119 -262 -475 -262q-168 0 -306.5 63t-228 169.5t-138 244t-48.5 289.5q0 153 49.5 290t142 243.5t237 169.5t320.5 63q108 0 202 -25t164 -69t125.5 -105t91.5 -130.5t58 -149.5h-247q-88 270 -394 270q-121 0 -218 -45
t-158 -122.5t-93 -177t-32 -212.5t31.5 -212.5t91.5 -177t154.5 -122.5t211.5 -45q89 0 164 22.5t135.5 69t97 124.5t43.5 181zM465 1569l211 235h266l209 -235h-233l-111 125l-109 -125h-233z" />
    <glyph glyph-name="gcircumflex" unicode="&#x11d;" horiz-adv-x="1257" 
d="M887 1059h246v-957q0 -126 -42 -223.5t-115.5 -156.5t-165.5 -89t-198 -30q-211 0 -348.5 100t-157.5 264h234q28 -178 272 -178q129 0 202 71t73 216v129h-2q-82 -207 -332 -207q-219 0 -355.5 150.5t-136.5 396.5q0 245 135 392.5t357 147.5q129 0 214 -56t118 -136h2
v166zM289 1198l229 264h215l232 -264h-215l-125 152l-123 -152h-213zM297 545q0 -97 32 -175.5t103 -129t170 -50.5q64 0 116.5 22t86.5 57.5t57 82.5t33 95t10 98q0 60 -19.5 120t-56 112.5t-96 85t-131.5 32.5q-97 0 -167.5 -50t-104 -128t-33.5 -172z" />
    <glyph glyph-name="Gbreve" unicode="&#x11e;" horiz-adv-x="1583" 
d="M807 569v193h661l-18 -762h-166l-14 227q-119 -262 -475 -262q-168 0 -306.5 63t-228 169.5t-138 244t-48.5 289.5q0 153 49.5 290t142 243.5t237 169.5t320.5 63q108 0 202 -25t164 -69t125.5 -105t91.5 -130.5t58 -149.5h-247q-88 270 -394 270q-121 0 -218 -45
t-158 -122.5t-93 -177t-32 -212.5t31.5 -212.5t91.5 -177t154.5 -122.5t211.5 -45q89 0 164 22.5t135.5 69t97 124.5t43.5 181zM500 1802h170q8 -46 46.5 -76t92.5 -30q52 0 90.5 30t44.5 76h172q-20 -111 -105 -181.5t-202 -70.5q-119 0 -204 70.5t-105 181.5z" />
    <glyph glyph-name="gbreve" unicode="&#x11f;" horiz-adv-x="1257" 
d="M887 1059h246v-957q0 -126 -42 -223.5t-115.5 -156.5t-165.5 -89t-198 -30q-211 0 -348.5 100t-157.5 264h234q28 -178 272 -178q129 0 202 71t73 216v129h-2q-82 -207 -332 -207q-219 0 -355.5 150.5t-136.5 396.5q0 245 135 392.5t357 147.5q129 0 214 -56t118 -136h2
v166zM297 545q0 -97 32 -175.5t103 -129t170 -50.5q64 0 116.5 22t86.5 57.5t57 82.5t33 95t10 98q0 60 -19.5 120t-56 112.5t-96 85t-131.5 32.5q-97 0 -167.5 -50t-104 -128t-33.5 -172zM324 1462h168q5 -61 40 -96t99 -35q65 0 99.5 35t37.5 96h172q-9 -123 -94.5 -199.5
t-214.5 -76.5q-128 0 -213 76.5t-94 199.5z" />
    <glyph glyph-name="Gdotaccent" unicode="&#x120;" horiz-adv-x="1583" 
d="M807 569v193h661l-18 -762h-166l-14 227q-119 -262 -475 -262q-168 0 -306.5 63t-228 169.5t-138 244t-48.5 289.5q0 153 49.5 290t142 243.5t237 169.5t320.5 63q108 0 202 -25t164 -69t125.5 -105t91.5 -130.5t58 -149.5h-247q-88 270 -394 270q-121 0 -218 -45
t-158 -122.5t-93 -177t-32 -212.5t31.5 -212.5t91.5 -177t154.5 -122.5t211.5 -45q89 0 164 22.5t135.5 69t97 124.5t43.5 181zM700 1585v217h218v-217h-218z" />
    <glyph glyph-name="gdotaccent" unicode="&#x121;" horiz-adv-x="1257" 
d="M887 1059h246v-957q0 -126 -42 -223.5t-115.5 -156.5t-165.5 -89t-198 -30q-211 0 -348.5 100t-157.5 264h234q28 -178 272 -178q129 0 202 71t73 216v129h-2q-82 -207 -332 -207q-219 0 -355.5 150.5t-136.5 396.5q0 245 135 392.5t357 147.5q129 0 214 -56t118 -136h2
v166zM297 545q0 -97 32 -175.5t103 -129t170 -50.5q64 0 116.5 22t86.5 57.5t57 82.5t33 95t10 98q0 60 -19.5 120t-56 112.5t-96 85t-131.5 32.5q-97 0 -167.5 -50t-104 -128t-33.5 -172zM522 1237v225h205v-225h-205z" />
    <glyph glyph-name="uni0122" unicode="&#x122;" horiz-adv-x="1583" 
d="M807 569v193h661l-18 -762h-166l-14 227q-119 -262 -475 -262q-168 0 -306.5 63t-228 169.5t-138 244t-48.5 289.5q0 153 49.5 290t142 243.5t237 169.5t320.5 63q108 0 202 -25t164 -69t125.5 -105t91.5 -130.5t58 -149.5h-247q-88 270 -394 270q-121 0 -218 -45
t-158 -122.5t-93 -177t-32 -212.5t31.5 -212.5t91.5 -177t154.5 -122.5t211.5 -45q89 0 164 22.5t135.5 69t97 124.5t43.5 181zM678 -289v191h237v-168q0 -86 -56 -128t-157 -42v71q41 7 62.5 22t25 26t3.5 28h-115z" />
    <glyph glyph-name="uni0123" unicode="&#x123;" horiz-adv-x="1257" 
d="M887 1059h246v-957q0 -126 -42 -223.5t-115.5 -156.5t-165.5 -89t-198 -30q-211 0 -348.5 100t-157.5 264h234q28 -178 272 -178q129 0 202 71t73 216v129h-2q-82 -207 -332 -207q-219 0 -355.5 150.5t-136.5 396.5q0 245 135 392.5t357 147.5q129 0 214 -56t118 -136h2
v166zM297 545q0 -97 32 -175.5t103 -129t170 -50.5q64 0 116.5 22t86.5 57.5t57 82.5t33 95t10 98q0 60 -19.5 120t-56 112.5t-96 85t-131.5 32.5q-97 0 -167.5 -50t-104 -128t-33.5 -172zM506 1237v170q0 86 56 128t157 42v-72q-31 -6 -51 -15t-27.5 -20.5t-9.5 -19.5
t-2 -20h114v-193h-237z" />
    <glyph glyph-name="Hcircumflex" unicode="&#x124;" horiz-adv-x="1441" 
d="M1044 1462h248v-1462h-248v629h-645v-629h-247v1462h247v-624h645v624zM379 1569l211 235h266l209 -235h-234l-110 125l-109 -125h-233z" />
    <glyph glyph-name="hcircumflex" unicode="&#x125;" horiz-adv-x="1175" 
d="M127 0v1462h233v-590q98 215 318 215q100 0 174.5 -31.5t119 -90t66 -134t21.5 -169.5v-662h-236v612q0 271 -202 271q-115 0 -185.5 -100t-70.5 -291v-492h-238zM-100 1569l211 235h266l209 -235h-234l-110 125l-109 -125h-233z" />
    <glyph glyph-name="Hbar" unicode="&#x126;" horiz-adv-x="1441" 
d="M1044 1462h248v-250h103v-116h-103v-1096h-248v629h-645v-629h-247v1096h-105v116h105v250h247v-250h645v250zM399 838h645v258h-645v-258z" />
    <glyph glyph-name="hbar" unicode="&#x127;" horiz-adv-x="1175" 
d="M127 0v1194h-131v115h131v153h233v-153h334v-115h-334v-322q98 215 318 215q100 0 174.5 -31.5t119 -90t66 -134t21.5 -169.5v-662h-236v612q0 271 -202 271q-115 0 -185.5 -100t-70.5 -291v-492h-238z" />
    <glyph glyph-name="Itilde" unicode="&#x128;" horiz-adv-x="548" 
d="M152 1462h247v-1462h-247v1462zM-84 1565q5 102 64 168.5t157 66.5q58 0 143.5 -41t120.5 -41q60 0 76 84h154q-8 -106 -65.5 -171.5t-149.5 -65.5q-51 0 -103.5 20.5t-97 41t-74.5 20.5q-37 0 -57 -22.5t-23 -59.5h-145z" />
    <glyph glyph-name="itilde" unicode="&#x129;" horiz-adv-x="489" 
d="M127 0v1059h238v-1059h-238zM-113 1227q5 101 64.5 168t157.5 67q46 0 95.5 -21t93 -42t75.5 -21q60 0 76 84h151q-6 -106 -63.5 -171.5t-149.5 -65.5q-51 0 -104 20.5t-97.5 41t-74.5 20.5q-35 0 -55 -22t-23 -58h-146z" />
    <glyph glyph-name="Imacron" unicode="&#x12a;" horiz-adv-x="548" 
d="M152 1462h247v-1462h-247v1462zM-49 1622v127h647v-127h-647z" />
    <glyph glyph-name="imacron" unicode="&#x12b;" horiz-adv-x="489" 
d="M127 0v1059h238v-1059h-238zM-113 1268v121h713v-121h-713z" />
    <glyph glyph-name="Ibreve" unicode="&#x12c;" horiz-adv-x="548" 
d="M152 1462h247v-1462h-247v1462zM-33 1802h170q8 -46 46.5 -76t92.5 -30q53 0 91.5 30t44.5 76h172q-20 -111 -105 -181.5t-203 -70.5q-119 0 -204 70.5t-105 181.5z" />
    <glyph glyph-name="ibreve" unicode="&#x12d;" horiz-adv-x="489" 
d="M127 0v1059h238v-1059h-238zM-59 1462h168q5 -61 40 -96t99 -35q65 0 99.5 35t37.5 96h172q-9 -123 -94.5 -199.5t-214.5 -76.5q-128 0 -213 76.5t-94 199.5z" />
    <glyph glyph-name="Iogonek" unicode="&#x12e;" horiz-adv-x="548" 
d="M399 0q-200 -116 -200 -205q0 -51 27.5 -70.5t95.5 -19.5l-9 -137q-303 0 -303 190q-1 69 42.5 125.5t127.5 116.5h-28v1462h247v-1462z" />
    <glyph glyph-name="iogonek" unicode="&#x12f;" horiz-adv-x="489" 
d="M127 0v1059h238v-1059h-3q-178 -105 -188 -207q-6 -50 29 -73t106 -23l-8 -131q-298 0 -301 190q0 71 40.5 129.5t119.5 114.5h-33zM141 1237v225h205v-225h-205z" />
    <glyph glyph-name="Idotaccent" unicode="&#x130;" horiz-adv-x="548" 
d="M152 1462h247v-1462h-247v1462zM168 1585v217h217v-217h-217z" />
    <glyph glyph-name="dotlessi" unicode="&#x131;" horiz-adv-x="489" 
d="M127 0v1059h238v-1059h-238z" />
    <glyph glyph-name="IJ" unicode="&#x132;" horiz-adv-x="1173" 
d="M152 1462h247v-889h-247v889zM156 477h237l4 -82q3 -103 53.5 -162t147.5 -59q56 0 94.5 20t57.5 57t26.5 78t7.5 95v1038h248v-1022q0 -471 -434 -471q-196 0 -317.5 109.5t-122.5 302.5z" />
    <glyph glyph-name="ij" unicode="&#x133;" horiz-adv-x="999" 
d="M377 1229h-248v233h248v-233zM127 0v1059h238v-1059h-238zM444 -403v188h62q76 0 103.5 26.5t27.5 110.5v1137h229v-1147q0 -151 -67.5 -233t-229.5 -82h-125zM625 1229v233h247v-233h-247z" />
    <glyph glyph-name="Jcircumflex" unicode="&#x134;" horiz-adv-x="1081" 
d="M303 395q3 -103 53.5 -162t147.5 -59q56 0 94.5 20t57.5 57t26.5 78t7.5 95v1038h248v-1022q0 -471 -434 -471q-196 0 -318 109.5t-123 302.5l-2 96h238zM471 1569l211 235h266l209 -235h-233l-111 125l-108 -125h-234z" />
    <glyph glyph-name="jcircumflex" unicode="&#x135;" horiz-adv-x="526" 
d="M399 -88q0 -151 -67.5 -233t-229.5 -82h-125v188h62q76 0 103.5 26.5t27.5 110.5v1137h229v-1147zM-53 1198l229 264h215l232 -264h-215l-125 152l-123 -152h-213z" />
    <glyph glyph-name="uni0136" unicode="&#x136;" horiz-adv-x="1357" 
d="M399 0h-247v1462h247v-690l621 690h303l-567 -614l579 -848h-291l-448 676l-197 -209v-467zM612 -289v191h238v-168q0 -86 -56 -128t-157 -42v71q31 6 51 14.5t27.5 20.5t9.5 20t2 21h-115z" />
    <glyph glyph-name="uni0137" unicode="&#x137;" horiz-adv-x="1097" 
d="M365 0h-238v1462h238v-841l417 438h285l-442 -453l454 -606h-284l-330 446l-100 -96v-350zM436 -289v191h238v-168q0 -86 -56 -128t-157 -42v71q31 6 51 14.5t27.5 20.5t9.5 20t2 21h-115z" />
    <glyph glyph-name="kgreenlandic" unicode="&#x138;" horiz-adv-x="1097" 
d="M365 0h-238v1059h238v-467l417 467h285l-432 -467l444 -592h-284l-318 430l-112 -108v-322z" />
    <glyph glyph-name="Lacute" unicode="&#x139;" horiz-adv-x="1146" 
d="M152 1462h247v-1253h688v-209h-935v1462zM174 1579l242 223h299l-303 -223h-238z" />
    <glyph glyph-name="lacute" unicode="&#x13a;" horiz-adv-x="489" 
d="M127 1462h238v-1462h-238v1462zM123 1579l242 223h299l-304 -223h-237z" />
    <glyph glyph-name="uni013B" unicode="&#x13b;" horiz-adv-x="1146" 
d="M152 1462h247v-1253h688v-209h-935v1462zM471 -289v191h238v-168q0 -86 -56 -128t-157 -42v71q31 6 51 14.5t27.5 20.5t9.5 20t2 21h-115z" />
    <glyph glyph-name="uni013C" unicode="&#x13c;" horiz-adv-x="489" 
d="M127 1462h238v-1462h-238v1462zM133 -289v191h238v-168q0 -86 -56 -128t-157 -42v71q31 6 51 14.5t27.5 20.5t9.5 20t2 21h-115z" />
    <glyph glyph-name="Lcaron" unicode="&#x13d;" horiz-adv-x="1146" 
d="M152 1462h247v-1253h688v-209h-935v1462zM557 1040l47 422h225l-133 -422h-139z" />
    <glyph glyph-name="lcaron" unicode="&#x13e;" horiz-adv-x="489" 
d="M127 1462h238v-1462h-238v1462zM465 1137l12 325h217l-84 -325h-145z" />
    <glyph glyph-name="Ldot" unicode="&#x13f;" horiz-adv-x="1146" 
d="M152 1462h247v-1253h688v-209h-935v1462zM770 719v217h217v-217h-217z" />
    <glyph glyph-name="ldot" unicode="&#x140;" horiz-adv-x="686" 
d="M127 1462h238v-1462h-238v1462zM492 625v225h204v-225h-204z" />
    <glyph glyph-name="Lslash" unicode="&#x141;" horiz-adv-x="1146" 
d="M152 1462h247v-645l430 303v-143l-430 -303v-465h688v-209h-935v498l-146 -103v144l146 102v821z" />
    <glyph glyph-name="lslash" unicode="&#x142;" horiz-adv-x="499" 
d="M508 911l-146 -104v-805h-237v635l-127 -92v145l127 92v682h237v-510l144 105z" />
    <glyph glyph-name="Nacute" unicode="&#x143;" horiz-adv-x="1507" 
d="M152 1462h319l487 -848q110 -206 160 -292q-4 218 -4 344v796h244v-1462h-322l-465 797q-41 78 -110 206t-70 130q4 -222 4 -367v-766h-243v1462zM573 1579l242 223h299l-303 -223h-238z" />
    <glyph glyph-name="nacute" unicode="&#x144;" horiz-adv-x="1175" 
d="M127 0v1059h233v-187q98 215 318 215q100 0 174.5 -31.5t119 -90t66 -134t21.5 -169.5v-662h-236v612q0 271 -202 271q-115 0 -185.5 -100t-70.5 -291v-492h-238zM463 1194l182 268h275l-281 -268h-176z" />
    <glyph glyph-name="uni0145" unicode="&#x145;" horiz-adv-x="1507" 
d="M152 1462h319l487 -848q110 -206 160 -292q-4 218 -4 344v796h244v-1462h-322l-465 797q-41 78 -110 206t-70 130q4 -222 4 -367v-766h-243v1462zM643 -289v191h238v-168q0 -86 -56 -128t-157 -42v71q31 6 51 14.5t27.5 20.5t9.5 20t2 21h-115z" />
    <glyph glyph-name="uni0146" unicode="&#x146;" horiz-adv-x="1175" 
d="M127 0v1059h233v-187q98 215 318 215q100 0 174.5 -31.5t119 -90t66 -134t21.5 -169.5v-662h-236v612q0 271 -202 271q-115 0 -185.5 -100t-70.5 -291v-492h-238zM475 -289v191h238v-168q0 -86 -56 -128t-157 -42v71q31 6 51 14.5t27.5 20.5t9.5 20t2 21h-115z" />
    <glyph glyph-name="Ncaron" unicode="&#x147;" horiz-adv-x="1507" 
d="M152 1462h319l487 -848q110 -206 160 -292q-4 218 -4 344v796h244v-1462h-322l-465 797q-41 78 -110 206t-70 130q4 -222 4 -367v-766h-243v1462zM403 1804h234l108 -125l111 125h234l-209 -235h-267z" />
    <glyph glyph-name="ncaron" unicode="&#x148;" horiz-adv-x="1175" 
d="M127 0v1059h233v-187q98 215 318 215q100 0 174.5 -31.5t119 -90t66 -134t21.5 -169.5v-662h-236v612q0 271 -202 271q-115 0 -185.5 -100t-70.5 -291v-492h-238zM250 1462h213l123 -151l125 151h215l-232 -264h-215z" />
    <glyph glyph-name="napostrophe" unicode="&#x149;" horiz-adv-x="1177" 
d="M127 0v1059h233v-187q98 215 318 215q100 0 174.5 -31.5t119 -90t66 -134t21.5 -169.5v-662h-236v612q0 271 -202 271q-115 0 -185.5 -100t-70.5 -291v-492h-238zM-86 1286v182h178v-182l-86 -178h-84l60 178h-68z" />
    <glyph glyph-name="Eng" unicode="&#x14a;" horiz-adv-x="1507" 
d="M152 1462h319l487 -848q110 -206 160 -292q-4 218 -4 344v796h244v-1462h-2q0 -196 -111.5 -312.5t-318.5 -117.5v197q102 1 145.5 59t48.5 174h-84l-465 797q-41 78 -110 206t-70 130q4 -222 4 -367v-766h-243v1462z" />
    <glyph glyph-name="eng" unicode="&#x14b;" horiz-adv-x="1177" 
d="M1059 -88q0 -150 -70 -232.5t-233 -82.5h-125v188h61q76 0 103.5 26.5t27.5 110.5v690q0 271 -202 271q-115 0 -185.5 -100t-70.5 -291v-492h-238v1059h233v-187q98 215 318 215q100 0 174.5 -31.5t119 -90t66 -134t21.5 -169.5v-750z" />
    <glyph glyph-name="Omacron" unicode="&#x14c;" horiz-adv-x="1673" 
d="M836 1497q175 0 321 -62t241.5 -167.5t148 -244t52.5 -292.5t-52.5 -292.5t-148 -244t-241.5 -167.5t-321 -62t-321 62t-241.5 167.5t-147.5 244t-52 292.5t52 292.5t147.5 244t241.5 167.5t321 62zM322 731q0 -111 35 -211.5t98.5 -177.5t162.5 -122.5t218 -45.5
t218 45.5t163.5 122.5t99.5 177.5t35 211.5t-35 211.5t-99.5 177.5t-163.5 122.5t-218 45.5t-218 -45.5t-162.5 -122.5t-98.5 -177.5t-35 -211.5zM512 1622v127h647v-127h-647z" />
    <glyph glyph-name="omacron" unicode="&#x14d;" horiz-adv-x="1212" 
d="M608 -29q-155 0 -279.5 69.5t-196 197t-71.5 290.5t71.5 291t196 198t279.5 70q154 0 278.5 -70t195.5 -198t71 -291t-71 -290.5t-195 -197t-279 -69.5zM250 1268v121h713v-121h-713zM293 528q0 -154 87.5 -259t227.5 -105q138 0 226 105t88 259q0 155 -87.5 261
t-226.5 106q-140 0 -227.5 -105.5t-87.5 -261.5z" />
    <glyph glyph-name="Obreve" unicode="&#x14e;" horiz-adv-x="1673" 
d="M836 1497q175 0 321 -62t241.5 -167.5t148 -244t52.5 -292.5t-52.5 -292.5t-148 -244t-241.5 -167.5t-321 -62t-321 62t-241.5 167.5t-147.5 244t-52 292.5t52 292.5t147.5 244t241.5 167.5t321 62zM322 731q0 -111 35 -211.5t98.5 -177.5t162.5 -122.5t218 -45.5
t218 45.5t163.5 122.5t99.5 177.5t35 211.5t-35 211.5t-99.5 177.5t-163.5 122.5t-218 45.5t-218 -45.5t-162.5 -122.5t-98.5 -177.5t-35 -211.5zM528 1802h170q8 -46 47 -76t93 -30q52 0 90.5 30t44.5 76h172q-20 -111 -105 -181.5t-202 -70.5q-119 0 -204.5 70.5
t-105.5 181.5z" />
    <glyph glyph-name="obreve" unicode="&#x14f;" horiz-adv-x="1212" 
d="M608 -29q-155 0 -279.5 69.5t-196 197t-71.5 290.5t71.5 291t196 198t279.5 70q154 0 278.5 -70t195.5 -198t71 -291t-71 -290.5t-195 -197t-279 -69.5zM293 528q0 -154 87.5 -259t227.5 -105q138 0 226 105t88 259q0 155 -87.5 261t-226.5 106q-140 0 -227.5 -105.5
t-87.5 -261.5zM305 1462h168q5 -61 40 -96t99 -35q65 0 100 35t38 96h172q-9 -123 -95 -199.5t-215 -76.5q-128 0 -213 76.5t-94 199.5z" />
    <glyph glyph-name="Ohungarumlaut" unicode="&#x150;" horiz-adv-x="1673" 
d="M836 1497q175 0 321 -62t241.5 -167.5t148 -244t52.5 -292.5t-52.5 -292.5t-148 -244t-241.5 -167.5t-321 -62t-321 62t-241.5 167.5t-147.5 244t-52 292.5t52 292.5t147.5 244t241.5 167.5t321 62zM322 731q0 -111 35 -211.5t98.5 -177.5t162.5 -122.5t218 -45.5
t218 45.5t163.5 122.5t99.5 177.5t35 211.5t-35 211.5t-99.5 177.5t-163.5 122.5t-218 45.5t-218 -45.5t-162.5 -122.5t-98.5 -177.5t-35 -211.5zM573 1595l164 207h238l-238 -207h-164zM899 1595l164 207h237l-239 -207h-162z" />
    <glyph glyph-name="ohungarumlaut" unicode="&#x151;" horiz-adv-x="1212" 
d="M608 -29q-155 0 -279.5 69.5t-196 197t-71.5 290.5t71.5 291t196 198t279.5 70q154 0 278.5 -70t195.5 -198t71 -291t-71 -290.5t-195 -197t-279 -69.5zM274 1194l164 268h238l-238 -268h-164zM293 528q0 -154 87.5 -259t227.5 -105q138 0 226 105t88 259
q0 155 -87.5 261t-226.5 106q-140 0 -227.5 -105.5t-87.5 -261.5zM600 1194l164 268h237l-239 -268h-162z" />
    <glyph glyph-name="OE" unicode="&#x152;" horiz-adv-x="2316" 
d="M74 731q0 155 50 293t142 243.5t233 167.5t312 62q304 0 473 -197v162h911v-209h-663v-409h620v-207h-620v-428h670v-209h-918v164q-168 -199 -473 -199q-171 0 -312 62t-233 167.5t-142 243.5t-50 293zM322 731q0 -112 32.5 -212t93 -177t154.5 -122.5t209 -45.5
t209.5 45.5t155.5 122.5t94 177.5t33 211.5q0 149 -56 274t-170 204t-266 79q-115 0 -209 -45.5t-154.5 -122.5t-93 -177t-32.5 -212z" />
    <glyph glyph-name="oe" unicode="&#x153;" horiz-adv-x="1966" 
d="M600 -25q-236 0 -387.5 154t-151.5 399t151.5 400t387.5 155q136 0 238.5 -55t165.5 -156q61 101 162 156t235 55q105 0 189.5 -31t141 -84.5t94.5 -127t55 -156t17 -174.5q0 -25 -2 -39h-790q9 -146 88.5 -227.5t206.5 -81.5q194 0 250 153h235q-48 -164 -172.5 -252
t-312.5 -88q-277 0 -400 207q-63 -99 -165 -153t-236 -54zM299 528q0 -162 84.5 -264t216.5 -102q134 0 217.5 101.5t83.5 264.5q0 164 -84.5 266.5t-216.5 102.5t-216.5 -102.5t-84.5 -266.5zM1108 635h559q-12 130 -79.5 199t-188.5 69q-122 0 -199 -72t-92 -196z" />
    <glyph glyph-name="Racute" unicode="&#x154;" horiz-adv-x="1345" 
d="M152 0v1462h548q244 0 380.5 -115t136.5 -300q0 -152 -84 -252t-211 -133q50 -14 86.5 -41t63.5 -71.5t45 -90t40 -117.5q29 -92 41 -128.5t35.5 -95.5t48.5 -102v-16h-256q-21 41 -41.5 96.5t-45.5 130t-40 115.5q-20 56 -41.5 94t-55 71.5t-81.5 49.5t-113 16h-209
v-573h-247zM399 778h289q136 0 209.5 67t73.5 183q0 104 -71 168t-220 64h-281v-482zM475 1579l242 223h299l-303 -223h-238z" />
    <glyph glyph-name="racute" unicode="&#x155;" horiz-adv-x="720" 
d="M360 1059v-197q76 204 318 207v-225q-74 0 -107 -10q-35 -7 -62 -18t-55 -35.5t-46.5 -61t-30.5 -97t-12 -139.5v-483h-238v1059h233zM242 1194l182 268h274l-280 -268h-176z" />
    <glyph glyph-name="uni0156" unicode="&#x156;" horiz-adv-x="1345" 
d="M152 0v1462h548q244 0 380.5 -115t136.5 -300q0 -152 -84 -252t-211 -133q50 -14 86.5 -41t63.5 -71.5t45 -90t40 -117.5q29 -92 41 -128.5t35.5 -95.5t48.5 -102v-16h-256q-21 41 -41.5 96.5t-45.5 130t-40 115.5q-20 56 -41.5 94t-55 71.5t-81.5 49.5t-113 16h-209
v-573h-247zM399 778h289q136 0 209.5 67t73.5 183q0 104 -71 168t-220 64h-281v-482zM551 -289v191h237v-168q0 -86 -56 -128t-157 -42v71q41 7 62.5 22t25 26t3.5 28h-115z" />
    <glyph glyph-name="uni0157" unicode="&#x157;" horiz-adv-x="720" 
d="M360 1059v-197q76 204 318 207v-225q-74 0 -107 -10q-35 -7 -62 -18t-55 -35.5t-46.5 -61t-30.5 -97t-12 -139.5v-483h-238v1059h233zM127 -289v191h238v-168q0 -86 -56 -128t-157 -42v71q31 6 51 14.5t27.5 20.5t9.5 20t2 21h-115z" />
    <glyph glyph-name="Rcaron" unicode="&#x158;" horiz-adv-x="1345" 
d="M152 0v1462h548q244 0 380.5 -115t136.5 -300q0 -152 -84 -252t-211 -133q50 -14 86.5 -41t63.5 -71.5t45 -90t40 -117.5q29 -92 41 -128.5t35.5 -95.5t48.5 -102v-16h-256q-21 41 -41.5 96.5t-45.5 130t-40 115.5q-20 56 -41.5 94t-55 71.5t-81.5 49.5t-113 16h-209
v-573h-247zM307 1804h234l108 -125l111 125h233l-209 -235h-266zM399 778h289q136 0 209.5 67t73.5 183q0 104 -71 168t-220 64h-281v-482z" />
    <glyph glyph-name="rcaron" unicode="&#x159;" horiz-adv-x="720" 
d="M360 1059v-197q76 204 318 207v-225q-74 0 -107 -10q-35 -7 -62 -18t-55 -35.5t-46.5 -61t-30.5 -97t-12 -139.5v-483h-238v1059h233zM29 1462h213l123 -151l124 151h216l-232 -264h-215z" />
    <glyph glyph-name="Sacute" unicode="&#x15a;" horiz-adv-x="1275" 
d="M330 465q9 -141 99 -217t235 -76q129 0 205.5 56t76.5 167q0 44 -15 78t-36 55.5t-63.5 42t-76.5 32t-95 30.5q-7 2 -11 3.5t-10.5 3t-11.5 3.5q-51 15 -81 24.5t-77 26.5t-76 30.5t-68 35.5t-62.5 43.5t-50 51.5t-41 62.5t-24 74.5t-10.5 89q-1 101 41.5 182t115 131
t163.5 76.5t192 26.5q228 0 368 -113t161 -342h-250q-21 128 -88.5 189t-194.5 61q-116 0 -188 -51.5t-72 -157.5q0 -48 21.5 -85t67 -65.5t96 -48t130.5 -42.5q185 -55 252 -86q162 -73 214 -199q28 -69 28 -160q0 -108 -44.5 -193t-120 -136t-168.5 -77t-197 -26
q-122 0 -224 30.5t-181 90.5t-126.5 157t-54.5 222h252zM467 1579l242 223h299l-303 -223h-238z" />
    <glyph glyph-name="sacute" unicode="&#x15b;" horiz-adv-x="1001" 
d="M698 741q-8 84 -65.5 125t-136.5 41q-72 0 -123 -36t-51 -91q0 -54 43.5 -88t128.5 -55q117 -30 141 -37q307 -80 307 -297q0 -102 -62 -179t-159.5 -115t-212.5 -38q-83 0 -157 20t-137 60.5t-104 110.5t-49 162h234q29 -170 215 -170q83 0 141 34t58 103q0 25 -10 45
t-24 33.5t-38.5 25t-45.5 18.5t-52 15q-88 21 -152 39q-136 36 -215.5 112t-79.5 193q0 140 119.5 227.5t288.5 87.5q176 0 292 -89.5t134 -256.5h-228zM377 1194l182 268h275l-281 -268h-176z" />
    <glyph glyph-name="Scircumflex" unicode="&#x15c;" horiz-adv-x="1275" 
d="M330 465q9 -141 99 -217t235 -76q129 0 205.5 56t76.5 167q0 44 -15 78t-36 55.5t-63.5 42t-76.5 32t-95 30.5q-7 2 -11 3.5t-10.5 3t-11.5 3.5q-51 15 -81 24.5t-77 26.5t-76 30.5t-68 35.5t-62.5 43.5t-50 51.5t-41 62.5t-24 74.5t-10.5 89q-1 101 41.5 182t115 131
t163.5 76.5t192 26.5q228 0 368 -113t161 -342h-250q-21 128 -88.5 189t-194.5 61q-116 0 -188 -51.5t-72 -157.5q0 -48 21.5 -85t67 -65.5t96 -48t130.5 -42.5q185 -55 252 -86q162 -73 214 -199q28 -69 28 -160q0 -108 -44.5 -193t-120 -136t-168.5 -77t-197 -26
q-122 0 -224 30.5t-181 90.5t-126.5 157t-54.5 222h252zM305 1569l211 235h266l209 -235h-233l-111 125l-108 -125h-234z" />
    <glyph glyph-name="scircumflex" unicode="&#x15d;" horiz-adv-x="1001" 
d="M698 741q-8 84 -65.5 125t-136.5 41q-72 0 -123 -36t-51 -91q0 -54 43.5 -88t128.5 -55q117 -30 141 -37q307 -80 307 -297q0 -102 -62 -179t-159.5 -115t-212.5 -38q-83 0 -157 20t-137 60.5t-104 110.5t-49 162h234q29 -170 215 -170q83 0 141 34t58 103q0 25 -10 45
t-24 33.5t-38.5 25t-45.5 18.5t-52 15q-88 21 -152 39q-136 36 -215.5 112t-79.5 193q0 140 119.5 227.5t288.5 87.5q176 0 292 -89.5t134 -256.5h-228zM164 1198l229 264h215l232 -264h-215l-125 152l-123 -152h-213z" />
    <glyph glyph-name="Scedilla" unicode="&#x15e;" horiz-adv-x="1275" 
d="M330 465q9 -141 99 -217t235 -76q129 0 205.5 56t76.5 167q0 44 -15 78t-36 55.5t-63.5 42t-76.5 32t-95 30.5q-7 2 -11 3.5t-10.5 3t-11.5 3.5q-51 15 -81 24.5t-77 26.5t-76 30.5t-68 35.5t-62.5 43.5t-50 51.5t-41 62.5t-24 74.5t-10.5 89q-1 101 41.5 182t115 131
t163.5 76.5t192 26.5q228 0 368 -113t161 -342h-250q-21 128 -88.5 189t-194.5 61q-116 0 -188 -51.5t-72 -157.5q0 -48 21.5 -85t67 -65.5t96 -48t130.5 -42.5q185 -55 252 -86q162 -73 214 -199q28 -69 28 -160q0 -106 -43 -190t-116.5 -135t-164 -78t-192.5 -29l-68 -74
l4 -4q19 13 64 13q80 -2 132 -41t52 -111q0 -49 -24 -86t-63.5 -57t-82.5 -29.5t-88 -9.5q-105 0 -190 35l35 110q58 -30 120 -30q46 0 79.5 14t33.5 43q0 27 -23.5 42t-62.5 15q-25 0 -72 -14l-63 84l94 106q-207 26 -335.5 150.5t-141.5 343.5h252z" />
    <glyph glyph-name="scedilla" unicode="&#x15f;" horiz-adv-x="1001" 
d="M698 741q-8 84 -65.5 125t-136.5 41q-72 0 -123 -36t-51 -91q0 -54 43.5 -88t128.5 -55q117 -30 141 -37q307 -80 307 -297q0 -95 -54.5 -169t-142 -114t-194.5 -47l-74 -82l4 -4q19 13 64 13q80 -2 132 -41t52 -111q0 -49 -24 -86t-63.5 -57t-82.5 -29.5t-88 -9.5
q-105 0 -190 35l34 110q58 -30 121 -30q46 0 79.5 14t33.5 43q0 27 -23.5 42t-62.5 15q-25 0 -72 -14l-63 84l98 110q-71 10 -131.5 34.5t-111 66t-83 105t-39.5 143.5h234q29 -170 215 -170q83 0 141 34t58 103q0 25 -10 45t-24 33.5t-38.5 25t-45.5 18.5t-52 15
q-88 21 -152 39q-136 36 -215.5 112t-79.5 193q0 140 119.5 227.5t288.5 87.5q176 0 292 -89.5t134 -256.5h-228z" />
    <glyph glyph-name="Scaron" unicode="&#x160;" horiz-adv-x="1275" 
d="M330 465q9 -141 99 -217t235 -76q129 0 205.5 56t76.5 167q0 44 -15 78t-36 55.5t-63.5 42t-76.5 32t-95 30.5q-7 2 -11 3.5t-10.5 3t-11.5 3.5q-51 15 -81 24.5t-77 26.5t-76 30.5t-68 35.5t-62.5 43.5t-50 51.5t-41 62.5t-24 74.5t-10.5 89q-1 101 41.5 182t115 131
t163.5 76.5t192 26.5q228 0 368 -113t161 -342h-250q-21 128 -88.5 189t-194.5 61q-116 0 -188 -51.5t-72 -157.5q0 -48 21.5 -85t67 -65.5t96 -48t130.5 -42.5q185 -55 252 -86q162 -73 214 -199q28 -69 28 -160q0 -108 -44.5 -193t-120 -136t-168.5 -77t-197 -26
q-122 0 -224 30.5t-181 90.5t-126.5 157t-54.5 222h252zM297 1804h233l109 -125l111 125h233l-209 -235h-266z" />
    <glyph glyph-name="scaron" unicode="&#x161;" horiz-adv-x="1001" 
d="M698 741q-8 84 -65.5 125t-136.5 41q-72 0 -123 -36t-51 -91q0 -54 43.5 -88t128.5 -55q117 -30 141 -37q307 -80 307 -297q0 -102 -62 -179t-159.5 -115t-212.5 -38q-83 0 -157 20t-137 60.5t-104 110.5t-49 162h234q29 -170 215 -170q83 0 141 34t58 103q0 25 -10 45
t-24 33.5t-38.5 25t-45.5 18.5t-52 15q-88 21 -152 39q-136 36 -215.5 112t-79.5 193q0 140 119.5 227.5t288.5 87.5q176 0 292 -89.5t134 -256.5h-228zM164 1462h213l123 -151l125 151h215l-232 -264h-215z" />
    <glyph glyph-name="uni0162" unicode="&#x162;" horiz-adv-x="1171" 
d="M29 1253v209h1116v-209h-436v-1253h-248v1253h-432zM475 -289v191h238v-168q0 -86 -56 -128t-157 -42v71q31 6 51 14.5t27.5 20.5t9.5 20t2 21h-115z" />
    <glyph glyph-name="uni0163" unicode="&#x163;" horiz-adv-x="681" 
d="M412 365q0 -90 30.5 -133.5t104.5 -43.5h69v-190l-114 -2q-173 -1 -248.5 89.5t-75.5 250.5v538h-166v185h166v241l234 105v-346h206v-185h-206v-509zM283 -289v191h237v-168q0 -86 -56 -128t-157 -42v71q31 6 51 14.5t27.5 20.5t9.5 20t2 21h-114z" />
    <glyph glyph-name="Tcaron" unicode="&#x164;" horiz-adv-x="1171" 
d="M29 1253v209h1116v-209h-436v-1253h-248v1253h-432zM236 1804h233l109 -125l110 125h234l-209 -235h-267z" />
    <glyph glyph-name="tcaron" unicode="&#x165;" horiz-adv-x="681" 
d="M412 365q0 -90 30.5 -133.5t104.5 -43.5h69v-190l-114 -2q-173 -1 -248.5 89.5t-75.5 250.5v538h-166v185h166v241l234 105v-346h206v-185h-206v-509zM514 1137l12 325h217l-84 -325h-145z" />
    <glyph glyph-name="Tbar" unicode="&#x166;" horiz-adv-x="1171" 
d="M29 1253v209h1116v-209h-436v-282h284v-166h-284v-805h-248v805h-283v166h283v282h-432z" />
    <glyph glyph-name="tbar" unicode="&#x167;" horiz-adv-x="681" 
d="M600 559h-188v-194q0 -90 30.5 -133.5t104.5 -43.5h69v-190l-114 -2q-173 -1 -248.5 89.5t-75.5 250.5v223h-155v146h155v169h-166v185h166v241l234 105v-346h206v-185h-206v-169h188v-146z" />
    <glyph glyph-name="Utilde" unicode="&#x168;" horiz-adv-x="1429" 
d="M1288 559q0 -101 -20.5 -189t-64.5 -163t-110 -128.5t-161 -83.5t-213 -30q-147 0 -259 44.5t-180.5 125.5t-102.5 187.5t-34 236.5v903h248v-903q0 -82 19.5 -150t58.5 -121t103 -82.5t147 -29.5q82 0 144.5 29.5t100.5 82.5t57 121t19 150v903h248v-903zM356 1565
q5 102 64.5 168.5t157.5 66.5q58 0 143.5 -41t120.5 -41q60 0 76 84h153q-8 -106 -65.5 -171.5t-149.5 -65.5q-51 0 -103.5 20.5t-96.5 41t-74 20.5q-37 0 -57 -22.5t-23 -59.5h-146z" />
    <glyph glyph-name="utilde" unicode="&#x169;" horiz-adv-x="1175" 
d="M119 397v662h235v-613q0 -270 203 -270q114 0 185 100t71 291v492h238v-1059h-234v186q-101 -215 -317 -215q-101 0 -175.5 32t-119 90t-65.5 134t-21 170zM233 1227q5 101 64.5 168t157.5 67q46 0 95.5 -21t93 -42t75.5 -21q60 0 76 84h151q-6 -106 -63.5 -171.5
t-149.5 -65.5q-51 0 -104 20.5t-97.5 41t-74.5 20.5q-35 0 -55 -22t-23 -58h-146z" />
    <glyph glyph-name="Umacron" unicode="&#x16a;" horiz-adv-x="1429" 
d="M1288 559q0 -101 -20.5 -189t-64.5 -163t-110 -128.5t-161 -83.5t-213 -30q-147 0 -259 44.5t-180.5 125.5t-102.5 187.5t-34 236.5v903h248v-903q0 -82 19.5 -150t58.5 -121t103 -82.5t147 -29.5q82 0 144.5 29.5t100.5 82.5t57 121t19 150v903h248v-903zM391 1622v127
h647v-127h-647z" />
    <glyph glyph-name="umacron" unicode="&#x16b;" horiz-adv-x="1175" 
d="M119 397v662h235v-613q0 -270 203 -270q114 0 185 100t71 291v492h238v-1059h-234v186q-101 -215 -317 -215q-101 0 -175.5 32t-119 90t-65.5 134t-21 170zM233 1268v121h713v-121h-713z" />
    <glyph glyph-name="Ubreve" unicode="&#x16c;" horiz-adv-x="1429" 
d="M1288 559q0 -101 -20.5 -189t-64.5 -163t-110 -128.5t-161 -83.5t-213 -30q-147 0 -259 44.5t-180.5 125.5t-102.5 187.5t-34 236.5v903h248v-903q0 -82 19.5 -150t58.5 -121t103 -82.5t147 -29.5q82 0 144.5 29.5t100.5 82.5t57 121t19 150v903h248v-903zM408 1802h170
q8 -46 46.5 -76t92.5 -30q52 0 90.5 30t44.5 76h172q-20 -111 -105 -181.5t-202 -70.5q-119 0 -204 70.5t-105 181.5z" />
    <glyph glyph-name="ubreve" unicode="&#x16d;" horiz-adv-x="1175" 
d="M119 397v662h235v-613q0 -270 203 -270q114 0 185 100t71 291v492h238v-1059h-234v186q-101 -215 -317 -215q-101 0 -175.5 32t-119 90t-65.5 134t-21 170zM287 1462h168q5 -61 40 -96t99 -35q65 0 99.5 35t37.5 96h172q-9 -123 -94.5 -199.5t-214.5 -76.5
q-128 0 -213 76.5t-94 199.5z" />
    <glyph glyph-name="Uring" unicode="&#x16e;" horiz-adv-x="1429" 
d="M1288 559q0 -101 -20.5 -189t-64.5 -163t-110 -128.5t-161 -83.5t-213 -30q-147 0 -259 44.5t-180.5 125.5t-102.5 187.5t-34 236.5v903h248v-903q0 -82 19.5 -150t58.5 -121t103 -82.5t147 -29.5q82 0 144.5 29.5t100.5 82.5t57 121t19 150v903h248v-903zM492 1780
q0 93 66 159t159 66q91 0 158 -66t67 -159q0 -92 -67 -158t-158 -66q-92 0 -158.5 66t-66.5 158zM625 1778q0 -41 25.5 -66.5t66.5 -25.5t66.5 25.5t25.5 66.5t-25.5 67.5t-66.5 26.5t-66.5 -26.5t-25.5 -67.5z" />
    <glyph glyph-name="uring" unicode="&#x16f;" horiz-adv-x="1175" 
d="M119 397v662h235v-613q0 -270 203 -270q114 0 185 100t71 291v492h238v-1059h-234v186q-101 -215 -317 -215q-101 0 -175.5 32t-119 90t-65.5 134t-21 170zM365 1362q0 92 67 157.5t158 65.5t158 -65.5t67 -157.5q0 -93 -67 -159t-158 -66t-158 66t-67 159zM496 1360
q0 -41 26.5 -68.5t67.5 -27.5t67.5 27.5t26.5 68.5t-26.5 67.5t-67.5 26.5t-67.5 -26.5t-26.5 -67.5z" />
    <glyph glyph-name="Uhungarumlaut" unicode="&#x170;" horiz-adv-x="1429" 
d="M1288 559q0 -101 -20.5 -189t-64.5 -163t-110 -128.5t-161 -83.5t-213 -30q-147 0 -259 44.5t-180.5 125.5t-102.5 187.5t-34 236.5v903h248v-903q0 -82 19.5 -150t58.5 -121t103 -82.5t147 -29.5q82 0 144.5 29.5t100.5 82.5t57 121t19 150v903h248v-903zM453 1595
l163 207h238l-238 -207h-163zM778 1595l164 207h238l-240 -207h-162z" />
    <glyph glyph-name="uhungarumlaut" unicode="&#x171;" horiz-adv-x="1175" 
d="M119 397v662h235v-613q0 -270 203 -270q114 0 185 100t71 291v492h238v-1059h-234v186q-101 -215 -317 -215q-101 0 -175.5 32t-119 90t-65.5 134t-21 170zM256 1194l164 268h237l-237 -268h-164zM582 1194l163 268h238l-240 -268h-161z" />
    <glyph glyph-name="Uogonek" unicode="&#x172;" horiz-adv-x="1429" 
d="M1288 559q0 -110 -24.5 -204t-74 -171t-130 -129.5t-187.5 -74.5q-163 -104 -163 -185q0 -50 28.5 -70t98.5 -20l-11 -137q-307 0 -307 190q-3 107 129 209q-253 21 -378.5 180.5t-125.5 411.5v903h248v-903q0 -82 19.5 -150t58.5 -121t103 -82.5t147 -29.5
q82 0 144.5 29.5t100.5 82.5t57 121t19 150v903h248v-903z" />
    <glyph glyph-name="uogonek" unicode="&#x173;" horiz-adv-x="1175" 
d="M119 397v662h235v-613q0 -270 203 -270q114 0 185 100t71 291v492h238v-1059q-179 -106 -189 -207q-6 -50 29 -73t106 -23l-8 -131q-298 0 -301 190q0 71 40.5 129.5t119.5 114.5h-31v186q-101 -215 -317 -215q-101 0 -175.5 32t-119 90t-65.5 134t-21 170z" />
    <glyph glyph-name="Wcircumflex" unicode="&#x174;" horiz-adv-x="1912" 
d="M16 1462h263l210 -1028l33 -172h6l37 172l228 1028h323l217 -1028l37 -174h4l37 174l223 1028h262l-254 -1028l-104 -434h-334l-86 434l-162 780h-4l-172 -780l-92 -434h-334l-96 434zM612 1569l211 235h267l208 -235h-233l-111 125l-108 -125h-234z" />
    <glyph glyph-name="wcircumflex" unicode="&#x175;" horiz-adv-x="1599" 
d="M317 0l-305 1059h246l139 -547q14 -57 33 -151.5t27 -129.5h2q13 54 31.5 147.5t29.5 141.5l137 539h283l137 -541q15 -59 64 -289h2q33 141 63 289l135 541h244l-307 -1059h-274l-146 545q-58 256 -59 260h-4q-31 -150 -60 -258l-143 -547h-275zM463 1198l229 264h215
l232 -264h-215l-125 152l-123 -152h-213z" />
    <glyph glyph-name="Ycircumflex" unicode="&#x176;" horiz-adv-x="1298" 
d="M311 1462q236 -449 340 -649h4q178 335 336 649h279l-498 -880v-582h-248v582l-495 880h282zM305 1569l211 235h266l209 -235h-233l-111 125l-108 -125h-234z" />
    <glyph glyph-name="ycircumflex" unicode="&#x177;" horiz-adv-x="1083" 
d="M264 1059q49 -140 145.5 -406.5t145.5 -406.5h4q45 149 141 445.5t119 367.5h250q-136 -379 -238.5 -650.5t-228.5 -617.5q-37 -99 -101.5 -150t-168.5 -51h-182v189h116q61 0 89 25.5t48 86.5l33 84q-84 217 -225 575.5t-199 508.5h252zM205 1198l229 264h215l232 -264
h-215l-125 152l-123 -152h-213z" />
    <glyph glyph-name="Ydieresis" unicode="&#x178;" horiz-adv-x="1298" 
d="M311 1462q236 -449 340 -649h4q178 335 336 649h279l-498 -880v-582h-248v582l-495 880h282zM360 1579v223h205v-223h-205zM733 1579v223h203v-223h-203z" />
    <glyph glyph-name="Zacute" unicode="&#x179;" horiz-adv-x="1253" 
d="M88 209l758 1042h-721v211h1026v-184l-766 -1067h791v-211h-1088v209zM438 1579l242 223h299l-303 -223h-238z" />
    <glyph glyph-name="zacute" unicode="&#x17a;" horiz-adv-x="1024" 
d="M647 872h-176h-367v187h830v-160l-586 -713q29 0 87.5 1t90.5 1h430v-188h-888v168zM379 1194l182 268h275l-281 -268h-176z" />
    <glyph glyph-name="Zdotaccent" unicode="&#x17b;" horiz-adv-x="1253" 
d="M88 209l758 1042h-721v211h1026v-184l-766 -1067h791v-211h-1088v209zM512 1585v217h217v-217h-217z" />
    <glyph glyph-name="zdotaccent" unicode="&#x17c;" horiz-adv-x="1024" 
d="M647 872h-176h-367v187h830v-160l-586 -713q29 0 87.5 1t90.5 1h430v-188h-888v168zM401 1237v225h205v-225h-205z" />
    <glyph glyph-name="Zcaron" unicode="&#x17d;" horiz-adv-x="1253" 
d="M88 209l758 1042h-721v211h1026v-184l-766 -1067h791v-211h-1088v209zM268 1804h234l108 -125l111 125h233l-209 -235h-266z" />
    <glyph glyph-name="zcaron" unicode="&#x17e;" horiz-adv-x="1024" 
d="M647 872h-176h-367v187h830v-160l-586 -713q29 0 87.5 1t90.5 1h430v-188h-888v168zM168 1462h213l123 -151l125 151h215l-232 -264h-215z" />
    <glyph glyph-name="florin" unicode="&#x192;" horiz-adv-x="827" 
d="M-66 -307l33 182h64q124 0 155 182l123 703h-190l31 168h188l39 219q29 152 110.5 233.5t243.5 81.5h121l-33 -186h-59q-71 0 -104 -29t-48 -110l-37 -209h197l-31 -168h-194l-129 -731q-13 -73 -39.5 -131.5t-69.5 -105.5t-108.5 -73t-149.5 -26h-113z" />
    <glyph glyph-name="Aringacute" unicode="&#x1fa;" horiz-adv-x="1437" 
d="M287 0h-258l536 1462h309l535 -1462h-260l-141 397h-580zM496 1780q0 68 36.5 123t96.5 82l200 186h299l-280 -207q45 -31 71.5 -79.5t26.5 -104.5q0 -92 -67 -158t-158 -66q-92 0 -158.5 66t-66.5 158zM498 596h440l-217 641h-6zM629 1778q0 -41 25.5 -66.5t66.5 -25.5
t66.5 25.5t25.5 66.5t-25.5 67.5t-66.5 26.5t-66.5 -26.5t-25.5 -67.5z" />
    <glyph glyph-name="aringacute" unicode="&#x1fb;" horiz-adv-x="1126" 
d="M121 735q11 66 43 127t85 113t135 83.5t181 31.5q102 0 180.5 -24t128 -64.5t81.5 -98t44.5 -119t12.5 -133.5v-407q0 -163 16 -244h-242q-6 62 -6 125v49h-2q-15 -36 -38.5 -68t-62.5 -64t-99.5 -50.5t-135.5 -18.5q-173 0 -272.5 91.5t-99.5 224.5q0 43 11 80t27 65.5
t44 53t53.5 41.5t63.5 32t65.5 23.5t69.5 17t65 12.5t61.5 9.5t51.5 7.5q107 16 151.5 44t44.5 93q0 63 -56 100t-153 37q-86 0 -145 -45.5t-78 -124.5h-225zM305 297q0 -64 52.5 -104.5t144.5 -40.5q56 0 104 18.5t88.5 56.5t64 106t23.5 159v110q-19 -50 -76 -85.5
t-182 -59.5q-112 -21 -165.5 -58.5t-53.5 -101.5zM338 1376q0 69 41.5 126.5t105.5 82.5l164 242h275l-262 -250q57 -28 91.5 -82t34.5 -119q0 -93 -67 -159t-158 -66t-158 66t-67 159zM469 1374q0 -41 26.5 -68.5t67.5 -27.5t67.5 27.5t26.5 68.5t-26.5 67.5t-67.5 26.5
t-67.5 -26.5t-26.5 -67.5z" />
    <glyph glyph-name="AEacute" unicode="&#x1fc;" horiz-adv-x="2050" 
d="M29 0l807 1462h1093v-205h-669v-409h626v-203h-626v-440h675v-205h-923v418h-484l-223 -418h-276zM629 608h383v649h-37zM1290 1579l242 223h299l-303 -223h-238z" />
    <glyph glyph-name="aeacute" unicode="&#x1fd;" horiz-adv-x="1822" 
d="M70 289q0 42 10.5 79t26.5 65t43 52.5t52 41.5t62 32.5t64 24t67.5 18t63.5 13.5t60 10t50 8q102 19 142.5 49t40.5 86q0 63 -54 100t-149 37q-85 0 -139.5 -44.5t-73.5 -123.5h-221q7 47 27 94.5t56 94.5t83.5 83t116 58.5t147.5 22.5q268 0 360 -187q126 184 367 184
q102 0 184 -31.5t136.5 -85t91.5 -128t53 -157.5t16 -175q0 -5 1 -19.5t1 -23.5h-770q10 -144 85.5 -224.5t195.5 -80.5q177 0 231 151h236q-46 -163 -165.5 -252.5t-297.5 -89.5q-289 0 -406 234q-62 -115 -171 -173.5t-251 -58.5q-175 0 -273.5 91.5t-98.5 224.5zM305 297
q0 -66 46 -105.5t134 -39.5q121 0 196 81t75 250v111q-25 -47 -75 -80t-167 -55q-107 -22 -158 -61t-51 -101zM786 1194l183 268h274l-280 -268h-177zM987 631h535q-13 124 -74 198t-178 74t-191 -74t-92 -198z" />
    <glyph glyph-name="Oslashacute" unicode="&#x1fe;" horiz-adv-x="1673" 
d="M836 1497q285 0 491 -162l154 158l100 -92l-158 -162q86 -102 131 -233.5t45 -274.5q0 -154 -52.5 -292.5t-148 -244t-241.5 -167.5t-321 -62q-290 0 -494 164l-149 -154l-99 97l152 155q-172 209 -172 504q0 154 52 292.5t147.5 244t241.5 167.5t321 62zM322 731
q0 -190 92 -332l751 772q-137 117 -329 117q-119 0 -218 -45.5t-162.5 -122.5t-98.5 -177.5t-35 -211.5zM504 295q134 -121 332 -121q119 0 218 45.5t163.5 122.5t99.5 177.5t35 211.5q0 191 -97 336zM655 1579l242 223h299l-303 -223h-238z" />
    <glyph glyph-name="oslashacute" unicode="&#x1ff;" horiz-adv-x="1212" 
d="M608 -29q-183 0 -327 101l-99 -107l-96 82l102 111q-127 152 -127 370q0 163 71.5 291t196 198t279.5 70q192 0 332 -106l102 113l91 -90l-101 -111q121 -150 121 -365q0 -163 -71 -290.5t-195 -197t-279 -69.5zM293 528q0 -114 49 -202l457 499q-79 70 -191 70
q-140 0 -227.5 -105.5t-87.5 -261.5zM422 227q82 -63 186 -63q138 0 226 105t88 259q0 109 -45 197zM483 1194l183 268h274l-281 -268h-176z" />
    <glyph glyph-name="uni0218" unicode="&#x218;" horiz-adv-x="1275" 
d="M330 465q9 -141 99 -217t235 -76q129 0 205.5 56t76.5 167q0 44 -15 78t-36 55.5t-63.5 42t-76.5 32t-95 30.5q-7 2 -11 3.5t-10.5 3t-11.5 3.5q-51 15 -81 24.5t-77 26.5t-76 30.5t-68 35.5t-62.5 43.5t-50 51.5t-41 62.5t-24 74.5t-10.5 89q-1 101 41.5 182t115 131
t163.5 76.5t192 26.5q228 0 368 -113t161 -342h-250q-21 128 -88.5 189t-194.5 61q-116 0 -188 -51.5t-72 -157.5q0 -48 21.5 -85t67 -65.5t96 -48t130.5 -42.5q185 -55 252 -86q162 -73 214 -199q28 -69 28 -160q0 -108 -44.5 -193t-120 -136t-168.5 -77t-197 -26
q-122 0 -224 30.5t-181 90.5t-126.5 157t-54.5 222h252zM526 -289v191h238v-168q0 -86 -56 -128t-157 -42v71q31 6 51 14.5t27.5 20.5t9.5 20t2 21h-115z" />
    <glyph glyph-name="uni0219" unicode="&#x219;" horiz-adv-x="1001" 
d="M698 741q-8 84 -65.5 125t-136.5 41q-72 0 -123 -36t-51 -91q0 -54 43.5 -88t128.5 -55q117 -30 141 -37q307 -80 307 -297q0 -102 -62 -179t-159.5 -115t-212.5 -38q-83 0 -157 20t-137 60.5t-104 110.5t-49 162h234q29 -170 215 -170q83 0 141 34t58 103q0 25 -10 45
t-24 33.5t-38.5 25t-45.5 18.5t-52 15q-88 21 -152 39q-136 36 -215.5 112t-79.5 193q0 140 119.5 227.5t288.5 87.5q176 0 292 -89.5t134 -256.5h-228zM389 -289v191h238v-168q0 -86 -56 -128t-157 -42v71q31 6 51 14.5t27.5 20.5t9.5 20t2 21h-115z" />
    <glyph glyph-name="uni021A" unicode="&#x21a;" horiz-adv-x="1171" 
d="M29 1253v209h1116v-209h-436v-1253h-248v1253h-432zM475 -289v191h238v-168q0 -86 -56 -128t-157 -42v71q31 6 51 14.5t27.5 20.5t9.5 20t2 21h-115z" />
    <glyph glyph-name="uni021B" unicode="&#x21b;" horiz-adv-x="681" 
d="M412 365q0 -90 30.5 -133.5t104.5 -43.5h69v-190l-114 -2q-173 -1 -248.5 89.5t-75.5 250.5v538h-166v185h166v241l234 105v-346h206v-185h-206v-509zM283 -289v191h237v-168q0 -86 -56 -128t-157 -42v71q31 6 51 14.5t27.5 20.5t9.5 20t2 21h-114z" />
    <glyph glyph-name="uni0237" unicode="&#x237;" horiz-adv-x="526" 
d="M399 -88q0 -151 -67.5 -233t-229.5 -82h-125v188h62q76 0 103.5 26.5t27.5 110.5v1137h229v-1147z" />
    <glyph glyph-name="circumflex" unicode="&#x2c6;" horiz-adv-x="788" 
d="M59 1198l230 264h215l231 -264h-215l-125 152l-123 -152h-213z" />
    <glyph glyph-name="caron" unicode="&#x2c7;" horiz-adv-x="788" 
d="M59 1462h213l123 -151l125 151h215l-231 -264h-215z" />
    <glyph glyph-name="breve" unicode="&#x2d8;" horiz-adv-x="763" 
d="M387 1186q-128 0 -213 76.5t-94 199.5h168q5 -61 40 -96t99 -35q65 0 99.5 35t37.5 96h172q-9 -123 -94.5 -199.5t-214.5 -76.5z" />
    <glyph glyph-name="dotaccent" unicode="&#x2d9;" horiz-adv-x="382" 
d="M293 1237h-205v225h205v-225z" />
    <glyph glyph-name="ring" unicode="&#x2da;" horiz-adv-x="587" 
d="M68 1362q0 92 67 157.5t158 65.5t158 -65.5t67 -157.5q0 -93 -67 -159t-158 -66t-158 66t-67 159zM199 1360q0 -41 26.5 -68.5t67.5 -27.5t67.5 27.5t26.5 68.5t-26.5 67.5t-67.5 26.5t-67.5 -26.5t-26.5 -67.5z" />
    <glyph glyph-name="ogonek" unicode="&#x2db;" horiz-adv-x="534" 
d="M461 0q-179 -106 -189 -207q-6 -50 29.5 -73t106.5 -23l-9 -131q-298 0 -301 190q0 71 40.5 129.5t119.5 114.5h203z" />
    <glyph glyph-name="tilde" unicode="&#x2dc;" horiz-adv-x="1255" 
d="M258 1227q5 101 64 168t157 67q46 0 95.5 -21t93 -42t75.5 -21q60 0 76 84h152q-6 -106 -63.5 -171.5t-149.5 -65.5q-51 0 -104 20.5t-98 41t-75 20.5q-35 0 -55 -22t-23 -58h-145z" />
    <glyph glyph-name="hungarumlaut" unicode="&#x2dd;" horiz-adv-x="825" 
d="M567 1462h238l-240 -268h-162zM78 1194l164 268h237l-237 -268h-164z" />
    <glyph glyph-name="gravecomb" unicode="&#x300;" 
d="M221 1462l182 -268h-176l-280 268h274z" />
    <glyph glyph-name="acutecomb" unicode="&#x301;" 
d="M338 1462h274l-280 -268h-176z" />
    <glyph glyph-name="uni0302" unicode="&#x302;" 
d="M59 1198l230 264h215l231 -264h-215l-125 152l-123 -152h-213z" />
    <glyph glyph-name="tildecomb" unicode="&#x303;" 
d="M258 1227q5 101 64 168t157 67q46 0 95.5 -21t93 -42t75.5 -21q60 0 76 84h152q-6 -106 -63.5 -171.5t-149.5 -65.5q-51 0 -104 20.5t-98 41t-75 20.5q-35 0 -55 -22t-23 -58h-145z" />
    <glyph glyph-name="uni0304" unicode="&#x304;" 
d="M55 1389h713v-121h-713v121z" />
    <glyph glyph-name="uni0306" unicode="&#x306;" 
d="M387 1186q-128 0 -213 76.5t-94 199.5h168q5 -61 40 -96t99 -35q65 0 99.5 35t37.5 96h172q-9 -123 -94.5 -199.5t-214.5 -76.5z" />
    <glyph glyph-name="uni0307" unicode="&#x307;" 
d="M293 1237h-205v225h205v-225z" />
    <glyph glyph-name="uni0308" unicode="&#x308;" 
d="M53 1462h209v-225h-209v225zM426 1237v225h209v-225h-209z" />
    <glyph glyph-name="uni030A" unicode="&#x30a;" 
d="M68 1362q0 92 67 157.5t158 65.5t158 -65.5t67 -157.5q0 -93 -67 -159t-158 -66t-158 66t-67 159zM199 1360q0 -41 26.5 -68.5t67.5 -27.5t67.5 27.5t26.5 68.5t-26.5 67.5t-67.5 26.5t-67.5 -26.5t-26.5 -67.5z" />
    <glyph glyph-name="uni030B" unicode="&#x30b;" 
d="M567 1462h238l-240 -268h-162zM78 1194l164 268h237l-237 -268h-164z" />
    <glyph glyph-name="uni030C" unicode="&#x30c;" 
d="M59 1462h213l123 -151l125 151h215l-231 -264h-215z" />
    <glyph glyph-name="uni0312" unicode="&#x312;" 
d="M295 1237h-238v170q0 86 56 128t157 42v-72q-31 -6 -51 -15t-27.5 -20.5t-9.5 -19.5t-2 -20h115v-193z" />
    <glyph glyph-name="uni0326" unicode="&#x326;" 
d="M66 -98h237v-168q0 -86 -56 -128t-157 -42v71q31 6 51 14.5t27.5 20.5t9.5 20t2 21h-114v191z" />
    <glyph glyph-name="uni0327" unicode="&#x327;" 
d="M244 -434q-106 0 -191 35l35 110q58 -30 121 -30q46 0 79.5 14t33.5 43q0 27 -23.5 42t-62.5 15q-25 0 -72 -14l-64 84l127 143l125 -4l-102 -113l4 -4q20 13 63 13q80 -2 132.5 -41t52.5 -111q0 -49 -24 -86t-63.5 -57t-82.5 -29.5t-88 -9.5z" />
    <glyph glyph-name="uni0328" unicode="&#x328;" 
d="M461 0q-179 -106 -189 -207q-6 -50 29.5 -73t106.5 -23l-9 -131q-298 0 -301 190q0 71 40.5 129.5t119.5 114.5h203z" />
    <glyph glyph-name="uni0335" unicode="&#x335;" 
d="M1282 1194h-698v115h698v-115z" />
    <glyph glyph-name="uni0338" unicode="&#x338;" 
d="M1139 1004l-951 -1039l-96 82l957 1047z" />
    <glyph glyph-name="uni0374" unicode="&#x374;" horiz-adv-x="561" 
d="M221 1462h248l-201 -309h-178z" />
    <glyph glyph-name="uni0375" unicode="&#x375;" horiz-adv-x="581" 
d="M350 -414h-248l201 310h178z" />
    <glyph glyph-name="uni037E" unicode="&#x37e;" horiz-adv-x="514" 
d="M158 262h258l-164 -518h-209zM145 705v262h256v-262h-256z" />
    <glyph glyph-name="tonos" unicode="&#x384;" horiz-adv-x="546" 
d="M291 1470h248l-201 -284h-178z" />
    <glyph glyph-name="dieresistonos" unicode="&#x385;" horiz-adv-x="686" 
d="M-51 1462h209v-227h-209v227zM213 1190l41 326h240l-105 -326h-176zM520 1235v227h211v-227h-211z" />
    <glyph glyph-name="Alphatonos" unicode="&#x386;" horiz-adv-x="1429" 
d="M287 0h-258l536 1462h309l535 -1462h-260l-141 397h-580zM6 1155l111 307h231l-172 -307h-170zM498 596h440l-217 641h-6z" />
    <glyph glyph-name="anoteleia" unicode="&#x387;" horiz-adv-x="497" 
d="M250 666q54 0 92.5 -38.5t38.5 -92.5q0 -50 -39.5 -91t-89.5 -41q-54 0 -93.5 39t-39.5 93t38.5 92.5t92.5 38.5z" />
    <glyph glyph-name="Epsilontonos" unicode="&#x388;" horiz-adv-x="1200" 
d="M1087 1462v-209h-688v-409h645v-207h-645v-428h695v-209h-942v1462h935zM-270 1155l110 307h232l-172 -307h-170z" />
    <glyph glyph-name="Etatonos" unicode="&#x389;" horiz-adv-x="1452" 
d="M1044 1462h248v-1462h-248v629h-645v-629h-247v1462h247v-624h645v624zM-270 1155l110 307h232l-172 -307h-170z" />
    <glyph glyph-name="Iotatonos" unicode="&#x38a;" horiz-adv-x="548" 
d="M152 1462h247v-1462h-247v1462zM-262 1155l110 307h232l-172 -307h-170z" />
    <glyph glyph-name="Omicrontonos" unicode="&#x38c;" horiz-adv-x="1662" 
d="M836 1497q175 0 321 -62t241.5 -167.5t148 -244t52.5 -292.5t-52.5 -292.5t-148 -244t-241.5 -167.5t-321 -62t-321 62t-241.5 167.5t-147.5 244t-52 292.5t52 292.5t147.5 244t241.5 167.5t321 62zM-156 1155l111 307h231l-172 -307h-170zM322 731q0 -111 35 -211.5
t98.5 -177.5t162.5 -122.5t218 -45.5t218 45.5t163.5 122.5t99.5 177.5t35 211.5t-35 211.5t-99.5 177.5t-163.5 122.5t-218 45.5t-218 -45.5t-162.5 -122.5t-98.5 -177.5t-35 -211.5z" />
    <glyph glyph-name="Upsilontonos" unicode="&#x38e;" horiz-adv-x="1259" 
d="M311 1462q236 -449 340 -649h4q178 335 336 649h279l-498 -880v-582h-248v582l-495 880h282zM-362 1155l110 307h232l-173 -307h-169z" />
    <glyph glyph-name="Omegatonos" unicode="&#x38f;" horiz-adv-x="1515" 
d="M88 0v205h377v106q-159 63 -267 211t-108 346q0 272 184.5 444.5t481.5 172.5q295 0 479 -173t184 -444q0 -198 -108 -346t-267 -211v-106h375v-205h-565v461q152 33 245 138t93 261q0 185 -121.5 303.5t-316.5 118.5q-194 0 -315.5 -119t-121.5 -303q0 -156 92.5 -261
t245.5 -138v-461h-567zM-166 1155l111 307h231l-172 -307h-170z" />
    <glyph glyph-name="iotadieresistonos" unicode="&#x390;" horiz-adv-x="552" 
d="M397 -8q-85 0 -141 21.5t-86 67.5t-41.5 105.5t-11.5 147.5v725h237v-701q0 -87 26 -124t91 -37q9 0 45 4v-203q-58 -6 -119 -6zM-158 1235v227h209v-227h-209zM106 1190l41 326h240l-104 -326h-177zM414 1235v227h211v-227h-211z" />
    <glyph glyph-name="Alpha" unicode="&#x391;" horiz-adv-x="1437" 
d="M287 0h-258l536 1462h309l535 -1462h-260l-141 397h-580zM498 596h440l-217 641h-6z" />
    <glyph glyph-name="Beta" unicode="&#x392;" horiz-adv-x="1288" 
d="M152 0v1462h522q215 0 344 -100.5t129 -286.5q0 -234 -240 -327v-3q132 -25 214.5 -106.5t82.5 -222.5q0 -143 -67.5 -237.5t-186 -136.5t-286.5 -42h-512zM399 205h265q137 0 214.5 53.5t77.5 167.5q0 109 -72.5 162t-199.5 53h-285v-436zM399 842h232q134 0 203 52
t69 165q0 110 -65.5 154t-196.5 44h-242v-415z" />
    <glyph glyph-name="Gamma" unicode="&#x393;" horiz-adv-x="1079" 
d="M152 0v1462h895v-209h-648v-1253h-247z" />
    <glyph glyph-name="uni0394" unicode="&#x394;" horiz-adv-x="1478" 
d="M29 0l557 1462h309l555 -1462h-1421zM358 199h760l-377 1038h-6z" />
    <glyph glyph-name="Epsilon" unicode="&#x395;" horiz-adv-x="1200" 
d="M1087 1462v-209h-688v-409h645v-207h-645v-428h695v-209h-942v1462h935z" />
    <glyph glyph-name="Zeta" unicode="&#x396;" horiz-adv-x="1255" 
d="M88 209l758 1042h-721v211h1026v-184l-766 -1067h791v-211h-1088v209z" />
    <glyph glyph-name="Eta" unicode="&#x397;" horiz-adv-x="1452" 
d="M1044 1462h248v-1462h-248v629h-645v-629h-247v1462h247v-624h645v624z" />
    <glyph glyph-name="Theta" unicode="&#x398;" horiz-adv-x="1662" 
d="M836 1497q175 0 321 -62t241.5 -167.5t148 -244t52.5 -292.5t-52.5 -292.5t-148 -244t-241.5 -167.5t-321 -62t-321 62t-241.5 167.5t-147.5 244t-52 292.5t52 292.5t147.5 244t241.5 167.5t321 62zM322 731q0 -111 35 -211.5t98.5 -177.5t162.5 -122.5t218 -45.5
t218 45.5t163.5 122.5t99.5 177.5t35 211.5t-35 211.5t-99.5 177.5t-163.5 122.5t-218 45.5t-218 -45.5t-162.5 -122.5t-98.5 -177.5t-35 -211.5zM504 625v209h657v-209h-657z" />
    <glyph glyph-name="Iota" unicode="&#x399;" horiz-adv-x="548" 
d="M152 1462h247v-1462h-247v1462z" />
    <glyph glyph-name="Kappa" unicode="&#x39a;" horiz-adv-x="1359" 
d="M399 0h-247v1462h247v-690l621 690h303l-567 -614l579 -848h-291l-448 676l-197 -209v-467z" />
    <glyph glyph-name="Lambda" unicode="&#x39b;" horiz-adv-x="1361" 
d="M16 0l523 1462h284l525 -1462h-265l-401 1163h-4l-399 -1163h-263z" />
    <glyph glyph-name="Mu" unicode="&#x39c;" horiz-adv-x="1783" 
d="M152 0v1462l385 -2l376 -1165h2l371 1167h383v-1462h-237v1176h-7l-383 -1176h-262l-385 1176h-6v-1176h-237z" />
    <glyph glyph-name="Nu" unicode="&#x39d;" horiz-adv-x="1509" 
d="M152 1462h319l487 -848q110 -206 160 -292q-4 218 -4 344v796h244v-1462h-322l-465 797q-41 78 -110 206t-70 130q4 -222 4 -367v-766h-243v1462z" />
    <glyph glyph-name="Xi" unicode="&#x39e;" horiz-adv-x="1257" 
d="M86 0v209h1085v-209h-1085zM90 1253v209h1075v-209h-1075zM164 639v203h938v-203h-938z" />
    <glyph glyph-name="Omicron" unicode="&#x39f;" horiz-adv-x="1662" 
d="M836 1497q175 0 321 -62t241.5 -167.5t148 -244t52.5 -292.5t-52.5 -292.5t-148 -244t-241.5 -167.5t-321 -62t-321 62t-241.5 167.5t-147.5 244t-52 292.5t52 292.5t147.5 244t241.5 167.5t321 62zM322 731q0 -111 35 -211.5t98.5 -177.5t162.5 -122.5t218 -45.5
t218 45.5t163.5 122.5t99.5 177.5t35 211.5t-35 211.5t-99.5 177.5t-163.5 122.5t-218 45.5t-218 -45.5t-162.5 -122.5t-98.5 -177.5t-35 -211.5z" />
    <glyph glyph-name="Pi" unicode="&#x3a0;" horiz-adv-x="1452" 
d="M1300 1462v-1462h-247v1253h-654v-1253h-247v1462h1148z" />
    <glyph glyph-name="Rho" unicode="&#x3a1;" horiz-adv-x="1259" 
d="M641 756q140 0 221.5 66.5t81.5 187.5t-78 183t-219 62h-248v-499h242zM152 0v1462h516q236 0 380 -127t144 -323q0 -130 -69.5 -236t-191 -166.5t-269.5 -60.5h-263v-549h-247z" />
    <glyph glyph-name="Sigma" unicode="&#x3a3;" horiz-adv-x="1228" 
d="M840 731l-441 -522h768v-209h-1073v190l477 543l-477 539v190h1073v-209h-768z" />
    <glyph glyph-name="Tau" unicode="&#x3a4;" horiz-adv-x="1175" 
d="M29 1253v209h1116v-209h-436v-1253h-248v1253h-432z" />
    <glyph glyph-name="Upsilon" unicode="&#x3a5;" horiz-adv-x="1259" 
d="M311 1462q236 -449 340 -649h4q178 335 336 649h279l-498 -880v-582h-248v582l-495 880h282z" />
    <glyph glyph-name="Phi" unicode="&#x3a6;" horiz-adv-x="1687" 
d="M721 -57v184q-327 15 -511.5 175.5t-184.5 430.5q0 266 184.5 424.5t511.5 171.5v191h248v-191q326 -12 510 -170.5t184 -425.5q0 -272 -183.5 -432.5t-510.5 -173.5v-184h-248zM272 733q0 -179 117.5 -285.5t331.5 -119.5v800q-214 -14 -331.5 -117t-117.5 -278z
M969 328q213 15 329.5 121t116.5 284q0 175 -116.5 278.5t-329.5 116.5v-800z" />
    <glyph glyph-name="Chi" unicode="&#x3a7;" horiz-adv-x="1327" 
d="M16 0l516 745l-499 717h299l346 -522l360 522h289l-506 -719l525 -743h-306l-362 545l-369 -545h-293z" />
    <glyph glyph-name="Psi" unicode="&#x3a8;" horiz-adv-x="1603" 
d="M678 0v352q-308 12 -461.5 176t-153.5 447v487h248v-487q0 -181 93.5 -288.5t273.5 -119.5v895h248v-897q181 9 273.5 116.5t92.5 293.5v487h248v-487q0 -136 -37 -246.5t-110.5 -193.5t-192 -131t-274.5 -52v-352h-248z" />
    <glyph glyph-name="uni03A9" unicode="&#x3a9;" horiz-adv-x="1515" 
d="M88 0v205h377v106q-159 63 -267 211t-108 346q0 272 184.5 444.5t481.5 172.5q295 0 479 -173t184 -444q0 -198 -108 -346t-267 -211v-106h375v-205h-565v461q152 33 245 138t93 261q0 185 -121.5 303.5t-316.5 118.5q-194 0 -315.5 -119t-121.5 -303q0 -156 92.5 -261
t245.5 -138v-461h-567z" />
    <glyph glyph-name="Iotadieresis" unicode="&#x3aa;" horiz-adv-x="548" 
d="M152 1462h247v-1462h-247v1462zM-12 1579v223h205v-223h-205zM360 1579v223h203v-223h-203z" />
    <glyph glyph-name="Upsilondieresis" unicode="&#x3ab;" horiz-adv-x="1259" 
d="M311 1462q236 -449 340 -649h4q178 335 336 649h279l-498 -880v-582h-248v582l-495 880h282zM342 1579v223h205v-223h-205zM715 1579v223h203v-223h-203z" />
    <glyph glyph-name="alphatonos" unicode="&#x3ac;" horiz-adv-x="1310" 
d="M555 -27q-120 0 -215 42t-155.5 116.5t-92 175t-31.5 219.5q0 158 55 284t162 201.5t250 75.5q134 0 218 -50.5t124 -129.5h2v152h238v-705q0 -89 26 -125t91 -36q27 0 45 2v-203q-58 -6 -119 -6q-117 0 -180.5 41t-85.5 125q-36 -78 -122 -128.5t-210 -50.5zM301 526
q0 -153 79.5 -251.5t215.5 -98.5q146 0 227.5 95t81.5 255q0 164 -82 262.5t-227 98.5q-136 0 -215.5 -102t-79.5 -259zM428 1186l131 284h248l-201 -284h-178z" />
    <glyph glyph-name="epsilontonos" unicode="&#x3ad;" horiz-adv-x="1079" 
d="M535 -25q-215 0 -337 83.5t-122 228.5q0 106 61 173.5t170 94.5v2q-94 28 -145 92.5t-51 159.5q0 130 110.5 202t298.5 72q208 0 345 -90t161 -258h-213q-15 74 -87.5 116t-178.5 42q-91 0 -150 -35t-59 -96q0 -64 57 -102.5t164 -38.5h125l-4 -162h-131
q-115 0 -176.5 -41t-61.5 -111q0 -68 64.5 -107.5t177.5 -39.5q120 0 190 44t86 113h222q-22 -157 -161 -249.5t-355 -92.5zM397 1186l131 284h248l-201 -284h-178z" />
    <glyph glyph-name="etatonos" unicode="&#x3ae;" horiz-adv-x="1183" 
d="M823 -410v1022q0 271 -202 271q-115 0 -185.5 -100t-70.5 -291v-492h-238v1059h233v-187q98 215 318 215q100 0 174.5 -31.5t119 -90t66 -134t21.5 -169.5v-1072h-236zM453 1186l131 284h247l-200 -284h-178z" />
    <glyph glyph-name="iotatonos" unicode="&#x3af;" horiz-adv-x="552" 
d="M397 -8q-85 0 -141 21.5t-86 67.5t-41.5 105.5t-11.5 147.5v725h237v-701q0 -87 26 -124t91 -37q9 0 45 4v-203q-58 -6 -119 -6zM115 1186l131 284h248l-201 -284h-178z" />
    <glyph glyph-name="upsilondieresistonos" unicode="&#x3b0;" horiz-adv-x="1165" 
d="M586 -25q-467 0 -467 463v621h237v-576q0 -307 230 -307q227 0 227 307v576h238v-621q0 -463 -465 -463zM190 1235v227h209v-227h-209zM455 1190l41 326h239l-104 -326h-176zM762 1235v227h211v-227h-211z" />
    <glyph glyph-name="alpha" unicode="&#x3b1;" horiz-adv-x="1308" 
d="M555 -27q-120 0 -215 42t-155.5 116.5t-92 175t-31.5 219.5q0 158 55 284t162 201.5t250 75.5q134 0 218 -50.5t124 -129.5h2v152h238v-705q0 -89 26 -125t91 -36q27 0 45 2v-203q-58 -6 -119 -6q-117 0 -180.5 41t-85.5 125q-36 -78 -122 -128.5t-210 -50.5zM301 526
q0 -153 79.5 -251.5t215.5 -98.5q146 0 227.5 95t81.5 255q0 164 -82 262.5t-227 98.5q-136 0 -215.5 -102t-79.5 -259z" />
    <glyph glyph-name="beta" unicode="&#x3b2;" horiz-adv-x="1189" 
d="M117 981q0 249 127.5 379.5t357.5 130.5q210 0 336.5 -98.5t126.5 -276.5q0 -117 -66 -198.5t-180 -114.5v-2q151 -33 236.5 -134t85.5 -266q0 -199 -114.5 -314.5t-307.5 -115.5q-119 0 -215.5 44.5t-149.5 121.5h-2v-538h-235v1382zM352 485q8 -139 85.5 -218
t213.5 -79q114 0 182 69t68 185t-86.5 184t-208.5 68h-74v172q141 3 220 61t79 163q0 92 -64.5 146t-166.5 54q-110 0 -179 -63.5t-69 -182.5v-559z" />
    <glyph glyph-name="gamma" unicode="&#x3b3;" horiz-adv-x="1159" 
d="M457 -16q-71 173 -143.5 356t-156.5 398t-126 321h245q230 -613 297 -807h7q56 141 159 423t142 384h247q-44 -108 -127 -317t-157 -391.5t-150 -358.5l-2 -404h-237z" />
    <glyph glyph-name="delta" unicode="&#x3b4;" horiz-adv-x="1142" 
d="M571 -27q-221 0 -365.5 137t-144.5 363q0 179 92 292.5t236 147.5l2 5q-110 49 -166.5 117t-56.5 165q0 372 803 256v-188q-107 17 -194.5 23.5t-146.5 5t-103.5 -10.5t-70 -21t-40.5 -29t-20 -31t-5 -31q0 -108 330 -201q167 -44 264.5 -177.5t97.5 -310.5
q0 -156 -68.5 -273.5t-184 -178t-259.5 -60.5zM301 485q0 -136 74.5 -225.5t195.5 -89.5t195 89.5t74 225.5t-74 225t-195 89t-195.5 -89t-74.5 -225z" />
    <glyph glyph-name="epsilon" unicode="&#x3b5;" horiz-adv-x="1079" 
d="M535 -25q-215 0 -337 83.5t-122 228.5q0 106 61 173.5t170 94.5v2q-94 28 -145 92.5t-51 159.5q0 130 110.5 202t298.5 72q208 0 345 -90t161 -258h-213q-15 74 -87.5 116t-178.5 42q-91 0 -150 -35t-59 -96q0 -64 57 -102.5t164 -38.5h125l-4 -162h-131
q-115 0 -176.5 -41t-61.5 -111q0 -68 64.5 -107.5t177.5 -39.5q120 0 190 44t86 113h222q-22 -157 -161 -249.5t-355 -92.5z" />
    <glyph glyph-name="zeta" unicode="&#x3b6;" horiz-adv-x="987" 
d="M684 -326q17 82 5.5 138.5t-70 95t-183.5 69.5q-176 43 -274.5 133.5t-98.5 245.5q0 46 9 92t32 97t46.5 95.5t69 106.5t82.5 109t103.5 123t115.5 130.5t134 147.5h-585v205h886v-190q-45 -49 -120.5 -129.5t-116 -123.5t-101.5 -110t-94 -106.5t-76.5 -94t-66 -91
t-45.5 -78.5t-32 -77t-9 -67q0 -41 16 -74t41 -55.5t71.5 -43.5t91 -35t116.5 -33q115 -29 184 -75t93.5 -105.5t26.5 -135.5t-15 -164h-236z" />
    <glyph glyph-name="eta" unicode="&#x3b7;" horiz-adv-x="1175" 
d="M823 -410v1022q0 271 -202 271q-115 0 -185.5 -100t-70.5 -291v-492h-238v1059h233v-187q98 215 318 215q100 0 174.5 -31.5t119 -90t66 -134t21.5 -169.5v-1072h-236z" />
    <glyph glyph-name="theta" unicode="&#x3b8;" horiz-adv-x="1300" 
d="M651 -27q-259 0 -414 207t-155 553t155 553t414 207q258 0 414 -207.5t156 -552.5t-156 -552.5t-414 -207.5zM317 639q17 -213 107.5 -340t226.5 -127t225.5 127t106.5 340h-666zM317 827h666q-17 215 -106.5 342t-225.5 127t-226.5 -127.5t-107.5 -341.5z" />
    <glyph glyph-name="iota" unicode="&#x3b9;" horiz-adv-x="555" 
d="M397 -8q-85 0 -141 21.5t-86 67.5t-41.5 105.5t-11.5 147.5v725h237v-701q0 -87 26 -124t91 -37q9 0 45 4v-203q-58 -6 -119 -6z" />
    <glyph glyph-name="kappa" unicode="&#x3ba;" horiz-adv-x="1114" 
d="M354 0h-237v1059h237v-455l459 455h289l-465 -465l459 -594h-281l-342 434l-119 -110v-324z" />
    <glyph glyph-name="lambda" unicode="&#x3bb;" horiz-adv-x="1097" 
d="M14 0q69 177 412 1067l-33 74q-23 48 -42.5 72.5t-54.5 39.5t-89 15h-90v205h94q86 0 150 -16.5t101.5 -37t70.5 -70.5t47.5 -83.5t43.5 -110.5q11 -30 17 -45q49 -121 442 -1110h-245l-295 774h-2l-283 -774h-244z" />
    <glyph glyph-name="uni03BC" unicode="&#x3bc;" horiz-adv-x="1183" 
d="M119 -410v1469h237v-639q0 -244 201 -244q115 0 185.5 100t70.5 291v492h238v-1059h-234v186q-101 -215 -317 -215q-88 0 -144 43v-424h-237z" />
    <glyph glyph-name="nu" unicode="&#x3bd;" horiz-adv-x="1064" 
d="M262 1059q33 -98 128 -368.5t145 -424.5h4q32 102 75.5 230t101.5 294t93 269h242q-214 -580 -387 -1059h-265q-188 513 -385 1059h248z" />
    <glyph glyph-name="xi" unicode="&#x3be;" horiz-adv-x="976" 
d="M748 -326q16 81 1 135.5t-74.5 90.5t-189.5 69q-206 53 -309.5 135t-103.5 224q0 147 106.5 238t286.5 118v2q-167 27 -264 107.5t-97 185.5q0 198 240 289l-268 -11v205h864v-116l2 -80q-115 -6 -217.5 -24t-193.5 -50t-145 -85.5t-54 -121.5q0 -88 117.5 -144
t332.5 -63v-196q-225 0 -351 -54t-126 -159q0 -29 9.5 -53t32.5 -43.5t47.5 -34t70 -30.5t84.5 -27.5t104 -28.5q124 -33 198 -79t102 -104t31 -132t-13 -163h-223z" />
    <glyph glyph-name="omicron" unicode="&#x3bf;" horiz-adv-x="1218" 
d="M610 -27q-155 0 -279 67t-197 194.5t-73 293.5q0 251 156 403t393 152q153 0 276.5 -66.5t197 -194t73.5 -294.5q0 -166 -73.5 -293.5t-197 -194.5t-276.5 -67zM299 528q0 -153 85.5 -255.5t225.5 -102.5q138 0 224 103t86 255q0 154 -86 256.5t-224 102.5
q-140 0 -225.5 -102.5t-85.5 -256.5z" />
    <glyph glyph-name="pi" unicode="&#x3c0;" horiz-adv-x="1325" 
d="M233 0v868h-184v191h1227v-191h-203v-510q0 -87 26 -124t91 -37q9 0 45 4v-203q-59 -6 -119 -6q-85 0 -141 21.5t-86 67.5t-41.5 105.5t-11.5 147.5v534h-365v-868h-238z" />
    <glyph glyph-name="rho" unicode="&#x3c1;" horiz-adv-x="1220" 
d="M674 -27q-242 0 -334 199h-2v-582h-232v961q7 245 152 388.5t375 143.5q110 0 206.5 -39t167.5 -109t111.5 -175.5t40.5 -231.5q0 -154 -59 -279.5t-170.5 -200.5t-255.5 -75zM322 528q0 -161 80.5 -259.5t220.5 -98.5t220.5 101.5t80.5 256.5q0 156 -80 257.5
t-221 101.5q-139 0 -220 -102t-81 -257z" />
    <glyph glyph-name="uni03C2" unicode="&#x3c2;" horiz-adv-x="1177" 
d="M74 535q-1 257 144 402.5t376 145.5q197 0 339.5 -103.5t176.5 -303.5h-223q-25 103 -102 157t-181 54q-134 0 -215.5 -89t-81.5 -229q0 -82 22 -144t69.5 -107t110 -76t153.5 -60q119 -38 192.5 -86t109.5 -109t43.5 -138.5t-6.5 -174.5h-223q10 55 6 99t-16 76
t-44.5 60t-80.5 51t-123 48q-81 26 -145 57t-122 76t-96 99.5t-60.5 129.5t-22.5 165z" />
    <glyph glyph-name="sigma" unicode="&#x3c3;" horiz-adv-x="1226" 
d="M610 -27q-243 0 -396 150.5t-153 404.5q0 169 74.5 296t203.5 193t294 66q221 0 561 -16v-193q-127 6 -248 9q101 -60 152 -160.5t51 -216.5q0 -106 -36 -201.5t-102.5 -169.5t-170 -118t-230.5 -44zM295 528q0 -153 87.5 -255.5t227.5 -102.5t225 102t85 256
q0 155 -85 257t-225 102t-227.5 -102t-87.5 -257z" />
    <glyph glyph-name="tau" unicode="&#x3c4;" horiz-adv-x="948" 
d="M29 868v191h889v-191h-353v-510q0 -88 27.5 -124.5t99.5 -36.5q6 0 56 4v-203q-43 -6 -127 -6q-89 0 -147 21.5t-89.5 67.5t-43 105t-11.5 148v534h-301z" />
    <glyph glyph-name="upsilon" unicode="&#x3c5;" horiz-adv-x="1169" 
d="M586 -25q-467 0 -467 463v621h237v-576q0 -307 230 -307q227 0 227 307v576h238v-621q0 -463 -465 -463z" />
    <glyph glyph-name="phi" unicode="&#x3c6;" horiz-adv-x="1589" 
d="M666 1462h239v-379q191 -7 333.5 -81.5t216 -197t73.5 -276.5q0 -114 -43 -213.5t-121.5 -173.5t-196.5 -118.5t-262 -49.5v-383h-239v383q-186 7 -324 81.5t-209.5 197t-71.5 276.5q0 237 163 391.5t442 163.5v379zM295 530q0 -149 101 -248t270 -108v713
q-170 -9 -270.5 -108t-100.5 -249zM905 176q178 10 282.5 108t104.5 246t-105 247.5t-282 109.5v-711z" />
    <glyph glyph-name="chi" unicode="&#x3c7;" horiz-adv-x="1171" 
d="M20 -410l431 748l-424 721h252l307 -518l305 518h252l-428 -715l434 -754h-250l-315 541l-310 -541h-254z" />
    <glyph glyph-name="psi" unicode="&#x3c8;" horiz-adv-x="1662" 
d="M717 1462h237v-1282q167 9 261 113t94 278v488h237v-535q0 -246 -157.5 -392.5t-434.5 -156.5v-385h-237v385q-280 7 -439 154t-159 395v535h237v-488q0 -176 94.5 -280t266.5 -113v1284z" />
    <glyph glyph-name="omega" unicode="&#x3c9;" horiz-adv-x="1662" 
d="M502 -27q-196 0 -308 135.5t-112 383.5q0 157 51 286t156 214.5t248 99.5v-207q-110 -18 -167 -124t-59 -263q-2 -148 55 -236t160 -88q104 0 163 98t59 263v192h167v-192q0 -165 59 -263t163 -98q103 0 160 88t55 236q0 156 -58 262.5t-168 124.5v207q143 -14 248 -99.5
t156 -214.5t51 -286q0 -248 -112 -383.5t-306 -135.5q-130 0 -217.5 78t-111.5 205h-3q-25 -127 -113 -205t-216 -78z" />
    <glyph glyph-name="iotadieresis" unicode="&#x3ca;" horiz-adv-x="552" 
d="M397 -8q-85 0 -141 21.5t-86 67.5t-41.5 105.5t-11.5 147.5v725h237v-701q0 -87 26 -124t91 -37q9 0 45 4v-203q-58 -6 -119 -6zM-57 1237v225h209v-225h-209zM315 1237v225h209v-225h-209z" />
    <glyph glyph-name="upsilondieresis" unicode="&#x3cb;" horiz-adv-x="1165" 
d="M586 -25q-467 0 -467 463v621h237v-576q0 -307 230 -307q227 0 227 307v576h238v-621q0 -463 -465 -463zM291 1237v225h209v-225h-209zM664 1237v225h208v-225h-208z" />
    <glyph glyph-name="omicrontonos" unicode="&#x3cc;" horiz-adv-x="1220" 
d="M610 -27q-155 0 -279 67t-197 194.5t-73 293.5q0 251 156 403t393 152q153 0 276.5 -66.5t197 -194t73.5 -294.5q0 -166 -73.5 -293.5t-197 -194.5t-276.5 -67zM299 528q0 -153 85.5 -255.5t225.5 -102.5q138 0 224 103t86 255q0 154 -86 256.5t-224 102.5
q-140 0 -225.5 -102.5t-85.5 -256.5zM492 1186l131 284h247l-200 -284h-178z" />
    <glyph glyph-name="upsilontonos" unicode="&#x3cd;" horiz-adv-x="1165" 
d="M586 -25q-467 0 -467 463v621h237v-576q0 -307 230 -307q227 0 227 307v576h238v-621q0 -463 -465 -463zM463 1186l131 284h248l-201 -284h-178z" />
    <glyph glyph-name="omegatonos" unicode="&#x3ce;" horiz-adv-x="1662" 
d="M502 -27q-196 0 -308 135.5t-112 383.5q0 157 51 286t156 214.5t248 99.5v-207q-110 -18 -167 -124t-59 -263q-2 -148 55 -236t160 -88q104 0 163 98t59 263v192h167v-192q0 -165 59 -263t163 -98q103 0 160 88t55 236q0 156 -58 262.5t-168 124.5v207q143 -14 248 -99.5
t156 -214.5t51 -286q0 -248 -112 -383.5t-306 -135.5q-130 0 -217.5 78t-111.5 205h-3q-25 -127 -113 -205t-216 -78zM713 1186l131 284h248l-201 -284h-178z" />
    <glyph glyph-name="uni03CF" unicode="&#x3cf;" horiz-adv-x="1132" 
d="M123 0v178h-178v195h178v925h239v-444l455 444h293l-475 -452l450 -473v-195h-723v-178h-239zM362 373h441l-318 332l-123 -115v-217z" />
    <glyph glyph-name="uni03D7" unicode="&#x3d7;" horiz-adv-x="1187" 
d="M365 0h-238v1059h238v-453l456 453h291l-485 -486l293 -329l129 133l149 -168l-625 -619l-288 2l475 488l-299 334l-96 -90v-324z" />
    <glyph glyph-name="uni0400" unicode="&#x400;" horiz-adv-x="1208" 
d="M1087 1462v-209h-688v-409h645v-207h-645v-428h695v-209h-942v1462h935zM262 1802h299l242 -223h-238z" />
    <glyph glyph-name="uni0401" unicode="&#x401;" horiz-adv-x="1208" 
d="M1087 1462v-209h-688v-409h645v-207h-645v-428h695v-209h-942v1462h935zM348 1579v223h205v-223h-205zM721 1579v223h203v-223h-203z" />
    <glyph glyph-name="uni0402" unicode="&#x402;" horiz-adv-x="1560" 
d="M987 905q134 0 234.5 -35t160.5 -98t89.5 -145t29.5 -181q3 -210 -124 -333t-330 -123q-97 0 -224 24l13 209q81 -24 165 -24q121 0 186.5 69.5t65.5 177.5q0 118 -79.5 184t-237.5 66q-156 0 -295 -39v-657h-248v1253h-373v209h1117v-209h-496v-393q191 45 346 45z" />
    <glyph glyph-name="uni0403" unicode="&#x403;" horiz-adv-x="1079" 
d="M152 0v1462h895v-209h-648v-1253h-247zM442 1579l242 223h299l-303 -223h-238z" />
    <glyph glyph-name="uni0404" unicode="&#x404;" horiz-adv-x="1591" 
d="M1491 449q-51 -212 -229.5 -344t-446.5 -132q-224 0 -393.5 99t-258.5 270.5t-89 388.5q0 215 89.5 386.5t260.5 271.5t395 100q265 0 433.5 -126t240.5 -349h-248q-58 133 -162 199.5t-264 66.5q-198 0 -327.5 -121t-161.5 -315h661v-207h-663q27 -202 156.5 -328.5
t334.5 -126.5q166 0 274 71t154 196h244z" />
    <glyph glyph-name="uni0405" unicode="&#x405;" horiz-adv-x="1275" 
d="M330 465q9 -141 99 -217t235 -76q129 0 205.5 56t76.5 167q0 44 -15 78t-36 55.5t-63.5 42t-76.5 32t-95 30.5q-7 2 -11 3.5t-10.5 3t-11.5 3.5q-51 15 -81 24.5t-77 26.5t-76 30.5t-68 35.5t-62.5 43.5t-50 51.5t-41 62.5t-24 74.5t-10.5 89q-1 101 41.5 182t115 131
t163.5 76.5t192 26.5q228 0 368 -113t161 -342h-250q-21 128 -88.5 189t-194.5 61q-116 0 -188 -51.5t-72 -157.5q0 -48 21.5 -85t67 -65.5t96 -48t130.5 -42.5q185 -55 252 -86q162 -73 214 -199q28 -69 28 -160q0 -108 -44.5 -193t-120 -136t-168.5 -77t-197 -26
q-122 0 -224 30.5t-181 90.5t-126.5 157t-54.5 222h252z" />
    <glyph glyph-name="uni0406" unicode="&#x406;" horiz-adv-x="548" 
d="M152 1462h247v-1462h-247v1462z" />
    <glyph glyph-name="uni0407" unicode="&#x407;" horiz-adv-x="548" 
d="M152 1462h247v-1462h-247v1462zM-12 1579v223h205v-223h-205zM360 1579v223h203v-223h-203z" />
    <glyph glyph-name="uni0408" unicode="&#x408;" horiz-adv-x="1081" 
d="M303 395q3 -103 53.5 -162t147.5 -59q56 0 94.5 20t57.5 57t26.5 78t7.5 95v1038h248v-1022q0 -471 -434 -471q-196 0 -318 109.5t-123 302.5l-2 96h238z" />
    <glyph glyph-name="uni0409" unicode="&#x409;" horiz-adv-x="2066" 
d="M1477 207q140 0 221.5 65.5t81.5 186.5t-78.5 184.5t-218.5 63.5h-215v-500h209zM31 -8v209h26q61 0 101 37q101 77 135 313q27 154 41.5 351t32.5 560h901v-549h235q236 0 380.5 -128t144.5 -324t-152.5 -328.5t-378.5 -132.5h-477v1253h-424q-22 -354 -40 -533.5
t-56 -336.5q-53 -218 -181 -317q-104 -74 -227 -74h-61z" />
    <glyph glyph-name="uni040A" unicode="&#x40a;" horiz-adv-x="2043" 
d="M399 0h-247v1462h247v-594h605v594h247v-594h246q222 0 364 -123t142 -301q0 -195 -133 -319.5t-365 -124.5h-501v659h-605v-659zM1251 207h234q270 0 270 235q0 103 -71 160t-207 57h-226v-452z" />
    <glyph glyph-name="uni040B" unicode="&#x40b;" horiz-adv-x="1595" 
d="M987 905q135 0 236 -36t161 -101.5t89.5 -150.5t29.5 -189v-428h-248v383q0 155 -87 234t-253 79q-135 0 -274 -39v-657h-248v1253h-373v209h1117v-209h-496v-393q191 45 346 45z" />
    <glyph glyph-name="uni040C" unicode="&#x40c;" horiz-adv-x="1355" 
d="M1042 0l-477 637h-166v-637h-247v1462h247v-616h156l455 616h293l-541 -700l567 -762h-287zM500 1579l241 223h299l-303 -223h-237z" />
    <glyph glyph-name="uni040D" unicode="&#x40d;" horiz-adv-x="1509" 
d="M1358 1462v-1462h-244v782q0 137 4 355q-42 -72 -178 -314l-487 -823h-301v1462h243v-782q0 -27 -6 -354q57 98 178 313l490 823h301zM381 1802h299l242 -223h-238z" />
    <glyph glyph-name="uni040E" unicode="&#x40e;" horiz-adv-x="1290" 
d="M207 0v209h96q87 0 128 36t112 171l6 12l-520 1034h272l371 -778l346 778h270l-530 -1136q-45 -98 -92.5 -163t-101 -100t-106.5 -49t-122 -14h-129zM293 1815h172q1 -61 42 -97.5t109 -36.5q67 0 107.5 36t42.5 98h174q-11 -122 -96.5 -192.5t-227.5 -70.5t-228 70.5
t-95 192.5z" />
    <glyph glyph-name="uni040F" unicode="&#x40f;" horiz-adv-x="1452" 
d="M606 -326v326h-454v1462h247v-1253h654v1253h247v-1462h-458v-326h-236z" />
    <glyph glyph-name="uni0410" unicode="&#x410;" horiz-adv-x="1437" 
d="M287 0h-258l536 1462h309l535 -1462h-260l-141 397h-580zM498 596h440l-217 641h-6z" />
    <glyph glyph-name="uni0411" unicode="&#x411;" horiz-adv-x="1230" 
d="M152 1462h915v-209h-668v-374h263q226 0 367.5 -118.5t141.5 -314.5q0 -200 -137.5 -323.5t-367.5 -122.5h-514v1462zM399 207h236q130 0 210.5 60.5t80.5 176.5q0 121 -81.5 178.5t-215.5 57.5h-230v-473z" />
    <glyph glyph-name="uni0412" unicode="&#x412;" horiz-adv-x="1294" 
d="M152 0v1462h522q215 0 344 -100.5t129 -286.5q0 -234 -240 -327v-3q132 -25 214.5 -106.5t82.5 -222.5q0 -143 -67.5 -237.5t-186 -136.5t-286.5 -42h-512zM399 205h265q137 0 214.5 53.5t77.5 167.5q0 109 -72.5 162t-199.5 53h-285v-436zM399 842h232q134 0 203 52
t69 165q0 110 -65.5 154t-196.5 44h-242v-415z" />
    <glyph glyph-name="uni0413" unicode="&#x413;" horiz-adv-x="1079" 
d="M152 0v1462h895v-209h-648v-1253h-247z" />
    <glyph glyph-name="uni0414" unicode="&#x414;" horiz-adv-x="1529" 
d="M1315 1462v-1253h166v-578h-236v369h-977v-369h-233v578h149q84 145 142 377q25 104 42 255t24.5 275.5t17.5 345.5h905zM430 209h637v1044h-451q-15 -259 -30 -415t-41 -275q-53 -230 -115 -354z" />
    <glyph glyph-name="uni0415" unicode="&#x415;" horiz-adv-x="1208" 
d="M1087 1462v-209h-688v-409h645v-207h-645v-428h695v-209h-942v1462h935z" />
    <glyph glyph-name="uni0416" unicode="&#x416;" horiz-adv-x="1951" 
d="M1645 0l-420 637h-125v-637h-248v637h-125l-420 -637h-284l509 762l-483 700h291l401 -616h111v616h248v-616h110l402 616h291l-484 -700l510 -762h-284z" />
    <glyph glyph-name="uni0417" unicode="&#x417;" horiz-adv-x="1312" 
d="M129 1059q20 193 151 307.5t373 114.5q238 0 377 -102t139 -281q0 -120 -65 -199.5t-170 -122.5q141 -40 220 -138t79 -230q0 -95 -33 -173.5t-100.5 -138.5t-179 -93.5t-258.5 -33.5q-268 0 -415.5 116.5t-166.5 336.5h242q11 -86 61.5 -142t120 -78t158.5 -22
q94 0 164.5 25.5t114.5 84t44 146.5q0 221 -293 221h-221v205h203q108 0 178 55t70 158q0 98 -67 146.5t-191 48.5q-254 0 -291 -211h-244z" />
    <glyph glyph-name="uni0418" unicode="&#x418;" horiz-adv-x="1509" 
d="M1358 1462v-1462h-244v782q0 137 4 355q-42 -72 -178 -314l-487 -823h-301v1462h243v-782q0 -27 -6 -354q57 98 178 313l490 823h301z" />
    <glyph glyph-name="uni0419" unicode="&#x419;" horiz-adv-x="1509" 
d="M1358 1462v-1462h-244v782q0 137 4 355q-42 -72 -178 -314l-487 -823h-301v1462h243v-782q0 -27 -6 -354q57 98 178 313l490 823h301zM432 1815h172q1 -61 42.5 -97.5t109.5 -36.5q67 0 107 36t42 98h174q-11 -122 -96 -192.5t-227 -70.5t-228.5 70.5t-95.5 192.5z" />
    <glyph glyph-name="uni041A" unicode="&#x41a;" horiz-adv-x="1355" 
d="M1042 0l-477 637h-166v-637h-247v1462h247v-616h156l455 616h293l-541 -700l567 -762h-287z" />
    <glyph glyph-name="uni041B" unicode="&#x41b;" horiz-adv-x="1458" 
d="M31 -8v209h26q61 0 101 37q94 71 135 313q9 47 17 95.5t14.5 115.5t10.5 109t9 136t7 132t8 160.5t8 162.5h942v-1464h-248v1255h-465q-16 -257 -24 -366.5t-26.5 -252t-45.5 -251.5q-50 -218 -178 -317q-104 -74 -230 -74h-61z" />
    <glyph glyph-name="uni041C" unicode="&#x41c;" horiz-adv-x="1820" 
d="M152 0v1462l385 -2l376 -1165h2l371 1167h383v-1462h-237v1176h-7l-383 -1176h-262l-385 1176h-6v-1176h-237z" />
    <glyph glyph-name="uni041D" unicode="&#x41d;" horiz-adv-x="1441" 
d="M1044 1462h248v-1462h-248v629h-645v-629h-247v1462h247v-624h645v624z" />
    <glyph glyph-name="uni041E" unicode="&#x41e;" horiz-adv-x="1673" 
d="M836 1497q175 0 321 -62t241.5 -167.5t148 -244t52.5 -292.5t-52.5 -292.5t-148 -244t-241.5 -167.5t-321 -62t-321 62t-241.5 167.5t-147.5 244t-52 292.5t52 292.5t147.5 244t241.5 167.5t321 62zM322 731q0 -111 35 -211.5t98.5 -177.5t162.5 -122.5t218 -45.5
t218 45.5t163.5 122.5t99.5 177.5t35 211.5t-35 211.5t-99.5 177.5t-163.5 122.5t-218 45.5t-218 -45.5t-162.5 -122.5t-98.5 -177.5t-35 -211.5z" />
    <glyph glyph-name="uni041F" unicode="&#x41f;" horiz-adv-x="1452" 
d="M1300 1462v-1462h-247v1253h-654v-1253h-247v1462h1148z" />
    <glyph glyph-name="uni0420" unicode="&#x420;" horiz-adv-x="1255" 
d="M641 756q140 0 221.5 66.5t81.5 187.5t-78 183t-219 62h-248v-499h242zM152 0v1462h516q236 0 380 -127t144 -323q0 -130 -69.5 -236t-191 -166.5t-269.5 -60.5h-263v-549h-247z" />
    <glyph glyph-name="uni0421" unicode="&#x421;" horiz-adv-x="1591" 
d="M1491 449q-51 -212 -229.5 -344t-446.5 -132q-224 0 -393.5 99t-258.5 270.5t-89 388.5q0 215 89.5 386.5t260.5 271.5t395 100q265 0 433.5 -126t240.5 -349h-248q-58 133 -162 199.5t-264 66.5q-151 0 -265.5 -74t-173 -197.5t-58.5 -277.5t58 -277.5t172.5 -197.5
t266.5 -74q166 0 274 71t154 196h244z" />
    <glyph glyph-name="uni0422" unicode="&#x422;" horiz-adv-x="1171" 
d="M29 1253v209h1116v-209h-436v-1253h-248v1253h-432z" />
    <glyph glyph-name="uni0423" unicode="&#x423;" horiz-adv-x="1290" 
d="M207 0v209h96q87 0 128 36t112 171l6 12l-520 1034h272l371 -778l346 778h270l-530 -1136q-45 -98 -92.5 -163t-101 -100t-106.5 -49t-122 -14h-129z" />
    <glyph glyph-name="uni0424" unicode="&#x424;" horiz-adv-x="1728" 
d="M739 0v154q-192 7 -345 78t-246 208t-93 320q0 139 53.5 253.5t146.5 190t217 118.5t267 48v154h248v-154q143 -5 267 -47.5t218 -118.5t147.5 -190.5t53.5 -253.5q0 -138 -53.5 -251.5t-147.5 -189t-218 -118t-267 -47.5v-154h-248zM303 760q0 -172 117.5 -283
t318.5 -121v811q-201 -10 -318.5 -122t-117.5 -285zM987 354q202 10 320 121.5t118 284.5q0 175 -118 287t-320 122v-815z" />
    <glyph glyph-name="uni0425" unicode="&#x425;" horiz-adv-x="1361" 
d="M16 0l516 745l-499 717h299l346 -522l360 522h289l-506 -719l525 -743h-306l-362 545l-369 -545h-293z" />
    <glyph glyph-name="uni0426" unicode="&#x426;" horiz-adv-x="1515" 
d="M152 0v1462h247v-1253h654v1253h247v-1253h166v-576h-235v367h-1079z" />
    <glyph glyph-name="uni0427" unicode="&#x427;" horiz-adv-x="1353" 
d="M606 524q-135 0 -235.5 36t-160.5 101.5t-89 150t-29 187.5v463h248v-415q0 -155 87 -234.5t253 -79.5q135 0 274 39v690h248v-1462h-248v569q-191 -45 -348 -45z" />
    <glyph glyph-name="uni0428" unicode="&#x428;" horiz-adv-x="2052" 
d="M152 0v1462h247v-1253h502v1253h248v-1253h504v1253h248v-1462h-1749z" />
    <glyph glyph-name="uni0429" unicode="&#x429;" horiz-adv-x="2115" 
d="M152 0v1462h247v-1253h502v1253h248v-1253h504v1253h248v-1253h165v-576h-235v367h-1679z" />
    <glyph glyph-name="uni042A" unicode="&#x42a;" horiz-adv-x="1470" 
d="M29 1253v209h641v-549h237q235 0 379 -128t144 -324t-152.5 -328.5t-378.5 -132.5h-477v1253h-393zM670 207h209q140 0 221.5 65.5t81.5 186.5t-77.5 184.5t-217.5 63.5h-217v-500z" />
    <glyph glyph-name="uni042B" unicode="&#x42b;" horiz-adv-x="1703" 
d="M1305 1462h247v-1462h-247v1462zM152 0v1462h247v-549h236q234 0 378 -128t144 -324t-152 -328.5t-376 -132.5h-477zM399 207h209q140 0 221.5 65.5t81.5 186.5t-78.5 184.5t-218.5 63.5h-215v-500z" />
    <glyph glyph-name="uni042C" unicode="&#x42c;" horiz-adv-x="1230" 
d="M152 0v1462h247v-549h269q236 0 380 -127.5t144 -324.5q0 -196 -152 -328.5t-378 -132.5h-510zM399 207h242q140 0 221.5 65.5t81.5 186.5t-78.5 184.5t-218.5 63.5h-248v-500z" />
    <glyph glyph-name="uni042D" unicode="&#x42d;" horiz-adv-x="1591" 
d="M344 449q46 -125 154 -196t274 -71q205 0 335 126.5t157 328.5h-664v207h662q-32 194 -162 315t-328 121q-160 0 -264 -66.5t-162 -199.5h-248q72 223 240.5 349t433.5 126q169 0 310 -58t236 -159.5t147.5 -240.5t52.5 -300q0 -162 -52 -301.5t-147 -240.5t-235 -158.5
t-308 -57.5q-268 0 -446.5 132t-229.5 344h244z" />
    <glyph glyph-name="uni042E" unicode="&#x42e;" horiz-adv-x="2084" 
d="M399 0h-247v1462h247v-616h185q16 135 71.5 252t144 205t216 138t278.5 50q167 0 304 -61t226.5 -165.5t138 -242.5t48.5 -293q0 -154 -48.5 -291t-138 -241t-226.5 -165t-304 -61q-154 0 -283.5 52.5t-218.5 143.5t-143.5 211t-68.5 259h-181v-637zM823 729
q0 -149 52.5 -271.5t161.5 -200t257 -77.5q147 0 255.5 77.5t161 200t52.5 271.5q0 150 -52.5 273t-161 200.5t-255.5 77.5q-112 0 -202.5 -44.5t-148.5 -121t-89 -175.5t-31 -210z" />
    <glyph glyph-name="uni042F" unicode="&#x42f;" horiz-adv-x="1349" 
d="M1198 0h-248v573h-209q-65 0 -113 -16t-81 -49.5t-54.5 -71.5t-41.5 -94q-15 -41 -40 -115.5t-45.5 -130t-41.5 -96.5h-256v16q25 43 48.5 102t35.5 95.5t41 128.5q22 72 40 117.5t45 90t63.5 71.5t86.5 41q-127 33 -211 133t-84 252q0 185 136 300t380 115h549v-1462z
M379 1028q0 -116 73.5 -183t209.5 -67h288v482h-280q-149 0 -220 -64t-71 -168z" />
    <glyph glyph-name="uni0430" unicode="&#x430;" horiz-adv-x="1126" 
d="M121 735q11 66 43 127t85 113t135 83.5t181 31.5q102 0 180.5 -24t128 -64.5t81.5 -98t44.5 -119t12.5 -133.5v-407q0 -163 16 -244h-242q-6 62 -6 125v49h-2q-15 -36 -38.5 -68t-62.5 -64t-99.5 -50.5t-135.5 -18.5q-173 0 -272.5 91.5t-99.5 224.5q0 43 11 80t27 65.5
t44 53t53.5 41.5t63.5 32t65.5 23.5t69.5 17t65 12.5t61.5 9.5t51.5 7.5q107 16 151.5 44t44.5 93q0 63 -56 100t-153 37q-86 0 -145 -45.5t-78 -124.5h-225zM305 297q0 -64 52.5 -104.5t144.5 -40.5q56 0 104 18.5t88.5 56.5t64 106t23.5 159v110q-19 -50 -76 -85.5
t-182 -59.5q-112 -21 -165.5 -58.5t-53.5 -101.5z" />
    <glyph glyph-name="uni0431" unicode="&#x431;" horiz-adv-x="1185" 
d="M608 -27q-169 0 -296 81.5t-185 230.5q-49 124 -49 329q0 103 9 188.5t32.5 176t71.5 165.5t118 128q104 84 282 127t453 65v-211q-230 -23 -379 -55.5t-227 -97.5q-110 -89 -123 -279q59 82 149.5 125t197.5 43q207 0 334.5 -138t127.5 -362q0 -228 -144 -372t-372 -144
zM309 479q0 -140 80 -227.5t213 -87.5q131 0 211 87.5t80 227.5q0 143 -77.5 231.5t-209.5 88.5q-129 0 -213 -89.5t-84 -230.5z" />
    <glyph glyph-name="uni0432" unicode="&#x432;" horiz-adv-x="1091" 
d="M127 0v1059h463q184 0 282.5 -66.5t98.5 -191.5q0 -171 -156 -252q102 -29 157.5 -96t55.5 -160q0 -141 -101 -217t-288 -76h-512zM365 154h245q85 0 136 39.5t51 109.5q0 71 -51 111.5t-136 40.5h-245v-301zM365 608h194q81 0 130.5 40.5t49.5 109.5q0 68 -49.5 107.5
t-130.5 39.5h-194v-297z" />
    <glyph glyph-name="uni0433" unicode="&#x433;" horiz-adv-x="899" 
d="M887 1059v-189h-522v-870h-238v1059h760z" />
    <glyph glyph-name="uni0434" unicode="&#x434;" horiz-adv-x="1300" 
d="M1118 1059v-871h146v-514h-220v326h-788v-326h-219v514h43q76 0 121 48q74 76 96 299q15 134 31 524h790zM412 188h469v682h-338q-9 -145 -21 -262q-6 -77 -9.5 -109t-16 -97t-31.5 -109q-22 -64 -53 -105z" />
    <glyph glyph-name="uni0435" unicode="&#x435;" horiz-adv-x="1173" 
d="M1090 313q-46 -161 -176.5 -251.5t-319.5 -90.5q-238 0 -385.5 155.5t-147.5 405.5q0 241 151 398t382 157q131 0 231.5 -47.5t160 -130t89.5 -183.5t31 -218q0 -27 -2 -45h-815q13 -139 96 -220t209 -81q95 0 164 38t96 113h236zM291 631h581q-11 121 -81.5 196.5
t-196.5 75.5q-125 0 -205.5 -73.5t-97.5 -198.5z" />
    <glyph glyph-name="uni0436" unicode="&#x436;" horiz-adv-x="1583" 
d="M29 0l372 549l-366 510h266l291 -426h82v426h237v-426h82l289 426h266l-364 -510l372 -549h-266l-293 444h-86v-444h-237v444h-86l-295 -444h-264z" />
    <glyph glyph-name="uni0437" unicode="&#x437;" horiz-adv-x="1024" 
d="M512 -29q-205 0 -312.5 86.5t-133.5 253.5h210q22 -157 232 -157q103 0 162 43t59 116t-55 106.5t-144 33.5h-165v172h157q73 0 118.5 38t45.5 107q0 66 -46.5 99.5t-131.5 33.5q-174 0 -197 -143h-217q18 152 125 239.5t305 87.5q179 0 284 -76.5t105 -211.5
q0 -98 -42.5 -159t-108.5 -87q199 -59 199 -246q0 -144 -117.5 -240t-331.5 -96z" />
    <glyph glyph-name="uni0438" unicode="&#x438;" horiz-adv-x="1236" 
d="M127 0v1059h238v-750l471 750h276v-1059h-238v750l-475 -750h-272z" />
    <glyph glyph-name="uni0439" unicode="&#x439;" horiz-adv-x="1236" 
d="M127 0v1059h238v-750l471 750h276v-1059h-238v750l-475 -750h-272zM297 1450h172q1 -60 42.5 -95.5t109.5 -35.5q67 0 107 35.5t42 95.5h174q-11 -121 -96 -190.5t-227 -69.5t-228.5 70t-95.5 190z" />
    <glyph glyph-name="uni043A" unicode="&#x43a;" horiz-adv-x="1087" 
d="M365 0h-238v1059h238v-428h100l323 428h275l-399 -512l405 -547h-274l-326 444h-104v-444z" />
    <glyph glyph-name="uni043B" unicode="&#x43b;" horiz-adv-x="1183" 
d="M1057 1059v-1059h-238v870h-340q-15 -247 -16 -262q-21 -211 -41 -297q-33 -144 -96 -211q-100 -108 -273 -108h-39v188h17q65 0 110 45q72 77 95 310q20 210 30 524h791z" />
    <glyph glyph-name="uni043C" unicode="&#x43c;" horiz-adv-x="1521" 
d="M127 0v1059h317l314 -764h6l313 764h320v-1059h-232v748h-2l-317 -748h-168l-320 748h-2v-748h-229z" />
    <glyph glyph-name="uni043D" unicode="&#x43d;" horiz-adv-x="1181" 
d="M365 1059v-430h452v430h240v-1059h-240v440h-452v-440h-238v1059h238z" />
    <glyph glyph-name="uni043E" unicode="&#x43e;" horiz-adv-x="1212" 
d="M608 -29q-155 0 -279.5 69.5t-196 197t-71.5 290.5t71.5 291t196 198t279.5 70q154 0 278.5 -70t195.5 -198t71 -291t-71 -290.5t-195 -197t-279 -69.5zM293 528q0 -154 87.5 -259t227.5 -105q138 0 226 105t88 259q0 155 -87.5 261t-226.5 106q-140 0 -227.5 -105.5
t-87.5 -261.5z" />
    <glyph glyph-name="uni043F" unicode="&#x43f;" horiz-adv-x="1183" 
d="M1057 1059v-1059h-238v870h-454v-870h-238v1059h930z" />
    <glyph glyph-name="uni0440" unicode="&#x440;" horiz-adv-x="1261" 
d="M711 1085q218 0 354.5 -152t136.5 -401q0 -251 -137.5 -405t-355.5 -154q-126 0 -214.5 64t-121.5 145h-2v-592h-244v1469h242v-191h2q30 84 120.5 150.5t219.5 66.5zM352 532q0 -74 19 -139t55.5 -117t96.5 -82t136 -30q146 0 226 102.5t80 265.5q0 159 -81 261
t-225 102q-74 0 -134 -30.5t-97 -81.5t-56.5 -115.5t-19.5 -135.5z" />
    <glyph glyph-name="uni0441" unicode="&#x441;" horiz-adv-x="1177" 
d="M1106 344q-38 -179 -167 -276t-321 -97q-242 0 -399.5 154t-157.5 403q0 167 72.5 295t199 196t285.5 68q193 0 321 -99.5t159 -264.5h-226q-67 176 -258 176q-143 0 -231 -106t-88 -265q0 -158 87.5 -262t231.5 -104q99 0 167.5 46t97.5 136h227z" />
    <glyph glyph-name="uni0442" unicode="&#x442;" horiz-adv-x="980" 
d="M956 1059v-189h-348v-870h-237v870h-348v189h933z" />
    <glyph glyph-name="uni0443" unicode="&#x443;" horiz-adv-x="1083" 
d="M264 1059q49 -140 145.5 -406.5t145.5 -406.5h4q45 149 141 445.5t119 367.5h250q-136 -379 -238.5 -650.5t-228.5 -617.5q-37 -99 -101.5 -150t-168.5 -51h-182v189h116q61 0 89 25.5t48 86.5l33 84q-84 217 -225 575.5t-199 508.5h252z" />
    <glyph glyph-name="uni0444" unicode="&#x444;" horiz-adv-x="1540" 
d="M649 -33q-124 7 -229 45.5t-186 107t-127 173t-46 235.5t46 236.5t127 174t186 107.5t229 46v370h242v-370q124 -7 229.5 -46t186.5 -107.5t127.5 -174t46.5 -236.5t-46.5 -236t-127.5 -173t-186.5 -106.5t-229.5 -45.5v-377h-242v377zM293 528q0 -158 95 -257.5
t261 -112.5v743q-165 -13 -260.5 -113.5t-95.5 -259.5zM891 158q166 14 262 113t96 257t-96 259t-262 114v-743z" />
    <glyph glyph-name="uni0445" unicode="&#x445;" horiz-adv-x="1081" 
d="M29 0l377 541l-363 518h268l230 -334l227 334h268l-360 -516l375 -543h-269l-241 358l-244 -358h-268z" />
    <glyph glyph-name="uni0446" unicode="&#x446;" horiz-adv-x="1239" 
d="M127 0v1059h238v-871h454v871h238v-871h147v-499h-219v311h-858z" />
    <glyph glyph-name="uni0447" unicode="&#x447;" horiz-adv-x="1081" 
d="M489 344q-211 0 -319.5 108.5t-108.5 315.5v291h238v-297q0 -117 59.5 -172t196.5 -55q82 0 162 14v510h237v-1059h-237v365q-111 -21 -228 -21z" />
    <glyph glyph-name="uni0448" unicode="&#x448;" horiz-adv-x="1730" 
d="M127 0v1059h238v-871h380v871h238v-871h383v871h238v-1059h-1477z" />
    <glyph glyph-name="uni0449" unicode="&#x449;" horiz-adv-x="1785" 
d="M127 0v1059h238v-871h380v871h238v-871h383v871h238v-871h147v-499h-219v311h-1405z" />
    <glyph glyph-name="uni044A" unicode="&#x44a;" horiz-adv-x="1267" 
d="M360 0v870h-348v189h586v-363h219q185 0 297.5 -93.5t112.5 -250.5q0 -162 -112 -257t-298 -95h-457zM598 158h166q103 0 166 50.5t63 141.5q0 89 -63 139t-166 50h-166v-381z" />
    <glyph glyph-name="uni044B" unicode="&#x44b;" horiz-adv-x="1462" 
d="M1098 0v1059h237v-1059h-237zM127 0v1059h238v-363h186q187 0 299.5 -93t112.5 -251q0 -162 -112.5 -257t-299.5 -95h-424zM365 170h137q102 0 165.5 48t63.5 132q0 83 -63.5 129.5t-165.5 46.5h-137v-356z" />
    <glyph glyph-name="uni044C" unicode="&#x44c;" horiz-adv-x="1034" 
d="M127 0v1059h238v-363h217q187 0 299 -93t112 -251q0 -162 -112 -257t-299 -95h-455zM365 170h167q102 0 166 48t64 132q0 83 -64 129.5t-166 46.5h-167v-356z" />
    <glyph glyph-name="uni044D" unicode="&#x44d;" horiz-adv-x="1177" 
d="M432 451v167h442q-24 125 -107 203t-204 78q-191 0 -258 -176h-225q31 166 158.5 265t320.5 99q159 0 285.5 -68t199 -196t72.5 -295q0 -249 -157.5 -403t-399.5 -154q-192 0 -320.5 97t-166.5 276h227q29 -91 97 -136.5t167 -45.5q125 0 209 80t105 209h-445z" />
    <glyph glyph-name="uni044E" unicode="&#x44e;" horiz-adv-x="1607" 
d="M365 1059v-430h159q31 204 170 329t338 125q225 0 369.5 -155t144.5 -400t-144.5 -400t-369.5 -155q-203 0 -342.5 128t-165.5 339h-159v-440h-238v1059h238zM752 528q0 -157 79 -260.5t201 -103.5q124 0 203.5 103t79.5 261t-79.5 261.5t-203.5 103.5
q-122 0 -201 -103.5t-79 -261.5z" />
    <glyph glyph-name="uni044F" unicode="&#x44f;" horiz-adv-x="1116" 
d="M72 4q11 20 20.5 42t19.5 49.5t16.5 45.5t18.5 54.5t17 52.5q29 87 68.5 139t103.5 80q-99 36 -155 107t-56 167q0 149 111.5 233.5t298.5 84.5h454v-1059h-237v410h-127q-91 0 -135 -39.5t-78 -130.5q-8 -23 -28.5 -82.5t-34.5 -94.5t-30 -63h-247v4zM358 731
q0 -76 63.5 -119t164.5 -43h166v330h-166q-101 0 -164.5 -44t-63.5 -124z" />
    <glyph glyph-name="uni0450" unicode="&#x450;" horiz-adv-x="1173" 
d="M1090 313q-46 -161 -176.5 -251.5t-319.5 -90.5q-238 0 -385.5 155.5t-147.5 405.5q0 241 151 398t382 157q131 0 231.5 -47.5t160 -130t89.5 -183.5t31 -218q0 -27 -2 -45h-815q13 -139 96 -220t209 -81q95 0 164 38t96 113h236zM276 1462h275l182 -268h-176zM291 631
h581q-11 121 -81.5 196.5t-196.5 75.5q-125 0 -205.5 -73.5t-97.5 -198.5z" />
    <glyph glyph-name="uni0451" unicode="&#x451;" horiz-adv-x="1173" 
d="M1090 313q-46 -161 -176.5 -251.5t-319.5 -90.5q-238 0 -385.5 155.5t-147.5 405.5q0 241 151 398t382 157q131 0 231.5 -47.5t160 -130t89.5 -183.5t31 -218q0 -27 -2 -45h-815q13 -139 96 -220t209 -81q95 0 164 38t96 113h236zM291 631h581q-11 121 -81.5 196.5
t-196.5 75.5q-125 0 -205.5 -73.5t-97.5 -198.5zM301 1237v225h209v-225h-209zM674 1237v225h209v-225h-209z" />
    <glyph glyph-name="uni0452" unicode="&#x452;" horiz-adv-x="1183" 
d="M127 0v1194h-133v115h133v153h233v-153h332v-115h-332v-322q98 215 318 215q100 0 174.5 -31.5t119 -90t66 -134t21.5 -169.5v-719q0 -89 -13.5 -149t-47.5 -106.5t-95.5 -68.5t-154.5 -22h-105v190h53q75 0 101 37t26 133v655q0 271 -202 271q-115 0 -185.5 -100
t-70.5 -291v-492h-238z" />
    <glyph glyph-name="uni0453" unicode="&#x453;" horiz-adv-x="899" 
d="M887 1059v-189h-522v-870h-238v1059h760zM383 1194l182 268h275l-281 -268h-176z" />
    <glyph glyph-name="uni0454" unicode="&#x454;" horiz-adv-x="1177" 
d="M745 451h-444q21 -129 104.5 -209t208.5 -80q99 0 167.5 46t97.5 136h227q-38 -179 -167 -276t-321 -97q-242 0 -399.5 154t-157.5 403q0 167 72.5 295t199 196t285.5 68q193 0 321 -99.5t159 -264.5h-226q-67 176 -258 176q-121 0 -204 -78t-107 -203h442v-167z" />
    <glyph glyph-name="uni0455" unicode="&#x455;" horiz-adv-x="1001" 
d="M698 741q-8 84 -65.5 125t-136.5 41q-72 0 -123 -36t-51 -91q0 -54 43.5 -88t128.5 -55q117 -30 141 -37q307 -80 307 -297q0 -102 -62 -179t-159.5 -115t-212.5 -38q-83 0 -157 20t-137 60.5t-104 110.5t-49 162h234q29 -170 215 -170q83 0 141 34t58 103q0 25 -10 45
t-24 33.5t-38.5 25t-45.5 18.5t-52 15q-88 21 -152 39q-136 36 -215.5 112t-79.5 193q0 140 119.5 227.5t288.5 87.5q176 0 292 -89.5t134 -256.5h-228z" />
    <glyph glyph-name="uni0456" unicode="&#x456;" horiz-adv-x="503" 
d="M377 1229h-248v233h248v-233zM127 0v1059h238v-1059h-238z" />
    <glyph glyph-name="uni0457" unicode="&#x457;" horiz-adv-x="489" 
d="M127 0v1059h238v-1059h-238zM-47 1237v225h209v-225h-209zM326 1237v225h209v-225h-209z" />
    <glyph glyph-name="uni0458" unicode="&#x458;" horiz-adv-x="524" 
d="M399 1229h-247v233h247v-233zM-29 -403v188h62q76 0 103.5 26.5t27.5 110.5v1137h229v-1147q0 -151 -67.5 -233t-229.5 -82h-125z" />
    <glyph glyph-name="uni0459" unicode="&#x459;" horiz-adv-x="1687" 
d="M1036 1059v-363h199q187 0 299.5 -93t112.5 -251q0 -162 -112.5 -257t-299.5 -95h-436v870h-320q-15 -247 -16 -262q-21 -211 -41 -297q-33 -144 -96 -211q-100 -108 -273 -108h-39v188h17q65 0 110 45q72 77 95 310q20 210 30 524h770zM1036 170h150q102 0 164.5 47.5
t62.5 132.5q0 83 -62.5 129.5t-164.5 46.5h-150v-356z" />
    <glyph glyph-name="uni045A" unicode="&#x45a;" horiz-adv-x="1685" 
d="M365 1059v-408h434v408h237v-408h224q181 0 283 -88.5t102 -234.5q0 -152 -101 -240t-284 -88h-461v469h-434v-469h-238v1059h238zM1036 170h170q102 0 155.5 40.5t53.5 115.5q0 72 -54 114.5t-155 42.5h-170v-313z" />
    <glyph glyph-name="uni045B" unicode="&#x45b;" horiz-adv-x="1175" 
d="M127 0v1194h-131v115h131v153h233v-153h334v-115h-334v-322q98 215 318 215q100 0 174.5 -31.5t119 -90t66 -134t21.5 -169.5v-662h-236v612q0 271 -202 271q-115 0 -185.5 -100t-70.5 -291v-492h-238z" />
    <glyph glyph-name="uni045C" unicode="&#x45c;" horiz-adv-x="1087" 
d="M365 0h-238v1059h238v-428h100l323 428h275l-399 -512l405 -547h-274l-326 444h-104v-444zM420 1194l182 268h275l-281 -268h-176z" />
    <glyph glyph-name="uni045D" unicode="&#x45d;" horiz-adv-x="1236" 
d="M127 0v1059h238v-750l471 750h276v-1059h-238v750l-475 -750h-272zM303 1462h275l182 -268h-176z" />
    <glyph glyph-name="uni045E" unicode="&#x45e;" horiz-adv-x="1083" 
d="M264 1059q49 -140 145.5 -406.5t145.5 -406.5h4q45 149 141 445.5t119 367.5h250q-136 -379 -238.5 -650.5t-228.5 -617.5q-37 -99 -101.5 -150t-168.5 -51h-182v189h116q61 0 89 25.5t48 86.5l33 84q-84 217 -225 575.5t-199 508.5h252zM219 1450h172q1 -60 42.5 -95.5
t109.5 -35.5q67 0 107 35.5t42 95.5h174q-11 -121 -96 -190.5t-227 -69.5t-228.5 70t-95.5 190z" />
    <glyph glyph-name="uni045F" unicode="&#x45f;" horiz-adv-x="1181" 
d="M481 -311v311h-356v1059h237v-871h455v871h238v-1059h-355v-311h-219z" />
    <glyph glyph-name="uni0490" unicode="&#x490;" horiz-adv-x="1079" 
d="M399 1253v-1253h-247v1462h659v326h236v-535h-648z" />
    <glyph glyph-name="uni0491" unicode="&#x491;" horiz-adv-x="899" 
d="M365 870v-870h-238v1059h541v311h219v-500h-522z" />
    <glyph glyph-name="uni0492" unicode="&#x492;" horiz-adv-x="1079" 
d="M8 621v165h144v676h895v-209h-648v-467h297v-165h-297v-621h-247v621h-144z" />
    <glyph glyph-name="uni0493" unicode="&#x493;" horiz-adv-x="899" 
d="M643 430h-278v-430h-238v430h-109v143h109v486h760v-189h-522v-297h278v-143z" />
    <glyph glyph-name="uni0496" unicode="&#x496;" horiz-adv-x="2019" 
d="M1645 0l-420 637h-125v-637h-248v637h-125l-420 -637h-284l509 762l-483 700h291l401 -616h111v616h248v-616h110l402 616h291l-484 -700l371 -553h199v-576h-234v367h-110z" />
    <glyph glyph-name="uni0497" unicode="&#x497;" horiz-adv-x="1640" 
d="M29 0l372 549l-366 510h266l291 -426h82v426h237v-426h82l289 426h266l-364 -510l243 -361h191v-499h-219v311h-109l-293 444h-86v-444h-237v444h-86l-295 -444h-264z" />
    <glyph glyph-name="uni049A" unicode="&#x49a;" horiz-adv-x="1417" 
d="M1042 0l-477 637h-166v-637h-247v1462h247v-616h156l455 616h293l-541 -700l412 -553h212v-576h-233v367h-111z" />
    <glyph glyph-name="uni049B" unicode="&#x49b;" horiz-adv-x="1142" 
d="M365 0h-238v1059h238v-428h100l323 428h275l-399 -512l266 -359h192v-499h-219v311h-108l-326 444h-104v-444z" />
    <glyph glyph-name="uni049C" unicode="&#x49c;" horiz-adv-x="1355" 
d="M1042 0l-442 637h-57v-254h-74v254h-70v-637h-247v1462h247v-616h70v235h74v-235h47l420 616h293l-502 -704l528 -758h-287z" />
    <glyph glyph-name="uni049D" unicode="&#x49d;" horiz-adv-x="1087" 
d="M365 0h-238v1059h238v-430h51v170h69v-170h21l282 430h275l-358 -514l364 -545h-274l-281 440h-29v-168h-69v168h-51v-440z" />
    <glyph glyph-name="uni04A2" unicode="&#x4a2;" horiz-adv-x="1505" 
d="M1044 1462h248v-1253h164v-576h-235v367h-177v629h-645v-629h-247v1462h247v-624h645v624z" />
    <glyph glyph-name="uni04A3" unicode="&#x4a3;" horiz-adv-x="1239" 
d="M365 1059v-430h452v430h240v-871h145v-499h-219v311h-166v440h-452v-440h-238v1059h238z" />
    <glyph glyph-name="uni04AE" unicode="&#x4ae;" horiz-adv-x="1298" 
d="M311 1462q236 -449 340 -649h4q178 335 336 649h279l-498 -880v-582h-248v582l-495 880h282z" />
    <glyph glyph-name="uni04AF" unicode="&#x4af;" horiz-adv-x="1062" 
d="M260 1059q31 -91 126.5 -364.5t145.5 -428.5h5q32 102 75.5 230t101.5 294t93 269h242q-41 -109 -400 -1100v-369h-237v369q-29 79 -400 1100h248z" />
    <glyph glyph-name="uni04B2" unicode="&#x4b2;" horiz-adv-x="1404" 
d="M16 0l516 745l-499 717h299l346 -522l360 522h289l-506 -719l377 -534h176v-576h-233v367h-101l-362 545l-369 -545h-293z" />
    <glyph glyph-name="uni04B3" unicode="&#x4b3;" horiz-adv-x="1136" 
d="M29 0l377 541l-363 518h268l230 -334l227 334h268l-360 -516l244 -355h196v-499h-219v311h-115l-241 358l-244 -358h-268z" />
    <glyph glyph-name="uni04B8" unicode="&#x4b8;" horiz-adv-x="1353" 
d="M610 287v237h-4q-135 0 -235.5 36t-160.5 101.5t-89 150t-29 187.5v463h248v-415q0 -138 69 -216.5t201 -93.5v248h74v-252q131 0 270 39v690h248v-1462h-248v569q-149 -35 -270 -43v-239h-74z" />
    <glyph glyph-name="uni04B9" unicode="&#x4b9;" horiz-adv-x="1081" 
d="M483 180v164q-208 1 -315 110t-107 314v291h238v-297q0 -101 43 -155.5t141 -67.5v168h70v-172h2q82 0 162 14v510h237v-1059h-237v365q-85 -16 -164 -19v-166h-70z" />
    <glyph glyph-name="uni04BA" unicode="&#x4ba;" horiz-adv-x="1353" 
d="M748 938q135 0 235.5 -36t160.5 -101.5t89 -150t29 -187.5v-463h-248v416q0 155 -87 234t-253 79q-136 0 -275 -39v-690h-247v1462h247v-569q191 45 349 45z" />
    <glyph glyph-name="uni04BB" unicode="&#x4bb;" horiz-adv-x="1175" 
d="M127 0v1462h233v-590q98 215 318 215q100 0 174.5 -31.5t119 -90t66 -134t21.5 -169.5v-662h-236v612q0 271 -202 271q-115 0 -185.5 -100t-70.5 -291v-492h-238z" />
    <glyph glyph-name="uni04C0" unicode="&#x4c0;" horiz-adv-x="548" 
d="M152 1462h247v-1462h-247v1462z" />
    <glyph glyph-name="uni04CF" unicode="&#x4cf;" horiz-adv-x="489" 
d="M127 1462h238v-1462h-238v1462z" />
    <glyph glyph-name="uni04D8" unicode="&#x4d8;" horiz-adv-x="1589" 
d="M784 -29q-164 0 -299.5 61t-224.5 165t-137.5 241t-48.5 291q0 67 4 102h1182q-13 89 -51 168t-97.5 141t-145.5 98t-186 36q-288 0 -411 -219h-260q81 207 250.5 317.5t420.5 110.5q209 0 376 -90.5t264.5 -261.5t97.5 -394q0 -217 -88.5 -390.5t-256.5 -274.5
t-389 -101zM315 631q18 -124 76 -224.5t160.5 -163.5t232.5 -63q103 0 188.5 36t143.5 99t94.5 143t49.5 173h-945z" />
    <glyph glyph-name="uni04D9" unicode="&#x4d9;" horiz-adv-x="1173" 
d="M84 745q46 161 176.5 251.5t319.5 90.5q238 0 385 -155t147 -406q0 -241 -150.5 -398t-381.5 -157q-105 0 -191.5 31.5t-145 85.5t-98.5 128.5t-58 158t-19 176.5q0 27 2 45h815q-13 139 -96 220t-209 81q-95 0 -164.5 -38.5t-96.5 -113.5h-235zM301 428
q11 -121 82 -196.5t197 -75.5q125 0 205.5 73.5t97.5 198.5h-582z" />
    <glyph glyph-name="uni04E8" unicode="&#x4e8;" horiz-adv-x="1673" 
d="M836 1497q175 0 321 -62t241.5 -167.5t148 -244t52.5 -292.5t-52.5 -292.5t-148 -244t-241.5 -167.5t-321 -62t-321 62t-241.5 167.5t-147.5 244t-52 292.5t52 292.5t147.5 244t241.5 167.5t321 62zM328 641q13 -97 53.5 -181t103.5 -148t153.5 -101t197.5 -37
q211 0 346.5 133t163.5 334h-1018zM330 840h1013q-32 195 -166 321.5t-341 126.5t-340.5 -126.5t-165.5 -321.5z" />
    <glyph glyph-name="uni04E9" unicode="&#x4e9;" horiz-adv-x="1214" 
d="M608 -29q-155 0 -279.5 69.5t-196 197t-71.5 290.5t71.5 291t196 198t279.5 70q154 0 278.5 -70t195.5 -198t71 -291t-71 -290.5t-195 -197t-279 -69.5zM299 453q21 -127 104.5 -208t204.5 -81q120 0 203 81.5t104 207.5h-616zM301 621h612q-25 122 -106.5 198t-198.5 76
t-199.5 -76t-107.5 -198z" />
    <glyph glyph-name="Wgrave" unicode="&#x1e80;" horiz-adv-x="1912" 
d="M16 1462h263l210 -1028l33 -172h6l37 172l228 1028h323l217 -1028l37 -174h4l37 174l223 1028h262l-254 -1028l-104 -434h-334l-86 434l-162 780h-4l-172 -780l-92 -434h-334l-96 434zM582 1802h299l241 -223h-237z" />
    <glyph glyph-name="wgrave" unicode="&#x1e81;" horiz-adv-x="1599" 
d="M317 0l-305 1059h246l139 -547q14 -57 33 -151.5t27 -129.5h2q13 54 31.5 147.5t29.5 141.5l137 539h283l137 -541q15 -59 64 -289h2q33 141 63 289l135 541h244l-307 -1059h-274l-146 545q-58 256 -59 260h-4q-31 -150 -60 -258l-143 -547h-275zM483 1462h275l182 -268
h-176z" />
    <glyph glyph-name="Wacute" unicode="&#x1e82;" horiz-adv-x="1912" 
d="M16 1462h263l210 -1028l33 -172h6l37 172l228 1028h323l217 -1028l37 -174h4l37 174l223 1028h262l-254 -1028l-104 -434h-334l-86 434l-162 780h-4l-172 -780l-92 -434h-334l-96 434zM774 1579l242 223h299l-303 -223h-238z" />
    <glyph glyph-name="wacute" unicode="&#x1e83;" horiz-adv-x="1599" 
d="M317 0l-305 1059h246l139 -547q14 -57 33 -151.5t27 -129.5h2q13 54 31.5 147.5t29.5 141.5l137 539h283l137 -541q15 -59 64 -289h2q33 141 63 289l135 541h244l-307 -1059h-274l-146 545q-58 256 -59 260h-4q-31 -150 -60 -258l-143 -547h-275zM676 1194l182 268h275
l-281 -268h-176z" />
    <glyph glyph-name="Wdieresis" unicode="&#x1e84;" horiz-adv-x="1912" 
d="M16 1462h263l210 -1028l33 -172h6l37 172l228 1028h323l217 -1028l37 -174h4l37 174l223 1028h262l-254 -1028l-104 -434h-334l-86 434l-162 780h-4l-172 -780l-92 -434h-334l-96 434zM668 1579v223h204v-223h-204zM1040 1579v223h203v-223h-203z" />
    <glyph glyph-name="wdieresis" unicode="&#x1e85;" horiz-adv-x="1599" 
d="M317 0l-305 1059h246l139 -547q14 -57 33 -151.5t27 -129.5h2q13 54 31.5 147.5t29.5 141.5l137 539h283l137 -541q15 -59 64 -289h2q33 141 63 289l135 541h244l-307 -1059h-274l-146 545q-58 256 -59 260h-4q-31 -150 -60 -258l-143 -547h-275zM508 1237v225h209v-225
h-209zM881 1237v225h209v-225h-209z" />
    <glyph glyph-name="uni1E9E" unicode="&#x1e9e;" horiz-adv-x="1394" 
d="M154 967q0 158 72 274t196.5 174t286.5 58q154 0 302.5 -44.5t248.5 -115.5l-373 -461q195 -17 301 -129.5t106 -294.5q0 -205 -137 -325.5t-371 -120.5q-117 0 -194 14l29 201q53 -15 143 -15q132 0 209.5 72.5t77.5 194.5q0 112 -88.5 175.5t-243.5 63.5h-68v182
l301 371q-86 39 -229 39q-141 0 -235.5 -84.5t-94.5 -237.5v-958h-239v967z" />
    <glyph glyph-name="Ygrave" unicode="&#x1ef2;" horiz-adv-x="1298" 
d="M311 1462q236 -449 340 -649h4q178 335 336 649h279l-498 -880v-582h-248v582l-495 880h282zM274 1802h299l242 -223h-237z" />
    <glyph glyph-name="ygrave" unicode="&#x1ef3;" horiz-adv-x="1083" 
d="M264 1059q49 -140 145.5 -406.5t145.5 -406.5h4q45 149 141 445.5t119 367.5h250q-136 -379 -238.5 -650.5t-228.5 -617.5q-37 -99 -101.5 -150t-168.5 -51h-182v189h116q61 0 89 25.5t48 86.5l33 84q-84 217 -225 575.5t-199 508.5h252zM225 1462h275l182 -268h-176z
" />
    <glyph glyph-name="uni2011" unicode="&#x2011;" horiz-adv-x="991" 
d="M152 627h688v-189h-688v189z" />
    <glyph glyph-name="endash" unicode="&#x2013;" horiz-adv-x="1421" 
d="M152 627h1118v-189h-1118v189z" />
    <glyph glyph-name="emdash" unicode="&#x2014;" horiz-adv-x="1890" 
d="M154 627h1585v-189h-1585v189z" />
    <glyph glyph-name="quoteleft" unicode="&#x2018;" horiz-adv-x="501" 
d="M344 952h-258l164 518h209z" />
    <glyph glyph-name="quoteright" unicode="&#x2019;" horiz-adv-x="501" 
d="M158 1470h258l-164 -518h-209z" />
    <glyph glyph-name="quotesinglbase" unicode="&#x201a;" horiz-adv-x="501" 
d="M158 252h258l-164 -518h-209z" />
    <glyph glyph-name="quotedblleft" unicode="&#x201c;" horiz-adv-x="856" 
d="M698 952h-258l164 518h209zM86 952l164 518h209l-115 -518h-258z" />
    <glyph glyph-name="quotedblright" unicode="&#x201d;" horiz-adv-x="856" 
d="M158 1470h258l-164 -518h-209zM399 952l115 518h258l-164 -518h-209z" />
    <glyph glyph-name="quotedblbase" unicode="&#x201e;" horiz-adv-x="856" 
d="M158 262h258l-164 -518h-209zM399 -256l115 518h258l-164 -518h-209z" />
    <glyph glyph-name="dagger" unicode="&#x2020;" horiz-adv-x="1175" 
d="M84 858v201h389v403h225v-403h387v-201h-387v-1182h-225v1182h-389z" />
    <glyph glyph-name="daggerdbl" unicode="&#x2021;" horiz-adv-x="1175" 
d="M1085 858h-387v-577h387v-201h-387v-404h-225v404h-389v201h389v577h-389v201h389v403h225v-403h387v-201z" />
    <glyph glyph-name="bullet" unicode="&#x2022;" horiz-adv-x="1056" 
d="M530 909q159 0 268 -108t109 -266q0 -159 -109.5 -270t-267.5 -111t-268 111t-110 270q0 158 109.5 266t268.5 108z" />
    <glyph glyph-name="ellipsis" unicode="&#x2026;" horiz-adv-x="1456" 
d="M119 262h256v-262h-256v262zM600 0v262h256v-262h-256zM1081 0v262h256v-262h-256z" />
    <glyph glyph-name="perthousand" unicode="&#x2030;" horiz-adv-x="2727" 
d="M440 791q73 0 115.5 75t42.5 185q0 109 -42.5 180.5t-115.5 71.5t-115 -71.5t-42 -180.5q0 -110 42.5 -185t114.5 -75zM86 1049q0 83 23 157t66 132.5t111.5 93t153.5 34.5q86 0 155 -34.5t112.5 -93t66.5 -132.5t23 -157q0 -110 -39 -204t-122 -156t-196 -62
q-84 0 -153 36t-112 95.5t-66 134.5t-23 156zM580 -4l563 1472h203l-564 -1472h-202zM1143 399q0 82 22.5 156t65.5 132.5t111.5 93t154.5 34.5q112 0 194 -60t121 -152.5t39 -203.5q0 -82 -23 -157t-66 -135t-112 -96t-153 -36q-85 0 -154 36t-112 96t-65.5 135t-22.5 157z
M1341 401q0 -112 41.5 -186t114.5 -74t114.5 74t41.5 186q0 109 -41.5 179.5t-114.5 70.5t-114.5 -70.5t-41.5 -179.5zM1931 399q0 110 39.5 203t122.5 153t195 60t194 -60t121 -152.5t39 -203.5q0 -82 -23 -157t-66 -135t-112 -96t-153 -36q-112 0 -195 62t-122.5 156.5
t-39.5 205.5zM2132 401q0 -112 41.5 -186t114.5 -74q72 0 112.5 74t40.5 186q0 110 -40 180t-113 70t-114.5 -70.5t-41.5 -179.5z" />
    <glyph glyph-name="guilsinglleft" unicode="&#x2039;" horiz-adv-x="616" 
d="M68 530l272 455h209l-242 -455l242 -456h-209z" />
    <glyph glyph-name="guilsinglright" unicode="&#x203a;" horiz-adv-x="616" 
d="M549 530l-273 -456h-208l241 456l-241 455h208z" />
    <glyph glyph-name="fraction" unicode="&#x2044;" horiz-adv-x="516" 
d="M641 1468l-563 -1472h-203l563 1472h203z" />
    <glyph glyph-name="Euro" unicode="&#x20ac;" horiz-adv-x="1517" 
d="M1073 494h-502q57 -146 179 -234t299 -88q166 0 301 64v-213q-144 -54 -301 -54q-280 0 -470 145.5t-257 379.5h-248l63 168h152q-2 25 -2 73q0 40 2 58h-221l69 168h178q66 241 258 390.5t476 149.5q229 0 385 -104l-76 -189q-120 88 -309 88q-183 0 -307 -91t-179 -244
h699l-68 -168h-666q-2 -18 -2 -58q0 -23 4 -73h611z" />
    <glyph glyph-name="uni20B4" unicode="&#x20b4;" horiz-adv-x="1280" 
d="M616 -27q-82 0 -156.5 14t-142.5 46t-118.5 78.5t-80 117t-30.5 156.5q0 130 70 219h-72v109h197q93 54 266 106q40 12 72 23h-535v106h741q60 57 60 144q-1 90 -74.5 142t-185.5 52q-107 0 -179.5 -51.5t-95.5 -153.5h-254q18 108 65.5 188t118 127t154.5 70t182 23
t188 -24.5t163 -70.5t116.5 -120.5t44.5 -167.5q0 -93 -26 -158h74v-106h-142q-73 -73 -211 -129h353v-109h-672q-88 -36 -131 -85t-43 -130q3 -211 284 -211q114 0 204.5 67.5t111.5 184.5h260q-19 -115 -73 -204.5t-132.5 -143.5t-172.5 -81.5t-198 -27.5z" />
    <glyph glyph-name="uni20BD" unicode="&#x20bd;" horiz-adv-x="1259" 
d="M641 772q140 0 223.5 66t83.5 202q0 121 -81.5 181.5t-221.5 60.5h-246v-510h242zM8 293v160h144v139h-144v180h144v690h514q245 0 386.5 -111t141.5 -309q0 -132 -69.5 -235t-190.5 -159t-272 -56h-263v-139h342v-160h-342v-293h-247v293h-144z" />
    <glyph glyph-name="uni2113" unicode="&#x2113;" horiz-adv-x="1011" 
d="M2 412l248 190v506q0 175 88.5 275t249.5 100q143 0 226 -92.5t83 -243.5q0 -68 -11 -126t-36.5 -110t-54.5 -94t-77.5 -89t-93 -84t-112.5 -89l-45 -33v-186q0 -97 28.5 -135.5t104.5 -38.5q58 0 107.5 29t103.5 79l115 -151q-71 -70 -152 -109t-188 -39
q-150 0 -228.5 72.5t-95.5 230.5q-8 59 -10 86l-137 -100zM467 768l25 20q200 164 200 357q0 73 -29.5 111t-80.5 38q-115 0 -115 -184v-342z" />
    <glyph glyph-name="uni2116" unicode="&#x2116;" horiz-adv-x="2299" 
d="M152 1462h321l438 -815q79 -149 174 -344q-2 53 -2 395v764h244v-1462h-323l-439 815q-79 149 -174 344q4 -106 4 -395v-764h-243v1462zM1448 1092q0 177 111 284t276 107t276 -107t111 -284q0 -176 -111.5 -283t-275.5 -107t-275.5 107t-111.5 283zM1632 1092
q0 -106 56.5 -178t146.5 -72t146.5 72t56.5 178q0 108 -56 179.5t-147 71.5t-147 -71.5t-56 -179.5z" />
    <glyph glyph-name="uni2117" unicode="&#x2117;" horiz-adv-x="1718" 
d="M862 94q-170 0 -312 83t-225 230.5t-83 327.5q0 131 49 248.5t132 202t197.5 133.5t241.5 49q168 0 309.5 -83.5t224.5 -229t83 -320.5q0 -180 -83 -327.5t-224.5 -230.5t-309.5 -83zM74 735q0 -165 63.5 -311.5t170 -249.5t251 -163t303.5 -60q158 0 302 60t250.5 163
t169.5 249.5t63 311.5q0 162 -63 306.5t-169.5 247t-250.5 162.5t-302 60t-303 -60t-251.5 -162.5t-170 -247t-63.5 -306.5zM645 371v731h273q124 0 197 -66t73 -166q0 -102 -76.5 -169.5t-193.5 -67.5h-113v-262h-160zM805 762h100q59 0 92 29t33 77q0 47 -32 74t-91 27
h-102v-207z" />
    <glyph glyph-name="trademark" unicode="&#x2122;" horiz-adv-x="958" 
d="M399 1386h-127v-331h-92v331h-129v76h348v-76zM453 1055v407h133l92 -301l86 301h131v-407h-88v301h-2l-84 -301h-92l-86 301h-2v-301h-88z" />
    <glyph glyph-name="uni2126" unicode="&#x2126;" horiz-adv-x="1546" 
d="M106 0v205h377v106q-159 63 -266.5 211t-107.5 346q0 272 184 444.5t481 172.5q295 0 479.5 -173t184.5 -444q0 -198 -108 -346t-267 -211v-106h375v-205h-566v461q152 33 245 138t93 261q0 185 -121.5 303.5t-316.5 118.5q-194 0 -315 -119t-121 -303q0 -156 92.5 -261
t245.5 -138v-461h-568z" />
    <glyph glyph-name="estimated" unicode="&#x212e;" horiz-adv-x="1220" 
d="M74 528q0 155 71.5 284t197 204.5t278.5 75.5q152 0 273 -75.5t187 -204t66 -284.5h-803v-405q125 -88 277 -88q131 0 240.5 65t172.5 174l60 -32q-72 -127 -196.5 -202t-276.5 -75q-114 0 -216 44.5t-174.5 120t-114.5 179.5t-42 219zM344 598h553v332q-123 92 -276 92
q-152 0 -277 -88v-336z" />
    <glyph glyph-name="uni2153" unicode="&#x2153;" horiz-adv-x="1667" 
d="M266 584v596h-225v112q94 0 156 37.5t92 132.5h153v-878h-176zM379 -4l563 1472h203l-563 -1472h-203zM965 256h176l2 -12q7 -55 48 -86t107 -31t106 36t40 97q0 60 -42.5 91.5t-113.5 31.5q-49 0 -74 -2v143q43 0 72 2q56 2 88.5 28.5t32.5 80.5q0 50 -32 78t-85 28
q-104 0 -119 -94l-2 -16h-178q11 118 89 189t210 71q134 0 213.5 -64t79.5 -178q0 -127 -117 -186q148 -52 148 -223q0 -107 -83 -182.5t-226 -75.5q-147 0 -234 66.5t-104 191.5z" />
    <glyph glyph-name="uni2154" unicode="&#x2154;" horiz-adv-x="1851" 
d="M53 584q1 73 15.5 126.5t50.5 98t75.5 76t110.5 78.5q49 33 69.5 46.5t51 36.5t41 36t23.5 33t16.5 39.5t3.5 45.5q0 54 -34.5 90.5t-94.5 36.5q-61 0 -98.5 -40.5t-38.5 -112.5h-178q0 133 90.5 217t224.5 84q137 0 221 -74.5t84 -188.5q0 -101 -41 -165.5t-139 -139.5
q-33 -26 -85 -59t-87 -59t-55 -54h417v-151h-643zM588 -4l563 1472h203l-563 -1472h-203zM1149 256h176l2 -12q7 -55 48.5 -86t107.5 -31t105.5 36t39.5 97q0 60 -42 91.5t-113 31.5q-49 0 -74 -2v143q42 0 71 2q56 2 88.5 28.5t32.5 80.5q0 50 -31.5 78t-84.5 28
q-104 0 -119 -94l-2 -16h-178q11 118 89 189t210 71q134 0 213 -64t79 -178q0 -128 -116 -186q147 -51 147 -223q0 -107 -83 -182.5t-226 -75.5q-147 0 -234 66.5t-104 191.5z" />
    <glyph glyph-name="oneeighth" unicode="&#x215b;" horiz-adv-x="1689" 
d="M266 584v596h-225v112q94 0 156 37.5t92 132.5h153v-878h-176zM399 -4l564 1472h202l-563 -1472h-203zM989 242q1 84 49.5 145t112.5 80q-59 23 -93 72.5t-34 122.5q0 98 77.5 165.5t213.5 67.5q135 0 212 -67.5t77 -165.5q0 -73 -35 -123.5t-94 -71.5
q66 -19 113.5 -79.5t47.5 -145.5q0 -121 -84.5 -190.5t-236.5 -69.5q-155 0 -240.5 69.5t-85.5 190.5zM1159 254q0 -58 41 -97.5t115 -39.5q73 0 112 40t39 99q0 56 -39.5 96.5t-111.5 40.5q-74 0 -115 -40.5t-41 -98.5zM1190 643q0 -48 33.5 -80.5t91.5 -32.5q57 0 90 32
t33 81t-33 82t-90 33q-58 0 -91.5 -33t-33.5 -82z" />
    <glyph glyph-name="threeeighths" unicode="&#x215c;" horiz-adv-x="1820" 
d="M393 565q-147 0 -234 66.5t-104 191.5l-2 17h176l2 -13q7 -55 48.5 -85.5t107.5 -30.5t105.5 36t39.5 97q0 60 -42 91.5t-113 31.5q-49 0 -74 -2v143q43 0 72 2q56 2 88.5 28.5t32.5 80.5q0 50 -32 78t-85 28q-104 0 -119 -94l-2 -17h-178q11 119 89 190t210 71
q134 0 213.5 -64t79.5 -178q0 -127 -117 -186q147 -51 147 -224q0 -107 -83 -182.5t-226 -75.5zM528 -4l564 1472h202l-563 -1472h-203zM1118 242q1 84 49.5 145t112.5 80q-59 23 -93 72.5t-34 122.5q0 98 77.5 165.5t213.5 67.5q135 0 212 -67.5t77 -165.5
q0 -73 -35 -123.5t-94 -71.5q66 -19 113.5 -79.5t47.5 -145.5q0 -121 -84.5 -190.5t-236.5 -69.5q-155 0 -240.5 69.5t-85.5 190.5zM1288 254q0 -58 41 -97.5t115 -39.5q73 0 112 40t39 99q0 56 -39.5 96.5t-111.5 40.5q-74 0 -115 -40.5t-41 -98.5zM1319 643
q0 -48 33.5 -80.5t91.5 -32.5q57 0 90 32t33 81t-33 82t-90 33q-58 0 -91.5 -33t-33.5 -82z" />
    <glyph glyph-name="fiveeighths" unicode="&#x215d;" horiz-adv-x="1806" 
d="M385 565q-79 0 -141 22.5t-99.5 61t-59.5 79.5t-32 87l178 4q11 -44 50.5 -74t99.5 -30q65 0 107 46t42 116q0 65 -41.5 109t-105.5 44q-55 0 -86 -19.5t-57 -56.5l-170 13l69 495h500v-147h-350l-31 -191q57 54 152 54q132 0 214.5 -84t82.5 -220q0 -133 -93 -221
t-229 -88zM537 -4l563 1472h203l-564 -1472h-202zM1106 242q1 84 49.5 145t112.5 80q-59 23 -93 72.5t-34 122.5q0 98 77.5 165.5t213.5 67.5q135 0 211.5 -67.5t76.5 -165.5q0 -73 -35 -123.5t-94 -71.5q66 -19 114 -79.5t48 -145.5q0 -121 -84.5 -190.5t-236.5 -69.5
q-155 0 -240.5 69.5t-85.5 190.5zM1276 254q0 -58 41 -97.5t115 -39.5q73 0 112 40t39 99q0 56 -39.5 96.5t-111.5 40.5q-74 0 -115 -40.5t-41 -98.5zM1307 643q0 -48 33.5 -80.5t91.5 -32.5q57 0 89.5 32t32.5 81t-32.5 82t-89.5 33q-58 0 -91.5 -33t-33.5 -82z" />
    <glyph glyph-name="seveneighths" unicode="&#x215e;" horiz-adv-x="1732" 
d="M150 584q21 234 102 423.5t192 301.5h-403v153h614v-121q-133 -131 -225 -342.5t-104 -414.5h-176zM365 -4l563 1472h202l-563 -1472h-202zM1032 242q1 84 49.5 145t112.5 80q-59 23 -93 72.5t-34 122.5q0 98 77.5 165.5t213.5 67.5q135 0 212 -67.5t77 -165.5
q0 -73 -35 -123.5t-94 -71.5q66 -19 113.5 -79.5t47.5 -145.5q0 -121 -84.5 -190.5t-236.5 -69.5q-155 0 -240.5 69.5t-85.5 190.5zM1202 254q0 -58 41 -97.5t115 -39.5q73 0 112 40t39 99q0 56 -39.5 96.5t-111.5 40.5q-74 0 -115 -40.5t-41 -98.5zM1233 643
q0 -48 33.5 -80.5t91.5 -32.5q57 0 90 32t33 81t-33 82t-90 33q-58 0 -91.5 -33t-33.5 -82z" />
    <glyph glyph-name="arrowleft" unicode="&#x2190;" horiz-adv-x="1824" 
d="M1698 600h-1163l448 -446l-149 -152l-709 709l709 706l149 -153l-448 -447h1163v-217z" />
    <glyph glyph-name="arrowup" unicode="&#x2191;" horiz-adv-x="1667" 
d="M127 807l707 709l708 -709l-151 -150l-430 430l-19 23v-1110h-217l2 1108l-25 -27l-423 -424z" />
    <glyph glyph-name="arrowright" unicode="&#x2192;" horiz-adv-x="1824" 
d="M127 600v217h1163l-448 447l149 153l709 -706l-709 -709l-149 152l448 446h-1163z" />
    <glyph glyph-name="arrowdown" unicode="&#x2193;" horiz-adv-x="1667" 
d="M127 655l152 150l423 -424l25 -27l-2 1108h217v-1110l19 23l430 430l151 -150l-708 -708z" />
    <glyph glyph-name="uni2196" unicode="&#x2196;" horiz-adv-x="1415" 
d="M129 1272h975v-213h-610l794 -797l-155 -153l-793 796v-600h-213z" />
    <glyph glyph-name="uni2197" unicode="&#x2197;" horiz-adv-x="1415" 
d="M1286 1272l2 -967h-213v600l-792 -796l-156 153l795 797h-611v213h975z" />
    <glyph glyph-name="uni2198" unicode="&#x2198;" horiz-adv-x="1415" 
d="M1286 143h-975v213h611l-795 797l156 154l792 -797v600h213z" />
    <glyph glyph-name="uni2199" unicode="&#x2199;" horiz-adv-x="1415" 
d="M129 143l-2 967h213v-600l793 797l155 -154l-794 -797h610v-213h-975z" />
    <glyph glyph-name="uni219E" unicode="&#x219e;" horiz-adv-x="1824" 
d="M1698 817v-217h-545l446 -446l-149 -152l-596 598h-319l448 -446l-149 -152l-709 709l709 706l149 -153l-448 -447h315l600 600l152 -153l-451 -447h547z" />
    <glyph glyph-name="uni219F" unicode="&#x219f;" horiz-adv-x="1667" 
d="M942 -43h-217v545l-446 -447l-152 150l598 596v319l-446 -448l-152 149l709 709l706 -709l-153 -149l-447 448v-315l600 -600l-153 -152l-447 451v-547z" />
    <glyph glyph-name="uni21A0" unicode="&#x21a0;" horiz-adv-x="1824" 
d="M674 817l-451 447l152 153l600 -600h315l-448 447l149 153l709 -706l-709 -709l-149 152l448 446h-319l-596 -598l-150 152l447 446h-545v217h547z" />
    <glyph glyph-name="uni21A1" unicode="&#x21a1;" horiz-adv-x="1667" 
d="M942 954l447 451l153 -152l-600 -600v-315l447 448l153 -149l-706 -709l-709 709l152 149l446 -448v319l-598 596l152 150l446 -447v545h217v-547z" />
    <glyph glyph-name="uni21A2" unicode="&#x21a2;" horiz-adv-x="1751" 
d="M1624 109l-141 -144l-506 506h-465l86 -84l281 -278l-142 -144l-610 613l612 610l140 -141l-275 -277l-92 -90h463l510 508l139 -141l-467 -467l152 -152z" />
    <glyph glyph-name="uni21A3" unicode="&#x21a3;" horiz-adv-x="1751" 
d="M127 109l315 319l152 152l-467 467l139 141l510 -508h463l-92 90l-275 277l140 141l612 -610l-610 -613l-142 144l281 278l86 84h-465l-506 -506z" />
    <glyph glyph-name="uni21A4" unicode="&#x21a4;" horiz-adv-x="1779" 
d="M737 1188l142 -141l-367 -367h930v504h211v-1215h-211v502h-930l86 -84l281 -278l-144 -144l-610 613z" />
    <glyph glyph-name="uni21A5" unicode="&#x21a5;" horiz-adv-x="1474" 
d="M127 905l610 613l611 -611l-142 -141l-364 364v-929h504v-201l-1215 2v199h504v929l-367 -366z" />
    <glyph glyph-name="uni21A6" unicode="&#x21a6;" horiz-adv-x="1779" 
d="M1042 1188l613 -610l-611 -613l-143 144l281 278l86 84h-930v-502h-211v1215h211v-504h930l-367 367z" />
    <glyph glyph-name="uni21A7" unicode="&#x21a7;" horiz-adv-x="1474" 
d="M127 557l141 141l367 -366v930h-504v198l1215 2v-200h-504v-930l364 364l142 -141l-611 -610z" />
    <glyph glyph-name="uni21B0" unicode="&#x21b0;" horiz-adv-x="1673" 
d="M735 1497l144 -143l-185 -185l-182 -178h1034v-991h-211v782h-823l367 -366l-142 -142l-612 611z" />
    <glyph glyph-name="uni21B1" unicode="&#x21b1;" horiz-adv-x="1673" 
d="M938 1497l610 -612l-612 -611l-141 142l366 366h-823v-782h-211v991h1034l-182 178l-184 185z" />
    <glyph glyph-name="uni21B2" unicode="&#x21b2;" horiz-adv-x="1673" 
d="M735 -35l-610 613l612 610l142 -141l-367 -367h823v782h211v-991h-1034l182 -178l185 -184z" />
    <glyph glyph-name="uni21B3" unicode="&#x21b3;" horiz-adv-x="1673" 
d="M938 -35l-143 144l184 184l182 178h-1034v991h211v-782h823l-366 367l141 141l612 -610z" />
    <glyph glyph-name="partialdiff" unicode="&#x2202;" horiz-adv-x="1230" 
d="M61 549q0 151 62 274.5t177.5 196t262.5 72.5q92 0 159.5 -24.5t123.5 -80.5q-62 125 -224 276t-290 210l213 124q167 -118 278 -223t192 -228t117.5 -264.5t36.5 -316.5q0 -268 -149.5 -430t-401.5 -162q-251 0 -404 160t-153 416zM305 549q0 -174 88.5 -277.5
t224.5 -103.5q137 0 226.5 104t89.5 277q0 96 -34 173t-109 126t-181 49q-146 0 -225.5 -95t-79.5 -253z" />
    <glyph glyph-name="uni2206" unicode="&#x2206;" horiz-adv-x="1482" 
d="M66 0l583 1462h170l598 -1462h-1351zM387 201h698l-354 889z" />
    <glyph glyph-name="product" unicode="&#x220f;" horiz-adv-x="1550" 
d="M29 1255v207h1495v-207h-197v-1554h-242v1554h-618v-1554h-242v1554h-196z" />
    <glyph glyph-name="summation" unicode="&#x2211;" horiz-adv-x="1343" 
d="M61 -299v188l545 701l-516 684v188h1114v-196h-819l504 -676l-541 -692h881v-197h-1168z" />
    <glyph glyph-name="minus" unicode="&#x2212;" horiz-adv-x="1265" 
d="M111 627h1046v-189h-1046v189z" />
    <glyph glyph-name="uni2215" unicode="&#x2215;" horiz-adv-x="516" 
d="M637 1468l-563 -1472h-195l563 1472h195z" />
    <glyph glyph-name="uni2219" unicode="&#x2219;" horiz-adv-x="595" 
d="M299 768q54 0 92.5 -38.5t38.5 -92.5q0 -50 -39.5 -90.5t-89.5 -40.5q-54 0 -93.5 38.5t-39.5 92.5t38.5 92.5t92.5 38.5z" />
    <glyph glyph-name="radical" unicode="&#x221a;" horiz-adv-x="1376" 
d="M412 1059l276 -811l412 1214h260l-524 -1460l-295 -2l-314 874h-215v185h400z" />
    <glyph glyph-name="infinity" unicode="&#x221e;" horiz-adv-x="1597" 
d="M100 516q0 144 85.5 238t230.5 94q46 0 91.5 -12.5t79 -29t76.5 -49t68.5 -55.5t69.5 -65q107 100 147 129q113 84 232 84q144 0 231.5 -92.5t87.5 -237.5q0 -140 -84 -235t-229 -95q-109 0 -199.5 56t-185.5 153q-51 -47 -69.5 -63.5t-65.5 -53t-78 -51t-78 -28
t-94 -13.5q-148 0 -232 93t-84 233zM270 518q0 -68 44 -108.5t112 -40.5q106 0 262 147q-49 45 -84 73.5t-87.5 56.5t-94.5 28q-65 0 -108.5 -45.5t-43.5 -110.5zM911 516q40 -36 62 -54t59.5 -44t73 -37.5t72.5 -11.5q67 0 109 41.5t42 107.5q0 69 -42.5 112.5t-110.5 43.5
q-33 0 -67 -12.5t-76 -44t-58.5 -45.5t-63.5 -56z" />
    <glyph glyph-name="integral" unicode="&#x222b;" horiz-adv-x="827" 
d="M-66 -307l33 182h64q124 0 155 182l191 1090q29 152 110.5 233.5t243.5 81.5h121l-33 -186h-59q-71 0 -104 -29t-48 -110l-194 -1108q-13 -73 -39.5 -131.5t-69.5 -105.5t-108.5 -73t-149.5 -26h-113z" />
    <glyph glyph-name="approxequal" unicode="&#x2248;" horiz-adv-x="1327" 
d="M1190 889q-6 -157 -85.5 -250.5t-219.5 -93.5q-56 0 -122.5 21.5t-117 47t-108 47t-97.5 21.5q-52 0 -83.5 -35t-34.5 -102h-207q6 158 85 251t222 93q81 0 170.5 -33.5t162.5 -66.5t113 -33q48 0 79.5 34t37.5 99h205zM115 137q6 158 85 251t222 93q64 0 134.5 -21
t121 -45.5t104 -45.5t86.5 -21q48 0 79.5 34t37.5 99h205q-6 -157 -85.5 -250.5t-219.5 -93.5q-56 0 -122.5 21.5t-117 47t-108 47t-97.5 21.5q-52 0 -83.5 -35t-34.5 -102h-207z" />
    <glyph glyph-name="notequal" unicode="&#x2260;" horiz-adv-x="1265" 
d="M412 -72l-148 78l113 209h-266v191h368l105 194h-473v191h577l168 313l148 -80l-127 -233h280v-191h-383l-104 -194h487v-191h-590z" />
    <glyph glyph-name="lessequal" unicode="&#x2264;" horiz-adv-x="1251" 
d="M100 33v176h1051v-176h-1051zM100 553v195l1051 294v-198l-776 -193l776 -190v-197z" />
    <glyph glyph-name="greaterequal" unicode="&#x2265;" horiz-adv-x="1251" 
d="M1151 33h-1051v176h1051v-176zM100 264v197l777 190l-777 193v198l1051 -294v-195z" />
    <glyph glyph-name="lozenge" unicode="&#x25ca;" horiz-adv-x="1167" 
d="M682 1462l444 -733l-444 -729h-205l-436 729l436 733h205zM289 729l291 -498l299 498l-299 504z" />
    <glyph glyph-name="fi" unicode="&#xfb01;" horiz-adv-x="1157" 
d="M193 1135q0 327 305 327h120v-184h-57q-73 0 -104 -32.5t-31 -121.5v-65h180v-185h-180v-874h-233v874h-148v185h148v76zM780 0v1059h238v-1059h-238zM782 1229v233h248v-233h-248z" />
    <glyph glyph-name="fl" unicode="&#xfb02;" horiz-adv-x="1142" 
d="M193 1135q0 327 305 327h120v-184h-57q-73 0 -104 -32.5t-31 -121.5v-65h180v-185h-180v-874h-233v874h-148v185h148v76zM780 0v1462h238v-1462h-238z" />
    <glyph glyph-name="uniFEFF" unicode="&#xfeff;" horiz-adv-x="8" 
 />
    <glyph glyph-name="Adieresis.ss02" horiz-adv-x="1437" 
d="M133 1462h225v-241h-225v241zM29 0l536 1462h309l535 -1462h-260l-141 397h-580l-141 -397h-258zM498 596h440l-217 641h-6zM1081 1221v241h224v-241h-224z" />
    <glyph glyph-name="i.loclTRK" horiz-adv-x="489" 
d="M127 0v1059h238v-1059h-238zM141 1237v225h205v-225h-205z" />
    <glyph glyph-name="uni0414.loclBGR" horiz-adv-x="1601" 
d="M1552 -369h-233v367h-1036v-367h-234v576h144l466 1255h283l467 -1255h143v-576zM444 207h713l-354 979h-4z" />
    <glyph glyph-name="uni041B.loclBGR" horiz-adv-x="1363" 
d="M16 0l519 1460l296 2l517 -1462h-269l-393 1190h-6l-397 -1190h-267z" />
    <glyph glyph-name="uni042F.ss03" horiz-adv-x="1345" 
d="M1196 0h-248v575h-291l-315 -575h-281l363 637q-137 43 -216 144.5t-79 256.5q0 199 137.5 311.5t386.5 112.5h543v-1462zM377 1026q0 -114 77.5 -180t215.5 -66h278v477h-280q-141 0 -216 -63.5t-75 -167.5z" />
    <glyph glyph-name="uni0431.loclSRB" horiz-adv-x="1132" 
d="M586 -29q-229 0 -368.5 135t-139.5 345q0 287 289 430l-13 8q-180 111 -180 262q0 79 56.5 143.5t175.5 87.5q248 44 587 78v-211q-208 -18 -456 -51q-111 -16 -111 -76q0 -12 4.5 -22.5t17 -22.5t22.5 -20.5t34.5 -23.5t38.5 -23t49 -27q74 -37 162 -84
q68 -36 111.5 -62.5t91.5 -66.5t74.5 -81t44.5 -99t18 -127q0 -219 -141 -355.5t-367 -136.5zM309 440q0 -125 74 -201.5t203 -76.5q126 0 200 76t74 208q0 61 -17 107t-59 83.5t-68 54t-89 50.5q-6 4 -9.5 5.5t-8.5 4.5t-9 5q-2 1 -17.5 8t-23.5 12q-250 -105 -250 -336z
" />
    <glyph glyph-name="uni0432.loclBGR" horiz-adv-x="1153" 
d="M602 -29q-238 0 -365.5 141t-127.5 388v452q0 243 123.5 383t353.5 140q203 0 325.5 -108.5t122.5 -289.5q0 -110 -59 -194.5t-162 -122.5q125 -36 199.5 -136.5t74.5 -238.5q0 -188 -133.5 -301t-351.5 -113zM346 487q0 -154 66 -239.5t198 -85.5q111 0 177.5 69.5
t66.5 186.5q0 114 -66 176.5t-196 62.5h-246v-170zM346 846h238q225 0 225 217q0 98 -59 159.5t-160 61.5q-119 0 -181.5 -83.5t-62.5 -231.5v-123z" />
    <glyph glyph-name="uni0433.loclBGR" horiz-adv-x="993" 
d="M82 745q26 167 131 254.5t281 87.5q181 0 292 -84.5t111 -218.5q0 -121 -70 -194.5t-202 -110.5q-88 -27 -156 -45q-77 -21 -119.5 -53t-42.5 -94q0 -61 53.5 -97t147.5 -36q86 0 140.5 47t68.5 127h229q-31 -176 -143.5 -265.5t-298.5 -89.5q-191 0 -310.5 89
t-119.5 233q0 113 64.5 181t201.5 110q53 15 149 45q105 31 146 62.5t41 90.5t-52.5 93t-129.5 34t-129.5 -41t-69.5 -125h-213z" />
    <glyph glyph-name="uni0434.loclBGR" horiz-adv-x="1257" 
d="M887 1059h246v-957q0 -126 -42 -223.5t-115.5 -156.5t-165.5 -89t-198 -30q-211 0 -348.5 100t-157.5 264h234q28 -178 272 -178q129 0 202 71t73 216v129h-2q-82 -207 -332 -207q-219 0 -355.5 150.5t-136.5 396.5q0 245 135 392.5t357 147.5q129 0 214 -56t118 -136h2
v166zM297 545q0 -97 32 -175.5t103 -129t170 -50.5q64 0 116.5 22t86.5 57.5t57 82.5t33 95t10 98q0 60 -19.5 120t-56 112.5t-96 85t-131.5 32.5q-97 0 -167.5 -50t-104 -128t-33.5 -172z" />
    <glyph glyph-name="uni0436.loclBGR" horiz-adv-x="1585" 
d="M911 0h-237v440h-86l-291 -440h-268l372 545l-368 514h268l293 -430h80v833h237v-833h80l293 430h268l-368 -516l372 -543h-266l-291 440h-88v-440z" />
    <glyph glyph-name="uni0437.loclBGR" horiz-adv-x="1157" 
d="M109 670q14 186 135.5 300.5t330.5 114.5q217 0 340 -99t123 -271q0 -55 -13.5 -102t-34.5 -79.5t-52.5 -60.5t-61 -46t-65.5 -34q136 -37 212.5 -132t76.5 -232q0 -77 -32 -151.5t-92.5 -137t-159 -101t-220.5 -38.5q-243 0 -380.5 114.5t-156.5 337.5h222
q8 -68 36 -119.5t69.5 -81.5t91 -44.5t106.5 -14.5q116 0 199 67t83 189q0 113 -77.5 175.5t-213.5 62.5h-178v182h168q107 0 174.5 58t67.5 163q0 97 -61.5 150t-167.5 53q-104 0 -169 -56t-77 -167h-223z" />
    <glyph glyph-name="uni0438.loclBGR" horiz-adv-x="1175" 
d="M119 397v662h235v-613q0 -270 203 -270q114 0 185 100t71 291v492h238v-1059h-234v186q-101 -215 -317 -215q-101 0 -175.5 32t-119 90t-65.5 134t-21 170z" />
    <glyph glyph-name="uni0439.loclBGR" horiz-adv-x="1175" 
d="M119 397v662h235v-613q0 -270 203 -270q114 0 185 100t71 291v492h238v-1059h-234v186q-101 -215 -317 -215q-101 0 -175.5 32t-119 90t-65.5 134t-21 170zM266 1450h172q1 -60 42.5 -95.5t109.5 -35.5q67 0 107 35.5t42 95.5h174q-11 -121 -96 -190.5t-227 -69.5
t-228.5 70t-95.5 190z" />
    <glyph glyph-name="uni045D.loclBGR" horiz-adv-x="1175" 
d="M119 397v662h235v-613q0 -270 203 -270q114 0 185 100t71 291v492h238v-1059h-234v186q-101 -215 -317 -215q-101 0 -175.5 32t-119 90t-65.5 134t-21 170zM272 1462h275l182 -268h-176z" />
    <glyph glyph-name="uni043A.loclBGR" horiz-adv-x="1097" 
d="M365 0h-238v1462h238v-841l417 438h285l-442 -453l454 -606h-284l-330 446l-100 -96v-350z" />
    <glyph glyph-name="uni043B.loclBGR" horiz-adv-x="1091" 
d="M811 0q-32 98 -124 381t-142 440h-2q-42 -137 -132.5 -416.5t-129.5 -404.5h-252q72 194 387 1059h262l387 -1059h-254z" />
    <glyph glyph-name="uni043F.loclBGR" horiz-adv-x="1175" 
d="M127 0v1059h233v-187q98 215 318 215q100 0 174.5 -31.5t119 -90t66 -134t21.5 -169.5v-662h-236v612q0 271 -202 271q-115 0 -185.5 -100t-70.5 -291v-492h-238z" />
    <glyph glyph-name="uni0442.loclBGR" horiz-adv-x="1740" 
d="M127 0v1059h233v-176q24 81 99 142.5t180 61.5q115 0 189 -49.5t112 -152.5q47 102 118.5 152t180.5 50q190 0 287.5 -116.5t97.5 -308.5v-662h-235v612q0 128 -45 199.5t-138 71.5q-97 0 -156 -98t-59 -275v-510h-231v612q0 135 -38.5 203t-141.5 68q-215 0 -215 -391
v-492h-238z" />
    <glyph glyph-name="uni0446.loclBGR" horiz-adv-x="1232" 
d="M119 397v662h235v-613q0 -270 203 -270q114 0 185 100t71 291v492h238v-871h145v-499h-219v311h-160v186q-101 -215 -317 -215q-101 0 -175.5 32t-119 90t-65.5 134t-21 170z" />
    <glyph glyph-name="uni0448.loclBGR" horiz-adv-x="1740" 
d="M1614 1059v-1059h-234v176q-24 -82 -98.5 -143.5t-179.5 -61.5q-115 0 -189 50t-112 153q-47 -102 -118.5 -152.5t-180.5 -50.5q-190 0 -287.5 117t-97.5 309v662h235v-613q0 -128 44.5 -199t138.5 -71q97 0 156 98t59 275v510h231v-613q0 -135 38.5 -202.5t141.5 -67.5
q215 0 215 391v492h238z" />
    <glyph glyph-name="uni0449.loclBGR" horiz-adv-x="1798" 
d="M1614 1059v-871h147v-499h-219v311h-162v176q-24 -82 -98.5 -143.5t-179.5 -61.5q-115 0 -189 50t-112 153q-47 -102 -118.5 -152.5t-180.5 -50.5q-190 0 -287.5 117t-97.5 309v662h235v-613q0 -128 44.5 -199t138.5 -71q97 0 156 98t59 275v510h231v-613
q0 -135 38.5 -202.5t141.5 -67.5q215 0 215 391v492h238z" />
    <glyph glyph-name="uni044C.loclBGR" horiz-adv-x="1021" 
d="M119 365v694h235v-363q98 39 219 39q188 0 298 -97t110 -273q0 -180 -121 -285t-309 -105q-203 0 -317.5 103.5t-114.5 286.5zM354 365q0 -97 52.5 -153t144.5 -56q87 0 142 56t55 153q0 92 -63 143t-165 51q-92 0 -166 -35v-159z" />
    <glyph glyph-name="uni044A.loclBGR" horiz-adv-x="1263" 
d="M12 870v189h348v-189h-348zM362 365v694h236v-363q98 39 219 39q188 0 298 -97t110 -273q0 -180 -121 -285t-309 -105q-203 0 -318 103.5t-115 286.5zM598 365q0 -97 52.5 -153t144.5 -56q87 0 141.5 55.5t54.5 153.5q0 92 -62.5 143t-164.5 51q-92 0 -166 -35v-159z" />
    <glyph glyph-name="uni044E.loclBGR" horiz-adv-x="1607" 
d="M365 1462v-833h159q31 204 170 329t338 125q225 0 369.5 -155t144.5 -400t-144.5 -400t-369.5 -155q-203 0 -342.5 128t-165.5 339h-159v-440h-238v1462h238zM752 528q0 -157 79 -260.5t201 -103.5q124 0 203.5 103t79.5 261t-79.5 261.5t-203.5 103.5
q-122 0 -201 -103.5t-79 -261.5z" />
    <glyph glyph-name="uni044F.ss03" horiz-adv-x="1116" 
d="M989 1059v-1059h-237v410h-199l-223 -410h-267l271 459q-99 39 -154 111.5t-55 168.5q0 149 111.5 234.5t298.5 85.5h454zM358 729q0 -75 64 -117.5t166 -42.5h164v330h-164q-102 0 -166 -45t-64 -125z" />
    <glyph glyph-name="zero.lf" horiz-adv-x="1269" 
d="M635 168q80 0 141 49t96.5 131t53.5 179.5t18 203.5t-17.5 201t-53.5 174t-97 125.5t-141 46.5t-141 -46.5t-97 -125.5t-53.5 -174t-17.5 -201t18 -203.5t53.5 -179.5t96.5 -131t141 -49zM92 731q0 118 17 222.5t57 201.5t101 167t155 111.5t213 41.5t213 -41.5
t155 -111.5t101 -167t57 -201.5t17 -222.5t-17 -224t-57 -205.5t-101 -171.5t-155.5 -115.5t-212.5 -43.5t-212.5 43.5t-155.5 115.5t-101 171.5t-57 205.5t-17 224z" />
    <glyph glyph-name="zero.tf" horiz-adv-x="1275" 
d="M639 168q80 0 141 49t96.5 131t53.5 179.5t18 203.5t-17.5 201t-53.5 174t-97 125.5t-141 46.5t-141 -46.5t-97 -125.5t-53.5 -174t-17.5 -201t18 -203.5t53.5 -179.5t96.5 -131t141 -49zM96 731q0 118 17 222.5t57 201.5t101 167t155 111.5t213 41.5t213 -41.5
t155 -111.5t101 -167t57 -201.5t17 -222.5t-17 -224t-57 -205.5t-101 -171.5t-155.5 -115.5t-212.5 -43.5t-212.5 43.5t-155.5 115.5t-101 171.5t-57 205.5t-17 224z" />
    <glyph glyph-name="zero.zero" horiz-adv-x="1269" 
d="M635 168q80 0 141 49t96.5 131t53.5 179.5t18 203.5q0 191 -51 328l-401 -840q60 -51 143 -51zM92 731q0 118 17 222.5t57 201.5t101 167t155 111.5t213 41.5t213 -41.5t155 -111.5t101 -167t57 -201.5t17 -222.5t-17 -224t-57 -205.5t-101 -171.5t-155.5 -115.5
t-212.5 -43.5t-212.5 43.5t-155.5 115.5t-101 171.5t-57 205.5t-17 224zM326 731q0 -218 63 -364l406 850q-67 61 -160 61q-80 0 -141 -46.5t-97 -125.5t-53.5 -174t-17.5 -201z" />
    <glyph glyph-name="one.lf" horiz-adv-x="901" 
d="M700 0h-233v1047h-356v157q79 0 136.5 10t110.5 37t89.5 79.5t56.5 131.5h196v-1462z" />
    <glyph glyph-name="one.tf" horiz-adv-x="1275" 
d="M1176 186v-186h-1024v186h426v861h-357v157q79 0 136.5 10t110.5 37t89.5 79.5t56.5 131.5h197v-1276h365z" />
    <glyph glyph-name="two.lf" horiz-adv-x="1208" 
d="M119 989q0 227 138 356.5t366 129.5q211 0 344 -118t133 -310q0 -73 -14.5 -134t-36.5 -106t-64 -91.5t-81 -80t-103 -82.5q-39 -31 -96.5 -70.5t-97.5 -68t-82.5 -63t-73 -72t-48.5 -78.5h713v-201h-1018q3 94 27.5 175t59 140t93 117.5t111.5 99t133 93.5
q49 33 69.5 46.5t59 40.5t53.5 39.5t43 35.5t38.5 36.5t28.5 35t24 39t14.5 40t11 46t2.5 50.5q0 105 -66.5 175.5t-183.5 70.5q-126 0 -195 -80t-69 -211h-233z" />
    <glyph glyph-name="two.tf" horiz-adv-x="1275" 
d="M150 989q0 227 138 356.5t365 129.5q212 0 346 -118t134 -310q0 -73 -14.5 -134t-36.5 -106t-64 -91.5t-81 -80t-103 -82.5q-39 -31 -96.5 -70.5t-97.5 -68t-82.5 -63t-73 -72t-48.5 -78.5h711v-201h-1018q3 94 27.5 175t59 140t93.5 117.5t112 99t134 93.5
q49 33 69.5 46.5t59 40.5t53.5 39.5t43 35.5t38.5 36.5t28.5 35t24 39t14.5 40t11 46t2.5 50.5q0 104 -67.5 175t-184.5 71q-124 0 -193 -80t-71 -211h-233z" />
    <glyph glyph-name="three.lf" horiz-adv-x="1193" 
d="M143 1065q11 186 133.5 298t329.5 112q206 0 327.5 -102.5t121.5 -276.5q0 -115 -46.5 -190t-134.5 -126q244 -94 244 -364q1 -90 -32.5 -170t-96 -141.5t-159.5 -97.5t-214 -36q-231 0 -368.5 112t-159.5 316l-2 23h240l2 -16q10 -116 86 -177t198 -61q126 0 201.5 72.5
t75.5 189.5t-85 177.5t-224 60.5q-57 0 -80 -2v202q30 0 100 4q104 6 162.5 55.5t58.5 145.5q0 97 -58.5 151t-160.5 54q-98 0 -154 -49.5t-69 -132.5l-4 -31h-232z" />
    <glyph glyph-name="three.tf" horiz-adv-x="1275" 
d="M158 1065q11 186 133.5 298t329.5 112q206 0 327 -102t121 -277q0 -115 -46 -190t-134 -126q244 -94 244 -364q1 -90 -32.5 -170t-96 -141.5t-159.5 -97.5t-214 -36q-231 0 -369 112t-160 316v23h238l2 -16q12 -116 88.5 -177t196.5 -61q127 0 201.5 72.5t74.5 189.5
t-84.5 177.5t-224.5 60.5q-57 0 -80 -2v202q30 0 100 4q222 13 222 201q0 97 -58.5 151t-159.5 54q-99 0 -154.5 -49t-68.5 -133l-6 -31h-231z" />
    <glyph glyph-name="four.lf" horiz-adv-x="1191" 
d="M68 354v217l632 891h234v-913h170v-195h-170v-354h-234v354h-632zM285 549h415v584h-6z" />
    <glyph glyph-name="four.tf" horiz-adv-x="1275" 
d="M109 354v217l632 891h234v-913h170v-195h-170v-354h-234v354h-632zM328 549h413v584h-6z" />
    <glyph glyph-name="five.lf" horiz-adv-x="1212" 
d="M1020 1268h-590l-57 -381q108 94 278 94q222 0 356 -135t134 -367q0 -141 -66 -256.5t-186.5 -183.5t-270.5 -68q-223 0 -361 118.5t-161 299.5l234 2q18 -93 95.5 -157t190.5 -64q121 0 206 85.5t85 223.5t-77 221.5t-218 83.5q-169 0 -256 -145l-231 20l115 805l780 -2
v-194z" />
    <glyph glyph-name="five.tf" horiz-adv-x="1275" 
d="M1047 1268h-590l-58 -381q108 94 279 94q223 0 357 -134.5t134 -367.5q0 -141 -66.5 -256.5t-187 -183.5t-270.5 -68q-223 0 -361 118.5t-161 299.5l233 2q18 -93 96 -157t191 -64q121 0 207 85.5t86 223.5t-77.5 221.5t-219.5 83.5q-165 0 -256 -145l-231 20l114 805
l781 -2v-194z" />
    <glyph glyph-name="six.lf" horiz-adv-x="1261" 
d="M92 696q0 121 18 231.5t59.5 212.5t103.5 176.5t156 118.5t210 44q112 0 199.5 -28.5t145 -80t92.5 -117.5t50 -147h-233q-12 32 -20.5 51t-28.5 46.5t-43.5 42.5t-63 26.5t-90.5 11.5q-276 0 -317 -457q51 66 141 110t209 44q142 0 254 -65t173.5 -177.5t61.5 -251.5
q0 -224 -150 -370t-384 -146q-124 0 -229 48.5t-177 134.5q-75 88 -106 220.5t-31 321.5zM344 475q0 -130 82.5 -218.5t208.5 -88.5q127 0 214 89t87 218q0 130 -86.5 219.5t-214.5 89.5q-129 0 -210 -87.5t-81 -221.5z" />
    <glyph glyph-name="six.tf" horiz-adv-x="1275" 
d="M98 696q0 121 18 231.5t60 212.5t104 176.5t156.5 118.5t210.5 44q111 0 198.5 -28.5t145 -80t93 -117.5t51.5 -147h-234q-12 32 -21 51t-29 46t-43.5 42.5t-63 27t-89.5 11.5q-276 0 -317 -457q49 66 139 110t209 44q215 0 352.5 -141.5t137.5 -352.5
q0 -224 -150.5 -370t-384.5 -146q-122 0 -227 48.5t-178 134.5q-75 89 -106.5 221.5t-31.5 320.5zM350 475q0 -130 83 -218.5t208 -88.5q127 0 214 89t87 218q0 130 -86 219.5t-215 89.5t-210 -87.5t-81 -221.5z" />
    <glyph glyph-name="seven.lf" horiz-adv-x="1095" 
d="M1016 1276q-220 -217 -376.5 -577t-176.5 -699h-234q28 380 169 709t339 553h-698v200h977v-186z" />
    <glyph glyph-name="seven.tf" horiz-adv-x="1275" 
d="M1118 1276q-220 -217 -376.5 -577t-176.5 -699h-233q29 380 170 708.5t338 553.5h-699v200h977v-186z" />
    <glyph glyph-name="eight.lf" horiz-adv-x="1236" 
d="M623 1481q212 0 340.5 -105.5t128.5 -269.5q0 -123 -61 -211t-159 -121q110 -32 191.5 -132.5t81.5 -240.5q0 -198 -142.5 -314t-377.5 -116q-244 0 -389 116t-144 314q1 72 26 137t65.5 112t89.5 79.5t100 46.5q-105 36 -164 120.5t-59 209.5q0 164 129.5 269.5
t343.5 105.5zM324 416q0 -111 78 -185.5t221 -74.5q140 0 216 74t76 186q0 109 -76.5 183.5t-215.5 74.5q-142 0 -220.5 -74.5t-78.5 -183.5zM379 1077q0 -92 66.5 -155.5t177.5 -63.5q112 0 176.5 63t64.5 156q0 92 -65 154.5t-176 62.5q-113 0 -178.5 -62.5t-65.5 -154.5z
" />
    <glyph glyph-name="eight.tf" horiz-adv-x="1275" 
d="M641 1481q213 0 342 -105.5t129 -269.5q0 -122 -61.5 -210.5t-159.5 -121.5q111 -32 192.5 -132.5t81.5 -240.5q0 -198 -142.5 -314t-379.5 -116q-243 0 -387 116t-143 314q1 140 85 242.5t193 132.5q-104 36 -162.5 120.5t-58.5 209.5q0 164 129.5 269.5t341.5 105.5z
M342 416q0 -110 79 -185t220 -75t218 74t77 186q0 109 -77 183.5t-218 74.5t-220 -74.5t-79 -183.5zM399 1077q0 -92 65.5 -155.5t176.5 -63.5q113 0 178.5 63t65.5 156q0 92 -65.5 154.5t-178.5 62.5q-111 0 -176.5 -62.5t-65.5 -154.5z" />
    <glyph glyph-name="nine.lf" horiz-adv-x="1261" 
d="M92 965q0 222 150.5 368t384.5 146q118 0 219 -41.5t172 -118.5q151 -164 151 -565q0 -128 -18.5 -241.5t-60.5 -213.5t-103.5 -172.5t-153 -114t-204.5 -41.5q-213 0 -342.5 104t-157.5 269h233q57 -178 261 -178q274 0 305 448q-46 -57 -133.5 -101t-200.5 -44
q-219 0 -360.5 140.5t-141.5 355.5zM326 977q0 -132 85.5 -221.5t215.5 -89.5q129 0 214 93.5t85 217.5q0 131 -86 218t-213 87t-214 -88t-87 -217z" />
    </font>
</defs>
</svg>
