<svg width="20" height="20" viewBox="0 0 20 20" fill="none" xmlns="http://www.w3.org/2000/svg">
<path fill-rule="evenodd" clip-rule="evenodd" d="M4.3999 16.1992V10.7002C4.3999 7.5 7 4.89941 10.2002 4.89941C13.4004 4.89941 16 7.5 16 10.7002V16.1992H4.3999ZM10.2002 1.5C10.6001 1.5 10.8999 1.7998 10.8999 2.2002C10.8999 2.60059 10.6001 2.89941 10.2002 2.89941C9.7998 2.89941 9.5 2.60059 9.5 2.2002C9.5 1.7998 9.7998 1.5 10.2002 1.5ZM17.5996 16.1992V10.7002C17.5996 7.2998 15.2002 4.39941 12 3.60059C12.2998 3.2002 12.5 2.7002 12.5 2.2002C12.4004 1 11.4004 0 10.2002 0C9 0 8 1 8 2.2002C8 2.7002 8.2002 3.2002 8.5 3.60059C5.2002 4.39941 2.7998 7.2998 2.7998 10.7002V16.1992H1V17.6992H7.6001C7.7998 19 8.8999 20 10.2002 20C11.5 20 12.5996 19 12.9004 17.7988H19.5V16.1992H17.5996Z" fill="#CCCFDE"/>
</svg>
