<svg width="20" height="20" viewBox="0 0 20 20" fill="none" xmlns="http://www.w3.org/2000/svg">
<path fill-rule="evenodd" clip-rule="evenodd" d="M5.76172 7.75195H4.26172V9.25195H5.76172V7.75195ZM9.10449 7.75684H7.60449V9.25684H9.10449V7.75684ZM10.9473 7.75684H12.4473V9.25684H10.9473V7.75684ZM15.7891 7.75684H14.2891V9.25684H15.7891V7.75684ZM14.8252 11.6973L13.6055 12.917L12.3867 11.6973L11.3252 12.7578L12.5459 13.9775L11.3252 15.1973L12.3867 16.2578L13.6055 15.0381L14.8252 16.2578L15.8867 15.1973L14.667 13.9775L15.8867 12.7578L14.8252 11.6973ZM6.39551 12.917L7.61523 11.6973L8.67676 12.7578L7.45605 13.9775L8.67676 15.1973L7.61523 16.2578L6.39551 15.0381L5.17676 16.2578L4.11523 15.1973L5.33496 13.9775L4.11523 12.7578L5.17676 11.6973L6.39551 12.917ZM15.2666 4.49707V3.00977H18.502V18.5H1.50098V3.00977H4.74023V4.49707H6.24023V3.00977H13.7666V4.49707H15.2666ZM13.7666 0V1.50977H6.24023V0H4.74023V1.50977H0V20H20V1.50977H15.2666V0H13.7666Z" fill="white"/>
</svg>
