<svg width="1450" height="442" viewBox="0 0 1450 442" fill="none" xmlns="http://www.w3.org/2000/svg">
<path d="M19.4258 0V442" stroke="#B0B0B0" stroke-opacity="0.3"/>
<path d="M127.656 0V442" stroke="#B0B0B0" stroke-opacity="0.3"/>
<path d="M235.885 0V442" stroke="#B0B0B0" stroke-opacity="0.3"/>
<path d="M345.502 0V442" stroke="#B0B0B0" stroke-opacity="0.3"/>
<path d="M453.732 0V442" stroke="#B0B0B0" stroke-opacity="0.3"/>
<path d="M561.961 0V442" stroke="#B0B0B0" stroke-opacity="0.3"/>
<path d="M888.039 0V442" stroke="#B0B0B0" stroke-opacity="0.3"/>
<path d="M778.422 0V442" stroke="#B0B0B0" stroke-opacity="0.3"/>
<path d="M670.191 0V442" stroke="#B0B0B0" stroke-opacity="0.3"/>
<path d="M996.268 0V442" stroke="#B0B0B0" stroke-opacity="0.3"/>
<path d="M1104.5 0V442" stroke="#B0B0B0" stroke-opacity="0.3"/>
<path d="M1212.73 0V442" stroke="#B0B0B0" stroke-opacity="0.3"/>
<path d="M1322.34 0V442" stroke="#B0B0B0" stroke-opacity="0.3"/>
<path d="M1430.57 0V442" stroke="#B0B0B0" stroke-opacity="0.3"/>
<path d="M0 19.3438H1450" stroke="#B0B0B0" stroke-opacity="0.3"/>
<path d="M0 99.6172H1450" stroke="#B0B0B0" stroke-opacity="0.3"/>
<path d="M0 179.898H1450" stroke="#B0B0B0" stroke-opacity="0.3"/>
<path d="M0 260.172H1450" stroke="#B0B0B0" stroke-opacity="0.3"/>
<path d="M0 341.414H1450" stroke="#B0B0B0" stroke-opacity="0.3"/>
<path d="M0 421.688H1450" stroke="#B0B0B0" stroke-opacity="0.3"/>
</svg>
