<svg width="20" height="20" viewBox="0 0 20 20" fill="none" xmlns="http://www.w3.org/2000/svg">
<path fill-rule="evenodd" clip-rule="evenodd" d="M16.7002 15.2002C16 13.0996 14.5 11.5 12.5996 10.7998C13.5 10 14.0996 8.90039 14.0996 7.59961C14.0996 5.2998 12.2998 3.5 10 3.5C7.7002 3.5 5.90039 5.2998 5.90039 7.59961C5.90039 8.90039 6.5 10 7.40039 10.7998C5.5 11.5996 4 13.2002 3.2998 15.2002C2.2002 13.7998 1.5 11.9004 1.5 9.90039C1.5 5.2002 5.2998 1.40039 10 1.40039C14.7002 1.40039 18.5 5.2002 18.5 9.90039C18.5 11.9004 17.9004 13.7998 16.7002 15.2002ZM10 10.2002C8.59961 10.2002 7.40039 9 7.40039 7.59961C7.40039 6.2002 8.59961 5 10 5C11.4004 5 12.5996 6.2002 12.5996 7.59961C12.5996 9 11.5 10.2002 10 10.2002ZM4.59961 16.5C5.2002 13.7998 7.40039 11.7998 10 11.7998C12.5996 11.7998 14.9004 13.7998 15.4004 16.5C13.9004 17.7002 12 18.5 10 18.5C8 18.5 6.09961 17.7002 4.59961 16.5ZM10 0C4.5 0 0 4.5 0 10C0 15.5 4.5 20 10 20C15.5 20 20 15.5 20 10C20 4.5 15.5996 0 10 0Z" fill="#CCCFDE"/>
</svg>
