<svg width="20" height="20" viewBox="0 0 20 20" fill="none" xmlns="http://www.w3.org/2000/svg">
<path fill-rule="evenodd" clip-rule="evenodd" d="M13 4.39941C13.9004 4.39941 14.5996 5.09961 14.5996 6C14.5996 6.89941 13.9004 7.59961 13 7.59961C12.0996 7.59961 11.4004 6.79883 11.4004 6C11.4004 5.09961 12.0996 4.39941 13 4.39941ZM13 9C14.7002 9 16.0996 7.59961 16.0996 5.89941C16.0996 4.2002 14.7002 2.7998 13 2.7998C11.2998 2.7998 9.90039 4.2998 9.90039 6C9.90039 7.69922 11.2998 9 13 9ZM1.5 18.5V16.5L6.2002 11.6992L11.8281 17.5996L15.7031 13.5L18.5996 16.4004V18.5H1.5ZM18.5 1.5V14.1992L15.7002 11.2988L11.7998 15.4004L6.2002 9.5L1.5 14.2988V1.5H18.5ZM0 0V20H20V0H0Z" fill="#CCCFDE"/>
</svg>
