<?xml version="1.0" standalone="no"?>
<!DOCTYPE svg PUBLIC "-//W3C//DTD SVG 1.1//EN" "http://www.w3.org/Graphics/SVG/1.1/DTD/svg11.dtd" >
<svg xmlns="http://www.w3.org/2000/svg" xmlns:xlink="http://www.w3.org/1999/xlink" version="1.1">
<metadata>
Created by FontForge 20170731 at Tue Jun 27 11:55:22 2023
 By Aleksey,,,
(c) 2017-2022. Copyright by TYPE.WELTKERN. All rights reserved.
</metadata>
<defs>
<font id="SLBSans-Regular" horiz-adv-x="0" >
  <font-face 
    font-family="SLB Sans"
    font-weight="400"
    font-stretch="normal"
    units-per-em="2048"
    panose-1="2 0 5 3 4 0 0 2 0 4"
    ascent="1638"
    descent="-410"
    x-height="1059"
    cap-height="1462"
    bbox="-258 -438 2607 2163"
    underline-thickness="122"
    underline-position="-695"
    unicode-range="U+000D-FEFF"
  />
<missing-glyph horiz-adv-x="1454" 
d="M-4 766h692v696h78v-696h692v-70h-692v-696h-78v696h-692v70z" />
    <glyph glyph-name="f_f" unicode="ff" horiz-adv-x="1183" 
d="M821 1059v153q0 110 52.5 180t164.5 70h105v-84h-94q-62 0 -93.5 -39t-31.5 -133v-147h182v-82h-182v-977h-103v977h-487v-977h-103v977h-149v82h149v153q0 52 12 95.5t37 79t68 55.5t101 20h104v-84h-94q-62 0 -93.5 -39t-31.5 -133v-147h487z" />
    <glyph glyph-name="f_i" unicode="fi" horiz-adv-x="978" 
d="M231 1212q0 52 12 95.5t37 79t68 55.5t101 20h104v-84h-94q-62 0 -93.5 -39t-31.5 -133v-147h182v-82h-182v-977h-103v977h-149v82h149v153zM733 0v1059h103v-1059h-103zM733 1257v205h107v-205h-107z" />
    <glyph glyph-name="f_l" unicode="fl" horiz-adv-x="970" 
d="M231 1212q0 52 12 95.5t37 79t68 55.5t101 20h104v-84h-94q-62 0 -93.5 -39t-31.5 -133v-147h182v-82h-182v-977h-103v977h-149v82h149v153zM731 0v1462h103v-1462h-103z" />
    <glyph glyph-name=".notdef" horiz-adv-x="1454" 
d="M-4 766h692v696h78v-696h692v-70h-692v-696h-78v696h-692v70z" />
    <glyph glyph-name=".null" horiz-adv-x="1071" 
 />
    <glyph glyph-name=".null" horiz-adv-x="1071" 
 />
    <glyph glyph-name="nonmarkingreturn" horiz-adv-x="682" 
 />
    <glyph glyph-name="CR" unicode="&#xd;" horiz-adv-x="452" 
 />
    <glyph glyph-name="space" unicode=" " horiz-adv-x="452" 
 />
    <glyph glyph-name="exclam" unicode="!" horiz-adv-x="442" 
d="M276 969l-28 -621h-53l-29 621v493h110v-493zM168 0v233h104v-233h-104z" />
    <glyph glyph-name="quotedbl" unicode="&#x22;" horiz-adv-x="616" 
d="M131 1462h123l-16 -463h-72zM360 1462h125l-34 -463h-74z" />
    <glyph glyph-name="numbersign" unicode="#" horiz-adv-x="1185" 
d="M453 1462h92l-70 -499h322l69 499h92l-69 -499h223v-78h-233l-50 -342h224v-78h-234l-65 -465h-92l65 465h-321l-66 -465h-92l65 465h-225v78h236l49 342h-226v78h236zM416 543h321l49 342h-321z" />
    <glyph glyph-name="dollar" unicode="$" horiz-adv-x="1247" 
d="M578 1708h104v-229q173 -16 287.5 -118t136.5 -288h-109q-20 158 -121 239t-255 81q-148 0 -246.5 -75.5t-98.5 -207.5q0 -67 21 -114.5t73.5 -86t125 -67.5t190.5 -62q59 -17 96.5 -29.5t89 -33.5t84 -41t68.5 -51.5t56.5 -67t34 -83.5t13.5 -105q0 -101 -36.5 -176
t-101.5 -119t-141 -66t-167 -26v-234h-104v236q-89 9 -166.5 40t-142.5 84.5t-106 138t-48 191.5h108q9 -117 72.5 -202.5t154 -125.5t193.5 -40q76 0 141 16t119.5 49.5t85.5 92.5t31 139q0 60 -18.5 107t-46.5 77.5t-79 57.5t-97 43.5t-120 37.5q-135 40 -217.5 74
t-149 82t-95 111t-29.5 151q0 165 116.5 262.5t293.5 108.5v229z" />
    <glyph glyph-name="percent" unicode="%" horiz-adv-x="1789" 
d="M395 733q-66 0 -112.5 50.5t-66 122.5t-19.5 157q0 131 50.5 225t147.5 94q65 0 110.5 -48t65 -118t19.5 -153q0 -62 -11.5 -119.5t-34 -105.5t-61.5 -76.5t-88 -28.5zM104 1061q0 -79 17 -150t50.5 -130t91 -93.5t132.5 -34.5q74 0 131 35t90 94t49.5 130t16.5 149
q0 79 -16.5 149t-49.5 127.5t-90 91t-131 33.5q-60 0 -109.5 -22.5t-82.5 -60.5t-56 -89.5t-33 -108.5t-10 -120zM555 6l563 1452h96l-563 -1452h-96zM1108 406q0 -80 17 -151t50.5 -130t90.5 -94t131 -35q75 0 132 35t90.5 94.5t50 130.5t16.5 150q0 78 -16.5 147.5
t-50 127t-90.5 91t-132 33.5q-74 0 -131 -33.5t-90.5 -91t-50.5 -127t-17 -147.5zM1200 408q0 83 19.5 152t65.5 117t112 48t111.5 -48t64 -117t18.5 -152q0 -86 -18.5 -158.5t-64 -123t-111.5 -50.5t-112 50.5t-65.5 123t-19.5 158.5z" />
    <glyph glyph-name="ampersand" unicode="&#x26;" horiz-adv-x="1269" 
d="M948 221q-163 -233 -426 -233q-106 0 -192 35.5t-138.5 93.5t-80 127t-27.5 141q0 48 9.5 90t24 74t42.5 64.5t52.5 55t68.5 51.5t76 47.5t87 49.5q-109 138 -147.5 209t-38.5 158q0 118 87 199t226 81t232.5 -79.5t93.5 -200.5q0 -114 -82 -207.5t-231 -181.5l354 -420
q68 136 88 284h88q-28 -196 -115 -358l250 -301h-123zM186 387q0 -125 95 -221t239 -96q218 0 369 221l-387 459q-41 -23 -59 -33t-51.5 -29.5t-48 -30.5t-40 -29.5t-36.5 -31.5t-28 -32.5t-24 -37t-15 -40t-11 -47t-3 -52.5zM360 1182q0 -48 18.5 -95t42.5 -82.5t80 -109.5
q16 -21 25 -33q141 79 206 151t65 169q0 86 -62 143t-162 57q-97 0 -155 -55t-58 -145z" />
    <glyph glyph-name="quotesingle" unicode="'" horiz-adv-x="385" 
d="M131 1462h123l-25 -463h-73z" />
    <glyph glyph-name="parenleft" unicode="(" horiz-adv-x="507" 
d="M418 -393q-155 214 -236.5 456t-81.5 490q0 246 81 491.5t237 452.5h94q-315 -449 -315 -944q0 -497 315 -946h-94z" />
    <glyph glyph-name="parenright" unicode=")" horiz-adv-x="507" 
d="M-4 -393q315 449 315 946q0 495 -315 944h94q156 -207 237 -452.5t81 -491.5q0 -248 -81.5 -490t-236.5 -456h-94z" />
    <glyph glyph-name="asterisk" unicode="*" horiz-adv-x="727" 
d="M82 1325l22 68l224 -82v243h69v-243l228 82l22 -68l-225 -82l133 -192l-57 -41l-136 196l-133 -196l-59 41l133 194z" />
    <glyph glyph-name="plus" unicode="+" horiz-adv-x="1200" 
d="M647 573h432v-84h-432v-436h-94v436h-432v84h432v439h94v-439z" />
    <glyph glyph-name="comma" unicode="," horiz-adv-x="348" 
d="M154 233h116l-133 -469h-82z" />
    <glyph glyph-name="hyphen" unicode="-" horiz-adv-x="948" 
d="M162 584h622v-84h-622v84z" />
    <glyph glyph-name="period" unicode="." horiz-adv-x="362" 
d="M129 233h104v-233h-104v233z" />
    <glyph glyph-name="slash" unicode="/" horiz-adv-x="626" 
d="M498 1573h102l-496 -1766h-102z" />
    <glyph glyph-name="zero" unicode="0" horiz-adv-x="1292" 
d="M645 66q88 0 159 40.5t116 106t75.5 154t43 179.5t12.5 187q0 95 -12.5 183.5t-43 174t-75.5 149t-116 102t-159 38.5q-87 0 -157 -38.5t-115 -101t-75.5 -148t-43 -174.5t-12.5 -185t12.5 -187t43 -179.5t75.5 -154t115 -106t157 -40.5zM139 731q0 116 16.5 220.5
t54.5 200.5t95 165.5t144.5 111t195.5 41.5q110 0 197.5 -41.5t144.5 -111t95 -165.5t54.5 -200.5t16.5 -220.5t-16 -222t-54.5 -205t-95.5 -171t-145 -115t-197 -43q-108 0 -195.5 43t-144.5 115t-95 170.5t-54.5 204.5t-16.5 223z" />
    <glyph glyph-name="one" unicode="1" horiz-adv-x="1292" 
d="M1161 84v-84h-971v84h388v1036h-320v76h79t63.5 2.5t53 5.5t40.5 11t32.5 16.5t23 25t18.5 33.5t12.5 45t11 56.5t8.5 70.5h80v-1378h481z" />
    <glyph glyph-name="two" unicode="2" horiz-adv-x="1292" 
d="M197 1008q3 210 119.5 336t330.5 126q208 0 322 -112t114 -285q0 -49 -10 -95t-23 -81.5t-39.5 -73.5t-46 -61.5t-56 -56.5t-56 -48.5t-60.5 -47t-55 -42.5q-31 -24 -93 -70.5t-96 -72.5t-83 -70.5t-76.5 -80.5t-52 -86t-33.5 -103h803v-84h-922q3 47 13.5 92t23 81.5
t36.5 75.5t42 66t52.5 62t54.5 54.5t61 52t60 46.5t64 47l60 44q152 113 199 158q102 96 124 209q7 39 7 83q0 136 -86 225.5t-250 89.5q-160 0 -251.5 -101t-94.5 -277h-102z" />
    <glyph glyph-name="three" unicode="3" horiz-adv-x="1292" 
d="M233 1094q6 164 116 270t304 106q186 0 291 -93.5t105 -239.5q0 -73 -18 -131t-52.5 -99t-73 -68t-90.5 -51q141 -32 225 -127.5t84 -265.5q0 -186 -126 -300.5t-351 -114.5q-222 0 -340 107.5t-137 307.5l-2 21h104l4 -35q16 -165 115.5 -242.5t257.5 -77.5t265.5 90.5
t107.5 245.5q0 96 -34 165.5t-93.5 106.5t-127 53.5t-146.5 16.5h-46v88q30 0 84 4q127 9 207 89t80 213q0 117 -78.5 185t-216.5 68q-136 0 -219 -73t-94 -191l-2 -28h-103z" />
    <glyph glyph-name="four" unicode="4" horiz-adv-x="1292" 
d="M168 418v65l651 979h86v-960h199v-84h-199v-418h-102v418h-635zM285 502h518v768h-6z" />
    <glyph glyph-name="five" unicode="5" horiz-adv-x="1292" 
d="M1026 1372h-643l-86 -579q54 81 148.5 132.5t220.5 51.5q221 0 346 -131t125 -371q0 -102 -34.5 -193t-96.5 -159t-156.5 -108t-208.5 -40q-195 0 -332.5 113.5t-150.5 302.5h102q15 -148 122 -236.5t259 -88.5q77 0 146.5 26t125 75.5t88.5 129t33 178.5q0 192 -100 302
t-275 110q-71 0 -133 -21t-106.5 -56t-74 -70t-50.5 -72l-107 10l113 784h725v-90z" />
    <glyph glyph-name="six" unicode="6" horiz-adv-x="1292" 
d="M137 700q0 121 15.5 229t53 209.5t94 175t144 117.5t197.5 44q86 0 155 -18.5t116.5 -50t83 -79t56.5 -99t35 -116.5h-102q-12 47 -25 80.5t-39 72t-60.5 62.5t-90 40.5t-127.5 16.5q-107 0 -187 -52.5t-127 -145.5t-69.5 -206t-23.5 -247q63 119 169 179.5t238 60.5
q210 0 352 -144.5t142 -355.5q0 -215 -142.5 -356.5t-359.5 -141.5q-118 0 -218.5 49t-168.5 144q-68 91 -89.5 207t-21.5 325zM248 473q0 -169 110.5 -288t274.5 -119q167 0 284 119.5t117 287.5q0 170 -115 290t-286 120q-168 0 -276.5 -113.5t-108.5 -296.5z" />
    <glyph glyph-name="seven" unicode="7" horiz-adv-x="1292" 
d="M1100 1376q-230 -238 -399.5 -622.5t-192.5 -753.5h-102q16 251 105.5 522.5t211 486t256.5 363.5h-801v90h922v-86z" />
    <glyph glyph-name="eight" unicode="8" horiz-adv-x="1292" 
d="M647 1475q121 0 222 -45t162 -129t61 -191q0 -119 -71 -205t-198 -125q62 -14 119 -47t103.5 -81t74.5 -115.5t29 -143.5q1 -197 -138 -307.5t-364 -110.5q-226 0 -365.5 110.5t-138.5 307.5q1 76 29 143.5t75 115.5t104.5 81t119.5 47q-128 40 -198 125.5t-70 204.5
q0 161 128.5 263t315.5 102zM246 395q0 -153 106.5 -241t294.5 -88q187 0 293.5 88t106.5 241q0 150 -107.5 244t-292.5 94t-293 -94t-108 -244zM305 1102q0 -125 92.5 -203t249.5 -78q158 0 250 77.5t92 203.5q0 118 -89.5 200t-252.5 82q-164 0 -253 -82t-89 -200z" />
    <glyph glyph-name="nine" unicode="9" horiz-adv-x="1292" 
d="M129 977q0 215 142.5 356.5t359.5 141.5q119 0 222.5 -48t170.5 -141t86.5 -207.5t19.5 -328.5q0 -123 -16 -232t-53.5 -210t-94 -173.5t-143 -116t-194.5 -43.5q-86 0 -155.5 18.5t-118 50.5t-85 79t-58.5 99t-36 116h103q12 -46 26 -81t41 -72.5t62.5 -62t91.5 -40.5
t127 -16q105 0 184.5 50.5t126 140t69.5 203.5t23 251q-51 -104 -159 -169t-244 -65q-211 0 -354.5 144t-143.5 356zM231 977q0 -169 116 -289.5t286 -120.5q168 0 277.5 115.5t109.5 294.5q0 169 -111 288t-276 119q-167 0 -284.5 -119.5t-117.5 -287.5z" />
    <glyph glyph-name="colon" unicode=":" horiz-adv-x="362" 
d="M129 944h104v-233h-104v233zM129 0v233h104v-233h-104z" />
    <glyph glyph-name="semicolon" unicode=";" horiz-adv-x="385" 
d="M154 233h116l-133 -469h-82zM152 711v233h104v-233h-104z" />
    <glyph glyph-name="less" unicode="&#x3c;" horiz-adv-x="1208" 
d="M1092 915l-885 -397l885 -397v-92l-973 444v90l973 445v-93z" />
    <glyph glyph-name="equal" unicode="=" horiz-adv-x="1230" 
d="M121 362h989v-83h-989v83zM121 633v82h989v-82h-989z" />
    <glyph glyph-name="greater" unicode="&#x3e;" horiz-adv-x="1208" 
d="M117 915v93l973 -445v-90l-973 -444v92l884 397z" />
    <glyph glyph-name="question" unicode="?" horiz-adv-x="1097" 
d="M133 1053q0 199 119.5 320.5t304.5 121.5q183 0 295.5 -108t112.5 -287q0 -57 -13.5 -106.5t-42.5 -93.5t-50.5 -70.5t-61.5 -68.5q-11 -12 -17 -18q-12 -13 -41 -42.5t-43 -44.5t-36 -44.5t-32.5 -54t-19 -59.5t-8.5 -74v-59h-100v75q0 55 14 103t43 90.5t53 70.5t65 69
l5 5l5 5l5 5q84 86 112 126q60 87 60 186q0 136 -85.5 222.5t-219.5 86.5q-137 0 -229 -97t-92 -259v-25h-103v25zM496 0v233h114v-233h-114z" />
    <glyph glyph-name="at" unicode="@" horiz-adv-x="1703" 
d="M918 -92q-168 0 -316 53t-257 148t-172.5 236.5t-63.5 309.5q0 175 63 327.5t169 256t244.5 162.5t288.5 59q161 0 296.5 -51.5t229.5 -142.5t146.5 -219.5t52.5 -280.5q0 -235 -85.5 -360t-227.5 -125q-89 0 -133 41.5t-51 109.5q-30 -79 -100 -128.5t-179 -49.5
q-141 0 -240.5 106.5t-99.5 284.5q0 92 33.5 174t87.5 139t124 90t142 33q96 0 161 -48.5t87 -131.5l10 146h97l-41 -502q-1 -8 -2 -26t-2 -27q-4 -60 17.5 -95t90.5 -35q78 0 129.5 56.5t72.5 144t21 203.5q0 131 -45.5 243.5t-127 194t-201.5 128t-263 46.5
q-131 0 -253.5 -55t-215 -149t-148.5 -230t-56 -289q0 -144 54 -268t149 -211.5t230 -137.5t292 -50h336v-80h-344zM573 645q0 -138 70 -222.5t201 -84.5q127 0 194.5 96.5t67.5 282.5q0 123 -60.5 198.5t-171.5 75.5q-125 0 -213 -100t-88 -246z" />
    <glyph glyph-name="A" unicode="A" horiz-adv-x="1339" 
d="M156 0h-113l551 1462h154l548 -1462h-112l-176 477h-674zM367 565h608l-303 807h-4z" />
    <glyph glyph-name="B" unicode="B" horiz-adv-x="1251" 
d="M162 0v1462h471q128 0 227.5 -40.5t160 -128t60.5 -212.5q0 -122 -76.5 -207.5t-191.5 -113.5v-2q140 -14 235 -111t95 -254q0 -183 -131 -288t-348 -105h-502zM270 88h385q176 0 277.5 84t101.5 221q0 150 -96 232t-268 82h-400v-619zM270 795h324q181 0 280 73.5
t99 212.5q0 143 -93 218t-272 75h-338v-579z" />
    <glyph glyph-name="C" unicode="C" horiz-adv-x="1511" 
d="M1448 403q-53 -192 -216.5 -306.5t-410.5 -114.5q-170 0 -310.5 58.5t-233 160t-143 237t-50.5 291.5t50.5 292t143 237.5t233 160t310.5 58.5q242 0 399 -111t224 -305h-109q-55 153 -183 240.5t-331 87.5q-124 0 -229 -37t-177.5 -100.5t-123.5 -148.5t-74.5 -179.5
t-23.5 -194.5t23.5 -194.5t74.5 -179t123.5 -148t177.5 -100.5t229 -37q205 0 335 90.5t183 242.5h109z" />
    <glyph glyph-name="D" unicode="D" horiz-adv-x="1386" 
d="M571 1462q343 0 537.5 -189t194.5 -513q0 -157 -50 -295.5t-140 -241.5t-225.5 -163t-297.5 -60h-428v1462h409zM270 88h328q117 0 223.5 44t190 126t133 212t49.5 290q0 125 -32.5 228t-89 173.5t-134 119t-166.5 71t-188 22.5h-314v-1286z" />
    <glyph glyph-name="E" unicode="E" horiz-adv-x="1165" 
d="M1030 1462v-88h-760v-581h717v-88h-717v-617h766v-88h-874v1462h868z" />
    <glyph glyph-name="F" unicode="F" horiz-adv-x="1093" 
d="M162 0v1462h850v-88h-742v-581h680v-88h-680v-705h-108z" />
    <glyph glyph-name="G" unicode="G" horiz-adv-x="1554" 
d="M823 627v88h615l-21 -715h-78l-4 324q-64 -160 -199 -253.5t-345 -93.5q-168 0 -304 59.5t-223 163t-133.5 239t-46.5 290.5t49.5 292t140 239.5t227.5 162.5t302 60q125 0 229 -33.5t176.5 -93t121 -133t75.5 -162.5h-109q-23 70 -60.5 127t-95 105t-144 75t-193.5 27
q-120 0 -222 -38t-172.5 -102.5t-120 -150.5t-72.5 -180.5t-23 -194.5t21 -193.5t68 -179.5t115.5 -150t169.5 -102t224 -38q246 0 391 154.5t145 406.5h-504z" />
    <glyph glyph-name="H" unicode="H" horiz-adv-x="1357" 
d="M1087 1462h109v-1462h-109v702h-817v-702h-108v1462h108v-671h817v671z" />
    <glyph glyph-name="I" unicode="I" horiz-adv-x="432" 
d="M162 1462h108v-1462h-108v1462z" />
    <glyph glyph-name="J" unicode="J" horiz-adv-x="954" 
d="M180 348q2 -128 68.5 -204t189.5 -76q124 0 189 80t65 212v1102h109v-1102q0 -173 -97 -276.5t-266 -103.5q-164 0 -263.5 100.5t-100.5 269.5v60h106v-62z" />
    <glyph glyph-name="K" unicode="K" horiz-adv-x="1267" 
d="M270 0h-108v1462h108v-800l748 800h137l-563 -598l620 -864h-129l-561 791l-252 -269v-522z" />
    <glyph glyph-name="L" unicode="L" horiz-adv-x="1081" 
d="M162 1462h108v-1374h746v-88h-854v1462z" />
    <glyph glyph-name="M" unicode="M" horiz-adv-x="1660" 
d="M162 0v1462h164l505 -1329h3l501 1329h164v-1462h-108v1311h-2l-500 -1311h-117l-500 1311h-2v-1311h-108z" />
    <glyph glyph-name="N" unicode="N" horiz-adv-x="1415" 
d="M162 1462h121l723 -1083q17 -26 66 -103.5t75 -115.5q0 40 -1 127t-1 127v1048h108v-1462h-123l-702 1057q-23 34 -77 118t-83 125q0 -46 1 -144t1 -144v-1012h-108v1462z" />
    <glyph glyph-name="O" unicode="O" horiz-adv-x="1650" 
d="M823 1485q170 0 311.5 -60t234.5 -163t144.5 -240.5t51.5 -292.5t-51 -292t-144.5 -239t-235 -161.5t-311.5 -59.5q-169 0 -310 59.5t-234 161.5t-144 239t-51 292t51 292.5t144 240.5t234 163t310 60zM193 729q0 -100 24 -194.5t75 -180t124 -149.5t178 -101.5
t229 -37.5q126 0 231.5 37.5t179 101.5t125 149.5t75.5 180t24 194.5t-24 194.5t-75.5 180.5t-125 150.5t-179 102.5t-231.5 38q-124 0 -229 -38t-178 -102.5t-124 -150.5t-75 -180.5t-24 -194.5z" />
    <glyph glyph-name="P" unicode="P" horiz-adv-x="1153" 
d="M569 717q189 0 290.5 85.5t101.5 254.5q0 148 -95.5 232.5t-277.5 84.5h-318v-657h299zM162 0v1462h446q131 0 234.5 -46t165 -139t61.5 -220q0 -199 -132 -313.5t-347 -114.5h-320v-629h-108z" />
    <glyph glyph-name="Q" unicode="Q" horiz-adv-x="1650" 
d="M938 410q148 -39 309 -189q104 94 157.5 229.5t53.5 282.5q0 100 -24 194.5t-75.5 180.5t-125 150.5t-179 102.5t-231.5 38q-124 0 -229 -38t-178 -102.5t-124 -150.5t-75 -180.5t-24 -194.5t24 -194.5t75 -180t124 -149.5t178 -101.5t229 -37.5q200 0 353 96
q-67 61 -128 102.5t-143 69.5zM84 733q0 155 51 292.5t144 240.5t234 163t310 60q170 0 311.5 -60t234.5 -163t144.5 -240.5t51.5 -292.5q0 -174 -64 -324.5t-182 -252.5q101 -93 219 -136l-31 -75q-136 44 -260 155q-179 -118 -424 -118q-136 0 -254 38t-206.5 107
t-151.5 162.5t-95 206.5t-32 237z" />
    <glyph glyph-name="R" unicode="R" horiz-adv-x="1282" 
d="M162 -2v1464h493q237 0 356 -109t119 -284q0 -153 -85 -251.5t-232 -135.5q94 -23 147.5 -100t110.5 -260q67 -211 123 -314v-8h-117q-23 50 -45 111.5t-46.5 137t-37.5 113.5q-27 78 -48.5 123t-57.5 86t-88 58.5t-127 17.5h-357v-649h-108zM270 735h392q177 0 268.5 90
t91.5 244q0 63 -18.5 115t-60 96t-117 69t-179.5 25h-377v-639z" />
    <glyph glyph-name="S" unicode="S" horiz-adv-x="1247" 
d="M223 438q9 -117 72.5 -202.5t154 -125.5t193.5 -40q76 0 141 16t119.5 49.5t85.5 92.5t31 139q0 60 -18.5 107t-46.5 77.5t-79 57.5t-97 43.5t-120 37.5q-135 40 -217.5 74t-149 82t-95 111t-29.5 151q0 118 63 204t164 127.5t226 41.5q197 0 329 -102.5t156 -305.5h-109
q-20 158 -121 239t-255 81q-148 0 -246.5 -75.5t-98.5 -207.5q0 -67 21 -114.5t73.5 -86t125 -67.5t190.5 -62q59 -17 96.5 -29.5t89 -33.5t84 -41t68.5 -51.5t56.5 -67t34 -83.5t13.5 -105q0 -86 -27.5 -153.5t-73 -110.5t-109 -71.5t-131 -40t-144.5 -11.5
q-99 0 -187 26.5t-163 79.5t-122.5 143t-55.5 207h108z" />
    <glyph glyph-name="T" unicode="T" horiz-adv-x="1138" 
d="M43 1374v88h1053v-88h-473v-1374h-107v1374h-473z" />
    <glyph glyph-name="U" unicode="U" horiz-adv-x="1343" 
d="M1190 518q0 -117 -31.5 -214t-93.5 -170t-162.5 -113.5t-230.5 -40.5t-230 40.5t-162.5 113.5t-94 170t-31.5 214v944h108v-944q0 -199 106 -324.5t304 -125.5q199 0 305 125t106 325v944h107v-944z" />
    <glyph glyph-name="V" unicode="V" horiz-adv-x="1300" 
d="M27 1462h118l502 -1351h4l504 1351h119l-555 -1462h-137z" />
    <glyph glyph-name="W" unicode="W" horiz-adv-x="1812" 
d="M27 1462h114l281 -1100l67 -249h3l63 249l270 1100h160l266 -1093l68 -258h4l66 260l280 1091h117l-291 -1089l-98 -373h-154l-92 367l-246 981h-2l-248 -983l-90 -365h-151l-97 362z" />
    <glyph glyph-name="X" unicode="X" horiz-adv-x="1196" 
d="M27 0l508 752l-496 710h125l434 -620l438 620h121l-498 -710l510 -752h-125l-446 659l-448 -659h-123z" />
    <glyph glyph-name="Y" unicode="Y" horiz-adv-x="1175" 
d="M156 1462q36 -63 192 -338.5t238 -423.5h4q70 127 214.5 381t215.5 381h121l-500 -870v-592h-106v592l-498 870h119z" />
    <glyph glyph-name="Z" unicode="Z" horiz-adv-x="1236" 
d="M102 88l895 1284h-850v90h971v-88l-891 -1284h916v-90h-1041v88z" />
    <glyph glyph-name="bracketleft" unicode="[" horiz-adv-x="514" 
d="M483 1417h-229v-1743h229v-80h-321v1903h321v-80z" />
    <glyph glyph-name="backslash" unicode="\" horiz-adv-x="626" 
d="M129 1573l496 -1766h-103l-495 1766h102z" />
    <glyph glyph-name="bracketright" unicode="]" horiz-adv-x="514" 
d="M31 1417v80h321v-1903h-321v80h229v1743h-229z" />
    <glyph glyph-name="asciicircum" unicode="^" horiz-adv-x="1228" 
d="M571 1427h82l471 -866h-98l-414 768l-409 -768h-99z" />
    <glyph glyph-name="underscore" unicode="_" horiz-adv-x="1425" 
d="M-4 -70h1434v-65h-1434v65z" />
    <glyph glyph-name="grave" unicode="`" horiz-adv-x="471" 
d="M152 1462l198 -268h-76l-249 268h127z" />
    <glyph glyph-name="a" unicode="a" horiz-adv-x="1087" 
d="M150 745q12 61 43 117t79.5 104t122 76.5t160.5 28.5q88 0 157 -19t113 -50.5t73 -75t40.5 -89.5t11.5 -98l2 -520q0 -108 19 -219h-109q-10 59 -10 168v55h-2q-111 -237 -385 -237q-181 0 -281 86.5t-100 214.5q0 73 35 129.5t100 93t139 59t170 37.5q85 13 135.5 24.5
t98.5 29.5t69 44t21 62q0 111 -81 166t-214 55q-116 0 -195 -62.5t-110 -179.5h-102zM186 287q0 -93 76 -156t209 -63q164 0 274.5 112.5t110.5 306.5v170q-24 -49 -109 -80.5t-239 -56.5q-152 -23 -237 -81t-85 -152z" />
    <glyph glyph-name="b" unicode="b" horiz-adv-x="1175" 
d="M625 1071q154 0 264.5 -76t162.5 -197t52 -270q0 -88 -19 -168t-58 -148t-95 -118t-135 -78t-172 -28q-268 0 -383 235h-2v-223h-103v1462h103v-622h2q51 102 146 166.5t237 64.5zM231 528q0 -65 13 -128t43 -122.5t73.5 -104.5t109.5 -72t146 -27q121 0 209 60.5
t132 162.5t44 231q0 131 -44 234t-132 164t-209 61q-180 0 -282.5 -130t-102.5 -329z" />
    <glyph glyph-name="c" unicode="c" horiz-adv-x="1116" 
d="M1032 295q-40 -143 -157 -225t-289 -82q-159 0 -277.5 75t-177.5 195.5t-59 267.5q0 110 35 208t98.5 173.5t162 119.5t218.5 44q169 0 284 -81t154 -218h-106q-34 101 -121.5 158t-212.5 57q-182 0 -296 -131.5t-114 -329.5q0 -194 114 -323t296 -129q126 0 215.5 58
t124.5 163h108z" />
    <glyph glyph-name="d" unicode="d" horiz-adv-x="1175" 
d="M551 1071q141 0 235.5 -64.5t147.5 -166.5h2v622h102v-1462h-102v223h-2q-115 -235 -383 -235q-117 0 -210 43t-151 118t-88 171.5t-30 207.5t30 208t88 172.5t151 119t210 43.5zM174 528q0 -199 101.5 -326.5t281.5 -127.5q81 0 147 27t109.5 72t73 104.5t42.5 122
t13 128.5q0 200 -102 329.5t-283 129.5q-179 0 -281 -129t-102 -330z" />
    <glyph glyph-name="e" unicode="e" horiz-adv-x="1120" 
d="M1032 311q-47 -147 -166.5 -235t-292.5 -88q-156 0 -271.5 75t-172.5 196t-57 269q0 109 34 207t95.5 173t156.5 119t209 44q115 0 203.5 -39.5t143.5 -110t85 -160t37 -198.5q2 -23 2 -65h-866q6 -185 117 -304.5t284 -119.5q126 0 219.5 63.5t135.5 173.5h104zM174 580
h764q-40 407 -371 407q-167 0 -274.5 -114t-118.5 -293z" />
    <glyph glyph-name="f" unicode="f" horiz-adv-x="593" 
d="M231 1212q0 52 12 95.5t37 79t68 55.5t101 20h104v-84h-94q-62 0 -93.5 -39t-31.5 -133v-147h182v-82h-182v-977h-103v977h-149v82h149v153z" />
    <glyph glyph-name="g" unicode="g" horiz-adv-x="1175" 
d="M936 1059h102v-1016q0 -130 -49 -230.5t-154 -161.5t-255 -61q-198 0 -315.5 94.5t-141.5 258.5h104q52 -269 353 -269q176 0 266 101t90 284v162h-2q-114 -233 -381 -233q-117 0 -210.5 43.5t-151.5 118.5t-88.5 171.5t-30.5 206.5t30.5 207t88.5 172.5t151.5 119.5
t210.5 44q261 0 381 -227h2v215zM174 528q0 -128 43 -229.5t131.5 -163t208.5 -61.5q82 0 149 28t110 73t72 105.5t41.5 122t12.5 125.5q0 126 -43 229t-132 166.5t-210 63.5q-120 0 -208.5 -62t-131.5 -164.5t-43 -232.5z" />
    <glyph glyph-name="h" unicode="h" horiz-adv-x="1091" 
d="M137 0v1462h103v-606q98 215 340 215q83 0 149.5 -21.5t120.5 -67t83.5 -126.5t29.5 -192v-664h-103v659q0 175 -78 251.5t-209 76.5q-64 0 -120 -21t-105.5 -67.5t-78.5 -134t-29 -207.5v-557h-103z" />
    <glyph glyph-name="i" unicode="i" horiz-adv-x="385" 
d="M246 1257h-107v205h107v-205zM139 0v1059h103v-1059h-103z" />
    <glyph glyph-name="j" unicode="j" horiz-adv-x="415" 
d="M279 1257h-109v205h109v-205zM-25 -403v84h82q61 0 88 28.5t27 87.5v1262h104v-1252q0 -104 -51 -157t-168 -53h-82z" />
    <glyph glyph-name="k" unicode="k" horiz-adv-x="931" 
d="M240 0h-103v1462h103v-923l530 520h127l-451 -449l457 -610h-121l-403 547l-139 -127v-420z" />
    <glyph glyph-name="l" unicode="l" horiz-adv-x="376" 
d="M137 1462h103v-1462h-103v1462z" />
    <glyph glyph-name="m" unicode="m" horiz-adv-x="1642" 
d="M137 0v1059h103v-199q33 92 114.5 152.5t182.5 60.5q119 0 196.5 -50t116.5 -157q64 111 141 159t187 48q154 0 244.5 -96.5t90.5 -312.5v-664h-102v659q0 330 -240 330q-125 0 -207.5 -102t-82.5 -289v-598h-103v659q0 330 -248 330q-94 0 -161 -61t-98 -157t-31 -214
v-557h-103z" />
    <glyph glyph-name="n" unicode="n" horiz-adv-x="1091" 
d="M137 0v1059h103v-203q98 215 340 215q83 0 149.5 -21.5t120.5 -67t83.5 -126.5t29.5 -192v-664h-103v659q0 175 -78 251.5t-209 76.5q-64 0 -120 -21t-105.5 -67.5t-78.5 -134t-29 -207.5v-557h-103z" />
    <glyph glyph-name="o" unicode="o" horiz-adv-x="1167" 
d="M584 -12q-119 0 -217 43.5t-162 118t-98.5 171.5t-34.5 205q0 109 34.5 207t98.5 173.5t162 120t217 44.5q117 0 215 -44.5t162 -120t99.5 -173.5t35.5 -207q0 -108 -35.5 -205t-99.5 -171.5t-162 -118t-215 -43.5zM174 526q0 -192 114.5 -322t295.5 -130
q180 0 294.5 130t114.5 322q0 197 -114.5 329t-294.5 132q-120 0 -214.5 -61.5t-145 -166t-50.5 -233.5z" />
    <glyph glyph-name="p" unicode="p" horiz-adv-x="1175" 
d="M625 1071q154 0 264.5 -76t162.5 -197t52 -270q0 -88 -19 -168t-58 -148t-95 -118t-135 -78t-172 -28q-268 0 -383 235h-2v-633h-103v1469h103v-219h2q51 102 146 166.5t237 64.5zM231 528q0 -65 13 -128t43 -122.5t73.5 -104.5t109.5 -72t146 -27q121 0 209 60.5
t132 162.5t44 231q0 131 -44 234t-132 164t-209 61q-180 0 -282.5 -130t-102.5 -329z" />
    <glyph glyph-name="q" unicode="q" horiz-adv-x="1175" 
d="M551 1071q141 0 235.5 -64.5t147.5 -166.5h2v219h102v-1469h-102v633h-2q-115 -235 -383 -235q-117 0 -210 43t-151 118t-88 171.5t-30 207.5t30 208t88 172.5t151 119t210 43.5zM174 528q0 -199 101.5 -326.5t281.5 -127.5q81 0 147 27t109.5 72t73 104.5t42.5 122
t13 128.5q0 200 -102 329.5t-283 129.5q-179 0 -281 -129t-102 -330z" />
    <glyph glyph-name="r" unicode="r" horiz-adv-x="641" 
d="M240 1059v-211q87 219 342 219v-92q-106 0 -170 -41q-172 -91 -172 -381v-553h-103v1059h103z" />
    <glyph glyph-name="s" unicode="s" horiz-adv-x="931" 
d="M743 743q-13 126 -89 185t-185 59q-66 0 -121.5 -18.5t-94 -63.5t-38.5 -110q0 -81 55 -126t156 -73q89 -24 147 -41q64 -19 110.5 -39.5t89.5 -52t65 -77t22 -103.5q0 -76 -35.5 -134.5t-94 -91.5t-123 -49t-132.5 -16t-130 17t-118.5 53.5t-97 100.5t-57.5 150h102
q17 -112 96.5 -174.5t204.5 -62.5q126 0 204.5 51t78.5 154q0 78 -54.5 119.5t-156.5 70.5q-27 7 -73.5 19.5t-74.5 19.5q-59 16 -105 37t-89.5 54t-67.5 81.5t-24 110.5q0 89 55.5 154.5t134.5 94.5t166 29q153 0 252.5 -81.5t124.5 -246.5h-103z" />
    <glyph glyph-name="t" unicode="t" horiz-adv-x="555" 
d="M281 207q0 -125 116 -125h82v-82h-76q-119 0 -172 54t-53 161v762h-158v82h158v260l103 47v-307h204v-82h-204v-770z" />
    <glyph glyph-name="u" unicode="u" horiz-adv-x="1091" 
d="M129 395v664h102v-660q0 -327 287 -327q51 0 96.5 12.5t90 43.5t76.5 78t51.5 123t19.5 173v557h102v-1059h-102v211q-100 -223 -340 -223q-83 0 -149.5 21.5t-120.5 67t-83.5 126.5t-29.5 192z" />
    <glyph glyph-name="v" unicode="v" horiz-adv-x="985" 
d="M129 1059q266 -684 365 -934h2q68 172 191.5 492t170.5 442h105q-70 -176 -208.5 -529.5t-207.5 -529.5h-107l-417 1059h106z" />
    <glyph glyph-name="w" unicode="w" horiz-adv-x="1409" 
d="M338 0l-315 1059h104l211 -729l55 -197h2q9 33 27 99.5t27 99.5l198 727h115l196 -717q6 -24 26.5 -96.5t29.5 -112.5h2l61 211l205 715h104l-315 -1059h-110l-201 737l-53 189h-2q-9 -32 -26 -95t-26 -94l-204 -737h-111z" />
    <glyph glyph-name="x" unicode="x" horiz-adv-x="989" 
d="M39 0l391 545l-371 514h125l312 -438l309 438h125l-371 -516l391 -543h-125l-329 467l-332 -467h-125z" />
    <glyph glyph-name="y" unicode="y" horiz-adv-x="999" 
d="M127 1059q43 -107 179 -445.5t210 -523.5h2q59 161 177 484.5t177 484.5h105q-118 -319 -477 -1274q-36 -99 -87 -147t-151 -48h-84v84h82q23 0 42.5 5.5t35 18.5t26 24.5t21 33t16 34t14.5 37.5t13 34l37 102l-442 1096h104z" />
    <glyph glyph-name="z" unicode="z" horiz-adv-x="978" 
d="M780 977q-22 0 -72 -1t-75 -1h-500v84h762v-68l-707 -909q20 0 56 1t53 1h606v-84h-827v72z" />
    <glyph glyph-name="braceleft" unicode="{" horiz-adv-x="698" 
d="M537 1434q-63 0 -102.5 -49.5t-39.5 -145.5v-416q0 -66 -20.5 -121t-51.5 -86.5t-58 -49t-48 -21.5v-4q21 -4 48 -20.5t58 -47.5t51.5 -86t20.5 -123v-416q0 -96 39.5 -145t102.5 -49h90v-64h-115q-82 0 -144.5 72.5t-62.5 196.5v385q0 123 -56 192.5t-128 69.5v74
q72 0 128 70.5t56 193.5v385q0 124 62.5 196t144.5 72h115v-63h-90z" />
    <glyph glyph-name="bar" unicode="|" horiz-adv-x="411" 
d="M162 1774h88v-2212h-88v2212z" />
    <glyph glyph-name="braceright" unicode="}" horiz-adv-x="698" 
d="M162 1434h-90v63h114q82 0 144.5 -72t62.5 -196v-385q0 -123 56.5 -193.5t128.5 -70.5v-74q-73 0 -129 -70t-56 -192v-385q0 -124 -62.5 -196.5t-144.5 -72.5h-114v64h90q63 0 102 49t39 145v416q0 68 20.5 123t51.5 86t58 47.5t48 20.5v4q-21 4 -48 21.5t-58 49
t-51.5 86.5t-20.5 121v416q0 96 -39 145.5t-102 49.5z" />
    <glyph glyph-name="asciitilde" unicode="~" horiz-adv-x="1290" 
d="M1159 627q-41 -236 -289 -236q-48 0 -99 15.5t-94 38t-85.5 45t-89.5 38t-90 15.5q-168 0 -189 -152h-94q11 107 82.5 171.5t200.5 64.5q67 0 136 -23.5t116.5 -51.5t104 -51.5t101.5 -23.5q92 0 136.5 38t60.5 112h92z" />
    <glyph glyph-name="uni00A0" unicode="&#xa0;" horiz-adv-x="452" 
 />
    <glyph glyph-name="exclamdown" unicode="&#xa1;" horiz-adv-x="442" 
d="M276 90v-493h-110v493l29 621h53zM168 825v234h104v-234h-104z" />
    <glyph glyph-name="cent" unicode="&#xa2;" horiz-adv-x="1103" 
d="M541 -209v199q-145 10 -253 86.5t-162 193.5t-54 256q0 140 54 258t162 196t253 89v195h96v-195q149 -12 250 -91.5t137 -205.5h-106q-31 90 -104 145.5t-177 67.5v-909q106 12 181 69t106 150h108q-37 -132 -140 -212.5t-255 -92.5v-199h-96zM174 526q0 -181 101.5 -307
t265.5 -143v909q-164 -17 -265.5 -145.5t-101.5 -313.5z" />
    <glyph glyph-name="sterling" unicode="&#xa3;" horiz-adv-x="1253" 
d="M90 653v86h184q-3 5 -30 47.5t-34 55t-27 51t-27 62t-15 59.5t-8 71q0 181 134.5 296.5t338.5 115.5q221 0 342 -121.5t137 -318.5h-104q-44 348 -375 348q-160 0 -264 -87t-104 -231q0 -57 21 -110t71.5 -134t62.5 -104h424v-86h-383q25 -61 25 -125q0 -77 -18.5 -144
t-54 -121.5t-73 -95t-88.5 -83.5q66 30 114 38.5t105 6.5q33 -1 71 -7t57.5 -10.5t60.5 -16t43 -11.5q123 -31 196 -27q54 5 117.5 28t102.5 54l49 -78q-60 -45 -143 -69.5t-167 -24.5q-89 0 -225 39q-147 39 -221 39q-106 0 -209 -70l-72 101q16 17 58 59t60.5 61.5t49 61
t44 75.5t25 85.5t11.5 109.5q0 64 -28 125h-234z" />
    <glyph glyph-name="currency" unicode="&#xa4;" horiz-adv-x="1222" 
d="M98 715q0 187 123 332l-104 104l63 66l105 -107q143 117 331 117q184 0 326 -119l109 109l61 -66l-108 -109q118 -140 118 -323q0 -186 -118 -326l108 -108l-61 -64l-109 109q-142 -123 -328 -123q-187 0 -329 119l-105 -107l-63 66l104 104q-123 142 -123 326zM197 715
q0 -177 122 -300.5t295 -123.5q167 0 289.5 122.5t122.5 305.5q0 180 -121 302t-289 122q-180 0 -299.5 -123.5t-119.5 -304.5z" />
    <glyph glyph-name="yen" unicode="&#xa5;" horiz-adv-x="1175" 
d="M156 1462q36 -63 192 -338.5t238 -423.5h4q70 127 214.5 381t215.5 381h121l-439 -762h246v-82h-293l-14 -26v-96h307v-82h-307v-414h-106v414h-306v82h306v96l-15 26h-291v82h244l-436 762h119z" />
    <glyph glyph-name="brokenbar" unicode="&#xa6;" horiz-adv-x="499" 
d="M297 846h-94v504h94v-504zM203 -137v504h94v-504h-94z" />
    <glyph glyph-name="section" unicode="&#xa7;" horiz-adv-x="1110" 
d="M133 743q0 86 62.5 147t158.5 89q-151 88 -151 223q0 67 32 121.5t84 87.5t114 50.5t126 17.5q153 0 252.5 -80t124.5 -246h-102q-13 126 -89.5 184t-187.5 58q-66 0 -121 -18.5t-93 -63t-38 -109.5q0 -37 15.5 -68.5t37.5 -53.5t63.5 -44.5t76.5 -37t92 -35.5
q175 -66 235 -99q120 -68 144 -171q8 -32 8 -68q0 -80 -57 -138.5t-144 -95.5q78 -45 120 -101.5t42 -135.5q0 -76 -35.5 -134.5t-94 -91.5t-124 -49t-133.5 -16t-130 17.5t-118.5 53.5t-97.5 100t-58 150h103q17 -112 97.5 -174.5t205.5 -62.5q126 0 204.5 51t78.5 154
q0 38 -17 71t-38.5 54.5t-65 45.5t-70.5 35.5t-84 33t-78 30.5q-156 66 -200 91q-116 66 -141 159q-9 32 -9 69zM236 745q0 -37 17 -68.5t42 -54t67 -45t78 -37.5t89 -36q11 -4 16 -6q19 -8 74 -30.5t83 -35.5q78 27 125 78.5t47 114.5q0 45 -15.5 80t-32 56.5t-66 47
t-76.5 36t-105 38.5q-25 9 -38 14q-61 22 -103 39q-86 -16 -144 -66t-58 -125z" />
    <glyph glyph-name="dieresis" unicode="&#xa8;" horiz-adv-x="718" 
d="M180 1462h94v-184h-94v184zM438 1278v184h94v-184h-94z" />
    <glyph glyph-name="copyright" unicode="&#xa9;" horiz-adv-x="1732" 
d="M868 -49q-159 0 -304 61.5t-250.5 165.5t-167.5 249.5t-62 305.5q0 159 62 303.5t167.5 248t250.5 165t304 61.5q211 0 390.5 -103.5t285 -283t105.5 -391.5q0 -160 -62.5 -305.5t-167.5 -249.5t-249 -165.5t-302 -61.5zM180 733q0 -190 92 -351t250.5 -254t345.5 -93
q140 0 267 55t218.5 148.5t146 222.5t54.5 272q0 188 -92 348t-250 253t-344 93q-141 0 -268.5 -54.5t-219.5 -147.5t-146 -221.5t-54 -270.5zM508 735q0 162 100.5 270.5t272.5 108.5q248 0 325 -231h-94q-29 81 -85 118t-146 37q-134 0 -206.5 -85t-72.5 -218t72 -217
t207 -84q92 0 150.5 40t80.5 116h96q-25 -100 -110.5 -167t-216.5 -67q-172 0 -272.5 108.5t-100.5 270.5z" />
    <glyph glyph-name="ordfeminine" unicode="&#xaa;" horiz-adv-x="796" 
d="M348 666q-123 0 -192.5 61.5t-69.5 151.5q0 35 12 64.5t28.5 49.5t47.5 38t54 28t64 20.5t62 14.5t62 12q97 15 139.5 36t42.5 66q0 67 -49.5 101t-134.5 34q-74 0 -125 -41t-68 -114h-94q14 89 88.5 162t196.5 73q79 0 135.5 -20.5t87 -57t44 -79.5t13.5 -95l2 -337
q0 -74 11 -156h-103q-4 35 -4 115l-2 36q-24 -66 -83.5 -114.5t-164.5 -48.5zM182 879q0 -57 47 -95.5t127 -38.5q105 0 174 72t70 207v94q-39 -71 -219 -96q-199 -30 -199 -143z" />
    <glyph glyph-name="guillemotleft" unicode="&#xab;" horiz-adv-x="768" 
d="M88 532l231 416h99l-215 -416l215 -419h-99zM350 532l232 416h98l-215 -416l215 -419h-98z" />
    <glyph glyph-name="logicalnot" unicode="&#xac;" horiz-adv-x="1247" 
d="M121 690v80h1007v-543h-88v463h-919z" />
    <glyph glyph-name="uni00AD" unicode="&#xad;" horiz-adv-x="948" 
d="M162 584h622v-84h-622v84z" />
    <glyph glyph-name="registered" unicode="&#xae;" horiz-adv-x="1732" 
d="M1096 543q31 -110 61 -160v-10h-100q-28 48 -66 174q-20 68 -51.5 98.5t-91.5 30.5h-127v-303h-94v731h256q122 0 184.5 -58t62.5 -151q0 -64 -36 -114t-101 -76q39 -19 60 -54.5t43 -107.5zM84 733q0 -160 62 -305.5t167.5 -249.5t250.5 -165.5t304 -61.5
q158 0 302 61.5t249 165.5t167.5 249.5t62.5 305.5q0 212 -105.5 391.5t-285 283t-390.5 103.5q-159 0 -304 -61.5t-250.5 -165t-167.5 -248t-62 -303.5zM180 733q0 142 54 270.5t146 221.5t219.5 147.5t268.5 54.5q186 0 344 -93t250 -253t92 -348q0 -143 -54.5 -272
t-146 -222.5t-218.5 -148.5t-267 -55q-187 0 -345.5 93t-250.5 254t-92 351zM721 752h158q72 0 114.5 39t42.5 102t-39.5 99t-122.5 36h-153v-276z" />
    <glyph glyph-name="macron" unicode="&#xaf;" horiz-adv-x="837" 
d="M80 1315h676v-62h-676v62z" />
    <glyph glyph-name="degree" unicode="&#xb0;" horiz-adv-x="679" 
d="M340 1028q83 0 133.5 54t50.5 128t-50.5 128.5t-133.5 54.5t-132.5 -54.5t-49.5 -128.5t49.5 -128t132.5 -54zM80 1210q0 108 75 184t185 76q107 0 183.5 -76.5t76.5 -183.5q0 -110 -76 -185t-184 -75q-110 0 -185 75t-75 185z" />
    <glyph glyph-name="plusminus" unicode="&#xb1;" horiz-adv-x="1228" 
d="M121 174h987v-80h-987v80zM121 586v82h448v299h90v-299h449v-82h-449v-301h-90v301h-448z" />
    <glyph glyph-name="uni00B2" unicode="&#xb2;" horiz-adv-x="698" 
d="M63 801q3 55 22 104.5t41 83t63.5 72t68 58.5t76.5 55t72 52t53 44.5t43.5 48.5t22.5 51t10 64q0 76 -47.5 126t-135.5 50q-93 0 -141.5 -56t-50.5 -151h-88q2 131 74.5 205.5t207.5 74.5q125 0 197 -68t72 -175q0 -26 -3 -49t-11.5 -44.5t-15 -37.5t-22.5 -35t-23.5 -29
t-29 -29t-28.5 -25t-32 -26l-30 -24q-21 -17 -64 -48.5t-66.5 -50.5t-53 -47t-47 -57.5t-25.5 -63.5h463v-73h-572z" />
    <glyph glyph-name="uni00B3" unicode="&#xb3;" horiz-adv-x="716" 
d="M360 786q-134 0 -208.5 65.5t-85.5 186.5l-3 15h91l2 -19q9 -89 63 -131.5t141 -42.5q91 0 148 51t57 136q0 96 -63.5 139t-159.5 43h-33v78q17 0 53 4q71 5 113.5 45t42.5 110q0 68 -41.5 106t-116.5 38q-73 0 -117 -39.5t-50 -102.5l-3 -16h-88q5 102 72.5 166.5
t185.5 64.5q116 0 182 -57.5t66 -150.5q0 -78 -33 -125t-94 -78q80 -22 126 -78.5t46 -151.5q0 -112 -78.5 -184t-214.5 -72z" />
    <glyph glyph-name="acute" unicode="&#xb4;" horiz-adv-x="524" 
d="M420 1462h127l-250 -268h-76z" />
    <glyph glyph-name="uni00B5" unicode="&#xb5;" horiz-adv-x="1091" 
d="M129 -410v1469h102v-660q0 -94 21.5 -160t62.5 -101.5t90 -50.5t113 -15q51 0 96.5 12.5t90 43.5t76.5 78t51.5 123t19.5 173v557h102v-1059h-102v211q-95 -223 -340 -223q-198 0 -281 127v-525h-102z" />
    <glyph glyph-name="paragraph" unicode="&#xb6;" horiz-adv-x="1103" 
d="M942 -236h-90v1622h-274v-1622h-89v893q-93 0 -174 32.5t-135.5 87t-85.5 126.5t-31 150q0 200 122.5 304.5t355.5 104.5h401v-1698z" />
    <glyph glyph-name="periodcentered" unicode="&#xb7;" horiz-adv-x="520" 
d="M260 666q54 0 92.5 -38.5t38.5 -92.5q0 -50 -39.5 -91t-89.5 -41q-54 0 -93.5 39t-39.5 93t38.5 92.5t92.5 38.5z" />
    <glyph glyph-name="cedilla" unicode="&#xb8;" horiz-adv-x="540" 
d="M244 -418q-97 0 -183 41l25 64q71 -39 154 -39q68 0 110.5 24.5t42.5 71.5q0 42 -26.5 65t-71.5 23q-17 0 -34 -2t-28.5 -4.5t-26.5 -7.5t-20.5 -7.5t-19 -8.5t-14.5 -7l-43 60l129 145h81l-131 -141l5 -2q53 39 116 39q75 0 121.5 -38t46.5 -110q0 -83 -68.5 -124.5
t-164.5 -41.5z" />
    <glyph glyph-name="uni00B9" unicode="&#xb9;" horiz-adv-x="446" 
d="M252 801v655h-201v66q63 0 96 4t61 20t40.5 46.5t21.5 84.5h70v-876h-88z" />
    <glyph glyph-name="ordmasculine" unicode="&#xba;" horiz-adv-x="925" 
d="M461 647q-163 0 -262 108t-99 269q0 163 99 273t262 110t263.5 -110t100.5 -273q0 -161 -100 -269t-264 -108zM197 1024q0 -126 73.5 -210.5t190.5 -84.5t191.5 84.5t74.5 210.5q0 129 -74.5 216t-191.5 87t-190.5 -86.5t-73.5 -216.5z" />
    <glyph glyph-name="guillemotright" unicode="&#xbb;" horiz-adv-x="768" 
d="M680 532l-231 -419h-99l215 419l-215 416h99zM88 113l215 419l-215 416h98l232 -416l-232 -419h-98z" />
    <glyph glyph-name="onequarter" unicode="&#xbc;" horiz-adv-x="1355" 
d="M252 584v655h-201v66q63 0 96 4t61 20t40.5 46.5t21.5 84.5h70v-876h-88zM332 6l563 1452h96l-563 -1452h-96zM719 238v69l389 570h80v-566h112v-73h-112v-238h-88v238h-381zM813 311h287v420h-2z" />
    <glyph glyph-name="onehalf" unicode="&#xbd;" horiz-adv-x="1521" 
d="M252 584v655h-201v66q63 0 96 4t61 20t40.5 46.5t21.5 84.5h70v-876h-88zM352 6l563 1452h97l-563 -1452h-97zM885 0q3 55 22 104t41 83t63 72t68 58.5t76 55.5q50 35 72 52t53 44.5t43.5 48.5t22.5 51t10 64q0 76 -47 126t-135 50q-93 0 -142 -56t-51 -151h-88
q2 131 75 206t208 75q124 0 196 -68.5t72 -175.5q0 -26 -3 -49t-11.5 -44.5t-15 -37.5t-22.5 -35t-23.5 -29t-29 -29t-28.5 -25t-32 -26l-30 -24q-22 -17 -64.5 -48t-66 -50t-53 -47t-47 -57.5t-25.5 -63.5h463v-74h-571z" />
    <glyph glyph-name="threequarters" unicode="&#xbe;" horiz-adv-x="1523" 
d="M360 569q-134 0 -208.5 65.5t-85.5 186.5l-3 15h91l2 -19q9 -89 63 -131.5t141 -42.5q91 0 148 50.5t57 135.5q0 50 -18.5 87t-51 57t-70.5 29.5t-83 9.5h-33v78q17 0 53 4q71 5 113.5 45t42.5 110q0 68 -41.5 106t-116.5 38q-73 0 -117 -39.5t-50 -102.5l-3 -16h-88
q5 102 72.5 166.5t185.5 64.5q116 0 182 -58t66 -151q0 -78 -33 -124.5t-94 -77.5q80 -22 126 -78.5t46 -151.5q0 -112 -78.5 -184t-214.5 -72zM498 6l563 1452h96l-563 -1452h-96zM887 238v69l389 570h80v-566h112v-73h-112v-238h-88v238h-381zM981 311h287v420h-2z" />
    <glyph glyph-name="questiondown" unicode="&#xbf;" horiz-adv-x="1087" 
d="M967 6q0 -199 -119.5 -320.5t-304.5 -121.5q-183 0 -295.5 108t-112.5 287q0 57 13.5 106.5t42 93.5t50.5 70t61 68q11 12 17 18q12 13 41 42.5t43 45t36 45t33 54t19.5 59.5t8.5 74v59h100v-76q0 -55 -14 -103t-43 -90.5t-53 -70.5t-65 -69l-5 -5l-5 -5l-5 -5
q-83 -85 -110 -123q-62 -87 -62 -188q0 -136 85.5 -222.5t219.5 -86.5q137 0 229 97t92 259v25h103v-25zM489 825v234h115v-234h-115z" />
    <glyph glyph-name="Agrave" unicode="&#xc0;" horiz-adv-x="1339" 
d="M156 0h-113l551 1462h154l548 -1462h-112l-176 477h-674zM367 565h608l-303 807h-4zM371 1802h153l262 -207h-106z" />
    <glyph glyph-name="Aacute" unicode="&#xc1;" horiz-adv-x="1339" 
d="M156 0h-113l551 1462h154l548 -1462h-112l-176 477h-674zM367 565h608l-303 807h-4zM559 1595l262 207h154l-309 -207h-107z" />
    <glyph glyph-name="Acircumflex" unicode="&#xc2;" horiz-adv-x="1339" 
d="M156 0h-113l551 1462h154l548 -1462h-112l-176 477h-674zM342 1577l268 231h119l268 -231h-106l-221 174l-221 -174h-107zM367 565h608l-303 807h-4z" />
    <glyph glyph-name="Atilde" unicode="&#xc3;" horiz-adv-x="1339" 
d="M156 0h-113l551 1462h154l548 -1462h-112l-176 477h-674zM332 1612q2 88 48.5 139t129.5 51q48 0 107 -31t111.5 -61.5t84.5 -30.5q57 0 90 33t35 90h72q-1 -86 -58 -138t-139 -52q-39 0 -85 19t-81 41.5t-74 41.5t-65 19q-56 0 -80.5 -30.5t-26.5 -90.5h-69zM367 565
h608l-303 807h-4z" />
    <glyph glyph-name="Adieresis" unicode="&#xc4;" horiz-adv-x="1339" 
d="M156 0h-113l551 1462h154l548 -1462h-112l-176 477h-674zM367 565h608l-303 807h-4zM477 1595v207h98v-207h-98zM760 1595v207h100v-207h-100z" />
    <glyph glyph-name="Aring" unicode="&#xc5;" horiz-adv-x="1339" 
d="M156 0h-113l551 1462h154l548 -1462h-112l-176 477h-674zM367 565h608l-303 807h-4zM442 1792q0 92 65.5 156.5t156.5 64.5t156 -64.5t65 -156.5t-65 -156.5t-156 -64.5t-156.5 64.5t-65.5 156.5zM522 1790q0 -65 39 -104t103 -39q63 0 101 40t38 103q0 65 -38 104
t-101 39q-64 0 -103 -39t-39 -104z" />
    <glyph glyph-name="AE" unicode="&#xc6;" horiz-adv-x="1947" 
d="M43 0l868 1462h901v-88h-708v-581h665v-88h-665v-617h715v-88h-824v481h-549l-286 -481h-117zM498 569h497v805h-20z" />
    <glyph glyph-name="Ccedilla" unicode="&#xc7;" horiz-adv-x="1511" 
d="M1448 403q-48 -182 -200 -295.5t-380 -123.5l-114 -125l4 -2q53 39 116 39q75 0 121.5 -38t46.5 -110q0 -83 -68.5 -124.5t-164.5 -41.5t-182 41l24 64q71 -39 154 -39q68 0 110.5 24.5t42.5 71.5q0 42 -26.5 65t-71.5 23q-17 0 -34 -2t-28.5 -4.5t-26.5 -7.5t-20.5 -7.5
t-19 -8.5t-14.5 -7l-43 60l112 127q-163 6 -296.5 67t-221.5 161.5t-136 234t-48 284.5q0 156 50.5 292t143 237.5t233 160t310.5 58.5q242 0 399 -111t224 -305h-109q-55 153 -183 240.5t-331 87.5q-124 0 -229 -37t-177.5 -100.5t-123.5 -148.5t-74.5 -179.5t-23.5 -194.5
t23.5 -194.5t74.5 -179t123.5 -148t177.5 -100.5t229 -37q205 0 335 90.5t183 242.5h109z" />
    <glyph glyph-name="Egrave" unicode="&#xc8;" horiz-adv-x="1165" 
d="M1030 1462v-88h-760v-581h717v-88h-717v-617h766v-88h-874v1462h868zM287 1802h153l262 -207h-106z" />
    <glyph glyph-name="Eacute" unicode="&#xc9;" horiz-adv-x="1165" 
d="M1030 1462v-88h-760v-581h717v-88h-717v-617h766v-88h-874v1462h868zM475 1595l262 207h154l-309 -207h-107z" />
    <glyph glyph-name="Ecircumflex" unicode="&#xca;" horiz-adv-x="1165" 
d="M1030 1462v-88h-760v-581h717v-88h-717v-617h766v-88h-874v1462h868zM260 1577l268 231h119l268 -231h-106l-221 174l-221 -174h-107z" />
    <glyph glyph-name="Edieresis" unicode="&#xcb;" horiz-adv-x="1165" 
d="M1030 1462v-88h-760v-581h717v-88h-717v-617h766v-88h-874v1462h868zM393 1595v207h99v-207h-99zM676 1595v207h100v-207h-100z" />
    <glyph glyph-name="Igrave" unicode="&#xcc;" horiz-adv-x="432" 
d="M162 1462h108v-1462h-108v1462zM-84 1802h154l262 -207h-107z" />
    <glyph glyph-name="Iacute" unicode="&#xcd;" horiz-adv-x="432" 
d="M162 1462h108v-1462h-108v1462zM104 1595l263 207h153l-309 -207h-107z" />
    <glyph glyph-name="Icircumflex" unicode="&#xce;" horiz-adv-x="432" 
d="M162 1462h108v-1462h-108v1462zM-111 1577l269 231h118l269 -231h-107l-221 174l-221 -174h-107z" />
    <glyph glyph-name="Idieresis" unicode="&#xcf;" horiz-adv-x="432" 
d="M162 1462h108v-1462h-108v1462zM23 1595v207h98v-207h-98zM305 1595v207h101v-207h-101z" />
    <glyph glyph-name="Eth" unicode="&#xd0;" horiz-adv-x="1386" 
d="M571 1462q343 0 537.5 -189t194.5 -513q0 -157 -50 -295.5t-140 -241.5t-225.5 -163t-297.5 -60h-428v688h-152v78h152v696h409zM270 88h328q117 0 223.5 44t190 126t133 212t49.5 290q0 125 -32.5 228t-89 173.5t-134 119t-166.5 71t-188 22.5h-314v-608h381v-78h-381
v-600z" />
    <glyph glyph-name="Ntilde" unicode="&#xd1;" horiz-adv-x="1415" 
d="M162 1462h121l723 -1083q17 -26 66 -103.5t75 -115.5q0 40 -1 127t-1 127v1048h108v-1462h-123l-702 1057q-23 34 -77 118t-83 125q0 -46 1 -144t1 -144v-1012h-108v1462zM369 1612q2 88 48.5 139t129.5 51q48 0 107 -31t111.5 -61.5t84.5 -30.5q57 0 90 33t35 90h72
q-1 -86 -58 -138t-139 -52q-39 0 -85 19t-81 41.5t-74 41.5t-65 19q-56 0 -80.5 -30.5t-26.5 -90.5h-69z" />
    <glyph glyph-name="Ograve" unicode="&#xd2;" horiz-adv-x="1650" 
d="M823 1485q170 0 311.5 -60t234.5 -163t144.5 -240.5t51.5 -292.5t-51 -292t-144.5 -239t-235 -161.5t-311.5 -59.5q-169 0 -310 59.5t-234 161.5t-144 239t-51 292t51 292.5t144 240.5t234 163t310 60zM193 729q0 -100 24 -194.5t75 -180t124 -149.5t178 -101.5
t229 -37.5q126 0 231.5 37.5t179 101.5t125 149.5t75.5 180t24 194.5t-24 194.5t-75.5 180.5t-125 150.5t-179 102.5t-231.5 38q-124 0 -229 -38t-178 -102.5t-124 -150.5t-75 -180.5t-24 -194.5zM524 1802h154l262 -207h-106z" />
    <glyph glyph-name="Oacute" unicode="&#xd3;" horiz-adv-x="1650" 
d="M823 1485q170 0 311.5 -60t234.5 -163t144.5 -240.5t51.5 -292.5t-51 -292t-144.5 -239t-235 -161.5t-311.5 -59.5q-169 0 -310 59.5t-234 161.5t-144 239t-51 292t51 292.5t144 240.5t234 163t310 60zM193 729q0 -100 24 -194.5t75 -180t124 -149.5t178 -101.5
t229 -37.5q126 0 231.5 37.5t179 101.5t125 149.5t75.5 180t24 194.5t-24 194.5t-75.5 180.5t-125 150.5t-179 102.5t-231.5 38q-124 0 -229 -38t-178 -102.5t-124 -150.5t-75 -180.5t-24 -194.5zM713 1595l262 207h153l-309 -207h-106z" />
    <glyph glyph-name="Ocircumflex" unicode="&#xd4;" horiz-adv-x="1650" 
d="M823 1485q170 0 311.5 -60t234.5 -163t144.5 -240.5t51.5 -292.5t-51 -292t-144.5 -239t-235 -161.5t-311.5 -59.5q-169 0 -310 59.5t-234 161.5t-144 239t-51 292t51 292.5t144 240.5t234 163t310 60zM193 729q0 -100 24 -194.5t75 -180t124 -149.5t178 -101.5
t229 -37.5q126 0 231.5 37.5t179 101.5t125 149.5t75.5 180t24 194.5t-24 194.5t-75.5 180.5t-125 150.5t-179 102.5t-231.5 38q-124 0 -229 -38t-178 -102.5t-124 -150.5t-75 -180.5t-24 -194.5zM498 1577l268 231h119l268 -231h-106l-222 174l-221 -174h-106z" />
    <glyph glyph-name="Otilde" unicode="&#xd5;" horiz-adv-x="1650" 
d="M823 1485q170 0 311.5 -60t234.5 -163t144.5 -240.5t51.5 -292.5t-51 -292t-144.5 -239t-235 -161.5t-311.5 -59.5q-169 0 -310 59.5t-234 161.5t-144 239t-51 292t51 292.5t144 240.5t234 163t310 60zM193 729q0 -100 24 -194.5t75 -180t124 -149.5t178 -101.5
t229 -37.5q126 0 231.5 37.5t179 101.5t125 149.5t75.5 180t24 194.5t-24 194.5t-75.5 180.5t-125 150.5t-179 102.5t-231.5 38q-124 0 -229 -38t-178 -102.5t-124 -150.5t-75 -180.5t-24 -194.5zM485 1612q2 88 49 139t130 51q48 0 107 -31t111.5 -61.5t84.5 -30.5
q57 0 90 33t35 90h71q-1 -86 -57.5 -138t-138.5 -52q-39 0 -85 19t-81 41.5t-74 41.5t-65 19q-56 0 -80.5 -30.5t-26.5 -90.5h-70z" />
    <glyph glyph-name="Odieresis" unicode="&#xd6;" horiz-adv-x="1650" 
d="M823 1485q170 0 311.5 -60t234.5 -163t144.5 -240.5t51.5 -292.5t-51 -292t-144.5 -239t-235 -161.5t-311.5 -59.5q-169 0 -310 59.5t-234 161.5t-144 239t-51 292t51 292.5t144 240.5t234 163t310 60zM193 729q0 -100 24 -194.5t75 -180t124 -149.5t178 -101.5
t229 -37.5q126 0 231.5 37.5t179 101.5t125 149.5t75.5 180t24 194.5t-24 194.5t-75.5 180.5t-125 150.5t-179 102.5t-231.5 38q-124 0 -229 -38t-178 -102.5t-124 -150.5t-75 -180.5t-24 -194.5zM631 1595v207h98v-207h-98zM913 1595v207h101v-207h-101z" />
    <glyph glyph-name="multiply" unicode="&#xd7;" horiz-adv-x="1179" 
d="M154 897l61 61l375 -374l377 374l61 -61l-377 -375l377 -377l-61 -61l-377 377l-375 -377l-61 61l374 377z" />
    <glyph glyph-name="Oslash" unicode="&#xd8;" horiz-adv-x="1650" 
d="M823 1485q162 0 296.5 -53.5t230.5 -151.5l174 162l59 -58l-178 -165q160 -202 160 -490q0 -155 -51 -292t-144.5 -239t-235 -161.5t-311.5 -59.5q-327 0 -532 211l-170 -157l-53 59l170 158q-154 202 -154 481q0 155 51 292.5t144 240.5t234 163t310 60zM193 729
q0 -236 120 -410l965 893q-171 183 -455 183q-124 0 -229 -38t-178 -102.5t-124 -150.5t-75 -180.5t-24 -194.5zM365 256q172 -190 458 -190q126 0 231.5 37.5t179 101.5t125 149.5t75.5 180t24 194.5q0 238 -129 420z" />
    <glyph glyph-name="Ugrave" unicode="&#xd9;" horiz-adv-x="1343" 
d="M1190 518q0 -117 -31.5 -214t-93.5 -170t-162.5 -113.5t-230.5 -40.5t-230 40.5t-162.5 113.5t-94 170t-31.5 214v944h108v-944q0 -199 106 -324.5t304 -125.5q199 0 305 125t106 325v944h107v-944zM377 1802h153l263 -207h-107z" />
    <glyph glyph-name="Uacute" unicode="&#xda;" horiz-adv-x="1343" 
d="M1190 518q0 -117 -31.5 -214t-93.5 -170t-162.5 -113.5t-230.5 -40.5t-230 40.5t-162.5 113.5t-94 170t-31.5 214v944h108v-944q0 -199 106 -324.5t304 -125.5q199 0 305 125t106 325v944h107v-944zM565 1595l262 207h154l-309 -207h-107z" />
    <glyph glyph-name="Ucircumflex" unicode="&#xdb;" horiz-adv-x="1343" 
d="M1190 518q0 -117 -31.5 -214t-93.5 -170t-162.5 -113.5t-230.5 -40.5t-230 40.5t-162.5 113.5t-94 170t-31.5 214v944h108v-944q0 -199 106 -324.5t304 -125.5q199 0 305 125t106 325v944h107v-944zM350 1577l268 231h119l269 -231h-107l-221 174l-221 -174h-107z" />
    <glyph glyph-name="Udieresis" unicode="&#xdc;" horiz-adv-x="1343" 
d="M1190 518q0 -117 -31.5 -214t-93.5 -170t-162.5 -113.5t-230.5 -40.5t-230 40.5t-162.5 113.5t-94 170t-31.5 214v944h108v-944q0 -199 106 -324.5t304 -125.5q199 0 305 125t106 325v944h107v-944zM483 1595v207h99v-207h-99zM766 1595v207h100v-207h-100z" />
    <glyph glyph-name="Yacute" unicode="&#xdd;" horiz-adv-x="1175" 
d="M156 1462q36 -63 192 -338.5t238 -423.5h4q70 127 214.5 381t215.5 381h121l-500 -870v-592h-106v592l-498 870h119zM473 1595l262 207h154l-309 -207h-107z" />
    <glyph glyph-name="Thorn" unicode="&#xde;" horiz-adv-x="1138" 
d="M598 1176q202 0 330.5 -105.5t128.5 -294.5q0 -199 -130 -310.5t-343 -109.5h-314v-356h-108v1462h108v-286h328zM270 444h293q385 0 385 332q0 147 -93.5 228t-276.5 81h-308v-641z" />
    <glyph glyph-name="germandbls" unicode="&#xdf;" horiz-adv-x="1044" 
d="M127 1067q0 102 30.5 182.5t84 131.5t123.5 77.5t151 26.5q105 0 192 -39.5t141 -121t54 -191.5q0 -131 -76.5 -216t-187.5 -120q162 -29 251 -131.5t89 -259.5q0 -193 -117 -307.5t-334 -114.5q-100 0 -178 20v88q86 -24 176 -24q172 0 262.5 92.5t90.5 247.5
q0 89 -30 155.5t-82 104.5t-114.5 56.5t-136.5 18.5h-63v88q69 3 130 22.5t110.5 54.5t78.5 92t29 128q0 129 -78.5 201t-204.5 72q-131 0 -210 -85t-79 -255v-1061h-102v1067z" />
    <glyph glyph-name="agrave" unicode="&#xe0;" horiz-adv-x="1087" 
d="M150 745q12 61 43 117t79.5 104t122 76.5t160.5 28.5q88 0 157 -19t113 -50.5t73 -75t40.5 -89.5t11.5 -98l2 -520q0 -108 19 -219h-109q-10 59 -10 168v55h-2q-111 -237 -385 -237q-181 0 -281 86.5t-100 214.5q0 73 35 129.5t100 93t139 59t170 37.5q85 13 135.5 24.5
t98.5 29.5t69 44t21 62q0 111 -81 166t-214 55q-116 0 -195 -62.5t-110 -179.5h-102zM186 287q0 -93 76 -156t209 -63q164 0 274.5 112.5t110.5 306.5v170q-24 -49 -109 -80.5t-239 -56.5q-152 -23 -237 -81t-85 -152zM319 1468h127l199 -268h-76z" />
    <glyph glyph-name="aacute" unicode="&#xe1;" horiz-adv-x="1087" 
d="M150 745q12 61 43 117t79.5 104t122 76.5t160.5 28.5q88 0 157 -19t113 -50.5t73 -75t40.5 -89.5t11.5 -98l2 -520q0 -108 19 -219h-109q-10 59 -10 168v55h-2q-111 -237 -385 -237q-181 0 -281 86.5t-100 214.5q0 73 35 129.5t100 93t139 59t170 37.5q85 13 135.5 24.5
t98.5 29.5t69 44t21 62q0 111 -81 166t-214 55q-116 0 -195 -62.5t-110 -179.5h-102zM186 287q0 -93 76 -156t209 -63q164 0 274.5 112.5t110.5 306.5v170q-24 -49 -109 -80.5t-239 -56.5q-152 -23 -237 -81t-85 -152zM494 1200l198 268h127l-250 -268h-75z" />
    <glyph glyph-name="acircumflex" unicode="&#xe2;" horiz-adv-x="1087" 
d="M150 745q12 61 43 117t79.5 104t122 76.5t160.5 28.5q88 0 157 -19t113 -50.5t73 -75t40.5 -89.5t11.5 -98l2 -520q0 -108 19 -219h-109q-10 59 -10 168v55h-2q-111 -237 -385 -237q-181 0 -281 86.5t-100 214.5q0 73 35 129.5t100 93t139 59t170 37.5q85 13 135.5 24.5
t98.5 29.5t69 44t21 62q0 111 -81 166t-214 55q-116 0 -195 -62.5t-110 -179.5h-102zM186 287q0 -93 76 -156t209 -63q164 0 274.5 112.5t110.5 306.5v170q-24 -49 -109 -80.5t-239 -56.5q-152 -23 -237 -81t-85 -152zM283 1200l221 268h108l222 -268h-89l-188 209
l-186 -209h-88z" />
    <glyph glyph-name="atilde" unicode="&#xe3;" horiz-adv-x="1087" 
d="M150 745q12 61 43 117t79.5 104t122 76.5t160.5 28.5q88 0 157 -19t113 -50.5t73 -75t40.5 -89.5t11.5 -98l2 -520q0 -108 19 -219h-109q-10 59 -10 168v55h-2q-111 -237 -385 -237q-181 0 -281 86.5t-100 214.5q0 73 35 129.5t100 93t139 59t170 37.5q85 13 135.5 24.5
t98.5 29.5t69 44t21 62q0 111 -81 166t-214 55q-116 0 -195 -62.5t-110 -179.5h-102zM186 287q0 -93 76 -156t209 -63q164 0 274.5 112.5t110.5 306.5v170q-24 -49 -109 -80.5t-239 -56.5q-152 -23 -237 -81t-85 -152zM217 1280q0 88 47.5 138t130.5 50q38 0 83.5 -19
t80.5 -42t74 -42t65 -19q56 0 90 32.5t35 89.5h72q-1 -86 -58 -138t-139 -52q-39 0 -85 19t-81.5 41.5t-74 41.5t-64.5 19q-56 0 -80 -30t-26 -89h-70z" />
    <glyph glyph-name="adieresis" unicode="&#xe4;" horiz-adv-x="1087" 
d="M150 745q12 61 43 117t79.5 104t122 76.5t160.5 28.5q88 0 157 -19t113 -50.5t73 -75t40.5 -89.5t11.5 -98l2 -520q0 -108 19 -219h-109q-10 59 -10 168v55h-2q-111 -237 -385 -237q-181 0 -281 86.5t-100 214.5q0 73 35 129.5t100 93t139 59t170 37.5q85 13 135.5 24.5
t98.5 29.5t69 44t21 62q0 111 -81 166t-214 55q-116 0 -195 -62.5t-110 -179.5h-102zM186 287q0 -93 76 -156t209 -63q164 0 274.5 112.5t110.5 306.5v170q-24 -49 -109 -80.5t-239 -56.5q-152 -23 -237 -81t-85 -152zM377 1284v184h94v-184h-94zM635 1284v184h94v-184h-94z
" />
    <glyph glyph-name="aring" unicode="&#xe5;" horiz-adv-x="1087" 
d="M150 745q12 61 43 117t79.5 104t122 76.5t160.5 28.5q88 0 157 -19t113 -50.5t73 -75t40.5 -89.5t11.5 -98l2 -520q0 -108 19 -219h-109q-10 59 -10 168v55h-2q-111 -237 -385 -237q-181 0 -281 86.5t-100 214.5q0 73 35 129.5t100 93t139 59t170 37.5q85 13 135.5 24.5
t98.5 29.5t69 44t21 62q0 111 -81 166t-214 55q-116 0 -195 -62.5t-110 -179.5h-102zM186 287q0 -93 76 -156t209 -63q164 0 274.5 112.5t110.5 306.5v170q-24 -49 -109 -80.5t-239 -56.5q-152 -23 -237 -81t-85 -152zM332 1360q0 92 65 156.5t156 64.5t156 -64.5t65 -156.5
t-65 -156.5t-156 -64.5t-156 64.5t-65 156.5zM412 1358q0 -64 39.5 -105t101.5 -41t101.5 41t39.5 105q0 63 -39 104t-102 41t-102 -41t-39 -104z" />
    <glyph glyph-name="ae" unicode="&#xe6;" horiz-adv-x="1814" 
d="M84 287q0 59 24 107t63.5 81.5t97.5 60t120 42.5t137 28q83 13 135 24.5t98.5 30t67.5 44t21 61.5q0 113 -81 167t-216 54q-115 0 -192.5 -62.5t-108.5 -179.5h-100q12 59 42.5 114.5t78 104t120.5 78t160 29.5q165 0 257 -66t116 -169q105 235 360 235
q116 0 200.5 -37.5t135.5 -107.5t77.5 -159t33.5 -204q4 -46 4 -65h-787q5 -193 90.5 -308.5t251.5 -115.5q123 0 207 62.5t127 174.5h105q-50 -150 -159.5 -236.5t-279.5 -86.5q-306 0 -391 284q-18 -53 -51.5 -100.5t-85 -91t-128.5 -69t-169 -25.5q-182 0 -281.5 86
t-99.5 215zM186 287q0 -94 74.5 -156.5t208.5 -62.5q172 0 276.5 111t104.5 308v166q-26 -47 -110.5 -77.5t-233.5 -53.5q-151 -24 -235.5 -83t-84.5 -152zM950 580h682q-20 208 -99.5 307.5t-248.5 99.5q-161 0 -244.5 -110t-89.5 -297z" />
    <glyph glyph-name="ccedilla" unicode="&#xe7;" horiz-adv-x="1116" 
d="M1032 295q-39 -138 -148.5 -219.5t-271.5 -87.5l-120 -129l4 -2q53 39 116 39q75 0 121.5 -38t46.5 -110q0 -83 -68.5 -124.5t-164.5 -41.5t-182 41l24 64q71 -39 154 -39q68 0 110.5 24.5t42.5 71.5q0 42 -26.5 65t-71.5 23q-17 0 -34 -2t-28.5 -4.5t-26.5 -7.5
t-20.5 -7.5t-19 -8.5t-14.5 -7l-43 60l120 135q-214 20 -337 172t-123 364q0 110 35 208t98.5 173.5t162 119.5t218.5 44q169 0 284 -81t154 -218h-106q-34 101 -121.5 158t-212.5 57q-182 0 -296 -131.5t-114 -329.5q0 -194 114 -323t296 -129q126 0 215.5 58t124.5 163
h108z" />
    <glyph glyph-name="egrave" unicode="&#xe8;" horiz-adv-x="1120" 
d="M1032 311q-47 -147 -166.5 -235t-292.5 -88q-156 0 -271.5 75t-172.5 196t-57 269q0 109 34 207t95.5 173t156.5 119t209 44q115 0 203.5 -39.5t143.5 -110t85 -160t37 -198.5q2 -23 2 -65h-866q6 -185 117 -304.5t284 -119.5q126 0 219.5 63.5t135.5 173.5h104zM174 580
h764q-40 407 -371 407q-167 0 -274.5 -114t-118.5 -293zM330 1462h127l198 -268h-75z" />
    <glyph glyph-name="eacute" unicode="&#xe9;" horiz-adv-x="1120" 
d="M1032 311q-47 -147 -166.5 -235t-292.5 -88q-156 0 -271.5 75t-172.5 196t-57 269q0 109 34 207t95.5 173t156.5 119t209 44q115 0 203.5 -39.5t143.5 -110t85 -160t37 -198.5q2 -23 2 -65h-866q6 -185 117 -304.5t284 -119.5q126 0 219.5 63.5t135.5 173.5h104zM174 580
h764q-40 407 -371 407q-167 0 -274.5 -114t-118.5 -293zM502 1194l198 268h127l-249 -268h-76z" />
    <glyph glyph-name="ecircumflex" unicode="&#xea;" horiz-adv-x="1120" 
d="M1032 311q-47 -147 -166.5 -235t-292.5 -88q-156 0 -271.5 75t-172.5 196t-57 269q0 109 34 207t95.5 173t156.5 119t209 44q115 0 203.5 -39.5t143.5 -110t85 -160t37 -198.5q2 -23 2 -65h-866q6 -185 117 -304.5t284 -119.5q126 0 219.5 63.5t135.5 173.5h104zM174 580
h764q-40 407 -371 407q-167 0 -274.5 -114t-118.5 -293zM291 1194l221 268h109l221 -268h-88l-189 209l-186 -209h-88z" />
    <glyph glyph-name="edieresis" unicode="&#xeb;" horiz-adv-x="1120" 
d="M1032 311q-47 -147 -166.5 -235t-292.5 -88q-156 0 -271.5 75t-172.5 196t-57 269q0 109 34 207t95.5 173t156.5 119t209 44q115 0 203.5 -39.5t143.5 -110t85 -160t37 -198.5q2 -23 2 -65h-866q6 -185 117 -304.5t284 -119.5q126 0 219.5 63.5t135.5 173.5h104zM174 580
h764q-40 407 -371 407q-167 0 -274.5 -114t-118.5 -293zM387 1278v184h94v-184h-94zM645 1278v184h94v-184h-94z" />
    <glyph glyph-name="igrave" unicode="&#xec;" horiz-adv-x="376" 
d="M137 0v1059h103v-1059h-103zM-47 1462h127l199 -268h-76z" />
    <glyph glyph-name="iacute" unicode="&#xed;" horiz-adv-x="376" 
d="M137 0v1059h103v-1059h-103zM127 1194l199 268h127l-250 -268h-76z" />
    <glyph glyph-name="icircumflex" unicode="&#xee;" horiz-adv-x="376" 
d="M137 0v1059h103v-1059h-103zM-84 1194l221 268h109l221 -268h-88l-189 209l-186 -209h-88z" />
    <glyph glyph-name="idieresis" unicode="&#xef;" horiz-adv-x="376" 
d="M137 0v1059h103v-1059h-103zM10 1278v184h94v-184h-94zM268 1278v184h94v-184h-94z" />
    <glyph glyph-name="eth" unicode="&#xf0;" horiz-adv-x="1171" 
d="M334 1270l241 116q-72 55 -180 119l94 51q115 -80 175 -129l251 121l31 -63l-221 -107q84 -74 147.5 -152.5t117.5 -180.5t82 -231.5t28 -281.5q0 -87 -21.5 -167.5t-65 -149t-104 -119t-143.5 -79.5t-180 -29q-160 0 -279 76.5t-177 198.5t-58 269q0 107 34 203.5
t96.5 171.5t159.5 119.5t216 44.5q222 0 358 -149q-81 230 -299 415l-272 -131zM176 532q0 -199 114.5 -327.5t295.5 -128.5t295 128.5t114 327.5q0 195 -113 325t-298 130q-183 0 -295.5 -128.5t-112.5 -326.5z" />
    <glyph glyph-name="ntilde" unicode="&#xf1;" horiz-adv-x="1091" 
d="M137 0v1059h103v-203q98 215 340 215q83 0 149.5 -21.5t120.5 -67t83.5 -126.5t29.5 -192v-664h-103v659q0 175 -78 251.5t-209 76.5q-64 0 -120 -21t-105.5 -67.5t-78.5 -134t-29 -207.5v-557h-103zM197 1274q0 88 47.5 138t130.5 50q48 0 107 -31t111.5 -61.5
t84.5 -30.5q56 0 90 33t35 90h71q-1 -86 -57.5 -138t-138.5 -52q-39 0 -85 19t-81.5 41.5t-74 41.5t-64.5 19q-56 0 -80.5 -30t-26.5 -89h-69z" />
    <glyph glyph-name="ograve" unicode="&#xf2;" horiz-adv-x="1167" 
d="M584 -12q-119 0 -217 43.5t-162 118t-98.5 171.5t-34.5 205q0 109 34.5 207t98.5 173.5t162 120t217 44.5q117 0 215 -44.5t162 -120t99.5 -173.5t35.5 -207q0 -108 -35.5 -205t-99.5 -171.5t-162 -118t-215 -43.5zM174 526q0 -192 114.5 -322t295.5 -130
q180 0 294.5 130t114.5 322q0 197 -114.5 329t-294.5 132q-120 0 -214.5 -61.5t-145 -166t-50.5 -233.5zM346 1462h127l199 -268h-76z" />
    <glyph glyph-name="oacute" unicode="&#xf3;" horiz-adv-x="1167" 
d="M584 -12q-119 0 -217 43.5t-162 118t-98.5 171.5t-34.5 205q0 109 34.5 207t98.5 173.5t162 120t217 44.5q117 0 215 -44.5t162 -120t99.5 -173.5t35.5 -207q0 -108 -35.5 -205t-99.5 -171.5t-162 -118t-215 -43.5zM174 526q0 -192 114.5 -322t295.5 -130
q180 0 294.5 130t114.5 322q0 197 -114.5 329t-294.5 132q-120 0 -214.5 -61.5t-145 -166t-50.5 -233.5zM520 1194l199 268h127l-250 -268h-76z" />
    <glyph glyph-name="ocircumflex" unicode="&#xf4;" horiz-adv-x="1167" 
d="M584 -12q-119 0 -217 43.5t-162 118t-98.5 171.5t-34.5 205q0 109 34.5 207t98.5 173.5t162 120t217 44.5q117 0 215 -44.5t162 -120t99.5 -173.5t35.5 -207q0 -108 -35.5 -205t-99.5 -171.5t-162 -118t-215 -43.5zM174 526q0 -192 114.5 -322t295.5 -130
q180 0 294.5 130t114.5 322q0 197 -114.5 329t-294.5 132q-120 0 -214.5 -61.5t-145 -166t-50.5 -233.5zM309 1194l221 268h109l221 -268h-88l-188 209l-187 -209h-88z" />
    <glyph glyph-name="otilde" unicode="&#xf5;" horiz-adv-x="1167" 
d="M584 -12q-119 0 -217 43.5t-162 118t-98.5 171.5t-34.5 205q0 109 34.5 207t98.5 173.5t162 120t217 44.5q117 0 215 -44.5t162 -120t99.5 -173.5t35.5 -207q0 -108 -35.5 -205t-99.5 -171.5t-162 -118t-215 -43.5zM174 526q0 -192 114.5 -322t295.5 -130
q180 0 294.5 130t114.5 322q0 197 -114.5 329t-294.5 132q-120 0 -214.5 -61.5t-145 -166t-50.5 -233.5zM244 1274q0 88 47.5 138t130.5 50q48 0 107 -31t111.5 -61.5t84.5 -30.5q56 0 90 33t35 90h72q-1 -86 -58 -138t-139 -52q-39 0 -85 19t-81.5 41.5t-74 41.5t-64.5 19
q-56 0 -80.5 -30t-26.5 -89h-69z" />
    <glyph glyph-name="odieresis" unicode="&#xf6;" horiz-adv-x="1167" 
d="M584 -12q-119 0 -217 43.5t-162 118t-98.5 171.5t-34.5 205q0 109 34.5 207t98.5 173.5t162 120t217 44.5q117 0 215 -44.5t162 -120t99.5 -173.5t35.5 -207q0 -108 -35.5 -205t-99.5 -171.5t-162 -118t-215 -43.5zM174 526q0 -192 114.5 -322t295.5 -130
q180 0 294.5 130t114.5 322q0 197 -114.5 329t-294.5 132q-120 0 -214.5 -61.5t-145 -166t-50.5 -233.5zM406 1278v184h94v-184h-94zM664 1278v184h94v-184h-94z" />
    <glyph glyph-name="divide" unicode="&#xf7;" horiz-adv-x="1230" 
d="M532 170q0 34 24 59t58 25t58 -25t24 -59q0 -33 -24.5 -57.5t-57.5 -24.5q-34 0 -58 24t-24 58zM121 483v82h989v-82h-989zM532 879q0 34 24 58t58 24t58 -24t24 -58q0 -33 -24.5 -58.5t-57.5 -25.5q-34 0 -58 25t-24 59z" />
    <glyph glyph-name="oslash" unicode="&#xf8;" horiz-adv-x="1167" 
d="M584 -12q-194 0 -324 108l-102 -114l-64 51l107 121q-129 150 -129 372q0 109 34.5 207t98.5 173.5t162 120t217 44.5q193 0 327 -115l113 127l57 -57l-112 -129q127 -152 127 -371q0 -108 -35.5 -205t-99.5 -171.5t-162 -118t-215 -43.5zM174 526q0 -177 94 -297
l580 656q-105 102 -264 102q-120 0 -214.5 -61.5t-145 -166t-50.5 -233.5zM324 168q108 -94 260 -94q180 0 294.5 130t114.5 322q0 173 -90 299z" />
    <glyph glyph-name="ugrave" unicode="&#xf9;" horiz-adv-x="1091" 
d="M129 395v664h102v-660q0 -327 287 -327q51 0 96.5 12.5t90 43.5t76.5 78t51.5 123t19.5 173v557h102v-1059h-102v211q-100 -223 -340 -223q-83 0 -149.5 21.5t-120.5 67t-83.5 126.5t-29.5 192zM305 1462h127l199 -268h-76z" />
    <glyph glyph-name="uacute" unicode="&#xfa;" horiz-adv-x="1091" 
d="M129 395v664h102v-660q0 -327 287 -327q51 0 96.5 12.5t90 43.5t76.5 78t51.5 123t19.5 173v557h102v-1059h-102v211q-100 -223 -340 -223q-83 0 -149.5 21.5t-120.5 67t-83.5 126.5t-29.5 192zM479 1194l199 268h127l-250 -268h-76z" />
    <glyph glyph-name="ucircumflex" unicode="&#xfb;" horiz-adv-x="1091" 
d="M129 395v664h102v-660q0 -327 287 -327q51 0 96.5 12.5t90 43.5t76.5 78t51.5 123t19.5 173v557h102v-1059h-102v211q-100 -223 -340 -223q-83 0 -149.5 21.5t-120.5 67t-83.5 126.5t-29.5 192zM268 1194l221 268h109l221 -268h-88l-188 209l-187 -209h-88z" />
    <glyph glyph-name="udieresis" unicode="&#xfc;" horiz-adv-x="1091" 
d="M129 395v664h102v-660q0 -327 287 -327q51 0 96.5 12.5t90 43.5t76.5 78t51.5 123t19.5 173v557h102v-1059h-102v211q-100 -223 -340 -223q-83 0 -149.5 21.5t-120.5 67t-83.5 126.5t-29.5 192zM365 1278v184h94v-184h-94zM623 1278v184h94v-184h-94z" />
    <glyph glyph-name="yacute" unicode="&#xfd;" horiz-adv-x="999" 
d="M127 1059q43 -107 179 -445.5t210 -523.5h2q59 161 177 484.5t177 484.5h105q-118 -319 -477 -1274q-36 -99 -87 -147t-151 -48h-84v84h82q23 0 42.5 5.5t35 18.5t26 24.5t21 33t16 34t14.5 37.5t13 34l37 102l-442 1096h104zM428 1194l199 268h127l-250 -268h-76z" />
    <glyph glyph-name="thorn" unicode="&#xfe;" horiz-adv-x="1175" 
d="M240 -410h-103v1872h103v-622h2q51 102 146 166.5t237 64.5q154 0 264.5 -76t162.5 -197t52 -270q0 -88 -19 -168t-58 -148t-95 -118t-135 -78t-172 -28q-268 0 -383 235h-2v-633zM231 528q0 -65 13 -128t43 -122.5t73.5 -104.5t109.5 -72t146 -27q121 0 209 60.5
t132 162.5t44 231q0 131 -44 234t-132 164t-209 61q-180 0 -282.5 -130t-102.5 -329z" />
    <glyph glyph-name="ydieresis" unicode="&#xff;" horiz-adv-x="999" 
d="M127 1059q43 -107 179 -445.5t210 -523.5h2q59 161 177 484.5t177 484.5h105q-118 -319 -477 -1274q-36 -99 -87 -147t-151 -48h-84v84h82q23 0 42.5 5.5t35 18.5t26 24.5t21 33t16 34t14.5 37.5t13 34l37 102l-442 1096h104zM313 1278v184h95v-184h-95zM571 1278v184h95
v-184h-95z" />
    <glyph glyph-name="Amacron" unicode="&#x100;" horiz-adv-x="1339" 
d="M156 0h-113l551 1462h154l548 -1462h-112l-176 477h-674zM367 565h608l-303 807h-4zM379 1638v64h579v-64h-579z" />
    <glyph glyph-name="amacron" unicode="&#x101;" horiz-adv-x="1087" 
d="M150 745q12 61 43 117t79.5 104t122 76.5t160.5 28.5q88 0 157 -19t113 -50.5t73 -75t40.5 -89.5t11.5 -98l2 -520q0 -108 19 -219h-109q-10 59 -10 168v55h-2q-111 -237 -385 -237q-181 0 -281 86.5t-100 214.5q0 73 35 129.5t100 93t139 59t170 37.5q85 13 135.5 24.5
t98.5 29.5t69 44t21 62q0 111 -81 166t-214 55q-116 0 -195 -62.5t-110 -179.5h-102zM186 287q0 -93 76 -156t209 -63q164 0 274.5 112.5t110.5 306.5v170q-24 -49 -109 -80.5t-239 -56.5q-152 -23 -237 -81t-85 -152zM217 1260v61h676v-61h-676z" />
    <glyph glyph-name="Abreve" unicode="&#x102;" horiz-adv-x="1339" 
d="M156 0h-113l551 1462h154l548 -1462h-112l-176 477h-674zM367 565h608l-303 807h-4zM385 1802h78q5 -65 61.5 -122.5t147.5 -57.5q90 0 146 58t59 122h79q-11 -101 -89 -173.5t-195 -72.5q-118 0 -197 72.5t-90 173.5z" />
    <glyph glyph-name="abreve" unicode="&#x103;" horiz-adv-x="1087" 
d="M150 745q12 61 43 117t79.5 104t122 76.5t160.5 28.5q88 0 157 -19t113 -50.5t73 -75t40.5 -89.5t11.5 -98l2 -520q0 -108 19 -219h-109q-10 59 -10 168v55h-2q-111 -237 -385 -237q-181 0 -281 86.5t-100 214.5q0 73 35 129.5t100 93t139 59t170 37.5q85 13 135.5 24.5
t98.5 29.5t69 44t21 62q0 111 -81 166t-214 55q-116 0 -195 -62.5t-110 -179.5h-102zM186 287q0 -93 76 -156t209 -63q164 0 274.5 112.5t110.5 306.5v170q-24 -49 -109 -80.5t-239 -56.5q-152 -23 -237 -81t-85 -152zM272 1468h78q5 -86 58.5 -145t150.5 -59q96 0 149 59
t56 145h80q-8 -122 -84.5 -196t-200.5 -74q-125 0 -202 73.5t-85 196.5z" />
    <glyph glyph-name="Aogonek" unicode="&#x104;" horiz-adv-x="1339" 
d="M156 0h-113l551 1462h154l548 -1462q-93 -65 -133.5 -112t-40.5 -111q2 -54 42 -86.5t114 -32.5v-59q-98 0 -168 44.5t-70 129.5q-1 69 34 118.5t110 108.5l-176 477h-674zM367 565h608l-303 807h-4z" />
    <glyph glyph-name="aogonek" unicode="&#x105;" horiz-adv-x="1075" 
d="M150 745q12 61 43 117t79.5 104t122 76.5t160.5 28.5q88 0 157 -19t113 -50.5t73 -75t40.5 -89.5t11.5 -98l2 -520q0 -108 19 -219h-4q-94 -63 -133.5 -110.5t-40.5 -112.5q-2 -54 41.5 -87.5t123.5 -33.5v-57q-102 0 -172.5 44.5t-70.5 129.5q-1 69 34.5 119t110.5 108
h2q-10 59 -10 168v55h-2q-111 -237 -385 -237q-181 0 -281 86.5t-100 214.5q0 73 35 129.5t100 93t139 59t170 37.5q85 13 135.5 24.5t98.5 29.5t69 44t21 62q0 111 -81 166t-214 55q-116 0 -195 -62.5t-110 -179.5h-102zM186 287q0 -93 76 -156t209 -63q164 0 274.5 112.5
t110.5 306.5v170q-24 -49 -109 -80.5t-239 -56.5q-152 -23 -237 -81t-85 -152z" />
    <glyph glyph-name="Cacute" unicode="&#x106;" horiz-adv-x="1548" 
d="M1448 403q-53 -192 -216.5 -306.5t-410.5 -114.5q-170 0 -310.5 58.5t-233 160t-143 237t-50.5 291.5t50.5 292t143 237.5t233 160t310.5 58.5q242 0 399 -111t224 -305h-109q-55 153 -183 240.5t-331 87.5q-124 0 -229 -37t-177.5 -100.5t-123.5 -148.5t-74.5 -179.5
t-23.5 -194.5t23.5 -194.5t74.5 -179t123.5 -148t177.5 -100.5t229 -37q205 0 335 90.5t183 242.5h109zM711 1595l262 207h153l-309 -207h-106z" />
    <glyph glyph-name="cacute" unicode="&#x107;" horiz-adv-x="1116" 
d="M1032 295q-40 -143 -157 -225t-289 -82q-159 0 -277.5 75t-177.5 195.5t-59 267.5q0 110 35 208t98.5 173.5t162 119.5t218.5 44q169 0 284 -81t154 -218h-106q-34 101 -121.5 158t-212.5 57q-182 0 -296 -131.5t-114 -329.5q0 -194 114 -323t296 -129q126 0 215.5 58
t124.5 163h108zM524 1194l199 268h127l-250 -268h-76z" />
    <glyph glyph-name="Ccircumflex" unicode="&#x108;" horiz-adv-x="1548" 
d="M1448 403q-53 -192 -216.5 -306.5t-410.5 -114.5q-170 0 -310.5 58.5t-233 160t-143 237t-50.5 291.5t50.5 292t143 237.5t233 160t310.5 58.5q242 0 399 -111t224 -305h-109q-55 153 -183 240.5t-331 87.5q-124 0 -229 -37t-177.5 -100.5t-123.5 -148.5t-74.5 -179.5
t-23.5 -194.5t23.5 -194.5t74.5 -179t123.5 -148t177.5 -100.5t229 -37q205 0 335 90.5t183 242.5h109zM496 1577l268 231h119l268 -231h-107l-221 174l-221 -174h-106z" />
    <glyph glyph-name="ccircumflex" unicode="&#x109;" horiz-adv-x="1116" 
d="M1032 295q-40 -143 -157 -225t-289 -82q-159 0 -277.5 75t-177.5 195.5t-59 267.5q0 110 35 208t98.5 173.5t162 119.5t218.5 44q169 0 284 -81t154 -218h-106q-34 101 -121.5 158t-212.5 57q-182 0 -296 -131.5t-114 -329.5q0 -194 114 -323t296 -129q126 0 215.5 58
t124.5 163h108zM313 1194l222 268h108l221 -268h-88l-188 209l-187 -209h-88z" />
    <glyph glyph-name="Cdotaccent" unicode="&#x10a;" horiz-adv-x="1548" 
d="M1448 403q-53 -192 -216.5 -306.5t-410.5 -114.5q-170 0 -310.5 58.5t-233 160t-143 237t-50.5 291.5t50.5 292t143 237.5t233 160t310.5 58.5q242 0 399 -111t224 -305h-109q-55 153 -183 240.5t-331 87.5q-124 0 -229 -37t-177.5 -100.5t-123.5 -148.5t-74.5 -179.5
t-23.5 -194.5t23.5 -194.5t74.5 -179t123.5 -148t177.5 -100.5t229 -37q205 0 335 90.5t183 242.5h109zM772 1604v198h100v-198h-100z" />
    <glyph glyph-name="cdotaccent" unicode="&#x10b;" horiz-adv-x="1116" 
d="M1032 295q-40 -143 -157 -225t-289 -82q-159 0 -277.5 75t-177.5 195.5t-59 267.5q0 110 35 208t98.5 173.5t162 119.5t218.5 44q169 0 284 -81t154 -218h-106q-34 101 -121.5 158t-212.5 57q-182 0 -296 -131.5t-114 -329.5q0 -194 114 -323t296 -129q126 0 215.5 58
t124.5 163h108zM539 1278v184h96v-184h-96z" />
    <glyph glyph-name="Ccaron" unicode="&#x10c;" horiz-adv-x="1548" 
d="M1448 403q-53 -192 -216.5 -306.5t-410.5 -114.5q-170 0 -310.5 58.5t-233 160t-143 237t-50.5 291.5t50.5 292t143 237.5t233 160t310.5 58.5q242 0 399 -111t224 -305h-109q-55 153 -183 240.5t-331 87.5q-124 0 -229 -37t-177.5 -100.5t-123.5 -148.5t-74.5 -179.5
t-23.5 -194.5t23.5 -194.5t74.5 -179t123.5 -148t177.5 -100.5t229 -37q205 0 335 90.5t183 242.5h109zM492 1808h106l221 -174l221 174h107l-268 -231h-119z" />
    <glyph glyph-name="ccaron" unicode="&#x10d;" horiz-adv-x="1116" 
d="M1032 295q-40 -143 -157 -225t-289 -82q-159 0 -277.5 75t-177.5 195.5t-59 267.5q0 110 35 208t98.5 173.5t162 119.5t218.5 44q169 0 284 -81t154 -218h-106q-34 101 -121.5 158t-212.5 57q-182 0 -296 -131.5t-114 -329.5q0 -194 114 -323t296 -129q126 0 215.5 58
t124.5 163h108zM311 1458h88l187 -209l188 209h88l-221 -268h-109z" />
    <glyph glyph-name="Dcaron" unicode="&#x10e;" horiz-adv-x="1386" 
d="M571 1462q343 0 537.5 -189t194.5 -513q0 -157 -50 -295.5t-140 -241.5t-225.5 -163t-297.5 -60h-428v1462h409zM270 88h328q117 0 223.5 44t190 126t133 212t49.5 290q0 125 -32.5 228t-89 173.5t-134 119t-166.5 71t-188 22.5h-314v-1286zM332 1808h106l221 -174
l222 174h106l-268 -231h-119z" />
    <glyph glyph-name="dcaron" unicode="&#x10f;" horiz-adv-x="1175" 
d="M551 1071q141 0 235.5 -64.5t147.5 -166.5h2v622h102v-1462h-102v223h-2q-115 -235 -383 -235q-117 0 -210 43t-151 118t-88 171.5t-30 207.5t30 208t88 172.5t151 119t210 43.5zM174 528q0 -199 101.5 -326.5t281.5 -127.5q81 0 147 27t109.5 72t73 104.5t42.5 122
t13 128.5q0 200 -102 329.5t-283 129.5q-179 0 -281 -129t-102 -330zM1143 1153l16 309h105l-60 -309h-61z" />
    <glyph glyph-name="Dcroat" unicode="&#x110;" horiz-adv-x="1386" 
d="M571 1462q343 0 537.5 -189t194.5 -513q0 -157 -50 -295.5t-140 -241.5t-225.5 -163t-297.5 -60h-428v688h-152v78h152v696h409zM270 88h328q117 0 223.5 44t190 126t133 212t49.5 290q0 125 -32.5 228t-89 173.5t-134 119t-166.5 71t-188 22.5h-314v-608h381v-78h-381
v-600z" />
    <glyph glyph-name="dcroat" unicode="&#x111;" horiz-adv-x="1175" 
d="M551 1071q141 0 235.5 -64.5t147.5 -166.5h2v374h-326v74h326v174h102v-174h232v-74h-232v-1214h-102v223h-2q-115 -235 -383 -235q-117 0 -210 43t-151 118t-88 171.5t-30 207.5t30 208t88 172.5t151 119t210 43.5zM174 528q0 -199 101.5 -326.5t281.5 -127.5
q81 0 147 27t109.5 72t73 104.5t42.5 122t13 128.5q0 200 -102 329.5t-283 129.5q-179 0 -281 -129t-102 -330z" />
    <glyph glyph-name="Emacron" unicode="&#x112;" horiz-adv-x="1165" 
d="M1030 1462v-88h-760v-581h717v-88h-717v-617h766v-88h-874v1462h868zM295 1638v64h579v-64h-579z" />
    <glyph glyph-name="emacron" unicode="&#x113;" horiz-adv-x="1120" 
d="M1032 311q-47 -147 -166.5 -235t-292.5 -88q-156 0 -271.5 75t-172.5 196t-57 269q0 109 34 207t95.5 173t156.5 119t209 44q115 0 203.5 -39.5t143.5 -110t85 -160t37 -198.5q2 -23 2 -65h-866q6 -185 117 -304.5t284 -119.5q126 0 219.5 63.5t135.5 173.5h104zM174 580
h764q-40 407 -371 407q-167 0 -274.5 -114t-118.5 -293zM227 1253v62h676v-62h-676z" />
    <glyph glyph-name="Ebreve" unicode="&#x114;" horiz-adv-x="1165" 
d="M1030 1462v-88h-760v-581h717v-88h-717v-617h766v-88h-874v1462h868zM301 1802h78q5 -65 61.5 -122.5t147.5 -57.5q90 0 146 58t59 122h79q-11 -101 -89 -173.5t-195 -72.5q-118 0 -197 72.5t-90 173.5z" />
    <glyph glyph-name="ebreve" unicode="&#x115;" horiz-adv-x="1120" 
d="M1032 311q-47 -147 -166.5 -235t-292.5 -88q-156 0 -271.5 75t-172.5 196t-57 269q0 109 34 207t95.5 173t156.5 119t209 44q115 0 203.5 -39.5t143.5 -110t85 -160t37 -198.5q2 -23 2 -65h-866q6 -185 117 -304.5t284 -119.5q126 0 219.5 63.5t135.5 173.5h104zM174 580
h764q-40 407 -371 407q-167 0 -274.5 -114t-118.5 -293zM281 1462h77q5 -86 58.5 -145.5t150.5 -59.5q96 0 149 59.5t56 145.5h80q-8 -122 -84.5 -196t-200.5 -74q-125 0 -201.5 73.5t-84.5 196.5z" />
    <glyph glyph-name="Edotaccent" unicode="&#x116;" horiz-adv-x="1165" 
d="M1030 1462v-88h-760v-581h717v-88h-717v-617h766v-88h-874v1462h868zM537 1604v198h100v-198h-100z" />
    <glyph glyph-name="edotaccent" unicode="&#x117;" horiz-adv-x="1120" 
d="M1032 311q-47 -147 -166.5 -235t-292.5 -88q-156 0 -271.5 75t-172.5 196t-57 269q0 109 34 207t95.5 173t156.5 119t209 44q115 0 203.5 -39.5t143.5 -110t85 -160t37 -198.5q2 -23 2 -65h-866q6 -185 117 -304.5t284 -119.5q126 0 219.5 63.5t135.5 173.5h104zM174 580
h764q-40 407 -371 407q-167 0 -274.5 -114t-118.5 -293zM516 1278v184h96v-184h-96z" />
    <glyph glyph-name="Eogonek" unicode="&#x118;" horiz-adv-x="1165" 
d="M1030 1462v-88h-760v-581h717v-88h-717v-617h766v-88q-95 -65 -136.5 -112t-41.5 -111q2 -54 43 -86.5t117 -32.5v-59q-100 0 -171 44.5t-71 129.5q-3 69 33 118.5t113 108.5h-760v1462h868z" />
    <glyph glyph-name="eogonek" unicode="&#x119;" horiz-adv-x="1120" 
d="M1032 311q-41 -126 -135.5 -210t-230.5 -107q-85 -60 -121 -105.5t-37 -109.5q-2 -54 41 -87.5t119 -33.5v-57q-99 0 -167.5 44.5t-68.5 129.5q-1 66 29.5 114t93.5 99q-113 4 -205.5 48.5t-152.5 118.5t-92.5 170t-32.5 203q0 109 34 207t95.5 173t156.5 119t209 44
q115 0 203.5 -39.5t143.5 -110t85 -160t37 -198.5q2 -23 2 -65h-866q6 -185 117 -304.5t284 -119.5q126 0 219.5 63.5t135.5 173.5h104zM174 580h764q-40 407 -371 407q-167 0 -274.5 -114t-118.5 -293z" />
    <glyph glyph-name="Ecaron" unicode="&#x11a;" horiz-adv-x="1165" 
d="M1030 1462v-88h-760v-581h717v-88h-717v-617h766v-88h-874v1462h868zM256 1808h106l222 -174l221 174h106l-268 -231h-119z" />
    <glyph glyph-name="ecaron" unicode="&#x11b;" horiz-adv-x="1120" 
d="M1032 311q-47 -147 -166.5 -235t-292.5 -88q-156 0 -271.5 75t-172.5 196t-57 269q0 109 34 207t95.5 173t156.5 119t209 44q115 0 203.5 -39.5t143.5 -110t85 -160t37 -198.5q2 -23 2 -65h-866q6 -185 117 -304.5t284 -119.5q126 0 219.5 63.5t135.5 173.5h104zM174 580
h764q-40 407 -371 407q-167 0 -274.5 -114t-118.5 -293zM289 1458h88l186 -209l189 209h88l-222 -268h-108z" />
    <glyph glyph-name="Gcircumflex" unicode="&#x11c;" horiz-adv-x="1554" 
d="M823 627v88h615l-21 -715h-78l-4 324q-64 -160 -199 -253.5t-345 -93.5q-168 0 -304 59.5t-223 163t-133.5 239t-46.5 290.5t49.5 292t140 239.5t227.5 162.5t302 60q125 0 229 -33.5t176.5 -93t121 -133t75.5 -162.5h-109q-23 70 -60.5 127t-95 105t-144 75t-193.5 27
q-120 0 -222 -38t-172.5 -102.5t-120 -150.5t-72.5 -180.5t-23 -194.5t21 -193.5t68 -179.5t115.5 -150t169.5 -102t224 -38q246 0 391 154.5t145 406.5h-504zM465 1577l268 231h119l268 -231h-106l-221 174l-222 -174h-106z" />
    <glyph glyph-name="gcircumflex" unicode="&#x11d;" horiz-adv-x="1175" 
d="M936 1059h102v-1016q0 -130 -49 -230.5t-154 -161.5t-255 -61q-198 0 -315.5 94.5t-141.5 258.5h104q52 -269 353 -269q176 0 266 101t90 284v162h-2q-114 -233 -381 -233q-117 0 -210.5 43.5t-151.5 118.5t-88.5 171.5t-30.5 206.5t30.5 207t88.5 172.5t151.5 119.5
t210.5 44q261 0 381 -227h2v215zM174 528q0 -128 43 -229.5t131.5 -163t208.5 -61.5q82 0 149 28t110 73t72 105.5t41.5 122t12.5 125.5q0 126 -43 229t-132 166.5t-210 63.5q-120 0 -208.5 -62t-131.5 -164.5t-43 -232.5zM289 1194l221 268h108l222 -268h-88l-189 209
l-186 -209h-88z" />
    <glyph glyph-name="Gbreve" unicode="&#x11e;" horiz-adv-x="1554" 
d="M823 627v88h615l-21 -715h-78l-4 324q-64 -160 -199 -253.5t-345 -93.5q-168 0 -304 59.5t-223 163t-133.5 239t-46.5 290.5t49.5 292t140 239.5t227.5 162.5t302 60q125 0 229 -33.5t176.5 -93t121 -133t75.5 -162.5h-109q-23 70 -60.5 127t-95 105t-144 75t-193.5 27
q-120 0 -222 -38t-172.5 -102.5t-120 -150.5t-72.5 -180.5t-23 -194.5t21 -193.5t68 -179.5t115.5 -150t169.5 -102t224 -38q246 0 391 154.5t145 406.5h-504zM508 1802h78q5 -65 61.5 -122.5t147.5 -57.5q90 0 145.5 58t58.5 122h80q-11 -101 -89 -173.5t-195 -72.5
q-118 0 -197 72.5t-90 173.5z" />
    <glyph glyph-name="gbreve" unicode="&#x11f;" horiz-adv-x="1175" 
d="M936 1059h102v-1016q0 -130 -49 -230.5t-154 -161.5t-255 -61q-198 0 -315.5 94.5t-141.5 258.5h104q52 -269 353 -269q176 0 266 101t90 284v162h-2q-114 -233 -381 -233q-117 0 -210.5 43.5t-151.5 118.5t-88.5 171.5t-30.5 206.5t30.5 207t88.5 172.5t151.5 119.5
t210.5 44q261 0 381 -227h2v215zM174 528q0 -128 43 -229.5t131.5 -163t208.5 -61.5q82 0 149 28t110 73t72 105.5t41.5 122t12.5 125.5q0 126 -43 229t-132 166.5t-210 63.5q-120 0 -208.5 -62t-131.5 -164.5t-43 -232.5zM281 1462h77q5 -86 58.5 -145.5t150.5 -59.5
q96 0 149 59.5t56 145.5h80q-8 -122 -84.5 -196t-200.5 -74q-125 0 -201.5 73.5t-84.5 196.5z" />
    <glyph glyph-name="Gdotaccent" unicode="&#x120;" horiz-adv-x="1554" 
d="M823 627v88h615l-21 -715h-78l-4 324q-64 -160 -199 -253.5t-345 -93.5q-168 0 -304 59.5t-223 163t-133.5 239t-46.5 290.5t49.5 292t140 239.5t227.5 162.5t302 60q125 0 229 -33.5t176.5 -93t121 -133t75.5 -162.5h-109q-23 70 -60.5 127t-95 105t-144 75t-193.5 27
q-120 0 -222 -38t-172.5 -102.5t-120 -150.5t-72.5 -180.5t-23 -194.5t21 -193.5t68 -179.5t115.5 -150t169.5 -102t224 -38q246 0 391 154.5t145 406.5h-504zM743 1604v198h101v-198h-101z" />
    <glyph glyph-name="gdotaccent" unicode="&#x121;" horiz-adv-x="1175" 
d="M936 1059h102v-1016q0 -130 -49 -230.5t-154 -161.5t-255 -61q-198 0 -315.5 94.5t-141.5 258.5h104q52 -269 353 -269q176 0 266 101t90 284v162h-2q-114 -233 -381 -233q-117 0 -210.5 43.5t-151.5 118.5t-88.5 171.5t-30.5 206.5t30.5 207t88.5 172.5t151.5 119.5
t210.5 44q261 0 381 -227h2v215zM174 528q0 -128 43 -229.5t131.5 -163t208.5 -61.5q82 0 149 28t110 73t72 105.5t41.5 122t12.5 125.5q0 126 -43 229t-132 166.5t-210 63.5q-120 0 -208.5 -62t-131.5 -164.5t-43 -232.5zM516 1278v184h96v-184h-96z" />
    <glyph glyph-name="uni0122" unicode="&#x122;" horiz-adv-x="1554" 
d="M823 627v88h615l-21 -715h-78l-4 324q-64 -160 -199 -253.5t-345 -93.5q-168 0 -304 59.5t-223 163t-133.5 239t-46.5 290.5t49.5 292t140 239.5t227.5 162.5t302 60q125 0 229 -33.5t176.5 -93t121 -133t75.5 -162.5h-109q-23 70 -60.5 127t-95 105t-144 75t-193.5 27
q-120 0 -222 -38t-172.5 -102.5t-120 -150.5t-72.5 -180.5t-23 -194.5t21 -193.5t68 -179.5t115.5 -150t169.5 -102t224 -38q246 0 391 154.5t145 406.5h-504zM709 -279v175h147v-152q0 -170 -131 -170v53q35 9 47 29t12 65h-75z" />
    <glyph glyph-name="uni0123" unicode="&#x123;" horiz-adv-x="1175" 
d="M936 1059h102v-1016q0 -130 -49 -230.5t-154 -161.5t-255 -61q-198 0 -315.5 94.5t-141.5 258.5h104q52 -269 353 -269q176 0 266 101t90 284v162h-2q-114 -233 -381 -233q-117 0 -210.5 43.5t-151.5 118.5t-88.5 171.5t-30.5 206.5t30.5 207t88.5 172.5t151.5 119.5
t210.5 44q261 0 381 -227h2v215zM174 528q0 -128 43 -229.5t131.5 -163t208.5 -61.5q82 0 149 28t110 73t72 105.5t41.5 122t12.5 125.5q0 126 -43 229t-132 166.5t-210 63.5q-120 0 -208.5 -62t-131.5 -164.5t-43 -232.5zM487 1241v152q0 170 131 170v-54
q-34 -9 -46.5 -29.5t-12.5 -64.5h76v-174h-148z" />
    <glyph glyph-name="Hcircumflex" unicode="&#x124;" horiz-adv-x="1357" 
d="M1087 1462h109v-1462h-109v702h-817v-702h-108v1462h108v-671h817v671zM352 1577l269 231h118l269 -231h-107l-221 174l-221 -174h-107z" />
    <glyph glyph-name="hcircumflex" unicode="&#x125;" horiz-adv-x="1091" 
d="M137 0v1462h103v-606q98 215 340 215q83 0 149.5 -21.5t120.5 -67t83.5 -126.5t29.5 -192v-664h-103v659q0 175 -78 251.5t-209 76.5q-64 0 -120 -21t-105.5 -67.5t-78.5 -134t-29 -207.5v-557h-103zM-127 1577l268 231h119l268 -231h-106l-221 174l-221 -174h-107z" />
    <glyph glyph-name="Hbar" unicode="&#x126;" horiz-adv-x="1357" 
d="M1087 1462h109v-293h107v-71h-107v-1098h-109v702h-817v-702h-108v1098h-103v71h103v293h108v-293h817v293zM270 791h817v307h-817v-307z" />
    <glyph glyph-name="hbar" unicode="&#x127;" horiz-adv-x="1091" 
d="M137 0v1214h-157v74h157v174h103v-174h438v-74h-438v-358q98 215 340 215q83 0 149.5 -21.5t120.5 -67t83.5 -126.5t29.5 -192v-664h-103v659q0 175 -78 251.5t-209 76.5q-64 0 -120 -21t-105.5 -67.5t-78.5 -134t-29 -207.5v-557h-103z" />
    <glyph glyph-name="Itilde" unicode="&#x128;" horiz-adv-x="432" 
d="M162 1462h108v-1462h-108v1462zM-123 1612q2 88 48.5 139t129.5 51q48 0 107 -31t111.5 -61.5t84.5 -30.5q57 0 90 33t35 90h72q-1 -86 -58 -138t-139 -52q-39 0 -85 19t-81 41.5t-74 41.5t-65 19q-56 0 -80 -30.5t-26 -90.5h-70z" />
    <glyph glyph-name="itilde" unicode="&#x129;" horiz-adv-x="376" 
d="M137 0v1059h103v-1059h-103zM-150 1274q0 88 48 138t131 50q48 0 107 -31t111.5 -61.5t84.5 -30.5q56 0 90 33t35 90h71q-1 -86 -57.5 -138t-138.5 -52q-39 0 -85 19t-81.5 41.5t-74 41.5t-64.5 19q-56 0 -80.5 -30t-26.5 -89h-70z" />
    <glyph glyph-name="Imacron" unicode="&#x12a;" horiz-adv-x="432" 
d="M162 1462h108v-1462h-108v1462zM-76 1638v64h580v-64h-580z" />
    <glyph glyph-name="imacron" unicode="&#x12b;" horiz-adv-x="376" 
d="M137 0v1059h103v-1059h-103zM-150 1253v62h676v-62h-676z" />
    <glyph glyph-name="Ibreve" unicode="&#x12c;" horiz-adv-x="432" 
d="M162 1462h108v-1462h-108v1462zM-70 1802h78q5 -65 61.5 -122.5t147.5 -57.5q90 0 146 58t59 122h80q-11 -101 -89.5 -173.5t-195.5 -72.5q-118 0 -197 72.5t-90 173.5z" />
    <glyph glyph-name="ibreve" unicode="&#x12d;" horiz-adv-x="376" 
d="M137 0v1059h103v-1059h-103zM-94 1462h78q5 -86 58.5 -145.5t150.5 -59.5q96 0 148.5 59.5t55.5 145.5h80q-8 -123 -84.5 -196.5t-199.5 -73.5q-125 0 -202 73.5t-85 196.5z" />
    <glyph glyph-name="Iogonek" unicode="&#x12e;" horiz-adv-x="452" 
d="M270 0q-4 -3 -22.5 -20.5t-23.5 -22.5l-21 -21t-22 -23t-19 -22.5t-18 -24.5t-13.5 -24t-12 -26.5t-6.5 -25.5t-3 -28q1 -54 41.5 -81t101.5 -27v-76q-104 0 -170 45t-66 135q-1 68 36.5 122.5t109.5 119.5v1462h108v-1462z" />
    <glyph glyph-name="iogonek" unicode="&#x12f;" horiz-adv-x="376" 
d="M137 0v1059h103v-1059q-90 -63 -128.5 -110.5t-39.5 -112.5q-2 -54 40.5 -87.5t118.5 -33.5v-57q-99 0 -167 44.5t-68 129.5q-1 69 33.5 119t107.5 108zM141 1278v184h97v-184h-97z" />
    <glyph glyph-name="Idotaccent" unicode="&#x130;" horiz-adv-x="432" 
d="M162 1462h108v-1462h-108v1462zM166 1604v198h100v-198h-100z" />
    <glyph glyph-name="dotlessi" unicode="&#x131;" horiz-adv-x="376" 
d="M137 0v1059h103v-1059h-103z" />
    <glyph glyph-name="IJ" unicode="&#x132;" horiz-adv-x="1044" 
d="M162 1462h108v-968h-108v968zM164 350v60h106v-62q2 -128 68.5 -204t189.5 -76q124 0 189 80t65 212v1102h109v-1102q0 -173 -97 -276.5t-266 -103.5q-164 0 -263.5 100.5t-100.5 269.5z" />
    <glyph glyph-name="ij" unicode="&#x133;" horiz-adv-x="745" 
d="M246 1257h-107v205h107v-205zM139 0v1059h103v-1059h-103zM307 -403v84h82q61 0 88 28.5t27 87.5v1262h104v-1252q0 -104 -51 -157t-168 -53h-82zM500 1257v205h108v-205h-108z" />
    <glyph glyph-name="Jcircumflex" unicode="&#x134;" horiz-adv-x="954" 
d="M180 348q2 -128 68.5 -204t189.5 -76q124 0 189 80t65 212v1102h109v-1102q0 -173 -97 -276.5t-266 -103.5q-164 0 -263.5 100.5t-100.5 269.5v60h106v-62zM418 1577l268 231h119l268 -231h-106l-222 174l-221 -174h-106z" />
    <glyph glyph-name="jcircumflex" unicode="&#x135;" horiz-adv-x="415" 
d="M279 -193q0 -104 -51.5 -157t-168.5 -53h-82v84h82q61 0 88 28.5t27 87.5v1262h105v-1252zM18 1194l222 268h108l221 -268h-88l-188 209l-187 -209h-88z" />
    <glyph glyph-name="uni0136" unicode="&#x136;" horiz-adv-x="1267" 
d="M270 0h-108v1462h108v-800l748 800h137l-563 -598l620 -864h-129l-561 791l-252 -269v-522zM588 -279v175h147v-152q0 -170 -131 -170v53q36 9 48 29.5t12 64.5h-76z" />
    <glyph glyph-name="uni0137" unicode="&#x137;" horiz-adv-x="931" 
d="M240 0h-103v1462h103v-923l530 520h127l-451 -449l457 -610h-121l-403 547l-139 -127v-420zM401 -279v175h148v-152q0 -170 -131 -170v53q35 9 47 29t12 65h-76z" />
    <glyph glyph-name="kgreenlandic" unicode="&#x138;" horiz-adv-x="931" 
d="M240 0h-103v1059h103v-529l530 529h127l-448 -453l454 -606h-121l-399 543l-143 -131v-412z" />
    <glyph glyph-name="Lacute" unicode="&#x139;" horiz-adv-x="1081" 
d="M162 1462h108v-1374h746v-88h-854v1462zM215 1595l262 207h154l-309 -207h-107z" />
    <glyph glyph-name="lacute" unicode="&#x13a;" horiz-adv-x="376" 
d="M137 1462h103v-1462h-103v1462zM162 1595l262 207h154l-310 -207h-106z" />
    <glyph glyph-name="uni013B" unicode="&#x13b;" horiz-adv-x="1081" 
d="M162 1462h108v-1374h746v-88h-854v1462zM444 -279v175h148v-152q0 -170 -131 -170v53q35 9 47 29t12 65h-76z" />
    <glyph glyph-name="uni013C" unicode="&#x13c;" horiz-adv-x="376" 
d="M137 1462h103v-1462h-103v1462zM100 -279v175h148v-152q0 -170 -131 -170v53q35 9 47 29t12 65h-76z" />
    <glyph glyph-name="Lcaron" unicode="&#x13d;" horiz-adv-x="1081" 
d="M162 1462h108v-1374h746v-88h-854v1462zM477 1053l68 409h106l-110 -409h-64z" />
    <glyph glyph-name="lcaron" unicode="&#x13e;" horiz-adv-x="376" 
d="M137 1462h103v-1462h-103v1462zM344 1153l16 309h105l-59 -309h-62z" />
    <glyph glyph-name="Ldot" unicode="&#x13f;" horiz-adv-x="1081" 
d="M162 1462h108v-1374h746v-88h-854v1462zM764 672v198h100v-198h-100z" />
    <glyph glyph-name="ldot" unicode="&#x140;" horiz-adv-x="575" 
d="M137 1462h103v-1462h-103v1462zM416 666v184h96v-184h-96z" />
    <glyph glyph-name="Lslash" unicode="&#x141;" horiz-adv-x="1081" 
d="M162 1462h108v-770l527 373v-92l-527 -373v-512h746v-88h-854v524l-189 -133v92l189 133v846z" />
    <glyph glyph-name="lslash" unicode="&#x142;" horiz-adv-x="425" 
d="M389 934l-156 -141v-787h-102v692l-143 -131v101l143 133v667h102v-573l154 141z" />
    <glyph glyph-name="Nacute" unicode="&#x143;" horiz-adv-x="1415" 
d="M162 1462h121l723 -1083q17 -26 66 -103.5t75 -115.5q0 40 -1 127t-1 127v1048h108v-1462h-123l-702 1057q-23 34 -77 118t-83 125q0 -46 1 -144t1 -144v-1012h-108v1462zM596 1595l262 207h154l-310 -207h-106z" />
    <glyph glyph-name="nacute" unicode="&#x144;" horiz-adv-x="1091" 
d="M137 0v1059h103v-203q98 215 340 215q83 0 149.5 -21.5t120.5 -67t83.5 -126.5t29.5 -192v-664h-103v659q0 175 -78 251.5t-209 76.5q-64 0 -120 -21t-105.5 -67.5t-78.5 -134t-29 -207.5v-557h-103zM471 1194l199 268h127l-250 -268h-76z" />
    <glyph glyph-name="uni0145" unicode="&#x145;" horiz-adv-x="1415" 
d="M162 1462h121l723 -1083q17 -26 66 -103.5t75 -115.5q0 40 -1 127t-1 127v1048h108v-1462h-123l-702 1057q-23 34 -77 118t-83 125q0 -46 1 -144t1 -144v-1012h-108v1462zM643 -279v175h148v-152q0 -170 -132 -170v53q36 9 48 29.5t12 64.5h-76z" />
    <glyph glyph-name="uni0146" unicode="&#x146;" horiz-adv-x="1091" 
d="M137 0v1059h103v-203q98 215 340 215q83 0 149.5 -21.5t120.5 -67t83.5 -126.5t29.5 -192v-664h-103v659q0 175 -78 251.5t-209 76.5q-64 0 -120 -21t-105.5 -67.5t-78.5 -134t-29 -207.5v-557h-103zM471 -279v175h147v-152q0 -170 -131 -170v53q36 9 48 29.5t12 64.5
h-76z" />
    <glyph glyph-name="Ncaron" unicode="&#x147;" horiz-adv-x="1415" 
d="M162 1462h121l723 -1083q17 -26 66 -103.5t75 -115.5q0 40 -1 127t-1 127v1048h108v-1462h-123l-702 1057q-23 34 -77 118t-83 125q0 -46 1 -144t1 -144v-1012h-108v1462zM377 1808h106l222 -174l221 174h106l-268 -231h-119z" />
    <glyph glyph-name="ncaron" unicode="&#x148;" horiz-adv-x="1091" 
d="M137 0v1059h103v-203q98 215 340 215q83 0 149.5 -21.5t120.5 -67t83.5 -126.5t29.5 -192v-664h-103v659q0 175 -78 251.5t-209 76.5q-64 0 -120 -21t-105.5 -67.5t-78.5 -134t-29 -207.5v-557h-103zM260 1458h88l187 -209l188 209h88l-221 -268h-109z" />
    <glyph glyph-name="napostrophe" unicode="&#x149;" horiz-adv-x="1091" 
d="M137 0v1059h103v-203q98 215 340 215q83 0 149.5 -21.5t120.5 -67t83.5 -126.5t29.5 -192v-664h-103v659q0 175 -78 251.5t-209 76.5q-64 0 -120 -21t-105.5 -67.5t-78.5 -134t-29 -207.5v-557h-103zM-119 1137l58 163l-11 3v159h72v-166l-68 -159h-51z" />
    <glyph glyph-name="Eng" unicode="&#x14a;" horiz-adv-x="1415" 
d="M162 1462h121l723 -1083q17 -26 66 -103.5t75 -115.5q0 40 -1 127t-1 127v1048h108v-1458v-4q0 -92 -17.5 -162.5t-57.5 -127.5t-111 -88t-172 -32v84q133 2 196.5 81t63.5 245h-25l-702 1057q-23 34 -77 118t-83 125q0 -46 1 -144t1 -144v-1012h-108v1462z" />
    <glyph glyph-name="eng" unicode="&#x14b;" horiz-adv-x="1091" 
d="M963 -201q0 -95 -57.5 -148.5t-160.5 -53.5h-112v84h104q123 0 123 120v858q0 175 -78 251.5t-209 76.5q-64 0 -120 -21t-105.5 -67.5t-78.5 -134t-29 -207.5v-557h-103v1059h103v-203q98 215 340 215q83 0 149.5 -21.5t120.5 -67t83.5 -126.5t29.5 -192v-865z" />
    <glyph glyph-name="Omacron" unicode="&#x14c;" horiz-adv-x="1650" 
d="M823 1485q170 0 311.5 -60t234.5 -163t144.5 -240.5t51.5 -292.5t-51 -292t-144.5 -239t-235 -161.5t-311.5 -59.5q-169 0 -310 59.5t-234 161.5t-144 239t-51 292t51 292.5t144 240.5t234 163t310 60zM193 729q0 -100 24 -194.5t75 -180t124 -149.5t178 -101.5
t229 -37.5q126 0 231.5 37.5t179 101.5t125 149.5t75.5 180t24 194.5t-24 194.5t-75.5 180.5t-125 150.5t-179 102.5t-231.5 38q-124 0 -229 -38t-178 -102.5t-124 -150.5t-75 -180.5t-24 -194.5zM532 1638v64h580v-64h-580z" />
    <glyph glyph-name="omacron" unicode="&#x14d;" horiz-adv-x="1167" 
d="M584 -12q-119 0 -217 43.5t-162 118t-98.5 171.5t-34.5 205q0 109 34.5 207t98.5 173.5t162 120t217 44.5q117 0 215 -44.5t162 -120t99.5 -173.5t35.5 -207q0 -108 -35.5 -205t-99.5 -171.5t-162 -118t-215 -43.5zM174 526q0 -192 114.5 -322t295.5 -130
q180 0 294.5 130t114.5 322q0 197 -114.5 329t-294.5 132q-120 0 -214.5 -61.5t-145 -166t-50.5 -233.5zM246 1253v62h676v-62h-676z" />
    <glyph glyph-name="Obreve" unicode="&#x14e;" horiz-adv-x="1650" 
d="M823 1485q170 0 311.5 -60t234.5 -163t144.5 -240.5t51.5 -292.5t-51 -292t-144.5 -239t-235 -161.5t-311.5 -59.5q-169 0 -310 59.5t-234 161.5t-144 239t-51 292t51 292.5t144 240.5t234 163t310 60zM193 729q0 -100 24 -194.5t75 -180t124 -149.5t178 -101.5
t229 -37.5q126 0 231.5 37.5t179 101.5t125 149.5t75.5 180t24 194.5t-24 194.5t-75.5 180.5t-125 150.5t-179 102.5t-231.5 38q-124 0 -229 -38t-178 -102.5t-124 -150.5t-75 -180.5t-24 -194.5zM539 1802h77q5 -65 61.5 -122.5t147.5 -57.5q90 0 146 58t59 122h80
q-11 -101 -89.5 -173.5t-195.5 -72.5q-118 0 -196.5 72t-89.5 174z" />
    <glyph glyph-name="obreve" unicode="&#x14f;" horiz-adv-x="1167" 
d="M584 -12q-119 0 -217 43.5t-162 118t-98.5 171.5t-34.5 205q0 109 34.5 207t98.5 173.5t162 120t217 44.5q117 0 215 -44.5t162 -120t99.5 -173.5t35.5 -207q0 -108 -35.5 -205t-99.5 -171.5t-162 -118t-215 -43.5zM174 526q0 -192 114.5 -322t295.5 -130
q180 0 294.5 130t114.5 322q0 197 -114.5 329t-294.5 132q-120 0 -214.5 -61.5t-145 -166t-50.5 -233.5zM299 1462h78q5 -86 58.5 -145.5t150.5 -59.5q96 0 149 59.5t56 145.5h79q-8 -123 -84 -196.5t-200 -73.5q-125 0 -202 73.5t-85 196.5z" />
    <glyph glyph-name="Ohungarumlaut" unicode="&#x150;" horiz-adv-x="1650" 
d="M823 1485q170 0 311.5 -60t234.5 -163t144.5 -240.5t51.5 -292.5t-51 -292t-144.5 -239t-235 -161.5t-311.5 -59.5q-169 0 -310 59.5t-234 161.5t-144 239t-51 292t51 292.5t144 240.5t234 163t310 60zM193 729q0 -100 24 -194.5t75 -180t124 -149.5t178 -101.5
t229 -37.5q126 0 231.5 37.5t179 101.5t125 149.5t75.5 180t24 194.5t-24 194.5t-75.5 180.5t-125 150.5t-179 102.5t-231.5 38q-124 0 -229 -38t-178 -102.5t-124 -150.5t-75 -180.5t-24 -194.5zM602 1599l199 207h121l-242 -207h-78zM834 1599l196 207h123l-244 -207h-75z
" />
    <glyph glyph-name="ohungarumlaut" unicode="&#x151;" horiz-adv-x="1167" 
d="M584 -12q-119 0 -217 43.5t-162 118t-98.5 171.5t-34.5 205q0 109 34.5 207t98.5 173.5t162 120t217 44.5q117 0 215 -44.5t162 -120t99.5 -173.5t35.5 -207q0 -108 -35.5 -205t-99.5 -171.5t-162 -118t-215 -43.5zM174 526q0 -192 114.5 -322t295.5 -130
q180 0 294.5 130t114.5 322q0 197 -114.5 329t-294.5 132q-120 0 -214.5 -61.5t-145 -166t-50.5 -233.5zM371 1194l198 268h121l-241 -268h-78zM602 1194l197 268h123l-244 -268h-76z" />
    <glyph glyph-name="OE" unicode="&#x152;" horiz-adv-x="2304" 
d="M84 729q0 207 83.5 378.5t240.5 274.5t358 103q205 0 351.5 -98t221.5 -267v342h830v-88h-723v-581h680v-88h-680v-617h729v-88h-836v338q-75 -168 -221 -264.5t-352 -96.5q-201 0 -358 102t-240.5 272.5t-83.5 377.5zM193 729q0 -125 37.5 -241.5t107 -211.5t181 -152.5
t247.5 -57.5q117 0 214 38t163 101.5t112 149.5t67 180t21 194t-21 194.5t-67 180.5t-112 150.5t-163.5 102.5t-213.5 38q-136 0 -247.5 -58t-181 -153.5t-107 -212.5t-37.5 -242z" />
    <glyph glyph-name="oe" unicode="&#x153;" horiz-adv-x="2033" 
d="M582 -12q-118 0 -216 43.5t-161.5 118t-98 171.5t-34.5 205q0 109 34.5 207t98 173.5t161.5 120t216 44.5q164 0 282 -82.5t174 -220.5q57 138 171 220.5t274 82.5q93 0 169 -26t128.5 -71.5t89 -110.5t55.5 -139t25 -161q4 -46 4 -65h-867q8 -185 118.5 -304.5
t283.5 -119.5q127 0 219.5 63.5t134.5 173.5h105q-49 -148 -167 -235.5t-290 -87.5q-165 0 -280.5 81t-170.5 218q-58 -136 -176 -217.5t-282 -81.5zM174 526q0 -192 114 -322t294 -130q181 0 295 129.5t114 322.5q0 129 -50.5 233.5t-144.5 166t-214 61.5q-180 0 -294 -132
t-114 -329zM1090 580h763q-40 407 -370 407q-165 0 -273 -114t-120 -293z" />
    <glyph glyph-name="Racute" unicode="&#x154;" horiz-adv-x="1282" 
d="M162 -2v1464h493q237 0 356 -109t119 -284q0 -153 -85 -251.5t-232 -135.5q94 -23 147.5 -100t110.5 -260q67 -211 123 -314v-8h-117q-23 50 -45 111.5t-46.5 137t-37.5 113.5q-27 78 -48.5 123t-57.5 86t-88 58.5t-127 17.5h-357v-649h-108zM270 735h392q177 0 268.5 90
t91.5 244q0 63 -18.5 115t-60 96t-117 69t-179.5 25h-377v-639zM514 1595l262 207h154l-309 -207h-107z" />
    <glyph glyph-name="racute" unicode="&#x155;" horiz-adv-x="641" 
d="M240 1059v-211q87 219 342 219v-92q-106 0 -170 -41q-172 -91 -172 -381v-553h-103v1059h103zM242 1194l198 268h127l-250 -268h-75z" />
    <glyph glyph-name="uni0156" unicode="&#x156;" horiz-adv-x="1282" 
d="M162 -2v1464h493q237 0 356 -109t119 -284q0 -153 -85 -251.5t-232 -135.5q94 -23 147.5 -100t110.5 -260q67 -211 123 -314v-8h-117q-23 50 -45 111.5t-46.5 137t-37.5 113.5q-27 78 -48.5 123t-57.5 86t-88 58.5t-127 17.5h-357v-649h-108zM270 735h392q177 0 268.5 90
t91.5 244q0 63 -18.5 115t-60 96t-117 69t-179.5 25h-377v-639zM555 -279v175h147v-152q0 -170 -131 -170v53q36 9 48 29.5t12 64.5h-76z" />
    <glyph glyph-name="uni0157" unicode="&#x157;" horiz-adv-x="641" 
d="M240 1059v-211q87 219 342 219v-92q-106 0 -170 -41q-172 -91 -172 -381v-553h-103v1059h103zM109 -279v175h147v-152q0 -170 -131 -170v53q35 9 47 29t12 65h-75z" />
    <glyph glyph-name="Rcaron" unicode="&#x158;" horiz-adv-x="1282" 
d="M162 -2v1464h493q237 0 356 -109t119 -284q0 -153 -85 -251.5t-232 -135.5q94 -23 147.5 -100t110.5 -260q67 -211 123 -314v-8h-117q-23 50 -45 111.5t-46.5 137t-37.5 113.5q-27 78 -48.5 123t-57.5 86t-88 58.5t-127 17.5h-357v-649h-108zM270 735h392q177 0 268.5 90
t91.5 244q0 63 -18.5 115t-60 96t-117 69t-179.5 25h-377v-639zM295 1808h106l222 -174l221 174h106l-268 -231h-119z" />
    <glyph glyph-name="rcaron" unicode="&#x159;" horiz-adv-x="641" 
d="M240 1059v-211q87 219 342 219v-92q-106 0 -170 -41q-172 -91 -172 -381v-553h-103v1059h103zM29 1458h88l186 -209l189 209h88l-222 -268h-108z" />
    <glyph glyph-name="Sacute" unicode="&#x15a;" horiz-adv-x="1247" 
d="M223 438q9 -117 72.5 -202.5t154 -125.5t193.5 -40q76 0 141 16t119.5 49.5t85.5 92.5t31 139q0 60 -18.5 107t-46.5 77.5t-79 57.5t-97 43.5t-120 37.5q-135 40 -217.5 74t-149 82t-95 111t-29.5 151q0 118 63 204t164 127.5t226 41.5q197 0 329 -102.5t156 -305.5h-109
q-20 158 -121 239t-255 81q-148 0 -246.5 -75.5t-98.5 -207.5q0 -67 21 -114.5t73.5 -86t125 -67.5t190.5 -62q59 -17 96.5 -29.5t89 -33.5t84 -41t68.5 -51.5t56.5 -67t34 -83.5t13.5 -105q0 -86 -27.5 -153.5t-73 -110.5t-109 -71.5t-131 -40t-144.5 -11.5
q-99 0 -187 26.5t-163 79.5t-122.5 143t-55.5 207h108zM498 1595l262 207h153l-309 -207h-106z" />
    <glyph glyph-name="sacute" unicode="&#x15b;" horiz-adv-x="931" 
d="M743 743q-13 126 -89 185t-185 59q-66 0 -121.5 -18.5t-94 -63.5t-38.5 -110q0 -81 55 -126t156 -73q89 -24 147 -41q64 -19 110.5 -39.5t89.5 -52t65 -77t22 -103.5q0 -76 -35.5 -134.5t-94 -91.5t-123 -49t-132.5 -16t-130 17t-118.5 53.5t-97 100.5t-57.5 150h102
q17 -112 96.5 -174.5t204.5 -62.5q126 0 204.5 51t78.5 154q0 78 -54.5 119.5t-156.5 70.5q-27 7 -73.5 19.5t-74.5 19.5q-59 16 -105 37t-89.5 54t-67.5 81.5t-24 110.5q0 89 55.5 154.5t134.5 94.5t166 29q153 0 252.5 -81.5t124.5 -246.5h-103zM403 1194l199 268h127
l-250 -268h-76z" />
    <glyph glyph-name="Scircumflex" unicode="&#x15c;" horiz-adv-x="1247" 
d="M223 438q9 -117 72.5 -202.5t154 -125.5t193.5 -40q76 0 141 16t119.5 49.5t85.5 92.5t31 139q0 60 -18.5 107t-46.5 77.5t-79 57.5t-97 43.5t-120 37.5q-135 40 -217.5 74t-149 82t-95 111t-29.5 151q0 118 63 204t164 127.5t226 41.5q197 0 329 -102.5t156 -305.5h-109
q-20 158 -121 239t-255 81q-148 0 -246.5 -75.5t-98.5 -207.5q0 -67 21 -114.5t73.5 -86t125 -67.5t190.5 -62q59 -17 96.5 -29.5t89 -33.5t84 -41t68.5 -51.5t56.5 -67t34 -83.5t13.5 -105q0 -86 -27.5 -153.5t-73 -110.5t-109 -71.5t-131 -40t-144.5 -11.5
q-99 0 -187 26.5t-163 79.5t-122.5 143t-55.5 207h108zM283 1577l268 231h119l268 -231h-107l-221 174l-221 -174h-106z" />
    <glyph glyph-name="scircumflex" unicode="&#x15d;" horiz-adv-x="931" 
d="M743 743q-13 126 -89 185t-185 59q-66 0 -121.5 -18.5t-94 -63.5t-38.5 -110q0 -81 55 -126t156 -73q89 -24 147 -41q64 -19 110.5 -39.5t89.5 -52t65 -77t22 -103.5q0 -76 -35.5 -134.5t-94 -91.5t-123 -49t-132.5 -16t-130 17t-118.5 53.5t-97 100.5t-57.5 150h102
q17 -112 96.5 -174.5t204.5 -62.5q126 0 204.5 51t78.5 154q0 78 -54.5 119.5t-156.5 70.5q-27 7 -73.5 19.5t-74.5 19.5q-59 16 -105 37t-89.5 54t-67.5 81.5t-24 110.5q0 89 55.5 154.5t134.5 94.5t166 29q153 0 252.5 -81.5t124.5 -246.5h-103zM193 1194l221 268h108
l221 -268h-88l-188 209l-186 -209h-88z" />
    <glyph glyph-name="Scedilla" unicode="&#x15e;" horiz-adv-x="1247" 
d="M223 438q9 -117 72.5 -202.5t154 -125.5t193.5 -40q76 0 141 16t119.5 49.5t85.5 92.5t31 139q0 60 -18.5 107t-46.5 77.5t-79 57.5t-97 43.5t-120 37.5q-135 40 -217.5 74t-149 82t-95 111t-29.5 151q0 118 63 204t164 127.5t226 41.5q197 0 329 -102.5t156 -305.5h-109
q-20 158 -121 239t-255 81q-148 0 -246.5 -75.5t-98.5 -207.5q0 -67 21 -114.5t73.5 -86t125 -67.5t190.5 -62q59 -17 96.5 -29.5t89 -33.5t84 -41t68.5 -51.5t56.5 -67t34 -83.5t13.5 -105q0 -101 -37 -176.5t-102.5 -119t-142 -65.5t-168.5 -26l-113 -121l4 -2
q53 39 117 39q75 0 121.5 -38t46.5 -110q0 -83 -68.5 -124.5t-164.5 -41.5q-97 0 -183 41l25 64q39 -21 71.5 -30t81.5 -9q68 0 111 24.5t43 71.5q0 42 -26.5 65t-71.5 23q-17 0 -34.5 -2t-28.5 -4.5t-26.5 -8t-20.5 -7.5l-20 -8l-14 -7l-43 60l113 127q-92 5 -173.5 34.5
t-149 83t-110.5 140t-50 196.5h108z" />
    <glyph glyph-name="scedilla" unicode="&#x15f;" horiz-adv-x="931" 
d="M743 743q-13 126 -89 185t-185 59q-66 0 -121.5 -18.5t-94 -63.5t-38.5 -110q0 -81 55 -126t156 -73q89 -24 147 -41q64 -19 110.5 -39.5t89.5 -52t65 -77t22 -103.5q0 -68 -28.5 -122t-76 -87.5t-103 -53.5t-117.5 -26l-127 -135l4 -2q53 39 116 39q75 0 121.5 -38
t46.5 -110q0 -83 -68.5 -124.5t-164.5 -41.5t-182 41l24 64q71 -39 154 -39q68 0 110.5 24.5t42.5 71.5q0 42 -26.5 65t-71.5 23q-17 0 -34 -2t-28.5 -4.5t-26.5 -7.5t-20.5 -7.5t-19 -8.5t-14.5 -7l-43 60l123 137q-138 7 -242.5 85t-136.5 236h102q17 -112 96.5 -174.5
t204.5 -62.5q126 0 204.5 51t78.5 154q0 78 -54.5 119.5t-156.5 70.5q-27 7 -73.5 19.5t-74.5 19.5q-59 16 -105 37t-89.5 54t-67.5 81.5t-24 110.5q0 89 55.5 154.5t134.5 94.5t166 29q153 0 252.5 -81.5t124.5 -246.5h-103z" />
    <glyph glyph-name="Scaron" unicode="&#x160;" horiz-adv-x="1247" 
d="M223 438q9 -117 72.5 -202.5t154 -125.5t193.5 -40q76 0 141 16t119.5 49.5t85.5 92.5t31 139q0 60 -18.5 107t-46.5 77.5t-79 57.5t-97 43.5t-120 37.5q-135 40 -217.5 74t-149 82t-95 111t-29.5 151q0 118 63 204t164 127.5t226 41.5q197 0 329 -102.5t156 -305.5h-109
q-20 158 -121 239t-255 81q-148 0 -246.5 -75.5t-98.5 -207.5q0 -67 21 -114.5t73.5 -86t125 -67.5t190.5 -62q59 -17 96.5 -29.5t89 -33.5t84 -41t68.5 -51.5t56.5 -67t34 -83.5t13.5 -105q0 -86 -27.5 -153.5t-73 -110.5t-109 -71.5t-131 -40t-144.5 -11.5
q-99 0 -187 26.5t-163 79.5t-122.5 143t-55.5 207h108zM279 1808h106l221 -174l221 174h107l-268 -231h-119z" />
    <glyph glyph-name="scaron" unicode="&#x161;" horiz-adv-x="931" 
d="M743 743q-13 126 -89 185t-185 59q-66 0 -121.5 -18.5t-94 -63.5t-38.5 -110q0 -81 55 -126t156 -73q89 -24 147 -41q64 -19 110.5 -39.5t89.5 -52t65 -77t22 -103.5q0 -76 -35.5 -134.5t-94 -91.5t-123 -49t-132.5 -16t-130 17t-118.5 53.5t-97 100.5t-57.5 150h102
q17 -112 96.5 -174.5t204.5 -62.5q126 0 204.5 51t78.5 154q0 78 -54.5 119.5t-156.5 70.5q-27 7 -73.5 19.5t-74.5 19.5q-59 16 -105 37t-89.5 54t-67.5 81.5t-24 110.5q0 89 55.5 154.5t134.5 94.5t166 29q153 0 252.5 -81.5t124.5 -246.5h-103zM190 1458h89l186 -209
l188 209h88l-221 -268h-108z" />
    <glyph glyph-name="uni0162" unicode="&#x162;" horiz-adv-x="1138" 
d="M43 1374v88h1053v-88h-473v-1374h-107v1374h-473zM508 -279v175h147v-152q0 -170 -131 -170v53q36 9 48 29.5t12 64.5h-76z" />
    <glyph glyph-name="uni0163" unicode="&#x163;" horiz-adv-x="555" 
d="M281 207q0 -125 116 -125h82v-82h-76q-119 0 -172 54t-53 161v762h-158v82h158v260l103 47v-307h204v-82h-204v-770zM252 -268v174h147v-152q0 -170 -131 -170v54q36 9 48 29.5t12 64.5h-76z" />
    <glyph glyph-name="Tcaron" unicode="&#x164;" horiz-adv-x="1138" 
d="M43 1374v88h1053v-88h-473v-1374h-107v1374h-473zM242 1808h106l221 -174l222 174h106l-268 -231h-119z" />
    <glyph glyph-name="tcaron" unicode="&#x165;" horiz-adv-x="555" 
d="M281 207q0 -125 116 -125h82v-82h-76q-119 0 -172 54t-53 161v762h-158v82h158v260l103 47v-307h204v-82h-204v-770zM385 1153l16 309h105l-60 -309h-61z" />
    <glyph glyph-name="Tbar" unicode="&#x166;" horiz-adv-x="1138" 
d="M43 1374v88h1053v-88h-473v-366h350v-78h-350v-930h-107v930h-344v78h344v366h-473z" />
    <glyph glyph-name="tbar" unicode="&#x167;" horiz-adv-x="555" 
d="M457 612h-176v-405q0 -125 116 -125h82v-82h-76q-119 0 -172 54t-53 161v397h-158v72h158v293h-158v82h158v260l103 47v-307h204v-82h-204v-293h176v-72z" />
    <glyph glyph-name="Utilde" unicode="&#x168;" horiz-adv-x="1343" 
d="M1190 518q0 -117 -31.5 -214t-93.5 -170t-162.5 -113.5t-230.5 -40.5t-230 40.5t-162.5 113.5t-94 170t-31.5 214v944h108v-944q0 -199 106 -324.5t304 -125.5q199 0 305 125t106 325v944h107v-944zM338 1612q2 88 48.5 139t129.5 51q48 0 107 -31t111.5 -61.5
t84.5 -30.5q57 0 90 33t35 90h72q-1 -86 -58 -138t-139 -52q-39 0 -85 19t-81 41.5t-74 41.5t-65 19q-56 0 -80 -30.5t-26 -90.5h-70z" />
    <glyph glyph-name="utilde" unicode="&#x169;" horiz-adv-x="1091" 
d="M129 395v664h102v-660q0 -327 287 -327q51 0 96.5 12.5t90 43.5t76.5 78t51.5 123t19.5 173v557h102v-1059h-102v211q-100 -223 -340 -223q-83 0 -149.5 21.5t-120.5 67t-83.5 126.5t-29.5 192zM203 1274q0 88 47.5 138t130.5 50q48 0 107 -31t111.5 -61.5t84.5 -30.5
q56 0 90 33t35 90h72q-1 -86 -58 -138t-139 -52q-39 0 -85 19t-81.5 41.5t-74 41.5t-64.5 19q-56 0 -80.5 -30t-26.5 -89h-69z" />
    <glyph glyph-name="Umacron" unicode="&#x16a;" horiz-adv-x="1343" 
d="M1190 518q0 -117 -31.5 -214t-93.5 -170t-162.5 -113.5t-230.5 -40.5t-230 40.5t-162.5 113.5t-94 170t-31.5 214v944h108v-944q0 -199 106 -324.5t304 -125.5q199 0 305 125t106 325v944h107v-944zM385 1638v64h580v-64h-580z" />
    <glyph glyph-name="umacron" unicode="&#x16b;" horiz-adv-x="1091" 
d="M129 395v664h102v-660q0 -327 287 -327q51 0 96.5 12.5t90 43.5t76.5 78t51.5 123t19.5 173v557h102v-1059h-102v211q-100 -223 -340 -223q-83 0 -149.5 21.5t-120.5 67t-83.5 126.5t-29.5 192zM205 1253v62h676v-62h-676z" />
    <glyph glyph-name="Ubreve" unicode="&#x16c;" horiz-adv-x="1343" 
d="M1190 518q0 -117 -31.5 -214t-93.5 -170t-162.5 -113.5t-230.5 -40.5t-230 40.5t-162.5 113.5t-94 170t-31.5 214v944h108v-944q0 -199 106 -324.5t304 -125.5q199 0 305 125t106 325v944h107v-944zM391 1802h78q5 -65 61.5 -122.5t147.5 -57.5q90 0 146 58t59 122h80
q-11 -101 -89.5 -173.5t-195.5 -72.5q-118 0 -197 72.5t-90 173.5z" />
    <glyph glyph-name="ubreve" unicode="&#x16d;" horiz-adv-x="1091" 
d="M129 395v664h102v-660q0 -327 287 -327q51 0 96.5 12.5t90 43.5t76.5 78t51.5 123t19.5 173v557h102v-1059h-102v211q-100 -223 -340 -223q-83 0 -149.5 21.5t-120.5 67t-83.5 126.5t-29.5 192zM258 1462h78q5 -86 58.5 -145.5t150.5 -59.5q96 0 149 59.5t56 145.5h79
q-8 -123 -84.5 -196.5t-199.5 -73.5q-125 0 -202 73.5t-85 196.5z" />
    <glyph glyph-name="Uring" unicode="&#x16e;" horiz-adv-x="1343" 
d="M1190 518q0 -117 -31.5 -214t-93.5 -170t-162.5 -113.5t-230.5 -40.5t-230 40.5t-162.5 113.5t-94 170t-31.5 214v944h108v-944q0 -199 106 -324.5t304 -125.5q199 0 305 125t106 325v944h107v-944zM451 1792q0 92 65 156.5t156 64.5t156 -64.5t65 -156.5t-65 -156.5
t-156 -64.5t-156 64.5t-65 156.5zM530 1790q0 -65 39 -104t103 -39q63 0 101 40t38 103q0 65 -38 104t-101 39q-64 0 -103 -39t-39 -104z" />
    <glyph glyph-name="uring" unicode="&#x16f;" horiz-adv-x="1091" 
d="M129 395v664h102v-660q0 -327 287 -327q51 0 96.5 12.5t90 43.5t76.5 78t51.5 123t19.5 173v557h102v-1059h-102v211q-100 -223 -340 -223q-83 0 -149.5 21.5t-120.5 67t-83.5 126.5t-29.5 192zM317 1354q0 92 65.5 156.5t156.5 64.5t156 -64.5t65 -156.5t-65 -156.5
t-156 -64.5t-156.5 64.5t-65.5 156.5zM397 1352q0 -63 39.5 -104.5t102.5 -41.5q62 0 101.5 41t39.5 105q0 63 -39 104t-102 41t-102.5 -41t-39.5 -104z" />
    <glyph glyph-name="Uhungarumlaut" unicode="&#x170;" horiz-adv-x="1343" 
d="M1190 518q0 -117 -31.5 -214t-93.5 -170t-162.5 -113.5t-230.5 -40.5t-230 40.5t-162.5 113.5t-94 170t-31.5 214v944h108v-944q0 -199 106 -324.5t304 -125.5q199 0 305 125t106 325v944h107v-944zM457 1599l198 207h121l-241 -207h-78zM688 1599l197 207h123l-244 -207
h-76z" />
    <glyph glyph-name="uhungarumlaut" unicode="&#x171;" horiz-adv-x="1091" 
d="M129 395v664h102v-660q0 -327 287 -327q51 0 96.5 12.5t90 43.5t76.5 78t51.5 123t19.5 173v557h102v-1059h-102v211q-100 -223 -340 -223q-83 0 -149.5 21.5t-120.5 67t-83.5 126.5t-29.5 192zM330 1194l198 268h121l-241 -268h-78zM561 1194l197 268h123l-244 -268h-76
z" />
    <glyph glyph-name="Uogonek" unicode="&#x172;" horiz-adv-x="1343" 
d="M1190 518q0 -210 -98.5 -351t-292.5 -177q-86 -61 -125 -107.5t-39 -107.5q2 -54 42 -86.5t114 -32.5v-59q-98 0 -168 44.5t-70 129.5q-1 64 29 112t92 97h-2q-130 0 -230 40.5t-162.5 113.5t-94 170t-31.5 214v944h108v-944q0 -199 106 -324.5t304 -125.5q199 0 305 125
t106 325v944h107v-944z" />
    <glyph glyph-name="uogonek" unicode="&#x173;" horiz-adv-x="1091" 
d="M129 395v664h102v-660q0 -327 287 -327q51 0 96.5 12.5t90 43.5t76.5 78t51.5 123t19.5 173v557h102v-1059h-2q-90 -63 -128.5 -110.5t-39.5 -112.5q-2 -54 41 -87.5t119 -33.5v-57q-99 0 -167 44.5t-68 129.5q-1 69 33.5 119t107.5 108h2v211q-100 -223 -340 -223
q-83 0 -149.5 21.5t-120.5 67t-83.5 126.5t-29.5 192z" />
    <glyph glyph-name="Wcircumflex" unicode="&#x174;" horiz-adv-x="1812" 
d="M27 1462h114l281 -1100l67 -249h3l63 249l270 1100h160l266 -1093l68 -258h4l66 260l280 1091h117l-291 -1089l-98 -373h-154l-92 367l-246 981h-2l-248 -983l-90 -365h-151l-97 362zM573 1577l269 231h119l268 -231h-107l-221 174l-221 -174h-107z" />
    <glyph glyph-name="wcircumflex" unicode="&#x175;" horiz-adv-x="1409" 
d="M338 0l-315 1059h104l211 -729l55 -197h2q9 33 27 99.5t27 99.5l198 727h115l196 -717q6 -24 26.5 -96.5t29.5 -112.5h2l61 211l205 715h104l-315 -1059h-110l-201 737l-53 189h-2q-9 -32 -26 -95t-26 -94l-204 -737h-111zM461 1194l221 268h109l221 -268h-88l-189 209
l-186 -209h-88z" />
    <glyph glyph-name="Ycircumflex" unicode="&#x176;" horiz-adv-x="1175" 
d="M156 1462q36 -63 192 -338.5t238 -423.5h4q70 127 214.5 381t215.5 381h121l-500 -870v-592h-106v592l-498 870h119zM258 1577l268 231h119l268 -231h-106l-221 174l-221 -174h-107z" />
    <glyph glyph-name="ycircumflex" unicode="&#x177;" horiz-adv-x="999" 
d="M127 1059q43 -107 179 -445.5t210 -523.5h2q59 161 177 484.5t177 484.5h105q-118 -319 -477 -1274q-36 -99 -87 -147t-151 -48h-84v84h82q23 0 42.5 5.5t35 18.5t26 24.5t21 33t16 34t14.5 37.5t13 34l37 102l-442 1096h104zM217 1194l221 268h109l221 -268h-88
l-188 209l-187 -209h-88z" />
    <glyph glyph-name="Ydieresis" unicode="&#x178;" horiz-adv-x="1175" 
d="M156 1462q36 -63 192 -338.5t238 -423.5h4q70 127 214.5 381t215.5 381h121l-500 -870v-592h-106v592l-498 870h119zM391 1595v207h98v-207h-98zM674 1595v207h100v-207h-100z" />
    <glyph glyph-name="Zacute" unicode="&#x179;" horiz-adv-x="1234" 
d="M102 88l895 1284h-850v90h971v-88l-891 -1284h916v-90h-1041v88zM492 1595l262 207h153l-309 -207h-106z" />
    <glyph glyph-name="zacute" unicode="&#x17a;" horiz-adv-x="978" 
d="M780 977q-22 0 -72 -1t-75 -1h-500v84h762v-68l-707 -909q20 0 56 1t53 1h606v-84h-827v72zM418 1194l198 268h127l-249 -268h-76z" />
    <glyph glyph-name="Zdotaccent" unicode="&#x17b;" horiz-adv-x="1234" 
d="M102 88l895 1284h-850v90h971v-88l-891 -1284h916v-90h-1041v88zM555 1604v198h100v-198h-100z" />
    <glyph glyph-name="zdotaccent" unicode="&#x17c;" horiz-adv-x="978" 
d="M780 977q-22 0 -72 -1t-75 -1h-500v84h762v-68l-707 -909q20 0 56 1t53 1h606v-84h-827v72zM432 1278v184h96v-184h-96z" />
    <glyph glyph-name="Zcaron" unicode="&#x17d;" horiz-adv-x="1234" 
d="M102 88l895 1284h-850v90h971v-88l-891 -1284h916v-90h-1041v88zM274 1808h107l221 -174l221 174h107l-268 -231h-119z" />
    <glyph glyph-name="zcaron" unicode="&#x17e;" horiz-adv-x="978" 
d="M780 977q-22 0 -72 -1t-75 -1h-500v84h762v-68l-707 -909q20 0 56 1t53 1h606v-84h-827v72zM205 1458h88l186 -209l189 209h88l-221 -268h-109z" />
    <glyph glyph-name="florin" unicode="&#x192;" horiz-adv-x="733" 
d="M-80 -293l14 82h66q85 0 125.5 45.5t62.5 169.5l142 801h-221l16 82h219l55 311q11 61 27.5 104.5t46 82t78.5 58t117 19.5h114l-16 -84h-68q-98 0 -138.5 -35.5t-61.5 -152.5l-54 -303h228l-17 -82h-225l-145 -813q-10 -54 -21 -92t-31.5 -77t-49 -62.5t-74 -38.5
t-105.5 -15h-84z" />
    <glyph glyph-name="Aringacute" unicode="&#x1fa;" horiz-adv-x="1339" 
d="M156 0h-113l551 1462h154l548 -1462h-112l-176 477h-674zM367 565h608l-303 807h-4zM442 1792q0 91 63 155t152 66l211 150h154l-274 -166q61 -25 99 -81t38 -124q0 -92 -65 -156.5t-156 -64.5t-156.5 64.5t-65.5 156.5zM522 1790q0 -65 39 -104t103 -39q63 0 101 40
t38 103q0 65 -38 104t-101 39q-64 0 -103 -39t-39 -104z" />
    <glyph glyph-name="aringacute" unicode="&#x1fb;" horiz-adv-x="1087" 
d="M150 745q12 61 43 117t79.5 104t122 76.5t160.5 28.5q88 0 157 -19t113 -50.5t73 -75t40.5 -89.5t11.5 -98l2 -520q0 -108 19 -219h-109q-10 59 -10 168v55h-2q-111 -237 -385 -237q-181 0 -281 86.5t-100 214.5q0 73 35 129.5t100 93t139 59t170 37.5q85 13 135.5 24.5
t98.5 29.5t69 44t21 62q0 111 -81 166t-214 55q-116 0 -195 -62.5t-110 -179.5h-102zM186 287q0 -93 76 -156t209 -63q164 0 274.5 112.5t110.5 306.5v170q-24 -49 -109 -80.5t-239 -56.5q-152 -23 -237 -81t-85 -152zM332 1360q0 86 56 148t138 71l168 227h127l-215 -231
q73 -19 120.5 -78.5t47.5 -136.5q0 -92 -65 -156.5t-156 -64.5t-156 64.5t-65 156.5zM412 1358q0 -64 39.5 -105t101.5 -41t101.5 41t39.5 105q0 63 -39 104t-102 41t-102 -41t-39 -104z" />
    <glyph glyph-name="AEacute" unicode="&#x1fc;" horiz-adv-x="1947" 
d="M43 0l868 1462h901v-88h-708v-581h665v-88h-665v-617h715v-88h-824v481h-549l-286 -481h-117zM498 569h497v805h-20zM1352 1595l262 207h153l-309 -207h-106z" />
    <glyph glyph-name="aeacute" unicode="&#x1fd;" horiz-adv-x="1814" 
d="M84 287q0 59 24 107t63.5 81.5t97.5 60t120 42.5t137 28q83 13 135 24.5t98.5 30t67.5 44t21 61.5q0 113 -81 167t-216 54q-115 0 -192.5 -62.5t-108.5 -179.5h-100q12 59 42.5 114.5t78 104t120.5 78t160 29.5q165 0 257 -66t116 -169q105 235 360 235
q116 0 200.5 -37.5t135.5 -107.5t77.5 -159t33.5 -204q4 -46 4 -65h-787q5 -193 90.5 -308.5t251.5 -115.5q123 0 207 62.5t127 174.5h105q-50 -150 -159.5 -236.5t-279.5 -86.5q-306 0 -391 284q-18 -53 -51.5 -100.5t-85 -91t-128.5 -69t-169 -25.5q-182 0 -281.5 86
t-99.5 215zM186 287q0 -94 74.5 -156.5t208.5 -62.5q172 0 276.5 111t104.5 308v166q-26 -47 -110.5 -77.5t-233.5 -53.5q-151 -24 -235.5 -83t-84.5 -152zM838 1194l198 268h127l-250 -268h-75zM950 580h682q-20 208 -99.5 307.5t-248.5 99.5q-161 0 -244.5 -110
t-89.5 -297z" />
    <glyph glyph-name="Oslashacute" unicode="&#x1fe;" horiz-adv-x="1650" 
d="M823 1485q162 0 296.5 -53.5t230.5 -151.5l174 162l59 -58l-178 -165q160 -202 160 -490q0 -155 -51 -292t-144.5 -239t-235 -161.5t-311.5 -59.5q-327 0 -532 211l-170 -157l-53 59l170 158q-154 202 -154 481q0 155 51 292.5t144 240.5t234 163t310 60zM193 729
q0 -236 120 -410l965 893q-171 183 -455 183q-124 0 -229 -38t-178 -102.5t-124 -150.5t-75 -180.5t-24 -194.5zM365 256q172 -190 458 -190q126 0 231.5 37.5t179 101.5t125 149.5t75.5 180t24 194.5q0 238 -129 420zM713 1595l262 207h153l-309 -207h-106z" />
    <glyph glyph-name="oslashacute" unicode="&#x1ff;" horiz-adv-x="1167" 
d="M584 -12q-194 0 -324 108l-102 -114l-64 51l107 121q-129 150 -129 372q0 109 34.5 207t98.5 173.5t162 120t217 44.5q193 0 327 -115l113 127l57 -57l-112 -129q127 -152 127 -371q0 -108 -35.5 -205t-99.5 -171.5t-162 -118t-215 -43.5zM174 526q0 -177 94 -297
l580 656q-105 102 -264 102q-120 0 -214.5 -61.5t-145 -166t-50.5 -233.5zM324 168q108 -94 260 -94q180 0 294.5 130t114.5 322q0 173 -90 299zM520 1194l199 268h127l-250 -268h-76z" />
    <glyph glyph-name="uni0218" unicode="&#x218;" horiz-adv-x="1247" 
d="M223 438q9 -117 72.5 -202.5t154 -125.5t193.5 -40q76 0 141 16t119.5 49.5t85.5 92.5t31 139q0 60 -18.5 107t-46.5 77.5t-79 57.5t-97 43.5t-120 37.5q-135 40 -217.5 74t-149 82t-95 111t-29.5 151q0 118 63 204t164 127.5t226 41.5q197 0 329 -102.5t156 -305.5h-109
q-20 158 -121 239t-255 81q-148 0 -246.5 -75.5t-98.5 -207.5q0 -67 21 -114.5t73.5 -86t125 -67.5t190.5 -62q59 -17 96.5 -29.5t89 -33.5t84 -41t68.5 -51.5t56.5 -67t34 -83.5t13.5 -105q0 -86 -27.5 -153.5t-73 -110.5t-109 -71.5t-131 -40t-144.5 -11.5
q-99 0 -187 26.5t-163 79.5t-122.5 143t-55.5 207h108zM578 -276v174h147v-152q0 -170 -131 -170v53q35 9 47 29.5t12 65.5h-75z" />
    <glyph glyph-name="uni0219" unicode="&#x219;" horiz-adv-x="931" 
d="M743 743q-13 126 -89 185t-185 59q-66 0 -121.5 -18.5t-94 -63.5t-38.5 -110q0 -81 55 -126t156 -73q89 -24 147 -41q64 -19 110.5 -39.5t89.5 -52t65 -77t22 -103.5q0 -76 -35.5 -134.5t-94 -91.5t-123 -49t-132.5 -16t-130 17t-118.5 53.5t-97 100.5t-57.5 150h102
q17 -112 96.5 -174.5t204.5 -62.5q126 0 204.5 51t78.5 154q0 78 -54.5 119.5t-156.5 70.5q-27 7 -73.5 19.5t-74.5 19.5q-59 16 -105 37t-89.5 54t-67.5 81.5t-24 110.5q0 89 55.5 154.5t134.5 94.5t166 29q153 0 252.5 -81.5t124.5 -246.5h-103zM410 -279v175h147v-152
q0 -170 -131 -170v53q35 9 47 29t12 65h-75z" />
    <glyph glyph-name="uni021A" unicode="&#x21a;" horiz-adv-x="1138" 
d="M43 1374v88h1053v-88h-473v-1374h-107v1374h-473zM508 -279v175h147v-152q0 -170 -131 -170v53q36 9 48 29.5t12 64.5h-76z" />
    <glyph glyph-name="uni021B" unicode="&#x21b;" horiz-adv-x="555" 
d="M281 207q0 -125 116 -125h82v-82h-76q-119 0 -172 54t-53 161v762h-158v82h158v260l103 47v-307h204v-82h-204v-770zM252 -268v174h147v-152q0 -170 -131 -170v54q36 9 48 29.5t12 64.5h-76z" />
    <glyph glyph-name="uni0237" unicode="&#x237;" horiz-adv-x="415" 
d="M279 -193q0 -104 -51.5 -157t-168.5 -53h-82v84h82q61 0 88 28.5t27 87.5v1262h105v-1252z" />
    <glyph glyph-name="circumflex" unicode="&#x2c6;" horiz-adv-x="882" 
d="M96 1194l221 268h109l221 -268h-88l-188 209l-187 -209h-88z" />
    <glyph glyph-name="caron" unicode="&#x2c7;" horiz-adv-x="704" 
d="M76 1458h88l186 -209l189 209h88l-221 -268h-109z" />
    <glyph glyph-name="breve" unicode="&#x2d8;" horiz-adv-x="784" 
d="M395 1192q-125 0 -201.5 73.5t-84.5 196.5h77q5 -86 58.5 -145.5t150.5 -59.5q96 0 149 59.5t56 145.5h80q-8 -122 -84.5 -196t-200.5 -74z" />
    <glyph glyph-name="dotaccent" unicode="&#x2d9;" horiz-adv-x="182" 
d="M139 1278h-96v184h96v-184z" />
    <glyph glyph-name="ring" unicode="&#x2da;" horiz-adv-x="608" 
d="M82 1354q0 92 65 156.5t156 64.5t156 -64.5t65 -156.5t-65 -156.5t-156 -64.5t-156 64.5t-65 156.5zM162 1352q0 -64 39.5 -105t101.5 -41t101.5 41t39.5 105q0 63 -39 104t-102 41t-102 -41t-39 -104z" />
    <glyph glyph-name="ogonek" unicode="&#x2db;" horiz-adv-x="555" 
d="M410 0q-90 -63 -128.5 -110.5t-39.5 -112.5q-2 -54 40.5 -87.5t118.5 -33.5v-57q-99 0 -167 44.5t-68 129.5q-1 69 33.5 119t107.5 108h103z" />
    <glyph glyph-name="tilde" unicode="&#x2dc;" horiz-adv-x="1275" 
d="M295 1274q0 88 47.5 138t130.5 50q48 0 107 -31t111.5 -61.5t84.5 -30.5q56 0 90 33t35 90h72q-1 -86 -58 -138t-139 -52q-39 0 -85 19t-81.5 41.5t-74 41.5t-64.5 19q-56 0 -80 -30t-26 -89h-70z" />
    <glyph glyph-name="hungarumlaut" unicode="&#x2dd;" horiz-adv-x="845" 
d="M539 1462h123l-244 -268h-76zM111 1194l198 268h121l-242 -268h-77z" />
    <glyph glyph-name="gravecomb" unicode="&#x300;" 
d="M152 1462l198 -268h-76l-249 268h127z" />
    <glyph glyph-name="acutecomb" unicode="&#x301;" 
d="M420 1462h127l-250 -268h-76z" />
    <glyph glyph-name="uni0302" unicode="&#x302;" 
d="M96 1194l221 268h109l221 -268h-88l-188 209l-187 -209h-88z" />
    <glyph glyph-name="tildecomb" unicode="&#x303;" 
d="M295 1274q0 88 47.5 138t130.5 50q48 0 107 -31t111.5 -61.5t84.5 -30.5q56 0 90 33t35 90h72q-1 -86 -58 -138t-139 -52q-39 0 -85 19t-81.5 41.5t-74 41.5t-64.5 19q-56 0 -80 -30t-26 -89h-70z" />
    <glyph glyph-name="uni0304" unicode="&#x304;" 
d="M80 1315h676v-62h-676v62z" />
    <glyph glyph-name="uni0306" unicode="&#x306;" 
d="M395 1192q-125 0 -201.5 73.5t-84.5 196.5h77q5 -86 58.5 -145.5t150.5 -59.5q96 0 149 59.5t56 145.5h80q-8 -122 -84.5 -196t-200.5 -74z" />
    <glyph glyph-name="uni0307" unicode="&#x307;" 
d="M139 1278h-96v184h96v-184z" />
    <glyph glyph-name="uni0308" unicode="&#x308;" 
d="M180 1462h94v-184h-94v184zM438 1278v184h94v-184h-94z" />
    <glyph glyph-name="uni030A" unicode="&#x30a;" 
d="M82 1354q0 92 65 156.5t156 64.5t156 -64.5t65 -156.5t-65 -156.5t-156 -64.5t-156 64.5t-65 156.5zM162 1352q0 -64 39.5 -105t101.5 -41t101.5 41t39.5 105q0 63 -39 104t-102 41t-102 -41t-39 -104z" />
    <glyph glyph-name="uni030B" unicode="&#x30b;" 
d="M539 1462h123l-244 -268h-76zM111 1194l198 268h121l-242 -268h-77z" />
    <glyph glyph-name="uni030C" unicode="&#x30c;" 
d="M76 1458h88l186 -209l189 209h88l-221 -268h-109z" />
    <glyph glyph-name="uni0312" unicode="&#x312;" 
d="M260 1241h-147v152q0 170 131 170v-54q-35 -9 -47.5 -29.5t-12.5 -64.5h76v-174z" />
    <glyph glyph-name="uni0326" unicode="&#x326;" 
d="M125 -104h147v-152q0 -170 -131 -170v53q36 9 48 29.5t12 64.5h-76v175z" />
    <glyph glyph-name="uni0327" unicode="&#x327;" 
d="M244 -418q-97 0 -183 41l25 64q71 -39 154 -39q68 0 110.5 24.5t42.5 71.5q0 42 -26.5 65t-71.5 23q-17 0 -34 -2t-28.5 -4.5t-26.5 -7.5t-20.5 -7.5t-19 -8.5t-14.5 -7l-43 60l129 145h81l-131 -141l5 -2q53 39 116 39q75 0 121.5 -38t46.5 -110q0 -83 -68.5 -124.5
t-164.5 -41.5z" />
    <glyph glyph-name="uni0328" unicode="&#x328;" 
d="M410 0q-90 -63 -128.5 -110.5t-39.5 -112.5q-2 -54 40.5 -87.5t118.5 -33.5v-57q-99 0 -167 44.5t-68 129.5q-1 69 33.5 119t107.5 108h103z" />
    <glyph glyph-name="uni0335" unicode="&#x335;" 
d="M1229 1214h-699v74h699v-74z" />
    <glyph glyph-name="uni0338" unicode="&#x338;" 
d="M1104 1026l-924 -1044l-63 51l930 1050z" />
    <glyph glyph-name="uni0374" unicode="&#x374;" horiz-adv-x="460" 
d="M242 1462h118l-182 -309h-78z" />
    <glyph glyph-name="uni0375" unicode="&#x375;" horiz-adv-x="464" 
d="M221 -418h-119l183 309h77z" />
    <glyph glyph-name="uni037E" unicode="&#x37e;" horiz-adv-x="382" 
d="M154 233h116l-133 -469h-82zM152 711v233h104v-233h-104z" />
    <glyph glyph-name="tonos" unicode="&#x384;" horiz-adv-x="526" 
d="M352 1462h119l-182 -268h-78z" />
    <glyph glyph-name="dieresistonos" unicode="&#x385;" horiz-adv-x="712" 
d="M98 1462h97v-184h-97v184zM258 1221l92 309h117l-133 -309h-76zM516 1278v184h94v-184h-94z" />
    <glyph glyph-name="Alphatonos" unicode="&#x386;" horiz-adv-x="1337" 
d="M156 0h-113l551 1462h154l548 -1462h-112l-176 477h-674zM111 1155l100 307h121l-146 -307h-75zM367 565h608l-303 807h-4z" />
    <glyph glyph-name="anoteleia" unicode="&#x387;" horiz-adv-x="520" 
d="M260 666q54 0 92.5 -38.5t38.5 -92.5q0 -50 -39.5 -91t-89.5 -41q-54 0 -93.5 39t-39.5 93t38.5 92.5t92.5 38.5z" />
    <glyph glyph-name="Epsilontonos" unicode="&#x388;" horiz-adv-x="1163" 
d="M1030 1462v-88h-760v-581h717v-88h-717v-617h766v-88h-874v1462h868zM-158 1155l101 307h120l-145 -307h-76z" />
    <glyph glyph-name="Etatonos" unicode="&#x389;" horiz-adv-x="1359" 
d="M1087 1462h109v-1462h-109v702h-817v-702h-108v1462h108v-671h817v671zM-158 1155l101 307h120l-145 -307h-76z" />
    <glyph glyph-name="Iotatonos" unicode="&#x38a;" horiz-adv-x="432" 
d="M162 1462h108v-1462h-108v1462zM-139 1155l100 307h121l-145 -307h-76z" />
    <glyph glyph-name="Omicrontonos" unicode="&#x38c;" horiz-adv-x="1646" 
d="M823 1485q170 0 311.5 -60t234.5 -163t144.5 -240.5t51.5 -292.5t-51 -292t-144.5 -239t-235 -161.5t-311.5 -59.5q-169 0 -310 59.5t-234 161.5t-144 239t-51 292t51 292.5t144 240.5t234 163t310 60zM-72 1155l101 307h121l-146 -307h-76zM193 729q0 -100 24 -194.5
t75 -180t124 -149.5t178 -101.5t229 -37.5q126 0 231.5 37.5t179 101.5t125 149.5t75.5 180t24 194.5t-24 194.5t-75.5 180.5t-125 150.5t-179 102.5t-231.5 38q-124 0 -229 -38t-178 -102.5t-124 -150.5t-75 -180.5t-24 -194.5z" />
    <glyph glyph-name="Upsilontonos" unicode="&#x38e;" horiz-adv-x="1165" 
d="M156 1462q36 -63 192 -338.5t238 -423.5h4q70 127 214.5 381t215.5 381h121l-500 -870v-592h-106v592l-498 870h119zM-258 1155l100 307h121l-145 -307h-76z" />
    <glyph glyph-name="Omegatonos" unicode="&#x38f;" horiz-adv-x="1464" 
d="M92 0v88h443v201q-82 18 -162.5 69.5t-145.5 126.5t-105 176.5t-40 208.5q0 176 78 314.5t223.5 217.5t335.5 79t335.5 -79t223.5 -217.5t78 -314.5q0 -107 -40 -208.5t-105 -176.5t-145 -126.5t-161 -69.5v-201h438v-88h-532v356q192 33 319 180.5t127 327.5
q0 230 -148 379.5t-390 149.5t-390.5 -149.5t-148.5 -379.5q0 -180 127.5 -327.5t319.5 -180.5v-356h-535zM-74 1155l101 307h120l-145 -307h-76z" />
    <glyph glyph-name="iotadieresistonos" unicode="&#x390;" horiz-adv-x="458" 
d="M338 -2q-117 0 -164 52t-47 161v848h102v-854q0 -60 28 -89.5t97 -29.5q24 0 47 2v-86q-46 -4 -63 -4zM-72 1278v184h97v-184h-97zM88 1221l92 309h117l-133 -309h-76zM346 1278v184h94v-184h-94z" />
    <glyph glyph-name="Alpha" unicode="&#x391;" horiz-adv-x="1339" 
d="M156 0h-113l551 1462h154l548 -1462h-112l-176 477h-674zM367 565h608l-303 807h-4z" />
    <glyph glyph-name="Beta" unicode="&#x392;" horiz-adv-x="1249" 
d="M162 0v1462h471q128 0 227.5 -40.5t160 -128t60.5 -212.5q0 -122 -76.5 -207.5t-191.5 -113.5v-2q140 -14 235 -111t95 -254q0 -183 -131 -288t-348 -105h-502zM270 88h385q176 0 277.5 84t101.5 221q0 150 -96 232t-268 82h-400v-619zM270 795h324q181 0 280 73.5
t99 212.5q0 143 -93 218t-272 75h-338v-579z" />
    <glyph glyph-name="Gamma" unicode="&#x393;" horiz-adv-x="1024" 
d="M162 0v1462h813v-88h-705v-1374h-108z" />
    <glyph glyph-name="uni0394" unicode="&#x394;" horiz-adv-x="1380" 
d="M43 0l571 1462h154l569 -1462h-1294zM190 88h1000l-498 1284h-4z" />
    <glyph glyph-name="Epsilon" unicode="&#x395;" horiz-adv-x="1163" 
d="M1030 1462v-88h-760v-581h717v-88h-717v-617h766v-88h-874v1462h868z" />
    <glyph glyph-name="Zeta" unicode="&#x396;" horiz-adv-x="1234" 
d="M102 88l895 1284h-850v90h971v-88l-891 -1284h916v-90h-1041v88z" />
    <glyph glyph-name="Eta" unicode="&#x397;" horiz-adv-x="1359" 
d="M1087 1462h109v-1462h-109v702h-817v-702h-108v1462h108v-671h817v671z" />
    <glyph glyph-name="Theta" unicode="&#x398;" horiz-adv-x="1646" 
d="M823 1485q170 0 311.5 -60t234.5 -163t144.5 -240.5t51.5 -292.5t-51 -292t-144.5 -239t-235 -161.5t-311.5 -59.5q-169 0 -310 59.5t-234 161.5t-144 239t-51 292t51 292.5t144 240.5t234 163t310 60zM193 729q0 -100 24 -194.5t75 -180t124 -149.5t178 -101.5
t229 -37.5q126 0 231.5 37.5t179 101.5t125 149.5t75.5 180t24 194.5t-24 194.5t-75.5 180.5t-125 150.5t-179 102.5t-231.5 38q-124 0 -229 -38t-178 -102.5t-124 -150.5t-75 -180.5t-24 -194.5zM428 684v90h764v-90h-764z" />
    <glyph glyph-name="Iota" unicode="&#x399;" horiz-adv-x="432" 
d="M162 1462h108v-1462h-108v1462z" />
    <glyph glyph-name="Kappa" unicode="&#x39a;" horiz-adv-x="1267" 
d="M270 0h-108v1462h108v-800l748 800h137l-563 -598l620 -864h-129l-561 791l-252 -269v-522z" />
    <glyph glyph-name="Lambda" unicode="&#x39b;" horiz-adv-x="1300" 
d="M27 0l557 1462h133l557 -1462h-119l-504 1346h-4l-504 -1346h-116z" />
    <glyph glyph-name="Mu" unicode="&#x39c;" horiz-adv-x="1650" 
d="M162 0v1462h164l505 -1329h3l501 1329h164v-1462h-108v1311h-2l-500 -1311h-117l-500 1311h-2v-1311h-108z" />
    <glyph glyph-name="Nu" unicode="&#x39d;" horiz-adv-x="1415" 
d="M162 1462h121l723 -1083q17 -26 66 -103.5t75 -115.5q0 40 -1 127t-1 127v1048h108v-1462h-123l-702 1057q-23 34 -77 118t-83 125q0 -46 1 -144t1 -144v-1012h-108v1462z" />
    <glyph glyph-name="Xi" unicode="&#x39e;" horiz-adv-x="1220" 
d="M92 0v88h1036v-88h-1036zM92 1374v88h1030v-88h-1030zM174 705v88h885v-88h-885z" />
    <glyph glyph-name="Omicron" unicode="&#x39f;" horiz-adv-x="1646" 
d="M823 1485q170 0 311.5 -60t234.5 -163t144.5 -240.5t51.5 -292.5t-51 -292t-144.5 -239t-235 -161.5t-311.5 -59.5q-169 0 -310 59.5t-234 161.5t-144 239t-51 292t51 292.5t144 240.5t234 163t310 60zM193 729q0 -100 24 -194.5t75 -180t124 -149.5t178 -101.5
t229 -37.5q126 0 231.5 37.5t179 101.5t125 149.5t75.5 180t24 194.5t-24 194.5t-75.5 180.5t-125 150.5t-179 102.5t-231.5 38q-124 0 -229 -38t-178 -102.5t-124 -150.5t-75 -180.5t-24 -194.5z" />
    <glyph glyph-name="Pi" unicode="&#x3a0;" horiz-adv-x="1359" 
d="M1198 1462v-1462h-108v1374h-820v-1374h-108v1462h1036z" />
    <glyph glyph-name="Rho" unicode="&#x3a1;" horiz-adv-x="1153" 
d="M569 717q189 0 290.5 85.5t101.5 254.5q0 148 -95.5 232.5t-277.5 84.5h-318v-657h299zM162 0v1462h446q131 0 234.5 -46t165 -139t61.5 -220q0 -199 -132 -313.5t-347 -114.5h-320v-629h-108z" />
    <glyph glyph-name="Sigma" unicode="&#x3a3;" horiz-adv-x="1191" 
d="M733 731l-502 -643h899v-88h-1026v82l517 651l-517 647v82h1026v-88h-899z" />
    <glyph glyph-name="Tau" unicode="&#x3a4;" horiz-adv-x="1140" 
d="M43 1374v88h1053v-88h-473v-1374h-107v1374h-473z" />
    <glyph glyph-name="Upsilon" unicode="&#x3a5;" horiz-adv-x="1165" 
d="M156 1462q36 -63 192 -338.5t238 -423.5h4q70 127 214.5 381t215.5 381h121l-500 -870v-592h-106v592l-498 870h119z" />
    <glyph glyph-name="Phi" unicode="&#x3a6;" horiz-adv-x="1531" 
d="M713 -35v193q-335 9 -508.5 156t-173.5 415q0 270 173.5 416t508.5 155v197h106v-197q336 -9 509 -154.5t173 -416.5q0 -270 -173.5 -416t-508.5 -155v-193h-106zM137 729q0 -227 146.5 -350.5t429.5 -132.5v968q-283 -9 -429.5 -133t-146.5 -352zM819 246
q283 9 429.5 132.5t146.5 350.5q0 228 -146.5 352t-429.5 133v-968z" />
    <glyph glyph-name="Chi" unicode="&#x3a7;" horiz-adv-x="1185" 
d="M27 0l508 752l-496 710h125l434 -620l438 620h121l-498 -710l510 -752h-125l-446 659l-448 -659h-123z" />
    <glyph glyph-name="Psi" unicode="&#x3a8;" horiz-adv-x="1456" 
d="M674 0v352q-274 8 -434 154.5t-160 392.5v563h108v-563q0 -203 132.5 -327t353.5 -132v1022h108v-1022q222 6 354 130t132 329v563h108v-563q0 -246 -160 -393.5t-434 -153.5v-352h-108z" />
    <glyph glyph-name="uni03A9" unicode="&#x3a9;" horiz-adv-x="1464" 
d="M92 0v88h443v201q-82 18 -162.5 69.5t-145.5 126.5t-105 176.5t-40 208.5q0 176 78 314.5t223.5 217.5t335.5 79t335.5 -79t223.5 -217.5t78 -314.5q0 -107 -40 -208.5t-105 -176.5t-145 -126.5t-161 -69.5v-201h438v-88h-532v356q192 33 319 180.5t127 327.5
q0 230 -148 379.5t-390 149.5t-390.5 -149.5t-148.5 -379.5q0 -180 127.5 -327.5t319.5 -180.5v-356h-535z" />
    <glyph glyph-name="Iotadieresis" unicode="&#x3aa;" horiz-adv-x="432" 
d="M162 1462h108v-1462h-108v1462zM23 1595v207h98v-207h-98zM305 1595v207h101v-207h-101z" />
    <glyph glyph-name="Upsilondieresis" unicode="&#x3ab;" horiz-adv-x="1165" 
d="M156 1462q36 -63 192 -338.5t238 -423.5h4q70 127 214.5 381t215.5 381h121l-500 -870v-592h-106v592l-498 870h119zM389 1595v207h98v-207h-98zM672 1595v207h100v-207h-100z" />
    <glyph glyph-name="alphatonos" unicode="&#x3ac;" horiz-adv-x="1263" 
d="M549 -14q-119 0 -212 43.5t-150 118.5t-86 171t-29 207q0 113 29 210.5t86 173.5t149 119.5t209 43.5q278 0 383 -219h4v205h102v-854q0 -61 27.5 -91t95.5 -30q24 0 47 2v-86q-20 -2 -63 -2q-115 0 -162 49.5t-47 153.5v6h-2q-100 -221 -381 -221zM174 526
q0 -199 100 -325.5t279 -126.5q188 0 288.5 118t100.5 334q0 219 -100.5 339t-288.5 120q-179 0 -279 -128t-100 -331zM432 1194l141 268h119l-182 -268h-78z" />
    <glyph glyph-name="epsilontonos" unicode="&#x3ad;" horiz-adv-x="1046" 
d="M498 -16q-195 0 -305.5 80.5t-110.5 218.5q0 204 256 266v2q-227 60 -227 258q0 120 104 190t274 70q179 0 304 -84.5t153 -249.5h-100q-23 123 -116.5 186.5t-235.5 63.5q-122 0 -202.5 -50t-80.5 -132q0 -96 77 -153.5t214 -57.5h147l-2 -88h-145q-151 0 -234.5 -58.5
t-83.5 -158.5t84.5 -159.5t231.5 -59.5q171 0 268 67.5t119 169.5h102q-15 -67 -50 -122.5t-92 -101.5t-146.5 -71.5t-202.5 -25.5zM424 1194l141 268h119l-182 -268h-78z" />
    <glyph glyph-name="etatonos" unicode="&#x3ae;" horiz-adv-x="1093" 
d="M860 -410v1069q0 175 -78 251.5t-209 76.5q-64 0 -120 -21t-105.5 -67.5t-78.5 -134t-29 -207.5v-557h-103v1059h103v-203q98 215 340 215q83 0 149.5 -21.5t120.5 -67t83.5 -126.5t29.5 -192v-1074h-103zM455 1194l141 268h119l-183 -268h-77z" />
    <glyph glyph-name="iotatonos" unicode="&#x3af;" horiz-adv-x="458" 
d="M338 -2q-117 0 -164 52t-47 161v848h102v-854q0 -60 28 -89.5t97 -29.5q24 0 47 2v-86q-46 -4 -63 -4zM106 1194l142 268h119l-183 -268h-78z" />
    <glyph glyph-name="upsilondieresistonos" unicode="&#x3b0;" horiz-adv-x="1081" 
d="M541 -10q-200 0 -306 106.5t-106 311.5v651h102v-645q0 -161 79 -248.5t231 -87.5q153 0 231 87t78 249v645h102v-651q0 -205 -105 -311.5t-306 -106.5zM289 1278v184h96v-184h-96zM449 1221l92 309h116l-133 -309h-75zM707 1278v184h94v-184h-94z" />
    <glyph glyph-name="alpha" unicode="&#x3b1;" horiz-adv-x="1261" 
d="M549 -14q-119 0 -212 43.5t-150 118.5t-86 171t-29 207q0 113 29 210.5t86 173.5t149 119.5t209 43.5q278 0 383 -219h4v205h102v-854q0 -61 27.5 -91t95.5 -30q24 0 47 2v-86q-20 -2 -63 -2q-115 0 -162 49.5t-47 153.5v6h-2q-100 -221 -381 -221zM174 526
q0 -199 100 -325.5t279 -126.5q188 0 288.5 118t100.5 334q0 219 -100.5 339t-288.5 120q-179 0 -279 -128t-100 -331z" />
    <glyph glyph-name="beta" unicode="&#x3b2;" horiz-adv-x="1122" 
d="M127 1016q0 96 23 175t64 133t97.5 90.5t121.5 53.5t138 17q176 0 295 -95.5t119 -259.5q0 -133 -81.5 -219t-205.5 -120v-3q165 -29 265 -136t100 -257q0 -189 -114 -300t-306 -111q-283 0 -412 221h-2v-613h-102v1424zM229 504q14 -204 116.5 -318t289.5 -114
q147 0 236.5 90t89.5 239q0 81 -34 146.5t-89.5 104.5t-121.5 60t-136 21h-105v90q186 5 297 82t111 221q0 127 -87 199t-225 72q-154 0 -248 -92.5t-94 -278.5v-522z" />
    <glyph glyph-name="gamma" unicode="&#x3b3;" horiz-adv-x="1062" 
d="M479 -2q-72 162 -144 332t-170 406.5t-134 322.5h104q263 -632 395 -930h2q50 110 107 242.5t93 218t103.5 248.5t92.5 221h104q-47 -112 -136.5 -326t-165.5 -393.5t-148 -341.5l-2 -410h-103z" />
    <glyph glyph-name="delta" unicode="&#x3b4;" horiz-adv-x="1089" 
d="M543 -10q-146 0 -254.5 66.5t-162.5 175t-54 243.5q0 185 100.5 309t261.5 162v4q-246 101 -246 269q0 43 13 80t42.5 72.5t83.5 59t130.5 37t190 10t255.5 -25.5v-84q-150 24 -263.5 25t-178.5 -14t-105.5 -43.5t-53.5 -58t-13 -63.5q0 -163 385 -258
q86 -21 153.5 -70.5t108 -115.5t61.5 -140.5t21 -152.5q0 -135 -55 -244.5t-164.5 -176t-255.5 -66.5zM176 477q0 -174 101 -287.5t266 -113.5q166 0 268 113.5t102 287.5q0 179 -101.5 293.5t-268.5 114.5q-165 0 -266 -114.5t-101 -293.5z" />
    <glyph glyph-name="epsilon" unicode="&#x3b5;" horiz-adv-x="1046" 
d="M498 -16q-195 0 -305.5 80.5t-110.5 218.5q0 204 256 266v2q-227 60 -227 258q0 120 104 190t274 70q179 0 304 -84.5t153 -249.5h-100q-23 123 -116.5 186.5t-235.5 63.5q-122 0 -202.5 -50t-80.5 -132q0 -96 77 -153.5t214 -57.5h147l-2 -88h-145q-151 0 -234.5 -58.5
t-83.5 -158.5t84.5 -159.5t231.5 -59.5q171 0 268 67.5t119 169.5h102q-15 -67 -50 -122.5t-92 -101.5t-146.5 -71.5t-202.5 -25.5z" />
    <glyph glyph-name="zeta" unicode="&#x3b6;" horiz-adv-x="909" 
d="M741 -319q13 83 2.5 143.5t-71 100.5t-180.5 59q-73 11 -127 25t-114.5 43t-99.5 69t-64.5 105t-25.5 149q0 61 19 128t49 128t78 131.5t93 127t109 128t111.5 121.5t114 119t104.5 110h-669v94h800v-86q-45 -50 -136.5 -145.5t-158.5 -165.5t-149.5 -169t-135 -178.5
t-89.5 -170t-37 -166.5q0 -48 11.5 -87.5t29.5 -67.5t48.5 -51.5t59 -38t71 -27.5t74.5 -20t79 -15q112 -19 181 -54t98 -84t35 -113t-7 -142h-103z" />
    <glyph glyph-name="eta" unicode="&#x3b7;" horiz-adv-x="1091" 
d="M860 -410v1069q0 175 -78 251.5t-209 76.5q-64 0 -120 -21t-105.5 -67.5t-78.5 -134t-29 -207.5v-557h-103v1059h103v-203q98 215 340 215q83 0 149.5 -21.5t120.5 -67t83.5 -126.5t29.5 -192v-1074h-103z" />
    <glyph glyph-name="theta" unicode="&#x3b8;" horiz-adv-x="1251" 
d="M625 -10q-239 0 -386 204t-147 537q0 337 147 542.5t386 205.5q158 0 279.5 -93t188 -263t66.5 -392q0 -333 -147.5 -537t-386.5 -204zM195 690q9 -278 126 -446t304 -168t304 168t126 446h-860zM195 774h860q-9 280 -126.5 450.5t-303.5 170.5t-303.5 -170.5
t-126.5 -450.5z" />
    <glyph glyph-name="iota" unicode="&#x3b9;" horiz-adv-x="458" 
d="M338 -2q-117 0 -164 52t-47 161v848h102v-854q0 -60 28 -89.5t97 -29.5q24 0 47 2v-86q-46 -4 -63 -4z" />
    <glyph glyph-name="kappa" unicode="&#x3ba;" horiz-adv-x="995" 
d="M229 0h-102v1059h102v-553l602 553h134l-523 -488l525 -571h-133l-465 502l-140 -121v-381z" />
    <glyph glyph-name="lambda" unicode="&#x3bb;" horiz-adv-x="991" 
d="M23 0q78 195 221 557t200 504l-61 149q-15 36 -24.5 56t-25.5 44t-33.5 36t-44 20t-60.5 8h-84v86h79q59 0 104 -13.5t71 -29t52 -57t36.5 -66t34.5 -88.5q3 -7 4 -10q113 -279 271.5 -678.5t205.5 -517.5h-105l-368 924h-2l-367 -924h-104z" />
    <glyph glyph-name="uni03BC" unicode="&#x3bc;" horiz-adv-x="1093" 
d="M129 -410v1469h102v-660q0 -94 21.5 -160t62.5 -101.5t90 -50.5t113 -15q51 0 96.5 12.5t90 43.5t76.5 78t51.5 123t19.5 173v557h102v-1059h-102v211q-95 -223 -340 -223q-198 0 -281 127v-525h-102z" />
    <glyph glyph-name="nu" unicode="&#x3bd;" horiz-adv-x="987" 
d="M127 1059q366 -924 367 -928h2q70 177 200 509t164 419h103q-70 -176 -208.5 -529.5t-207.5 -529.5h-107l-417 1059h104z" />
    <glyph glyph-name="xi" unicode="&#x3be;" horiz-adv-x="899" 
d="M825 -319q15 82 1.5 138.5t-80 95t-207.5 67.5q-84 17 -145 34.5t-126 47.5t-105.5 67.5t-66.5 94.5t-26 128q0 165 130.5 267t348.5 129v2q-204 28 -319 109t-115 198q0 234 348 311l-352 -2v94h796v-51l2 -35q-185 -11 -321.5 -39.5t-216 -71.5t-117 -93.5
t-37.5 -110.5q0 -119 148.5 -188.5t418.5 -75.5v-92q-177 0 -313 -37t-218.5 -116t-82.5 -192q0 -40 11.5 -73.5t29.5 -58.5t50 -46.5t61.5 -36.5t76 -29.5t82 -23.5t90.5 -22q130 -30 207 -64.5t113.5 -80t42 -105t-7.5 -139.5h-101z" />
    <glyph glyph-name="omicron" unicode="&#x3bf;" horiz-adv-x="1169" 
d="M584 -10q-118 0 -216 43t-162 116.5t-99 170.5t-35 206q0 110 35 208.5t99 173t162 118t216 43.5t216 -43.5t162.5 -118t100 -173t35.5 -208.5q0 -109 -35.5 -206t-100 -170.5t-162.5 -116.5t-216 -43zM176 526q0 -192 113.5 -321t294.5 -129q182 0 295.5 129t113.5 321
q0 197 -113.5 328t-295.5 131t-295 -131t-113 -328z" />
    <glyph glyph-name="pi" unicode="&#x3c0;" horiz-adv-x="1273" 
d="M258 0v975h-199v84h1155v-84h-213v-770q0 -60 28 -89.5t97 -29.5q25 0 48 2v-86q-46 -4 -64 -4q-117 0 -164 52t-47 161v764h-539v-975h-102z" />
    <glyph glyph-name="rho" unicode="&#x3c1;" horiz-adv-x="1159" 
d="M606 -10q-80 0 -146 18t-111.5 50.5t-76.5 70.5t-51 84h-2v-623h-102v936v4q1 111 32 207.5t90 171t152.5 117.5t210.5 43t211 -43.5t153 -118.5t90 -172.5t31 -208.5q0 -109 -30.5 -204.5t-88.5 -170t-151.5 -118t-210.5 -43.5zM215 526v-28l4 -2v-50
q19 -176 117.5 -273t263.5 -97q180 0 282.5 127t102.5 323q0 131 -43.5 233.5t-132 164t-209.5 61.5q-179 0 -282 -129.5t-103 -329.5z" />
    <glyph glyph-name="uni03C2" unicode="&#x3c2;" horiz-adv-x="1116" 
d="M74 549q0 140 57 257t172.5 190t269.5 73q171 0 295 -87t176 -253h-106q-46 128 -142.5 192t-222.5 64q-176 0 -286.5 -123.5t-110.5 -304.5q0 -96 29.5 -171t86.5 -127.5t127 -88t165 -64.5q52 -15 92.5 -29.5t77.5 -32.5t63.5 -37t49 -43t35.5 -52t20 -63t7 -76.5
t-7 -91.5h-101q22 147 -34 217.5t-238 124.5q-85 24 -151.5 52t-129 71.5t-104 98t-66 132t-24.5 172.5z" />
    <glyph glyph-name="sigma" unicode="&#x3c3;" horiz-adv-x="1179" 
d="M584 -10q-158 0 -276 74.5t-177 194.5t-59 267q0 148 59.5 270.5t178 197.5t276.5 75h4q87 -1 261.5 -4t258.5 -4v-86l-268 6q116 -54 185 -179.5t69 -277.5q0 -106 -34.5 -202t-98 -170t-162 -118t-217.5 -44zM176 526q0 -192 113.5 -321t294.5 -129q180 0 294.5 129
t114.5 321q0 193 -111.5 324t-287.5 135h-10q-182 0 -295 -131t-113 -328z" />
    <glyph glyph-name="tau" unicode="&#x3c4;" horiz-adv-x="970" 
d="M39 975v84h893v-84h-430v-770q0 -61 30.5 -90t112.5 -29q31 0 62 2v-86q-27 -4 -80 -4q-128 0 -178 51.5t-50 161.5v764h-360z" />
    <glyph glyph-name="upsilon" unicode="&#x3c5;" horiz-adv-x="1083" 
d="M541 -10q-200 0 -306 106.5t-106 311.5v651h102v-645q0 -161 79 -248.5t231 -87.5q153 0 231 87t78 249v645h102v-651q0 -205 -105 -311.5t-306 -106.5z" />
    <glyph glyph-name="phi" unicode="&#x3c6;" horiz-adv-x="1472" 
d="M672 1462h102v-393q158 -1 281 -45.5t197 -120.5t111.5 -171.5t37.5 -205.5q0 -109 -37.5 -203t-111.5 -169t-197 -119t-281 -45v-400h-102v400q-151 2 -268.5 46t-188.5 118.5t-107 168.5t-36 203q0 110 36 205t107 170.5t188.5 120.5t268.5 47v393zM176 526
q0 -196 127.5 -321t368.5 -129v909q-122 -2 -218 -38t-156 -98t-91 -144t-31 -179zM774 76q130 1 231 36t164 96t95 141.5t32 176.5q0 203 -132.5 329.5t-389.5 129.5v-909z" />
    <glyph glyph-name="chi" unicode="&#x3c7;" horiz-adv-x="1105" 
d="M39 -410l455 750l-437 719h115l381 -633l381 633h115l-435 -721l453 -748h-115l-399 666l-399 -666h-115z" />
    <glyph glyph-name="psi" unicode="&#x3c8;" horiz-adv-x="1538" 
d="M719 1462h102v-1384q228 6 357 125.5t129 326.5v529h102v-535q0 -244 -156.5 -386t-431.5 -148v-400h-102v400q-276 6 -433 148t-157 386v535h102v-529q0 -207 129.5 -326.5t358.5 -125.5v1384z" />
    <glyph glyph-name="omega" unicode="&#x3c9;" horiz-adv-x="1693" 
d="M494 -14q-188 0 -295 131t-107 375q0 103 24.5 199.5t72 178t125 137.5t175.5 72v-94q-91 -17 -159.5 -93t-101.5 -180.5t-33 -219.5q0 -197 82 -307.5t219 -110.5q138 0 221.5 131.5t83.5 347.5v199h92v-199q0 -216 83.5 -347.5t221.5 -131.5q137 0 219 110.5t82 307.5
q0 179 -79.5 322.5t-215.5 170.5v94q98 -16 175.5 -72.5t125 -138t72.5 -177.5t25 -199q0 -244 -107 -375t-295 -131q-142 0 -237 93t-115 251h-2q-20 -158 -115 -251t-237 -93z" />
    <glyph glyph-name="iotadieresis" unicode="&#x3ca;" horiz-adv-x="458" 
d="M338 -2q-117 0 -164 52t-47 161v848h102v-854q0 -60 28 -89.5t97 -29.5q24 0 47 2v-86q-46 -4 -63 -4zM2 1278v184h94v-184h-94zM260 1278v184h94v-184h-94z" />
    <glyph glyph-name="upsilondieresis" unicode="&#x3cb;" horiz-adv-x="1081" 
d="M541 -10q-200 0 -306 106.5t-106 311.5v651h102v-645q0 -161 79 -248.5t231 -87.5q153 0 231 87t78 249v645h102v-651q0 -205 -105 -311.5t-306 -106.5zM362 1278v184h95v-184h-95zM621 1278v184h94v-184h-94z" />
    <glyph glyph-name="omicrontonos" unicode="&#x3cc;" horiz-adv-x="1169" 
d="M584 -10q-118 0 -216 43t-162 116.5t-99 170.5t-35 206q0 110 35 208.5t99 173t162 118t216 43.5t216 -43.5t162.5 -118t100 -173t35.5 -208.5q0 -109 -35.5 -206t-100 -170.5t-162.5 -116.5t-216 -43zM176 526q0 -192 113.5 -321t294.5 -129q182 0 295.5 129t113.5 321
q0 197 -113.5 328t-295.5 131t-295 -131t-113 -328zM512 1194l141 268h119l-182 -268h-78z" />
    <glyph glyph-name="upsilontonos" unicode="&#x3cd;" horiz-adv-x="1081" 
d="M541 -10q-200 0 -306 106.5t-106 311.5v651h102v-645q0 -161 79 -248.5t231 -87.5q153 0 231 87t78 249v645h102v-651q0 -205 -105 -311.5t-306 -106.5zM467 1194l141 268h119l-182 -268h-78z" />
    <glyph glyph-name="omegatonos" unicode="&#x3ce;" horiz-adv-x="1693" 
d="M494 -14q-188 0 -295 131t-107 375q0 103 24.5 199.5t72 178t125 137.5t175.5 72v-94q-91 -17 -159.5 -93t-101.5 -180.5t-33 -219.5q0 -197 82 -307.5t219 -110.5q138 0 221.5 131.5t83.5 347.5v199h92v-199q0 -216 83.5 -347.5t221.5 -131.5q137 0 219 110.5t82 307.5
q0 179 -79.5 322.5t-215.5 170.5v94q98 -16 175.5 -72.5t125 -138t72.5 -177.5t25 -199q0 -244 -107 -375t-295 -131q-142 0 -237 93t-115 251h-2q-20 -158 -115 -251t-237 -93zM774 1194l141 268h119l-182 -268h-78z" />
    <glyph glyph-name="uni03CF" unicode="&#x3cf;" horiz-adv-x="1026" 
d="M133 0v195h-194v86h194v987h103v-553l602 553h133l-522 -486l507 -501v-86h-720v-195h-103zM236 281h581l-440 436l-141 -123v-313z" />
    <glyph glyph-name="uni03D7" unicode="&#x3d7;" horiz-adv-x="1050" 
d="M240 0h-103v1059h103v-551l602 551h133l-524 -492l387 -426l131 127l65 -71l-626 -607h-132l496 486l-397 424l-135 -119v-381z" />
    <glyph glyph-name="uni0400" unicode="&#x400;" horiz-adv-x="1165" 
d="M1030 1462v-88h-760v-581h717v-88h-717v-617h766v-88h-874v1462h868zM319 1802h154l262 -207h-106z" />
    <glyph glyph-name="uni0401" unicode="&#x401;" horiz-adv-x="1165" 
d="M1030 1462v-88h-760v-581h717v-88h-717v-617h766v-88h-874v1462h868zM428 1595v207h98v-207h-98zM711 1595v207h100v-207h-100z" />
    <glyph glyph-name="uni0402" unicode="&#x402;" horiz-adv-x="1476" 
d="M897 866q263 0 382.5 -109t119.5 -327q0 -106 -34 -191t-91.5 -138.5t-131 -82t-155.5 -28.5q-125 0 -235 45l22 90q110 -47 207 -47q139 0 224 100t85 256q0 344 -399 344q-175 0 -348 -45v-733h-107v1374h-411v88h1052v-88h-534v-553q196 45 354 45z" />
    <glyph glyph-name="uni0403" unicode="&#x403;" horiz-adv-x="1024" 
d="M162 0v1462h813v-88h-705v-1374h-108zM477 1595l262 207h154l-309 -207h-107z" />
    <glyph glyph-name="uni0404" unicode="&#x404;" horiz-adv-x="1556" 
d="M1448 403q-53 -192 -216.5 -306.5t-410.5 -114.5q-170 0 -310.5 58.5t-233 160t-143 237t-50.5 291.5t50.5 292t143 237.5t233 160t310.5 58.5q242 0 399 -111t224 -305h-109q-55 153 -183 240.5t-331 87.5q-116 0 -215.5 -33t-170.5 -89t-123.5 -132.5t-80.5 -162.5
t-36 -179h731v-88h-733q4 -123 44.5 -234.5t115.5 -202t196 -144.5t272 -54q205 0 335 90.5t183 242.5h109z" />
    <glyph glyph-name="uni0405" unicode="&#x405;" horiz-adv-x="1247" 
d="M223 438q9 -117 72.5 -202.5t154 -125.5t193.5 -40q76 0 141 16t119.5 49.5t85.5 92.5t31 139q0 60 -18.5 107t-46.5 77.5t-79 57.5t-97 43.5t-120 37.5q-135 40 -217.5 74t-149 82t-95 111t-29.5 151q0 118 63 204t164 127.5t226 41.5q197 0 329 -102.5t156 -305.5h-109
q-20 158 -121 239t-255 81q-148 0 -246.5 -75.5t-98.5 -207.5q0 -67 21 -114.5t73.5 -86t125 -67.5t190.5 -62q59 -17 96.5 -29.5t89 -33.5t84 -41t68.5 -51.5t56.5 -67t34 -83.5t13.5 -105q0 -86 -27.5 -153.5t-73 -110.5t-109 -71.5t-131 -40t-144.5 -11.5
q-99 0 -187 26.5t-163 79.5t-122.5 143t-55.5 207h108z" />
    <glyph glyph-name="uni0406" unicode="&#x406;" horiz-adv-x="432" 
d="M162 1462h108v-1462h-108v1462z" />
    <glyph glyph-name="uni0407" unicode="&#x407;" horiz-adv-x="432" 
d="M162 1462h108v-1462h-108v1462zM23 1595v207h98v-207h-98zM305 1595v207h101v-207h-101z" />
    <glyph glyph-name="uni0408" unicode="&#x408;" horiz-adv-x="954" 
d="M180 348q2 -128 68.5 -204t189.5 -76q124 0 189 80t65 212v1102h109v-1102q0 -173 -97 -276.5t-266 -103.5q-164 0 -263.5 100.5t-100.5 269.5v60h106v-62z" />
    <glyph glyph-name="uni0409" unicode="&#x409;" horiz-adv-x="1992" 
d="M1436 88q189 0 290 85.5t101 254.5q0 148 -96.5 232.5t-278.5 84.5h-285v-657h269zM31 -8v88h6q81 0 129 51q44 44 68.5 116.5t46.5 184.5q11 53 19.5 108.5t16 126.5t12.5 123.5t11.5 149t10 151t11 181t11.5 190.5h794v-628h306q201 0 330.5 -108t129.5 -298
q0 -199 -132 -313.5t-345 -114.5h-397v1374h-588q-23 -398 -40.5 -593.5t-51.5 -366.5q-25 -123 -57 -211t-86 -142q-69 -69 -179 -69h-26z" />
    <glyph glyph-name="uni040A" unicode="&#x40a;" horiz-adv-x="1970" 
d="M270 0h-108v1462h108v-639h777v639h108v-639h283q216 0 345.5 -108t129.5 -303q0 -189 -129 -300.5t-328 -111.5h-409v735h-777v-735zM1155 88h281q179 0 273.5 88.5t94.5 235.5q0 323 -387 323h-262v-647z" />
    <glyph glyph-name="uni040B" unicode="&#x40b;" horiz-adv-x="1490" 
d="M897 866q264 0 383 -109.5t119 -328.5v-428h-109v426q0 352 -401 352q-173 0 -346 -45v-733h-107v1374h-411v88h1052v-88h-534v-553q196 45 354 45z" />
    <glyph glyph-name="uni040C" unicode="&#x40c;" horiz-adv-x="1257" 
d="M1075 0l-629 705h-176v-705h-108v1462h108v-669h176l570 669h135l-612 -710l671 -752h-135zM522 1595l262 207h154l-309 -207h-107z" />
    <glyph glyph-name="uni040D" unicode="&#x40d;" horiz-adv-x="1415" 
d="M1253 1462v-1462h-108v1030q0 43 1 136.5t1 136.5q-28 -42 -82.5 -127t-67.5 -105l-721 -1071h-114v1462h108v-1030q0 -43 -1 -136t-1 -136q29 42 85 129.5t65 101.5l721 1071h114zM408 1802h153l262 -207h-106z" />
    <glyph glyph-name="uni040E" unicode="&#x40e;" horiz-adv-x="1191" 
d="M221 0v88h55q47 0 76 8.5t57.5 39t51 70.5t61.5 122l39 80l-524 1054h117l462 -944l441 944h114l-559 -1186q-80 -171 -143 -223.5t-193 -52.5h-55zM295 1804h90q3 -78 58 -127t137 -49q83 0 137 49t59 127h90q-9 -110 -87.5 -177.5t-198.5 -67.5q-119 0 -197.5 67.5
t-87.5 177.5z" />
    <glyph glyph-name="uni040F" unicode="&#x40f;" horiz-adv-x="1359" 
d="M627 -326v326h-465v1462h108v-1374h820v1374h108v-1462h-469v-326h-102z" />
    <glyph glyph-name="uni0410" unicode="&#x410;" horiz-adv-x="1339" 
d="M156 0h-113l551 1462h154l548 -1462h-112l-176 477h-674zM367 565h608l-303 807h-4z" />
    <glyph glyph-name="uni0411" unicode="&#x411;" horiz-adv-x="1124" 
d="M162 1462h817v-88h-709v-545h320q218 0 347.5 -104.5t129.5 -302.5q0 -192 -130.5 -307t-330.5 -115h-444v1462zM270 88h316q178 0 275 91.5t97 240.5q0 169 -99 245t-290 76h-299v-653z" />
    <glyph glyph-name="uni0412" unicode="&#x412;" horiz-adv-x="1251" 
d="M162 0v1462h471q128 0 227.5 -40.5t160 -128t60.5 -212.5q0 -122 -76.5 -207.5t-191.5 -113.5v-2q140 -14 235 -111t95 -254q0 -183 -131 -288t-348 -105h-502zM270 88h385q176 0 277.5 84t101.5 221q0 150 -96 232t-268 82h-400v-619zM270 795h324q181 0 280 73.5
t99 212.5q0 143 -93 218t-272 75h-338v-579z" />
    <glyph glyph-name="uni0413" unicode="&#x413;" horiz-adv-x="1024" 
d="M162 0v1462h813v-88h-705v-1374h-108z" />
    <glyph glyph-name="uni0414" unicode="&#x414;" horiz-adv-x="1443" 
d="M1233 1462v-1374h141v-457h-100v369h-1124v-369h-101v457h123q102 189 156 406q14 60 25.5 129t18.5 121.5t14.5 154t10.5 153t11 197.5t12 213h813zM283 88h843v1286h-608q-3 -42 -9.5 -147.5t-8.5 -140t-8 -115.5t-9.5 -114.5t-9.5 -95t-11.5 -98t-14 -83t-17.5 -88.5
q-21 -87 -63 -204t-84 -200z" />
    <glyph glyph-name="uni0415" unicode="&#x415;" horiz-adv-x="1165" 
d="M1030 1462v-88h-760v-581h717v-88h-717v-617h766v-88h-874v1462h868z" />
    <glyph glyph-name="uni0416" unicode="&#x416;" horiz-adv-x="1849" 
d="M1663 0l-553 705h-131v-705h-109v705h-133l-551 -705h-131l594 754l-534 708h131l489 -669h135v669h109v-669h133l492 669h129l-535 -708l596 -754h-131z" />
    <glyph glyph-name="uni0417" unicode="&#x417;" horiz-adv-x="1263" 
d="M172 1092q7 81 38 148.5t86.5 120t142.5 82.5t198 30q209 0 325.5 -94t116.5 -255q0 -120 -64 -205.5t-181 -130.5q142 -28 231.5 -127t89.5 -260q0 -197 -130.5 -310.5t-387.5 -113.5q-487 0 -528 439h106q32 -348 424 -348q90 0 162.5 19.5t128.5 60t86.5 107.5
t30.5 157q0 89 -33.5 154.5t-92 101.5t-125 52.5t-143.5 16.5h-211v88h203q141 0 233.5 77.5t92.5 219.5q0 127 -86.5 193.5t-245.5 66.5q-161 0 -251 -74.5t-109 -215.5h-107z" />
    <glyph glyph-name="uni0418" unicode="&#x418;" horiz-adv-x="1415" 
d="M1253 1462v-1462h-108v1030q0 43 1 136.5t1 136.5q-28 -42 -82.5 -127t-67.5 -105l-721 -1071h-114v1462h108v-1030q0 -43 -1 -136t-1 -136q29 42 85 129.5t65 101.5l721 1071h114z" />
    <glyph glyph-name="uni0419" unicode="&#x419;" horiz-adv-x="1415" 
d="M1253 1462v-1462h-108v1030q0 43 1 136.5t1 136.5q-28 -42 -82.5 -127t-67.5 -105l-721 -1071h-114v1462h108v-1030q0 -43 -1 -136t-1 -136q29 42 85 129.5t65 101.5l721 1071h114zM422 1804h90q3 -78 58 -127t137 -49q83 0 137 49t59 127h90q-9 -110 -87.5 -177.5
t-198.5 -67.5q-119 0 -197.5 67.5t-87.5 177.5z" />
    <glyph glyph-name="uni041A" unicode="&#x41a;" horiz-adv-x="1257" 
d="M1075 0l-629 705h-176v-705h-108v1462h108v-669h176l570 669h135l-612 -710l671 -752h-135z" />
    <glyph glyph-name="uni041B" unicode="&#x41b;" horiz-adv-x="1370" 
d="M31 -8v88h6q83 0 131 51q14 14 25.5 30.5t21 38.5t16 39t13.5 47t10.5 45.5t11 51.5t10.5 49q10 47 19 100.5t15.5 97.5t13 116.5t10.5 114t10.5 136t9 136t9.5 161.5t10 168h835v-1464h-108v1376h-629q-18 -312 -25 -422t-24.5 -265.5t-42.5 -272.5
q-28 -128 -58.5 -213.5t-84.5 -139.5q-69 -69 -179 -69h-26z" />
    <glyph glyph-name="uni041C" unicode="&#x41c;" horiz-adv-x="1660" 
d="M162 0v1462h164l505 -1329h3l501 1329h164v-1462h-108v1311h-2l-500 -1311h-117l-500 1311h-2v-1311h-108z" />
    <glyph glyph-name="uni041D" unicode="&#x41d;" horiz-adv-x="1357" 
d="M1087 1462h109v-1462h-109v702h-817v-702h-108v1462h108v-671h817v671z" />
    <glyph glyph-name="uni041E" unicode="&#x41e;" horiz-adv-x="1650" 
d="M823 1485q170 0 311.5 -60t234.5 -163t144.5 -240.5t51.5 -292.5t-51 -292t-144.5 -239t-235 -161.5t-311.5 -59.5q-169 0 -310 59.5t-234 161.5t-144 239t-51 292t51 292.5t144 240.5t234 163t310 60zM193 729q0 -100 24 -194.5t75 -180t124 -149.5t178 -101.5
t229 -37.5q126 0 231.5 37.5t179 101.5t125 149.5t75.5 180t24 194.5t-24 194.5t-75.5 180.5t-125 150.5t-179 102.5t-231.5 38q-124 0 -229 -38t-178 -102.5t-124 -150.5t-75 -180.5t-24 -194.5z" />
    <glyph glyph-name="uni041F" unicode="&#x41f;" horiz-adv-x="1359" 
d="M1198 1462v-1462h-108v1374h-820v-1374h-108v1462h1036z" />
    <glyph glyph-name="uni0420" unicode="&#x420;" horiz-adv-x="1153" 
d="M569 717q189 0 290.5 85.5t101.5 254.5q0 148 -95.5 232.5t-277.5 84.5h-318v-657h299zM162 0v1462h446q131 0 234.5 -46t165 -139t61.5 -220q0 -199 -132 -313.5t-347 -114.5h-320v-629h-108z" />
    <glyph glyph-name="uni0421" unicode="&#x421;" horiz-adv-x="1521" 
d="M1448 403q-53 -192 -216.5 -306.5t-410.5 -114.5q-170 0 -310.5 58.5t-233 160t-143 237t-50.5 291.5t50.5 292t143 237.5t233 160t310.5 58.5q242 0 399 -111t224 -305h-109q-55 153 -183 240.5t-331 87.5q-124 0 -229 -37t-177.5 -100.5t-123.5 -148.5t-74.5 -179.5
t-23.5 -194.5t23.5 -194.5t74.5 -179t123.5 -148t177.5 -100.5t229 -37q205 0 335 90.5t183 242.5h109z" />
    <glyph glyph-name="uni0422" unicode="&#x422;" horiz-adv-x="1138" 
d="M43 1374v88h1053v-88h-473v-1374h-107v1374h-473z" />
    <glyph glyph-name="uni0423" unicode="&#x423;" horiz-adv-x="1191" 
d="M221 0v88h55q47 0 76 8.5t57.5 39t51 70.5t61.5 122l39 80l-524 1054h117l462 -944l441 944h114l-559 -1186q-80 -171 -143 -223.5t-193 -52.5h-55z" />
    <glyph glyph-name="uni0424" unicode="&#x424;" horiz-adv-x="1562" 
d="M727 0v160q-301 15 -478 174.5t-177 423.5q0 268 176.5 429.5t478.5 176.5v160h109v-160q302 -15 478.5 -176.5t176.5 -429.5q0 -264 -177 -423.5t-478 -174.5v-160h-109zM178 758q0 -224 147 -360t402 -150v1032q-255 -13 -402 -153t-147 -369zM836 248
q255 13 400.5 149.5t145.5 360.5q0 229 -145.5 369t-400.5 153v-1032z" />
    <glyph glyph-name="uni0425" unicode="&#x425;" horiz-adv-x="1196" 
d="M27 0l508 752l-496 710h125l434 -620l438 620h121l-498 -710l510 -752h-125l-446 659l-448 -659h-123z" />
    <glyph glyph-name="uni0426" unicode="&#x426;" horiz-adv-x="1406" 
d="M162 0v1462h108v-1374h820v1374h108v-1374h141v-455h-102v367h-1075z" />
    <glyph glyph-name="uni0427" unicode="&#x427;" horiz-adv-x="1216" 
d="M594 592q-264 0 -383 109.5t-119 328.5v432h109v-430q0 -352 401 -352q173 0 346 45v737h107v-1462h-107v637q-196 -45 -354 -45z" />
    <glyph glyph-name="uni0428" unicode="&#x428;" horiz-adv-x="1927" 
d="M162 0v1462h108v-1374h639v1374h109v-1374h641v1374h106v-1462h-1603z" />
    <glyph glyph-name="uni0429" unicode="&#x429;" horiz-adv-x="1976" 
d="M162 0v1462h108v-1374h639v1374h109v-1374h641v1374h106v-1374h142v-455h-103v367h-1642z" />
    <glyph glyph-name="uni042A" unicode="&#x42a;" horiz-adv-x="1390" 
d="M43 1374v88h522v-628h305q202 0 332.5 -108.5t130.5 -297.5q0 -199 -133 -313.5t-346 -114.5h-397v1374h-414zM565 88h269q189 0 290 85.5t101 254.5q0 148 -96.5 232.5t-278.5 84.5h-285v-657z" />
    <glyph glyph-name="uni042B" unicode="&#x42b;" horiz-adv-x="1472" 
d="M1202 1462h109v-1462h-109v1462zM162 0v1462h108v-628h305q202 0 332.5 -108.5t130.5 -297.5q0 -199 -133 -313.5t-346 -114.5h-397zM270 88h269q189 0 290 85.5t101 254.5q0 148 -96.5 232.5t-278.5 84.5h-285v-657z" />
    <glyph glyph-name="uni042C" unicode="&#x42c;" horiz-adv-x="1128" 
d="M162 0v1462h108v-628h338q201 0 331 -108t130 -298q0 -199 -132 -313.5t-347 -114.5h-428zM270 88h299q189 0 290.5 85.5t101.5 254.5q0 148 -95.5 232.5t-277.5 84.5h-318v-657z" />
    <glyph glyph-name="uni042D" unicode="&#x42d;" horiz-adv-x="1556" 
d="M217 403q53 -152 183 -242.5t335 -90.5q122 0 224.5 35.5t175 96t124 142t77 172.5t28.5 189h-733v88h731q-8 93 -36.5 179t-80.5 162.5t-123.5 132.5t-171 89t-215.5 33q-203 0 -331 -87.5t-183 -240.5h-108q67 194 223.5 305t398.5 111q170 0 310.5 -58.5t233.5 -160
t143.5 -237.5t50.5 -292q0 -155 -50.5 -291t-143.5 -237.5t-233.5 -160t-310.5 -58.5q-247 0 -410 114.5t-216 306.5h108z" />
    <glyph glyph-name="uni042E" unicode="&#x42e;" horiz-adv-x="1953" 
d="M270 0h-108v1462h108v-669h203q9 145 61 270.5t139.5 219t215.5 147t280 53.5q161 0 294.5 -59.5t221.5 -162t136.5 -240t48.5 -292.5t-48.5 -292t-136.5 -239.5t-221.5 -161.5t-294.5 -59q-157 0 -288.5 57.5t-219 156.5t-137 231t-53.5 283h-201v-705zM578 729
q0 -99 22.5 -193t70.5 -179.5t116.5 -149.5t166.5 -101.5t215 -37.5t216 37.5t167 101.5t116 149.5t70.5 179.5t22.5 193q0 100 -22.5 194.5t-70.5 180t-116 149.5t-167 102t-216 38q-145 0 -260.5 -57.5t-186 -153t-107.5 -211.5t-37 -242z" />
    <glyph glyph-name="uni042F" unicode="&#x42f;" horiz-adv-x="1282" 
d="M1120 -2h-108v649h-357q-75 0 -127 -17.5t-88 -58.5t-57.5 -86t-48.5 -123q-13 -38 -37.5 -113.5t-46.5 -137t-45 -111.5h-117v8q56 103 123 314q57 183 110.5 260t147.5 100q-147 37 -232 135.5t-85 251.5q0 175 119 284t356 109h493v-1464zM260 1069q0 -154 92 -244
t269 -90h391v639h-377q-104 0 -179.5 -25t-117 -69t-60 -96t-18.5 -115z" />
    <glyph glyph-name="uni0430" unicode="&#x430;" horiz-adv-x="1087" 
d="M150 745q12 61 43 117t79.5 104t122 76.5t160.5 28.5q88 0 157 -19t113 -50.5t73 -75t40.5 -89.5t11.5 -98l2 -520q0 -108 19 -219h-109q-10 59 -10 168v55h-2q-111 -237 -385 -237q-181 0 -281 86.5t-100 214.5q0 73 35 129.5t100 93t139 59t170 37.5q85 13 135.5 24.5
t98.5 29.5t69 44t21 62q0 111 -81 166t-214 55q-116 0 -195 -62.5t-110 -179.5h-102zM186 287q0 -93 76 -156t209 -63q164 0 274.5 112.5t110.5 306.5v170q-24 -49 -109 -80.5t-239 -56.5q-152 -23 -237 -81t-85 -152z" />
    <glyph glyph-name="uni0431" unicode="&#x431;" horiz-adv-x="1148" 
d="M586 -10q-158 0 -280.5 79.5t-172.5 221.5q-43 108 -43 313q0 475 199 649q98 87 274.5 135.5t423.5 79.5v-94q-111 -15 -182.5 -27.5t-169.5 -35t-169.5 -55.5t-115.5 -76q-123 -120 -147 -377q61 112 166.5 169.5t232.5 57.5q217 0 346 -143.5t129 -378.5
q0 -231 -138 -374.5t-353 -143.5zM193 506q0 -195 105 -310.5t286 -115.5t286 115.5t105 310.5q0 199 -100 316.5t-281 117.5q-174 0 -287.5 -120.5t-113.5 -313.5z" />
    <glyph glyph-name="uni0432" unicode="&#x432;" horiz-adv-x="1015" 
d="M137 0v1059h416q149 0 235 -69t86 -189q0 -84 -39.5 -150t-107.5 -100q97 -28 157 -100t60 -162q0 -134 -90.5 -211.5t-245.5 -77.5h-471zM240 78h370q97 0 164.5 57t67.5 148q0 94 -67.5 153.5t-164.5 59.5h-370v-418zM240 573h309q96 0 159.5 56.5t63.5 148.5
q0 91 -63.5 147t-159.5 56h-309v-408z" />
    <glyph glyph-name="uni0433" unicode="&#x433;" horiz-adv-x="825" 
d="M805 1059v-84h-565v-975h-103v1059h668z" />
    <glyph glyph-name="uni0434" unicode="&#x434;" horiz-adv-x="1179" 
d="M1010 1059v-975h129v-377h-92v293h-914v-293h-92v377h33q81 0 121 43q76 87 100 371q23 276 35 561h680zM272 84h635v891h-481q-13 -222 -23 -340q-1 -7 -7 -85t-9.5 -107.5t-12 -91.5t-20.5 -106t-28 -81q-20 -49 -54 -80z" />
    <glyph glyph-name="uni0435" unicode="&#x435;" horiz-adv-x="1120" 
d="M1032 311q-47 -147 -166.5 -235t-292.5 -88q-156 0 -271.5 75t-172.5 196t-57 269q0 109 34 207t95.5 173t156.5 119t209 44q115 0 203.5 -39.5t143.5 -110t85 -160t37 -198.5q2 -23 2 -65h-866q6 -185 117 -304.5t284 -119.5q126 0 219.5 63.5t135.5 173.5h104zM174 580
h764q-40 407 -371 407q-167 0 -274.5 -114t-118.5 -293z" />
    <glyph glyph-name="uni0436" unicode="&#x436;" horiz-adv-x="1372" 
d="M39 0l410 545l-404 514h117l370 -473h103v473h102v-473h103l368 473h117l-403 -516l411 -543h-119l-378 502h-99v-502h-102v502h-98l-381 -502h-117z" />
    <glyph glyph-name="uni0437" unicode="&#x437;" horiz-adv-x="948" 
d="M481 -12q-182 0 -274.5 80.5t-114.5 240.5h98q17 -126 90.5 -181.5t200.5 -55.5q128 0 210.5 63.5t82.5 165.5q0 58 -23.5 100.5t-64 65t-87 33t-99.5 10.5h-152v82h160q93 0 152 59t59 158q0 83 -63.5 130.5t-174.5 47.5q-218 0 -250 -199h-96q19 129 103.5 206
t244.5 77q156 0 246 -70.5t90 -183.5q0 -192 -153 -260q211 -61 211 -256q0 -138 -105.5 -225.5t-290.5 -87.5z" />
    <glyph glyph-name="uni0438" unicode="&#x438;" horiz-adv-x="1107" 
d="M137 0v1059h103v-912l616 912h113v-1059h-103v911l-614 -911h-115z" />
    <glyph glyph-name="uni0439" unicode="&#x439;" horiz-adv-x="1107" 
d="M137 0v1059h103v-912l616 912h113v-1059h-103v911l-614 -911h-115zM268 1436h90q3 -76 58 -125t137 -49q83 0 137.5 48.5t59.5 125.5h90q-9 -109 -88.5 -177.5t-198.5 -68.5q-118 0 -197 68.5t-88 177.5z" />
    <glyph glyph-name="uni043A" unicode="&#x43a;" horiz-adv-x="929" 
d="M240 0h-103v1059h103v-473h127l407 473h121l-444 -514l450 -545h-127l-414 502h-120v-502z" />
    <glyph glyph-name="uni043B" unicode="&#x43b;" horiz-adv-x="1103" 
d="M967 1059v-1059h-103v975h-483q-13 -222 -23 -340q0 -4 -6.5 -79t-9 -95.5t-10.5 -86.5t-16.5 -96.5t-22 -78.5t-31 -79t-39.5 -54q-67 -74 -190 -74h-23v84h21q71 0 119 51q78 84 102 371q19 229 33 561h682z" />
    <glyph glyph-name="uni043C" unicode="&#x43c;" horiz-adv-x="1353" 
d="M137 0v1059h131l406 -932h6l405 932h132v-1059h-103v879h-2l-389 -879h-92l-389 879h-2v-879h-103z" />
    <glyph glyph-name="uni043D" unicode="&#x43d;" horiz-adv-x="1099" 
d="M240 1059v-484h620v484h103v-1059h-103v494h-620v-494h-103v1059h103z" />
    <glyph glyph-name="uni043E" unicode="&#x43e;" horiz-adv-x="1167" 
d="M584 -12q-119 0 -217 43.5t-162 118t-98.5 171.5t-34.5 205q0 109 34.5 207t98.5 173.5t162 120t217 44.5q117 0 215 -44.5t162 -120t99.5 -173.5t35.5 -207q0 -108 -35.5 -205t-99.5 -171.5t-162 -118t-215 -43.5zM174 526q0 -192 114.5 -322t295.5 -130
q180 0 294.5 130t114.5 322q0 197 -114.5 329t-294.5 132q-120 0 -214.5 -61.5t-145 -166t-50.5 -233.5z" />
    <glyph glyph-name="uni043F" unicode="&#x43f;" horiz-adv-x="1099" 
d="M963 1059v-1059h-103v975h-620v-975h-103v1059h826z" />
    <glyph glyph-name="uni0440" unicode="&#x440;" horiz-adv-x="1175" 
d="M625 1071q154 0 264.5 -76t162.5 -197t52 -270q0 -88 -19 -168t-58 -148t-95 -118t-135 -78t-172 -28q-268 0 -383 235h-2v-633h-103v1469h103v-219h2q51 102 146 166.5t237 64.5zM231 528q0 -65 13 -128t43 -122.5t73.5 -104.5t109.5 -72t146 -27q121 0 209 60.5
t132 162.5t44 231q0 131 -44 234t-132 164t-209 61q-180 0 -282.5 -130t-102.5 -329z" />
    <glyph glyph-name="uni0441" unicode="&#x441;" horiz-adv-x="1116" 
d="M1032 295q-40 -143 -157 -225t-289 -82q-159 0 -277.5 75t-177.5 195.5t-59 267.5q0 110 35 208t98.5 173.5t162 119.5t218.5 44q169 0 284 -81t154 -218h-106q-34 101 -121.5 158t-212.5 57q-182 0 -296 -131.5t-114 -329.5q0 -194 114 -323t296 -129q126 0 215.5 58
t124.5 163h108z" />
    <glyph glyph-name="uni0442" unicode="&#x442;" horiz-adv-x="921" 
d="M891 1059v-84h-379v-975h-102v975h-379v84h860z" />
    <glyph glyph-name="uni0443" unicode="&#x443;" horiz-adv-x="999" 
d="M127 1059q43 -107 179 -445.5t210 -523.5h2q59 161 177 484.5t177 484.5h105q-118 -319 -477 -1274q-36 -99 -87 -147t-151 -48h-84v84h82q23 0 42.5 5.5t35 18.5t26 24.5t21 33t16 34t14.5 37.5t13 34l37 102l-442 1096h104z" />
    <glyph glyph-name="uni0444" unicode="&#x444;" horiz-adv-x="1386" 
d="M643 -27q-261 12 -416 160.5t-155 392.5q0 248 154.5 397.5t416.5 161.5v377h102v-377q260 -12 415 -161.5t155 -397.5q0 -244 -155 -392.5t-415 -160.5v-383h-102v383zM174 526q0 -204 126 -330.5t343 -138.5v944q-216 -12 -342.5 -140.5t-126.5 -334.5zM745 57
q215 12 341 138.5t126 330.5q0 206 -126 334.5t-341 140.5v-944z" />
    <glyph glyph-name="uni0445" unicode="&#x445;" horiz-adv-x="989" 
d="M39 0l391 545l-371 514h125l312 -438l309 438h125l-371 -516l391 -543h-125l-329 467l-332 -467h-125z" />
    <glyph glyph-name="uni0446" unicode="&#x446;" horiz-adv-x="1132" 
d="M137 0v1059h103v-975h620v975h103v-975h129v-373h-93v289h-862z" />
    <glyph glyph-name="uni0447" unicode="&#x447;" horiz-adv-x="976" 
d="M481 395q-219 0 -319.5 97t-100.5 294v273h103v-271q0 -162 71 -232.5t250 -70.5q131 0 252 23v551h103v-1059h-103v418q-138 -23 -256 -23z" />
    <glyph glyph-name="uni0448" unicode="&#x448;" horiz-adv-x="1589" 
d="M137 0v1059h103v-975h503v975h103v-975h504v975h102v-1059h-1315z" />
    <glyph glyph-name="uni0449" unicode="&#x449;" horiz-adv-x="1622" 
d="M137 0v1059h103v-975h503v975h103v-975h504v975h102v-975h129v-373h-92v289h-1352z" />
    <glyph glyph-name="uni044A" unicode="&#x44a;" horiz-adv-x="1191" 
d="M395 0v975h-379v84h482v-393h258q171 0 278 -90t107 -238q0 -154 -106.5 -246t-278.5 -92h-361zM498 80h250q130 0 211 66.5t81 191.5q0 119 -81 183.5t-211 64.5h-250v-506z" />
    <glyph glyph-name="uni044B" unicode="&#x44b;" horiz-adv-x="1251" 
d="M1012 0v1059h102v-1059h-102zM137 0v1059h103v-393h227q171 0 278 -90t107 -238q0 -154 -106.5 -246t-278.5 -92h-330zM240 84h219q130 0 210.5 65.5t80.5 188.5q0 118 -80.5 181t-210.5 63h-219v-498z" />
    <glyph glyph-name="uni044C" unicode="&#x44c;" horiz-adv-x="933" 
d="M137 0v1059h103v-393h258q171 0 278 -90t107 -238q0 -154 -106.5 -246t-278.5 -92h-361zM240 84h249q130 0 210.5 65.5t80.5 188.5q0 118 -80.5 181t-210.5 63h-249v-498z" />
    <glyph glyph-name="uni044D" unicode="&#x44d;" horiz-adv-x="1116" 
d="M362 494v81h578q-14 180 -126.5 296t-281.5 116q-125 0 -212 -57t-121 -158h-107q39 137 154 218t284 81q120 0 218.5 -44t162 -119.5t98.5 -173.5t35 -208q0 -147 -59 -267.5t-177.5 -195.5t-277.5 -75q-172 0 -289 82t-157 225h109q35 -106 124 -163.5t215 -57.5
q174 0 286.5 119t123.5 301h-580z" />
    <glyph glyph-name="uni044E" unicode="&#x44e;" horiz-adv-x="1476" 
d="M240 1059v-484h184q7 102 44 191.5t98.5 157t151 106.5t195.5 39q148 0 261.5 -75t172 -197t58.5 -269t-58.5 -269t-172 -196.5t-261.5 -74.5q-142 0 -253 69.5t-171 183.5t-67 253h-182v-494h-103v1059h103zM524 528q0 -195 110 -325.5t279 -130.5t279.5 130.5
t110.5 325.5t-110.5 326t-279.5 131t-279 -131t-110 -326z" />
    <glyph glyph-name="uni044F" unicode="&#x44f;" horiz-adv-x="1021" 
d="M86 4q46 89 90 223q37 117 74.5 172.5t107.5 83.5q-102 33 -160.5 103.5t-58.5 167.5q0 139 107 222t278 83h361v-1059h-103v455h-245q-48 0 -83.5 -9t-58.5 -23t-43 -42.5t-32 -54.5t-29 -72q-6 -19 -19.5 -62t-22 -68.5t-22 -61t-26.5 -62.5h-115v4zM242 752
q0 -104 81 -160.5t209 -56.5h250v444h-250q-129 0 -209.5 -58.5t-80.5 -168.5z" />
    <glyph glyph-name="uni0450" unicode="&#x450;" horiz-adv-x="1120" 
d="M1032 311q-47 -147 -166.5 -235t-292.5 -88q-156 0 -271.5 75t-172.5 196t-57 269q0 109 34 207t95.5 173t156.5 119t209 44q115 0 203.5 -39.5t143.5 -110t85 -160t37 -198.5q2 -23 2 -65h-866q6 -185 117 -304.5t284 -119.5q126 0 219.5 63.5t135.5 173.5h104zM174 580
h764q-40 407 -371 407q-167 0 -274.5 -114t-118.5 -293zM330 1462h127l198 -268h-75z" />
    <glyph glyph-name="uni0451" unicode="&#x451;" horiz-adv-x="1120" 
d="M1032 311q-47 -147 -166.5 -235t-292.5 -88q-156 0 -271.5 75t-172.5 196t-57 269q0 109 34 207t95.5 173t156.5 119t209 44q115 0 203.5 -39.5t143.5 -110t85 -160t37 -198.5q2 -23 2 -65h-866q6 -185 117 -304.5t284 -119.5q126 0 219.5 63.5t135.5 173.5h104zM174 580
h764q-40 407 -371 407q-167 0 -274.5 -114t-118.5 -293zM387 1278v184h94v-184h-94zM645 1278v184h94v-184h-94z" />
    <glyph glyph-name="uni0452" unicode="&#x452;" horiz-adv-x="1099" 
d="M137 0v1214h-155v74h155v174h103v-174h440v-74h-440v-358q98 215 340 215q83 0 149.5 -21.5t120.5 -67t83.5 -126.5t29.5 -192v-848q0 -111 -51.5 -165t-172.5 -54h-75v84h79q62 0 89.5 31.5t27.5 94.5v852q0 175 -78 251.5t-209 76.5q-64 0 -120 -21t-105.5 -67.5
t-78.5 -134t-29 -207.5v-557h-103z" />
    <glyph glyph-name="uni0453" unicode="&#x453;" horiz-adv-x="825" 
d="M805 1059v-84h-565v-975h-103v1059h668zM410 1194l198 268h127l-250 -268h-75z" />
    <glyph glyph-name="uni0454" unicode="&#x454;" horiz-adv-x="1116" 
d="M754 494h-580q11 -182 123.5 -301t286.5 -119q126 0 215.5 58t124.5 163h108q-40 -143 -157 -225t-289 -82q-159 0 -277.5 75t-177.5 195.5t-59 267.5q0 110 35 208t98.5 173.5t162 119.5t218.5 44q169 0 284 -81t154 -218h-106q-34 101 -121.5 158t-212.5 57
q-169 0 -281.5 -116t-126.5 -296h578v-81z" />
    <glyph glyph-name="uni0455" unicode="&#x455;" horiz-adv-x="931" 
d="M743 743q-13 126 -89 185t-185 59q-66 0 -121.5 -18.5t-94 -63.5t-38.5 -110q0 -81 55 -126t156 -73q89 -24 147 -41q64 -19 110.5 -39.5t89.5 -52t65 -77t22 -103.5q0 -76 -35.5 -134.5t-94 -91.5t-123 -49t-132.5 -16t-130 17t-118.5 53.5t-97 100.5t-57.5 150h102
q17 -112 96.5 -174.5t204.5 -62.5q126 0 204.5 51t78.5 154q0 78 -54.5 119.5t-156.5 70.5q-27 7 -73.5 19.5t-74.5 19.5q-59 16 -105 37t-89.5 54t-67.5 81.5t-24 110.5q0 89 55.5 154.5t134.5 94.5t166 29q153 0 252.5 -81.5t124.5 -246.5h-103z" />
    <glyph glyph-name="uni0456" unicode="&#x456;" horiz-adv-x="385" 
d="M246 1257h-107v205h107v-205zM139 0v1059h103v-1059h-103z" />
    <glyph glyph-name="uni0457" unicode="&#x457;" horiz-adv-x="376" 
d="M137 0v1059h103v-1059h-103zM10 1278v184h94v-184h-94zM268 1278v184h94v-184h-94z" />
    <glyph glyph-name="uni0458" unicode="&#x458;" horiz-adv-x="415" 
d="M279 1257h-109v205h109v-205zM-25 -403v84h82q61 0 88 28.5t27 87.5v1262h104v-1252q0 -104 -51 -157t-168 -53h-82z" />
    <glyph glyph-name="uni0459" unicode="&#x459;" horiz-adv-x="1617" 
d="M946 1059v-393h238q170 0 277.5 -90t107.5 -238q0 -154 -107 -246t-278 -92h-340v975h-463q-13 -222 -23 -340q0 -4 -6.5 -79t-9 -95.5t-10.5 -86.5t-16.5 -96.5t-22 -78.5t-31 -79t-39.5 -54q-67 -74 -190 -74h-23v84h21q71 0 119 51q78 84 102 371q19 229 33 561h661z
M946 84h228q130 0 211 65.5t81 188.5q0 117 -81 180.5t-211 63.5h-228v-498z" />
    <glyph glyph-name="uni045A" unicode="&#x45a;" horiz-adv-x="1613" 
d="M240 1059v-445h600v445h102v-445h268q166 0 260.5 -84.5t94.5 -220.5q0 -142 -94 -225.5t-261 -83.5h-370v532h-600v-532h-103v1059h103zM942 84h258q126 0 194 56t68 167q0 107 -68.5 166t-193.5 59h-258v-448z" />
    <glyph glyph-name="uni045B" unicode="&#x45b;" horiz-adv-x="1091" 
d="M137 0v1214h-157v74h157v174h103v-174h438v-74h-438v-358q98 215 340 215q83 0 149.5 -21.5t120.5 -67t83.5 -126.5t29.5 -192v-664h-103v659q0 175 -78 251.5t-209 76.5q-64 0 -120 -21t-105.5 -67.5t-78.5 -134t-29 -207.5v-557h-103z" />
    <glyph glyph-name="uni045C" unicode="&#x45c;" horiz-adv-x="929" 
d="M240 0h-103v1059h103v-473h127l407 473h121l-444 -514l450 -545h-127l-414 502h-120v-502zM401 1194l199 268h127l-250 -268h-76z" />
    <glyph glyph-name="uni045D" unicode="&#x45d;" horiz-adv-x="1107" 
d="M137 0v1059h103v-912l616 912h113v-1059h-103v911l-614 -911h-115zM319 1462h127l199 -268h-76z" />
    <glyph glyph-name="uni045E" unicode="&#x45e;" horiz-adv-x="999" 
d="M127 1059q43 -107 179 -445.5t210 -523.5h2q59 161 177 484.5t177 484.5h105q-118 -319 -477 -1274q-36 -99 -87 -147t-151 -48h-84v84h82q23 0 42.5 5.5t35 18.5t26 24.5t21 33t16 34t14.5 37.5t13 34l37 102l-442 1096h104zM207 1436h90q3 -76 58 -125t137 -49
q83 0 137 48.5t59 125.5h90q-9 -109 -88 -177.5t-198 -68.5q-118 0 -197 68.5t-88 177.5z" />
    <glyph glyph-name="uni045F" unicode="&#x45f;" horiz-adv-x="1099" 
d="M504 -289v289h-367v1059h103v-975h620v975h103v-1059h-365v-289h-94z" />
    <glyph glyph-name="uni0490" unicode="&#x490;" horiz-adv-x="1024" 
d="M270 1374v-1374h-108v1462h712v326h101v-414h-705z" />
    <glyph glyph-name="uni0491" unicode="&#x491;" horiz-adv-x="825" 
d="M240 975v-975h-103v1059h576v289h92v-373h-565z" />
    <glyph glyph-name="uni0492" unicode="&#x492;" horiz-adv-x="1024" 
d="M6 688v76h156v698h813v-88h-705v-610h381v-76h-381v-688h-108v688h-156z" />
    <glyph glyph-name="uni0493" unicode="&#x493;" horiz-adv-x="825" 
d="M582 494h-342v-494h-103v494h-125v73h125v492h668v-84h-565v-408h342v-73z" />
    <glyph glyph-name="uni0496" unicode="&#x496;" horiz-adv-x="1886" 
d="M1663 0l-553 705h-131v-705h-109v705h-133l-551 -705h-131l594 754l-534 708h131l489 -669h135v669h109v-669h133l492 669h129l-535 -708l526 -666h113v-455h-100v367h-74z" />
    <glyph glyph-name="uni0497" unicode="&#x497;" horiz-adv-x="1394" 
d="M39 0l410 545l-404 514h117l370 -473h103v473h102v-473h103l368 473h117l-403 -516l348 -459h114v-373h-94v289h-76l-378 502h-99v-502h-102v502h-98l-381 -502h-117z" />
    <glyph glyph-name="uni049A" unicode="&#x49a;" horiz-adv-x="1310" 
d="M1075 0l-629 705h-176v-705h-108v1462h108v-669h176l570 669h135l-612 -710l594 -664h129v-455h-101v367h-86z" />
    <glyph glyph-name="uni049B" unicode="&#x49b;" horiz-adv-x="952" 
d="M240 0h-103v1059h103v-473h127l407 473h121l-444 -514l380 -461h111v-373h-94v289h-74l-414 502h-120v-502z" />
    <glyph glyph-name="uni049C" unicode="&#x49c;" horiz-adv-x="1257" 
d="M1075 0l-596 705h-49v-283h-74v283h-86v-705h-108v1462h108v-669h86v249h74v-249h49l537 669h135l-578 -708l637 -754h-135z" />
    <glyph glyph-name="uni049D" unicode="&#x49d;" horiz-adv-x="929" 
d="M240 0h-103v1059h103v-484h71v224h70v-224h20l371 484h125l-405 -524l409 -535h-127l-373 494h-20v-222h-70v222h-71v-494z" />
    <glyph glyph-name="uni04A2" unicode="&#x4a2;" horiz-adv-x="1404" 
d="M1087 1462h109v-1374h141v-455h-102v367h-148v702h-817v-702h-108v1462h108v-671h817v671z" />
    <glyph glyph-name="uni04A3" unicode="&#x4a3;" horiz-adv-x="1132" 
d="M240 1059v-484h620v484h103v-975h129v-373h-93v289h-139v494h-620v-494h-103v1059h103z" />
    <glyph glyph-name="uni04AE" unicode="&#x4ae;" horiz-adv-x="1175" 
d="M156 1462q36 -63 192 -338.5t238 -423.5h4q70 127 214.5 381t215.5 381h121l-500 -870v-592h-106v592l-498 870h119z" />
    <glyph glyph-name="uni04AF" unicode="&#x4af;" horiz-adv-x="985" 
d="M127 1059l367 -928h2q94 241 364 928h103q-69 -173 -209.5 -531.5t-208.5 -531.5v-406h-103v400l-419 1069h104z" />
    <glyph glyph-name="uni04B2" unicode="&#x4b2;" horiz-adv-x="1265" 
d="M27 0l508 752l-496 710h125l434 -620l438 620h121l-498 -710l451 -664h107v-455h-101v367h-72l-446 659l-448 -659h-123z" />
    <glyph glyph-name="uni04B3" unicode="&#x4b3;" horiz-adv-x="1013" 
d="M39 0l391 545l-371 514h125l312 -438l309 438h125l-371 -516l330 -459h112v-373h-94v289h-82l-329 467l-332 -467h-125z" />
    <glyph glyph-name="uni04B8" unicode="&#x4b8;" horiz-adv-x="1216" 
d="M547 332v260q-239 10 -347 119.5t-108 318.5v432h109v-430q0 -326 346 -350v270h74v-272q171 3 327 45v737h107v-1462h-107v637q-185 -43 -327 -45v-260h-74z" />
    <glyph glyph-name="uni04B9" unicode="&#x4b9;" horiz-adv-x="976" 
d="M424 172v225q-189 12 -276 108t-87 281v273h103v-271q0 -148 58.5 -218.5t201.5 -82.5v211h70v-213q112 0 243 23v551h103v-1059h-103v418q-128 -23 -243 -23v-223h-70z" />
    <glyph glyph-name="uni04BA" unicode="&#x4ba;" horiz-adv-x="1216" 
d="M623 870q264 0 382.5 -109t118.5 -329v-432h-108v430q0 352 -402 352q-173 0 -346 -45v-737h-106v1462h106v-637q196 45 355 45z" />
    <glyph glyph-name="uni04BB" unicode="&#x4bb;" horiz-adv-x="1091" 
d="M137 0v1462h103v-606q98 215 340 215q83 0 149.5 -21.5t120.5 -67t83.5 -126.5t29.5 -192v-664h-103v659q0 175 -78 251.5t-209 76.5q-64 0 -120 -21t-105.5 -67.5t-78.5 -134t-29 -207.5v-557h-103z" />
    <glyph glyph-name="uni04C0" unicode="&#x4c0;" horiz-adv-x="432" 
d="M162 1462h108v-1462h-108v1462z" />
    <glyph glyph-name="uni04CF" unicode="&#x4cf;" horiz-adv-x="376" 
d="M137 1462h103v-1462h-103v1462z" />
    <glyph glyph-name="uni04D8" unicode="&#x4d8;" horiz-adv-x="1560" 
d="M764 -23q-155 0 -284 59.5t-215 161.5t-133.5 239t-47.5 292q0 42 2 62h1280q-7 92 -34.5 177.5t-78 162t-119.5 133t-165 89.5t-209 33q-204 0 -336.5 -85.5t-194.5 -233.5h-110q75 193 237 301.5t404 108.5q214 0 378.5 -96.5t251.5 -262.5t87 -373q0 -347 -197 -557.5
t-516 -210.5zM186 702q3 -95 27.5 -186t72.5 -172.5t114.5 -142.5t160 -97t203.5 -36q119 0 219 36t169 97t117.5 143t72.5 172t26 186h-1182z" />
    <glyph glyph-name="uni04D9" unicode="&#x4d9;" horiz-adv-x="1120" 
d="M88 748q47 147 166.5 235t292.5 88q117 0 213.5 -43.5t159 -118t96 -172t33.5 -207.5q0 -146 -57.5 -268t-172.5 -198t-266 -76q-115 0 -203.5 39.5t-143.5 110t-85 160t-37 198.5q-2 23 -2 65h866q-6 185 -117 304.5t-284 119.5q-126 0 -219 -63.5t-135 -173.5h-105z
M182 479q40 -407 371 -407q167 0 274.5 114t118.5 293h-764z" />
    <glyph glyph-name="uni04E8" unicode="&#x4e8;" horiz-adv-x="1650" 
d="M823 1485q170 0 311.5 -60t234.5 -163t144.5 -240.5t51.5 -292.5t-51 -292t-144.5 -239t-235 -161.5t-311.5 -59.5q-169 0 -310 59.5t-234 161.5t-144 239t-51 292t51 292.5t144 240.5t234 163t310 60zM193 705q3 -97 28.5 -188.5t77.5 -173.5t124 -143.5t175 -97.5
t225 -36q123 0 227 36t176.5 97.5t124.5 143.5t78 173.5t29 188.5h-1265zM195 793h1261q-8 93 -36.5 179.5t-81.5 164t-125 134.5t-172.5 90.5t-217.5 33.5q-116 0 -215.5 -33.5t-171 -90.5t-124 -134.5t-81 -164t-36.5 -179.5z" />
    <glyph glyph-name="uni04E9" unicode="&#x4e9;" horiz-adv-x="1167" 
d="M584 -12q-119 0 -217 43.5t-162 118t-98.5 171.5t-34.5 205q0 109 34.5 207t98.5 173.5t162 120t217 44.5q117 0 215 -44.5t162 -120t99.5 -173.5t35.5 -207q0 -108 -35.5 -205t-99.5 -171.5t-162 -118t-215 -43.5zM174 494q11 -181 123.5 -300.5t286.5 -119.5
q172 0 285 120t124 300h-819zM176 575h815q-15 178 -127.5 295t-279.5 117q-169 0 -281.5 -117t-126.5 -295z" />
    <glyph glyph-name="Wgrave" unicode="&#x1e80;" horiz-adv-x="1812" 
d="M27 1462h114l281 -1100l67 -249h3l63 249l270 1100h160l266 -1093l68 -258h4l66 260l280 1091h117l-291 -1089l-98 -373h-154l-92 367l-246 981h-2l-248 -983l-90 -365h-151l-97 362zM600 1802h154l262 -207h-107z" />
    <glyph glyph-name="wgrave" unicode="&#x1e81;" horiz-adv-x="1409" 
d="M338 0l-315 1059h104l211 -729l55 -197h2q9 33 27 99.5t27 99.5l198 727h115l196 -717q6 -24 26.5 -96.5t29.5 -112.5h2l61 211l205 715h104l-315 -1059h-110l-201 737l-53 189h-2q-9 -32 -26 -95t-26 -94l-204 -737h-111zM500 1462h127l198 -268h-75z" />
    <glyph glyph-name="Wacute" unicode="&#x1e82;" horiz-adv-x="1812" 
d="M27 1462h114l281 -1100l67 -249h3l63 249l270 1100h160l266 -1093l68 -258h4l66 260l280 1091h117l-291 -1089l-98 -373h-154l-92 367l-246 981h-2l-248 -983l-90 -365h-151l-97 362zM788 1595l263 207h153l-309 -207h-107z" />
    <glyph glyph-name="wacute" unicode="&#x1e83;" horiz-adv-x="1409" 
d="M338 0l-315 1059h104l211 -729l55 -197h2q9 33 27 99.5t27 99.5l198 727h115l196 -717q6 -24 26.5 -96.5t29.5 -112.5h2l61 211l205 715h104l-315 -1059h-110l-201 737l-53 189h-2q-9 -32 -26 -95t-26 -94l-204 -737h-111zM672 1194l198 268h127l-249 -268h-76z" />
    <glyph glyph-name="Wdieresis" unicode="&#x1e84;" horiz-adv-x="1812" 
d="M27 1462h114l281 -1100l67 -249h3l63 249l270 1100h160l266 -1093l68 -258h4l66 260l280 1091h117l-291 -1089l-98 -373h-154l-92 367l-246 981h-2l-248 -983l-90 -365h-151l-97 362zM709 1595v207h98v-207h-98zM991 1595v207h101v-207h-101z" />
    <glyph glyph-name="wdieresis" unicode="&#x1e85;" horiz-adv-x="1409" 
d="M338 0l-315 1059h104l211 -729l55 -197h2q9 33 27 99.5t27 99.5l198 727h115l196 -717q6 -24 26.5 -96.5t29.5 -112.5h2l61 211l205 715h104l-315 -1059h-110l-201 737l-53 189h-2q-9 -32 -26 -95t-26 -94l-204 -737h-111zM528 1278v184h95v-184h-95zM786 1278v184h95
v-184h-95z" />
    <glyph glyph-name="uni1E9E" unicode="&#x1e9e;" horiz-adv-x="1337" 
d="M166 975q0 226 134.5 356.5t344.5 130.5q250 0 512 -153l-442 -492q111 -1 202 -25.5t159.5 -73t106.5 -126.5t38 -180q0 -99 -34 -180.5t-93 -134t-135 -81t-162 -28.5q-128 0 -230 41l27 90q94 -43 203 -43q140 0 228.5 96.5t88.5 241.5q0 146 -104 231.5t-320 85.5
h-78v105l400 450q-180 88 -363 88q-170 0 -273.5 -106.5t-103.5 -298.5v-969h-106v975z" />
    <glyph glyph-name="Ygrave" unicode="&#x1ef2;" horiz-adv-x="1175" 
d="M156 1462q36 -63 192 -338.5t238 -423.5h4q70 127 214.5 381t215.5 381h121l-500 -870v-592h-106v592l-498 870h119zM285 1802h153l262 -207h-106z" />
    <glyph glyph-name="ygrave" unicode="&#x1ef3;" horiz-adv-x="999" 
d="M127 1059q43 -107 179 -445.5t210 -523.5h2q59 161 177 484.5t177 484.5h105q-118 -319 -477 -1274q-36 -99 -87 -147t-151 -48h-84v84h82q23 0 42.5 5.5t35 18.5t26 24.5t21 33t16 34t14.5 37.5t13 34l37 102l-442 1096h104zM256 1462h127l199 -268h-76z" />
    <glyph glyph-name="uni2011" unicode="&#x2011;" horiz-adv-x="948" 
d="M162 584h622v-84h-622v84z" />
    <glyph glyph-name="endash" unicode="&#x2013;" horiz-adv-x="1335" 
d="M162 584h1012v-84h-1012v84z" />
    <glyph glyph-name="emdash" unicode="&#x2014;" horiz-adv-x="1761" 
d="M162 584h1435v-84h-1435v84z" />
    <glyph glyph-name="quoteleft" unicode="&#x2018;" horiz-adv-x="348" 
d="M195 993h-117l133 469h82z" />
    <glyph glyph-name="quoteright" unicode="&#x2019;" horiz-adv-x="348" 
d="M154 1462h116l-133 -469h-82z" />
    <glyph glyph-name="quotesinglbase" unicode="&#x201a;" horiz-adv-x="348" 
d="M154 227h116l-133 -469h-82z" />
    <glyph glyph-name="quotedblleft" unicode="&#x201c;" horiz-adv-x="552" 
d="M399 993h-116l133 469h82zM78 993l133 469h82l-98 -469h-117z" />
    <glyph glyph-name="quotedblright" unicode="&#x201d;" horiz-adv-x="552" 
d="M154 1462h116l-133 -469h-82zM262 993l98 469h117l-133 -469h-82z" />
    <glyph glyph-name="quotedblbase" unicode="&#x201e;" horiz-adv-x="552" 
d="M154 231h116l-133 -469h-82zM262 -238l98 469h117l-133 -469h-82z" />
    <glyph glyph-name="dagger" unicode="&#x2020;" horiz-adv-x="1142" 
d="M117 975v84h407v403h92v-403h408v-84h-408v-1288h-92v1288h-407z" />
    <glyph glyph-name="daggerdbl" unicode="&#x2021;" horiz-adv-x="1142" 
d="M1024 975h-408v-801h408v-84h-408v-403h-92v403h-407v84h407v801h-407v84h407v403h92v-403h408v-84z" />
    <glyph glyph-name="bullet" unicode="&#x2022;" horiz-adv-x="1079" 
d="M541 909q159 0 268 -108t109 -266q0 -159 -109.5 -270t-267.5 -111t-268.5 111.5t-110.5 269.5t110 266t269 108z" />
    <glyph glyph-name="ellipsis" unicode="&#x2026;" horiz-adv-x="1097" 
d="M129 233h104v-233h-104v233zM498 0v233h104v-233h-104zM864 0v233h105v-233h-105z" />
    <glyph glyph-name="perthousand" unicode="&#x2030;" horiz-adv-x="2459" 
d="M395 733q49 0 88 28.5t61.5 76.5t34 105.5t11.5 119.5q0 82 -19.5 152t-65 118.5t-110.5 48.5q-97 0 -147.5 -94t-50.5 -225q0 -85 19.5 -157t66 -122.5t112.5 -50.5zM104 1061q0 63 10 120t33 108.5t56 89.5t82.5 60.5t109.5 22.5q74 0 131 -33.5t90 -91t49.5 -127.5
t16.5 -149q0 -78 -16.5 -149t-49.5 -130t-90 -94t-131 -35q-75 0 -132.5 34.5t-91 93.5t-50.5 130t-17 150zM555 6l563 1452h96l-563 -1452h-96zM1108 406q0 78 17 147.5t50.5 127t90.5 91t131 33.5q75 0 132 -33.5t90.5 -91t50 -127t16.5 -147.5q0 -79 -16.5 -150
t-50 -130.5t-90.5 -94.5t-132 -35q-74 0 -131 35t-90.5 94t-50.5 130t-17 151zM1200 408q0 -86 19.5 -158.5t65.5 -123t112 -50.5t111.5 50.5t64 123t18.5 158.5q0 83 -18.5 152t-64 117t-111.5 48t-112 -48t-65.5 -117t-19.5 -152zM1776 406q0 62 10 119t32.5 108.5
t55.5 89t82.5 60t109.5 22.5q74 0 131 -33.5t90 -91t49.5 -127t16.5 -147.5q0 -79 -16.5 -150t-49.5 -130.5t-90 -94.5t-131 -35q-60 0 -109.5 23t-82.5 62t-55.5 92t-32.5 111.5t-10 121.5zM1870 408q0 -86 19 -158.5t65 -123t112 -50.5t111.5 50.5t64.5 123t19 158.5
q0 83 -19 152t-64.5 117t-111.5 48t-112 -48t-65 -117t-19 -152z" />
    <glyph glyph-name="guilsinglleft" unicode="&#x2039;" horiz-adv-x="505" 
d="M88 532l231 416h99l-215 -416l215 -419h-99z" />
    <glyph glyph-name="guilsinglright" unicode="&#x203a;" horiz-adv-x="505" 
d="M418 532l-232 -419h-98l215 419l-215 416h98z" />
    <glyph glyph-name="fraction" unicode="&#x2044;" horiz-adv-x="430" 
d="M545 1458l-563 -1452h-97l564 1452h96z" />
    <glyph glyph-name="Euro" unicode="&#x20ac;" horiz-adv-x="1511" 
d="M1090 561h-697q52 -223 217 -363.5t410 -140.5q183 0 313 72v-92q-147 -62 -313 -62q-148 0 -274 44.5t-217.5 124t-152.5 185.5t-87 232h-183l31 80h139q-6 49 -6 100q0 44 2 64h-180l33 82h158q22 131 81.5 243t151.5 196.5t222 132.5t282 48q219 0 383 -94l-31 -82
q-74 45 -155.5 68.5t-196.5 23.5q-136 0 -248.5 -42t-190 -116.5t-127 -170t-69.5 -207.5h819l-26 -82h-803q-2 -20 -2 -64q0 -51 6 -100h737z" />
    <glyph glyph-name="uni20B4" unicode="&#x20b4;" horiz-adv-x="1247" 
d="M614 -16q-97 0 -179 19t-153 60.5t-113 118.5t-44 183q-3 160 100 256h-100v71h205q76 39 225 82q167 50 231 82h-661v72h772q68 65 68 184q-3 128 -103 203.5t-246 75.5q-149 0 -251.5 -80t-120.5 -234h-109q24 202 155.5 302t323.5 100q123 0 224.5 -40.5t166.5 -125
t66 -199.5q3 -115 -45 -186h100v-72h-165q-101 -81 -373 -162q-1 0 -3 -1t-3 -1h544v-71h-735q-79 -40 -119 -100.5t-39 -153.5q1 -65 22.5 -116t57 -84t85 -55t103 -31t113.5 -9q73 0 142.5 23.5t128 67.5t97.5 114.5t46 156.5h109q-8 -93 -41.5 -169t-84.5 -127.5
t-116.5 -86.5t-135.5 -51t-145 -16z" />
    <glyph glyph-name="uni20BD" unicode="&#x20bd;" horiz-adv-x="1153" 
d="M569 719q189 0 291.5 84.5t102.5 257.5q0 148 -97.5 232.5t-279.5 84.5h-316v-659h299zM6 377v82h156v176h-156v84h156v743h444q204 0 333.5 -104.5t129.5 -294.5q0 -201 -132 -314.5t-347 -113.5h-320v-176h387v-82h-387v-377h-108v377h-156z" />
    <glyph glyph-name="uni2113" unicode="&#x2113;" horiz-adv-x="966" 
d="M35 422l237 170v479q0 70 7.5 127t27 110t50.5 89t81.5 57t116.5 21q129 0 197.5 -88.5t68.5 -219.5q0 -72 -18 -136t-48.5 -116.5t-82.5 -107.5t-107 -101t-135 -104l-59 -43v-231q0 -136 43 -198t143 -62q69 0 117 27.5t106 92.5l54 -69q-120 -133 -277 -133
q-148 0 -216.5 78.5t-68.5 265.5v155l-186 -133zM371 666l28 20q173 127 249.5 233t76.5 246q0 104 -44.5 165t-127.5 61q-87 0 -134.5 -81.5t-47.5 -238.5v-405z" />
    <glyph glyph-name="uni2116" unicode="&#x2116;" horiz-adv-x="2172" 
d="M162 1462h125l669 -1069q49 -79 152 -239v284v1024h106v-1462h-122l-672 1069q-57 95 -150 240v-285v-1024h-108v1462zM1346 1102q0 162 100 271.5t262 109.5q163 0 263 -109.5t100 -271.5q0 -161 -100 -270t-263 -109q-162 0 -262 109t-100 270zM1442 1102
q0 -127 74.5 -212t191.5 -85q119 0 193.5 84.5t74.5 212.5t-75 213.5t-193 85.5q-117 0 -191.5 -85.5t-74.5 -213.5z" />
    <glyph glyph-name="uni2117" unicode="&#x2117;" horiz-adv-x="1732" 
d="M868 35q-187 0 -345.5 93t-250.5 254t-92 351q0 142 54 270.5t146 221.5t219.5 147.5t268.5 54.5q186 0 344 -93t250 -253t92 -348q0 -143 -54.5 -272t-146 -222.5t-218.5 -148.5t-267 -55zM84 733q0 -160 62 -305.5t167.5 -249.5t250.5 -165.5t304 -61.5q158 0 302 61.5
t249 165.5t167.5 249.5t62.5 305.5q0 212 -105.5 391.5t-285 283t-390.5 103.5q-159 0 -304 -61.5t-250.5 -165t-167.5 -248t-62 -303.5zM678 373v731h246q117 0 185.5 -60t68.5 -155q0 -96 -70.5 -156.5t-185.5 -60.5h-150v-299h-94zM772 748h137q176 0 176 141
q0 64 -44 101.5t-126 37.5h-143v-280z" />
    <glyph glyph-name="trademark" unicode="&#x2122;" horiz-adv-x="921" 
d="M389 1407h-131v-352h-70v352h-129v55h330v-55zM453 1055v407h104l105 -325l104 325h108v-407h-69v327h-2l-101 -327h-79l-103 325h-2v-325h-65z" />
    <glyph glyph-name="uni2126" unicode="&#x2126;" horiz-adv-x="1515" 
d="M131 0v88h442v201q-82 18 -162.5 69.5t-145 126.5t-104.5 176.5t-40 208.5q0 176 78 314.5t223.5 217.5t335.5 79t335.5 -79t223.5 -217.5t78 -314.5q0 -107 -40 -208.5t-105 -176.5t-145 -126.5t-161 -69.5v-201h438v-88h-532v356q192 33 319 180.5t127 327.5
q0 230 -148 379.5t-390 149.5t-390.5 -149.5t-148.5 -379.5q0 -180 127.5 -327.5t319.5 -180.5v-356h-535z" />
    <glyph glyph-name="estimated" unicode="&#x212e;" horiz-adv-x="1220" 
d="M74 528q0 155 71.5 284t197 204.5t278.5 75.5q152 0 273 -75.5t187 -204t66 -284.5h-803v-405q125 -88 277 -88q131 0 240.5 65t172.5 174l60 -32q-72 -127 -196.5 -202t-276.5 -75q-114 0 -216 44.5t-174.5 120t-114.5 179.5t-42 219zM344 598h553v332q-123 92 -276 92
q-152 0 -277 -88v-336z" />
    <glyph glyph-name="uni2153" unicode="&#x2153;" horiz-adv-x="1449" 
d="M252 584v655h-201v66q63 0 96 4t61 20t40.5 46.5t21.5 84.5h70v-876h-88zM328 6l563 1452h96l-563 -1452h-96zM797 252h90l2 -19q9 -89 63.5 -131.5t141.5 -42.5q90 0 147 51t57 136q0 96 -63.5 139t-159.5 43h-33v78q18 0 54 4q71 5 113 45.5t42 110.5q0 68 -41 105.5
t-116 37.5q-73 0 -117.5 -39t-50.5 -102l-2 -17h-88q5 102 72.5 167t185.5 65q116 0 181.5 -58t65.5 -151q0 -78 -33 -125t-94 -78q172 -46 172 -229q0 -112 -78 -184t-214 -72q-134 0 -209 66t-86 186z" />
    <glyph glyph-name="uni2154" unicode="&#x2154;" horiz-adv-x="1695" 
d="M63 584q3 55 22 104t41 82.5t63.5 72t67.5 58t77 55.5q60 43 87.5 64.5t59 55t43 66t11.5 75.5q0 76 -47.5 126t-135.5 50q-93 0 -141.5 -56t-50.5 -151h-88q2 131 74.5 205.5t207.5 74.5q125 0 197 -68t72 -175q0 -26 -3 -49t-11.5 -44.5t-15 -37.5t-22.5 -35t-23.5 -29
t-29 -29t-28.5 -25t-32 -26l-30 -24q-21 -17 -64 -48.5t-66.5 -50.5t-53 -47t-47 -57.5t-25.5 -63.5h463v-73h-572zM561 6l563 1452h97l-564 -1452h-96zM1044 252h91l2 -19q9 -89 63 -131.5t141 -42.5q91 0 148 51t57 136q0 96 -63.5 139t-159.5 43h-33v78q17 0 53 4
q71 5 113.5 45.5t42.5 110.5q0 68 -41.5 105.5t-116.5 37.5q-73 0 -117 -39t-50 -102l-3 -17h-88q5 102 72.5 167t185.5 65q116 0 182 -58t66 -151q0 -78 -33 -125t-94 -78q172 -46 172 -229q0 -112 -78.5 -184t-214.5 -72q-134 0 -208.5 65.5t-85.5 186.5z" />
    <glyph glyph-name="oneeighth" unicode="&#x215b;" horiz-adv-x="1533" 
d="M252 584v655h-201v66q63 0 96 4t61 20t40.5 46.5t21.5 84.5h70v-876h-88zM332 6l563 1452h96l-563 -1452h-96zM856 238q1 88 57.5 150.5t130.5 78.5q-73 24 -113 74.5t-40 124.5q0 97 78 159t196 62q117 0 194 -62t77 -159q0 -73 -41 -126t-111 -73q75 -16 130.5 -78.5
t55.5 -150.5q1 -117 -84 -184.5t-221 -67.5q-138 0 -224 67.5t-85 184.5zM944 242q0 -81 59 -132t162 -51q101 0 159 51t58 134q0 80 -58.5 132t-158.5 52q-103 0 -162 -52t-59 -134zM981 655q0 -69 49.5 -112t134.5 -43q84 0 133.5 43t49.5 112q0 65 -48 110.5t-135 45.5
q-88 0 -136 -45t-48 -111z" />
    <glyph glyph-name="threeeighths" unicode="&#x215c;" horiz-adv-x="1679" 
d="M360 569q-134 0 -208.5 65.5t-85.5 186.5l-3 15h91l2 -19q9 -89 63 -131.5t141 -42.5q91 0 148 50.5t57 135.5q0 50 -18.5 87t-51 57t-70.5 29.5t-83 9.5h-33v78q17 0 53 4q71 5 113.5 45t42.5 110q0 68 -41.5 106t-116.5 38q-73 0 -117 -39.5t-50 -102.5l-3 -16h-88
q5 102 72.5 166.5t185.5 64.5q116 0 182 -58t66 -151q0 -78 -33 -124.5t-94 -77.5q80 -22 126 -78.5t46 -151.5q0 -112 -78.5 -184t-214.5 -72zM496 6l563 1452h96l-563 -1452h-96zM1001 238q1 88 58 150.5t131 78.5q-73 24 -113.5 74.5t-40.5 124.5q0 97 78.5 159t196.5 62
q117 0 193.5 -62t76.5 -159q0 -73 -40.5 -126t-110.5 -73q75 -16 130.5 -78.5t55.5 -150.5q1 -117 -84 -184.5t-221 -67.5q-138 0 -224.5 67.5t-85.5 184.5zM1090 242q0 -81 59 -132t162 -51q101 0 159 51t58 134q0 80 -58.5 132t-158.5 52q-103 0 -162 -52t-59 -134z
M1126 655q0 -69 50 -112t135 -43q83 0 132.5 43t49.5 112q0 66 -48 111t-134 45q-88 0 -136.5 -45t-48.5 -111z" />
    <glyph glyph-name="fiveeighths" unicode="&#x215d;" horiz-adv-x="1642" 
d="M362 569q-123 0 -206.5 68.5t-92.5 181.5h89q9 -77 67.5 -125.5t140.5 -48.5q89 0 152 59.5t63 163.5q0 103 -55.5 164.5t-152.5 61.5q-131 0 -195 -117l-90 12l68 471h444v-76h-375l-45 -305q69 90 203 90q133 0 210 -79t77 -222q0 -126 -83.5 -212.5t-218.5 -86.5z
M504 6l563 1452h96l-563 -1452h-96zM965 238q1 88 57.5 150.5t130.5 78.5q-73 24 -113.5 74.5t-40.5 124.5q0 97 78.5 159t196.5 62q117 0 193.5 -62t76.5 -159q0 -73 -40.5 -126t-110.5 -73q75 -16 130.5 -78.5t55.5 -150.5q1 -117 -84 -184.5t-221 -67.5q-138 0 -224 67.5
t-85 184.5zM1053 242q0 -81 59 -132t162 -51q101 0 159 51t58 134q0 80 -58.5 132t-158.5 52q-103 0 -162 -52t-59 -134zM1090 655q0 -69 49.5 -112t134.5 -43q83 0 132.5 43t49.5 112q0 66 -48 111t-134 45q-88 0 -136 -45t-48 -111z" />
    <glyph glyph-name="seveneighths" unicode="&#x215e;" horiz-adv-x="1570" 
d="M180 584q14 224 109.5 442t220.5 358h-459v76h563v-74q-136 -139 -235 -363.5t-111 -438.5h-88zM350 6l563 1452h97l-564 -1452h-96zM893 238q1 88 57.5 150.5t130.5 78.5q-73 24 -113 74.5t-40 124.5q0 97 78 159t196 62q117 0 194 -62t77 -159q0 -73 -41 -126t-111 -73
q75 -16 130.5 -78.5t55.5 -150.5q1 -117 -84 -184.5t-221 -67.5q-138 0 -224 67.5t-85 184.5zM981 242q0 -81 59 -132t162 -51q101 0 159 51t58 134q0 80 -58.5 132t-158.5 52q-103 0 -162 -52t-59 -134zM1018 655q0 -69 49.5 -112t134.5 -43q83 0 132.5 43t49.5 112
q0 66 -48 111t-134 45q-88 0 -136 -45t-48 -111z" />
    <glyph glyph-name="arrowleft" unicode="&#x2190;" horiz-adv-x="1751" 
d="M1614 655h-1301l37 -30l529 -529l-66 -69l-676 675l676 674l68 -69l-531 -529l-37 -30h1301v-93z" />
    <glyph glyph-name="arrowup" unicode="&#x2191;" horiz-adv-x="1626" 
d="M137 797l676 676l674 -676l-70 -68l-528 535l-27 30v-1294h-98v1294l-29 -32l-528 -533z" />
    <glyph glyph-name="arrowright" unicode="&#x2192;" horiz-adv-x="1751" 
d="M137 655v93h1301l-37 30l-531 529l68 69l676 -674l-676 -675l-66 69l529 529l37 30h-1301z" />
    <glyph glyph-name="arrowdown" unicode="&#x2193;" horiz-adv-x="1626" 
d="M137 666l70 67l528 -532l29 -33v1294h98v-1294l27 31l528 534l70 -67l-674 -676z" />
    <glyph glyph-name="uni2196" unicode="&#x2196;" horiz-adv-x="1343" 
d="M137 1231h910v-88h-662l-96 2l917 -914l-69 -67l-906 905l2 -94v-656h-96v912z" />
    <glyph glyph-name="uni2197" unicode="&#x2197;" horiz-adv-x="1343" 
d="M1206 1231v-912h-96v656l2 94l-905 -905l-70 67l918 914l-97 -2h-661v88h909z" />
    <glyph glyph-name="uni2198" unicode="&#x2198;" horiz-adv-x="1343" 
d="M1206 184h-909v88h661l97 -2l-918 914l70 67l905 -905l-2 94v656h96v-912z" />
    <glyph glyph-name="uni2199" unicode="&#x2199;" horiz-adv-x="1343" 
d="M137 184v912h96v-656l-2 -94l906 905l69 -67l-917 -914l96 2h662v-88h-910z" />
    <glyph glyph-name="uni219E" unicode="&#x219e;" horiz-adv-x="1751" 
d="M1614 748v-93h-709l37 -30l531 -529l-68 -69l-629 628h-463l37 -30l529 -529l-66 -69l-676 675l676 674l68 -69l-531 -529l-37 -30h461l631 628l68 -69l-531 -529l-37 -30h709z" />
    <glyph glyph-name="uni219F" unicode="&#x219f;" horiz-adv-x="1626" 
d="M858 -4h-92v709l-31 -37l-528 -531l-70 68l629 629v462l-31 -36l-528 -529l-70 66l676 676l674 -676l-70 -68l-528 531l-31 36v-460l629 -631l-70 -68l-528 531l-31 37v-709z" />
    <glyph glyph-name="uni21A0" unicode="&#x21a0;" horiz-adv-x="1751" 
d="M846 748l-37 30l-530 529l67 69l631 -628h461l-37 30l-531 529l68 69l676 -674l-676 -675l-66 69l529 529l37 30h-463l-629 -628l-67 69l530 529l37 30h-709v93h709z" />
    <glyph glyph-name="uni21A1" unicode="&#x21a1;" horiz-adv-x="1626" 
d="M858 760l31 37l528 530l70 -67l-629 -631v-461l31 37l528 530l70 -67l-674 -676l-676 676l70 65l528 -528l31 -37v463l-629 629l70 67l528 -530l31 -37v708h92v-708z" />
    <glyph glyph-name="uni21A2" unicode="&#x21a2;" horiz-adv-x="1667" 
d="M1530 23l-68 -70l-538 541h-611l37 -33l438 -438l-67 -70l-584 584l582 583l67 -69l-434 -437l-39 -32h609l538 538l68 -69l-451 -449l-59 -63l59 -64z" />
    <glyph glyph-name="uni21A3" unicode="&#x21a3;" horiz-adv-x="1667" 
d="M137 23l453 452l59 64l-59 63l-451 449l68 69l538 -538h609l-39 32l-434 437l67 69l582 -583l-584 -584l-67 70l438 438l37 33h-611l-538 -541z" />
    <glyph glyph-name="uni21A4" unicode="&#x21a4;" horiz-adv-x="1652" 
d="M719 1120l67 -69l-434 -437l-39 -32h1108v524h95v-1139h-95v527h-1108l37 -33l438 -438l-67 -70l-584 584z" />
    <glyph glyph-name="uni21A5" unicode="&#x21a5;" horiz-adv-x="1441" 
d="M137 893l582 582l584 -584l-68 -68l-438 439l-33 36v-1212h526v-86h-1138v86h524v1212l-35 -38l-434 -435z" />
    <glyph glyph-name="uni21A6" unicode="&#x21a6;" horiz-adv-x="1652" 
d="M934 1120l582 -583l-584 -584l-68 70l439 438l36 33h-1108v-527h-94v1139h94v-524h1108l-39 32l-434 437z" />
    <glyph glyph-name="uni21A7" unicode="&#x21a7;" horiz-adv-x="1441" 
d="M137 569l70 68l434 -434l35 -39v1212h-524v86h1138v-86h-526v-1212l33 37l438 438l68 -68l-584 -583z" />
    <glyph glyph-name="uni21B0" unicode="&#x21b0;" horiz-adv-x="1599" 
d="M719 1509l67 -67l-405 -406l-70 -63h1151v-971h-94v883h-1057l70 -64l407 -407l-67 -70l-584 584z" />
    <glyph glyph-name="uni21B1" unicode="&#x21b1;" horiz-adv-x="1599" 
d="M881 1509l581 -581l-583 -584l-68 70l408 407l69 64h-1057v-883h-94v971h1151l-69 63l-406 406z" />
    <glyph glyph-name="uni21B2" unicode="&#x21b2;" horiz-adv-x="1599" 
d="M719 -47l-582 582l584 583l67 -69l-407 -408l-70 -63h1057v882h94v-971h-1151l70 -63l405 -406z" />
    <glyph glyph-name="uni21B3" unicode="&#x21b3;" horiz-adv-x="1599" 
d="M881 -47l-68 67l406 406l69 63h-1151v971h94v-882h1057l-69 63l-408 408l68 69l583 -583z" />
    <glyph glyph-name="partialdiff" unicode="&#x2202;" horiz-adv-x="1171" 
d="M72 532q0 107 34 203.5t96.5 171.5t159.5 119.5t216 44.5q222 0 358 -149q-120 338 -541 583l94 51q78 -54 131.5 -94.5t123 -101.5t116 -117.5t95.5 -135t78.5 -161.5t48 -189t18.5 -225q0 -87 -21.5 -167.5t-65 -149t-104 -119t-143.5 -79.5t-180 -29q-160 0 -279 76.5
t-177 198.5t-58 269zM176 532q0 -199 114.5 -327.5t295.5 -128.5t295 128.5t114 327.5q0 195 -113 325t-298 130q-183 0 -295.5 -128.5t-112.5 -326.5z" />
    <glyph glyph-name="uni2206" unicode="&#x2206;" horiz-adv-x="1441" 
d="M80 0l582 1462h104l596 -1462h-1282zM217 86h1004l-506 1243z" />
    <glyph glyph-name="product" unicode="&#x220f;" horiz-adv-x="1564" 
d="M43 1374v88h1479v-88h-258v-1673h-105v1673h-756v-1673h-104v1673h-256z" />
    <glyph glyph-name="summation" unicode="&#x2211;" horiz-adv-x="1343" 
d="M59 -299v80l607 809l-578 792v80h1102v-88h-975l571 -784l-608 -801h1036v-88h-1155z" />
    <glyph glyph-name="minus" unicode="&#x2212;" horiz-adv-x="1230" 
d="M121 584h989v-84h-989v84z" />
    <glyph glyph-name="uni2215" unicode="&#x2215;" horiz-adv-x="430" 
d="M543 1458l-563 -1452h-93l564 1452h92z" />
    <glyph glyph-name="uni2219" unicode="&#x2219;" horiz-adv-x="616" 
d="M309 768q54 0 92.5 -38.5t38.5 -92.5q0 -50 -39.5 -90.5t-89.5 -40.5q-54 0 -93.5 38.5t-39.5 92.5t38.5 92.5t92.5 38.5z" />
    <glyph glyph-name="radical" unicode="&#x221a;" horiz-adv-x="1318" 
d="M315 1059l336 -938h15l512 1341h114l-569 -1460l-127 -2l-358 973h-215v86h292z" />
    <glyph glyph-name="infinity" unicode="&#x221e;" horiz-adv-x="1601" 
d="M115 522q0 127 79 215t207 88q24 0 49 -5t45.5 -11.5t46 -21.5t41.5 -24t41.5 -31t37.5 -32t38 -37t33.5 -35t34.5 -37.5t31 -33.5q7 8 44 48t51.5 54.5t49.5 48t58.5 48.5t57.5 35t67.5 28t68.5 8q127 0 207 -88t80 -215q0 -138 -78 -224.5t-209 -86.5q-59 0 -116 21
t-109.5 61t-89 75.5t-82.5 86.5q-50 -54 -84 -86t-87.5 -73.5t-110 -62t-116.5 -20.5q-130 0 -208 85t-78 222zM201 512q0 -90 53.5 -155.5t146.5 -65.5q20 0 41 4t38 8.5t39 16.5t35 19t35.5 25t32.5 25.5t33.5 30t30 28.5t31 31t28.5 29q-101 108 -143 144
q-112 96 -201 96q-93 0 -146.5 -69.5t-53.5 -166.5zM852 508q9 -9 42 -41.5t47 -44.5t44 -38.5t50.5 -38.5t49 -27t56.5 -21t57 -6q93 0 146 66t53 155q0 97 -53.5 166.5t-147.5 69.5q-21 0 -42.5 -4t-44.5 -16t-39.5 -20t-42 -29.5t-37 -30t-39 -36.5t-34 -34t-35.5 -37.5
t-30 -32.5z" />
    <glyph glyph-name="integral" unicode="&#x222b;" horiz-adv-x="733" 
d="M-80 -293l14 82h66q85 0 125.5 45.5t62.5 169.5l211 1194q11 61 27.5 104.5t46 82t78.5 58t117 19.5h114l-16 -84h-68q-98 0 -138.5 -35.5t-61.5 -152.5l-213 -1198q-10 -54 -21 -92t-31.5 -77t-49 -62.5t-74 -38.5t-105.5 -15h-84z" />
    <glyph glyph-name="approxequal" unicode="&#x2248;" horiz-adv-x="1290" 
d="M1159 774q-41 -235 -289 -235q-59 0 -123.5 23.5t-112 52t-109 52t-113.5 23.5q-91 0 -135 -39.5t-54 -111.5h-94q11 107 82.5 171t200.5 64q67 0 136 -23.5t116.5 -51t104 -51t101.5 -23.5q92 0 136.5 37.5t60.5 111.5h92zM129 223q11 107 82.5 171.5t200.5 64.5
q67 0 136 -23.5t116.5 -51.5t104 -51.5t101.5 -23.5q92 0 136.5 38t60.5 112h92q-41 -236 -289 -236q-48 0 -99 15.5t-94 38t-85.5 45t-89.5 38t-90 15.5q-168 0 -189 -152h-94z" />
    <glyph glyph-name="notequal" unicode="&#x2260;" horiz-adv-x="1230" 
d="M381 -43l-72 37l144 285h-332v83h373l135 271h-508v82h549l180 358l74 -37l-162 -321h348v-82h-389l-135 -271h524v-83h-567z" />
    <glyph glyph-name="lessequal" unicode="&#x2264;" horiz-adv-x="1222" 
d="M117 92v82h989v-82h-989zM117 580v96l989 299v-90l-885 -256l885 -256v-90z" />
    <glyph glyph-name="greaterequal" unicode="&#x2265;" horiz-adv-x="1222" 
d="M1106 92h-989v82h989v-82zM117 283v90l884 256l-884 256v90l989 -299v-96z" />
    <glyph glyph-name="lozenge" unicode="&#x25ca;" horiz-adv-x="1183" 
d="M621 1462l458 -733l-458 -729h-74l-455 729l455 733h74zM203 729l381 -616l385 616l-385 621z" />
    <glyph glyph-name="fi" unicode="&#xfb01;" horiz-adv-x="978" 
d="M231 1212q0 52 12 95.5t37 79t68 55.5t101 20h104v-84h-94q-62 0 -93.5 -39t-31.5 -133v-147h182v-82h-182v-977h-103v977h-149v82h149v153zM733 0v1059h103v-1059h-103zM733 1257v205h107v-205h-107z" />
    <glyph glyph-name="fl" unicode="&#xfb02;" horiz-adv-x="970" 
d="M231 1212q0 52 12 95.5t37 79t68 55.5t101 20h104v-84h-94q-62 0 -93.5 -39t-31.5 -133v-147h182v-82h-182v-977h-103v977h-149v82h149v153zM731 0v1462h103v-1462h-103z" />
    <glyph glyph-name="uniFEFF" unicode="&#xfeff;" horiz-adv-x="16" 
 />
    <glyph glyph-name="Adieresis.ss02" horiz-adv-x="1339" 
d="M283 1462h98v-200h-98v200zM43 0l551 1462h154l548 -1462h-112l-176 477h-674l-178 -477h-113zM367 565h608l-303 807h-4zM958 1262v200h99v-200h-99z" />
    <glyph glyph-name="i.loclTRK" horiz-adv-x="376" 
d="M137 0v1059h103v-1059h-103zM141 1278v184h97v-184h-97z" />
    <glyph glyph-name="uni0414.loclBGR" horiz-adv-x="1585" 
d="M1518 -369h-101v367h-1247v-367h-100v455h131l526 1376h133l526 -1376h132v-455zM317 86h955l-475 1264h-4z" />
    <glyph glyph-name="uni041B.loclBGR" horiz-adv-x="1300" 
d="M27 0l555 1462h137l555 -1462h-119l-502 1352h-6l-502 -1352h-118z" />
    <glyph glyph-name="uni042F.ss03" horiz-adv-x="1284" 
d="M1122 -2h-108v649h-441l-366 -647h-121l387 670q-153 27 -237 137t-84 262q0 178 119 285.5t358 107.5h493v-1464zM260 1065q0 -152 95.5 -241t281.5 -89h377v639h-379q-104 0 -179 -24.5t-116.5 -69t-60.5 -97.5t-19 -118z" />
    <glyph glyph-name="uni0431.loclSRB" horiz-adv-x="1075" 
d="M557 -10q-210 0 -338.5 133t-128.5 340q0 170 95 295.5t276 189.5q-80 41 -92 49q-91 50 -132.5 100.5t-41.5 123.5q0 68 52 117.5t144 62.5q275 40 555 65v-88q-382 -37 -528 -63q-58 -10 -88.5 -37t-30.5 -64q0 -41 25 -72.5t96 -70.5q30 -17 105 -54t104 -52
q53 -26 87 -44t80 -46.5t75 -54.5t61 -63.5t50 -78t30 -93.5t12 -114q0 -214 -130.5 -347.5t-336.5 -133.5zM193 463q0 -171 98 -281t266 -110q167 0 266 110.5t99 292.5q0 40 -6.5 76.5t-14.5 64t-26 55t-29.5 45t-37 38.5t-37 30.5t-40.5 26t-36 20t-36 17.5l-12 6
q-6 3 -88 45q-178 -47 -272 -160t-94 -276z" />
    <glyph glyph-name="uni0432.loclBGR" horiz-adv-x="1042" 
d="M551 -10q-214 0 -323 128.5t-109 358.5v529q0 225 105.5 350t310.5 125q174 0 280.5 -102.5t106.5 -270.5q0 -123 -61.5 -211.5t-166.5 -124.5q130 -31 206.5 -131.5t76.5 -245.5q0 -183 -118.5 -294t-307.5 -111zM221 496q0 -202 84 -313t256 -111q141 0 227 89.5
t86 241.5q0 148 -84.5 236t-230.5 88h-338v-231zM221 809h330q123 0 195.5 78t72.5 213q0 136 -77 217.5t-203 81.5q-159 0 -238.5 -104t-79.5 -291v-195z" />
    <glyph glyph-name="uni0433.loclBGR" horiz-adv-x="927" 
d="M94 745q30 163 127.5 243.5t241.5 80.5q98 0 178 -29t131 -92t51 -151q0 -62 -22.5 -111t-64.5 -81.5t-86.5 -53.5t-102.5 -37l-150 -41q-100 -28 -152 -70t-52 -122q0 -102 77 -153.5t205 -51.5q122 0 199 63t98 174h100q-17 -84 -55.5 -147t-92 -100.5t-115.5 -55.5
t-132 -18q-72 0 -137 15t-123 47.5t-92.5 90.5t-34.5 136q0 57 19.5 101.5t58.5 75.5t84 52.5t108 40.5q6 2 64.5 19t85.5 24q106 30 159.5 74.5t53.5 128.5q0 66 -39.5 110.5t-96 62t-124.5 17.5q-104 0 -177 -58t-91 -184h-101z" />
    <glyph glyph-name="uni0434.loclBGR" horiz-adv-x="1175" 
d="M936 1059h102v-1016q0 -130 -49 -230.5t-154 -161.5t-255 -61q-198 0 -315.5 94.5t-141.5 258.5h104q52 -269 353 -269q176 0 266 101t90 284v162h-2q-114 -233 -381 -233q-117 0 -210.5 43.5t-151.5 118.5t-88.5 171.5t-30.5 206.5t30.5 207t88.5 172.5t151.5 119.5
t210.5 44q261 0 381 -227h2v215zM174 528q0 -128 43 -229.5t131.5 -163t208.5 -61.5q82 0 149 28t110 73t72 105.5t41.5 122t12.5 125.5q0 126 -43 229t-132 166.5t-210 63.5q-120 0 -208.5 -62t-131.5 -164.5t-43 -232.5z" />
    <glyph glyph-name="uni0436.loclBGR" horiz-adv-x="1372" 
d="M737 0h-102v494h-98l-377 -494h-121l410 535l-408 524h121l373 -484h100v887h102v-887h101l372 484h121l-407 -524l409 -535h-121l-376 494h-99v-494z" />
    <glyph glyph-name="uni0437.loclBGR" horiz-adv-x="1089" 
d="M125 696q9 164 118 269.5t300 105.5q189 0 294 -93t105 -239q0 -75 -19.5 -134t-56.5 -98.5t-77 -65.5t-93 -48q144 -28 232 -125.5t88 -267.5q0 -178 -126.5 -295t-348.5 -117q-441 0 -480 439h99q7 -79 31 -140.5t59 -101.5t82.5 -65.5t98 -36.5t108.5 -11
q101 0 184.5 36.5t136.5 113.5t53 182q0 77 -22.5 137t-59.5 98t-89 62.5t-107 34.5t-117 10h-151v82h157q138 0 227 82t89 227q0 116 -79.5 184t-217.5 68q-137 0 -222 -77.5t-98 -215.5h-98z" />
    <glyph glyph-name="uni0438.loclBGR" horiz-adv-x="1091" 
d="M129 395v664h102v-660q0 -327 287 -327q51 0 96.5 12.5t90 43.5t76.5 78t51.5 123t19.5 173v557h102v-1059h-102v211q-100 -223 -340 -223q-83 0 -149.5 21.5t-120.5 67t-83.5 126.5t-29.5 192z" />
    <glyph glyph-name="uni0439.loclBGR" horiz-adv-x="1091" 
d="M129 395v664h102v-660q0 -327 287 -327q51 0 96.5 12.5t90 43.5t76.5 78t51.5 123t19.5 173v557h102v-1059h-102v211q-100 -223 -340 -223q-83 0 -149.5 21.5t-120.5 67t-83.5 126.5t-29.5 192zM256 1436h90q3 -76 58 -125t137 -49q83 0 137 48.5t59 125.5h90
q-9 -109 -88 -177.5t-198 -68.5q-118 0 -197 68.5t-88 177.5z" />
    <glyph glyph-name="uni045D.loclBGR" horiz-adv-x="1091" 
d="M129 395v664h102v-660q0 -327 287 -327q51 0 96.5 12.5t90 43.5t76.5 78t51.5 123t19.5 173v557h102v-1059h-102v211q-100 -223 -340 -223q-83 0 -149.5 21.5t-120.5 67t-83.5 126.5t-29.5 192zM305 1462h127l199 -268h-76z" />
    <glyph glyph-name="uni043A.loclBGR" horiz-adv-x="931" 
d="M240 0h-103v1462h103v-923l530 520h127l-451 -449l457 -610h-121l-403 547l-139 -127v-420z" />
    <glyph glyph-name="uni043B.loclBGR" horiz-adv-x="1013" 
d="M870 0q-326 839 -364 934h-2q-71 -180 -202 -518t-161 -416h-104q70 176 208 529.5t208 529.5h106l418 -1059h-107z" />
    <glyph glyph-name="uni043F.loclBGR" horiz-adv-x="1091" 
d="M137 0v1059h103v-203q98 215 340 215q83 0 149.5 -21.5t120.5 -67t83.5 -126.5t29.5 -192v-664h-103v659q0 175 -78 251.5t-209 76.5q-64 0 -120 -21t-105.5 -67.5t-78.5 -134t-29 -207.5v-557h-103z" />
    <glyph glyph-name="uni0442.loclBGR" horiz-adv-x="1642" 
d="M137 0v1059h103v-199q33 92 114.5 152.5t182.5 60.5q119 0 196.5 -50t116.5 -157q64 111 141 159t187 48q154 0 244.5 -96.5t90.5 -312.5v-664h-102v659q0 330 -240 330q-125 0 -207.5 -102t-82.5 -289v-598h-103v659q0 330 -248 330q-94 0 -161 -61t-98 -157t-31 -214
v-557h-103z" />
    <glyph glyph-name="uni0446.loclBGR" horiz-adv-x="1124" 
d="M129 395v664h102v-660q0 -327 287 -327q51 0 96.5 12.5t90 43.5t76.5 78t51.5 123t19.5 173v557h102v-975h129v-373h-92v289h-139v211q-100 -223 -340 -223q-83 0 -149.5 21.5t-120.5 67t-83.5 126.5t-29.5 192z" />
    <glyph glyph-name="uni0448.loclBGR" horiz-adv-x="1642" 
d="M1505 1059v-1059h-102v199q-33 -92 -114.5 -152.5t-182.5 -60.5q-119 0 -196.5 50t-116.5 157q-64 -111 -141 -159t-187 -48q-74 0 -133 21.5t-105.5 68t-72 127.5t-25.5 192v664h102v-660q0 -329 240 -329q125 0 208 102t83 289v598h102v-660q0 -329 248 -329
q94 0 161.5 61t98.5 157t31 214v557h102z" />
    <glyph glyph-name="uni0449.loclBGR" horiz-adv-x="1675" 
d="M1505 1059v-975h129v-373h-92v289h-139v199q-33 -92 -114.5 -152.5t-182.5 -60.5q-119 0 -196.5 50t-116.5 157q-64 -111 -141 -159t-187 -48q-74 0 -133 21.5t-105.5 68t-72 127.5t-25.5 192v664h102v-660q0 -329 240 -329q125 0 208 102t83 289v598h102v-660
q0 -329 248 -329q94 0 161.5 61t98.5 157t31 214v557h102z" />
    <glyph glyph-name="uni044C.loclBGR" horiz-adv-x="923" 
d="M129 362v697h102v-412q123 60 258 60q172 0 278.5 -93.5t106.5 -251.5q0 -177 -99.5 -275.5t-270.5 -98.5q-177 0 -276 100.5t-99 273.5zM231 362q0 -140 71 -215t202 -75q124 0 196 74t72 216q0 126 -81 193.5t-210 67.5q-131 0 -250 -62v-199z" />
    <glyph glyph-name="uni044A.loclBGR" horiz-adv-x="1191" 
d="M16 975v84h482v-412q123 60 258 60q172 0 278.5 -93.5t106.5 -251.5q0 -176 -100 -275t-271 -99q-177 0 -276 100.5t-99 273.5v613h-379zM498 362q0 -141 70.5 -215.5t201.5 -74.5q124 0 196 74t72 216q0 126 -81 193.5t-209 67.5q-131 0 -250 -62v-199z" />
    <glyph glyph-name="uni044E.loclBGR" horiz-adv-x="1476" 
d="M240 1462v-887h184q7 102 44 191.5t98.5 157t151 106.5t195.5 39q148 0 261.5 -75t172 -197t58.5 -269t-58.5 -269t-172 -196.5t-261.5 -74.5q-142 0 -253 69.5t-171 183.5t-67 253h-182v-494h-103v1462h103zM524 528q0 -195 110 -325.5t279 -130.5t279.5 130.5
t110.5 325.5t-110.5 326t-279.5 131t-279 -131t-110 -326z" />
    <glyph glyph-name="uni044F.ss03" horiz-adv-x="1021" 
d="M885 1059v-1059h-103v455h-280l-301 -455h-119l321 473q-122 25 -193 98.5t-71 180.5q0 139 107 223t278 84h361zM242 750q0 -102 81 -158.5t209 -56.5h250v444h-250q-128 0 -209 -59.5t-81 -169.5z" />
    <glyph glyph-name="zero.lf" horiz-adv-x="1208" 
d="M604 66q88 0 158 40.5t115 106t75.5 154t43 179.5t12.5 187q0 95 -12.5 183.5t-42.5 174t-75.5 149t-115.5 102t-158 38.5t-158.5 -38.5t-115.5 -101t-75.5 -148t-43 -174.5t-12.5 -185t12.5 -187t43 -179.5t75.5 -154t115.5 -106t158.5 -40.5zM96 731q0 116 16.5 220.5
t55 200.5t95.5 165.5t144.5 111t196.5 41.5t196 -41.5t144 -111t95.5 -165.5t54.5 -200.5t16 -220.5q0 -96 -11.5 -185.5t-36 -176t-65 -157t-95 -124t-131 -83.5t-167.5 -30q-109 0 -196.5 43t-144.5 115t-95.5 170.5t-55 204.5t-16.5 223z" />
    </font>
</defs>
</svg>
