<?xml version="1.0" standalone="no"?>
<!DOCTYPE svg PUBLIC "-//W3C//DTD SVG 1.1//EN" "http://www.w3.org/Graphics/SVG/1.1/DTD/svg11.dtd" >
<svg xmlns="http://www.w3.org/2000/svg" xmlns:xlink="http://www.w3.org/1999/xlink" version="1.1">
<metadata>
Created by FontForge 20170731 at Mon Jun 19 15:07:35 2023
 By Aleksey,,,
(c) 2017-2022. Copyright by TYPE.WELTKERN. All rights reserved.
</metadata>
<defs>
<font id="SLBSans-MediumItalic" horiz-adv-x="0" >
  <font-face 
    font-family="SLB Sans Medium"
    font-weight="500"
    font-style="italic"
    font-stretch="normal"
    units-per-em="2048"
    panose-1="2 0 5 3 4 0 0 2 0 4"
    ascent="1638"
    descent="-410"
    x-height="1059"
    cap-height="1462"
    bbox="-254 -438 2712 2177"
    underline-thickness="122"
    underline-position="-695"
    slope="-10"
    unicode-range="U+000D-FEFF"
  />
<missing-glyph horiz-adv-x="1454" 
d="M-4 766h692v696h78v-696h692v-70h-692v-696h-78v696h-692v70z" />
    <glyph glyph-name="f_f" unicode="ff" horiz-adv-x="1255" 
d="M324 1184q20 120 99 199t212 79h121l-29 -155h-61q-143 0 -166 -144l-19 -104h287v-82l14 82h146l22 125q20 120 99.5 199t212.5 79h120l-28 -155h-62q-143 0 -166 -144l-18 -104h178l-26 -152h-179l-159 -907h-181l160 907h-446l-160 -907h-180l159 907h-145l27 152h145
z" />
    <glyph glyph-name="f_i" unicode="fi" horiz-adv-x="1097" 
d="M324 1184q20 120 99 199t212 79h121l-29 -155h-61q-143 0 -166 -144l-19 -104h178l-26 -152h-178l-160 -907h-180l159 907h-145l27 152h145zM678 0l186 1059h185l-187 -1059h-184zM893 1257l37 205h196l-36 -205h-197z" />
    <glyph glyph-name="f_l" unicode="fl" horiz-adv-x="1083" 
d="M324 1184q20 120 99 199t212 79h121l-29 -155h-61q-143 0 -166 -144l-19 -104h178l-26 -152h-178l-160 -907h-180l159 907h-145l27 152h145zM670 0l258 1462h184l-258 -1462h-184z" />
    <glyph glyph-name=".notdef" horiz-adv-x="1454" 
d="M-4 766h692v696h78v-696h692v-70h-692v-696h-78v696h-692v70z" />
    <glyph glyph-name=".null" 
 />
    <glyph glyph-name=".null" 
 />
    <glyph glyph-name="nonmarkingreturn" horiz-adv-x="682" 
 />
    <glyph glyph-name="CR" unicode="&#xd;" horiz-adv-x="458" 
 />
    <glyph glyph-name="space" unicode=" " horiz-adv-x="458" 
 />
    <glyph glyph-name="exclam" unicode="!" horiz-adv-x="538" 
d="M457 991l-156 -622h-100l61 622l84 471h195zM63 0l43 246h226l-43 -246h-226z" />
    <glyph glyph-name="quotedbl" unicode="&#x22;" horiz-adv-x="806" 
d="M297 1462h209l-109 -516h-147zM553 946l76 516h209l-138 -516h-147z" />
    <glyph glyph-name="numbersign" unicode="#" horiz-adv-x="1206" 
d="M586 1462h147l-147 -463h280l148 463h147l-147 -463h186l-24 -135h-203l-96 -301h184l-23 -135h-204l-136 -428h-147l135 428h-280l-136 -428h-147l135 428h-184l22 135h205l96 301h-186l25 135h202zM449 563h280l96 301h-280z" />
    <glyph glyph-name="dollar" unicode="$" horiz-adv-x="1263" 
d="M756 1716h188l-43 -241q134 -41 214.5 -148t105.5 -270h-187q-22 132 -98.5 204t-206.5 72q-136 0 -217.5 -61t-81.5 -168q0 -40 16 -74.5t39 -59.5t65.5 -51.5t79 -44t95.5 -43.5q179 -77 243 -115q140 -86 176 -207q15 -49 15 -108q0 -94 -29 -169t-77.5 -124
t-115.5 -82t-139.5 -47t-152.5 -14h-10l-39 -223h-188l45 250q-157 47 -258 165.5t-119 295.5h192q15 -87 55 -152.5t95.5 -101.5t114 -53t120.5 -17q128 0 221 69.5t93 186.5q0 32 -7.5 59.5t-18.5 48t-32 40t-39 32t-49 27.5t-53 24t-59 24.5t-60 25.5q-59 26 -94 42
t-85 43t-80 49.5t-64.5 56t-53 68t-31 80t-12.5 97.5q0 94 41 170t110 124t155 73.5t182 27.5z" />
    <glyph glyph-name="percent" unicode="%" horiz-adv-x="1871" 
d="M477 786q-76 0 -108 78.5t-11 194.5q21 114 79 188t134 74t108 -73.5t11 -188.5q-21 -117 -79 -195t-134 -78zM190 1057q-19 -106 2 -198t88.5 -153t172.5 -61q79 0 150 35.5t121.5 94t85 131.5t48.5 151q19 106 -1.5 196.5t-88 149.5t-172.5 59t-193 -59t-141 -149
t-72 -197zM473 0l821 1464h158l-821 -1464h-158zM1081 393q-19 -106 1 -198t87 -153.5t172 -61.5q78 0 149.5 35.5t122.5 94.5t86.5 132t49.5 151q18 106 -3 196t-88 149t-171 59q-105 0 -193.5 -59t-141.5 -149.5t-71 -195.5zM1249 395q21 114 78 187t133 73t108 -73.5
t11 -186.5q-21 -117 -79 -195.5t-134 -78.5t-107 79t-10 195z" />
    <glyph glyph-name="ampersand" unicode="&#x26;" horiz-adv-x="1355" 
d="M907 168q-82 -91 -185.5 -142t-256.5 -51q-192 0 -302 98.5t-110 258.5q0 74 26 142t65.5 119t98 98.5t111.5 79t117 63.5q-44 82 -59.5 115t-31 86t-15.5 106q0 134 100.5 227.5t253.5 93.5q143 0 240.5 -75t97.5 -193q0 -77 -29.5 -144.5t-83 -119t-106 -87
t-121.5 -71.5l225 -330q60 105 96 217h154q-54 -172 -172 -348l213 -311h-211zM233 332q0 -98 67.5 -151.5t162.5 -53.5q49 0 93.5 9t73 19t62.5 33t48 34.5t44.5 40.5t38.5 36l-266 406q-11 -6 -44 -23.5t-46.5 -25t-43.5 -25.5t-44 -29t-38.5 -31t-36.5 -36.5t-28 -40.5
t-24 -47.5t-13.5 -53t-5.5 -61.5zM541 1145q0 -87 88 -250q13 8 53 30.5t60.5 35.5t53 39t49.5 48.5t30.5 56t13.5 69.5q0 69 -46.5 104t-123.5 35q-70 0 -124 -47.5t-54 -120.5z" />
    <glyph glyph-name="quotesingle" unicode="'" horiz-adv-x="475" 
d="M297 1462h209l-121 -516h-152z" />
    <glyph glyph-name="parenleft" unicode="(" horiz-adv-x="608" 
d="M264 -406q-56 120 -93 228.5t-60 231t-21 241.5t23 258q42 244 168 489.5t319 454.5h162q-191 -255 -308 -482t-157 -462q-22 -125 -22.5 -249t20 -244.5t52 -230t79.5 -235.5h-162z" />
    <glyph glyph-name="parenright" unicode=")" horiz-adv-x="610" 
d="M-147 -406q192 262 309 490.5t160 468.5q40 235 3 462.5t-137 481.5h162q120 -208 159.5 -457t-3.5 -487q-45 -254 -167.5 -483t-324.5 -476h-161z" />
    <glyph glyph-name="asterisk" unicode="*" horiz-adv-x="864" 
d="M252 1368l57 100l203 -116l41 229l113 -18l-41 -234l243 43l23 -117l-244 -38l94 -209l-102 -52l-100 215l-164 -167l-84 83l162 166z" />
    <glyph glyph-name="plus" unicode="+" horiz-adv-x="1216" 
d="M696 606h408v-155h-408v-418h-176v418h-407v155h407v418h176v-418z" />
    <glyph glyph-name="comma" unicode="," horiz-adv-x="468" 
d="M111 246h204l-233 -494h-164z" />
    <glyph glyph-name="hyphen" unicode="-" horiz-adv-x="964" 
d="M170 610h657l-28 -155h-658z" />
    <glyph glyph-name="period" unicode="." horiz-adv-x="450" 
d="M61 246h226l-43 -246h-226z" />
    <glyph glyph-name="slash" unicode="/" horiz-adv-x="692" 
d="M694 1579h174l-813 -1778h-174z" />
    <glyph glyph-name="zero" unicode="0" horiz-adv-x="1282" 
d="M762 1470q101 0 181.5 -32.5t130.5 -84t83 -121t46.5 -138t13.5 -140.5q0 -141 -22 -277t-71 -264t-120 -224.5t-178 -155t-236 -58.5q-228 0 -338.5 137.5t-110.5 376.5q0 151 22 290t70.5 266t119.5 220.5t176 149t233 55.5zM326 469q0 -177 71 -257.5t193 -80.5
q97 0 174.5 53t126 138t81 198t45.5 225.5t13 229.5q0 69 -12 125.5t-40.5 107t-83.5 79t-132 28.5q-111 0 -197.5 -74t-137 -197t-76 -269.5t-25.5 -305.5z" />
    <glyph glyph-name="one" unicode="1" horiz-adv-x="1282" 
d="M1094 156l-29 -156h-1008l29 156h385l162 927h-346l18 140q83 0 141.5 8.5t116.5 32.5t100.5 73t71.5 125h152l-232 -1306h439z" />
    <glyph glyph-name="two" unicode="2" horiz-adv-x="1282" 
d="M238 1034q32 194 173 321.5t345 127.5q215 0 336.5 -107.5t121.5 -277.5q0 -94 -21 -166.5t-70.5 -136t-116 -116t-170.5 -116.5q-57 -35 -144.5 -84.5t-135 -78.5t-104 -69.5t-92.5 -82.5t-59 -92h776l-30 -156h-984q23 128 54 210t105 155.5t128.5 111.5t202.5 128
q3 2 4 3q218 133 269 168q133 94 172 181q22 49 22 106q0 124 -73.5 186t-201.5 62q-118 0 -206.5 -72.5t-110.5 -204.5h-190z" />
    <glyph glyph-name="three" unicode="3" horiz-adv-x="1282" 
d="M270 1083q36 177 160.5 287.5t298.5 110.5q193 0 305.5 -92.5t112.5 -272.5q0 -142 -75.5 -230.5t-197.5 -123.5q129 -45 183.5 -136t54.5 -225q0 -185 -136 -305.5t-362 -120.5t-345.5 98t-151.5 306l-6 39h190l4 -29q36 -256 291 -256q332 0 332 285q0 133 -78 203.5
t-205 70.5q-94 0 -139 -2l26 148h117q45 0 87.5 7.5t85.5 26.5t75 47.5t52 73.5t20 101q0 231 -240 231q-106 0 -176 -67t-88 -148l-6 -27h-189z" />
    <glyph glyph-name="four" unicode="4" horiz-adv-x="1282" 
d="M96 369l25 151l829 942h170l-166 -938h162l-26 -155h-162l-66 -369h-184l63 369h-645zM328 524h442l109 621h-5z" />
    <glyph glyph-name="five" unicode="5" horiz-adv-x="1282" 
d="M1182 1311h-600l-148 -463h2q131 129 312 125q205 -6 322.5 -132t117.5 -356q0 -110 -34 -203.5t-98 -164t-165.5 -110.5t-228.5 -40q-112 0 -202 29t-146.5 73t-97.5 105t-61 117t-30 117h197q21 -128 108 -206.5t234 -78.5q152 0 246 103t94 259q0 154 -79.5 244
t-217.5 90q-113 0 -184 -45t-124 -125l-196 27l254 790l751 -4z" />
    <glyph glyph-name="six" unicode="6" horiz-adv-x="1282" 
d="M158 713q20 119 52 223.5t85 205.5t121 173t165 116t212 44q87 0 155 -21.5t111 -54t74 -82t46.5 -95.5t26.5 -104h-178q-8 31 -15 51t-25.5 52t-42.5 51t-66.5 34t-96.5 15q-73 0 -135 -32.5t-105 -81t-82 -124.5t-62.5 -140.5t-49.5 -151.5q131 189 389 180
q103 -4 186 -42t133.5 -99.5t77.5 -137t27 -157.5q0 -126 -45 -232.5t-122 -177.5t-178.5 -110.5t-215.5 -39.5q-314 0 -416 224q-82 182 -26 514zM313 395q0 -118 80.5 -191t198.5 -73q171 0 278 104.5t107 307.5q0 87 -45.5 151.5t-108 93.5t-127.5 29q-170 0 -276.5 -110
t-106.5 -312z" />
    <glyph glyph-name="seven" unicode="7" horiz-adv-x="1282" 
d="M1239 1300q-254 -216 -482.5 -589.5t-307.5 -710.5h-181q92 372 296 716.5t454 590.5h-721l27 155h942z" />
    <glyph glyph-name="eight" unicode="8" horiz-adv-x="1282" 
d="M782 1475q95 0 170 -22.5t121 -58t76 -82t41.5 -91t11.5 -88.5q0 -136 -82 -230.5t-209 -132.5q100 -29 167 -117t67 -186q0 -217 -152.5 -354.5t-402.5 -137.5q-133 0 -230.5 32t-153 90t-81 127.5t-25.5 154.5q0 78 34 148.5t89 120t120 83t132 47.5q-97 34 -152 111.5
t-55 169.5q0 186 140.5 301t373.5 115zM291 354q0 -72 45 -125t108 -76.5t131 -23.5q174 0 281 90t107 258q0 96 -80.5 154.5t-200.5 58.5q-112 0 -198 -35t-139.5 -112t-53.5 -189zM453 1030q0 -90 72 -140t161 -50q144 0 233 76.5t89 220.5q0 83 -66 133.5t-166 50.5
q-143 0 -233 -74t-90 -217z" />
    <glyph glyph-name="nine" unicode="9" horiz-adv-x="1282" 
d="M1200 737q-129 -762 -635 -762q-87 0 -155 21.5t-111 54t-74 82t-46.5 95.5t-26.5 104h178q8 -32 15 -51.5t25.5 -52t42 -51t66 -33.5t96.5 -15q57 0 106.5 16.5t87 43t71 70t56.5 85t46.5 102.5t38 108t33.5 114q-68 -100 -169 -150t-222 -41q-100 7 -182 46.5
t-134.5 99.5t-81 135.5t-28.5 156.5q0 126 45 232.5t122 177.5t178.5 110.5t215.5 39.5q286 0 397 -195q107 -189 45 -543zM381 907q0 -87 45.5 -151.5t108 -93.5t127.5 -29q169 0 275.5 110t106.5 312q0 118 -80 191t-198 73q-171 0 -278 -104.5t-107 -307.5z" />
    <glyph glyph-name="colon" unicode=":" horiz-adv-x="450" 
d="M188 956h226l-43 -245h-226zM18 0l43 246h226l-43 -246h-226z" />
    <glyph glyph-name="semicolon" unicode=";" horiz-adv-x="460" 
d="M193 956h225l-43 -245h-225zM-82 -248l193 494h204l-233 -494h-164z" />
    <glyph glyph-name="less" unicode="&#x3c;" horiz-adv-x="1214" 
d="M1044 872l-768 -354l768 -354v-180l-958 450v168l958 451v-181z" />
    <glyph glyph-name="equal" unicode="=" horiz-adv-x="1323" 
d="M139 387h1032v-156h-1032v156zM139 604v156h1032v-156h-1032z" />
    <glyph glyph-name="greater" unicode="&#x3e;" horiz-adv-x="1214" 
d="M166 872v181l958 -451v-168l-958 -450v180l768 354z" />
    <glyph glyph-name="question" unicode="?" horiz-adv-x="1140" 
d="M221 1049q35 200 182 324t345 124q195 0 293 -114t67 -296q-9 -49 -29 -94.5t-38.5 -75.5t-55.5 -69t-55 -55.5t-62 -55.5q-102 -90 -136 -128q-73 -84 -89 -173l-10 -51h-184l12 68q11 61 34.5 113t62 97t68 73t79.5 69q3 3 28.5 24t30.5 25t26.5 23.5t27.5 26t24 25
t24 28.5t18.5 28t18 32.5t12 32.5t9.5 37q20 114 -35.5 184t-169.5 70q-116 0 -202 -79.5t-111 -212.5l-7 -33h-184zM375 0l39 246h198l-39 -246h-198z" />
    <glyph glyph-name="at" unicode="@" horiz-adv-x="1724" 
d="M899 -113q-179 0 -328 57t-250.5 158t-152.5 247t-39 319q12 178 88 330t193 253.5t264.5 159t304.5 57.5q334 0 520.5 -189.5t163.5 -500.5q-15 -231 -115 -374.5t-256 -143.5q-97 0 -148 48.5t-48 135.5q-27 -86 -98.5 -140t-168.5 -54q-159 0 -245.5 105t-73.5 288
q7 94 45 177.5t96 141t130.5 90.5t146.5 33q107 0 161.5 -57.5t59.5 -146.5l27 166h149l-88 -508q-6 -42 -6 -43q-4 -54 13.5 -75.5t60.5 -21.5q88 0 142.5 106t65.5 273q19 256 -121 400.5t-423 144.5q-132 0 -250.5 -46t-209.5 -129.5t-148.5 -207.5t-67.5 -272
q-14 -188 52 -330t211 -223.5t353 -81.5h385l-10 -146h-385zM674 649q-8 -128 32 -190t154 -62q107 0 176 85t78 229q8 102 -40.5 163.5t-143.5 61.5q-106 0 -176.5 -80t-79.5 -207z" />
    <glyph glyph-name="A" unicode="A" horiz-adv-x="1406" 
d="M147 0h-204l788 1462h244l301 -1462h-197l-80 424h-626zM453 578h518l-135 710h-7z" />
    <glyph glyph-name="B" unicode="B" horiz-adv-x="1286" 
d="M61 0l258 1462h476q143 0 245 -51q85 -44 132 -116.5t47 -161.5q0 -150 -82 -262.5t-226 -129.5q132 -34 192 -98t60 -178q0 -177 -97 -291t-280 -154q-84 -20 -200 -20h-525zM285 164h164q212 0 296 16q160 30 206 142q22 53 22 129q0 208 -334 208h-266zM403 823h175
q62 0 107.5 2t95 9.5t83.5 20t67 33.5t52.5 51t31 73t11.5 98q0 188 -303 188h-238z" />
    <glyph glyph-name="C" unicode="C" horiz-adv-x="1589" 
d="M788 -31q-138 0 -252 39t-190 103.5t-128.5 150.5t-75.5 177t-23 186q0 197 65 361t177.5 274t265.5 170.5t329 60.5q116 0 213 -26t164.5 -69.5t119.5 -104.5t82.5 -125t49.5 -138h-184q-101 299 -453 299q-139 0 -255.5 -48.5t-201 -138.5t-131.5 -225.5t-47 -302.5
q0 -60 15.5 -123t52 -127.5t90 -114.5t138.5 -82t188 -32q178 0 317 81.5t205 225.5h188q-100 -221 -286 -346t-433 -125z" />
    <glyph glyph-name="D" unicode="D" horiz-adv-x="1447" 
d="M672 1462q342 0 538 -174q97 -88 143 -207.5t46 -251.5q0 -214 -77 -377t-214 -268q-236 -184 -588 -184h-459l258 1462h353zM285 164h258q92 0 181 20.5t177 70t154.5 123.5t107.5 192t41 264q0 211 -125 337.5t-374 126.5h-220z" />
    <glyph glyph-name="E" unicode="E" horiz-adv-x="1196" 
d="M1231 1462l-29 -164h-717l-84 -473h674l-28 -163h-674l-88 -498h723l-29 -164h-918l258 1462h912z" />
    <glyph glyph-name="F" unicode="F" horiz-adv-x="1130" 
d="M61 0l258 1462h902l-29 -164h-707l-84 -473h648l-29 -163h-647l-117 -662h-195z" />
    <glyph glyph-name="G" unicode="G" horiz-adv-x="1615" 
d="M1370 1028q-20 69 -51.5 121t-80.5 93.5t-122 63t-168 21.5q-139 0 -255.5 -48.5t-201 -138.5t-131.5 -225.5t-47 -302.5q0 -60 15.5 -123t52 -127.5t90 -114.5t138.5 -82t188 -32q210 0 343 124.5t148 332.5l-432 -4l29 159h655l-149 -745h-142l33 262
q-70 -146 -195.5 -219.5t-330.5 -73.5q-125 0 -231 39t-179.5 104.5t-125.5 151t-76.5 177t-24.5 184.5q0 197 65 361t177.5 274t265.5 170.5t329 60.5q496 0 598 -463h-184z" />
    <glyph glyph-name="H" unicode="H" horiz-adv-x="1404" 
d="M1219 1462h194l-258 -1462h-194l114 651h-704l-115 -651h-195l258 1462h195l-115 -647h705z" />
    <glyph glyph-name="I" unicode="I" horiz-adv-x="505" 
d="M319 1462h195l-258 -1462h-195z" />
    <glyph glyph-name="J" unicode="J" horiz-adv-x="1024" 
d="M223 358q-14 -112 43.5 -168.5t161.5 -56.5q46 0 82 14t60.5 37.5t43 61t30 77t20.5 91.5l186 1048h194l-184 -1044q-19 -111 -49.5 -189t-82 -138t-129 -89t-183.5 -29q-115 0 -205.5 45t-139 135t-32.5 209l10 78h184z" />
    <glyph glyph-name="K" unicode="K" horiz-adv-x="1308" 
d="M256 0h-195l258 1462h195l-129 -733l803 733h252l-686 -624l428 -838h-221l-347 711l-274 -240z" />
    <glyph glyph-name="L" unicode="L" horiz-adv-x="1118" 
d="M319 1462h195l-227 -1298h708l-28 -164h-906z" />
    <glyph glyph-name="M" unicode="M" horiz-adv-x="1783" 
d="M61 0l258 1462l322 -2l195 -1247l632 1249h324l-258 -1462h-193l197 1112l25 145h-2l-646 -1257h-229l-205 1257h-4l-24 -143l-197 -1114h-195z" />
    <glyph glyph-name="N" unicode="N" horiz-adv-x="1472" 
d="M319 1462h236l406 -930q12 -25 53 -118.5t65 -139.5q11 58 27.5 157.5t23.5 137.5l158 893h193l-258 -1462h-242l-399 924q-15 32 -53.5 120t-61.5 132q-14 -63 -32 -176.5t-21 -129.5l-154 -870h-199z" />
    <glyph glyph-name="O" unicode="O" horiz-adv-x="1671" 
d="M956 1491q144 0 260.5 -39.5t190.5 -103.5t124.5 -148.5t71.5 -170t21 -173.5q0 -205 -64.5 -373.5t-177.5 -280t-265.5 -172.5t-328.5 -61q-138 0 -252 39t-190 103.5t-128.5 150.5t-75.5 177t-23 186q0 197 65 361t177.5 274t265.5 170.5t329 60.5zM313 612
q0 -60 15.5 -123t52 -127.5t90 -114.5t138.5 -82t188 -32q183 0 327.5 88t226 247t81.5 361q0 69 -13.5 134.5t-48 133t-87.5 117.5t-139.5 81.5t-195.5 31.5q-139 0 -255.5 -48.5t-201 -138.5t-131.5 -225.5t-47 -302.5z" />
    <glyph glyph-name="P" unicode="P" horiz-adv-x="1220" 
d="M651 745q181 0 285 77.5t104 240.5q0 42 -14 81t-44.5 75t-87 57.5t-132.5 21.5h-277l-98 -553h264zM61 0l258 1462h484q105 0 189.5 -33.5t136 -89.5t79 -124t27.5 -140q0 -119 -47 -214t-127.5 -155t-185 -92t-222.5 -32h-295l-102 -582h-195z" />
    <glyph glyph-name="Q" unicode="Q" horiz-adv-x="1671" 
d="M952 446q91 -39 238 -178q114 94 178 239t64 322q0 69 -13.5 134.5t-48 133t-87.5 117.5t-139.5 81.5t-195.5 31.5q-139 0 -255.5 -48.5t-201 -138.5t-131.5 -225.5t-47 -302.5q0 -60 15.5 -123t52 -127.5t90 -114.5t138.5 -82t188 -32q146 0 262 55q-99 91 -201 140z
M119 625q0 197 65 361t177.5 274t265.5 170.5t329 60.5q144 0 260.5 -39.5t190.5 -103.5t124.5 -148.5t71.5 -170t21 -173.5q0 -232 -80.5 -413.5t-224.5 -297.5q74 -65 172 -92l-84 -131q-58 5 -213 144q-183 -97 -406 -97q-138 0 -252 39t-190 103.5t-128.5 150.5
t-75.5 177t-23 186z" />
    <glyph glyph-name="R" unicode="R" horiz-adv-x="1300" 
d="M61 0l258 1462h510q95 0 173.5 -23t129 -60t85.5 -86t50 -98t15 -99q0 -356 -367 -434q50 -16 81.5 -42t49 -69t25.5 -86t18 -117q2 -17 3 -26q21 -169 86 -314v-8h-207q-53 159 -76 362q-13 112 -69 174t-183 62h-283l-104 -598h-195zM389 762h330q167 0 267.5 75
t100.5 232q0 19 -3.5 39t-12.5 48t-29 51.5t-49 44.5t-76 33.5t-106 12.5h-326z" />
    <glyph glyph-name="S" unicode="S" horiz-adv-x="1263" 
d="M268 453q15 -87 55 -152.5t95.5 -101.5t114 -53t120.5 -17q128 0 221 69.5t93 186.5q0 32 -7.5 59.5t-18.5 48t-32 40t-39 32t-49 27.5t-53 24t-59 24.5t-60 25.5q-59 26 -94 42t-85 43t-80 49.5t-64.5 56t-53 68t-31 80t-12.5 97.5q0 96 42 172.5t113 124.5t159.5 73
t185.5 25q213 0 336 -115t156 -325h-187q-22 132 -98.5 204t-206.5 72q-136 0 -217.5 -61t-81.5 -168q0 -40 16 -74.5t39 -59.5t65.5 -51.5t79 -44t95.5 -43.5q179 -77 243 -115q140 -86 176 -207q15 -49 15 -108q0 -94 -29 -169t-77.5 -124t-115.5 -82t-139.5 -47
t-152.5 -14q-228 0 -387 129.5t-182 358.5h192z" />
    <glyph glyph-name="T" unicode="T" horiz-adv-x="1165" 
d="M172 1298l29 164h1091l-28 -164h-449l-229 -1298h-195l230 1298h-449z" />
    <glyph glyph-name="U" unicode="U" horiz-adv-x="1388" 
d="M1241 514q-23 -132 -65.5 -230t-112 -171.5t-172.5 -110.5t-240 -37q-284 0 -416.5 168t-82.5 449l155 880h195l-158 -893q-37 -205 48 -322.5t267 -117.5q92 0 160 27t113 81t72.5 123.5t44.5 165.5l165 936h195z" />
    <glyph glyph-name="V" unicode="V" horiz-adv-x="1339" 
d="M184 1462h213l207 -1263h8l658 1263h213l-787 -1460l-245 -2z" />
    <glyph glyph-name="W" unicode="W" horiz-adv-x="1880" 
d="M184 1462h201l61 -1065l11 -190h2l78 190l428 1065h272l45 -1065l8 -192h2l78 188l451 1069h202l-641 -1462h-262l-16 395l-35 873h-2l-352 -871l-162 -397h-260l-29 395z" />
    <glyph glyph-name="X" unicode="X" horiz-adv-x="1335" 
d="M-74 0l668 756l-371 706h234l272 -551l488 551h237l-641 -725l408 -737h-234l-307 584l-514 -584h-240z" />
    <glyph glyph-name="Y" unicode="Y" horiz-adv-x="1277" 
d="M197 1462h221l260 -682h4l502 682h225l-661 -860l-107 -602h-195l107 602z" />
    <glyph glyph-name="Z" unicode="Z" horiz-adv-x="1247" 
d="M29 176l1001 1114h-760l31 172h995l-30 -176l-998 -1114h826l-31 -172h-1065z" />
    <glyph glyph-name="bracketleft" unicode="[" horiz-adv-x="575" 
d="M686 1358h-219l-287 -1624h219l-24 -140h-383l336 1903h383z" />
    <glyph glyph-name="backslash" unicode="\" horiz-adv-x="692" 
d="M367 1579l186 -1778h-174l-186 1778h174z" />
    <glyph glyph-name="bracketright" unicode="]" horiz-adv-x="575" 
d="M182 1358l25 139h383l-336 -1903h-383l25 140h219l286 1624h-219z" />
    <glyph glyph-name="asciicircum" unicode="^" horiz-adv-x="1220" 
d="M551 1427h131l446 -866h-176l-338 676l-331 -676h-179z" />
    <glyph glyph-name="underscore" unicode="_" horiz-adv-x="1447" 
d="M-106 -70h1433v-82h-1433v82z" />
    <glyph glyph-name="grave" unicode="`" horiz-adv-x="491" 
d="M369 1462l135 -268h-135l-234 268h234z" />
    <glyph glyph-name="a" unicode="a" horiz-adv-x="1114" 
d="M37 270q0 67 24.5 120.5t68.5 88t96.5 60t118.5 40.5t123 24.5t122 18.5q6 0 9 0.5t8 1t9 1.5q124 17 178 55.5t54 99.5q0 73 -67 111.5t-167 38.5q-211 0 -264 -191h-184q11 62 46.5 122t91 110.5t136.5 82t174 31.5q81 0 146.5 -15.5t109 -40.5t75 -60t47.5 -72.5
t23.5 -78.5t6.5 -76.5t-8 -69.5l-88 -463q-23 -129 -17 -209h-192q0 79 10 147q-31 -65 -126.5 -118.5t-229.5 -53.5q-75 0 -134.5 20t-96 51t-60.5 71.5t-33.5 78t-9.5 74.5zM217 276q0 -70 50.5 -111.5t148.5 -41.5q84 0 148.5 25t108.5 74t73 110.5t51 146.5
q17 70 24 115q-46 -53 -106.5 -81t-202.5 -50q-57 -9 -94.5 -16.5t-79 -22t-65.5 -33t-40 -48t-16 -67.5z" />
    <glyph glyph-name="b" unicode="b" horiz-adv-x="1241" 
d="M41 0l258 1462h184l-61 -356l-37 -203q117 180 358 180q114 0 200.5 -40.5t137 -109t75 -151t24.5 -174.5q0 -283 -158 -458t-399 -175q-150 0 -241 56.5t-126 148.5l-37 -180h-178zM301 442q0 -143 74 -226t217 -83q95 0 172.5 41t126.5 108.5t75.5 151.5t26.5 174
q0 151 -78 235.5t-225 84.5q-92 0 -168 -43.5t-123 -114t-72.5 -155.5t-25.5 -173z" />
    <glyph glyph-name="c" unicode="c" horiz-adv-x="1169" 
d="M1063 326q-63 -174 -190 -262.5t-332 -88.5q-114 0 -208 41.5t-152.5 109.5t-90 149.5t-31.5 166.5q0 154 49 278t132.5 202t190 119.5t224.5 41.5q101 0 181 -29t130.5 -78.5t80 -109t40.5 -127.5h-180q-20 83 -84.5 136t-171.5 53q-79 0 -152 -31.5t-130.5 -90
t-92 -149.5t-34.5 -202q0 -78 35 -151t106.5 -123t163.5 -50q127 0 202 48t125 147h189z" />
    <glyph glyph-name="d" unicode="d" horiz-adv-x="1239" 
d="M59 451q0 276 160 454t406 178q148 0 237.5 -56.5t118.5 -141.5l102 577h185l-258 -1462h-181l21 160q-54 -94 -136.5 -139.5t-224.5 -45.5q-189 0 -309.5 126.5t-120.5 349.5zM242 442q0 -144 73.5 -226.5t216.5 -82.5q95 0 173 41t127 108.5t75.5 151.5t26.5 174
q0 151 -78 235.5t-225 84.5q-92 0 -168 -43.5t-123 -114t-72.5 -155.5t-25.5 -173z" />
    <glyph glyph-name="e" unicode="e" horiz-adv-x="1175" 
d="M530 -25q-153 0 -260.5 65.5t-158 173.5t-50.5 247q0 181 76.5 323.5t209.5 220.5t298 78q111 0 199.5 -40.5t142.5 -108t83 -148t32 -168.5q3 -82 -6 -145h-854q0 -160 76 -252t231 -92q130 0 203 47t110 133h187q-71 -175 -198.5 -254.5t-320.5 -79.5zM266 629h662
q-8 132 -89.5 216.5t-211.5 84.5q-136 0 -230 -83.5t-131 -217.5z" />
    <glyph glyph-name="f" unicode="f" horiz-adv-x="628" 
d="M324 1184q20 120 99 199t212 79h121l-29 -155h-61q-143 0 -166 -144l-19 -104h178l-26 -152h-178l-160 -907h-180l159 907h-145l27 152h145z" />
    <glyph glyph-name="g" unicode="g" horiz-adv-x="1234" 
d="M1020 76q-41 -235 -184.5 -351t-352.5 -116q-200 0 -324 90.5t-139 251.5h173q25 -201 301 -201q137 0 229.5 82.5t124.5 255.5q1 9 6 37t6 37q-60 -93 -151.5 -140t-235.5 -47q-86 0 -157 28t-118 73t-79.5 105t-47 122.5t-14.5 126.5q0 150 46.5 275.5t124.5 207
t178.5 126t209.5 44.5q148 0 242.5 -56.5t120.5 -137.5l31 170h184zM250 442q0 -143 73 -226t212 -83q93 0 168.5 41t123.5 108.5t73.5 151.5t25.5 174q0 151 -76 235.5t-219 84.5q-73 0 -136 -28.5t-107.5 -76.5t-76 -111t-46.5 -131.5t-15 -138.5z" />
    <glyph glyph-name="h" unicode="h" horiz-adv-x="1136" 
d="M41 0l258 1462h184l-57 -325q-17 -101 -57 -263q128 209 354 209q100 0 170 -36.5t103 -99t43.5 -145.5t-9.5 -177l-110 -625h-185l103 582q14 82 14.5 143t-11.5 99.5t-37 62t-56.5 32.5t-75.5 9q-125 0 -223.5 -107t-133.5 -307l-90 -514h-184z" />
    <glyph glyph-name="i" unicode="i" horiz-adv-x="468" 
d="M461 1257h-197l37 205h197zM49 0l187 1059h184l-187 -1059h-184z" />
    <glyph glyph-name="j" unicode="j" horiz-adv-x="503" 
d="M496 1257h-197l37 205h196zM-180 -403l28 155h78q69 0 100 21.5t42 91.5l211 1194h180l-211 -1198q-22 -120 -96 -192t-207 -72h-125z" />
    <glyph glyph-name="k" unicode="k" horiz-adv-x="1040" 
d="M225 0h-184l258 1462h184l-151 -862l536 459h234l-531 -453l355 -606h-215l-281 492l-137 -111z" />
    <glyph glyph-name="l" unicode="l" horiz-adv-x="454" 
d="M299 1462h184l-258 -1462h-184z" />
    <glyph glyph-name="m" unicode="m" horiz-adv-x="1695" 
d="M43 0l186 1059h172l-32 -174q67 101 143 149.5t188 48.5q107 0 172 -52t82 -152q51 103 140.5 153.5t205.5 50.5q77 0 135.5 -21.5t93.5 -58.5t56 -88t21.5 -110.5t-9.5 -124.5l-118 -680h-185l119 674q24 134 -13.5 194t-129.5 60q-111 0 -201 -108t-125 -306l-92 -514
h-184l102 582q19 106 21 172t-15 105.5t-49 54t-88 14.5q-121 0 -203.5 -104.5t-118.5 -309.5l-90 -514h-184z" />
    <glyph glyph-name="n" unicode="n" horiz-adv-x="1138" 
d="M43 0l186 1059h172l-32 -185q71 108 155.5 158.5t200.5 50.5q100 0 170 -36.5t103 -99t43.5 -145.5t-9.5 -177l-110 -625h-185l103 582q14 82 14.5 143t-11.5 99.5t-37 62t-56.5 32.5t-75.5 9q-125 0 -223.5 -107t-133.5 -307l-90 -514h-184z" />
    <glyph glyph-name="o" unicode="o" horiz-adv-x="1204" 
d="M657 1083q122 0 216.5 -39.5t152 -109t86.5 -158.5t29 -194q0 -172 -73 -310t-209 -217.5t-312 -79.5q-122 0 -216.5 39.5t-152 109t-86.5 159t-29 194.5q0 172 73 310t209 217t312 79zM246 481q0 -157 78 -253.5t233 -96.5q177 0 289 125t112 322q0 157 -78 253.5
t-233 96.5q-177 0 -289 -125t-112 -322z" />
    <glyph glyph-name="p" unicode="p" horiz-adv-x="1243" 
d="M-29 -403l258 1462h185l-25 -152q112 176 356 176q114 0 200.5 -40.5t137 -109t75 -151t24.5 -174.5q0 -283 -158 -458t-399 -175q-77 0 -139 21t-104 58t-70 78.5t-46 92.5l-110 -628h-185zM303 442q0 -143 74 -226t217 -83q95 0 172.5 41t126.5 108.5t75.5 151.5
t26.5 174q0 151 -78 235.5t-225 84.5q-92 0 -168 -43.5t-123 -114t-72.5 -155.5t-25.5 -173z" />
    <glyph glyph-name="q" unicode="q" horiz-adv-x="1236" 
d="M59 451q0 276 160 454t406 178q148 0 241 -58.5t115 -139.5l35 174h180l-258 -1462h-184l63 364l37 193q-53 -88 -138 -133.5t-227 -45.5q-189 0 -309.5 126.5t-120.5 349.5zM242 442q0 -144 73.5 -226.5t216.5 -82.5q95 0 173 41t127 108.5t75.5 151.5t26.5 174
q0 151 -78 235.5t-225 84.5q-92 0 -168 -43.5t-123 -114t-72.5 -155.5t-25.5 -173z" />
    <glyph glyph-name="r" unicode="r" horiz-adv-x="673" 
d="M43 0l186 1059h185l-31 -176q50 86 139.5 132t196.5 54l-35 -186q-154 -7 -225 -62q-59 -44 -89.5 -120t-54.5 -207l-88 -494h-184z" />
    <glyph glyph-name="s" unicode="s" horiz-adv-x="983" 
d="M764 762q-18 94 -76.5 130t-159.5 36q-88 0 -147 -36t-59 -101q0 -36 11 -60.5t47 -47t61 -33.5t96 -37q12 -5 18 -7q42 -15 67 -25t62.5 -27.5t60.5 -33t50 -38.5t42 -47t25 -56t10 -68q0 -72 -26 -130.5t-68.5 -96t-98.5 -63t-113.5 -36t-116.5 -10.5q-80 0 -151 20
t-130 60t-96 108.5t-43 158.5h180q17 -102 74.5 -146.5t177.5 -44.5q94 0 160.5 42.5t66.5 113.5q0 62 -49.5 99t-175.5 79q-42 14 -64.5 22t-62.5 25.5t-63 32t-52.5 38.5t-45 50t-27 61t-11.5 76q0 65 24 118.5t64 89t93 60t109 35t114 10.5q174 0 279 -82.5t118 -238.5
h-174z" />
    <glyph glyph-name="t" unicode="t" horiz-adv-x="622" 
d="M309 291q-24 -139 105 -139h80l-27 -152h-86q-148 0 -211.5 81t-40.5 210l109 616h-158l26 152h158l43 248l195 82l-58 -330h203l-26 -152h-203z" />
    <glyph glyph-name="u" unicode="u" horiz-adv-x="1138" 
d="M1096 1059l-187 -1059h-172l31 182q-47 -97 -142 -152t-212 -55q-100 0 -170 36.5t-103.5 99t-44 146t9.5 177.5l111 625h184l-102 -582q-14 -82 -14.5 -143t11.5 -99.5t37 -62t56.5 -32.5t75.5 -9q125 0 223 107t133 307l90 514h185z" />
    <glyph glyph-name="v" unicode="v" horiz-adv-x="1030" 
d="M309 1059q24 -146 73 -437t73 -436h2q166 326 448 873h203l-584 -1059h-202q-36 176 -105.5 529.5t-105.5 529.5h198z" />
    <glyph glyph-name="w" unicode="w" horiz-adv-x="1533" 
d="M227 0l-116 1059h190l55 -651q2 -33 5.5 -98.5t5.5 -98.5h2q10 24 37 92t43 103l288 653h244l57 -651q6 -102 15 -199h2q15 34 41.5 99.5t40.5 99.5l282 651h193l-492 -1059h-211l-65 694l-17 180h-2q-14 -31 -38 -90.5t-37 -89.5l-312 -694h-211z" />
    <glyph glyph-name="x" unicode="x" horiz-adv-x="1105" 
d="M-61 0l516 553l-310 506h211l224 -373l354 373h221l-496 -512l320 -547h-211l-231 416l-375 -416h-223z" />
    <glyph glyph-name="y" unicode="y" horiz-adv-x="1064" 
d="M111 1059h190l127 -613l55 -264h2l138 267l317 610h203l-703 -1264q-56 -101 -128 -153t-175 -52h-143l26 156h117q30 0 54 8t37.5 15.5t31.5 31.5t23.5 33.5t25.5 44.5l53 92z" />
    <glyph glyph-name="z" unicode="z" horiz-adv-x="999" 
d="M741 903h-127h-434l27 156h799l-21 -111l-756 -792h117h516l-26 -156h-861l23 125z" />
    <glyph glyph-name="braceleft" unicode="{" horiz-adv-x="714" 
d="M694 1374q-97 0 -129 -176l-65 -375q-12 -66 -42.5 -120.5t-67 -85t-66.5 -47t-52 -21.5v-6q16 -2 34.5 -11t41 -29t37 -50.5t21.5 -77t-5 -107.5l-65 -374q-30 -177 67 -177h103l-23 -123h-143q-84 0 -140 73.5t-34 195.5l65 373q19 108 -19.5 173.5t-107.5 65.5l25 139
q68 0 130.5 68.5t82.5 173.5l66 373q22 122 103 195t165 73h143l-22 -123h-103z" />
    <glyph glyph-name="bar" unicode="|" horiz-adv-x="630" 
d="M268 1774h144v-2212h-144v2212z" />
    <glyph glyph-name="braceright" unicode="}" horiz-adv-x="716" 
d="M215 1374l23 123h143q84 0 140 -73t34 -195l-66 -373q-20 -104 19.5 -173t107.5 -69l-24 -139q-69 0 -131.5 -65.5t-81.5 -173.5l-66 -373q-22 -122 -103 -195.5t-165 -73.5h-143l22 123h103q99 0 129 177l65 374q11 59 33.5 107.5t48.5 77.5t55.5 50t51.5 29.5t39 10.5
v6q-20 5 -44 20.5t-51 49t-36 83t1 121.5l66 375q32 176 -68 176h-102z" />
    <glyph glyph-name="asciitilde" unicode="~" horiz-adv-x="1214" 
d="M1137 662q-9 -134 -92.5 -217t-215.5 -83q-55 0 -120.5 22t-115.5 48t-109.5 48t-104.5 22q-57 0 -95.5 -38t-41.5 -102h-170q8 133 90.5 216.5t216.5 83.5q63 0 132.5 -22t118.5 -48t104.5 -48t94.5 -22q55 0 93.5 37.5t44.5 102.5h170z" />
    <glyph glyph-name="uni00A0" unicode="&#xa0;" horiz-adv-x="458" 
 />
    <glyph glyph-name="exclamdown" unicode="&#xa1;" horiz-adv-x="536" 
d="M82 72l156 622h100l-62 -622l-83 -471h-195zM207 817l43 246h225l-43 -246h-225z" />
    <glyph glyph-name="cent" unicode="&#xa2;" horiz-adv-x="1161" 
d="M385 -209l35 197q-169 38 -265 169.5t-96 284.5q0 147 44.5 267t121.5 198t175 122.5t210 51.5l33 183h174l-35 -195q134 -30 210 -120.5t95 -209.5h-180q-14 60 -52 105.5t-99 66.5l-138 -776q93 13 153.5 60.5t102.5 130.5h189q-117 -329 -471 -349l-33 -186h-174z
M242 455q0 -97 55.5 -185.5t151.5 -122.5l135 775q-145 -26 -243.5 -149.5t-98.5 -317.5z" />
    <glyph glyph-name="sterling" unicode="&#xa3;" horiz-adv-x="1296" 
d="M117 625l24 143l150 6q-13 30 -20 49t-16.5 51.5t-12.5 60.5t-3 66.5t7 79.5q20 129 104 225t203 143.5t254 47.5q228 0 341 -124t91 -337l-190 13q3 139 -53 211.5t-197 72.5q-137 0 -238 -68.5t-123 -193.5q-7 -44 2 -99.5t20.5 -89t36.5 -101.5q5 -13 7 -19l387 6
l-25 -143l-321 -7q11 -46 2 -106q-34 -196 -293 -369q100 47 192 47q101 0 201 -34q131 -31 178 -31q53 0 112 18.5t101 46.5l76 -133q-120 -92 -323 -92q-121 0 -226 43q-115 33 -239 33q-100 0 -224 -76l-77 137q18 16 58.5 49t60 50.5t52.5 49t51 57.5t39.5 62t35 77.5
t22.5 89.5q7 38 0 94z" />
    <glyph glyph-name="currency" unicode="&#xa4;" horiz-adv-x="1314" 
d="M178 715q0 169 107 307l-113 115l100 100l115 -115q137 105 309 105q160 0 295 -101l115 113l102 -104l-112 -113q106 -138 106 -303q0 -169 -106 -307l112 -115l-96 -96l-111 116q-138 -110 -307 -110q-175 0 -313 110l-111 -118l-98 98l111 119q-105 137 -105 299z
M352 715q0 -149 99.5 -252t242.5 -103q141 0 237.5 105t96.5 254q0 144 -96.5 249t-235.5 105q-146 0 -245 -103t-99 -255z" />
    <glyph glyph-name="yen" unicode="&#xa5;" horiz-adv-x="1277" 
d="M414 1462q52 -132 147.5 -385t112.5 -297h6l2 6q70 95 239 322t259 352l229 2l-524 -682h188l-24 -143h-275l-26 -35l-21 -115h295l-25 -143h-297l-61 -344h-195l62 344h-297l24 143h299l21 115l-14 35h-279l25 143h194l-282 682h217z" />
    <glyph glyph-name="brokenbar" unicode="&#xa6;" horiz-adv-x="501" 
d="M334 842h-139v512h139v-512zM195 -141v512h139v-512h-139z" />
    <glyph glyph-name="section" unicode="&#xa7;" horiz-adv-x="1157" 
d="M942 1176q-18 94 -76 129.5t-159 35.5q-88 0 -147.5 -36t-59.5 -101q0 -36 12 -60.5t43.5 -45t63 -34t92.5 -36.5q15 -5 22 -8q56 -21 94 -38t85 -47t75 -63.5t48 -85t20 -112.5q0 -112 -64 -185t-168 -108q121 -79 121 -205q0 -72 -26.5 -130.5t-68.5 -96t-98.5 -63
t-114 -36t-116.5 -10.5q-80 0 -151 19.5t-130 59.5t-96 108.5t-43 158.5h181q17 -102 74 -146t177 -44q94 0 161 42.5t67 113.5q0 62 -49.5 99t-175.5 79q-139 47 -194 76q-185 98 -185 280q0 122 76.5 190.5t199.5 94.5q-117 81 -117 213q0 65 24 118.5t64 89t93 60t109 35
t114 10.5q174 0 279 -82.5t118 -238.5h-174zM340 707q0 -21 4.5 -40.5t10 -34.5t19 -29.5t22.5 -24.5t30 -22t33 -18.5t39 -17.5t39.5 -16t44.5 -16.5t45 -16.5l59 -22q73 18 128.5 80.5t55.5 119.5q0 90 -52 139t-177 91l-36 12l-42 14q-84 -13 -153.5 -69.5t-69.5 -128.5z
" />
    <glyph glyph-name="dieresis" unicode="&#xa8;" horiz-adv-x="704" 
d="M246 1462h180l-37 -213h-180zM565 1249l37 213h180l-37 -213h-180z" />
    <glyph glyph-name="copyright" unicode="&#xa9;" horiz-adv-x="1769" 
d="M924 -49q-159 0 -303.5 60t-251.5 163t-170.5 249.5t-63.5 311.5q0 162 63.5 306.5t170 247t252 162.5t303.5 60t302 -60t250 -162.5t169 -247t63 -306.5q0 -165 -63 -311.5t-169 -249.5t-250 -163t-302 -60zM291 735q0 -138 49.5 -260t134.5 -208t202 -135.5t247 -49.5
q128 0 244 50t200.5 135.5t134 207.5t49.5 260q0 179 -84.5 327.5t-228.5 233t-315 84.5q-174 0 -319 -84.5t-229.5 -233t-84.5 -327.5zM559 735q0 166 104 272.5t269 106.5q265 0 342 -244h-141q-54 123 -201 123q-101 0 -165.5 -72.5t-64.5 -185.5q0 -111 64.5 -183.5
t165.5 -72.5q152 0 198 123h144q-30 -114 -120 -180t-224 -66q-164 0 -267.5 105t-103.5 274z" />
    <glyph glyph-name="ordfeminine" unicode="&#xaa;" horiz-adv-x="811" 
d="M367 664q-100 0 -162 51.5t-62 134.5q0 43 14.5 79.5t36 61.5t55 45.5t63.5 32t69.5 21.5t64.5 14t58 8.5t41 5.5q64 11 95.5 34.5t31.5 70.5q0 75 -131 75q-62 0 -111.5 -35.5t-67.5 -99.5h-133q6 33 30.5 75t64 84.5t103.5 71.5t136 29q289 0 238 -288l-53 -297
q-11 -62 -19 -160h-156q-2 7 13 92h-2q-41 -50 -91 -78t-126 -28zM291 870q0 -38 30 -61t80 -23q89 0 148.5 60t87.5 196l6 31q-28 -30 -68.5 -48.5t-113.5 -31.5q-170 -29 -170 -123z" />
    <glyph glyph-name="guillemotleft" unicode="&#xab;" horiz-adv-x="909" 
d="M76 530l336 439h163l-305 -439l152 -438h-164zM412 530l336 439h163l-305 -439l152 -438h-164z" />
    <glyph glyph-name="logicalnot" unicode="&#xac;" horiz-adv-x="1329" 
d="M145 655v140h1033v-572h-140v432h-893z" />
    <glyph glyph-name="uni00AD" unicode="&#xad;" horiz-adv-x="964" 
d="M170 610h657l-28 -155h-658z" />
    <glyph glyph-name="registered" unicode="&#xae;" horiz-adv-x="1769" 
d="M1169 549q5 -18 12.5 -45.5t12 -43.5t13 -37t20.5 -40v-8h-146q-19 23 -33.5 86t-21.5 80q-20 55 -47 81.5t-82 26.5h-88v-274h-143v731h272q124 0 195 -57.5t71 -151.5q0 -75 -40 -128.5t-103 -68.5q43 -16 64.5 -49.5t43.5 -101.5zM135 735q0 -165 63.5 -311.5
t170.5 -249.5t251.5 -163t303.5 -60q158 0 302 60t250 163t169 249.5t63 311.5q0 162 -63 306.5t-169 247t-250 162.5t-302 60t-303.5 -59.5t-252 -162t-170 -247.5t-63.5 -307zM291 735q0 179 84.5 327.5t229.5 233t319 84.5q171 0 315 -85t228.5 -233.5t84.5 -326.5
q0 -138 -49.5 -260t-134 -207.5t-200.5 -135.5t-244 -50q-130 0 -247 49.5t-202 135.5t-134.5 208t-49.5 260zM809 766h121q62 0 97.5 32t35.5 85q0 47 -34.5 74.5t-100.5 27.5h-119v-219z" />
    <glyph glyph-name="macron" unicode="&#xaf;" horiz-adv-x="831" 
d="M217 1382h696l-20 -112h-696z" />
    <glyph glyph-name="degree" unicode="&#xb0;" horiz-adv-x="772" 
d="M506 1047q74 0 119 48.5t45 114.5q0 65 -45.5 113.5t-118.5 48.5t-118.5 -48.5t-45.5 -113.5q0 -66 45 -114.5t119 -48.5zM223 1210q0 118 82 200.5t201 82.5q117 0 199.5 -83t82.5 -200q0 -119 -82 -200.5t-200 -81.5q-120 0 -201.5 81t-81.5 201z" />
    <glyph glyph-name="plusminus" unicode="&#xb1;" horiz-adv-x="1353" 
d="M129 143h1032v-143h-1032v143zM129 551v147h442v336h148v-336h442v-147h-442v-338h-148v338h-442z" />
    <glyph glyph-name="uni00B2" unicode="&#xb2;" horiz-adv-x="727" 
d="M213 1407q15 123 106.5 204t219.5 81q130 0 207 -65.5t77 -166.5q0 -108 -52.5 -178.5t-176.5 -148.5q-34 -21 -90.5 -54t-85 -50.5t-62 -45t-53.5 -55.5h440l-22 -127h-619q15 76 36 128t60.5 96t83 76t121.5 79q21 13 60.5 37t55.5 33.5t44.5 29t40 30t29 28t24 31.5
t12 32.5t5.5 38.5q-1 59 -39 91t-103 32q-63 0 -108.5 -40t-58.5 -116h-152z" />
    <glyph glyph-name="uni00B3" unicode="&#xb3;" horiz-adv-x="739" 
d="M240 1442q25 114 103.5 182t191.5 68q124 0 197 -60t73 -164q0 -84 -43.5 -136.5t-106.5 -76.5q119 -48 119 -211q0 -108 -86 -184t-221 -76q-283 0 -320 248l-2 23h148l2 -17q19 -129 160 -129q86 0 131 40t45 110q0 67 -38 103t-106 36h-84l15 117h71q68 0 119 34.5
t51 102.5q0 55 -32 86t-92 31q-56 0 -92.5 -33.5t-49.5 -81.5l-2 -12h-151z" />
    <glyph glyph-name="acute" unicode="&#xb4;" horiz-adv-x="534" 
d="M688 1462h234l-375 -268h-135z" />
    <glyph glyph-name="uni00B5" unicode="&#xb5;" horiz-adv-x="1144" 
d="M-41 -403l258 1462h184l-116 -668q-25 -133 28.5 -196.5t167.5 -63.5q122 0 215.5 104t128.5 304l93 520h184l-187 -1059h-172l31 182q-48 -98 -142 -152.5t-202 -54.5q-139 0 -213 41l-74 -419h-184z" />
    <glyph glyph-name="paragraph" unicode="&#xb6;" horiz-adv-x="1171" 
d="M889 -236h-135l278 1586h-256l-278 -1586h-136l156 863q-181 0 -278 113.5t-97 289.5q0 127 77 227t201 152.5t269 52.5h498z" />
    <glyph glyph-name="periodcentered" unicode="&#xb7;" horiz-adv-x="487" 
d="M244 666q54 0 92.5 -38.5t38.5 -92.5q0 -50 -39.5 -91t-89.5 -41q-54 0 -93.5 39t-39.5 93t38.5 92.5t92.5 38.5z" />
    <glyph glyph-name="cedilla" unicode="&#xb8;" horiz-adv-x="544" 
d="M70 -430q-104 0 -185 41l58 100q53 -39 118 -39q49 0 91 16t47 48q6 29 -18 46t-66 17q-35 0 -88 -16l-41 80l147 137h109l-105 -109l2 -4q24 15 72 15q71 0 113.5 -39.5t31.5 -110.5q-9 -49 -38.5 -86t-71.5 -57t-86 -29.5t-90 -9.5z" />
    <glyph glyph-name="uni00B9" unicode="&#xb9;" horiz-adv-x="532" 
d="M457 801h-148l107 616h-215l16 105q97 0 161 33t105 124h129z" />
    <glyph glyph-name="ordmasculine" unicode="&#xba;" horiz-adv-x="878" 
d="M485 651q-149 0 -244.5 92.5t-95.5 245.5q0 115 55 214t153 158.5t216 59.5q149 0 245.5 -93t96.5 -247q0 -176 -123.5 -303t-302.5 -127zM295 983q0 -95 50.5 -152t135.5 -57q113 0 196 95t83 221q0 95 -51 151.5t-136 56.5q-112 0 -195 -94.5t-83 -220.5z" />
    <glyph glyph-name="guillemotright" unicode="&#xbb;" horiz-adv-x="911" 
d="M836 530l-338 -438h-164l307 438l-154 439h164zM-2 92l307 438l-153 439h163l185 -439l-338 -438h-164z" />
    <glyph glyph-name="onequarter" unicode="&#xbc;" horiz-adv-x="1583" 
d="M418 584h-148l107 616h-215l16 105q97 0 161 33t105 124h129zM279 0l821 1464h157l-821 -1464h-157zM842 213l22 139l473 527h154l-96 -543h100l-20 -123h-103l-37 -213h-147l37 213h-383zM1006 336h239l60 332h-7z" />
    <glyph glyph-name="onehalf" unicode="&#xbd;" horiz-adv-x="1617" 
d="M418 584h-148l107 616h-215l16 105q97 0 161 33t105 124h129zM242 0l821 1464h158l-822 -1464h-157zM852 0q15 76 36 128t60.5 96t83 76t121.5 79q20 12 54 33t50 30.5t42 26.5t38 26.5t29.5 24.5t25 27t16.5 27t12 31t3 34q-1 59 -38.5 91t-102.5 32q-63 0 -109 -40
t-59 -116h-151q15 123 106 204t219 81q131 0 208 -65.5t77 -166.5q0 -108 -53 -178.5t-177 -148.5q-34 -21 -90.5 -54t-85 -50.5t-61.5 -45t-53 -55.5h440l-23 -127h-618z" />
    <glyph glyph-name="threequarters" unicode="&#xbe;" horiz-adv-x="1959" 
d="M201 1225q25 114 103.5 182t191.5 68q124 0 197 -60t73 -164q0 -84 -43.5 -136.5t-106.5 -76.5q119 -48 119 -211q0 -108 -86 -184t-221 -76q-282 0 -319 248l-3 23h148l2 -17q19 -129 160 -129q86 0 131 40t45 110q0 67 -37.5 103t-105.5 36h-84l14 117h72
q68 0 119 34.5t51 102.5q0 55 -32 86t-93 31q-56 0 -92.5 -33.5t-49.5 -81.5l-2 -12h-151zM655 0l822 1464h157l-821 -1464h-158zM1219 213l22 139l473 527h154l-96 -543h100l-21 -123h-102l-37 -213h-147l37 213h-383zM1382 336h240l59 332h-6z" />
    <glyph glyph-name="questiondown" unicode="&#xbf;" horiz-adv-x="1128" 
d="M907 14q-35 -200 -181.5 -324t-344.5 -124q-195 0 -293.5 113.5t-67.5 295.5q11 61 34 111.5t63 97.5t65 71t78 71q102 90 136 128q73 84 89 173l11 51h184l-12 -68q-11 -61 -34.5 -113t-62 -97t-68 -73t-79.5 -69q-100 -84 -131 -118q-72 -78 -88 -165
q-20 -114 35.5 -184t169.5 -70q116 0 202 80t111 213l6 33h184zM516 817l39 246h199l-39 -246h-199z" />
    <glyph glyph-name="Agrave" unicode="&#xc0;" horiz-adv-x="1406" 
d="M147 0h-204l788 1462h244l301 -1462h-197l-80 424h-626zM453 578h518l-135 710h-7zM500 1802h274l258 -213h-205z" />
    <glyph glyph-name="Aacute" unicode="&#xc1;" horiz-adv-x="1406" 
d="M147 0h-204l788 1462h244l301 -1462h-197l-80 424h-626zM453 578h518l-135 710h-7zM762 1589l295 213h274l-364 -213h-205z" />
    <glyph glyph-name="Acircumflex" unicode="&#xc2;" horiz-adv-x="1406" 
d="M147 0h-204l788 1462h244l301 -1462h-197l-80 424h-626zM453 578h518l-135 710h-7zM555 1577l272 231h205l191 -231h-205l-107 131l-151 -131h-205z" />
    <glyph glyph-name="Atilde" unicode="&#xc3;" horiz-adv-x="1406" 
d="M147 0h-204l788 1462h244l301 -1462h-197l-80 424h-626zM453 578h518l-135 710h-7zM535 1575q23 100 87.5 162.5t163.5 62.5q46 0 95 -22t93.5 -44t80.5 -22q34 0 54.5 22.5t37.5 67.5h133q-28 -100 -92 -163.5t-154 -63.5q-50 0 -102.5 21.5t-99 43t-80.5 21.5
q-71 0 -93 -86h-124z" />
    <glyph glyph-name="Adieresis" unicode="&#xc4;" horiz-adv-x="1406" 
d="M147 0h-204l788 1462h244l301 -1462h-197l-80 424h-626zM453 578h518l-135 710h-7zM614 1589l37 213h185l-37 -213h-185zM983 1589l37 213h184l-37 -213h-184z" />
    <glyph glyph-name="Aring" unicode="&#xc5;" horiz-adv-x="1406" 
d="M147 0h-204l788 1462h244l301 -1462h-197l-80 424h-626zM453 578h518l-135 710h-7zM705 1792q17 92 93 156.5t167 64.5t145 -64.5t37 -156.5q-15 -92 -92 -156.5t-168 -64.5t-144 64.5t-38 156.5zM827 1790q-8 -45 14 -72.5t66 -27.5t77 28t40 72q8 45 -14 72.5t-66 27.5
t-77 -28t-40 -72z" />
    <glyph glyph-name="AE" unicode="&#xc6;" horiz-adv-x="2074" 
d="M-57 0l1087 1462h1079l-28 -164h-725l-84 -473h682l-29 -163h-682l-88 -498h731l-28 -164h-926l80 453h-514l-332 -453h-223zM614 612h426l121 686h-43z" />
    <glyph glyph-name="Ccedilla" unicode="&#xc7;" horiz-adv-x="1589" 
d="M676 -430q-103 0 -184 41l57 100q53 -39 119 -39q49 0 90.5 16t46.5 48q6 29 -18 46t-66 17q-35 0 -88 -16l-41 80l119 110q-122 10 -222.5 53.5t-168 107.5t-113.5 146.5t-67 169t-21 175.5q0 197 65 361t177.5 274t265.5 170.5t329 60.5q116 0 213 -26t164.5 -69.5
t119.5 -104.5t82.5 -125t49.5 -138h-184q-101 299 -453 299q-139 0 -255.5 -48.5t-201 -138.5t-131.5 -225.5t-47 -302.5q0 -60 15.5 -123t52 -127.5t90 -114.5t138.5 -82t188 -32q178 0 317 81.5t205 225.5h188q-97 -215 -275 -339.5t-413 -131.5l-76 -78l2 -4q24 15 72 15
q71 0 114 -39.5t32 -110.5q-9 -49 -38.5 -86t-71.5 -57t-86.5 -29.5t-90.5 -9.5z" />
    <glyph glyph-name="Egrave" unicode="&#xc8;" horiz-adv-x="1196" 
d="M1231 1462l-29 -164h-717l-84 -473h674l-28 -163h-674l-88 -498h723l-29 -164h-918l258 1462h912zM385 1802h274l259 -213h-205z" />
    <glyph glyph-name="Eacute" unicode="&#xc9;" horiz-adv-x="1196" 
d="M1231 1462l-29 -164h-717l-84 -473h674l-28 -163h-674l-88 -498h723l-29 -164h-918l258 1462h912zM647 1589l295 213h275l-365 -213h-205z" />
    <glyph glyph-name="Ecircumflex" unicode="&#xca;" horiz-adv-x="1196" 
d="M1231 1462l-29 -164h-717l-84 -473h674l-28 -163h-674l-88 -498h723l-29 -164h-918l258 1462h912zM440 1577l273 231h205l190 -231h-205l-106 131l-152 -131h-205z" />
    <glyph glyph-name="Edieresis" unicode="&#xcb;" horiz-adv-x="1196" 
d="M1231 1462l-29 -164h-717l-84 -473h674l-28 -163h-674l-88 -498h723l-29 -164h-918l258 1462h912zM500 1589l37 213h184l-37 -213h-184zM868 1589l37 213h185l-37 -213h-185z" />
    <glyph glyph-name="Igrave" unicode="&#xcc;" horiz-adv-x="505" 
d="M319 1462h195l-258 -1462h-195zM49 1802h275l258 -213h-205z" />
    <glyph glyph-name="Iacute" unicode="&#xcd;" horiz-adv-x="505" 
d="M319 1462h195l-258 -1462h-195zM311 1589l295 213h275l-365 -213h-205z" />
    <glyph glyph-name="Icircumflex" unicode="&#xce;" horiz-adv-x="505" 
d="M319 1462h195l-258 -1462h-195zM104 1577l273 231h205l190 -231h-205l-106 131l-152 -131h-205z" />
    <glyph glyph-name="Idieresis" unicode="&#xcf;" horiz-adv-x="505" 
d="M319 1462h195l-258 -1462h-195zM164 1589l37 213h184l-37 -213h-184zM532 1589l37 213h185l-37 -213h-185z" />
    <glyph glyph-name="Eth" unicode="&#xd0;" horiz-adv-x="1447" 
d="M672 1462q342 0 538 -174q97 -88 143 -207.5t46 -251.5q0 -214 -77 -377t-214 -268q-236 -184 -588 -184h-459l115 647h-143l20 139h148l118 676h353zM285 164h258q92 0 181 20.5t177 70t154.5 123.5t107.5 192t41 264q0 211 -125 337.5t-374 126.5h-220l-90 -512h305
l-20 -139h-309z" />
    <glyph glyph-name="Ntilde" unicode="&#xd1;" horiz-adv-x="1472" 
d="M319 1462h236l406 -930q12 -25 53 -118.5t65 -139.5q11 58 27.5 157.5t23.5 137.5l158 893h193l-258 -1462h-242l-399 924q-15 32 -53.5 120t-61.5 132q-14 -63 -32 -176.5t-21 -129.5l-154 -870h-199zM567 1575q23 100 88 162.5t164 62.5q46 0 94.5 -22t93 -44t80.5 -22
q35 0 56 22.5t37 67.5h133q-28 -100 -92 -163.5t-154 -63.5q-50 0 -103 21.5t-99.5 43t-80.5 21.5q-70 0 -92 -86h-125z" />
    <glyph glyph-name="Ograve" unicode="&#xd2;" horiz-adv-x="1671" 
d="M956 1491q144 0 260.5 -39.5t190.5 -103.5t124.5 -148.5t71.5 -170t21 -173.5q0 -205 -64.5 -373.5t-177.5 -280t-265.5 -172.5t-328.5 -61q-138 0 -252 39t-190 103.5t-128.5 150.5t-75.5 177t-23 186q0 197 65 361t177.5 274t265.5 170.5t329 60.5zM313 612
q0 -60 15.5 -123t52 -127.5t90 -114.5t138.5 -82t188 -32q183 0 327.5 88t226 247t81.5 361q0 69 -13.5 134.5t-48 133t-87.5 117.5t-139.5 81.5t-195.5 31.5q-139 0 -255.5 -48.5t-201 -138.5t-131.5 -225.5t-47 -302.5zM631 1802h274l258 -213h-205z" />
    <glyph glyph-name="Oacute" unicode="&#xd3;" horiz-adv-x="1671" 
d="M956 1491q144 0 260.5 -39.5t190.5 -103.5t124.5 -148.5t71.5 -170t21 -173.5q0 -205 -64.5 -373.5t-177.5 -280t-265.5 -172.5t-328.5 -61q-138 0 -252 39t-190 103.5t-128.5 150.5t-75.5 177t-23 186q0 197 65 361t177.5 274t265.5 170.5t329 60.5zM313 612
q0 -60 15.5 -123t52 -127.5t90 -114.5t138.5 -82t188 -32q183 0 327.5 88t226 247t81.5 361q0 69 -13.5 134.5t-48 133t-87.5 117.5t-139.5 81.5t-195.5 31.5q-139 0 -255.5 -48.5t-201 -138.5t-131.5 -225.5t-47 -302.5zM893 1589l295 213h274l-364 -213h-205z" />
    <glyph glyph-name="Ocircumflex" unicode="&#xd4;" horiz-adv-x="1671" 
d="M956 1491q144 0 260.5 -39.5t190.5 -103.5t124.5 -148.5t71.5 -170t21 -173.5q0 -205 -64.5 -373.5t-177.5 -280t-265.5 -172.5t-328.5 -61q-138 0 -252 39t-190 103.5t-128.5 150.5t-75.5 177t-23 186q0 197 65 361t177.5 274t265.5 170.5t329 60.5zM313 612
q0 -60 15.5 -123t52 -127.5t90 -114.5t138.5 -82t188 -32q183 0 327.5 88t226 247t81.5 361q0 69 -13.5 134.5t-48 133t-87.5 117.5t-139.5 81.5t-195.5 31.5q-139 0 -255.5 -48.5t-201 -138.5t-131.5 -225.5t-47 -302.5zM686 1577l272 231h205l191 -231h-205l-107 131
l-151 -131h-205z" />
    <glyph glyph-name="Otilde" unicode="&#xd5;" horiz-adv-x="1671" 
d="M956 1491q144 0 260.5 -39.5t190.5 -103.5t124.5 -148.5t71.5 -170t21 -173.5q0 -205 -64.5 -373.5t-177.5 -280t-265.5 -172.5t-328.5 -61q-138 0 -252 39t-190 103.5t-128.5 150.5t-75.5 177t-23 186q0 197 65 361t177.5 274t265.5 170.5t329 60.5zM313 612
q0 -60 15.5 -123t52 -127.5t90 -114.5t138.5 -82t188 -32q183 0 327.5 88t226 247t81.5 361q0 69 -13.5 134.5t-48 133t-87.5 117.5t-139.5 81.5t-195.5 31.5q-139 0 -255.5 -48.5t-201 -138.5t-131.5 -225.5t-47 -302.5zM666 1575q23 100 88 162.5t164 62.5q46 0 94.5 -22
t93 -44t80.5 -22q34 0 54.5 22.5t37.5 67.5h133q-28 -100 -92 -163.5t-154 -63.5q-50 0 -102.5 21.5t-99 43t-80.5 21.5q-70 0 -92 -86h-125z" />
    <glyph glyph-name="Odieresis" unicode="&#xd6;" horiz-adv-x="1671" 
d="M956 1491q144 0 260.5 -39.5t190.5 -103.5t124.5 -148.5t71.5 -170t21 -173.5q0 -205 -64.5 -373.5t-177.5 -280t-265.5 -172.5t-328.5 -61q-138 0 -252 39t-190 103.5t-128.5 150.5t-75.5 177t-23 186q0 197 65 361t177.5 274t265.5 170.5t329 60.5zM313 612
q0 -60 15.5 -123t52 -127.5t90 -114.5t138.5 -82t188 -32q183 0 327.5 88t226 247t81.5 361q0 69 -13.5 134.5t-48 133t-87.5 117.5t-139.5 81.5t-195.5 31.5q-139 0 -255.5 -48.5t-201 -138.5t-131.5 -225.5t-47 -302.5zM745 1589l37 213h185l-37 -213h-185zM1114 1589
l37 213h184l-37 -213h-184z" />
    <glyph glyph-name="multiply" unicode="&#xd7;" horiz-adv-x="1269" 
d="M162 889l110 110l363 -362l362 362l111 -110l-363 -363l363 -362l-111 -111l-362 363l-363 -363l-110 111l362 362z" />
    <glyph glyph-name="Oslash" unicode="&#xd8;" horiz-adv-x="1671" 
d="M956 1491q320 0 500 -188l209 174l76 -93l-213 -178q96 -157 96 -350q0 -205 -64.5 -373.5t-177.5 -280t-265.5 -172.5t-328.5 -61q-322 0 -501 201l-213 -178l-72 94l213 178q-96 161 -96 361q0 197 65 361t177.5 274t265.5 170.5t329 60.5zM313 612q0 -110 52 -223
l948 793q-125 145 -365 145q-139 0 -255.5 -48.5t-201 -138.5t-131.5 -225.5t-47 -302.5zM430 289q132 -156 367 -156q183 0 327.5 88t226 247t81.5 361q0 138 -54 252z" />
    <glyph glyph-name="Ugrave" unicode="&#xd9;" horiz-adv-x="1388" 
d="M1241 514q-23 -132 -65.5 -230t-112 -171.5t-172.5 -110.5t-240 -37q-284 0 -416.5 168t-82.5 449l155 880h195l-158 -893q-37 -205 48 -322.5t267 -117.5q92 0 160 27t113 81t72.5 123.5t44.5 165.5l165 936h195zM492 1802h274l258 -213h-205z" />
    <glyph glyph-name="Uacute" unicode="&#xda;" horiz-adv-x="1388" 
d="M1241 514q-23 -132 -65.5 -230t-112 -171.5t-172.5 -110.5t-240 -37q-284 0 -416.5 168t-82.5 449l155 880h195l-158 -893q-37 -205 48 -322.5t267 -117.5q92 0 160 27t113 81t72.5 123.5t44.5 165.5l165 936h195zM754 1589l295 213h274l-365 -213h-204z" />
    <glyph glyph-name="Ucircumflex" unicode="&#xdb;" horiz-adv-x="1388" 
d="M1241 514q-23 -132 -65.5 -230t-112 -171.5t-172.5 -110.5t-240 -37q-284 0 -416.5 168t-82.5 449l155 880h195l-158 -893q-37 -205 48 -322.5t267 -117.5q92 0 160 27t113 81t72.5 123.5t44.5 165.5l165 936h195zM547 1577l272 231h205l190 -231h-204l-107 131
l-151 -131h-205z" />
    <glyph glyph-name="Udieresis" unicode="&#xdc;" horiz-adv-x="1388" 
d="M1241 514q-23 -132 -65.5 -230t-112 -171.5t-172.5 -110.5t-240 -37q-284 0 -416.5 168t-82.5 449l155 880h195l-158 -893q-37 -205 48 -322.5t267 -117.5q92 0 160 27t113 81t72.5 123.5t44.5 165.5l165 936h195zM606 1589l37 213h184l-36 -213h-185zM975 1589l37 213
h184l-37 -213h-184z" />
    <glyph glyph-name="Yacute" unicode="&#xdd;" horiz-adv-x="1277" 
d="M197 1462h221l260 -682h4l502 682h225l-661 -860l-107 -602h-195l107 602zM696 1589l295 213h275l-365 -213h-205z" />
    <glyph glyph-name="Thorn" unicode="&#xde;" horiz-adv-x="1206" 
d="M766 1188q217 0 328.5 -123.5t76.5 -319.5q-33 -188 -181.5 -303t-364.5 -114h-312l-57 -328h-195l258 1462h195l-49 -274h301zM342 492h281q155 -1 244.5 70.5t113.5 207.5q24 127 -36.5 190.5t-217.5 63.5h-291z" />
    <glyph glyph-name="germandbls" unicode="&#xdf;" horiz-adv-x="1107" 
d="M225 1094q33 188 148.5 295.5t304.5 107.5q176 0 281.5 -95t105.5 -233q0 -85 -25 -153t-67 -111t-86.5 -68.5t-93.5 -39.5q221 -80 221 -353q0 -97 -28.5 -176t-77.5 -132t-116 -88.5t-141.5 -51.5t-156.5 -16q-111 0 -181 28l19 156q50 -27 139 -27q107 0 187.5 30
t130 99.5t49.5 173.5q0 55 -14 102t-43.5 86.5t-83.5 62t-126 22.5h-55l21 143q53 2 99 10.5t92.5 29.5t79 52t53 81t20.5 114q0 83 -52.5 139.5t-150.5 56.5q-113 0 -181 -65t-96 -227l-184 -1047h-184z" />
    <glyph glyph-name="agrave" unicode="&#xe0;" horiz-adv-x="1114" 
d="M37 270q0 67 24.5 120.5t68.5 88t96.5 60t118.5 40.5t123 24.5t122 18.5q6 0 9 0.5t8 1t9 1.5q124 17 178 55.5t54 99.5q0 73 -67 111.5t-167 38.5q-211 0 -264 -191h-184q11 62 46.5 122t91 110.5t136.5 82t174 31.5q81 0 146.5 -15.5t109 -40.5t75 -60t47.5 -72.5
t23.5 -78.5t6.5 -76.5t-8 -69.5l-88 -463q-23 -129 -17 -209h-192q0 79 10 147q-31 -65 -126.5 -118.5t-229.5 -53.5q-75 0 -134.5 20t-96 51t-60.5 71.5t-33.5 78t-9.5 74.5zM217 276q0 -70 50.5 -111.5t148.5 -41.5q84 0 148.5 25t108.5 74t73 110.5t51 146.5
q17 70 24 115q-46 -53 -106.5 -81t-202.5 -50q-57 -9 -94.5 -16.5t-79 -22t-65.5 -33t-40 -48t-16 -67.5zM414 1473h233l135 -269h-135z" />
    <glyph glyph-name="aacute" unicode="&#xe1;" horiz-adv-x="1114" 
d="M37 270q0 67 24.5 120.5t68.5 88t96.5 60t118.5 40.5t123 24.5t122 18.5q6 0 9 0.5t8 1t9 1.5q124 17 178 55.5t54 99.5q0 73 -67 111.5t-167 38.5q-211 0 -264 -191h-184q11 62 46.5 122t91 110.5t136.5 82t174 31.5q81 0 146.5 -15.5t109 -40.5t75 -60t47.5 -72.5
t23.5 -78.5t6.5 -76.5t-8 -69.5l-88 -463q-23 -129 -17 -209h-192q0 79 10 147q-31 -65 -126.5 -118.5t-229.5 -53.5q-75 0 -134.5 20t-96 51t-60.5 71.5t-33.5 78t-9.5 74.5zM217 276q0 -70 50.5 -111.5t148.5 -41.5q84 0 148.5 25t108.5 74t73 110.5t51 146.5
q17 70 24 115q-46 -53 -106.5 -81t-202.5 -50q-57 -9 -94.5 -16.5t-79 -22t-65.5 -33t-40 -48t-16 -67.5zM578 1204l276 269h233l-374 -269h-135z" />
    <glyph glyph-name="acircumflex" unicode="&#xe2;" horiz-adv-x="1114" 
d="M37 270q0 67 24.5 120.5t68.5 88t96.5 60t118.5 40.5t123 24.5t122 18.5q6 0 9 0.5t8 1t9 1.5q124 17 178 55.5t54 99.5q0 73 -67 111.5t-167 38.5q-211 0 -264 -191h-184q11 62 46.5 122t91 110.5t136.5 82t174 31.5q81 0 146.5 -15.5t109 -40.5t75 -60t47.5 -72.5
t23.5 -78.5t6.5 -76.5t-8 -69.5l-88 -463q-23 -129 -17 -209h-192q0 79 10 147q-31 -65 -126.5 -118.5t-229.5 -53.5q-75 0 -134.5 20t-96 51t-60.5 71.5t-33.5 78t-9.5 74.5zM217 276q0 -70 50.5 -111.5t148.5 -41.5q84 0 148.5 25t108.5 74t73 110.5t51 146.5
q17 70 24 115q-46 -53 -106.5 -81t-202.5 -50q-57 -9 -94.5 -16.5t-79 -22t-65.5 -33t-40 -48t-16 -67.5zM330 1204l278 269h193l184 -269h-192l-105 172l-166 -172h-192z" />
    <glyph glyph-name="atilde" unicode="&#xe3;" horiz-adv-x="1114" 
d="M37 270q0 67 24.5 120.5t68.5 88t96.5 60t118.5 40.5t123 24.5t122 18.5q6 0 9 0.5t8 1t9 1.5q124 17 178 55.5t54 99.5q0 73 -67 111.5t-167 38.5q-211 0 -264 -191h-184q11 62 46.5 122t91 110.5t136.5 82t174 31.5q81 0 146.5 -15.5t109 -40.5t75 -60t47.5 -72.5
t23.5 -78.5t6.5 -76.5t-8 -69.5l-88 -463q-23 -129 -17 -209h-192q0 79 10 147q-31 -65 -126.5 -118.5t-229.5 -53.5q-75 0 -134.5 20t-96 51t-60.5 71.5t-33.5 78t-9.5 74.5zM217 276q0 -70 50.5 -111.5t148.5 -41.5q84 0 148.5 25t108.5 74t73 110.5t51 146.5
q17 70 24 115q-46 -53 -106.5 -81t-202.5 -50q-57 -9 -94.5 -16.5t-79 -22t-65.5 -33t-40 -48t-16 -67.5zM311 1247q23 100 88 163t164 63q37 0 75.5 -14t66.5 -31.5t62.5 -31.5t63.5 -14q34 0 55.5 23t37.5 68h133q-28 -100 -93 -164t-155 -64q-50 0 -102.5 22t-98.5 44
t-80 22q-70 0 -92 -86h-125z" />
    <glyph glyph-name="adieresis" unicode="&#xe4;" horiz-adv-x="1114" 
d="M37 270q0 67 24.5 120.5t68.5 88t96.5 60t118.5 40.5t123 24.5t122 18.5q6 0 9 0.5t8 1t9 1.5q124 17 178 55.5t54 99.5q0 73 -67 111.5t-167 38.5q-211 0 -264 -191h-184q11 62 46.5 122t91 110.5t136.5 82t174 31.5q81 0 146.5 -15.5t109 -40.5t75 -60t47.5 -72.5
t23.5 -78.5t6.5 -76.5t-8 -69.5l-88 -463q-23 -129 -17 -209h-192q0 79 10 147q-31 -65 -126.5 -118.5t-229.5 -53.5q-75 0 -134.5 20t-96 51t-60.5 71.5t-33.5 78t-9.5 74.5zM217 276q0 -70 50.5 -111.5t148.5 -41.5q84 0 148.5 25t108.5 74t73 110.5t51 146.5
q17 70 24 115q-46 -53 -106.5 -81t-202.5 -50q-57 -9 -94.5 -16.5t-79 -22t-65.5 -33t-40 -48t-16 -67.5zM399 1260l37 213h180l-36 -213h-181zM756 1260l37 213h180l-37 -213h-180z" />
    <glyph glyph-name="aring" unicode="&#xe5;" horiz-adv-x="1114" 
d="M37 270q0 67 24.5 120.5t68.5 88t96.5 60t118.5 40.5t123 24.5t122 18.5q6 0 9 0.5t8 1t9 1.5q124 17 178 55.5t54 99.5q0 73 -67 111.5t-167 38.5q-211 0 -264 -191h-184q11 62 46.5 122t91 110.5t136.5 82t174 31.5q81 0 146.5 -15.5t109 -40.5t75 -60t47.5 -72.5
t23.5 -78.5t6.5 -76.5t-8 -69.5l-88 -463q-23 -129 -17 -209h-192q0 79 10 147q-31 -65 -126.5 -118.5t-229.5 -53.5q-75 0 -134.5 20t-96 51t-60.5 71.5t-33.5 78t-9.5 74.5zM217 276q0 -70 50.5 -111.5t148.5 -41.5q84 0 148.5 25t108.5 74t73 110.5t51 146.5
q17 70 24 115q-46 -53 -106.5 -81t-202.5 -50q-57 -9 -94.5 -16.5t-79 -22t-65.5 -33t-40 -48t-16 -67.5zM463 1364q15 92 92 156.5t168 64.5t144 -64.5t38 -156.5q-17 -92 -93 -156.5t-167 -64.5t-145 64.5t-37 156.5zM584 1362q-8 -44 15 -72t67 -28t75 27.5t39 72.5
t-14 72.5t-66 27.5t-76 -28t-40 -72z" />
    <glyph glyph-name="ae" unicode="&#xe6;" horiz-adv-x="1810" 
d="M391 -25q-91 0 -161.5 29t-110.5 75.5t-60 98t-20 103.5q0 57 19 104t48.5 78.5t74.5 57.5t88 40.5t98 27t95 18t89.5 12t71.5 10.5q111 19 152.5 49.5t41.5 99.5q0 152 -201 152q-209 0 -272 -189h-176q14 61 50 120t90 110t133.5 82.5t170.5 31.5q271 0 351 -204
q143 202 387 202q87 0 156 -23t113.5 -64.5t74 -95.5t41 -119t11 -132t-12.5 -137l-4 -29h-785q-20 -167 49.5 -260.5t204.5 -93.5q213 0 297 186h180q-148 -340 -479 -340q-152 0 -251 62t-132 186q-167 -248 -422 -248zM221 281q0 -67 43 -111.5t133 -44.5
q56 0 112.5 20.5t110 62t94.5 113.5t56 164l18 109q-4 -3 -10 -9q-32 -28 -53.5 -43t-83 -36t-156.5 -37q-133 -23 -198.5 -63.5t-65.5 -124.5zM975 627h592q13 144 -41.5 224.5t-182.5 80.5q-133 0 -230 -83t-138 -222z" />
    <glyph glyph-name="ccedilla" unicode="&#xe7;" horiz-adv-x="1169" 
d="M1063 326q-118 -321 -453 -349l-84 -86l2 -4q24 15 72 15q71 0 113.5 -39.5t31.5 -110.5q-9 -49 -38.5 -86t-71.5 -57t-86 -29.5t-90 -9.5q-104 0 -185 41l58 100q53 -39 119 -39q49 0 90.5 16t46.5 48q6 29 -18 46t-66 17q-35 0 -88 -16l-41 80l123 114
q-104 7 -189.5 51t-139 110t-82 144.5t-28.5 159.5q0 154 49 278t132.5 202t190 119.5t224.5 41.5q101 0 181 -29t130.5 -78.5t80 -109t40.5 -127.5h-180q-20 83 -84.5 136t-171.5 53q-79 0 -152 -31.5t-130.5 -90t-92 -149.5t-34.5 -202q0 -78 35 -151t106.5 -123
t163.5 -50q127 0 202 48t125 147h189z" />
    <glyph glyph-name="egrave" unicode="&#xe8;" horiz-adv-x="1175" 
d="M530 -25q-153 0 -260.5 65.5t-158 173.5t-50.5 247q0 181 76.5 323.5t209.5 220.5t298 78q111 0 199.5 -40.5t142.5 -108t83 -148t32 -168.5q3 -82 -6 -145h-854q0 -160 76 -252t231 -92q130 0 203 47t110 133h187q-71 -175 -198.5 -254.5t-320.5 -79.5zM266 629h662
q-8 132 -89.5 216.5t-211.5 84.5q-136 0 -230 -83.5t-131 -217.5zM418 1462h233l135 -268h-135z" />
    <glyph glyph-name="eacute" unicode="&#xe9;" horiz-adv-x="1175" 
d="M530 -25q-153 0 -260.5 65.5t-158 173.5t-50.5 247q0 181 76.5 323.5t209.5 220.5t298 78q111 0 199.5 -40.5t142.5 -108t83 -148t32 -168.5q3 -82 -6 -145h-854q0 -160 76 -252t231 -92q130 0 203 47t110 133h187q-71 -175 -198.5 -254.5t-320.5 -79.5zM266 629h662
q-8 132 -89.5 216.5t-211.5 84.5q-136 0 -230 -83.5t-131 -217.5zM582 1194l276 268h234l-375 -268h-135z" />
    <glyph glyph-name="ecircumflex" unicode="&#xea;" horiz-adv-x="1175" 
d="M530 -25q-153 0 -260.5 65.5t-158 173.5t-50.5 247q0 181 76.5 323.5t209.5 220.5t298 78q111 0 199.5 -40.5t142.5 -108t83 -148t32 -168.5q3 -82 -6 -145h-854q0 -160 76 -252t231 -92q130 0 203 47t110 133h187q-71 -175 -198.5 -254.5t-320.5 -79.5zM266 629h662
q-8 132 -89.5 216.5t-211.5 84.5q-136 0 -230 -83.5t-131 -217.5zM334 1194l278 268h193l184 -268h-192l-105 172l-166 -172h-192z" />
    <glyph glyph-name="edieresis" unicode="&#xeb;" horiz-adv-x="1175" 
d="M530 -25q-153 0 -260.5 65.5t-158 173.5t-50.5 247q0 181 76.5 323.5t209.5 220.5t298 78q111 0 199.5 -40.5t142.5 -108t83 -148t32 -168.5q3 -82 -6 -145h-854q0 -160 76 -252t231 -92q130 0 203 47t110 133h187q-71 -175 -198.5 -254.5t-320.5 -79.5zM266 629h662
q-8 132 -89.5 216.5t-211.5 84.5q-136 0 -230 -83.5t-131 -217.5zM403 1249l37 213h181l-37 -213h-181zM760 1249l37 213h180l-37 -213h-180z" />
    <glyph glyph-name="igrave" unicode="&#xec;" horiz-adv-x="456" 
d="M43 0l186 1059h185l-187 -1059h-184zM94 1462h234l135 -268h-135z" />
    <glyph glyph-name="iacute" unicode="&#xed;" horiz-adv-x="456" 
d="M43 0l186 1059h185l-187 -1059h-184zM258 1194l277 268h233l-375 -268h-135z" />
    <glyph glyph-name="icircumflex" unicode="&#xee;" horiz-adv-x="456" 
d="M43 0l186 1059h185l-187 -1059h-184zM10 1194l279 268h192l185 -268h-193l-104 172l-166 -172h-193z" />
    <glyph glyph-name="idieresis" unicode="&#xef;" horiz-adv-x="456" 
d="M43 0l186 1059h185l-187 -1059h-184zM80 1249l37 213h180l-37 -213h-180zM436 1249l37 213h180l-37 -213h-180z" />
    <glyph glyph-name="eth" unicode="&#xf0;" horiz-adv-x="1204" 
d="M457 1280l215 94q-85 75 -162 107l180 92q80 -65 146 -125l276 123l31 -96l-230 -103q164 -175 220 -366t8 -461q-22 -121 -74 -224t-131 -180.5t-188.5 -121.5t-237.5 -44q-105 0 -189 30t-139 83.5t-89.5 128t-40 163.5t10.5 189q19 104 68 197.5t123 166.5t177.5 116
t221.5 43q197 0 303 -131q-39 158 -206 339l-263 -116zM254 545q-34 -190 42.5 -299t221.5 -109q153 0 275.5 116.5t158.5 315.5q9 58 8 111.5t-21 99t-53.5 79t-89.5 52.5t-128 19q-165 0 -274 -104.5t-140 -280.5z" />
    <glyph glyph-name="ntilde" unicode="&#xf1;" horiz-adv-x="1138" 
d="M43 0l186 1059h172l-32 -185q71 108 155.5 158.5t200.5 50.5q100 0 170 -36.5t103 -99t43.5 -145.5t-9.5 -177l-110 -625h-185l103 582q14 82 14.5 143t-11.5 99.5t-37 62t-56.5 32.5t-75.5 9q-125 0 -223.5 -107t-133.5 -307l-90 -514h-184zM344 1237q23 100 88 162.5
t164 62.5q46 0 94.5 -22.5t93 -45t80.5 -22.5q34 0 54.5 22.5t37.5 67.5h134q-28 -100 -93 -163.5t-155 -63.5q-50 0 -102.5 22t-98.5 44t-80 22q-70 0 -92 -86h-125z" />
    <glyph glyph-name="ograve" unicode="&#xf2;" horiz-adv-x="1204" 
d="M657 1083q122 0 216.5 -39.5t152 -109t86.5 -158.5t29 -194q0 -172 -73 -310t-209 -217.5t-312 -79.5q-122 0 -216.5 39.5t-152 109t-86.5 159t-29 194.5q0 172 73 310t209 217t312 79zM246 481q0 -157 78 -253.5t233 -96.5q177 0 289 125t112 322q0 157 -78 253.5
t-233 96.5q-177 0 -289 -125t-112 -322zM442 1462h234l135 -268h-135z" />
    <glyph glyph-name="oacute" unicode="&#xf3;" horiz-adv-x="1204" 
d="M657 1083q122 0 216.5 -39.5t152 -109t86.5 -158.5t29 -194q0 -172 -73 -310t-209 -217.5t-312 -79.5q-122 0 -216.5 39.5t-152 109t-86.5 159t-29 194.5q0 172 73 310t209 217t312 79zM246 481q0 -157 78 -253.5t233 -96.5q177 0 289 125t112 322q0 157 -78 253.5
t-233 96.5q-177 0 -289 -125t-112 -322zM606 1194l277 268h233l-375 -268h-135z" />
    <glyph glyph-name="ocircumflex" unicode="&#xf4;" horiz-adv-x="1204" 
d="M657 1083q122 0 216.5 -39.5t152 -109t86.5 -158.5t29 -194q0 -172 -73 -310t-209 -217.5t-312 -79.5q-122 0 -216.5 39.5t-152 109t-86.5 159t-29 194.5q0 172 73 310t209 217t312 79zM246 481q0 -157 78 -253.5t233 -96.5q177 0 289 125t112 322q0 157 -78 253.5
t-233 96.5q-177 0 -289 -125t-112 -322zM358 1194l279 268h192l185 -268h-193l-104 172l-166 -172h-193z" />
    <glyph glyph-name="otilde" unicode="&#xf5;" horiz-adv-x="1204" 
d="M657 1083q122 0 216.5 -39.5t152 -109t86.5 -158.5t29 -194q0 -172 -73 -310t-209 -217.5t-312 -79.5q-122 0 -216.5 39.5t-152 109t-86.5 159t-29 194.5q0 172 73 310t209 217t312 79zM246 481q0 -157 78 -253.5t233 -96.5q177 0 289 125t112 322q0 157 -78 253.5
t-233 96.5q-177 0 -289 -125t-112 -322zM340 1237q23 100 88 162.5t164 62.5q46 0 94.5 -22.5t93 -45t80.5 -22.5q34 0 54.5 22.5t37.5 67.5h133q-28 -100 -92.5 -163.5t-154.5 -63.5q-50 0 -102.5 22t-98.5 44t-80 22q-70 0 -92 -86h-125z" />
    <glyph glyph-name="odieresis" unicode="&#xf6;" horiz-adv-x="1204" 
d="M657 1083q122 0 216.5 -39.5t152 -109t86.5 -158.5t29 -194q0 -172 -73 -310t-209 -217.5t-312 -79.5q-122 0 -216.5 39.5t-152 109t-86.5 159t-29 194.5q0 172 73 310t209 217t312 79zM246 481q0 -157 78 -253.5t233 -96.5q177 0 289 125t112 322q0 157 -78 253.5
t-233 96.5q-177 0 -289 -125t-112 -322zM428 1249l37 213h180l-37 -213h-180zM784 1249l37 213h180l-36 -213h-181z" />
    <glyph glyph-name="divide" unicode="&#xf7;" horiz-adv-x="1255" 
d="M500 154q0 54 36.5 91.5t90.5 37.5t90.5 -37.5t36.5 -91.5q0 -48 -37.5 -87.5t-87.5 -39.5q-54 0 -91.5 37t-37.5 90zM111 446v156h1032v-156h-1032zM500 895q0 53 36.5 90t90.5 37t90.5 -37t36.5 -90q0 -48 -37.5 -88.5t-87.5 -40.5q-54 0 -91.5 37.5t-37.5 91.5z" />
    <glyph glyph-name="oslash" unicode="&#xf8;" horiz-adv-x="1204" 
d="M657 1083q211 0 334 -114l135 125l70 -86l-133 -123q78 -127 78 -303q0 -172 -73 -310t-209 -217.5t-312 -79.5q-211 0 -338 117l-135 -125l-78 78l143 133q-76 125 -76 299q0 172 73 310t209 217t312 79zM246 481q0 -99 30 -176l586 545q-78 78 -215 78
q-177 0 -289 -125t-112 -322zM338 213q82 -82 219 -82q177 0 289 125t112 322q0 106 -32 180z" />
    <glyph glyph-name="ugrave" unicode="&#xf9;" horiz-adv-x="1138" 
d="M1096 1059l-187 -1059h-172l31 182q-47 -97 -142 -152t-212 -55q-100 0 -170 36.5t-103.5 99t-44 146t9.5 177.5l111 625h184l-102 -582q-14 -82 -14.5 -143t11.5 -99.5t37 -62t56.5 -32.5t75.5 -9q125 0 223 107t133 307l90 514h185zM444 1462h234l135 -268h-135z" />
    <glyph glyph-name="uacute" unicode="&#xfa;" horiz-adv-x="1138" 
d="M1096 1059l-187 -1059h-172l31 182q-47 -97 -142 -152t-212 -55q-100 0 -170 36.5t-103.5 99t-44 146t9.5 177.5l111 625h184l-102 -582q-14 -82 -14.5 -143t11.5 -99.5t37 -62t56.5 -32.5t75.5 -9q125 0 223 107t133 307l90 514h185zM608 1194l277 268h233l-375 -268
h-135z" />
    <glyph glyph-name="ucircumflex" unicode="&#xfb;" horiz-adv-x="1138" 
d="M1096 1059l-187 -1059h-172l31 182q-47 -97 -142 -152t-212 -55q-100 0 -170 36.5t-103.5 99t-44 146t9.5 177.5l111 625h184l-102 -582q-14 -82 -14.5 -143t11.5 -99.5t37 -62t56.5 -32.5t75.5 -9q125 0 223 107t133 307l90 514h185zM360 1194l279 268h192l185 -268
h-193l-104 172l-166 -172h-193z" />
    <glyph glyph-name="udieresis" unicode="&#xfc;" horiz-adv-x="1138" 
d="M1096 1059l-187 -1059h-172l31 182q-47 -97 -142 -152t-212 -55q-100 0 -170 36.5t-103.5 99t-44 146t9.5 177.5l111 625h184l-102 -582q-14 -82 -14.5 -143t11.5 -99.5t37 -62t56.5 -32.5t75.5 -9q125 0 223 107t133 307l90 514h185zM430 1249l37 213h180l-37 -213h-180
zM786 1249l37 213h181l-37 -213h-181z" />
    <glyph glyph-name="yacute" unicode="&#xfd;" horiz-adv-x="1064" 
d="M111 1059h190l127 -613l55 -264h2l138 267l317 610h203l-703 -1264q-56 -101 -128 -153t-175 -52h-143l26 156h117q30 0 54 8t37.5 15.5t31.5 31.5t23.5 33.5t25.5 44.5l53 92zM530 1194l277 268h233l-374 -268h-136z" />
    <glyph glyph-name="thorn" unicode="&#xfe;" horiz-adv-x="1243" 
d="M221 0l-74 -410h-178l74 410l258 1462h184l-61 -356l-37 -203q117 180 358 180q114 0 200.5 -40.5t137 -109t75 -151t24.5 -174.5q0 -283 -158 -458t-399 -175q-150 0 -241 56.5t-126 148.5zM303 442q0 -143 74 -226t217 -83q95 0 172.5 41t126.5 108.5t75.5 151.5
t26.5 174q0 151 -78 235.5t-225 84.5q-92 0 -168 -43.5t-123 -114t-72.5 -155.5t-25.5 -173z" />
    <glyph glyph-name="ydieresis" unicode="&#xff;" horiz-adv-x="1064" 
d="M111 1059h190l127 -613l55 -264h2l138 267l317 610h203l-703 -1264q-56 -101 -128 -153t-175 -52h-143l26 156h117q30 0 54 8t37.5 15.5t31.5 31.5t23.5 33.5t25.5 44.5l53 92zM352 1249l37 213h180l-37 -213h-180zM709 1249l36 213h181l-37 -213h-180z" />
    <glyph glyph-name="Amacron" unicode="&#x100;" horiz-adv-x="1406" 
d="M147 0h-204l788 1462h244l301 -1462h-197l-80 424h-626zM453 578h518l-135 710h-7zM588 1630l22 123h617l-23 -123h-616z" />
    <glyph glyph-name="amacron" unicode="&#x101;" horiz-adv-x="1114" 
d="M37 270q0 67 24.5 120.5t68.5 88t96.5 60t118.5 40.5t123 24.5t122 18.5q6 0 9 0.5t8 1t9 1.5q124 17 178 55.5t54 99.5q0 73 -67 111.5t-167 38.5q-211 0 -264 -191h-184q11 62 46.5 122t91 110.5t136.5 82t174 31.5q81 0 146.5 -15.5t109 -40.5t75 -60t47.5 -72.5
t23.5 -78.5t6.5 -76.5t-8 -69.5l-88 -463q-23 -129 -17 -209h-192q0 79 10 147q-31 -65 -126.5 -118.5t-229.5 -53.5q-75 0 -134.5 20t-96 51t-60.5 71.5t-33.5 78t-9.5 74.5zM217 276q0 -70 50.5 -111.5t148.5 -41.5q84 0 148.5 25t108.5 74t73 110.5t51 146.5
q17 70 24 115q-46 -53 -106.5 -81t-202.5 -50q-57 -9 -94.5 -16.5t-79 -22t-65.5 -33t-40 -48t-16 -67.5zM322 1280l20 113h696l-20 -113h-696z" />
    <glyph glyph-name="Abreve" unicode="&#x102;" horiz-adv-x="1406" 
d="M147 0h-204l788 1462h244l301 -1462h-197l-80 424h-626zM453 578h518l-135 710h-7zM621 1810h145q1 -52 41 -85t98 -33q59 0 109 33t67 85h150q-29 -113 -121 -178t-197 -65q-129 0 -209 66.5t-83 176.5z" />
    <glyph glyph-name="abreve" unicode="&#x103;" horiz-adv-x="1114" 
d="M37 270q0 67 24.5 120.5t68.5 88t96.5 60t118.5 40.5t123 24.5t122 18.5q6 0 9 0.5t8 1t9 1.5q124 17 178 55.5t54 99.5q0 73 -67 111.5t-167 38.5q-211 0 -264 -191h-184q11 62 46.5 122t91 110.5t136.5 82t174 31.5q81 0 146.5 -15.5t109 -40.5t75 -60t47.5 -72.5
t23.5 -78.5t6.5 -76.5t-8 -69.5l-88 -463q-23 -129 -17 -209h-192q0 79 10 147q-31 -65 -126.5 -118.5t-229.5 -53.5q-75 0 -134.5 20t-96 51t-60.5 71.5t-33.5 78t-9.5 74.5zM217 276q0 -70 50.5 -111.5t148.5 -41.5q84 0 148.5 25t108.5 74t73 110.5t51 146.5
q17 70 24 115q-46 -53 -106.5 -81t-202.5 -50q-57 -9 -94.5 -16.5t-79 -22t-65.5 -33t-40 -48t-16 -67.5zM403 1473h146q-8 -67 26 -107.5t107 -40.5q142 0 182 148h150q-29 -123 -128.5 -201t-226.5 -78t-198.5 78t-57.5 201z" />
    <glyph glyph-name="Aogonek" unicode="&#x104;" horiz-adv-x="1406" 
d="M147 0h-204l788 1462h244l301 -1462h-2q-48 -32 -79 -54.5t-68 -53t-57 -58.5t-23 -53q-6 -52 18.5 -72t91.5 -20l-20 -119q-135 0 -205 47t-53 143q3 18 10.5 36.5t14 32t22.5 32.5t23.5 28t30.5 29.5t29.5 26t34.5 28.5t33 27h2l-80 424h-626zM453 578h518l-135 710h-7
z" />
    <glyph glyph-name="aogonek" unicode="&#x105;" horiz-adv-x="1114" 
d="M37 270q0 67 24.5 120.5t68.5 88t96.5 60t118.5 40.5t123 24.5t122 18.5q6 0 9 0.5t8 1t9 1.5q124 17 178 55.5t54 99.5q0 73 -67 111.5t-167 38.5q-211 0 -264 -191h-184q11 62 46.5 122t91 110.5t136.5 82t174 31.5q81 0 146.5 -15.5t109 -40.5t75 -60t47.5 -72.5
t23.5 -78.5t6.5 -76.5t-8 -69.5l-88 -463q-23 -129 -17 -209h-16q-185 -123 -211 -219q-13 -49 18.5 -72.5t98.5 -23.5l-21 -115q-131 0 -196 46.5t-50 143.5q11 68 53.5 121t123.5 119h8q0 79 10 147q-31 -65 -126.5 -118.5t-229.5 -53.5q-75 0 -134.5 20t-96 51
t-60.5 71.5t-33.5 78t-9.5 74.5zM217 276q0 -70 50.5 -111.5t148.5 -41.5q84 0 148.5 25t108.5 74t73 110.5t51 146.5q17 70 24 115q-46 -53 -106.5 -81t-202.5 -50q-57 -9 -94.5 -16.5t-79 -22t-65.5 -33t-40 -48t-16 -67.5z" />
    <glyph glyph-name="Cacute" unicode="&#x106;" horiz-adv-x="1589" 
d="M788 -31q-138 0 -252 39t-190 103.5t-128.5 150.5t-75.5 177t-23 186q0 197 65 361t177.5 274t265.5 170.5t329 60.5q116 0 213 -26t164.5 -69.5t119.5 -104.5t82.5 -125t49.5 -138h-184q-101 299 -453 299q-139 0 -255.5 -48.5t-201 -138.5t-131.5 -225.5t-47 -302.5
q0 -60 15.5 -123t52 -127.5t90 -114.5t138.5 -82t188 -32q178 0 317 81.5t205 225.5h188q-100 -221 -286 -346t-433 -125zM885 1589l295 213h274l-364 -213h-205z" />
    <glyph glyph-name="cacute" unicode="&#x107;" horiz-adv-x="1169" 
d="M1063 326q-63 -174 -190 -262.5t-332 -88.5q-114 0 -208 41.5t-152.5 109.5t-90 149.5t-31.5 166.5q0 154 49 278t132.5 202t190 119.5t224.5 41.5q101 0 181 -29t130.5 -78.5t80 -109t40.5 -127.5h-180q-20 83 -84.5 136t-171.5 53q-79 0 -152 -31.5t-130.5 -90
t-92 -149.5t-34.5 -202q0 -78 35 -151t106.5 -123t163.5 -50q127 0 202 48t125 147h189zM541 1194l276 268h234l-375 -268h-135z" />
    <glyph glyph-name="Ccircumflex" unicode="&#x108;" horiz-adv-x="1589" 
d="M788 -31q-138 0 -252 39t-190 103.5t-128.5 150.5t-75.5 177t-23 186q0 197 65 361t177.5 274t265.5 170.5t329 60.5q116 0 213 -26t164.5 -69.5t119.5 -104.5t82.5 -125t49.5 -138h-184q-101 299 -453 299q-139 0 -255.5 -48.5t-201 -138.5t-131.5 -225.5t-47 -302.5
q0 -60 15.5 -123t52 -127.5t90 -114.5t138.5 -82t188 -32q178 0 317 81.5t205 225.5h188q-100 -221 -286 -346t-433 -125zM678 1577l272 231h205l191 -231h-205l-107 131l-151 -131h-205z" />
    <glyph glyph-name="ccircumflex" unicode="&#x109;" horiz-adv-x="1169" 
d="M1063 326q-63 -174 -190 -262.5t-332 -88.5q-114 0 -208 41.5t-152.5 109.5t-90 149.5t-31.5 166.5q0 154 49 278t132.5 202t190 119.5t224.5 41.5q101 0 181 -29t130.5 -78.5t80 -109t40.5 -127.5h-180q-20 83 -84.5 136t-171.5 53q-79 0 -152 -31.5t-130.5 -90
t-92 -149.5t-34.5 -202q0 -78 35 -151t106.5 -123t163.5 -50q127 0 202 48t125 147h189zM293 1194l278 268h193l184 -268h-192l-105 172l-166 -172h-192z" />
    <glyph glyph-name="Cdotaccent" unicode="&#x10a;" horiz-adv-x="1589" 
d="M788 -31q-138 0 -252 39t-190 103.5t-128.5 150.5t-75.5 177t-23 186q0 197 65 361t177.5 274t265.5 170.5t329 60.5q116 0 213 -26t164.5 -69.5t119.5 -104.5t82.5 -125t49.5 -138h-184q-101 299 -453 299q-139 0 -255.5 -48.5t-201 -138.5t-131.5 -225.5t-47 -302.5
q0 -60 15.5 -123t52 -127.5t90 -114.5t138.5 -82t188 -32q178 0 317 81.5t205 225.5h188q-100 -221 -286 -346t-433 -125zM924 1597l34 205h185l-35 -205h-184z" />
    <glyph glyph-name="cdotaccent" unicode="&#x10b;" horiz-adv-x="1169" 
d="M1063 326q-63 -174 -190 -262.5t-332 -88.5q-114 0 -208 41.5t-152.5 109.5t-90 149.5t-31.5 166.5q0 154 49 278t132.5 202t190 119.5t224.5 41.5q101 0 181 -29t130.5 -78.5t80 -109t40.5 -127.5h-180q-20 83 -84.5 136t-171.5 53q-79 0 -152 -31.5t-130.5 -90
t-92 -149.5t-34.5 -202q0 -78 35 -151t106.5 -123t163.5 -50q127 0 202 48t125 147h189zM539 1249l36 213h185l-37 -213h-184z" />
    <glyph glyph-name="Ccaron" unicode="&#x10c;" horiz-adv-x="1589" 
d="M788 -31q-138 0 -252 39t-190 103.5t-128.5 150.5t-75.5 177t-23 186q0 197 65 361t177.5 274t265.5 170.5t329 60.5q116 0 213 -26t164.5 -69.5t119.5 -104.5t82.5 -125t49.5 -138h-184q-101 299 -453 299q-139 0 -255.5 -48.5t-201 -138.5t-131.5 -225.5t-47 -302.5
q0 -60 15.5 -123t52 -127.5t90 -114.5t138.5 -82t188 -32q178 0 317 81.5t205 225.5h188q-100 -221 -286 -346t-433 -125zM713 1808h205l104 -131l154 131h204l-272 -231h-205z" />
    <glyph glyph-name="ccaron" unicode="&#x10d;" horiz-adv-x="1169" 
d="M1063 326q-63 -174 -190 -262.5t-332 -88.5q-114 0 -208 41.5t-152.5 109.5t-90 149.5t-31.5 166.5q0 154 49 278t132.5 202t190 119.5t224.5 41.5q101 0 181 -29t130.5 -78.5t80 -109t40.5 -127.5h-180q-20 83 -84.5 136t-171.5 53q-79 0 -152 -31.5t-130.5 -90
t-92 -149.5t-34.5 -202q0 -78 35 -151t106.5 -123t163.5 -50q127 0 202 48t125 147h189zM340 1462h192l105 -172l166 172h192l-278 -268h-193z" />
    <glyph glyph-name="Dcaron" unicode="&#x10e;" horiz-adv-x="1447" 
d="M672 1462q342 0 538 -174q97 -88 143 -207.5t46 -251.5q0 -214 -77 -377t-214 -268q-236 -184 -588 -184h-459l258 1462h353zM285 164h258q92 0 181 20.5t177 70t154.5 123.5t107.5 192t41 264q0 211 -125 337.5t-374 126.5h-220zM567 1808h205l105 -131l153 131h205
l-272 -231h-205z" />
    <glyph glyph-name="dcaron" unicode="&#x10f;" horiz-adv-x="1239" 
d="M59 451q0 276 160 454t406 178q148 0 237.5 -56.5t118.5 -141.5l102 577h185l-258 -1462h-181l21 160q-54 -94 -136.5 -139.5t-224.5 -45.5q-189 0 -309.5 126.5t-120.5 349.5zM242 442q0 -144 73.5 -226.5t216.5 -82.5q95 0 173 41t127 108.5t75.5 151.5t26.5 174
q0 151 -78 235.5t-225 84.5q-92 0 -168 -43.5t-123 -114t-72.5 -155.5t-25.5 -173zM1307 1147l67 315h199l-143 -315h-123z" />
    <glyph glyph-name="Dcroat" unicode="&#x110;" horiz-adv-x="1447" 
d="M672 1462q342 0 538 -174q97 -88 143 -207.5t46 -251.5q0 -214 -77 -377t-214 -268q-236 -184 -588 -184h-459l115 647h-143l20 139h148l118 676h353zM285 164h258q92 0 181 20.5t177 70t154.5 123.5t107.5 192t41 264q0 211 -125 337.5t-374 126.5h-220l-90 -512h305
l-20 -139h-309z" />
    <glyph glyph-name="dcroat" unicode="&#x111;" horiz-adv-x="1239" 
d="M59 451q0 276 160 454t406 178q148 0 237.5 -56.5t118.5 -141.5l55 309h-215l21 115h215l26 153h185l-27 -153h299l-20 -115h-299l-211 -1194h-181l21 160q-54 -94 -136.5 -139.5t-224.5 -45.5q-189 0 -309.5 126.5t-120.5 349.5zM242 442q0 -144 73.5 -226.5
t216.5 -82.5q95 0 173 41t127 108.5t75.5 151.5t26.5 174q0 151 -78 235.5t-225 84.5q-92 0 -168 -43.5t-123 -114t-72.5 -155.5t-25.5 -173z" />
    <glyph glyph-name="Emacron" unicode="&#x112;" horiz-adv-x="1196" 
d="M1231 1462l-29 -164h-717l-84 -473h674l-28 -163h-674l-88 -498h723l-29 -164h-918l258 1462h912zM473 1630l23 123h616l-22 -123h-617z" />
    <glyph glyph-name="emacron" unicode="&#x113;" horiz-adv-x="1175" 
d="M530 -25q-153 0 -260.5 65.5t-158 173.5t-50.5 247q0 181 76.5 323.5t209.5 220.5t298 78q111 0 199.5 -40.5t142.5 -108t83 -148t32 -168.5q3 -82 -6 -145h-854q0 -160 76 -252t231 -92q130 0 203 47t110 133h187q-71 -175 -198.5 -254.5t-320.5 -79.5zM266 629h662
q-8 132 -89.5 216.5t-211.5 84.5q-136 0 -230 -83.5t-131 -217.5zM326 1270l20 112h696l-20 -112h-696z" />
    <glyph glyph-name="Ebreve" unicode="&#x114;" horiz-adv-x="1196" 
d="M1231 1462l-29 -164h-717l-84 -473h674l-28 -163h-674l-88 -498h723l-29 -164h-918l258 1462h912zM506 1810h145q1 -52 41.5 -85t98.5 -33q59 0 109 33t67 85h149q-29 -113 -120.5 -178t-196.5 -65q-129 0 -209.5 66.5t-83.5 176.5z" />
    <glyph glyph-name="ebreve" unicode="&#x115;" horiz-adv-x="1175" 
d="M530 -25q-153 0 -260.5 65.5t-158 173.5t-50.5 247q0 181 76.5 323.5t209.5 220.5t298 78q111 0 199.5 -40.5t142.5 -108t83 -148t32 -168.5q3 -82 -6 -145h-854q0 -160 76 -252t231 -92q130 0 203 47t110 133h187q-71 -175 -198.5 -254.5t-320.5 -79.5zM266 629h662
q-8 132 -89.5 216.5t-211.5 84.5q-136 0 -230 -83.5t-131 -217.5zM408 1462h145q-8 -67 26 -107t107 -40t118.5 39.5t63.5 107.5h150q-29 -123 -128 -200.5t-226 -77.5t-198.5 77.5t-57.5 200.5z" />
    <glyph glyph-name="Edotaccent" unicode="&#x116;" horiz-adv-x="1196" 
d="M1231 1462l-29 -164h-717l-84 -473h674l-28 -163h-674l-88 -498h723l-29 -164h-918l258 1462h912zM686 1597l35 205h184l-35 -205h-184z" />
    <glyph glyph-name="edotaccent" unicode="&#x117;" horiz-adv-x="1175" 
d="M530 -25q-153 0 -260.5 65.5t-158 173.5t-50.5 247q0 181 76.5 323.5t209.5 220.5t298 78q111 0 199.5 -40.5t142.5 -108t83 -148t32 -168.5q3 -82 -6 -145h-854q0 -160 76 -252t231 -92q130 0 203 47t110 133h187q-71 -175 -198.5 -254.5t-320.5 -79.5zM266 629h662
q-8 132 -89.5 216.5t-211.5 84.5q-136 0 -230 -83.5t-131 -217.5zM580 1249l36 213h185l-37 -213h-184z" />
    <glyph glyph-name="Eogonek" unicode="&#x118;" horiz-adv-x="1196" 
d="M1231 1462l-29 -164h-717l-84 -473h674l-28 -163h-674l-88 -498h723l-29 -164h-2q-48 -32 -79 -54.5t-68 -53t-57 -58.5t-23 -53q-6 -52 18.5 -72t91.5 -20l-20 -119q-135 0 -205 47t-53 143q3 18 10.5 36.5t14 32t22.5 32.5t23.5 28t30.5 29.5t29.5 26t34.5 28.5t33 27
h-719l258 1462h912z" />
    <glyph glyph-name="eogonek" unicode="&#x119;" horiz-adv-x="1175" 
d="M928 629q-8 132 -89.5 216.5t-211.5 84.5q-136 0 -230 -83.5t-131 -217.5h662zM61 461q0 181 76.5 323.5t209.5 220.5t298 78q111 0 199.5 -40.5t142.5 -108t83 -148t32 -168.5q3 -82 -6 -145h-854q0 -160 76 -252t231 -92q130 0 203 47t110 133h187
q-62 -152 -166 -230.5t-256 -96.5q-160 -114 -183 -201q-13 -49 18.5 -72.5t98.5 -23.5l-20 -115q-131 0 -196 46.5t-50 143.5q10 63 47.5 113t106.5 109q-189 24 -288.5 154.5t-99.5 324.5z" />
    <glyph glyph-name="Ecaron" unicode="&#x11a;" horiz-adv-x="1196" 
d="M1231 1462l-29 -164h-717l-84 -473h674l-28 -163h-674l-88 -498h723l-29 -164h-918l258 1462h912zM475 1808h205l104 -131l154 131h205l-273 -231h-204z" />
    <glyph glyph-name="ecaron" unicode="&#x11b;" horiz-adv-x="1175" 
d="M530 -25q-153 0 -260.5 65.5t-158 173.5t-50.5 247q0 181 76.5 323.5t209.5 220.5t298 78q111 0 199.5 -40.5t142.5 -108t83 -148t32 -168.5q3 -82 -6 -145h-854q0 -160 76 -252t231 -92q130 0 203 47t110 133h187q-71 -175 -198.5 -254.5t-320.5 -79.5zM266 629h662
q-8 132 -89.5 216.5t-211.5 84.5q-136 0 -230 -83.5t-131 -217.5zM381 1462h192l105 -172l166 172h192l-278 -268h-193z" />
    <glyph glyph-name="Gcircumflex" unicode="&#x11c;" horiz-adv-x="1615" 
d="M1370 1028q-20 69 -51.5 121t-80.5 93.5t-122 63t-168 21.5q-139 0 -255.5 -48.5t-201 -138.5t-131.5 -225.5t-47 -302.5q0 -60 15.5 -123t52 -127.5t90 -114.5t138.5 -82t188 -32q210 0 343 124.5t148 332.5l-432 -4l29 159h655l-149 -745h-142l33 262
q-70 -146 -195.5 -219.5t-330.5 -73.5q-125 0 -231 39t-179.5 104.5t-125.5 151t-76.5 177t-24.5 184.5q0 197 65 361t177.5 274t265.5 170.5t329 60.5q496 0 598 -463h-184zM653 1577l273 231h204l191 -231h-205l-106 131l-152 -131h-205z" />
    <glyph glyph-name="gcircumflex" unicode="&#x11d;" horiz-adv-x="1234" 
d="M1020 76q-41 -235 -184.5 -351t-352.5 -116q-200 0 -324 90.5t-139 251.5h173q25 -201 301 -201q137 0 229.5 82.5t124.5 255.5q1 9 6 37t6 37q-60 -93 -151.5 -140t-235.5 -47q-86 0 -157 28t-118 73t-79.5 105t-47 122.5t-14.5 126.5q0 150 46.5 275.5t124.5 207
t178.5 126t209.5 44.5q148 0 242.5 -56.5t120.5 -137.5l31 170h184zM250 442q0 -143 73 -226t212 -83q93 0 168.5 41t123.5 108.5t73.5 151.5t25.5 174q0 151 -76 235.5t-219 84.5q-73 0 -136 -28.5t-107.5 -76.5t-76 -111t-46.5 -131.5t-15 -138.5zM336 1194l278 268h193
l184 -268h-192l-105 172l-166 -172h-192z" />
    <glyph glyph-name="Gbreve" unicode="&#x11e;" horiz-adv-x="1615" 
d="M1370 1028q-20 69 -51.5 121t-80.5 93.5t-122 63t-168 21.5q-139 0 -255.5 -48.5t-201 -138.5t-131.5 -225.5t-47 -302.5q0 -60 15.5 -123t52 -127.5t90 -114.5t138.5 -82t188 -32q210 0 343 124.5t148 332.5l-432 -4l29 159h655l-149 -745h-142l33 262
q-70 -146 -195.5 -219.5t-330.5 -73.5q-125 0 -231 39t-179.5 104.5t-125.5 151t-76.5 177t-24.5 184.5q0 197 65 361t177.5 274t265.5 170.5t329 60.5q496 0 598 -463h-184zM719 1810h145q1 -52 41.5 -85t98.5 -33q59 0 109 33t67 85h149q-29 -113 -120.5 -178t-196.5 -65
q-129 0 -209.5 66.5t-83.5 176.5z" />
    <glyph glyph-name="gbreve" unicode="&#x11f;" horiz-adv-x="1234" 
d="M1020 76q-41 -235 -184.5 -351t-352.5 -116q-200 0 -324 90.5t-139 251.5h173q25 -201 301 -201q137 0 229.5 82.5t124.5 255.5q1 9 6 37t6 37q-60 -93 -151.5 -140t-235.5 -47q-86 0 -157 28t-118 73t-79.5 105t-47 122.5t-14.5 126.5q0 150 46.5 275.5t124.5 207
t178.5 126t209.5 44.5q148 0 242.5 -56.5t120.5 -137.5l31 170h184zM250 442q0 -143 73 -226t212 -83q93 0 168.5 41t123.5 108.5t73.5 151.5t25.5 174q0 151 -76 235.5t-219 84.5q-73 0 -136 -28.5t-107.5 -76.5t-76 -111t-46.5 -131.5t-15 -138.5zM410 1462h145
q-8 -67 26 -107t107 -40t118.5 39.5t63.5 107.5h150q-29 -123 -128 -200.5t-226 -77.5t-198.5 77.5t-57.5 200.5z" />
    <glyph glyph-name="Gdotaccent" unicode="&#x120;" horiz-adv-x="1615" 
d="M1370 1028q-20 69 -51.5 121t-80.5 93.5t-122 63t-168 21.5q-139 0 -255.5 -48.5t-201 -138.5t-131.5 -225.5t-47 -302.5q0 -60 15.5 -123t52 -127.5t90 -114.5t138.5 -82t188 -32q210 0 343 124.5t148 332.5l-432 -4l29 159h655l-149 -745h-142l33 262
q-70 -146 -195.5 -219.5t-330.5 -73.5q-125 0 -231 39t-179.5 104.5t-125.5 151t-76.5 177t-24.5 184.5q0 197 65 361t177.5 274t265.5 170.5t329 60.5q496 0 598 -463h-184zM899 1597l35 205h184l-35 -205h-184z" />
    <glyph glyph-name="gdotaccent" unicode="&#x121;" horiz-adv-x="1234" 
d="M1020 76q-41 -235 -184.5 -351t-352.5 -116q-200 0 -324 90.5t-139 251.5h173q25 -201 301 -201q137 0 229.5 82.5t124.5 255.5q1 9 6 37t6 37q-60 -93 -151.5 -140t-235.5 -47q-86 0 -157 28t-118 73t-79.5 105t-47 122.5t-14.5 126.5q0 150 46.5 275.5t124.5 207
t178.5 126t209.5 44.5q148 0 242.5 -56.5t120.5 -137.5l31 170h184zM250 442q0 -143 73 -226t212 -83q93 0 168.5 41t123.5 108.5t73.5 151.5t25.5 174q0 151 -76 235.5t-219 84.5q-73 0 -136 -28.5t-107.5 -76.5t-76 -111t-46.5 -131.5t-15 -138.5zM582 1249l36 213h185
l-37 -213h-184z" />
    <glyph glyph-name="uni0122" unicode="&#x122;" horiz-adv-x="1615" 
d="M1370 1028q-20 69 -51.5 121t-80.5 93.5t-122 63t-168 21.5q-139 0 -255.5 -48.5t-201 -138.5t-131.5 -225.5t-47 -302.5q0 -60 15.5 -123t52 -127.5t90 -114.5t138.5 -82t188 -32q210 0 343 124.5t148 332.5l-432 -4l29 159h655l-149 -745h-142l33 262
q-70 -146 -195.5 -219.5t-330.5 -73.5q-125 0 -231 39t-179.5 104.5t-125.5 151t-76.5 177t-24.5 184.5q0 197 65 361t177.5 274t265.5 170.5t329 60.5q496 0 598 -463h-184zM616 -432l13 72q31 8 50.5 17t28 20.5t11 18t4.5 19.5h-107l33 181h228l-29 -158
q-15 -85 -76.5 -127.5t-155.5 -42.5z" />
    <glyph glyph-name="uni0123" unicode="&#x123;" horiz-adv-x="1234" 
d="M1020 76q-41 -235 -184.5 -351t-352.5 -116q-200 0 -324 90.5t-139 251.5h173q25 -201 301 -201q137 0 229.5 82.5t124.5 255.5q1 9 6 37t6 37q-60 -93 -151.5 -140t-235.5 -47q-86 0 -157 28t-118 73t-79.5 105t-47 122.5t-14.5 126.5q0 150 46.5 275.5t124.5 207
t178.5 126t209.5 44.5q148 0 242.5 -56.5t120.5 -137.5l31 170h184zM250 442q0 -143 73 -226t212 -83q93 0 168.5 41t123.5 108.5t73.5 151.5t25.5 174q0 151 -76 235.5t-219 84.5q-73 0 -136 -28.5t-107.5 -76.5t-76 -111t-46.5 -131.5t-15 -138.5zM557 1241l27 158
q15 85 77 127.5t156 42.5l-12 -72q-31 -8 -51 -17.5t-29 -20.5t-11.5 -18t-4.5 -20h106l-31 -180h-227z" />
    <glyph glyph-name="Hcircumflex" unicode="&#x124;" horiz-adv-x="1404" 
d="M1219 1462h194l-258 -1462h-194l114 651h-704l-115 -651h-195l258 1462h195l-115 -647h705zM553 1577l272 231h205l191 -231h-205l-107 131l-151 -131h-205z" />
    <glyph glyph-name="hcircumflex" unicode="&#x125;" horiz-adv-x="1136" 
d="M41 0l258 1462h184l-57 -325q-17 -101 -57 -263q128 209 354 209q100 0 170 -36.5t103 -99t43.5 -145.5t-9.5 -177l-110 -625h-185l103 582q14 82 14.5 143t-11.5 99.5t-37 62t-56.5 32.5t-75.5 9q-125 0 -223.5 -107t-133.5 -307l-90 -514h-184zM74 1577l272 231h205
l190 -231h-204l-107 131l-151 -131h-205z" />
    <glyph glyph-name="Hbar" unicode="&#x126;" horiz-adv-x="1404" 
d="M1219 1462h194l-47 -262h102l-18 -110h-102l-193 -1090h-194l114 651h-704l-115 -651h-195l193 1090h-102l18 110h102l47 262h195l-47 -262h704zM399 815h705l49 275h-704z" />
    <glyph glyph-name="hbar" unicode="&#x127;" horiz-adv-x="1136" 
d="M41 0l211 1194h-143l20 115h143l27 153h184l-26 -153h370l-20 -115h-371l-10 -57q-17 -101 -57 -263q128 209 354 209q100 0 170 -36.5t103 -99t43.5 -145.5t-9.5 -177l-110 -625h-185l103 582q14 82 14.5 143t-11.5 99.5t-37 62t-56.5 32.5t-75.5 9q-125 0 -223.5 -107
t-133.5 -307l-90 -514h-184z" />
    <glyph glyph-name="Itilde" unicode="&#x128;" horiz-adv-x="505" 
d="M319 1462h195l-258 -1462h-195zM84 1575q23 100 88 162.5t164 62.5q46 0 94.5 -22t93 -44t80.5 -22q34 0 54.5 22.5t37.5 67.5h133q-28 -101 -91.5 -164t-153.5 -63q-50 0 -103 21.5t-99.5 43t-80.5 21.5q-70 0 -92 -86h-125z" />
    <glyph glyph-name="itilde" unicode="&#x129;" horiz-adv-x="456" 
d="M43 0l186 1059h185l-187 -1059h-184zM-8 1237q23 100 88 162.5t164 62.5q46 0 94.5 -22.5t93 -45t80.5 -22.5q34 0 54.5 22.5t37.5 67.5h133q-28 -100 -93 -163.5t-155 -63.5q-50 0 -102 22t-98 44t-80 22q-70 0 -92 -86h-125z" />
    <glyph glyph-name="Imacron" unicode="&#x12a;" horiz-adv-x="505" 
d="M319 1462h195l-258 -1462h-195zM137 1630l23 123h616l-22 -123h-617z" />
    <glyph glyph-name="imacron" unicode="&#x12b;" horiz-adv-x="456" 
d="M43 0l186 1059h185l-187 -1059h-184zM2 1270l21 112h696l-21 -112h-696z" />
    <glyph glyph-name="Ibreve" unicode="&#x12c;" horiz-adv-x="505" 
d="M319 1462h195l-258 -1462h-195zM170 1810h145q1 -52 41.5 -85t98.5 -33q59 0 109 33t67 85h149q-29 -113 -120.5 -178t-196.5 -65q-129 0 -209.5 66.5t-83.5 176.5z" />
    <glyph glyph-name="ibreve" unicode="&#x12d;" horiz-adv-x="456" 
d="M43 0l186 1059h185l-187 -1059h-184zM84 1462h145q-8 -67 26 -107t107 -40t119 39.5t64 107.5h149q-29 -123 -128 -200.5t-226 -77.5t-198.5 77.5t-57.5 200.5z" />
    <glyph glyph-name="Iogonek" unicode="&#x12e;" horiz-adv-x="505" 
d="M256 0q-123 -89 -159 -123q-55 -54 -60 -94q-6 -52 17 -72t87 -20l-20 -119q-128 0 -194.5 47t-49.5 143q6 36 21 67t46.5 64.5t50.5 50t66 56.5l258 1462h195z" />
    <glyph glyph-name="iogonek" unicode="&#x12f;" horiz-adv-x="456" 
d="M43 0l186 1059h185l-187 -1059h-6q-185 -123 -211 -219q-13 -49 18.5 -72.5t98.5 -23.5l-21 -115q-131 0 -195.5 46.5t-49.5 143.5q11 68 53.5 121t122.5 119h6zM256 1249l37 213h184l-37 -213h-184z" />
    <glyph glyph-name="Idotaccent" unicode="&#x130;" horiz-adv-x="505" 
d="M319 1462h195l-258 -1462h-195zM350 1597l35 205h184l-34 -205h-185z" />
    <glyph glyph-name="dotlessi" unicode="&#x131;" horiz-adv-x="456" 
d="M43 0l186 1059h185l-187 -1059h-184z" />
    <glyph glyph-name="IJ" unicode="&#x132;" horiz-adv-x="1122" 
d="M416 1464h194l-258 -925h-194zM137 362l10 78h185l-10 -82q-14 -112 43 -168.5t161 -56.5q46 0 82 14t60.5 37.5t43 61t30 77t20.5 91.5l186 1048h195l-185 -1044q-19 -111 -49.5 -189t-82 -138t-129 -89t-183.5 -29q-115 0 -205.5 45t-139 135t-32.5 209z" />
    <glyph glyph-name="ij" unicode="&#x133;" horiz-adv-x="931" 
d="M461 1257h-197l37 205h197zM49 0l187 1059h184l-187 -1059h-184zM248 -403l28 155h78q69 0 100 21.5t42 91.5l211 1194h180l-211 -1198q-22 -120 -96 -192t-207 -72h-125zM727 1257l37 205h197l-37 -205h-197z" />
    <glyph glyph-name="Jcircumflex" unicode="&#x134;" horiz-adv-x="1024" 
d="M223 358q-14 -112 43.5 -168.5t161.5 -56.5q46 0 82 14t60.5 37.5t43 61t30 77t20.5 91.5l186 1048h194l-184 -1044q-19 -111 -49.5 -189t-82 -138t-129 -89t-183.5 -29q-115 0 -205.5 45t-139 135t-32.5 209l10 78h184zM633 1577l272 231h205l190 -231h-204l-107 131
l-151 -131h-205z" />
    <glyph glyph-name="jcircumflex" unicode="&#x135;" horiz-adv-x="503" 
d="M250 -139q-22 -120 -96 -192t-207 -72h-125l28 155h78q69 0 100 21.5t42 91.5l211 1194h180zM61 1194l279 268h192l185 -268h-193l-104 172l-166 -172h-193z" />
    <glyph glyph-name="uni0136" unicode="&#x136;" horiz-adv-x="1308" 
d="M256 0h-195l258 1462h195l-129 -733l803 733h252l-686 -624l428 -838h-221l-347 711l-274 -240zM451 -432l12 72q31 8 50.5 17t28 20.5t11 18t4.5 19.5h-106l32 181h228l-29 -158q-15 -85 -76 -127.5t-155 -42.5z" />
    <glyph glyph-name="uni0137" unicode="&#x137;" horiz-adv-x="1040" 
d="M225 0h-184l258 1462h184l-151 -862l536 459h234l-531 -453l355 -606h-215l-281 492l-137 -111zM367 -432l12 72q31 8 50.5 17t28 20.5t11 18t4.5 19.5h-106l32 181h228l-29 -158q-15 -85 -76 -127.5t-155 -42.5z" />
    <glyph glyph-name="kgreenlandic" unicode="&#x138;" horiz-adv-x="1042" 
d="M227 0h-184l186 1059h185l-88 -500l544 500h228l-514 -471l344 -588h-228l-262 461l-151 -125z" />
    <glyph glyph-name="Lacute" unicode="&#x139;" horiz-adv-x="1118" 
d="M319 1462h195l-227 -1298h708l-28 -164h-906zM406 1589l294 213h275l-365 -213h-204z" />
    <glyph glyph-name="lacute" unicode="&#x13a;" horiz-adv-x="454" 
d="M299 1462h184l-258 -1462h-184zM367 1589l295 213h274l-365 -213h-204z" />
    <glyph glyph-name="uni013B" unicode="&#x13b;" horiz-adv-x="1118" 
d="M319 1462h195l-227 -1298h708l-28 -164h-906zM309 -432l13 72q31 8 50.5 17t28 20.5t11 18t4.5 19.5h-107l33 181h227l-28 -158q-15 -85 -76.5 -127.5t-155.5 -42.5z" />
    <glyph glyph-name="uni013C" unicode="&#x13c;" horiz-adv-x="454" 
d="M299 1462h184l-258 -1462h-184zM-18 -432l12 72q31 8 50.5 17t28 20.5t11 18t4.5 19.5h-106l32 181h228l-29 -158q-15 -85 -76 -127.5t-155 -42.5z" />
    <glyph glyph-name="Lcaron" unicode="&#x13d;" horiz-adv-x="1118" 
d="M319 1462h195l-227 -1298h708l-28 -164h-906zM621 1047l127 415h202l-207 -415h-122z" />
    <glyph glyph-name="lcaron" unicode="&#x13e;" horiz-adv-x="454" 
d="M299 1462h184l-258 -1462h-184zM530 1147l68 315h199l-144 -315h-123z" />
    <glyph glyph-name="Ldot" unicode="&#x13f;" horiz-adv-x="1118" 
d="M319 1462h195l-227 -1298h708l-28 -164h-906zM985 702l35 205h184l-35 -205h-184z" />
    <glyph glyph-name="ldot" unicode="&#x140;" horiz-adv-x="634" 
d="M299 1462h184l-258 -1462h-184zM481 637l37 213h184l-36 -213h-185z" />
    <glyph glyph-name="Lslash" unicode="&#x141;" horiz-adv-x="1118" 
d="M319 1462h195l-121 -684l537 336l-25 -135l-534 -336l-84 -479h708l-28 -164h-906l89 504l-170 -107l24 135l170 107z" />
    <glyph glyph-name="lslash" unicode="&#x142;" horiz-adv-x="466" 
d="M516 911l-154 -108l-141 -799h-184l115 653l-160 -112l24 145l162 113l117 663h184l-90 -514l152 107z" />
    <glyph glyph-name="Nacute" unicode="&#x143;" horiz-adv-x="1472" 
d="M319 1462h236l406 -930q12 -25 53 -118.5t65 -139.5q11 58 27.5 157.5t23.5 137.5l158 893h193l-258 -1462h-242l-399 924q-15 32 -53.5 120t-61.5 132q-14 -63 -32 -176.5t-21 -129.5l-154 -870h-199zM795 1589l295 213h274l-365 -213h-204z" />
    <glyph glyph-name="nacute" unicode="&#x144;" horiz-adv-x="1138" 
d="M43 0l186 1059h172l-32 -185q71 108 155.5 158.5t200.5 50.5q100 0 170 -36.5t103 -99t43.5 -145.5t-9.5 -177l-110 -625h-185l103 582q14 82 14.5 143t-11.5 99.5t-37 62t-56.5 32.5t-75.5 9q-125 0 -223.5 -107t-133.5 -307l-90 -514h-184zM610 1194l277 268h233
l-375 -268h-135z" />
    <glyph glyph-name="uni0145" unicode="&#x145;" horiz-adv-x="1472" 
d="M319 1462h236l406 -930q12 -25 53 -118.5t65 -139.5q11 58 27.5 157.5t23.5 137.5l158 893h193l-258 -1462h-242l-399 924q-15 32 -53.5 120t-61.5 132q-14 -63 -32 -176.5t-21 -129.5l-154 -870h-199zM492 -432l12 72q31 8 50.5 17t28 20.5t11 18t4.5 19.5h-106l32 181
h228l-29 -158q-15 -85 -76 -127.5t-155 -42.5z" />
    <glyph glyph-name="uni0146" unicode="&#x146;" horiz-adv-x="1138" 
d="M43 0l186 1059h172l-32 -185q71 108 155.5 158.5t200.5 50.5q100 0 170 -36.5t103 -99t43.5 -145.5t-9.5 -177l-110 -625h-185l103 582q14 82 14.5 143t-11.5 99.5t-37 62t-56.5 32.5t-75.5 9q-125 0 -223.5 -107t-133.5 -307l-90 -514h-184zM336 -432l12 72
q31 8 50.5 17t28 20.5t11 18t4.5 19.5h-106l33 181h227l-29 -158q-15 -85 -76 -127.5t-155 -42.5z" />
    <glyph glyph-name="Ncaron" unicode="&#x147;" horiz-adv-x="1472" 
d="M319 1462h236l406 -930q12 -25 53 -118.5t65 -139.5q11 58 27.5 157.5t23.5 137.5l158 893h193l-258 -1462h-242l-399 924q-15 32 -53.5 120t-61.5 132q-14 -63 -32 -176.5t-21 -129.5l-154 -870h-199zM623 1808h204l105 -131l153 131h205l-272 -231h-205z" />
    <glyph glyph-name="ncaron" unicode="&#x148;" horiz-adv-x="1138" 
d="M43 0l186 1059h172l-32 -185q71 108 155.5 158.5t200.5 50.5q100 0 170 -36.5t103 -99t43.5 -145.5t-9.5 -177l-110 -625h-185l103 582q14 82 14.5 143t-11.5 99.5t-37 62t-56.5 32.5t-75.5 9q-125 0 -223.5 -107t-133.5 -307l-90 -514h-184zM410 1462h192l105 -172
l165 172h193l-279 -268h-192z" />
    <glyph glyph-name="napostrophe" unicode="&#x149;" horiz-adv-x="1138" 
d="M43 0l186 1059h172l-32 -185q71 108 155.5 158.5t200.5 50.5q100 0 170 -36.5t103 -99t43.5 -145.5t-9.5 -177l-110 -625h-185l103 582q14 82 14.5 143t-11.5 99.5t-37 62t-56.5 32.5t-75.5 9q-125 0 -223.5 -107t-133.5 -307l-90 -514h-184zM-31 1118l88 172h-57l31 172
h155l-30 -172l-107 -172h-80z" />
    <glyph glyph-name="Eng" unicode="&#x14a;" horiz-adv-x="1472" 
d="M319 1462h236l406 -930q12 -25 53 -118.5t65 -139.5q11 58 27.5 157.5t23.5 137.5l158 893h193l-258 -1462q0 -198 -100.5 -313.5t-297.5 -116.5v164q110 1 155.5 67t47.5 199h-47l-399 924q-15 32 -53.5 120t-61.5 132q-14 -63 -32 -176.5t-21 -129.5l-154 -870h-199z
" />
    <glyph glyph-name="eng" unicode="&#x14b;" horiz-adv-x="1138" 
d="M897 -139q-22 -119 -98 -191.5t-209 -72.5h-125l29 155h77q70 0 101.5 21.5t42.5 91.5l22 135l103 582q14 82 14.5 143t-11.5 99.5t-37 62t-56.5 32.5t-75.5 9q-125 0 -223.5 -107t-133.5 -307l-90 -514h-184l186 1059h172l-32 -185q71 108 155.5 158.5t200.5 50.5
q100 0 170 -36.5t103 -99t43.5 -145.5t-9.5 -177l-110 -625z" />
    <glyph glyph-name="Omacron" unicode="&#x14c;" horiz-adv-x="1671" 
d="M956 1491q144 0 260.5 -39.5t190.5 -103.5t124.5 -148.5t71.5 -170t21 -173.5q0 -205 -64.5 -373.5t-177.5 -280t-265.5 -172.5t-328.5 -61q-138 0 -252 39t-190 103.5t-128.5 150.5t-75.5 177t-23 186q0 197 65 361t177.5 274t265.5 170.5t329 60.5zM313 612
q0 -60 15.5 -123t52 -127.5t90 -114.5t138.5 -82t188 -32q183 0 327.5 88t226 247t81.5 361q0 69 -13.5 134.5t-48 133t-87.5 117.5t-139.5 81.5t-195.5 31.5q-139 0 -255.5 -48.5t-201 -138.5t-131.5 -225.5t-47 -302.5zM719 1630l22 123h617l-23 -123h-616z" />
    <glyph glyph-name="omacron" unicode="&#x14d;" horiz-adv-x="1204" 
d="M657 1083q122 0 216.5 -39.5t152 -109t86.5 -158.5t29 -194q0 -172 -73 -310t-209 -217.5t-312 -79.5q-122 0 -216.5 39.5t-152 109t-86.5 159t-29 194.5q0 172 73 310t209 217t312 79zM246 481q0 -157 78 -253.5t233 -96.5q177 0 289 125t112 322q0 157 -78 253.5
t-233 96.5q-177 0 -289 -125t-112 -322zM350 1270l21 112h696l-20 -112h-697z" />
    <glyph glyph-name="Obreve" unicode="&#x14e;" horiz-adv-x="1671" 
d="M956 1491q144 0 260.5 -39.5t190.5 -103.5t124.5 -148.5t71.5 -170t21 -173.5q0 -205 -64.5 -373.5t-177.5 -280t-265.5 -172.5t-328.5 -61q-138 0 -252 39t-190 103.5t-128.5 150.5t-75.5 177t-23 186q0 197 65 361t177.5 274t265.5 170.5t329 60.5zM313 612
q0 -60 15.5 -123t52 -127.5t90 -114.5t138.5 -82t188 -32q183 0 327.5 88t226 247t81.5 361q0 69 -13.5 134.5t-48 133t-87.5 117.5t-139.5 81.5t-195.5 31.5q-139 0 -255.5 -48.5t-201 -138.5t-131.5 -225.5t-47 -302.5zM752 1810h145q1 -52 41 -85t98 -33q59 0 109 33
t67 85h150q-29 -113 -121 -178t-197 -65q-129 0 -209 66.5t-83 176.5z" />
    <glyph glyph-name="obreve" unicode="&#x14f;" horiz-adv-x="1204" 
d="M657 1083q122 0 216.5 -39.5t152 -109t86.5 -158.5t29 -194q0 -172 -73 -310t-209 -217.5t-312 -79.5q-122 0 -216.5 39.5t-152 109t-86.5 159t-29 194.5q0 172 73 310t209 217t312 79zM246 481q0 -157 78 -253.5t233 -96.5q177 0 289 125t112 322q0 157 -78 253.5
t-233 96.5q-177 0 -289 -125t-112 -322zM432 1462h146q-8 -67 26 -107t107 -40t118.5 39.5t63.5 107.5h149q-29 -123 -128 -200.5t-226 -77.5t-198.5 77.5t-57.5 200.5z" />
    <glyph glyph-name="Ohungarumlaut" unicode="&#x150;" horiz-adv-x="1671" 
d="M956 1491q144 0 260.5 -39.5t190.5 -103.5t124.5 -148.5t71.5 -170t21 -173.5q0 -205 -64.5 -373.5t-177.5 -280t-265.5 -172.5t-328.5 -61q-138 0 -252 39t-190 103.5t-128.5 150.5t-75.5 177t-23 186q0 197 65 361t177.5 274t265.5 170.5t329 60.5zM313 612
q0 -60 15.5 -123t52 -127.5t90 -114.5t138.5 -82t188 -32q183 0 327.5 88t226 247t81.5 361q0 69 -13.5 134.5t-48 133t-87.5 117.5t-139.5 81.5t-195.5 31.5q-139 0 -255.5 -48.5t-201 -138.5t-131.5 -225.5t-47 -302.5zM780 1595l203 207h215l-283 -207h-135zM1100 1595
l203 207h215l-283 -207h-135z" />
    <glyph glyph-name="ohungarumlaut" unicode="&#x151;" horiz-adv-x="1204" 
d="M657 1083q122 0 216.5 -39.5t152 -109t86.5 -158.5t29 -194q0 -172 -73 -310t-209 -217.5t-312 -79.5q-122 0 -216.5 39.5t-152 109t-86.5 159t-29 194.5q0 172 73 310t209 217t312 79zM246 481q0 -157 78 -253.5t233 -96.5q177 0 289 125t112 322q0 157 -78 253.5
t-233 96.5q-177 0 -289 -125t-112 -322zM422 1194l260 268h215l-340 -268h-135zM741 1194l260 268h216l-340 -268h-136z" />
    <glyph glyph-name="OE" unicode="&#x152;" horiz-adv-x="2328" 
d="M123 743q27 153 99 289t178.5 240t252.5 164.5t310 60.5q337 0 475 -240l39 205h886l-28 -164h-693l-83 -473h649l-29 -163h-649l-88 -498h698l-29 -164h-892l36 195q-210 -230 -542 -230q-112 0 -207.5 28.5t-165 80t-121.5 123.5t-77.5 158.5t-32.5 184.5t14 203z
M313 719q-11 -65 -12 -127.5t10 -121t33 -110t57 -94t81 -73t107 -47.5t132 -17q126 0 238.5 51.5t193 138.5t134.5 196t75 228q15 75 11.5 148t-18.5 138.5t-50 121t-83 96t-117 63.5t-151 23q-127 0 -239.5 -51.5t-192.5 -138.5t-134 -196t-75 -228z" />
    <glyph glyph-name="oe" unicode="&#x153;" horiz-adv-x="2062" 
d="M659 1083q150 0 254 -60t162 -161q78 105 197.5 163t259.5 58q111 0 199.5 -40.5t142.5 -108t83 -148t32 -168.5q3 -77 -7 -145h-854q0 -159 76.5 -251.5t231.5 -92.5q130 0 203 47t110 133h186q-71 -175 -198 -254.5t-320 -79.5q-143 0 -244 55t-157 154
q-156 -209 -479 -209q-114 0 -207.5 41.5t-151 109.5t-88.5 149.5t-31 166.5q0 154 48.5 278t132 202t191 119.5t228.5 41.5zM242 455q0 -79 34 -151.5t104.5 -122.5t162.5 -50q204 0 306.5 120.5t102.5 346.5q0 63 -17 119.5t-51.5 105t-94 77t-136.5 28.5
q-81 0 -155 -31.5t-131 -90t-91 -149.5t-34 -202zM1153 629h662q-8 132 -90 216.5t-212 84.5q-135 0 -229 -83.5t-131 -217.5z" />
    <glyph glyph-name="Racute" unicode="&#x154;" horiz-adv-x="1300" 
d="M61 0l258 1462h510q95 0 173.5 -23t129 -60t85.5 -86t50 -98t15 -99q0 -356 -367 -434q50 -16 81.5 -42t49 -69t25.5 -86t18 -117q2 -17 3 -26q21 -169 86 -314v-8h-207q-53 159 -76 362q-13 112 -69 174t-183 62h-283l-104 -598h-195zM389 762h330q167 0 267.5 75
t100.5 232q0 19 -3.5 39t-12.5 48t-29 51.5t-49 44.5t-76 33.5t-106 12.5h-326zM684 1589l295 213h274l-364 -213h-205z" />
    <glyph glyph-name="racute" unicode="&#x155;" horiz-adv-x="673" 
d="M43 0l186 1059h185l-31 -176q50 86 139.5 132t196.5 54l-35 -186q-154 -7 -225 -62q-59 -44 -89.5 -120t-54.5 -207l-88 -494h-184zM401 1194l277 268h233l-374 -268h-136z" />
    <glyph glyph-name="uni0156" unicode="&#x156;" horiz-adv-x="1300" 
d="M61 0l258 1462h510q95 0 173.5 -23t129 -60t85.5 -86t50 -98t15 -99q0 -356 -367 -434q50 -16 81.5 -42t49 -69t25.5 -86t18 -117q2 -17 3 -26q21 -169 86 -314v-8h-207q-53 159 -76 362q-13 112 -69 174t-183 62h-283l-104 -598h-195zM389 762h330q167 0 267.5 75
t100.5 232q0 19 -3.5 39t-12.5 48t-29 51.5t-49 44.5t-76 33.5t-106 12.5h-326zM442 -432l13 72q31 8 50.5 17t28 20.5t11 18t4.5 19.5h-107l33 181h227l-28 -158q-15 -85 -76.5 -127.5t-155.5 -42.5z" />
    <glyph glyph-name="uni0157" unicode="&#x157;" horiz-adv-x="673" 
d="M43 0l186 1059h185l-31 -176q50 86 139.5 132t196.5 54l-35 -186q-154 -7 -225 -62q-59 -44 -89.5 -120t-54.5 -207l-88 -494h-184zM-20 -432l12 72q31 8 50.5 17t28 20.5t11 18t4.5 19.5h-106l32 181h228l-29 -158q-15 -85 -76 -127.5t-155 -42.5z" />
    <glyph glyph-name="Rcaron" unicode="&#x158;" horiz-adv-x="1300" 
d="M61 0l258 1462h510q95 0 173.5 -23t129 -60t85.5 -86t50 -98t15 -99q0 -356 -367 -434q50 -16 81.5 -42t49 -69t25.5 -86t18 -117q2 -17 3 -26q21 -169 86 -314v-8h-207q-53 159 -76 362q-13 112 -69 174t-183 62h-283l-104 -598h-195zM389 762h330q167 0 267.5 75
t100.5 232q0 19 -3.5 39t-12.5 48t-29 51.5t-49 44.5t-76 33.5t-106 12.5h-326zM512 1808h205l104 -131l154 131h205l-273 -231h-205z" />
    <glyph glyph-name="rcaron" unicode="&#x159;" horiz-adv-x="673" 
d="M43 0l186 1059h185l-31 -176q50 86 139.5 132t196.5 54l-35 -186q-154 -7 -225 -62q-59 -44 -89.5 -120t-54.5 -207l-88 -494h-184zM201 1462h192l105 -172l166 172h192l-278 -268h-193z" />
    <glyph glyph-name="Sacute" unicode="&#x15a;" horiz-adv-x="1263" 
d="M268 453q15 -87 55 -152.5t95.5 -101.5t114 -53t120.5 -17q128 0 221 69.5t93 186.5q0 32 -7.5 59.5t-18.5 48t-32 40t-39 32t-49 27.5t-53 24t-59 24.5t-60 25.5q-59 26 -94 42t-85 43t-80 49.5t-64.5 56t-53 68t-31 80t-12.5 97.5q0 96 42 172.5t113 124.5t159.5 73
t185.5 25q213 0 336 -115t156 -325h-187q-22 132 -98.5 204t-206.5 72q-136 0 -217.5 -61t-81.5 -168q0 -40 16 -74.5t39 -59.5t65.5 -51.5t79 -44t95.5 -43.5q179 -77 243 -115q140 -86 176 -207q15 -49 15 -108q0 -94 -29 -169t-77.5 -124t-115.5 -82t-139.5 -47
t-152.5 -14q-228 0 -387 129.5t-182 358.5h192zM639 1589l295 213h274l-364 -213h-205z" />
    <glyph glyph-name="sacute" unicode="&#x15b;" horiz-adv-x="983" 
d="M764 762q-18 94 -76.5 130t-159.5 36q-88 0 -147 -36t-59 -101q0 -36 11 -60.5t47 -47t61 -33.5t96 -37q12 -5 18 -7q42 -15 67 -25t62.5 -27.5t60.5 -33t50 -38.5t42 -47t25 -56t10 -68q0 -72 -26 -130.5t-68.5 -96t-98.5 -63t-113.5 -36t-116.5 -10.5q-80 0 -151 20
t-130 60t-96 108.5t-43 158.5h180q17 -102 74.5 -146.5t177.5 -44.5q94 0 160.5 42.5t66.5 113.5q0 62 -49.5 99t-175.5 79q-42 14 -64.5 22t-62.5 25.5t-63 32t-52.5 38.5t-45 50t-27 61t-11.5 76q0 65 24 118.5t64 89t93 60t109 35t114 10.5q174 0 279 -82.5t118 -238.5
h-174zM479 1194l277 268h233l-375 -268h-135z" />
    <glyph glyph-name="Scircumflex" unicode="&#x15c;" horiz-adv-x="1263" 
d="M268 453q15 -87 55 -152.5t95.5 -101.5t114 -53t120.5 -17q128 0 221 69.5t93 186.5q0 32 -7.5 59.5t-18.5 48t-32 40t-39 32t-49 27.5t-53 24t-59 24.5t-60 25.5q-59 26 -94 42t-85 43t-80 49.5t-64.5 56t-53 68t-31 80t-12.5 97.5q0 96 42 172.5t113 124.5t159.5 73
t185.5 25q213 0 336 -115t156 -325h-187q-22 132 -98.5 204t-206.5 72q-136 0 -217.5 -61t-81.5 -168q0 -40 16 -74.5t39 -59.5t65.5 -51.5t79 -44t95.5 -43.5q179 -77 243 -115q140 -86 176 -207q15 -49 15 -108q0 -94 -29 -169t-77.5 -124t-115.5 -82t-139.5 -47
t-152.5 -14q-228 0 -387 129.5t-182 358.5h192zM432 1577l273 231h204l191 -231h-205l-107 131l-151 -131h-205z" />
    <glyph glyph-name="scircumflex" unicode="&#x15d;" horiz-adv-x="983" 
d="M764 762q-18 94 -76.5 130t-159.5 36q-88 0 -147 -36t-59 -101q0 -36 11 -60.5t47 -47t61 -33.5t96 -37q12 -5 18 -7q42 -15 67 -25t62.5 -27.5t60.5 -33t50 -38.5t42 -47t25 -56t10 -68q0 -72 -26 -130.5t-68.5 -96t-98.5 -63t-113.5 -36t-116.5 -10.5q-80 0 -151 20
t-130 60t-96 108.5t-43 158.5h180q17 -102 74.5 -146.5t177.5 -44.5q94 0 160.5 42.5t66.5 113.5q0 62 -49.5 99t-175.5 79q-42 14 -64.5 22t-62.5 25.5t-63 32t-52.5 38.5t-45 50t-27 61t-11.5 76q0 65 24 118.5t64 89t93 60t109 35t114 10.5q174 0 279 -82.5t118 -238.5
h-174zM231 1194l279 268h192l185 -268h-193l-104 172l-166 -172h-193z" />
    <glyph glyph-name="Scedilla" unicode="&#x15e;" horiz-adv-x="1263" 
d="M268 453q15 -87 55 -152.5t95.5 -101.5t114 -53t120.5 -17q128 0 221 69.5t93 186.5q0 32 -7.5 59.5t-18.5 48t-32 40t-39 32t-49 27.5t-53 24t-59 24.5t-60 25.5q-59 26 -94 42t-85 43t-80 49.5t-64.5 56t-53 68t-31 80t-12.5 97.5q0 96 42 172.5t113 124.5t159.5 73
t185.5 25q213 0 336 -115t156 -325h-187q-22 132 -98.5 204t-206.5 72q-136 0 -217.5 -61t-81.5 -168q0 -40 16 -74.5t39 -59.5t65.5 -51.5t79 -44t95.5 -43.5q179 -77 243 -115q140 -86 176 -207q15 -49 15 -108q0 -112 -40 -196.5t-109.5 -134.5t-152.5 -75.5t-181 -29.5
l-72 -74l2 -4q24 15 72 15q71 0 113.5 -39.5t31.5 -110.5q-9 -49 -38.5 -86t-71.5 -57t-86 -29.5t-90 -9.5q-104 0 -185 41l58 100q53 -39 118 -39q49 0 91 16t47 48q6 29 -18 46t-66 17q-35 0 -88 -16l-41 80l114 106q-201 23 -335.5 149t-155.5 335h192z" />
    <glyph glyph-name="scedilla" unicode="&#x15f;" horiz-adv-x="983" 
d="M764 762q-18 94 -76.5 130t-159.5 36q-88 0 -147 -36t-59 -101q0 -36 11 -60.5t47 -47t61 -33.5t96 -37q12 -5 18 -7q42 -15 67 -25t62.5 -27.5t60.5 -33t50 -38.5t42 -47t25 -56t10 -68q0 -79 -31 -141.5t-83.5 -100.5t-113.5 -60t-130 -29l-84 -89l2 -4q24 15 72 15
q71 0 113.5 -39.5t31.5 -110.5q-9 -49 -38.5 -86t-71.5 -57t-86.5 -29.5t-90.5 -9.5q-103 0 -184 41l58 100q53 -39 118 -39q49 0 91 16t47 48q6 29 -18 46t-66 17q-36 0 -89 -16l-40 80l122 114q-73 5 -136 28t-115 63.5t-84 105.5t-37 148h180q17 -102 74.5 -146.5
t177.5 -44.5q94 0 160.5 42.5t66.5 113.5q0 62 -49.5 99t-175.5 79q-42 14 -64.5 22t-62.5 25.5t-63 32t-52.5 38.5t-45 50t-27 61t-11.5 76q0 65 24 118.5t64 89t93 60t109 35t114 10.5q174 0 279 -82.5t118 -238.5h-174z" />
    <glyph glyph-name="Scaron" unicode="&#x160;" horiz-adv-x="1263" 
d="M268 453q15 -87 55 -152.5t95.5 -101.5t114 -53t120.5 -17q128 0 221 69.5t93 186.5q0 32 -7.5 59.5t-18.5 48t-32 40t-39 32t-49 27.5t-53 24t-59 24.5t-60 25.5q-59 26 -94 42t-85 43t-80 49.5t-64.5 56t-53 68t-31 80t-12.5 97.5q0 96 42 172.5t113 124.5t159.5 73
t185.5 25q213 0 336 -115t156 -325h-187q-22 132 -98.5 204t-206.5 72q-136 0 -217.5 -61t-81.5 -168q0 -40 16 -74.5t39 -59.5t65.5 -51.5t79 -44t95.5 -43.5q179 -77 243 -115q140 -86 176 -207q15 -49 15 -108q0 -94 -29 -169t-77.5 -124t-115.5 -82t-139.5 -47
t-152.5 -14q-228 0 -387 129.5t-182 358.5h192zM467 1808h205l104 -131l154 131h205l-273 -231h-205z" />
    <glyph glyph-name="scaron" unicode="&#x161;" horiz-adv-x="983" 
d="M764 762q-18 94 -76.5 130t-159.5 36q-88 0 -147 -36t-59 -101q0 -36 11 -60.5t47 -47t61 -33.5t96 -37q12 -5 18 -7q42 -15 67 -25t62.5 -27.5t60.5 -33t50 -38.5t42 -47t25 -56t10 -68q0 -72 -26 -130.5t-68.5 -96t-98.5 -63t-113.5 -36t-116.5 -10.5q-80 0 -151 20
t-130 60t-96 108.5t-43 158.5h180q17 -102 74.5 -146.5t177.5 -44.5q94 0 160.5 42.5t66.5 113.5q0 62 -49.5 99t-175.5 79q-42 14 -64.5 22t-62.5 25.5t-63 32t-52.5 38.5t-45 50t-27 61t-11.5 76q0 65 24 118.5t64 89t93 60t109 35t114 10.5q174 0 279 -82.5t118 -238.5
h-174zM279 1462h192l104 -172l166 172h193l-279 -268h-192z" />
    <glyph glyph-name="uni0162" unicode="&#x162;" horiz-adv-x="1165" 
d="M172 1298l29 164h1091l-28 -164h-449l-229 -1298h-195l230 1298h-449zM338 -432l12 72q31 8 50.5 17t28 20.5t11 18t4.5 19.5h-106l33 181h227l-29 -158q-15 -85 -76 -127.5t-155 -42.5z" />
    <glyph glyph-name="uni0163" unicode="&#x163;" horiz-adv-x="622" 
d="M309 291q-24 -139 105 -139h80l-27 -152h-86q-148 0 -211.5 81t-40.5 210l109 616h-158l26 152h158l43 248l195 82l-58 -330h203l-26 -152h-203zM109 -432l12 72q31 8 50.5 17t28 20.5t11 18t4.5 19.5h-106l32 181h228l-29 -158q-15 -85 -76 -127.5t-155 -42.5z" />
    <glyph glyph-name="Tcaron" unicode="&#x164;" horiz-adv-x="1165" 
d="M172 1298l29 164h1091l-28 -164h-449l-229 -1298h-195l230 1298h-449zM469 1808h205l104 -131l154 131h205l-273 -231h-205z" />
    <glyph glyph-name="tcaron" unicode="&#x165;" horiz-adv-x="622" 
d="M309 291q-24 -139 105 -139h80l-27 -152h-86q-148 0 -211.5 81t-40.5 210l109 616h-158l26 152h158l43 248l195 82l-58 -330h203l-26 -152h-203zM565 1147l68 315h198l-143 -315h-123z" />
    <glyph glyph-name="Tbar" unicode="&#x166;" horiz-adv-x="1165" 
d="M172 1298l29 164h1091l-28 -164h-449l-53 -303h307l-25 -139h-307l-151 -856h-195l152 856h-307l24 139h307l54 303h-449z" />
    <glyph glyph-name="tbar" unicode="&#x167;" horiz-adv-x="622" 
d="M535 575h-177l-49 -284q-24 -139 105 -139h80l-27 -152h-86q-148 0 -211.5 81t-40.5 210l49 284h-160v130h183l37 202h-158l26 152h158l43 248l195 82l-58 -330h203l-26 -152h-203l-37 -202h154v-130z" />
    <glyph glyph-name="Utilde" unicode="&#x168;" horiz-adv-x="1388" 
d="M1241 514q-23 -132 -65.5 -230t-112 -171.5t-172.5 -110.5t-240 -37q-284 0 -416.5 168t-82.5 449l155 880h195l-158 -893q-37 -205 48 -322.5t267 -117.5q92 0 160 27t113 81t72.5 123.5t44.5 165.5l165 936h195zM526 1575q23 100 88 162.5t164 62.5q46 0 95 -22
t93.5 -44t80.5 -22q34 0 54.5 22.5t37.5 67.5h133q-28 -100 -92 -163.5t-154 -63.5q-50 0 -103 21.5t-99.5 43t-80.5 21.5q-70 0 -92 -86h-125z" />
    <glyph glyph-name="utilde" unicode="&#x169;" horiz-adv-x="1138" 
d="M1096 1059l-187 -1059h-172l31 182q-47 -97 -142 -152t-212 -55q-100 0 -170 36.5t-103.5 99t-44 146t9.5 177.5l111 625h184l-102 -582q-14 -82 -14.5 -143t11.5 -99.5t37 -62t56.5 -32.5t75.5 -9q125 0 223 107t133 307l90 514h185zM342 1237q23 100 88 162.5t164 62.5
q46 0 94.5 -22.5t93 -45t80.5 -22.5q34 0 54.5 22.5t37.5 67.5h133q-28 -100 -92.5 -163.5t-154.5 -63.5q-50 0 -102.5 22t-98.5 44t-80 22q-70 0 -92 -86h-125z" />
    <glyph glyph-name="Umacron" unicode="&#x16a;" horiz-adv-x="1388" 
d="M1241 514q-23 -132 -65.5 -230t-112 -171.5t-172.5 -110.5t-240 -37q-284 0 -416.5 168t-82.5 449l155 880h195l-158 -893q-37 -205 48 -322.5t267 -117.5q92 0 160 27t113 81t72.5 123.5t44.5 165.5l165 936h195zM580 1630l22 123h617l-23 -123h-616z" />
    <glyph glyph-name="umacron" unicode="&#x16b;" horiz-adv-x="1138" 
d="M1096 1059l-187 -1059h-172l31 182q-47 -97 -142 -152t-212 -55q-100 0 -170 36.5t-103.5 99t-44 146t9.5 177.5l111 625h184l-102 -582q-14 -82 -14.5 -143t11.5 -99.5t37 -62t56.5 -32.5t75.5 -9q125 0 223 107t133 307l90 514h185zM352 1270l21 112h696l-20 -112h-697
z" />
    <glyph glyph-name="Ubreve" unicode="&#x16c;" horiz-adv-x="1388" 
d="M1241 514q-23 -132 -65.5 -230t-112 -171.5t-172.5 -110.5t-240 -37q-284 0 -416.5 168t-82.5 449l155 880h195l-158 -893q-37 -205 48 -322.5t267 -117.5q92 0 160 27t113 81t72.5 123.5t44.5 165.5l165 936h195zM612 1810h146q1 -52 41 -85t98 -33q59 0 109 33t67 85
h150q-29 -113 -121 -178t-197 -65q-129 0 -209.5 66.5t-83.5 176.5z" />
    <glyph glyph-name="ubreve" unicode="&#x16d;" horiz-adv-x="1138" 
d="M1096 1059l-187 -1059h-172l31 182q-47 -97 -142 -152t-212 -55q-100 0 -170 36.5t-103.5 99t-44 146t9.5 177.5l111 625h184l-102 -582q-14 -82 -14.5 -143t11.5 -99.5t37 -62t56.5 -32.5t75.5 -9q125 0 223 107t133 307l90 514h185zM434 1462h146q-8 -67 26 -107
t107 -40t118.5 39.5t63.5 107.5h149q-29 -123 -128 -200.5t-226 -77.5t-198.5 77.5t-57.5 200.5z" />
    <glyph glyph-name="Uring" unicode="&#x16e;" horiz-adv-x="1388" 
d="M1241 514q-23 -132 -65.5 -230t-112 -171.5t-172.5 -110.5t-240 -37q-284 0 -416.5 168t-82.5 449l155 880h195l-158 -893q-37 -205 48 -322.5t267 -117.5q92 0 160 27t113 81t72.5 123.5t44.5 165.5l165 936h195zM696 1792q17 92 93 156.5t167 64.5t145.5 -64.5
t37.5 -156.5q-15 -92 -92 -156.5t-168 -64.5t-144.5 64.5t-38.5 156.5zM819 1790q-8 -45 14 -72.5t66 -27.5t77 28t40 72q8 45 -14 72.5t-66 27.5t-77 -28t-40 -72z" />
    <glyph glyph-name="uring" unicode="&#x16f;" horiz-adv-x="1138" 
d="M1096 1059l-187 -1059h-172l31 182q-47 -97 -142 -152t-212 -55q-100 0 -170 36.5t-103.5 99t-44 146t9.5 177.5l111 625h184l-102 -582q-14 -82 -14.5 -143t11.5 -99.5t37 -62t56.5 -32.5t75.5 -9q125 0 223 107t133 307l90 514h185zM494 1354q15 92 92 156.5t168 64.5
t144 -64.5t38 -156.5q-17 -92 -93 -156.5t-167 -64.5t-145 64.5t-37 156.5zM614 1352q-8 -44 15 -72.5t67 -28.5t75.5 28t39.5 73t-14 72.5t-66 27.5t-77 -28t-40 -72z" />
    <glyph glyph-name="Uhungarumlaut" unicode="&#x170;" horiz-adv-x="1388" 
d="M1241 514q-23 -132 -65.5 -230t-112 -171.5t-172.5 -110.5t-240 -37q-284 0 -416.5 168t-82.5 449l155 880h195l-158 -893q-37 -205 48 -322.5t267 -117.5q92 0 160 27t113 81t72.5 123.5t44.5 165.5l165 936h195zM641 1595l203 207h215l-283 -207h-135zM961 1595
l202 207h215l-282 -207h-135z" />
    <glyph glyph-name="uhungarumlaut" unicode="&#x171;" horiz-adv-x="1138" 
d="M1096 1059l-187 -1059h-172l31 182q-47 -97 -142 -152t-212 -55q-100 0 -170 36.5t-103.5 99t-44 146t9.5 177.5l111 625h184l-102 -582q-14 -82 -14.5 -143t11.5 -99.5t37 -62t56.5 -32.5t75.5 -9q125 0 223 107t133 307l90 514h185zM424 1194l260 268h215l-340 -268
h-135zM743 1194l261 268h215l-340 -268h-136z" />
    <glyph glyph-name="Uogonek" unicode="&#x172;" horiz-adv-x="1388" 
d="M1241 514q-44 -248 -163.5 -386t-344.5 -159q-171 -118 -178 -188q-6 -52 19 -72t90 -20l-21 -119q-132 0 -200 47t-54 143q9 59 48.5 105.5t113.5 105.5q-233 31 -338.5 194t-60.5 417l155 880h195l-158 -893q-37 -205 48 -322.5t267 -117.5q92 0 160 27t113 81
t72.5 123.5t44.5 165.5l165 936h195z" />
    <glyph glyph-name="uogonek" unicode="&#x173;" horiz-adv-x="1138" 
d="M1096 1059l-187 -1059h4q-185 -123 -211 -219q-13 -49 18.5 -72.5t98.5 -23.5l-20 -115q-131 0 -196 46.5t-50 143.5q11 68 53.5 121t122.5 119h8l31 182q-47 -97 -142 -152t-212 -55q-100 0 -170 36.5t-103.5 99t-44 146t9.5 177.5l111 625h184l-102 -582
q-14 -82 -14.5 -143t11.5 -99.5t37 -62t56.5 -32.5t75.5 -9q125 0 223 107t133 307l90 514h185z" />
    <glyph glyph-name="Wcircumflex" unicode="&#x174;" horiz-adv-x="1880" 
d="M184 1462h201l61 -1065l11 -190h2l78 190l428 1065h272l45 -1065l8 -192h2l78 188l451 1069h202l-641 -1462h-262l-16 395l-35 873h-2l-352 -871l-162 -397h-260l-29 395zM791 1577l272 231h205l190 -231h-205l-106 131l-152 -131h-204z" />
    <glyph glyph-name="wcircumflex" unicode="&#x175;" horiz-adv-x="1533" 
d="M227 0l-116 1059h190l55 -651q2 -33 5.5 -98.5t5.5 -98.5h2q10 24 37 92t43 103l288 653h244l57 -651q6 -102 15 -199h2q15 34 41.5 99.5t40.5 99.5l282 651h193l-492 -1059h-211l-65 694l-17 180h-2q-14 -31 -38 -90.5t-37 -89.5l-312 -694h-211zM551 1194l278 268h193
l184 -268h-192l-105 172l-166 -172h-192z" />
    <glyph glyph-name="Ycircumflex" unicode="&#x176;" horiz-adv-x="1277" 
d="M197 1462h221l260 -682h4l502 682h225l-661 -860l-107 -602h-195l107 602zM489 1577l273 231h205l190 -231h-205l-106 131l-152 -131h-205z" />
    <glyph glyph-name="ycircumflex" unicode="&#x177;" horiz-adv-x="1064" 
d="M111 1059h190l127 -613l55 -264h2l138 267l317 610h203l-703 -1264q-56 -101 -128 -153t-175 -52h-143l26 156h117q30 0 54 8t37.5 15.5t31.5 31.5t23.5 33.5t25.5 44.5l53 92zM283 1194l278 268h193l184 -268h-193l-104 172l-166 -172h-192z" />
    <glyph glyph-name="Ydieresis" unicode="&#x178;" horiz-adv-x="1277" 
d="M197 1462h221l260 -682h4l502 682h225l-661 -860l-107 -602h-195l107 602zM549 1589l37 213h184l-37 -213h-184zM918 1589l36 213h185l-37 -213h-184z" />
    <glyph glyph-name="Zacute" unicode="&#x179;" horiz-adv-x="1247" 
d="M29 176l1001 1114h-760l31 172h995l-30 -176l-998 -1114h826l-31 -172h-1065zM670 1589l295 213h274l-365 -213h-204z" />
    <glyph glyph-name="zacute" unicode="&#x17a;" horiz-adv-x="999" 
d="M741 903h-127h-434l27 156h799l-21 -111l-756 -792h117h516l-26 -156h-861l23 125zM524 1194l277 268h233l-375 -268h-135z" />
    <glyph glyph-name="Zdotaccent" unicode="&#x17b;" horiz-adv-x="1247" 
d="M29 176l1001 1114h-760l31 172h995l-30 -176l-998 -1114h826l-31 -172h-1065zM709 1597l34 205h185l-35 -205h-184z" />
    <glyph glyph-name="zdotaccent" unicode="&#x17c;" horiz-adv-x="999" 
d="M741 903h-127h-434l27 156h799l-21 -111l-756 -792h117h516l-26 -156h-861l23 125zM522 1249l37 213h184l-36 -213h-185z" />
    <glyph glyph-name="Zcaron" unicode="&#x17d;" horiz-adv-x="1247" 
d="M29 176l1001 1114h-760l31 172h995l-30 -176l-998 -1114h826l-31 -172h-1065zM498 1808h204l105 -131l154 131h204l-272 -231h-205z" />
    <glyph glyph-name="zcaron" unicode="&#x17e;" horiz-adv-x="999" 
d="M741 903h-127h-434l27 156h799l-21 -111l-756 -792h117h516l-26 -156h-861l23 125zM324 1462h192l105 -172l165 172h193l-279 -268h-192z" />
    <glyph glyph-name="florin" unicode="&#x192;" horiz-adv-x="782" 
d="M-207 -293l53 148h62q55 0 102 44.5t70 110.5l268 762h-180l51 143h180l103 289q93 258 344 258h121l-56 -155h-63q-126 0 -168 -123l-94 -269h184l-51 -143h-184l-279 -786q-41 -118 -140 -198.5t-233 -80.5h-90z" />
    <glyph glyph-name="Aringacute" unicode="&#x1fa;" horiz-adv-x="1406" 
d="M147 0h-204l788 1462h244l301 -1462h-197l-80 424h-626zM453 578h518l-135 710h-7zM705 1792q13 73 66 131t124 80l242 174h274l-336 -197q42 -30 62 -79.5t10 -108.5q-15 -92 -92 -156.5t-168 -64.5t-144 64.5t-38 156.5zM827 1790q-8 -45 14 -72.5t66 -27.5t77 28
t40 72q8 45 -14 72.5t-66 27.5t-77 -28t-40 -72z" />
    <glyph glyph-name="aringacute" unicode="&#x1fb;" horiz-adv-x="1114" 
d="M37 270q0 67 24.5 120.5t68.5 88t96.5 60t118.5 40.5t123 24.5t122 18.5q6 0 9 0.5t8 1t9 1.5q124 17 178 55.5t54 99.5q0 73 -67 111.5t-167 38.5q-211 0 -264 -191h-184q11 62 46.5 122t91 110.5t136.5 82t174 31.5q81 0 146.5 -15.5t109 -40.5t75 -60t47.5 -72.5
t23.5 -78.5t6.5 -76.5t-8 -69.5l-88 -463q-23 -129 -17 -209h-192q0 79 10 147q-31 -65 -126.5 -118.5t-229.5 -53.5q-75 0 -134.5 20t-96 51t-60.5 71.5t-33.5 78t-9.5 74.5zM217 276q0 -70 50.5 -111.5t148.5 -41.5q84 0 148.5 25t108.5 74t73 110.5t51 146.5
q17 70 24 115q-46 -53 -106.5 -81t-202.5 -50q-57 -9 -94.5 -16.5t-79 -22t-65.5 -33t-40 -48t-16 -67.5zM463 1364q13 84 79.5 146t149.5 73l250 242h234l-363 -260q52 -27 77 -80.5t15 -120.5q-17 -92 -93 -156.5t-167 -64.5t-145 64.5t-37 156.5zM584 1362q-8 -44 15 -72
t67 -28t75 27.5t39 72.5t-14 72.5t-66 27.5t-76 -28t-40 -72z" />
    <glyph glyph-name="AEacute" unicode="&#x1fc;" horiz-adv-x="2074" 
d="M-57 0l1087 1462h1079l-28 -164h-725l-84 -473h682l-29 -163h-682l-88 -498h731l-28 -164h-926l80 453h-514l-332 -453h-223zM614 612h426l121 686h-43zM1436 1589l295 213h274l-365 -213h-204z" />
    <glyph glyph-name="aeacute" unicode="&#x1fd;" horiz-adv-x="1810" 
d="M391 -25q-91 0 -161.5 29t-110.5 75.5t-60 98t-20 103.5q0 57 19 104t48.5 78.5t74.5 57.5t88 40.5t98 27t95 18t89.5 12t71.5 10.5q111 19 152.5 49.5t41.5 99.5q0 152 -201 152q-209 0 -272 -189h-176q14 61 50 120t90 110t133.5 82.5t170.5 31.5q271 0 351 -204
q143 202 387 202q87 0 156 -23t113.5 -64.5t74 -95.5t41 -119t11 -132t-12.5 -137l-4 -29h-785q-20 -167 49.5 -260.5t204.5 -93.5q213 0 297 186h180q-148 -340 -479 -340q-152 0 -251 62t-132 186q-167 -248 -422 -248zM221 281q0 -67 43 -111.5t133 -44.5
q56 0 112.5 20.5t110 62t94.5 113.5t56 164l18 109q-4 -3 -10 -9q-32 -28 -53.5 -43t-83 -36t-156.5 -37q-133 -23 -198.5 -63.5t-65.5 -124.5zM932 1194l276 268h234l-375 -268h-135zM975 627h592q13 144 -41.5 224.5t-182.5 80.5q-133 0 -230 -83t-138 -222z" />
    <glyph glyph-name="Oslashacute" unicode="&#x1fe;" horiz-adv-x="1671" 
d="M956 1491q320 0 500 -188l209 174l76 -93l-213 -178q96 -157 96 -350q0 -205 -64.5 -373.5t-177.5 -280t-265.5 -172.5t-328.5 -61q-322 0 -501 201l-213 -178l-72 94l213 178q-96 161 -96 361q0 197 65 361t177.5 274t265.5 170.5t329 60.5zM313 612q0 -110 52 -223
l948 793q-125 145 -365 145q-139 0 -255.5 -48.5t-201 -138.5t-131.5 -225.5t-47 -302.5zM430 289q132 -156 367 -156q183 0 327.5 88t226 247t81.5 361q0 138 -54 252zM893 1589l295 213h274l-364 -213h-205z" />
    <glyph glyph-name="oslashacute" unicode="&#x1ff;" horiz-adv-x="1204" 
d="M657 1083q211 0 334 -114l135 125l70 -86l-133 -123q78 -127 78 -303q0 -172 -73 -310t-209 -217.5t-312 -79.5q-211 0 -338 117l-135 -125l-78 78l143 133q-76 125 -76 299q0 172 73 310t209 217t312 79zM246 481q0 -99 30 -176l586 545q-78 78 -215 78
q-177 0 -289 -125t-112 -322zM338 213q82 -82 219 -82q177 0 289 125t112 322q0 106 -32 180zM606 1194l277 268h233l-375 -268h-135z" />
    <glyph glyph-name="uni0218" unicode="&#x218;" horiz-adv-x="1263" 
d="M268 453q15 -87 55 -152.5t95.5 -101.5t114 -53t120.5 -17q128 0 221 69.5t93 186.5q0 32 -7.5 59.5t-18.5 48t-32 40t-39 32t-49 27.5t-53 24t-59 24.5t-60 25.5q-59 26 -94 42t-85 43t-80 49.5t-64.5 56t-53 68t-31 80t-12.5 97.5q0 96 42 172.5t113 124.5t159.5 73
t185.5 25q213 0 336 -115t156 -325h-187q-22 132 -98.5 204t-206.5 72q-136 0 -217.5 -61t-81.5 -168q0 -40 16 -74.5t39 -59.5t65.5 -51.5t79 -44t95.5 -43.5q179 -77 243 -115q140 -86 176 -207q15 -49 15 -108q0 -94 -29 -169t-77.5 -124t-115.5 -82t-139.5 -47
t-152.5 -14q-228 0 -387 129.5t-182 358.5h192zM498 -432l12 72q31 8 50.5 17t28 20.5t11 18t4.5 19.5h-106l32 181h228l-29 -158q-15 -85 -76 -127.5t-155 -42.5z" />
    <glyph glyph-name="uni0219" unicode="&#x219;" horiz-adv-x="983" 
d="M764 762q-18 94 -76.5 130t-159.5 36q-88 0 -147 -36t-59 -101q0 -36 11 -60.5t47 -47t61 -33.5t96 -37q12 -5 18 -7q42 -15 67 -25t62.5 -27.5t60.5 -33t50 -38.5t42 -47t25 -56t10 -68q0 -72 -26 -130.5t-68.5 -96t-98.5 -63t-113.5 -36t-116.5 -10.5q-80 0 -151 20
t-130 60t-96 108.5t-43 158.5h180q17 -102 74.5 -146.5t177.5 -44.5q94 0 160.5 42.5t66.5 113.5q0 62 -49.5 99t-175.5 79q-42 14 -64.5 22t-62.5 25.5t-63 32t-52.5 38.5t-45 50t-27 61t-11.5 76q0 65 24 118.5t64 89t93 60t109 35t114 10.5q174 0 279 -82.5t118 -238.5
h-174zM319 -432l13 72q31 8 50.5 17t28 20.5t11 18t4.5 19.5h-107l33 181h228l-29 -158q-15 -85 -76.5 -127.5t-155.5 -42.5z" />
    <glyph glyph-name="uni021A" unicode="&#x21a;" horiz-adv-x="1165" 
d="M172 1298l29 164h1091l-28 -164h-449l-229 -1298h-195l230 1298h-449zM338 -432l12 72q31 8 50.5 17t28 20.5t11 18t4.5 19.5h-106l33 181h227l-29 -158q-15 -85 -76 -127.5t-155 -42.5z" />
    <glyph glyph-name="uni021B" unicode="&#x21b;" horiz-adv-x="622" 
d="M309 291q-24 -139 105 -139h80l-27 -152h-86q-148 0 -211.5 81t-40.5 210l109 616h-158l26 152h158l43 248l195 82l-58 -330h203l-26 -152h-203zM109 -432l12 72q31 8 50.5 17t28 20.5t11 18t4.5 19.5h-106l32 181h228l-29 -158q-15 -85 -76 -127.5t-155 -42.5z" />
    <glyph glyph-name="uni0237" unicode="&#x237;" horiz-adv-x="503" 
d="M250 -139q-22 -120 -96 -192t-207 -72h-125l28 155h78q69 0 100 21.5t42 91.5l211 1194h180z" />
    <glyph glyph-name="circumflex" unicode="&#x2c6;" horiz-adv-x="831" 
d="M205 1194l278 268h193l184 -268h-192l-105 172l-166 -172h-192z" />
    <glyph glyph-name="caron" unicode="&#x2c7;" horiz-adv-x="831" 
d="M252 1462h192l105 -172l166 172h192l-278 -268h-193z" />
    <glyph glyph-name="breve" unicode="&#x2d8;" horiz-adv-x="774" 
d="M506 1184q-127 0 -198.5 77.5t-57.5 200.5h145q-8 -67 26 -107t107 -40t119 39.5t64 107.5h149q-29 -123 -128 -200.5t-226 -77.5z" />
    <glyph glyph-name="dotaccent" unicode="&#x2d9;" horiz-adv-x="319" 
d="M379 1249h-184l36 213h185z" />
    <glyph glyph-name="ring" unicode="&#x2da;" horiz-adv-x="598" 
d="M221 1354q15 92 92 156.5t168 64.5t144.5 -64.5t38.5 -156.5q-17 -92 -93.5 -156.5t-167.5 -64.5t-145 64.5t-37 156.5zM342 1352q-8 -44 15 -72.5t67 -28.5t75.5 28t39.5 73t-14 72.5t-66 27.5t-77 -28t-40 -72z" />
    <glyph glyph-name="ogonek" unicode="&#x2db;" horiz-adv-x="544" 
d="M352 0q-185 -123 -211 -219q-13 -49 18.5 -72.5t98.5 -23.5l-20 -115q-131 0 -196 46.5t-50 143.5q11 68 53.5 121t122.5 119h184z" />
    <glyph glyph-name="tilde" unicode="&#x2dc;" horiz-adv-x="1265" 
d="M399 1237q23 100 88 162.5t164 62.5q46 0 95 -22.5t93.5 -45t80.5 -22.5q34 0 54.5 22.5t37.5 67.5h133q-28 -100 -93 -163.5t-155 -63.5q-50 0 -102.5 22t-98.5 44t-80 22q-70 0 -92 -86h-125z" />
    <glyph glyph-name="hungarumlaut" unicode="&#x2dd;" horiz-adv-x="835" 
d="M879 1462h215l-340 -268h-136zM299 1194l260 268h215l-340 -268h-135z" />
    <glyph glyph-name="gravecomb" unicode="&#x300;" 
d="M369 1462l135 -268h-135l-234 268h234z" />
    <glyph glyph-name="acutecomb" unicode="&#x301;" 
d="M688 1462h234l-375 -268h-135z" />
    <glyph glyph-name="uni0302" unicode="&#x302;" 
d="M205 1194l278 268h193l184 -268h-192l-105 172l-166 -172h-192z" />
    <glyph glyph-name="tildecomb" unicode="&#x303;" 
d="M399 1237q23 100 88 162.5t164 62.5q46 0 95 -22.5t93.5 -45t80.5 -22.5q34 0 54.5 22.5t37.5 67.5h133q-28 -100 -93 -163.5t-155 -63.5q-50 0 -102.5 22t-98.5 44t-80 22q-70 0 -92 -86h-125z" />
    <glyph glyph-name="uni0304" unicode="&#x304;" 
d="M217 1382h696l-20 -112h-696z" />
    <glyph glyph-name="uni0306" unicode="&#x306;" 
d="M506 1184q-127 0 -198.5 77.5t-57.5 200.5h145q-8 -67 26 -107t107 -40t119 39.5t64 107.5h149q-29 -123 -128 -200.5t-226 -77.5z" />
    <glyph glyph-name="uni0307" unicode="&#x307;" 
d="M379 1249h-184l36 213h185z" />
    <glyph glyph-name="uni0308" unicode="&#x308;" 
d="M246 1462h180l-37 -213h-180zM565 1249l37 213h180l-37 -213h-180z" />
    <glyph glyph-name="uni030A" unicode="&#x30a;" 
d="M221 1354q15 92 92 156.5t168 64.5t144.5 -64.5t38.5 -156.5q-17 -92 -93.5 -156.5t-167.5 -64.5t-145 64.5t-37 156.5zM342 1352q-8 -44 15 -72.5t67 -28.5t75.5 28t39.5 73t-14 72.5t-66 27.5t-77 -28t-40 -72z" />
    <glyph glyph-name="uni030B" unicode="&#x30b;" 
d="M879 1462h215l-340 -268h-136zM299 1194l260 268h215l-340 -268h-135z" />
    <glyph glyph-name="uni030C" unicode="&#x30c;" 
d="M252 1462h192l105 -172l166 172h192l-278 -268h-193z" />
    <glyph glyph-name="uni0312" unicode="&#x312;" 
d="M420 1241h-227l26 158q14 85 76.5 127.5t157.5 42.5l-13 -72q-31 -8 -51 -17.5t-29 -20.5t-11.5 -18t-4.5 -20h107z" />
    <glyph glyph-name="uni0326" unicode="&#x326;" 
d="M-35 -104h228l-29 -158q-15 -85 -76.5 -127.5t-155.5 -42.5l13 72q31 8 50.5 17t28 20.5t11 18t4.5 19.5h-107z" />
    <glyph glyph-name="uni0327" unicode="&#x327;" 
d="M70 -430q-104 0 -185 41l58 100q53 -39 118 -39q49 0 91 16t47 48q6 29 -18 46t-66 17q-35 0 -88 -16l-41 80l147 137h109l-105 -109l2 -4q24 15 72 15q71 0 113.5 -39.5t31.5 -110.5q-9 -49 -38.5 -86t-71.5 -57t-86 -29.5t-90 -9.5z" />
    <glyph glyph-name="uni0328" unicode="&#x328;" 
d="M352 0q-185 -123 -211 -219q-13 -49 18.5 -72.5t98.5 -23.5l-20 -115q-131 0 -196 46.5t-50 143.5q11 68 53.5 121t122.5 119h184z" />
    <glyph glyph-name="uni0335" unicode="&#x335;" 
d="M1374 1194h-698l20 115h699z" />
    <glyph glyph-name="uni0338" unicode="&#x338;" 
d="M1210 1008l-1122 -1041l-78 78l1131 1049z" />
    <glyph glyph-name="uni0374" unicode="&#x374;" horiz-adv-x="460" 
d="M340 1462h197l-195 -309h-137z" />
    <glyph glyph-name="uni0375" unicode="&#x375;" horiz-adv-x="481" 
d="M131 -418h-197l195 309h137z" />
    <glyph glyph-name="uni037E" unicode="&#x37e;" horiz-adv-x="462" 
d="M193 956h225l-43 -245h-225zM-82 -248l193 494h204l-233 -494h-164z" />
    <glyph glyph-name="tonos" unicode="&#x384;" horiz-adv-x="538" 
d="M315 1462h197l-195 -268h-137z" />
    <glyph glyph-name="dieresistonos" unicode="&#x385;" horiz-adv-x="696" 
d="M143 1462h181l-37 -213h-181zM326 1210l108 310h197l-168 -310h-137zM604 1249l37 213h180l-37 -213h-180z" />
    <glyph glyph-name="Alphatonos" unicode="&#x386;" horiz-adv-x="1406" 
d="M147 0h-204l788 1462h244l301 -1462h-197l-80 424h-626zM205 1155l106 307h191l-162 -307h-135zM453 578h518l-135 710h-7z" />
    <glyph glyph-name="anoteleia" unicode="&#x387;" horiz-adv-x="505" 
d="M244 666q54 0 92.5 -38.5t38.5 -92.5q0 -50 -39.5 -91t-89.5 -41q-54 0 -93.5 39t-39.5 93t38.5 92.5t92.5 38.5z" />
    <glyph glyph-name="Epsilontonos" unicode="&#x388;" horiz-adv-x="1196" 
d="M1231 1462l-29 -164h-717l-84 -473h674l-28 -163h-674l-88 -498h723l-29 -164h-918l258 1462h912zM-72 1155l107 307h190l-162 -307h-135z" />
    <glyph glyph-name="Etatonos" unicode="&#x389;" horiz-adv-x="1404" 
d="M1219 1462h194l-258 -1462h-194l114 651h-704l-115 -651h-195l258 1462h195l-115 -647h705zM-68 1155l107 307h190l-161 -307h-136z" />
    <glyph glyph-name="Iotatonos" unicode="&#x38a;" horiz-adv-x="505" 
d="M319 1462h195l-258 -1462h-195zM-63 1155l106 307h190l-161 -307h-135z" />
    <glyph glyph-name="Omicrontonos" unicode="&#x38c;" horiz-adv-x="1671" 
d="M956 1491q144 0 260.5 -39.5t190.5 -103.5t124.5 -148.5t71.5 -170t21 -173.5q0 -205 -64.5 -373.5t-177.5 -280t-265.5 -172.5t-328.5 -61q-138 0 -252 39t-190 103.5t-128.5 150.5t-75.5 177t-23 186q0 197 65 361t177.5 274t265.5 170.5t329 60.5zM-41 1155l107 307
h190l-162 -307h-135zM313 612q0 -60 15.5 -123t52 -127.5t90 -114.5t138.5 -82t188 -32q183 0 327.5 88t226 247t81.5 361q0 69 -13.5 134.5t-48 133t-87.5 117.5t-139.5 81.5t-195.5 31.5q-139 0 -255.5 -48.5t-201 -138.5t-131.5 -225.5t-47 -302.5z" />
    <glyph glyph-name="Upsilontonos" unicode="&#x38e;" horiz-adv-x="1277" 
d="M197 1462h221l260 -682h4l502 682h225l-661 -860l-107 -602h-195l107 602zM-174 1155l106 307h191l-162 -307h-135z" />
    <glyph glyph-name="Omegatonos" unicode="&#x38f;" horiz-adv-x="1495" 
d="M33 0l28 164h410l23 129q-76 24 -139.5 73.5t-109.5 124t-62 170.5t3 213q31 175 130.5 312.5t260 217t355.5 79.5q194 0 330 -80t193.5 -226.5t23.5 -336.5q-35 -199 -181.5 -353t-326.5 -206l-23 -117h406l-29 -164h-549l74 416q177 33 304 150t157 286q36 205 -74 336
t-326 131q-214 0 -368.5 -131t-190.5 -336q-31 -170 51 -287t254 -149l-73 -416h-551zM-16 1155l106 307h191l-162 -307h-135z" />
    <glyph glyph-name="iotadieresistonos" unicode="&#x390;" horiz-adv-x="518" 
d="M283 -6q-147 0 -190.5 73.5t-14.5 229.5l139 762h184l-135 -746q-15 -81 6.5 -115t85.5 -34q27 0 45 2l-24 -168q-66 -4 -96 -4zM6 1249l37 213h180l-37 -213h-180zM225 1210l109 310h196l-168 -310h-137zM504 1249l37 213h180l-37 -213h-180z" />
    <glyph glyph-name="Alpha" unicode="&#x391;" horiz-adv-x="1406" 
d="M147 0h-204l788 1462h244l301 -1462h-197l-80 424h-626zM453 578h518l-135 710h-7z" />
    <glyph glyph-name="Beta" unicode="&#x392;" horiz-adv-x="1286" 
d="M61 0l258 1462h476q143 0 245 -51q85 -44 132 -116.5t47 -161.5q0 -150 -82 -262.5t-226 -129.5q132 -34 192 -98t60 -178q0 -177 -97 -291t-280 -154q-84 -20 -200 -20h-525zM285 164h164q212 0 296 16q160 30 206 142q22 53 22 129q0 208 -334 208h-266zM403 823h175
q62 0 107.5 2t95 9.5t83.5 20t67 33.5t52.5 51t31 73t11.5 98q0 188 -303 188h-238z" />
    <glyph glyph-name="Gamma" unicode="&#x393;" horiz-adv-x="1058" 
d="M61 0l258 1462h865l-29 -164h-670l-229 -1298h-195z" />
    <glyph glyph-name="uni0394" unicode="&#x394;" horiz-adv-x="1447" 
d="M-57 0l823 1462h244l307 -1462h-1374zM242 160h852l-224 1128h-6z" />
    <glyph glyph-name="Epsilon" unicode="&#x395;" horiz-adv-x="1196" 
d="M1231 1462l-29 -164h-717l-84 -473h674l-28 -163h-674l-88 -498h723l-29 -164h-918l258 1462h912z" />
    <glyph glyph-name="Zeta" unicode="&#x396;" horiz-adv-x="1247" 
d="M29 176l1001 1114h-760l31 172h995l-30 -176l-998 -1114h826l-31 -172h-1065z" />
    <glyph glyph-name="Eta" unicode="&#x397;" horiz-adv-x="1404" 
d="M1219 1462h194l-258 -1462h-194l114 651h-704l-115 -651h-195l258 1462h195l-115 -647h705z" />
    <glyph glyph-name="Theta" unicode="&#x398;" horiz-adv-x="1671" 
d="M956 1491q144 0 260.5 -39.5t190.5 -103.5t124.5 -148.5t71.5 -170t21 -173.5q0 -205 -64.5 -373.5t-177.5 -280t-265.5 -172.5t-328.5 -61q-138 0 -252 39t-190 103.5t-128.5 150.5t-75.5 177t-23 186q0 197 65 361t177.5 274t265.5 170.5t329 60.5zM313 612
q0 -60 15.5 -123t52 -127.5t90 -114.5t138.5 -82t188 -32q183 0 327.5 88t226 247t81.5 361q0 69 -13.5 134.5t-48 133t-87.5 117.5t-139.5 81.5t-195.5 31.5q-139 0 -255.5 -48.5t-201 -138.5t-131.5 -225.5t-47 -302.5zM508 643l27 174h700l-29 -174h-698z" />
    <glyph glyph-name="Iota" unicode="&#x399;" horiz-adv-x="505" 
d="M319 1462h195l-258 -1462h-195z" />
    <glyph glyph-name="Kappa" unicode="&#x39a;" horiz-adv-x="1308" 
d="M256 0h-195l258 1462h195l-129 -733l803 733h252l-686 -624l428 -838h-221l-347 711l-274 -240z" />
    <glyph glyph-name="Lambda" unicode="&#x39b;" horiz-adv-x="1339" 
d="M-74 0l793 1462h227l279 -1462h-203l-223 1233h-4l-658 -1233h-211z" />
    <glyph glyph-name="Mu" unicode="&#x39c;" horiz-adv-x="1783" 
d="M61 0l258 1462l322 -2l195 -1247l632 1249h324l-258 -1462h-193l197 1112l25 145h-2l-646 -1257h-229l-205 1257h-4l-24 -143l-197 -1114h-195z" />
    <glyph glyph-name="Nu" unicode="&#x39d;" horiz-adv-x="1472" 
d="M319 1462h236l406 -930q12 -25 53 -118.5t65 -139.5q11 58 27.5 157.5t23.5 137.5l158 893h193l-258 -1462h-242l-399 924q-15 32 -53.5 120t-61.5 132q-14 -63 -32 -176.5t-21 -129.5l-154 -870h-199z" />
    <glyph glyph-name="Xi" unicode="&#x39e;" horiz-adv-x="1243" 
d="M-6 0l29 164h1067l-29 -164h-1067zM190 664l29 159h920l-29 -159h-920zM225 1298l29 164h1059l-29 -164h-1059z" />
    <glyph glyph-name="Omicron" unicode="&#x39f;" horiz-adv-x="1671" 
d="M956 1491q144 0 260.5 -39.5t190.5 -103.5t124.5 -148.5t71.5 -170t21 -173.5q0 -205 -64.5 -373.5t-177.5 -280t-265.5 -172.5t-328.5 -61q-138 0 -252 39t-190 103.5t-128.5 150.5t-75.5 177t-23 186q0 197 65 361t177.5 274t265.5 170.5t329 60.5zM313 612
q0 -60 15.5 -123t52 -127.5t90 -114.5t138.5 -82t188 -32q183 0 327.5 88t226 247t81.5 361q0 69 -13.5 134.5t-48 133t-87.5 117.5t-139.5 81.5t-195.5 31.5q-139 0 -255.5 -48.5t-201 -138.5t-131.5 -225.5t-47 -302.5z" />
    <glyph glyph-name="Pi" unicode="&#x3a0;" horiz-adv-x="1417" 
d="M1425 1462l-258 -1462h-194l229 1298h-717l-229 -1298h-195l258 1462h1106z" />
    <glyph glyph-name="Rho" unicode="&#x3a1;" horiz-adv-x="1220" 
d="M651 745q181 0 285 77.5t104 240.5q0 42 -14 81t-44.5 75t-87 57.5t-132.5 21.5h-277l-98 -553h264zM61 0l258 1462h484q105 0 189.5 -33.5t136 -89.5t79 -124t27.5 -140q0 -119 -47 -214t-127.5 -155t-185 -92t-222.5 -32h-295l-102 -582h-195z" />
    <glyph glyph-name="Sigma" unicode="&#x3a3;" horiz-adv-x="1216" 
d="M848 729l-563 -565h805l-29 -164h-1055l27 150l602 589l-397 574l26 149h1055l-29 -164h-827z" />
    <glyph glyph-name="Tau" unicode="&#x3a4;" horiz-adv-x="1165" 
d="M172 1298l29 164h1091l-28 -164h-449l-229 -1298h-195l230 1298h-449z" />
    <glyph glyph-name="Upsilon" unicode="&#x3a5;" horiz-adv-x="1277" 
d="M197 1462h221l260 -682h4l502 682h225l-661 -860l-107 -602h-195l107 602z" />
    <glyph glyph-name="Phi" unicode="&#x3a6;" horiz-adv-x="1632" 
d="M616 -49l33 188q-289 13 -441.5 137t-152.5 336q0 312 216 503.5t585 203.5l35 192h194l-34 -192q289 -12 444.5 -133.5t155.5 -333.5q0 -315 -219 -509t-588 -206l-33 -186h-195zM252 641q0 -156 109 -245t317 -99l151 864q-267 -14 -422 -153t-155 -367zM872 297
q268 14 425 155t157 369q0 154 -110 242t-320 98z" />
    <glyph glyph-name="Chi" unicode="&#x3a7;" horiz-adv-x="1335" 
d="M-74 0l668 756l-371 706h234l272 -551l488 551h237l-641 -725l408 -737h-234l-307 584l-514 -584h-240z" />
    <glyph glyph-name="Psi" unicode="&#x3a8;" horiz-adv-x="1523" 
d="M592 0l61 352q-300 10 -434 164t-84 430l90 516h195l-90 -516q-34 -194 55 -306t299 -122l166 944h194l-165 -944q183 9 305.5 123.5t154.5 304.5l93 516h194l-92 -516q-47 -267 -224.5 -427.5t-461.5 -166.5l-62 -352h-194z" />
    <glyph glyph-name="uni03A9" unicode="&#x3a9;" horiz-adv-x="1495" 
d="M33 0l28 164h410l23 129q-76 24 -139.5 73.5t-109.5 124t-62 170.5t3 213q31 175 130.5 312.5t260 217t355.5 79.5q194 0 330 -80t193.5 -226.5t23.5 -336.5q-35 -199 -181.5 -353t-326.5 -206l-23 -117h406l-29 -164h-549l74 416q177 33 304 150t157 286q36 205 -74 336
t-326 131q-214 0 -368.5 -131t-190.5 -336q-31 -170 51 -287t254 -149l-73 -416h-551z" />
    <glyph glyph-name="Iotadieresis" unicode="&#x3aa;" horiz-adv-x="505" 
d="M319 1462h195l-258 -1462h-195zM164 1589l37 213h184l-37 -213h-184zM532 1589l37 213h185l-37 -213h-185z" />
    <glyph glyph-name="Upsilondieresis" unicode="&#x3ab;" horiz-adv-x="1277" 
d="M197 1462h221l260 -682h4l502 682h225l-661 -860l-107 -602h-195l107 602zM514 1589l37 213h184l-37 -213h-184zM883 1589l37 213h184l-37 -213h-184z" />
    <glyph glyph-name="alphatonos" unicode="&#x3ac;" horiz-adv-x="1296" 
d="M469 -23q-202 0 -306 120.5t-104 308.5q0 101 25 199.5t74 184.5t115.5 151.5t156.5 103.5t191 38q142 0 227.5 -55t109.5 -137h7l30 168h183l-138 -750q-13 -81 9 -115t86 -34q29 0 47 2l-25 -168q-33 -4 -96 -4q-115 0 -165 43t-52 131q-55 -82 -149.5 -134.5
t-225.5 -52.5zM250 430q0 -133 66.5 -209t195.5 -76q184 0 303 138.5t119 349.5q0 133 -72 207.5t-207 74.5q-170 0 -287.5 -138.5t-117.5 -346.5zM528 1194l136 268h196l-194 -268h-138z" />
    <glyph glyph-name="epsilontonos" unicode="&#x3ad;" horiz-adv-x="1067" 
d="M436 -23q-189 0 -296 70t-107 195q0 118 75.5 199.5t217.5 113.5v2q-82 25 -126 75.5t-44 123.5q0 147 120 235t320 88q196 0 317.5 -89.5t118.5 -254.5h-170q1 90 -71 138.5t-191 48.5q-104 0 -180 -47t-76 -127q0 -62 53 -99t156 -37h135l-26 -139h-138
q-132 0 -212.5 -55t-80.5 -144q0 -67 60.5 -105t169.5 -38q141 0 232 50.5t122 131.5h176q-53 -159 -192 -247.5t-363 -88.5zM518 1194l135 268h197l-195 -268h-137z" />
    <glyph glyph-name="etatonos" unicode="&#x3ae;" horiz-adv-x="1138" 
d="M664 -410l79 445l97 547q14 82 14.5 143t-11.5 99.5t-37 62t-56.5 32.5t-75.5 9q-125 0 -223.5 -107t-133.5 -307l-90 -514h-184l186 1059h172l-32 -185q71 108 155.5 158.5t200.5 50.5q100 0 170 -36.5t103 -99t43.5 -145.5t-9.5 -177l-90 -510l-12 -66l-8 -49l-74 -410
h-184zM623 1194l135 268h196l-194 -268h-137z" />
    <glyph glyph-name="iotatonos" unicode="&#x3af;" horiz-adv-x="518" 
d="M283 -6q-147 0 -190.5 73.5t-14.5 229.5l139 762h184l-135 -746q-15 -81 6.5 -115t85.5 -34q27 0 45 2l-24 -168q-66 -4 -96 -4zM207 1194l135 268h197l-195 -268h-137z" />
    <glyph glyph-name="upsilondieresistonos" unicode="&#x3b0;" horiz-adv-x="1136" 
d="M489 -20q-222 0 -323.5 112t-61.5 336l113 631h184l-106 -594q-14 -65 -8.5 -122.5t26 -101t68 -69t117.5 -25.5q134 0 213 88.5t104 229.5l107 594h184l-111 -631q-40 -227 -165.5 -337.5t-340.5 -110.5zM354 1249l37 213h180l-36 -213h-181zM573 1210l109 310h197
l-168 -310h-138zM852 1249l37 213h180l-37 -213h-180z" />
    <glyph glyph-name="alpha" unicode="&#x3b1;" horiz-adv-x="1296" 
d="M469 -23q-202 0 -306 120.5t-104 308.5q0 101 25 199.5t74 184.5t115.5 151.5t156.5 103.5t191 38q142 0 227.5 -55t109.5 -137h7l30 168h183l-138 -750q-13 -81 9 -115t86 -34q29 0 47 2l-25 -168q-33 -4 -96 -4q-115 0 -165 43t-52 131q-55 -82 -149.5 -134.5
t-225.5 -52.5zM250 430q0 -133 66.5 -209t195.5 -76q184 0 303 138.5t119 349.5q0 133 -72 207.5t-207 74.5q-170 0 -287.5 -138.5t-117.5 -346.5z" />
    <glyph glyph-name="beta" unicode="&#x3b2;" horiz-adv-x="1165" 
d="M203 991q42 245 185 371.5t355 126.5q176 0 289 -79.5t113 -221.5q0 -138 -88.5 -244.5t-237.5 -146.5v-2q71 -16 126 -51t87 -82t47 -100.5t13 -110.5q-8 -206 -145 -341t-345 -135q-129 0 -224.5 48.5t-133.5 134.5h-2q0 1 -1 2t-1 2l-101 -565h-184zM299 492
q-22 -157 50.5 -247.5t228.5 -90.5q135 0 230 96t95 231q0 105 -80.5 165.5t-193.5 60.5h-86l22 147q177 5 282 82.5t105 206.5q0 83 -60 129.5t-159 46.5q-130 0 -223 -71.5t-117 -211.5z" />
    <glyph glyph-name="gamma" unicode="&#x3b3;" horiz-adv-x="1122" 
d="M371 -12q-77 316 -246 1071h188q40 -192 99 -461t84 -387h4q94 152 258.5 451.5t220.5 396.5h207q-92 -137 -322.5 -537.5t-306.5 -527.5l-74 -406h-184z" />
    <glyph glyph-name="delta" unicode="&#x3b4;" horiz-adv-x="1130" 
d="M479 -23q-197 0 -312.5 107.5t-115.5 288.5q0 199 120 355t310 200v2q-186 88 -186 229q0 129 86.5 208.5t268.5 106t462 -17.5l-27 -158q-141 22 -251 25.5t-177 -8t-110 -35.5t-59.5 -51.5t-16.5 -59.5t19.5 -60t47 -47.5t78.5 -41.5t91 -35.5t108 -34.5
q122 -38 183 -136.5t61 -231.5q0 -168 -76.5 -307t-209.5 -218.5t-294 -79.5zM240 403q0 -116 67.5 -188t184.5 -72q156 0 267 123.5t111 294.5q0 118 -67 190t-185 72q-155 0 -266.5 -123.5t-111.5 -296.5z" />
    <glyph glyph-name="epsilon" unicode="&#x3b5;" horiz-adv-x="1067" 
d="M436 -23q-189 0 -296 70t-107 195q0 118 75.5 199.5t217.5 113.5v2q-82 25 -126 75.5t-44 123.5q0 147 120 235t320 88q196 0 317.5 -89.5t118.5 -254.5h-170q1 90 -71 138.5t-191 48.5q-104 0 -180 -47t-76 -127q0 -62 53 -99t156 -37h135l-26 -139h-138
q-132 0 -212.5 -55t-80.5 -144q0 -67 60.5 -105t169.5 -38q141 0 232 50.5t122 131.5h176q-53 -159 -192 -247.5t-363 -88.5z" />
    <glyph glyph-name="zeta" unicode="&#x3b6;" horiz-adv-x="958" 
d="M559 -324q32 84 28 142t-58 96.5t-179 71.5q-164 43 -243 124.5t-76 221.5q1 60 24.5 125.5t58.5 126t96 134.5t118 135t146 143.5t157.5 143t173.5 150.5h-594l25 172h854l-25 -157q-364 -315 -495 -440q-279 -269 -335 -427q-16 -46 -16 -86q0 -41 15.5 -73t31 -50.5
t63 -39t69 -27t92.5 -26.5q8 -3 12.5 -4t12 -3t13.5 -4q73 -21 123.5 -46.5t79.5 -58.5t43 -67.5t11.5 -81t-12.5 -91t-30 -104.5h-184z" />
    <glyph glyph-name="eta" unicode="&#x3b7;" horiz-adv-x="1138" 
d="M664 -410l79 445l97 547q14 82 14.5 143t-11.5 99.5t-37 62t-56.5 32.5t-75.5 9q-125 0 -223.5 -107t-133.5 -307l-90 -514h-184l186 1059h172l-32 -185q71 108 155.5 158.5t200.5 50.5q100 0 170 -36.5t103 -99t43.5 -145.5t-9.5 -177l-90 -510l-12 -66l-8 -49l-74 -410
h-184z" />
    <glyph glyph-name="theta" unicode="&#x3b8;" horiz-adv-x="1296" 
d="M567 -23q-211 0 -333.5 146t-122.5 397q0 264 91.5 486.5t251 352.5t349.5 130q211 0 334 -145.5t123 -397.5q0 -263 -91.5 -485.5t-251 -353t-350.5 -130.5zM299 539q0 -183 75 -289.5t206 -106.5q148 0 273.5 144t182.5 366h-731q-6 -55 -6 -114zM332 811h733
q6 59 6 119q0 184 -73.5 289.5t-204.5 105.5q-149 0 -277 -145.5t-184 -368.5z" />
    <glyph glyph-name="iota" unicode="&#x3b9;" horiz-adv-x="518" 
d="M283 -6q-147 0 -190.5 73.5t-14.5 229.5l139 762h184l-135 -746q-15 -81 6.5 -115t85.5 -34q27 0 45 2l-24 -168q-66 -4 -96 -4z" />
    <glyph glyph-name="kappa" unicode="&#x3ba;" horiz-adv-x="1067" 
d="M211 0h-184l186 1059h184l-82 -467l586 467h240l-574 -479l379 -580h-217l-309 459l-150 -119z" />
    <glyph glyph-name="lambda" unicode="&#x3bb;" horiz-adv-x="1054" 
d="M-76 0l602 1065l-26 96q-21 76 -51.5 107.5t-106.5 31.5h-88l25 168h88q64 0 111 -9t79 -28.5t53 -42.5t35 -60t22.5 -72.5t18.5 -86.5q4 -21 6 -32q66 -265 140 -603.5t112 -533.5h-188l-172 815h-2l-463 -815h-195z" />
    <glyph glyph-name="uni03BC" unicode="&#x3bc;" horiz-adv-x="1150" 
d="M-41 -403l258 1462h184l-116 -668q-25 -133 28.5 -196.5t167.5 -63.5q122 0 215.5 104t128.5 304l93 520h184l-187 -1059h-172l31 182q-48 -98 -142 -152.5t-202 -54.5q-139 0 -213 41l-74 -419h-184z" />
    <glyph glyph-name="nu" unicode="&#x3bd;" horiz-adv-x="1034" 
d="M299 1059q20 -111 75 -393t81 -441h4q59 109 215 390.5t244 443.5h194q-261 -470 -586 -1059h-202q-15 71 -211 1059h186z" />
    <glyph glyph-name="xi" unicode="&#x3be;" horiz-adv-x="948" 
d="M629 -324q30 81 25.5 136t-60 91.5t-184.5 69.5q-89 23 -151 46.5t-116 59t-81 84.5t-27 113q0 114 68 208t179 150.5t248 74.5v2q-160 26 -248.5 93.5t-88.5 164.5q0 116 84.5 203t250.5 141l-299 -10l27 159h838l-19 -104l-6 -47q-320 -15 -507 -107.5t-187 -222.5
q0 -85 116.5 -138t337.5 -59l-24 -166q-266 0 -424 -77.5t-158 -206.5q0 -55 45 -94t93.5 -56t160.5 -47q19 -5 29 -8q70 -18 121.5 -40.5t85.5 -46.5t53.5 -55.5t28 -63t5 -73t-13 -81.5t-26.5 -93h-176z" />
    <glyph glyph-name="omicron" unicode="&#x3bf;" horiz-adv-x="1204" 
d="M526 -23q-159 0 -271 69t-160 182.5t-32 252.5q16 170 93 304t213 214t309 80q158 0 270.5 -68t161 -180t31.5 -249q-16 -171 -93.5 -307.5t-213.5 -217t-308 -80.5zM252 494q-22 -150 54.5 -250.5t223.5 -100.5q165 0 281.5 119.5t140.5 302.5q23 152 -53.5 251
t-224.5 99q-164 0 -281 -119.5t-141 -301.5z" />
    <glyph glyph-name="pi" unicode="&#x3c0;" horiz-adv-x="1304" 
d="M156 0l161 907h-194l24 152h1199l-25 -152h-207l-108 -594q-15 -81 6.5 -115t85.5 -34q27 0 45 2l-25 -168q-66 -4 -96 -4q-147 0 -190.5 73.5t-14.5 229.5l111 610h-426l-162 -907h-184z" />
    <glyph glyph-name="rho" unicode="&#x3c1;" horiz-adv-x="1202" 
d="M569 -23q-144 0 -230 59.5t-110 149.5l-108 -596h-176l166 942q32 243 198 395t387 152q212 0 335.5 -130.5t105.5 -360.5q-9 -168 -86 -308t-204.5 -221.5t-277.5 -81.5zM276 457q-6 -144 63.5 -229t203.5 -85q165 0 281 130.5t124 320.5q8 143 -61 232t-203 89
q-165 0 -282.5 -132.5t-125.5 -325.5z" />
    <glyph glyph-name="uni03C2" unicode="&#x3c2;" horiz-adv-x="1155" 
d="M70 436q0 278 169.5 460.5t428.5 182.5q190 0 314 -99t136 -288h-178q-13 110 -87.5 166.5t-188.5 56.5q-167 0 -286.5 -129.5t-119.5 -312.5q0 -124 76.5 -193.5t232.5 -117.5q208 -65 264.5 -176t-8.5 -310h-176q49 144 11.5 211.5t-209.5 124.5q-85 28 -149.5 63
t-118.5 85t-82.5 120t-28.5 156z" />
    <glyph glyph-name="sigma" unicode="&#x3c3;" horiz-adv-x="1214" 
d="M526 -23q-209 0 -337 123.5t-128 319.5q0 185 80.5 336t224.5 237t324 86t572 -14l-25 -160l-250 6q76 -48 115 -127.5t39 -175.5q0 -170 -80 -315t-222 -230.5t-313 -85.5zM250 442q0 -132 77.5 -215.5t209.5 -83.5q113 0 211.5 64.5t156.5 173.5t58 235q0 133 -77 216
t-208 83q-113 0 -212 -64.5t-157.5 -173.5t-58.5 -235z" />
    <glyph glyph-name="tau" unicode="&#x3c4;" horiz-adv-x="956" 
d="M102 901l25 158h891l-27 -158h-383l-108 -588q-13 -81 9 -115t97 -34q31 0 58 2l-27 -168q-33 -4 -105 -4q-107 0 -161.5 35t-64 102t6.5 166l109 604h-320z" />
    <glyph glyph-name="upsilon" unicode="&#x3c5;" horiz-adv-x="1136" 
d="M489 -20q-222 0 -323.5 112t-61.5 336l113 631h184l-106 -594q-14 -65 -8.5 -122.5t26 -101t68 -69t117.5 -25.5q134 0 213 88.5t104 229.5l107 594h184l-111 -631q-40 -227 -165.5 -337.5t-340.5 -110.5z" />
    <glyph glyph-name="phi" unicode="&#x3c6;" horiz-adv-x="1554" 
d="M838 1462h186l-68 -383q255 -10 396 -133.5t141 -314.5q0 -136 -55 -256t-151.5 -206t-232.5 -137t-292 -55l-70 -387h-184l67 387q-246 12 -380 135t-134 314q0 180 92 328t254.5 234t362.5 91zM250 455q0 -136 93.5 -221t262.5 -89l135 770q-137 -8 -248.5 -68
t-177 -163t-65.5 -229zM791 147q220 12 367 141t147 314q0 137 -99 223.5t-278 92.5z" />
    <glyph glyph-name="chi" unicode="&#x3c7;" horiz-adv-x="1146" 
d="M-137 -410l571 748l-301 721h193l235 -553l436 553h203l-557 -717l309 -752h-192l-244 578l-448 -578h-205z" />
    <glyph glyph-name="psi" unicode="&#x3c8;" horiz-adv-x="1615" 
d="M883 1462h186l-231 -1315q191 11 317 120t158 292l90 500h184l-94 -535q-45 -252 -223 -396t-463 -148l-68 -390h-186l70 390q-272 12 -407 157.5t-93 386.5l94 535h184l-88 -500q-34 -187 55 -296t283 -116z" />
    <glyph glyph-name="omega" unicode="&#x3c9;" horiz-adv-x="1701" 
d="M426 -23q-161 0 -257.5 93.5t-96.5 267.5q0 192 70 357t198 270.5t289 121.5l-27 -172q-95 -16 -175 -105.5t-122.5 -206.5t-42.5 -226t52 -170.5t143 -61.5q117 0 204.5 108t120.5 288l35 194h141q-37 -229 -40 -250q-25 -155 24.5 -247.5t159.5 -92.5q135 0 229 138.5
t94 339.5q0 117 -47.5 196t-136.5 96l27 172q162 -20 255 -145.5t93 -306.5q0 -189 -64 -339.5t-180.5 -234.5t-263.5 -84q-136 0 -218 85t-79 217h-2q-49 -140 -147.5 -221t-235.5 -81z" />
    <glyph glyph-name="iotadieresis" unicode="&#x3ca;" horiz-adv-x="518" 
d="M283 -6q-147 0 -190.5 73.5t-14.5 229.5l139 762h184l-135 -746q-15 -81 6.5 -115t85.5 -34q27 0 45 2l-24 -168q-66 -4 -96 -4zM76 1249l37 213h180l-37 -213h-180zM432 1249l37 213h180l-37 -213h-180z" />
    <glyph glyph-name="upsilondieresis" unicode="&#x3cb;" horiz-adv-x="1136" 
d="M489 -20q-222 0 -323.5 112t-61.5 336l113 631h184l-106 -594q-14 -65 -8.5 -122.5t26 -101t68 -69t117.5 -25.5q134 0 213 88.5t104 229.5l107 594h184l-111 -631q-40 -227 -165.5 -337.5t-340.5 -110.5zM424 1249l37 213h180l-37 -213h-180zM780 1249l37 213h180
l-36 -213h-181z" />
    <glyph glyph-name="omicrontonos" unicode="&#x3cc;" horiz-adv-x="1204" 
d="M526 -23q-159 0 -271 69t-160 182.5t-32 252.5q16 170 93 304t213 214t309 80q158 0 270.5 -68t161 -180t31.5 -249q-16 -171 -93.5 -307.5t-213.5 -217t-308 -80.5zM252 494q-22 -150 54.5 -250.5t223.5 -100.5q165 0 281.5 119.5t140.5 302.5q23 152 -53.5 251
t-224.5 99q-164 0 -281 -119.5t-141 -301.5zM575 1194l136 268h196l-194 -268h-138z" />
    <glyph glyph-name="upsilontonos" unicode="&#x3cd;" horiz-adv-x="1136" 
d="M489 -20q-222 0 -323.5 112t-61.5 336l113 631h184l-106 -594q-14 -65 -8.5 -122.5t26 -101t68 -69t117.5 -25.5q134 0 213 88.5t104 229.5l107 594h184l-111 -631q-40 -227 -165.5 -337.5t-340.5 -110.5zM555 1194l135 268h197l-195 -268h-137z" />
    <glyph glyph-name="omegatonos" unicode="&#x3ce;" horiz-adv-x="1701" 
d="M426 -23q-161 0 -257.5 93.5t-96.5 267.5q0 192 70 357t198 270.5t289 121.5l-27 -172q-95 -16 -175 -105.5t-122.5 -206.5t-42.5 -226t52 -170.5t143 -61.5q117 0 204.5 108t120.5 288l35 194h141q-37 -229 -40 -250q-25 -155 24.5 -247.5t159.5 -92.5q135 0 229 138.5
t94 339.5q0 117 -47.5 196t-136.5 96l27 172q162 -20 255 -145.5t93 -306.5q0 -189 -64 -339.5t-180.5 -234.5t-263.5 -84q-136 0 -218 85t-79 217h-2q-49 -140 -147.5 -221t-235.5 -81zM842 1194l135 268h197l-195 -268h-137z" />
    <glyph glyph-name="uni03CF" unicode="&#x3cf;" horiz-adv-x="1089" 
d="M33 0l33 184h-185l27 154h184l168 948h189l-87 -483l596 483h232l-576 -463l390 -485l-27 -154h-723l-33 -184h-188zM281 338h505l-307 377l-153 -123z" />
    <glyph glyph-name="uni03D7" unicode="&#x3d7;" horiz-adv-x="1136" 
d="M223 0h-184l186 1059h185l-84 -479l598 479h229l-586 -490l260 -358l152 133l100 -139l-733 -615l-231 2l565 492l-266 360l-131 -104z" />
    <glyph glyph-name="uni0400" unicode="&#x400;" horiz-adv-x="1196" 
d="M1231 1462l-29 -164h-717l-84 -473h674l-28 -163h-674l-88 -498h723l-29 -164h-918l258 1462h912zM414 1802h274l258 -213h-205z" />
    <glyph glyph-name="uni0401" unicode="&#x401;" horiz-adv-x="1196" 
d="M1231 1462l-29 -164h-717l-84 -473h674l-28 -163h-674l-88 -498h723l-29 -164h-918l258 1462h912zM528 1589l37 213h185l-37 -213h-185zM897 1589l37 213h184l-37 -213h-184z" />
    <glyph glyph-name="uni0402" unicode="&#x402;" horiz-adv-x="1495" 
d="M971 891q232 0 341 -107t109 -288q0 -226 -150.5 -366t-385.5 -140q-111 0 -213 45l43 151q94 -32 164 -32q153 0 248.5 101.5t95.5 242.5q0 117 -77.5 173t-240.5 56q-155 0 -309 -41l-121 -686h-194l229 1298h-387l29 164h1091l-29 -164h-509l-80 -452q200 45 346 45z
" />
    <glyph glyph-name="uni0403" unicode="&#x403;" horiz-adv-x="1058" 
d="M61 0l258 1462h865l-29 -164h-670l-229 -1298h-195zM666 1589l295 213h274l-365 -213h-204z" />
    <glyph glyph-name="uni0404" unicode="&#x404;" horiz-adv-x="1617" 
d="M788 -31q-138 0 -252 39t-190 103.5t-128.5 150.5t-75.5 177t-23 186q0 197 65 361t177.5 274t265.5 170.5t329 60.5q116 0 213 -26t164.5 -69.5t119.5 -104.5t82.5 -125t49.5 -138h-184q-101 299 -453 299q-233 0 -396.5 -131.5t-215.5 -370.5h694l-29 -163h-686
q-2 -16 -2 -50q0 -60 15.5 -123t52 -127.5t90 -114.5t138.5 -82t188 -32q178 0 317 81.5t205 225.5h188q-100 -221 -286 -346t-433 -125z" />
    <glyph glyph-name="uni0405" unicode="&#x405;" horiz-adv-x="1263" 
d="M268 453q15 -87 55 -152.5t95.5 -101.5t114 -53t120.5 -17q128 0 221 69.5t93 186.5q0 32 -7.5 59.5t-18.5 48t-32 40t-39 32t-49 27.5t-53 24t-59 24.5t-60 25.5q-59 26 -94 42t-85 43t-80 49.5t-64.5 56t-53 68t-31 80t-12.5 97.5q0 96 42 172.5t113 124.5t159.5 73
t185.5 25q213 0 336 -115t156 -325h-187q-22 132 -98.5 204t-206.5 72q-136 0 -217.5 -61t-81.5 -168q0 -40 16 -74.5t39 -59.5t65.5 -51.5t79 -44t95.5 -43.5q179 -77 243 -115q140 -86 176 -207q15 -49 15 -108q0 -94 -29 -169t-77.5 -124t-115.5 -82t-139.5 -47
t-152.5 -14q-228 0 -387 129.5t-182 358.5h192z" />
    <glyph glyph-name="uni0406" unicode="&#x406;" horiz-adv-x="505" 
d="M319 1462h195l-258 -1462h-195z" />
    <glyph glyph-name="uni0407" unicode="&#x407;" horiz-adv-x="505" 
d="M319 1462h195l-258 -1462h-195zM164 1589l37 213h184l-37 -213h-184zM532 1589l37 213h185l-37 -213h-185z" />
    <glyph glyph-name="uni0408" unicode="&#x408;" horiz-adv-x="1024" 
d="M223 358q-14 -112 43.5 -168.5t161.5 -56.5q46 0 82 14t60.5 37.5t43 61t30 77t20.5 91.5l186 1048h194l-184 -1044q-19 -111 -49.5 -189t-82 -138t-129 -89t-183.5 -29q-115 0 -205.5 45t-139 135t-32.5 209l10 78h184z" />
    <glyph glyph-name="uni0409" unicode="&#x409;" horiz-adv-x="1955" 
d="M-63 -8l28 164h19q67 0 118 39q58 45 97.5 118t83.5 191q23 62 46 134t38.5 126.5t41 157t37 152t44 190.5t45.5 198h860l-103 -581h240q105 0 189.5 -33.5t136 -89.5t79 -124t27.5 -140q0 -158 -76 -271.5t-201 -168t-284 -54.5h-461l229 1298h-487
q-68 -287 -93.5 -390.5t-69.5 -253t-91 -263.5q-96 -235 -221 -325q-104 -74 -225 -74h-47zM1165 164h215q181 0 285 77t104 240q0 42 -14 81t-44.5 75.5t-87 58t-132.5 21.5h-227z" />
    <glyph glyph-name="uni040A" unicode="&#x40a;" horiz-adv-x="1925" 
d="M256 0h-195l258 1462h195l-111 -626h664l111 626h194l-110 -626h239q198 0 312 -114t114 -286q0 -133 -70.5 -233t-191.5 -151.5t-274 -51.5h-471l118 672h-663zM1143 164h256q165 0 254.5 72t89.5 200q0 109 -66.5 172.5t-199.5 63.5h-244z" />
    <glyph glyph-name="uni040B" unicode="&#x40b;" horiz-adv-x="1523" 
d="M281 0l229 1298h-387l29 164h1091l-29 -164h-509l-80 -448q174 41 338 41q265 0 375.5 -124t72.5 -339l-76 -428h-194l69 399q29 163 -48 245.5t-257 82.5q-155 0 -309 -41l-121 -686h-194z" />
    <glyph glyph-name="uni040C" unicode="&#x40c;" horiz-adv-x="1318" 
d="M961 0l-416 662h-172l-117 -662h-195l258 1462h195l-113 -637h160l608 637h240l-690 -704l471 -758h-229zM721 1589l295 213h274l-364 -213h-205z" />
    <glyph glyph-name="uni040D" unicode="&#x40d;" horiz-adv-x="1472" 
d="M61 0l258 1462h195l-156 -868q-9 -57 -29 -159.5t-26 -135.5q36 43 106.5 131t106.5 131l746 901h219l-258 -1462h-195l156 868q9 57 29 159.5t26 135.5q-36 -43 -106.5 -131t-106.5 -131l-745 -901h-220zM532 1802h275l258 -213h-205z" />
    <glyph glyph-name="uni040E" unicode="&#x40e;" horiz-adv-x="1251" 
d="M117 0l28 164h76q39 0 68 7.5t52 19.5t50.5 42t49.5 59.5t63 88.5l28 41l-335 1040h206l259 -841l530 841h217l-743 -1155q-116 -181 -213 -244t-232 -63h-104zM553 1806h135q-9 -67 29.5 -106t113.5 -39q76 0 128.5 39t64.5 106h147q-29 -119 -123 -187.5t-229 -68.5
t-206 68.5t-60 187.5z" />
    <glyph glyph-name="uni040F" unicode="&#x40f;" horiz-adv-x="1417" 
d="M465 -326l57 326h-461l258 1462h195l-229 -1298h716l230 1298h194l-258 -1462h-460l-58 -326h-184z" />
    <glyph glyph-name="uni0410" unicode="&#x410;" horiz-adv-x="1406" 
d="M147 0h-204l788 1462h244l301 -1462h-197l-80 424h-626zM453 578h518l-135 710h-7z" />
    <glyph glyph-name="uni0411" unicode="&#x411;" horiz-adv-x="1245" 
d="M61 0l258 1462h879l-29 -164h-684l-77 -438h292q105 0 190 -33.5t136.5 -88.5t79 -120.5t27.5 -134.5q0 -116 -47 -209.5t-127.5 -152.5t-185 -90t-222.5 -31h-490zM285 164h264q181 0 285 75t104 232q0 38 -14.5 75t-44.5 72t-87 56.5t-133 21.5h-276l-4 4z" />
    <glyph glyph-name="uni0412" unicode="&#x412;" horiz-adv-x="1275" 
d="M61 0l258 1462h476q143 0 245 -51q85 -44 132 -116.5t47 -161.5q0 -150 -82 -262.5t-226 -129.5q132 -34 192 -98t60 -178q0 -177 -97 -291t-280 -154q-84 -20 -200 -20h-525zM285 164h164q212 0 296 16q160 30 206 142q22 53 22 129q0 208 -334 208h-266zM403 823h175
q62 0 107.5 2t95 9.5t83.5 20t67 33.5t52.5 51t31 73t11.5 98q0 188 -303 188h-238z" />
    <glyph glyph-name="uni0413" unicode="&#x413;" horiz-adv-x="1058" 
d="M61 0l258 1462h865l-29 -164h-670l-229 -1298h-195z" />
    <glyph glyph-name="uni0414" unicode="&#x414;" horiz-adv-x="1495" 
d="M1450 1462l-229 -1298h155l-94 -533h-184l65 369h-1032l-65 -369h-185l94 533h142q121 164 213 385q61 144 110 328.5t121 499.5q4 19 6.5 29t6 26.5t6.5 29.5h870zM319 164h707l201 1134h-502q-54 -220 -77 -312.5t-62 -224.5t-76 -224q-88 -222 -191 -373z" />
    <glyph glyph-name="uni0415" unicode="&#x415;" horiz-adv-x="1196" 
d="M1231 1462l-29 -164h-717l-84 -473h674l-28 -163h-674l-88 -498h723l-29 -164h-918l258 1462h912z" />
    <glyph glyph-name="uni0416" unicode="&#x416;" horiz-adv-x="1906" 
d="M1561 0l-353 662h-135l-117 -662h-194l117 662h-119l-588 -662h-233l675 758l-378 704h223l321 -637h127l113 637h194l-112 -637h115l546 637h236l-627 -704l408 -758h-219z" />
    <glyph glyph-name="uni0417" unicode="&#x417;" horiz-adv-x="1306" 
d="M248 1071q50 185 191 295.5t374 110.5q199 0 318.5 -98.5t119.5 -243.5q0 -127 -77 -213t-226 -142q117 -30 182.5 -108.5t65.5 -192.5q0 -229 -164.5 -367.5t-447.5 -138.5q-264 0 -390 118.5t-114 328.5h190q-5 -77 18 -133.5t69 -88.5t104 -46.5t131 -14.5
q187 0 299.5 94.5t112.5 251.5q0 56 -23 97t-65 63.5t-92 32.5t-111 10h-217l28 164h203q141 0 233.5 82t92.5 207q0 87 -65 130.5t-187 43.5q-281 0 -361 -242h-192z" />
    <glyph glyph-name="uni0418" unicode="&#x418;" horiz-adv-x="1472" 
d="M61 0l258 1462h195l-156 -868q-9 -57 -29 -159.5t-26 -135.5q36 43 106.5 131t106.5 131l746 901h219l-258 -1462h-195l156 868q9 57 29 159.5t26 135.5q-36 -43 -106.5 -131t-106.5 -131l-745 -901h-220z" />
    <glyph glyph-name="uni0419" unicode="&#x419;" horiz-adv-x="1472" 
d="M61 0l258 1462h195l-156 -868q-9 -57 -29 -159.5t-26 -135.5q36 43 106.5 131t106.5 131l746 901h219l-258 -1462h-195l156 868q9 57 29 159.5t26 135.5q-36 -43 -106.5 -131t-106.5 -131l-745 -901h-220zM655 1806h136q-9 -67 29.5 -106t113.5 -39q76 0 128 39t64 106
h148q-29 -119 -123 -187.5t-229 -68.5t-206.5 68.5t-60.5 187.5z" />
    <glyph glyph-name="uni041A" unicode="&#x41a;" horiz-adv-x="1318" 
d="M961 0l-416 662h-172l-117 -662h-195l258 1462h195l-113 -637h160l608 637h240l-690 -704l471 -758h-229z" />
    <glyph glyph-name="uni041B" unicode="&#x41b;" horiz-adv-x="1425" 
d="M-63 -8l28 164h19q64 0 118 47q58 41 99 117t82 186q17 43 33.5 93t29.5 91.5t30.5 109t27.5 107.5t30.5 126.5t29.5 127t33.5 148.5t34.5 153h902l-258 -1464h-195l229 1300h-526q-87 -369 -137 -554.5t-113 -348.5q-92 -235 -221 -332q-104 -71 -252 -71h-24z" />
    <glyph glyph-name="uni041C" unicode="&#x41c;" horiz-adv-x="1783" 
d="M61 0l258 1462l322 -2l195 -1247l632 1249h324l-258 -1462h-193l197 1112l25 145h-2l-646 -1257h-229l-205 1257h-4l-24 -143l-197 -1114h-195z" />
    <glyph glyph-name="uni041D" unicode="&#x41d;" horiz-adv-x="1404" 
d="M1219 1462h194l-258 -1462h-194l114 651h-704l-115 -651h-195l258 1462h195l-115 -647h705z" />
    <glyph glyph-name="uni041E" unicode="&#x41e;" horiz-adv-x="1671" 
d="M956 1491q144 0 260.5 -39.5t190.5 -103.5t124.5 -148.5t71.5 -170t21 -173.5q0 -205 -64.5 -373.5t-177.5 -280t-265.5 -172.5t-328.5 -61q-138 0 -252 39t-190 103.5t-128.5 150.5t-75.5 177t-23 186q0 197 65 361t177.5 274t265.5 170.5t329 60.5zM313 612
q0 -60 15.5 -123t52 -127.5t90 -114.5t138.5 -82t188 -32q183 0 327.5 88t226 247t81.5 361q0 69 -13.5 134.5t-48 133t-87.5 117.5t-139.5 81.5t-195.5 31.5q-139 0 -255.5 -48.5t-201 -138.5t-131.5 -225.5t-47 -302.5z" />
    <glyph glyph-name="uni041F" unicode="&#x41f;" horiz-adv-x="1417" 
d="M1425 1462l-258 -1462h-194l229 1298h-717l-229 -1298h-195l258 1462h1106z" />
    <glyph glyph-name="uni0420" unicode="&#x420;" horiz-adv-x="1220" 
d="M651 745q181 0 285 77.5t104 240.5q0 42 -14 81t-44.5 75t-87 57.5t-132.5 21.5h-277l-98 -553h264zM61 0l258 1462h484q105 0 189.5 -33.5t136 -89.5t79 -124t27.5 -140q0 -119 -47 -214t-127.5 -155t-185 -92t-222.5 -32h-295l-102 -582h-195z" />
    <glyph glyph-name="uni0421" unicode="&#x421;" horiz-adv-x="1617" 
d="M788 -31q-138 0 -252 39t-190 103.5t-128.5 150.5t-75.5 177t-23 186q0 197 65 361t177.5 274t265.5 170.5t329 60.5q116 0 213 -26t164.5 -69.5t119.5 -104.5t82.5 -125t49.5 -138h-184q-101 299 -453 299q-139 0 -255.5 -48.5t-201 -138.5t-131.5 -225.5t-47 -302.5
q0 -60 15.5 -123t52 -127.5t90 -114.5t138.5 -82t188 -32q178 0 317 81.5t205 225.5h188q-100 -221 -286 -346t-433 -125z" />
    <glyph glyph-name="uni0422" unicode="&#x422;" horiz-adv-x="1165" 
d="M172 1298l29 164h1091l-28 -164h-449l-229 -1298h-195l230 1298h-449z" />
    <glyph glyph-name="uni0423" unicode="&#x423;" horiz-adv-x="1251" 
d="M117 0l28 164h76q39 0 68 7.5t52 19.5t50.5 42t49.5 59.5t63 88.5l28 41l-335 1040h206l259 -841l530 841h217l-743 -1155q-116 -181 -213 -244t-232 -63h-104z" />
    <glyph glyph-name="uni0424" unicode="&#x424;" horiz-adv-x="1667" 
d="M643 0l27 156q-122 6 -228 45t-183.5 104t-122 159t-44.5 204q0 197 97 352.5t277.5 247t418.5 100.5l26 156h195l-27 -156q163 -8 293 -72t206.5 -179t76.5 -263q0 -201 -100 -357.5t-279.5 -244.5t-411.5 -96l-26 -156h-195zM289 674q0 -157 106 -254t303 -107l158 897
q-248 -14 -407.5 -164.5t-159.5 -371.5zM893 313q247 13 406 163t159 370q0 159 -106.5 255.5t-300.5 106.5z" />
    <glyph glyph-name="uni0425" unicode="&#x425;" horiz-adv-x="1335" 
d="M-74 0l668 756l-371 706h234l272 -551l488 551h237l-641 -725l408 -737h-234l-307 584l-514 -584h-240z" />
    <glyph glyph-name="uni0426" unicode="&#x426;" horiz-adv-x="1474" 
d="M63 0l259 1462h194l-229 -1298h717l229 1298h194l-229 -1298h156l-29 -164l-65 -367h-185l66 367h-1078z" />
    <glyph glyph-name="uni0427" unicode="&#x427;" horiz-adv-x="1306" 
d="M629 549q-265 0 -376 124t-73 339l80 450h195l-74 -422q-29 -163 48 -245t257 -82q155 0 309 41l125 708h195l-258 -1462h-195l105 590q-174 -41 -338 -41z" />
    <glyph glyph-name="uni0428" unicode="&#x428;" horiz-adv-x="2004" 
d="M61 0l258 1462h195l-229 -1298h555l229 1298h195l-230 -1298h555l230 1298h194l-258 -1462h-1694z" />
    <glyph glyph-name="uni0429" unicode="&#x429;" horiz-adv-x="2062" 
d="M61 0l258 1462h195l-229 -1298h555l229 1298h195l-230 -1298h555l230 1298h194l-229 -1298h158l-29 -164l-66 -367h-184l66 367h-1668z" />
    <glyph glyph-name="uni042A" unicode="&#x42a;" horiz-adv-x="1376" 
d="M172 1298l29 164h596l-103 -581h258q105 0 189.5 -33.5t136 -89.5t79 -124t27.5 -140q0 -158 -76 -271.5t-201 -168t-284 -54.5h-479l229 1298h-401zM567 164h234q181 0 285 77t104 240q0 33 -8.5 64.5t-29 63t-51 55.5t-80 38.5t-110.5 14.5h-245z" />
    <glyph glyph-name="uni042B" unicode="&#x42b;" horiz-adv-x="1619" 
d="M61 0l258 1462h195l-102 -581h258q105 0 189.5 -33.5t136 -89.5t79 -124t27.5 -140q0 -119 -47 -214.5t-127.5 -155.5t-185 -92t-222.5 -32h-459zM285 164h233q181 0 285 77t104 240q0 42 -14 81t-44.5 75.5t-87 58t-132.5 21.5h-246zM1176 0l258 1462h194l-258 -1462
h-194z" />
    <glyph glyph-name="uni042C" unicode="&#x42c;" horiz-adv-x="1124" 
d="M61 0l258 1462h195l-102 -581h288q85 0 156.5 -22t122 -60t85.5 -87.5t52 -105t17 -112.5q0 -158 -76.5 -271.5t-201.5 -168t-284 -54.5h-510zM285 164h264q181 0 285 77t104 240q0 33 -8.5 64.5t-29 63t-51 55.5t-80 38.5t-110.5 14.5h-276z" />
    <glyph glyph-name="uni042D" unicode="&#x42d;" horiz-adv-x="1587" 
d="M260 432q34 -132 148 -213.5t290 -81.5q237 0 407 146t220 379h-702l28 163h690v4q0 224 -118.5 360t-350.5 136q-328 0 -503 -293h-195q106 208 292.5 332.5t430.5 124.5q151 0 273.5 -50.5t202 -139.5t122.5 -210t43 -264q0 -177 -60.5 -332.5t-170 -271t-272.5 -182
t-357 -66.5q-108 0 -198.5 24.5t-155.5 66.5t-115.5 101.5t-82 125t-50.5 141.5h184z" />
    <glyph glyph-name="uni042E" unicode="&#x42e;" horiz-adv-x="2043" 
d="M256 0h-195l258 1462h195l-113 -637h170q37 205 150 357t277.5 230.5t361.5 78.5q137 0 248 -39.5t182 -103.5t119 -148.5t68 -170t20 -173.5q0 -205 -62 -373.5t-170.5 -280.5t-255.5 -172.5t-317 -60.5q-132 0 -241 39t-181.5 103.5t-122.5 150t-72 177t-22 186.5v37
h-180zM748 612q0 -60 14 -123t48 -127.5t84 -114.5t129.5 -82t176.5 -32q173 0 311 88t215.5 247t77.5 361q0 69 -12.5 134.5t-45 133t-82 117.5t-130 81.5t-182.5 31.5q-270 0 -437 -191t-167 -524z" />
    <glyph glyph-name="uni042F" unicode="&#x42f;" horiz-adv-x="1312" 
d="M1063 0h-195l105 598h-256q-51 0 -94 -13.5t-75 -34t-62.5 -55t-51.5 -66.5t-47 -79q-14 -26 -82 -158.5t-108 -191.5h-215l4 20q91 122 182 316q36 76 62.5 122.5t62 93.5t77.5 74t95 40q-109 28 -176.5 107t-67.5 200q0 223 152.5 356t423.5 133h524zM418 1010
q0 -116 67 -182t197 -66h322l94 536h-310q-178 0 -274 -75t-96 -213z" />
    <glyph glyph-name="uni0430" unicode="&#x430;" horiz-adv-x="1114" 
d="M37 270q0 67 24.5 120.5t68.5 88t96.5 60t118.5 40.5t123 24.5t122 18.5q6 0 9 0.5t8 1t9 1.5q124 17 178 55.5t54 99.5q0 73 -67 111.5t-167 38.5q-211 0 -264 -191h-184q11 62 46.5 122t91 110.5t136.5 82t174 31.5q81 0 146.5 -15.5t109 -40.5t75 -60t47.5 -72.5
t23.5 -78.5t6.5 -76.5t-8 -69.5l-88 -463q-23 -129 -17 -209h-192q0 79 10 147q-31 -65 -126.5 -118.5t-229.5 -53.5q-75 0 -134.5 20t-96 51t-60.5 71.5t-33.5 78t-9.5 74.5zM217 276q0 -70 50.5 -111.5t148.5 -41.5q84 0 148.5 25t108.5 74t73 110.5t51 146.5
q17 70 24 115q-46 -53 -106.5 -81t-202.5 -50q-57 -9 -94.5 -16.5t-79 -22t-65.5 -33t-40 -48t-16 -67.5z" />
    <glyph glyph-name="uni0431" unicode="&#x431;" horiz-adv-x="1171" 
d="M539 -23q-222 0 -347.5 135.5t-125.5 346.5q0 241 96 467t262 342q118 82 301.5 124.5t462.5 73.5l-33 -176q-133 -17 -192 -25.5t-164 -29t-173.5 -47.5t-117.5 -64q-141 -107 -201 -329q73 102 173.5 154t217.5 52q115 0 210.5 -64t146.5 -162.5t51 -203.5
q0 -266 -157 -430t-410 -164zM250 420q0 -125 79 -206t208 -81q169 0 277 120t108 306q0 125 -79 206t-208 81q-169 0 -277 -120t-108 -306z" />
    <glyph glyph-name="uni0432" unicode="&#x432;" horiz-adv-x="1069" 
d="M43 0l186 1059h437q149 0 233 -72.5t84 -179.5q0 -174 -190 -258q83 -26 127.5 -85.5t44.5 -135.5q0 -150 -117 -239t-307 -89h-498zM250 131h295q101 0 168 56t67 141q0 65 -48.5 102t-127.5 37h-295zM332 598h239q98 0 164 56t66 139q0 62 -47 98.5t-123 36.5h-240z
" />
    <glyph glyph-name="uni0433" unicode="&#x433;" horiz-adv-x="849" 
d="M932 1059l-29 -156h-518l-160 -903h-184l188 1059h703z" />
    <glyph glyph-name="uni0434" unicode="&#x434;" horiz-adv-x="1259" 
d="M1174 1059l-160 -903h139l-84 -482h-170l57 326h-837l-58 -326h-170l84 482h31q76 0 129 47q89 77 156 319q32 114 135 537h748zM287 156h542l134 747h-396q-59 -244 -71 -287q-67 -242 -107 -321q-43 -87 -102 -139z" />
    <glyph glyph-name="uni0435" unicode="&#x435;" horiz-adv-x="1175" 
d="M530 -25q-153 0 -260.5 65.5t-158 173.5t-50.5 247q0 181 76.5 323.5t209.5 220.5t298 78q111 0 199.5 -40.5t142.5 -108t83 -148t32 -168.5q3 -82 -6 -145h-854q0 -160 76 -252t231 -92q130 0 203 47t110 133h187q-71 -175 -198.5 -254.5t-320.5 -79.5zM266 629h662
q-8 132 -89.5 216.5t-211.5 84.5q-136 0 -230 -83.5t-131 -217.5z" />
    <glyph glyph-name="uni0436" unicode="&#x436;" horiz-adv-x="1476" 
d="M-74 0l482 545l-289 514h200l242 -441h98l78 441h185l-78 -441h82l393 441h223l-465 -512l285 -547h-209l-240 463h-96l-82 -463h-184l82 463h-78l-408 -463h-221z" />
    <glyph glyph-name="uni0437" unicode="&#x437;" horiz-adv-x="997" 
d="M424 -25q-190 0 -289 84t-98 252h170q-6 -91 58 -135.5t184 -44.5q123 0 192.5 58t69.5 151q0 125 -203 125h-160l29 156h158q91 0 152 53.5t61 134.5q0 59 -47.5 89t-131.5 30q-194 0 -245 -160h-177q40 145 156 230t303 85q151 0 238.5 -69.5t87.5 -179.5
q0 -97 -54.5 -171t-146.5 -110q75 -23 119.5 -82t44.5 -135q0 -164 -129.5 -262.5t-341.5 -98.5z" />
    <glyph glyph-name="uni0438" unicode="&#x438;" horiz-adv-x="1196" 
d="M43 0l186 1059h185l-138 -787l666 787h211l-186 -1059h-185l138 786l-666 -786h-211z" />
    <glyph glyph-name="uni0439" unicode="&#x439;" horiz-adv-x="1196" 
d="M43 0l186 1059h185l-138 -787l666 787h211l-186 -1059h-185l138 786l-666 -786h-211zM457 1450h135q-9 -67 29.5 -106t113.5 -39q76 0 128.5 39t64.5 106h147q-29 -119 -123 -187.5t-229 -68.5t-206 68.5t-60 187.5z" />
    <glyph glyph-name="uni043A" unicode="&#x43a;" horiz-adv-x="1030" 
d="M227 0h-184l186 1059h185l-78 -443h104l432 443h224l-504 -514l323 -545h-208l-277 461h-121z" />
    <glyph glyph-name="uni043B" unicode="&#x43b;" horiz-adv-x="1146" 
d="M1104 1059l-186 -1059h-185l158 903h-387q-50 -214 -70 -289q-3 -11 -9 -34q-22 -84 -37 -134t-43 -128t-62.5 -134.5t-75.5 -93.5q-109 -98 -258 -98h-43l26 155h19q67 0 123 50q86 75 155 327q44 156 125 535h750z" />
    <glyph glyph-name="uni043C" unicode="&#x43c;" horiz-adv-x="1468" 
d="M41 0l188 1059h240l203 -817h6l493 817h256l-188 -1059h-184l139 786h-2l-483 -786h-138l-204 786h-2l-140 -786h-184z" />
    <glyph glyph-name="uni043D" unicode="&#x43d;" horiz-adv-x="1159" 
d="M414 1059l-80 -447h518l80 447h186l-188 -1059h-187l82 457h-518l-82 -457h-184l188 1059h185z" />
    <glyph glyph-name="uni043E" unicode="&#x43e;" horiz-adv-x="1204" 
d="M657 1083q122 0 216.5 -39.5t152 -109t86.5 -158.5t29 -194q0 -172 -73 -310t-209 -217.5t-312 -79.5q-122 0 -216.5 39.5t-152 109t-86.5 159t-29 194.5q0 172 73 310t209 217t312 79zM246 481q0 -157 78 -253.5t233 -96.5q177 0 289 125t112 322q0 157 -78 253.5
t-233 96.5q-177 0 -289 -125t-112 -322z" />
    <glyph glyph-name="uni043F" unicode="&#x43f;" horiz-adv-x="1159" 
d="M1118 1059l-188 -1059h-187l160 903h-518l-160 -903h-184l188 1059h889z" />
    <glyph glyph-name="uni0440" unicode="&#x440;" horiz-adv-x="1243" 
d="M-29 -403l258 1462h185l-25 -152q112 176 356 176q114 0 200.5 -40.5t137 -109t75 -151t24.5 -174.5q0 -283 -158 -458t-399 -175q-77 0 -139 21t-104 58t-70 78.5t-46 92.5l-110 -628h-185zM303 442q0 -143 74 -226t217 -83q95 0 172.5 41t126.5 108.5t75.5 151.5
t26.5 174q0 151 -78 235.5t-225 84.5q-92 0 -168 -43.5t-123 -114t-72.5 -155.5t-25.5 -173z" />
    <glyph glyph-name="uni0441" unicode="&#x441;" horiz-adv-x="1169" 
d="M1063 326q-63 -174 -190 -262.5t-332 -88.5q-114 0 -208 41.5t-152.5 109.5t-90 149.5t-31.5 166.5q0 154 49 278t132.5 202t190 119.5t224.5 41.5q101 0 181 -29t130.5 -78.5t80 -109t40.5 -127.5h-180q-20 83 -84.5 136t-171.5 53q-79 0 -152 -31.5t-130.5 -90
t-92 -149.5t-34.5 -202q0 -78 35 -151t106.5 -123t163.5 -50q127 0 202 48t125 147h189z" />
    <glyph glyph-name="uni0442" unicode="&#x442;" horiz-adv-x="950" 
d="M1022 1059l-29 -156h-360l-160 -903h-184l160 903h-361l29 156h905z" />
    <glyph glyph-name="uni0443" unicode="&#x443;" horiz-adv-x="1064" 
d="M111 1059h190l127 -613l55 -264h2l138 267l317 610h203l-703 -1264q-56 -101 -128 -153t-175 -52h-143l26 156h117q30 0 54 8t37.5 15.5t31.5 31.5t23.5 33.5t25.5 44.5l53 92z" />
    <glyph glyph-name="uni0444" unicode="&#x444;" horiz-adv-x="1474" 
d="M479 -410l68 379q-218 21 -353 152t-135 334q0 184 87.5 326.5t243 222.5t355.5 86l66 372h184l-65 -372q219 -24 352 -154t133 -334q0 -182 -86 -324t-241.5 -222.5t-356.5 -86.5l-67 -379h-185zM244 485q0 -140 88 -239.5t241 -120.5l144 809q-209 -8 -341 -131
t-132 -318zM758 125q213 9 343 130t130 316q0 142 -90.5 241.5t-239.5 121.5z" />
    <glyph glyph-name="uni0445" unicode="&#x445;" horiz-adv-x="1105" 
d="M-61 0l516 553l-310 506h211l224 -373l354 373h221l-496 -512l320 -547h-211l-231 416l-375 -416h-223z" />
    <glyph glyph-name="uni0446" unicode="&#x446;" horiz-adv-x="1206" 
d="M41 0l188 1059h187l-160 -903h518l160 903h184l-160 -903h144l-82 -461h-170l53 305h-862z" />
    <glyph glyph-name="uni0447" unicode="&#x447;" horiz-adv-x="1046" 
d="M457 362q-423 0 -351 414l50 283h184l-51 -291q-24 -130 31 -190t208 -60q88 0 199 19l92 522h185l-187 -1059h-184l67 383q-144 -21 -243 -21z" />
    <glyph glyph-name="uni0448" unicode="&#x448;" horiz-adv-x="1683" 
d="M41 0l188 1059h185l-160 -903h430l160 903h184l-160 -903h430l160 903h184l-188 -1059h-1413z" />
    <glyph glyph-name="uni0449" unicode="&#x449;" horiz-adv-x="1730" 
d="M41 0l188 1059h185l-160 -903h430l160 903h184l-160 -903h430l160 903h184l-159 -903h143l-82 -461h-170l53 305h-1386z" />
    <glyph glyph-name="uni044A" unicode="&#x44a;" horiz-adv-x="1200" 
d="M80 903l29 156h544l-65 -373h176q156 0 258 -94t102 -225q0 -115 -63.5 -199t-170 -126t-241.5 -42h-366l159 903h-362zM494 154h157q128 0 206.5 57.5t78.5 155.5q0 75 -60 120t-157 45h-158z" />
    <glyph glyph-name="uni044B" unicode="&#x44b;" horiz-adv-x="1388" 
d="M975 0l188 1059h185l-189 -1059h-184zM43 0l186 1059h185l-66 -373h176q156 0 258.5 -94t102.5 -225q0 -115 -63.5 -199t-170 -126t-241.5 -42h-367zM254 154h158q128 0 206 57.5t78 155.5q0 75 -60 120t-157 45h-157z" />
    <glyph glyph-name="uni044C" unicode="&#x44c;" horiz-adv-x="1001" 
d="M43 0l186 1059h185l-66 -373h217q156 0 258.5 -94t102.5 -225q0 -115 -63.5 -199t-170 -126t-241.5 -42h-408zM254 154h199q128 0 206 57.5t78 155.5q0 75 -60 120t-157 45h-198z" />
    <glyph glyph-name="uni044D" unicode="&#x44d;" horiz-adv-x="1140" 
d="M381 461l27 147h493v13q0 138 -77.5 224.5t-213.5 86.5q-206 0 -315 -191h-184q66 158 198.5 250t321.5 92q194 0 324 -123t130 -315q0 -187 -71 -338.5t-206.5 -241.5t-311.5 -90q-205 0 -324 91t-139 258h180q42 -195 297 -195q126 0 228.5 93t142.5 239h-500z" />
    <glyph glyph-name="uni044E" unicode="&#x44e;" horiz-adv-x="1570" 
d="M414 1059l-78 -447h151q43 228 194 349.5t372 121.5q113 0 203 -41.5t143.5 -109.5t81.5 -147.5t28 -163.5q0 -309 -158.5 -477.5t-420.5 -168.5q-91 0 -168 27.5t-129.5 73.5t-89 106.5t-53.5 125t-17 130.5v19h-166l-80 -457h-184l186 1059h185zM655 457q0 -48 11 -94
t33.5 -88t55 -74t79.5 -51t102 -19q178 0 284.5 124t106.5 347q0 60 -17.5 117t-51 104.5t-88.5 76t-123 28.5q-178 0 -285 -124t-107 -347z" />
    <glyph glyph-name="uni044F" unicode="&#x44f;" horiz-adv-x="1089" 
d="M-10 4q10 14 19.5 28t20 32.5t17.5 30.5t19.5 36.5t17.5 34t20 39t19 37.5q48 95 96.5 148t120.5 81q-80 30 -126 98t-46 148q0 156 128.5 249t332.5 93h418l-187 -1059h-184l74 422h-166q-99 0 -151.5 -40.5t-104.5 -137.5q-7 -13 -37 -73t-53 -100.5t-45 -70.5h-203v4z
M352 717q0 -71 62 -112.5t161 -41.5h199l64 355h-199q-127 0 -207 -55t-80 -146z" />
    <glyph glyph-name="uni0450" unicode="&#x450;" horiz-adv-x="1175" 
d="M530 -25q-153 0 -260.5 65.5t-158 173.5t-50.5 247q0 181 76.5 323.5t209.5 220.5t298 78q111 0 199.5 -40.5t142.5 -108t83 -148t32 -168.5q3 -82 -6 -145h-854q0 -160 76 -252t231 -92q130 0 203 47t110 133h187q-71 -175 -198.5 -254.5t-320.5 -79.5zM266 629h662
q-8 132 -89.5 216.5t-211.5 84.5q-136 0 -230 -83.5t-131 -217.5zM418 1462h233l135 -268h-135z" />
    <glyph glyph-name="uni0451" unicode="&#x451;" horiz-adv-x="1175" 
d="M530 -25q-153 0 -260.5 65.5t-158 173.5t-50.5 247q0 181 76.5 323.5t209.5 220.5t298 78q111 0 199.5 -40.5t142.5 -108t83 -148t32 -168.5q3 -82 -6 -145h-854q0 -160 76 -252t231 -92q130 0 203 47t110 133h187q-71 -175 -198.5 -254.5t-320.5 -79.5zM266 629h662
q-8 132 -89.5 216.5t-211.5 84.5q-136 0 -230 -83.5t-131 -217.5zM403 1249l37 213h181l-37 -213h-181zM760 1249l37 213h180l-37 -213h-180z" />
    <glyph glyph-name="uni0452" unicode="&#x452;" horiz-adv-x="1148" 
d="M479 -403l27 157h63q71 0 104 35.5t48 122.5l117 670q14 82 14.5 143t-11.5 99.5t-37 62t-56.5 32.5t-75.5 9q-125 0 -223.5 -107t-133.5 -307l-90 -514h-184l211 1194h-143l20 115h143l27 153h184l-26 -153h370l-20 -115h-371l-10 -57q-17 -101 -57 -263
q128 209 354 209q100 0 170 -36.5t103 -99t43.5 -145.5t-9.5 -177l-127 -719q-14 -79 -36.5 -133.5t-60.5 -95.5t-96 -60.5t-139 -19.5h-92z" />
    <glyph glyph-name="uni0453" unicode="&#x453;" horiz-adv-x="849" 
d="M932 1059l-29 -156h-518l-160 -903h-184l188 1059h703zM537 1194l276 268h234l-375 -268h-135z" />
    <glyph glyph-name="uni0454" unicode="&#x454;" horiz-adv-x="1169" 
d="M737 461h-495v-6q0 -78 35 -151t106.5 -123t163.5 -50q127 0 202 48t125 147h189q-63 -174 -190 -262.5t-332 -88.5q-114 0 -208 41.5t-152.5 109.5t-90 149.5t-31.5 166.5q0 154 49 278t132.5 202t190 119.5t224.5 41.5q101 0 181 -29t130.5 -78.5t80 -109t40.5 -127.5
h-180q-20 83 -84.5 136t-171.5 53q-133 0 -242 -85t-149 -235h502z" />
    <glyph glyph-name="uni0455" unicode="&#x455;" horiz-adv-x="983" 
d="M764 762q-18 94 -76.5 130t-159.5 36q-88 0 -147 -36t-59 -101q0 -36 11 -60.5t47 -47t61 -33.5t96 -37q12 -5 18 -7q42 -15 67 -25t62.5 -27.5t60.5 -33t50 -38.5t42 -47t25 -56t10 -68q0 -72 -26 -130.5t-68.5 -96t-98.5 -63t-113.5 -36t-116.5 -10.5q-80 0 -151 20
t-130 60t-96 108.5t-43 158.5h180q17 -102 74.5 -146.5t177.5 -44.5q94 0 160.5 42.5t66.5 113.5q0 62 -49.5 99t-175.5 79q-42 14 -64.5 22t-62.5 25.5t-63 32t-52.5 38.5t-45 50t-27 61t-11.5 76q0 65 24 118.5t64 89t93 60t109 35t114 10.5q174 0 279 -82.5t118 -238.5
h-174z" />
    <glyph glyph-name="uni0456" unicode="&#x456;" horiz-adv-x="468" 
d="M461 1257h-197l37 205h197zM49 0l187 1059h184l-187 -1059h-184z" />
    <glyph glyph-name="uni0457" unicode="&#x457;" horiz-adv-x="456" 
d="M43 0l186 1059h185l-187 -1059h-184zM80 1249l37 213h180l-37 -213h-180zM436 1249l37 213h180l-37 -213h-180z" />
    <glyph glyph-name="uni0458" unicode="&#x458;" horiz-adv-x="503" 
d="M496 1257h-197l37 205h196zM-180 -403l28 155h78q69 0 100 21.5t42 91.5l211 1194h180l-211 -1198q-22 -120 -96 -192t-207 -72h-125z" />
    <glyph glyph-name="uni0459" unicode="&#x459;" horiz-adv-x="1648" 
d="M1083 1059l-65 -373h194q156 0 258.5 -94t102.5 -225q0 -115 -63.5 -199t-170 -126t-241.5 -42h-385l159 905l-2 -2h-366q-50 -214 -70 -289q-3 -11 -9 -34q-22 -84 -37 -134t-43 -128t-62.5 -134.5t-75.5 -93.5q-109 -98 -258 -98h-43l26 155h19q67 0 123 50
q86 75 155 327q44 156 125 535h729zM924 154h176q128 0 206 57.5t78 155.5q0 75 -60 120t-157 45h-176z" />
    <glyph glyph-name="uni045A" unicode="&#x45a;" horiz-adv-x="1665" 
d="M414 1059l-74 -418h500l73 418h185l-74 -418h233q152 0 241 -85t89 -206q0 -165 -120 -257.5t-316 -92.5h-424l86 487h-500l-86 -487h-184l186 1059h185zM938 154h203q121 0 191.5 52t70.5 144q0 64 -53 100.5t-150 36.5h-203z" />
    <glyph glyph-name="uni045B" unicode="&#x45b;" horiz-adv-x="1136" 
d="M41 0l211 1194h-143l20 115h143l27 153h184l-26 -153h370l-20 -115h-371l-10 -57q-17 -101 -57 -263q128 209 354 209q100 0 170 -36.5t103 -99t43.5 -145.5t-9.5 -177l-110 -625h-185l103 582q14 82 14.5 143t-11.5 99.5t-37 62t-56.5 32.5t-75.5 9q-125 0 -223.5 -107
t-133.5 -307l-90 -514h-184z" />
    <glyph glyph-name="uni045C" unicode="&#x45c;" horiz-adv-x="1030" 
d="M227 0h-184l186 1059h185l-78 -443h104l432 443h224l-504 -514l323 -545h-208l-277 461h-121zM537 1194l276 268h234l-375 -268h-135z" />
    <glyph glyph-name="uni045D" unicode="&#x45d;" horiz-adv-x="1196" 
d="M43 0l186 1059h185l-138 -787l666 787h211l-186 -1059h-185l138 786l-666 -786h-211zM473 1462h234l135 -268h-135z" />
    <glyph glyph-name="uni045E" unicode="&#x45e;" horiz-adv-x="1064" 
d="M111 1059h190l127 -613l55 -264h2l138 267l317 610h203l-703 -1264q-56 -101 -128 -153t-175 -52h-143l26 156h117q30 0 54 8t37.5 15.5t31.5 31.5t23.5 33.5t25.5 44.5l53 92zM350 1450h135q-9 -67 30 -106t114 -39q76 0 128 39t64 106h148q-29 -119 -123.5 -187.5
t-229.5 -68.5t-206 68.5t-60 187.5z" />
    <glyph glyph-name="uni045F" unicode="&#x45f;" horiz-adv-x="1159" 
d="M346 -305l53 305h-358l188 1059h187l-160 -903h518l160 903h184l-188 -1059h-361l-53 -305h-170z" />
    <glyph glyph-name="uni0490" unicode="&#x490;" horiz-adv-x="1058" 
d="M485 1298l-229 -1298h-195l258 1462h680l58 326h184l-86 -490h-670z" />
    <glyph glyph-name="uni0491" unicode="&#x491;" horiz-adv-x="870" 
d="M385 903l-160 -903h-184l188 1059h553l54 305h170l-82 -461h-539z" />
    <glyph glyph-name="uni0492" unicode="&#x492;" horiz-adv-x="1058" 
d="M27 643l24 139h148l120 680h865l-29 -164h-670l-92 -516h330l-25 -139h-329l-113 -643h-195l113 643h-147z" />
    <glyph glyph-name="uni0493" unicode="&#x493;" horiz-adv-x="870" 
d="M608 449h-303l-80 -449h-184l80 449h-115l23 122h114l86 488h703l-29 -156h-518l-59 -332h305z" />
    <glyph glyph-name="uni0496" unicode="&#x496;" horiz-adv-x="1966" 
d="M1561 0l-353 662h-135l-117 -662h-194l117 662h-119l-588 -662h-233l675 758l-378 704h223l321 -637h127l113 637h194l-112 -637h115l546 637h236l-627 -704l320 -594h172l-29 -164l-66 -367h-184l66 367h-90z" />
    <glyph glyph-name="uni0497" unicode="&#x497;" horiz-adv-x="1519" 
d="M-74 0l482 545l-289 514h200l242 -441h98l78 441h185l-78 -441h82l393 441h223l-465 -512l203 -391h158l-82 -461h-170l53 305h-86l-240 463h-96l-82 -463h-184l82 463h-78l-408 -463h-221z" />
    <glyph glyph-name="uni049A" unicode="&#x49a;" horiz-adv-x="1378" 
d="M961 0l-416 662h-172l-117 -662h-195l258 1462h195l-113 -637h160l608 637h240l-690 -704l368 -594h189l-29 -164l-65 -367h-185l66 367h-102z" />
    <glyph glyph-name="uni049B" unicode="&#x49b;" horiz-adv-x="1073" 
d="M227 0h-184l186 1059h185l-78 -443h104l432 443h224l-504 -514l231 -389h168l-82 -461h-170l54 305h-86l-277 461h-121z" />
    <glyph glyph-name="uni049C" unicode="&#x49c;" horiz-adv-x="1318" 
d="M61 0l258 1462h195l-113 -637h76l43 242h74l-43 -242h39l579 637h240l-661 -704l442 -758h-229l-388 662h-51l-47 -265h-74l48 265h-76l-117 -662h-195z" />
    <glyph glyph-name="uni049D" unicode="&#x49d;" horiz-adv-x="1024" 
d="M227 0h-184l186 1059h185l-78 -447h59l33 187h70l-33 -187h31l378 447h224l-463 -535l274 -524h-211l-237 457h-25l-33 -185h-69l33 185h-60z" />
    <glyph glyph-name="uni04A2" unicode="&#x4a2;" horiz-adv-x="1462" 
d="M1219 1462h194l-229 -1298h157l-28 -164l-66 -367h-184l65 367h-167l114 651h-704l-115 -651h-195l258 1462h195l-115 -647h705z" />
    <glyph glyph-name="uni04A3" unicode="&#x4a3;" horiz-adv-x="1206" 
d="M414 1059l-80 -447h518l80 447h186l-160 -903h144l-82 -461h-170l53 305h-160l82 457h-518l-82 -457h-184l188 1059h185z" />
    <glyph glyph-name="uni04AE" unicode="&#x4ae;" horiz-adv-x="1277" 
d="M197 1462h221l260 -682h4l502 682h225l-661 -860l-107 -602h-195l107 602z" />
    <glyph glyph-name="uni04AF" unicode="&#x4af;" horiz-adv-x="1030" 
d="M258 -410l70 387q-37 180 -111 553t-106 529h198q24 -146 73 -437t73 -436h2q166 326 448 873h203l-596 -1077l-70 -392h-184z" />
    <glyph glyph-name="uni04B2" unicode="&#x4b2;" horiz-adv-x="1394" 
d="M-74 0l668 756l-371 706h234l272 -551l488 551h237l-641 -725l317 -573h162l-28 -164l-66 -367h-184l65 367h-92l-307 584l-514 -584h-240z" />
    <glyph glyph-name="uni04B3" unicode="&#x4b3;" horiz-adv-x="1148" 
d="M-61 0l516 553l-310 506h211l224 -373l354 373h221l-496 -512l230 -391h178l-82 -461h-170l53 305h-100l-231 416l-375 -416h-223z" />
    <glyph glyph-name="uni04B8" unicode="&#x4b8;" horiz-adv-x="1306" 
d="M547 303l43 246q-244 10 -345.5 133t-64.5 330l80 450h195l-74 -422q-53 -296 240 -323l45 256h73l-47 -260q152 0 303 41l125 708h195l-258 -1462h-195l105 590q-169 -36 -303 -41l-43 -246h-74z" />
    <glyph glyph-name="uni04B9" unicode="&#x4b9;" horiz-adv-x="1046" 
d="M399 178l33 184q-395 12 -326 414l50 283h184l-51 -291q-21 -115 18.5 -174.5t151.5 -71.5l33 183h69l-33 -187q88 0 199 19l92 522h185l-187 -1059h-184l67 383q-93 -14 -198 -21l-33 -184h-70z" />
    <glyph glyph-name="uni04BA" unicode="&#x4ba;" horiz-adv-x="1306" 
d="M750 913q265 0 375.5 -123.5t72.5 -338.5l-80 -451h-194l73 422q29 163 -48 245.5t-257 82.5q-155 0 -309 -41l-125 -709h-195l259 1462h194l-104 -590q174 41 338 41z" />
    <glyph glyph-name="uni04BB" unicode="&#x4bb;" horiz-adv-x="1136" 
d="M41 0l258 1462h184l-57 -325q-17 -101 -57 -263q128 209 354 209q100 0 170 -36.5t103 -99t43.5 -145.5t-9.5 -177l-110 -625h-185l103 582q14 82 14.5 143t-11.5 99.5t-37 62t-56.5 32.5t-75.5 9q-125 0 -223.5 -107t-133.5 -307l-90 -514h-184z" />
    <glyph glyph-name="uni04C0" unicode="&#x4c0;" horiz-adv-x="505" 
d="M319 1462h195l-258 -1462h-195z" />
    <glyph glyph-name="uni04CF" unicode="&#x4cf;" horiz-adv-x="454" 
d="M299 1462h184l-258 -1462h-184z" />
    <glyph glyph-name="uni04D8" unicode="&#x4d8;" horiz-adv-x="1603" 
d="M713 -27q-187 0 -324.5 79.5t-206.5 213t-69 303.5q0 148 26 246h1219q5 82 -8.5 156t-48 137.5t-87.5 109.5t-130.5 72.5t-172.5 26.5q-161 0 -289 -70t-206 -188h-203q97 196 285.5 309t431.5 113q300 0 465.5 -169.5t165.5 -453.5q0 -238 -112 -441t-307.5 -323.5
t-428.5 -120.5zM301 655q-12 -105 8.5 -197.5t70.5 -164.5t138 -114t203 -42q114 0 216 41t178.5 112.5t131.5 164.5t84 200h-1030z" />
    <glyph glyph-name="uni04D9" unicode="&#x4d9;" horiz-adv-x="1175" 
d="M645 1083q115 0 205.5 -37.5t147.5 -103.5t86.5 -153.5t29.5 -190.5q0 -274 -166.5 -448.5t-417.5 -174.5q-111 0 -199.5 40.5t-142 108t-82.5 148t-32 168.5q-3 83 6 146h854q0 160 -76 252t-231 92q-130 0 -203.5 -47.5t-110.5 -132.5h-186q71 175 198 254t320 79z
M248 430q8 -132 89.5 -216.5t211.5 -84.5q135 0 229 83.5t131 217.5h-661z" />
    <glyph glyph-name="uni04E8" unicode="&#x4e8;" horiz-adv-x="1671" 
d="M956 1491q144 0 260.5 -39.5t190.5 -103.5t124.5 -148.5t71.5 -170t21 -173.5q0 -205 -64.5 -373.5t-177.5 -280t-265.5 -172.5t-328.5 -61q-138 0 -252 39t-190 103.5t-128.5 150.5t-75.5 177t-23 186q0 197 65 361t177.5 274t265.5 170.5t329 60.5zM313 612
q0 -60 15.5 -123t52 -127.5t90 -114.5t138.5 -82t188 -32q237 0 404.5 145.5t213.5 385.5h-1100q-2 -16 -2 -52zM334 823h1098v6q0 69 -13.5 134.5t-48 133t-87.5 117.5t-139.5 81.5t-195.5 31.5q-234 0 -397 -132.5t-217 -371.5z" />
    <glyph glyph-name="uni04E9" unicode="&#x4e9;" horiz-adv-x="1204" 
d="M657 1083q122 0 216.5 -39.5t152 -109t86.5 -158.5t29 -194q0 -172 -73 -310t-209 -217.5t-312 -79.5q-122 0 -216.5 39.5t-152 109t-86.5 159t-29 194.5q0 172 73 310t209 217t312 79zM246 461q5 -149 83.5 -239.5t227.5 -90.5q148 0 253 90t136 240h-700zM260 610h698
q-8 144 -86.5 231t-224.5 87q-145 0 -249 -86t-138 -232z" />
    <glyph glyph-name="Wgrave" unicode="&#x1e80;" horiz-adv-x="1880" 
d="M184 1462h201l61 -1065l11 -190h2l78 190l428 1065h272l45 -1065l8 -192h2l78 188l451 1069h202l-641 -1462h-262l-16 395l-35 873h-2l-352 -871l-162 -397h-260l-29 395zM735 1802h275l258 -213h-205z" />
    <glyph glyph-name="wgrave" unicode="&#x1e81;" horiz-adv-x="1533" 
d="M227 0l-116 1059h190l55 -651q2 -33 5.5 -98.5t5.5 -98.5h2q10 24 37 92t43 103l288 653h244l57 -651q6 -102 15 -199h2q15 34 41.5 99.5t40.5 99.5l282 651h193l-492 -1059h-211l-65 694l-17 180h-2q-14 -31 -38 -90.5t-37 -89.5l-312 -694h-211zM635 1462h233l136 -268
h-136z" />
    <glyph glyph-name="Wacute" unicode="&#x1e82;" horiz-adv-x="1880" 
d="M184 1462h201l61 -1065l11 -190h2l78 190l428 1065h272l45 -1065l8 -192h2l78 188l451 1069h202l-641 -1462h-262l-16 395l-35 873h-2l-352 -871l-162 -397h-260l-29 395zM997 1589l295 213h275l-365 -213h-205z" />
    <glyph glyph-name="wacute" unicode="&#x1e83;" horiz-adv-x="1533" 
d="M227 0l-116 1059h190l55 -651q2 -33 5.5 -98.5t5.5 -98.5h2q10 24 37 92t43 103l288 653h244l57 -651q6 -102 15 -199h2q15 34 41.5 99.5t40.5 99.5l282 651h193l-492 -1059h-211l-65 694l-17 180h-2q-14 -31 -38 -90.5t-37 -89.5l-312 -694h-211zM799 1194l276 268h234
l-375 -268h-135z" />
    <glyph glyph-name="Wdieresis" unicode="&#x1e84;" horiz-adv-x="1880" 
d="M184 1462h201l61 -1065l11 -190h2l78 190l428 1065h272l45 -1065l8 -192h2l78 188l451 1069h202l-641 -1462h-262l-16 395l-35 873h-2l-352 -871l-162 -397h-260l-29 395zM850 1589l37 213h184l-37 -213h-184zM1219 1589l36 213h185l-37 -213h-184z" />
    <glyph glyph-name="wdieresis" unicode="&#x1e85;" horiz-adv-x="1533" 
d="M227 0l-116 1059h190l55 -651q2 -33 5.5 -98.5t5.5 -98.5h2q10 24 37 92t43 103l288 653h244l57 -651q6 -102 15 -199h2q15 34 41.5 99.5t40.5 99.5l282 651h193l-492 -1059h-211l-65 694l-17 180h-2q-14 -31 -38 -90.5t-37 -89.5l-312 -694h-211zM621 1249l36 213h181
l-37 -213h-180zM977 1249l37 213h180l-37 -213h-180z" />
    <glyph glyph-name="uni1E9E" unicode="&#x1e9e;" horiz-adv-x="1390" 
d="M238 977q27 153 118 264.5t218.5 166t277.5 54.5q143 0 283 -43t233 -110l-481 -463q181 -24 281 -136.5t100 -273.5q0 -140 -83 -246t-214.5 -158t-288.5 -52q-128 0 -193 18l60 162q47 -17 141 -17q185 0 284 82t99 211q0 52 -18.5 97.5t-54.5 82.5t-97.5 58.5
t-140.5 21.5h-86l18 154l420 410q-37 20 -108 32.5t-148 12.5q-104 0 -195.5 -42t-159.5 -128.5t-89 -204.5l-164 -930h-184z" />
    <glyph glyph-name="Ygrave" unicode="&#x1ef2;" horiz-adv-x="1277" 
d="M197 1462h221l260 -682h4l502 682h225l-661 -860l-107 -602h-195l107 602zM434 1802h275l258 -213h-205z" />
    <glyph glyph-name="ygrave" unicode="&#x1ef3;" horiz-adv-x="1064" 
d="M111 1059h190l127 -613l55 -264h2l138 267l317 610h203l-703 -1264q-56 -101 -128 -153t-175 -52h-143l26 156h117q30 0 54 8t37.5 15.5t31.5 31.5t23.5 33.5t25.5 44.5l53 92zM367 1462h233l135 -268h-135z" />
    <glyph glyph-name="uni2011" unicode="&#x2011;" horiz-adv-x="964" 
d="M170 610h657l-28 -155h-658z" />
    <glyph glyph-name="endash" unicode="&#x2013;" horiz-adv-x="1390" 
d="M186 610h1067l-47 -155h-1067z" />
    <glyph glyph-name="emdash" unicode="&#x2014;" horiz-adv-x="1857" 
d="M205 610h1515l-65 -155h-1516z" />
    <glyph glyph-name="quoteleft" unicode="&#x2018;" horiz-adv-x="471" 
d="M387 969h-205l234 493h164z" />
    <glyph glyph-name="quoteright" unicode="&#x2019;" horiz-adv-x="471" 
d="M326 1462h204l-233 -493h-164z" />
    <glyph glyph-name="quotesinglbase" unicode="&#x201a;" horiz-adv-x="468" 
d="M106 227h205l-233 -493h-164z" />
    <glyph glyph-name="quotedblleft" unicode="&#x201c;" horiz-adv-x="782" 
d="M698 969h-204l233 493h164zM182 969l234 493h164l-193 -493h-205z" />
    <glyph glyph-name="quotedblright" unicode="&#x201d;" horiz-adv-x="782" 
d="M326 1462h204l-233 -493h-164zM444 969l193 493h205l-234 -493h-164z" />
    <glyph glyph-name="quotedblbase" unicode="&#x201e;" horiz-adv-x="780" 
d="M111 246h204l-233 -494h-164zM229 -248l193 494h205l-234 -494h-164z" />
    <glyph glyph-name="dagger" unicode="&#x2020;" horiz-adv-x="1140" 
d="M158 905l26 154h398l71 403h164l-72 -403h398l-27 -154h-397l-217 -1224h-164l217 1224h-397z" />
    <glyph glyph-name="daggerdbl" unicode="&#x2021;" horiz-adv-x="1140" 
d="M1116 905h-397l-119 -667h397l-26 -154h-398l-71 -403h-164l72 403h-398l27 154h397l119 667h-397l26 154h398l71 403h164l-72 -403h398z" />
    <glyph glyph-name="bullet" unicode="&#x2022;" horiz-adv-x="1079" 
d="M541 909q159 0 268 -108t109 -266q0 -159 -109.5 -270t-267.5 -111t-268.5 111.5t-110.5 269.5t110 266t269 108z" />
    <glyph glyph-name="ellipsis" unicode="&#x2026;" horiz-adv-x="1310" 
d="M61 246h226l-43 -246h-226zM449 0l43 246h225l-43 -246h-225zM879 0l43 246h225l-43 -246h-225z" />
    <glyph glyph-name="perthousand" unicode="&#x2030;" horiz-adv-x="2631" 
d="M473 0l821 1464h158l-821 -1464h-158zM190 1057q19 107 72 197t141 149t193 59t172.5 -59t88 -149.5t1.5 -196.5q-14 -78 -48.5 -151t-85 -131.5t-121.5 -94t-150 -35.5q-105 0 -172.5 61t-88.5 153t-2 198zM358 1059q-21 -116 11 -194.5t108 -78.5t134 78t79 195
q21 115 -11 188.5t-108 73.5t-134 -74t-79 -188zM1081 393q18 105 71 195.5t141.5 149.5t193.5 59q104 0 171 -59t88 -149t3 -196q-14 -78 -49.5 -151t-86.5 -132t-122.5 -94.5t-149.5 -35.5q-105 0 -172 61.5t-87 153.5t-1 198zM1249 395q-21 -116 10 -195t107 -79
t134 78.5t79 195.5q21 113 -11 186.5t-108 73.5t-133 -73t-78 -187zM1841 393q18 105 71 195.5t141.5 149.5t193.5 59q104 0 171 -59t88 -149t3 -196q-14 -78 -49.5 -151t-86.5 -132t-122.5 -94.5t-149.5 -35.5q-105 0 -172 61.5t-87 153.5t-1 198zM2009 395
q-21 -116 10 -195t107 -79t134 78.5t79 195.5q21 113 -11 186.5t-108 73.5t-133 -73t-78 -187z" />
    <glyph glyph-name="guilsinglleft" unicode="&#x2039;" horiz-adv-x="573" 
d="M76 530l336 439h163l-305 -439l152 -438h-164z" />
    <glyph glyph-name="guilsinglright" unicode="&#x203a;" horiz-adv-x="575" 
d="M500 530l-338 -438h-164l307 438l-153 439h163z" />
    <glyph glyph-name="fraction" unicode="&#x2044;" horiz-adv-x="477" 
d="M725 1464l-821 -1464h-158l821 1464h158z" />
    <glyph glyph-name="Euro" unicode="&#x20ac;" horiz-adv-x="1509" 
d="M1083 516h-581q25 -173 143 -281t318 -108q172 0 323 70l-20 -170q-150 -56 -310 -56q-144 0 -261 41.5t-196 115.5t-125.5 172.5t-58.5 215.5h-221l72 143h147q11 83 13 91q2 18 10 49h-203l82 143h166q99 248 317.5 404.5t505.5 156.5q223 0 373 -102l-72 -135
q-110 82 -307 82q-204 0 -366.5 -112.5t-253.5 -293.5h745l-80 -143h-721q-12 -52 -16 -74q-5 -26 -8 -66h667z" />
    <glyph glyph-name="uni20B4" unicode="&#x20b4;" horiz-adv-x="1357" 
d="M559 -23q-69 0 -132 10.5t-124 35.5t-105 63.5t-71 99.5t-27 138q0 168 125 286h-80l17 95h194q99 55 275 108q20 5 55 17t51 16h-551l19 94h743q103 74 103 184q0 99 -70.5 150t-183.5 51q-125 0 -221 -62t-136 -184h-198q68 209 212.5 307.5t342.5 98.5q89 0 167 -19
t142.5 -58t102.5 -106.5t38 -156.5q0 -118 -65 -205h80l-19 -94h-156q-98 -77 -288 -141h420l-17 -95h-694q-213 -91 -213 -264q0 -57 20.5 -98.5t58 -65t83 -34.5t100.5 -11q151 0 265.5 76.5t160.5 218.5h203q-70 -221 -232.5 -338t-394.5 -117z" />
    <glyph glyph-name="uni20BD" unicode="&#x20bd;" horiz-adv-x="1220" 
d="M61 0l54 307h-144l29 164h145l23 137h-143l28 164h146l120 690h484q105 0 189.5 -33.5t136 -89.5t79 -124t27.5 -140q0 -112 -47 -202t-127.5 -147t-185 -87.5t-222.5 -30.5h-291l-22 -137h360l-28 -164h-363l-53 -307h-195zM393 772h258q182 0 285.5 70.5t103.5 220.5
q0 42 -14 81t-44.5 75t-87 57.5t-132.5 21.5h-277z" />
    <glyph glyph-name="uni2113" unicode="&#x2113;" horiz-adv-x="989" 
d="M6 422l268 182l93 506q32 186 116 278.5t244 92.5q137 0 196 -89t33 -233q-17 -92 -54.5 -170.5t-101.5 -149.5t-138.5 -132.5t-182.5 -135.5l-43 -22l-41 -227q-21 -116 -0.5 -156.5t94.5 -40.5q98 0 232 108l72 -124q-164 -136 -316 -136q-168 0 -224 89t-22 290
q0 1 5.5 30.5t9.5 45.5l-172 -119zM465 733l27 23q262 176 305 422q14 77 -10.5 114t-75.5 37q-139 0 -179 -227z" />
    <glyph glyph-name="uni2116" unicode="&#x2116;" horiz-adv-x="2234" 
d="M61 0l258 1462h250l478 -1206l213 1206h194l-258 -1462h-250l-477 1206l-213 -1206h-195zM1507 1055q0 124 57.5 222.5t154 152t210.5 53.5q153 0 250.5 -101t97.5 -243q0 -124 -57.5 -222.5t-154 -152t-210.5 -53.5q-153 0 -250.5 101t-97.5 243zM1671 1055
q0 -99 47.5 -164.5t145.5 -65.5q103 0 176.5 90.5t73.5 223.5q0 99 -47.5 164t-145.5 65q-103 0 -176.5 -90t-73.5 -223z" />
    <glyph glyph-name="uni2117" unicode="&#x2117;" horiz-adv-x="1769" 
d="M924 82q-130 0 -247 49.5t-202 135.5t-134.5 208t-49.5 260q0 179 84.5 327.5t229.5 233t319 84.5q171 0 315 -85t228.5 -233.5t84.5 -326.5q0 -138 -49.5 -260t-134 -207.5t-200.5 -135.5t-244 -50zM135 735q0 -165 63.5 -311.5t170.5 -249.5t251.5 -163t303.5 -60
q158 0 302 60t250 163t169 249.5t63 311.5q0 162 -63 306.5t-169 247t-250 162.5t-302 60t-303.5 -60t-252 -162.5t-170 -247t-63.5 -306.5zM719 371v731h256q124 0 197 -65t73 -165q0 -102 -77 -170.5t-193 -68.5h-113v-262h-143zM862 752h103q64 0 101.5 30t37.5 88
q0 56 -37.5 84.5t-101.5 28.5h-103v-231z" />
    <glyph glyph-name="trademark" unicode="&#x2122;" horiz-adv-x="976" 
d="M528 1395h-129v-340h-82v340h-129v67h340v-67zM586 1055v407h121l96 -305l94 305h123v-407h-80v309h-2l-92 -309h-88l-92 309h-2v-309h-78z" />
    <glyph glyph-name="uni2126" unicode="&#x2126;" horiz-adv-x="1556" 
d="M37 0l29 164h409l23 129q-76 24 -139.5 73.5t-109.5 124t-62 170.5t3 213q31 175 130.5 312.5t260 217t355.5 79.5q194 0 330 -80t193.5 -226.5t23.5 -336.5q-35 -199 -181.5 -353t-326.5 -206l-23 -117h406l-29 -164h-549l74 416q177 33 304 150t157 286q36 205 -74 336
t-326 131q-214 0 -368.5 -131t-190.5 -336q-31 -170 51.5 -287t254.5 -149l-74 -416h-551z" />
    <glyph glyph-name="estimated" unicode="&#x212e;" horiz-adv-x="1263" 
d="M100 528q0 155 71.5 284t197 204.5t278.5 75.5q152 0 273.5 -75.5t187.5 -204t66 -284.5h-803v-405q125 -88 276 -88q131 0 241 65t173 174l59 -32q-72 -127 -196.5 -202t-276.5 -75q-114 0 -216 44.5t-174.5 120t-114.5 179.5t-42 219zM371 598h553v332q-123 92 -277 92
q-151 0 -276 -88v-336z" />
    <glyph glyph-name="uni2153" unicode="&#x2153;" horiz-adv-x="1589" 
d="M418 584h-148l107 616h-215l16 105q97 0 161 33t105 124h129zM242 0l821 1464h158l-822 -1464h-157zM854 254h147l3 -16q19 -129 159 -129q86 0 131 39.5t45 109.5q0 67 -37.5 103t-105.5 36h-84l14 117h72q68 0 119 34.5t51 102.5q0 55 -32 86t-93 31q-56 0 -91.5 -33.5
t-49.5 -81.5l-2 -12h-152q25 114 103.5 182t191.5 68q124 0 197 -59.5t73 -163.5q0 -84 -43 -136.5t-106 -76.5q119 -48 119 -211q0 -108 -86 -184t-221 -76q-283 0 -320 247z" />
    <glyph glyph-name="uni2154" unicode="&#x2154;" horiz-adv-x="1802" 
d="M174 1190q15 123 106.5 204t219.5 81q130 0 207 -65.5t77 -166.5q0 -74 -26 -131t-73 -101t-130 -96q-35 -22 -90.5 -54t-85 -50t-62.5 -45t-53 -55h441l-23 -127h-619q15 76 36.5 128t61 96t83 75.5t121.5 79.5q20 12 54 33t50 30.5t42 26.5t38 26.5t29.5 24.5t25 27
t16.5 27t12 31t3 34q-1 59 -38.5 91t-102.5 32q-63 0 -109 -40t-59 -116h-152zM463 0l821 1464h158l-821 -1464h-158zM1067 254h147l3 -16q19 -129 159 -129q86 0 131 39.5t45 109.5q0 67 -37.5 103t-105.5 36h-84l14 117h72q68 0 119 34.5t51 102.5q0 55 -32 86t-93 31
q-56 0 -91.5 -33.5t-49.5 -81.5l-2 -12h-152q25 114 103.5 182t191.5 68q124 0 197 -59.5t73 -163.5q0 -84 -43 -136.5t-106 -76.5q119 -48 119 -211q0 -108 -86 -184t-221 -76q-283 0 -320 247z" />
    <glyph glyph-name="oneeighth" unicode="&#x215b;" horiz-adv-x="1654" 
d="M418 584h-148l107 616h-215l16 105q97 0 161 33t105 124h129zM279 0l821 1464h157l-821 -1464h-157zM913 231q0 90 64.5 155.5t140.5 82.5q-50 21 -78 67.5t-28 100.5q0 111 88.5 182.5t228.5 71.5q71 0 124 -20.5t80.5 -53t40.5 -66.5t13 -69q0 -81 -47 -138t-115 -81
q53 -17 90 -73t37 -116q0 -129 -93 -209.5t-245 -80.5q-153 0 -227 72t-74 175zM1071 223q0 -56 43 -87.5t96 -31.5q85 0 138 48t53 137q0 51 -39.5 82.5t-97.5 31.5q-84 0 -138.5 -46t-54.5 -134zM1159 618q0 -46 36 -72t81 -26q70 0 114 40t44 114q0 43 -33 69.5t-82 26.5
q-70 0 -115 -39t-45 -113z" />
    <glyph glyph-name="threeeighths" unicode="&#x215c;" horiz-adv-x="1875" 
d="M201 1225q25 114 103.5 182t191.5 68q124 0 197 -60t73 -164q0 -84 -43.5 -136.5t-106.5 -76.5q119 -48 119 -211q0 -108 -86 -184t-221 -76q-282 0 -319 248l-3 23h148l2 -17q19 -129 160 -129q86 0 131 40t45 110q0 67 -37.5 103t-105.5 36h-84l14 117h72
q68 0 119 34.5t51 102.5q0 55 -32 86t-93 31q-56 0 -92.5 -33.5t-49.5 -81.5l-2 -12h-151zM502 0l821 1464h158l-822 -1464h-157zM1135 231q0 90 64 155.5t140 82.5q-50 21 -78 67.5t-28 100.5q0 111 88.5 182.5t228.5 71.5q71 0 124 -20.5t80.5 -53t40.5 -66.5t13 -69
q0 -81 -46.5 -138t-114.5 -81q53 -17 90 -73t37 -116q0 -129 -93 -209.5t-245 -80.5q-153 0 -227 72t-74 175zM1292 223q0 -56 43.5 -87.5t96.5 -31.5q85 0 137.5 48t52.5 137q0 51 -39.5 82.5t-97.5 31.5q-84 0 -138.5 -46t-54.5 -134zM1380 618q0 -46 36 -72t81 -26
q70 0 114 40t44 114q0 43 -33 69.5t-82 26.5q-70 0 -115 -39t-45 -113z" />
    <glyph glyph-name="fiveeighths" unicode="&#x215d;" horiz-adv-x="1804" 
d="M254 829q16 -65 62.5 -103t121.5 -38q78 0 127 53t49 136q0 82 -41 128t-114 46q-100 0 -164 -90l-148 18l156 485l481 -2l-20 -123h-358l-70 -215q67 49 162 45q121 -3 192.5 -79t71.5 -213q0 -136 -86 -224t-238 -88q-85 0 -149.5 25t-101 66t-56 84t-25.5 89h148z
M467 0l821 1464h158l-821 -1464h-158zM1063 231q0 90 64.5 155.5t140.5 82.5q-50 21 -78.5 67.5t-28.5 100.5q0 111 89 182.5t229 71.5q71 0 124 -20.5t80.5 -53t40.5 -66.5t13 -69q0 -81 -47 -138t-115 -81q53 -17 90 -73t37 -116q0 -129 -93 -209.5t-245 -80.5
q-153 0 -227 72t-74 175zM1221 223q0 -56 43 -87.5t96 -31.5q85 0 137.5 48t52.5 137q0 51 -39.5 82.5t-97.5 31.5q-84 0 -138 -46t-54 -134zM1309 618q0 -46 36 -72t80 -26q70 0 114 40t44 114q0 43 -33 69.5t-82 26.5q-70 0 -114.5 -38.5t-44.5 -113.5z" />
    <glyph glyph-name="seveneighths" unicode="&#x215e;" horiz-adv-x="1730" 
d="M788 1350q-154 -131 -288 -348t-181 -418h-145q58 232 170 425.5t254 325.5h-405l20 127h594zM315 0l822 1464h157l-821 -1464h-158zM989 231q0 90 64.5 155.5t140.5 82.5q-50 21 -78.5 67.5t-28.5 100.5q0 111 89 182.5t229 71.5q71 0 124 -20.5t80.5 -53t40.5 -66.5
t13 -69q0 -81 -47 -138t-115 -81q53 -17 90 -73t37 -116q0 -129 -93 -209.5t-245 -80.5q-153 0 -227 72t-74 175zM1147 223q0 -56 43 -87.5t96 -31.5q85 0 138 48t53 137q0 51 -39.5 82.5t-98.5 31.5q-84 0 -138 -46t-54 -134zM1235 618q0 -46 36 -72t81 -26q70 0 113.5 40
t43.5 114q0 43 -32.5 69.5t-81.5 26.5q-70 0 -115 -39t-45 -113z" />
    <glyph glyph-name="arrowleft" unicode="&#x2190;" horiz-adv-x="1808" 
d="M1690 618h-1213l500 -497l-115 -119l-696 698l698 695l115 -119l-500 -498l1211 2v-162z" />
    <glyph glyph-name="arrowup" unicode="&#x2191;" horiz-adv-x="1662" 
d="M184 805l695 698l698 -696l-119 -115l-479 482l-18 20v-1194h-162l2 1192l-25 -27l-473 -475z" />
    <glyph glyph-name="arrowright" unicode="&#x2192;" horiz-adv-x="1808" 
d="M180 618v162l1211 -2l-500 498l115 119l698 -695l-696 -698l-115 119l500 497h-1213z" />
    <glyph glyph-name="arrowdown" unicode="&#x2193;" horiz-adv-x="1662" 
d="M158 657l118 115l474 -475l24 -27l-2 1192h162v-1194l18 21l480 481l118 -115l-698 -696z" />
    <glyph glyph-name="uni2196" unicode="&#x2196;" horiz-adv-x="1560" 
d="M262 1253h942v-163h-665l837 -840l-114 -115l-838 840v-668h-164z" />
    <glyph glyph-name="uni2197" unicode="&#x2197;" horiz-adv-x="1380" 
d="M1204 1253l2 -946h-164v668l-837 -840l-115 115l838 840h-666v163h942z" />
    <glyph glyph-name="uni2198" unicode="&#x2198;" horiz-adv-x="1562" 
d="M1362 162h-942v164h665l-837 839l114 115l838 -840v668h164z" />
    <glyph glyph-name="uni2199" unicode="&#x2199;" horiz-adv-x="1382" 
d="M240 162l-2 946h163v-668l838 840l115 -115l-838 -839h666v-164h-942z" />
    <glyph glyph-name="uni219E" unicode="&#x219e;" horiz-adv-x="1826" 
d="M1690 618h-570l500 -497l-115 -119l-614 616h-414l500 -497l-115 -119l-696 698l698 695l115 -119l-500 -498h410l618 617l115 -119l-498 -496h566v-162z" />
    <glyph glyph-name="uni219F" unicode="&#x219f;" horiz-adv-x="1777" 
d="M813 49v569l-498 -499l-118 114l616 615v414l-498 -500l-118 115l698 696l694 -699l-119 -114l-497 500v-410l616 -619l-119 -114l-495 497v-565h-162z" />
    <glyph glyph-name="uni21A0" unicode="&#x21a0;" horiz-adv-x="1826" 
d="M199 618v162h565l-498 496l115 119l618 -617h410l-500 498l115 119l698 -695l-696 -698l-115 119l500 497h-414l-614 -616l-115 119l500 497h-569z" />
    <glyph glyph-name="uni21A1" unicode="&#x21a1;" horiz-adv-x="1777" 
d="M877 1417h161v-565l496 498l119 -115l-617 -619v-409l498 500l119 -115l-695 -698l-698 696l119 115l498 -500v413l-617 615l119 115l498 -500v569z" />
    <glyph glyph-name="uni21A2" unicode="&#x21a2;" horiz-adv-x="1810" 
d="M1595 82l-116 -117l-508 510h-520l395 -393l-117 -117l-590 592l592 592l115 -117l-395 -395h518l512 512l114 -117l-471 -471l64 -65z" />
    <glyph glyph-name="uni21A3" unicode="&#x21a3;" horiz-adv-x="1810" 
d="M223 82l408 414l63 65l-471 471l115 117l512 -512h518l-395 395l114 117l592 -592l-589 -592l-117 117l395 393h-520l-508 -510z" />
    <glyph glyph-name="uni21A4" unicode="&#x21a4;" horiz-adv-x="1830" 
d="M731 1149l115 -117l-395 -395h985v512h159v-1184h-159v510h-985l395 -393l-117 -117l-590 592z" />
    <glyph glyph-name="uni21A5" unicode="&#x21a5;" horiz-adv-x="1615" 
d="M203 907l592 592l591 -590l-116 -116l-393 395v-1038h509v-150l-1183 2v150h512v1036l-396 -395z" />
    <glyph glyph-name="uni21A6" unicode="&#x21a6;" horiz-adv-x="1830" 
d="M1108 1149l592 -592l-590 -592l-117 117l396 393h-986v-510h-159v1184h159v-512h986l-396 395z" />
    <glyph glyph-name="uni21A7" unicode="&#x21a7;" horiz-adv-x="1613" 
d="M299 555l117 115l395 -396v1037h-512v149l1184 2v-149h-510v-1039l393 396l117 -117l-592 -590z" />
    <glyph glyph-name="uni21B0" unicode="&#x21b0;" horiz-adv-x="1796" 
d="M791 1497l116 -117l-188 -186l-207 -207h1055v-987h-160v825h-895l395 -395l-114 -117l-592 592z" />
    <glyph glyph-name="uni21B1" unicode="&#x21b1;" horiz-adv-x="1650" 
d="M991 1497l590 -592l-592 -592l-115 117l396 395h-895v-825h-160v987h1055l-207 207l-189 186z" />
    <glyph glyph-name="uni21B2" unicode="&#x21b2;" horiz-adv-x="1650" 
d="M729 -35l-590 592l592 592l115 -117l-395 -395h895v825h159v-987h-1054l206 -207l189 -186z" />
    <glyph glyph-name="uni21B3" unicode="&#x21b3;" horiz-adv-x="1796" 
d="M1075 -35l-117 117l189 186l207 207h-1055v987h160v-825h895l-396 395l115 117l592 -592z" />
    <glyph glyph-name="partialdiff" unicode="&#x2202;" horiz-adv-x="1204" 
d="M68 569q19 104 68 197.5t122.5 166.5t177 116t221.5 43q198 0 304 -131q-23 94 -98 204t-170.5 195.5t-178.5 120.5l180 92q98 -79 169.5 -147.5t132 -145.5t96.5 -154t56.5 -167t19 -192t-22.5 -222q-22 -121 -74 -224t-131 -180.5t-188.5 -121.5t-237.5 -44
q-173 0 -285.5 80t-151.5 213t-9 301zM258 545q-34 -190 42.5 -299t221.5 -109q153 0 275.5 116.5t158.5 315.5q9 58 8 111.5t-21 99t-53.5 79t-89.5 52.5t-128 19q-165 0 -274 -104.5t-140 -280.5z" />
    <glyph glyph-name="uni2206" unicode="&#x2206;" horiz-adv-x="1476" 
d="M-20 0l829 1462h170l330 -1462h-1329zM285 164h796l-219 1028z" />
    <glyph glyph-name="product" unicode="&#x220f;" horiz-adv-x="1656" 
d="M201 1286v176h1478v-176h-204v-1585h-193v1585h-684v-1585h-192v1585h-205z" />
    <glyph glyph-name="summation" unicode="&#x2211;" horiz-adv-x="1558" 
d="M135 -299v152l567 737l-538 721v151h1102v-159h-871l535 -713l-572 -729h932v-160h-1155z" />
    <glyph glyph-name="minus" unicode="&#x2212;" horiz-adv-x="1255" 
d="M113 610h1032v-155h-1032v155z" />
    <glyph glyph-name="uni2215" unicode="&#x2215;" horiz-adv-x="477" 
d="M758 1464l-821 -1464h-148l821 1464h148z" />
    <glyph glyph-name="uni2219" unicode="&#x2219;" horiz-adv-x="413" 
d="M225 768q54 0 92.5 -38.5t38.5 -92.5q0 -50 -39.5 -90.5t-89.5 -40.5q-54 0 -93.5 38.5t-39.5 92.5t38.5 92.5t92.5 38.5z" />
    <glyph glyph-name="radical" unicode="&#x221a;" horiz-adv-x="1290" 
d="M457 1059l307 -877h8l457 1280h205l-541 -1460l-246 -2l-334 907h-202v152h346z" />
    <glyph glyph-name="infinity" unicode="&#x221e;" horiz-adv-x="1591" 
d="M102 516q0 135 81 227.5t216 92.5q48 0 96 -15.5t81.5 -33t80.5 -57t68.5 -60t69.5 -68.5q1 1 39.5 40t44.5 44.5t41 37.5t48.5 39.5t45.5 28.5t54 27.5t53 13.5t61 7q136 0 219.5 -91t83.5 -227q0 -139 -81.5 -230t-219.5 -91q-106 0 -200.5 61.5t-188.5 161.5
q-12 -10 -43 -38.5t-45 -40.5t-43 -36t-47 -35t-47 -27.5t-53 -24t-54 -13.5t-60 -6q-135 0 -218 88t-83 225zM236 516q0 -79 45.5 -127.5t124.5 -48.5q127 0 301 174q-104 94 -153 126q-87 58 -155 58q-75 0 -119 -53t-44 -129zM883 514q95 -88 139 -117q85 -57 168 -57
q76 0 119 50t43 126q0 81 -44.5 132.5t-123.5 51.5q-24 0 -48 -5.5t-49.5 -19.5t-43.5 -24.5t-46 -34t-39 -33t-41 -37.5t-34 -32z" />
    <glyph glyph-name="integral" unicode="&#x222b;" horiz-adv-x="749" 
d="M-47 -293l27 148h65q55 0 92.5 41.5t48.5 107.5l211 1194q22 120 96 192t207 72h115l-29 -155h-67q-63 0 -97.5 -26t-46.5 -91l-210 -1198q-22 -119 -108.5 -202t-219.5 -83h-84z" />
    <glyph glyph-name="approxequal" unicode="&#x2248;" horiz-adv-x="1280" 
d="M1169 846q-9 -134 -92 -216.5t-215 -82.5q-55 0 -120.5 21.5t-115.5 48t-109.5 48t-104.5 21.5q-57 0 -96 -37.5t-42 -101.5h-170q8 133 91 216t217 83q63 0 132.5 -21.5t118.5 -48t104.5 -48t94.5 -21.5q55 0 93 37t44 102h170zM104 174q8 133 91 216t217 83
q63 0 132.5 -21.5t118.5 -48t104.5 -48t94.5 -21.5q55 0 93 37t44 102h170q-9 -134 -92 -216.5t-215 -82.5q-55 0 -120.5 21.5t-115.5 48t-109.5 48t-104.5 21.5q-57 0 -96 -37.5t-42 -101.5h-170z" />
    <glyph glyph-name="notequal" unicode="&#x2260;" horiz-adv-x="1323" 
d="M410 -59l-127 65l116 225h-260v156h342l115 217h-457v156h537l176 336l127 -66l-141 -270h333v-156h-415l-113 -217h528v-156h-610z" />
    <glyph glyph-name="lessequal" unicode="&#x2264;" horiz-adv-x="1302" 
d="M106 53v148h1039v-148h-1039zM106 565v154l1039 301v-164l-815 -213l815 -211v-162z" />
    <glyph glyph-name="greaterequal" unicode="&#x2265;" horiz-adv-x="1355" 
d="M1198 53h-1038v148h1038v-148zM160 270v162l815 211l-815 213v164l1038 -301v-154z" />
    <glyph glyph-name="lozenge" unicode="&#x25ca;" horiz-adv-x="1171" 
d="M715 1462l442 -733l-442 -729h-205l-426 729l426 733h205zM299 729l313 -547l330 547l-330 553z" />
    <glyph glyph-name="fi" unicode="&#xfb01;" horiz-adv-x="1097" 
d="M324 1184q20 120 99 199t212 79h121l-29 -155h-61q-143 0 -166 -144l-19 -104h178l-26 -152h-178l-160 -907h-180l159 907h-145l27 152h145zM678 0l186 1059h185l-187 -1059h-184zM893 1257l37 205h196l-36 -205h-197z" />
    <glyph glyph-name="fl" unicode="&#xfb02;" horiz-adv-x="1083" 
d="M324 1184q20 120 99 199t212 79h121l-29 -155h-61q-143 0 -166 -144l-19 -104h178l-26 -152h-178l-160 -907h-180l159 907h-145l27 152h145zM670 0l258 1462h184l-258 -1462h-184z" />
    <glyph glyph-name="uniFEFF" unicode="&#xfeff;" horiz-adv-x="12" 
 />
    <glyph glyph-name="Adieresis.ss02" horiz-adv-x="1406" 
d="M311 1462h185l-37 -213h-185zM-57 0l788 1462h244l301 -1462h-197l-80 424h-626l-226 -424h-204zM453 578h518l-135 710h-7zM1165 1249l37 213h184l-36 -213h-185z" />
    <glyph glyph-name="i.loclTRK" horiz-adv-x="456" 
d="M43 0l186 1059h185l-187 -1059h-184zM256 1249l37 213h184l-37 -213h-184z" />
    <glyph glyph-name="uni0414.loclBGR" horiz-adv-x="1595" 
d="M1380 -369h-184l66 367h-1115l-65 -367h-184l94 531h151l699 1298l245 2l238 -1300h150zM352 162h762l-180 1102h-8z" />
    <glyph glyph-name="uni041B.loclBGR" horiz-adv-x="1339" 
d="M-72 0l787 1460l246 2l266 -1462h-213l-207 1264h-8l-658 -1264h-213z" />
    <glyph glyph-name="uni042F.ss03" horiz-adv-x="1288" 
d="M1038 0h-194l104 598h-340l-436 -598h-231l483 641q-106 47 -166.5 133.5t-60.5 198.5q0 223 152 356t423 133h524zM393 1010q0 -116 67 -182t197 -66h322l94 536h-309q-178 0 -274.5 -75t-96.5 -213z" />
    </font>
</defs>
</svg>
