<?xml version="1.0" standalone="no"?>
<!DOCTYPE svg PUBLIC "-//W3C//DTD SVG 1.1//EN" "http://www.w3.org/Graphics/SVG/1.1/DTD/svg11.dtd" >
<svg xmlns="http://www.w3.org/2000/svg" xmlns:xlink="http://www.w3.org/1999/xlink" version="1.1">
<metadata>
Created by FontForge 20170731 at Tue Jun 27 11:58:06 2023
 By Aleksey,,,
(c) 2017-2022. Copyright by TYPE.WELTKERN. All rights reserved.
</metadata>
<defs>
<font id="SLBSans-Book" horiz-adv-x="0" >
  <font-face 
    font-family="SLB Sans Book"
    font-weight="450"
    font-stretch="normal"
    units-per-em="2048"
    panose-1="2 0 5 3 4 0 0 2 0 4"
    ascent="1638"
    descent="-410"
    x-height="1059"
    cap-height="1462"
    bbox="-291 -438 2609 2169"
    underline-thickness="122"
    underline-position="-695"
    unicode-range="U+000D-FEFF"
  />
<missing-glyph horiz-adv-x="1454" 
d="M-4 766h692v696h78v-696h692v-70h-692v-696h-78v696h-692v70z" />
    <glyph glyph-name="f_f" unicode="ff" horiz-adv-x="1218" 
d="M827 1059v135q0 116 60 192t184 76h109v-119h-82q-63 0 -96 -34.5t-33 -120.5v-129h180v-117h-180v-942h-142v942h-467v-942h-141v942h-147v117h147v135q0 116 60 192t184 76h108v-119h-82q-63 0 -96 -34.5t-33 -120.5v-129h467z" />
    <glyph glyph-name="f_i" unicode="fi" horiz-adv-x="1034" 
d="M219 1194q0 116 60 192t184 76h108v-119h-82q-63 0 -96 -34.5t-33 -120.5v-129h181v-117h-181v-942h-141v942h-147v117h147v135zM745 0v1059h144v-1059h-144zM748 1257v205h151v-205h-151z" />
    <glyph glyph-name="f_l" unicode="fl" horiz-adv-x="1021" 
d="M219 1194q0 116 60 192t184 76h108v-119h-82q-63 0 -96 -34.5t-33 -120.5v-129h181v-117h-181v-942h-141v942h-147v117h147v135zM745 0v1462h144v-1462h-144z" />
    <glyph glyph-name=".notdef" horiz-adv-x="1454" 
d="M-4 766h692v696h78v-696h692v-70h-692v-696h-78v696h-692v70z" />
    <glyph glyph-name=".null" horiz-adv-x="1067" 
 />
    <glyph glyph-name=".null" horiz-adv-x="1067" 
 />
    <glyph glyph-name="nonmarkingreturn" horiz-adv-x="682" 
 />
    <glyph glyph-name="CR" unicode="&#xd;" horiz-adv-x="454" 
 />
    <glyph glyph-name="space" unicode=" " horiz-adv-x="454" 
 />
    <glyph glyph-name="exclam" unicode="!" horiz-adv-x="489" 
d="M319 979l-36 -621h-78l-37 621v483h151v-483zM164 0v240h164v-240h-164z" />
    <glyph glyph-name="quotedbl" unicode="&#x22;" horiz-adv-x="708" 
d="M131 1462h166l-16 -489h-109zM412 1462h166l-39 -489h-111z" />
    <glyph glyph-name="numbersign" unicode="#" horiz-adv-x="1193" 
d="M434 1462h121l-68 -481h301l68 481h121l-68 -481h205v-107h-219l-45 -321h203v-107h-217l-64 -446h-121l64 446h-301l-64 -446h-121l64 446h-205v107h219l45 321h-202v107h217zM428 553h301l45 321h-301z" />
    <glyph glyph-name="dollar" unicode="$" horiz-adv-x="1255" 
d="M563 1712h146v-227q178 -19 287.5 -125t127.5 -295h-151q-20 149 -108 223t-236 74q-140 0 -231 -67t-91 -195q0 -61 22.5 -106t74 -79t114 -58.5t162.5 -53.5q184 -53 257 -89q158 -78 197 -218q15 -52 15 -115q0 -99 -36 -176t-99 -124.5t-139.5 -73.5t-165.5 -32v-229
h-146v231q-95 10 -175.5 43t-144 89t-100.5 142t-41 193h152q10 -166 120.5 -255t274.5 -89q71 0 131.5 15.5t110 47t78 86.5t28.5 128q0 41 -10 74.5t-23.5 58t-41.5 47t-51.5 36t-66.5 30t-72 25.5t-83 24q-71 21 -117.5 37t-103 38.5t-92.5 44.5t-73 53t-57.5 65.5
t-34 80t-13.5 99.5q-1 88 30 160.5t87 120.5t129 77t159 37v227z" />
    <glyph glyph-name="percent" unicode="%" horiz-adv-x="1830" 
d="M414 760q-87 0 -135 87.5t-48 213.5q0 123 47.5 207t135.5 84q86 0 133 -84t47 -207q0 -126 -47 -213.5t-133 -87.5zM102 1059q0 -78 19.5 -150t56.5 -131t98 -94t138 -35t138 35t98 94t56 131t19 150q0 79 -19 150t-56 128t-98 91t-138 34q-102 0 -174.5 -59t-105 -148
t-32.5 -196zM559 4l563 1456h131l-563 -1456h-131zM1106 399q0 -79 19.5 -151t56.5 -131t98.5 -94t138.5 -35q101 0 173 61.5t104.5 152.5t32.5 197q0 62 -12 120t-37 109.5t-60.5 89.5t-87.5 60.5t-113 22.5q-77 0 -138.5 -34t-98.5 -91t-56.5 -128t-19.5 -149zM1237 401
q0 122 47 205.5t135 83.5q86 0 132 -83.5t46 -205.5q0 -126 -46 -214.5t-132 -88.5q-87 0 -134.5 88.5t-47.5 214.5z" />
    <glyph glyph-name="ampersand" unicode="&#x26;" horiz-adv-x="1304" 
d="M958 195q-51 -65 -104 -108.5t-136 -74t-183 -30.5q-98 0 -178 27.5t-130 70.5t-83.5 98t-47.5 107.5t-14 101.5q0 66 18.5 123t47.5 98t77.5 81.5t93 68.5t109.5 63q-56 73 -76 101t-49 77t-38 88.5t-9 88.5q0 121 89 205.5t235 84.5q141 0 240.5 -80.5t99.5 -211.5
q0 -217 -291 -386l319 -378q55 119 72 249h121q-25 -183 -111 -350l258 -309h-172zM221 389q0 -118 91 -205.5t218 -87.5q65 0 119 15.5t96 46.5t70 60t62 73l-369 440q-35 -20 -49.5 -28.5t-44.5 -26.5t-42.5 -27.5t-36.5 -27t-34 -30t-26.5 -31.5t-23.5 -36t-15.5 -39
t-11.5 -45.5t-3 -50.5zM397 1167q0 -21 3 -40t13 -41t16 -36t24.5 -41.5t26 -37.5t33.5 -45t34 -45q57 34 93.5 60t72 61.5t52.5 76t17 88.5q0 76 -54 130.5t-140 54.5q-82 0 -136.5 -50.5t-54.5 -134.5z" />
    <glyph glyph-name="quotesingle" unicode="'" horiz-adv-x="428" 
d="M131 1462h166l-27 -489h-112z" />
    <glyph glyph-name="parenleft" unicode="(" horiz-adv-x="550" 
d="M424 -399q-322 468 -322 952q0 244 83 490t239 454h127q-307 -486 -307 -944q0 -462 307 -952h-127z" />
    <glyph glyph-name="parenright" unicode=")" horiz-adv-x="550" 
d="M0 -399q307 490 307 952q0 458 -307 944h127q156 -208 239 -454t83 -490q0 -484 -322 -952h-127z" />
    <glyph glyph-name="asterisk" unicode="*" horiz-adv-x="765" 
d="M80 1319l31 88l223 -82v240h90v-240l231 82l31 -88l-229 -82l133 -190l-76 -56l-135 197l-133 -197l-78 56l133 192z" />
    <glyph glyph-name="plus" unicode="+" horiz-adv-x="1210" 
d="M674 590h420v-119h-420v-428h-135v428h-420v119h420v428h135v-428z" />
    <glyph glyph-name="comma" unicode="," horiz-adv-x="399" 
d="M156 240h159l-139 -482h-123z" />
    <glyph glyph-name="hyphen" unicode="-" horiz-adv-x="958" 
d="M160 598h639v-121h-639v121z" />
    <glyph glyph-name="period" unicode="." horiz-adv-x="417" 
d="M127 240h164v-240h-164v240z" />
    <glyph glyph-name="slash" unicode="/" horiz-adv-x="669" 
d="M504 1575h137l-498 -1770h-139z" />
    <glyph glyph-name="zero" unicode="0" horiz-adv-x="1286" 
d="M643 98q79 0 143 38.5t105.5 101t70 146t40.5 170.5t12 177q0 114 -20.5 219t-62.5 196.5t-116 146.5t-172 55q-97 0 -171 -55t-116.5 -146t-63 -196.5t-20.5 -219.5q0 -90 12.5 -177t41 -170.5t70 -146t105.5 -101t142 -38.5zM129 731q0 116 16.5 220.5t55.5 200.5
t97 165.5t146.5 111t198.5 41.5q111 0 199.5 -41.5t146.5 -111t96.5 -165.5t55 -200.5t16.5 -220.5t-16.5 -222t-55 -205t-96.5 -171t-146.5 -115t-199.5 -43q-110 0 -198.5 43t-146.5 115t-97 170.5t-55.5 204.5t-16.5 223z" />
    <glyph glyph-name="one" unicode="1" horiz-adv-x="1286" 
d="M1169 119v-119h-989v119h410v983h-334v108q68 0 109 2.5t83.5 11t66.5 25t46 45t35 69t22 99.5h115v-1343h436z" />
    <glyph glyph-name="two" unicode="2" horiz-adv-x="1286" 
d="M182 1001q3 222 125 345.5t346 123.5q208 0 326.5 -112.5t118.5 -298.5q0 -71 -19 -134t-37.5 -102t-70 -91t-73 -70t-89.5 -70q-19 -15 -29 -23q-33 -25 -91 -67.5t-93 -68.5t-81.5 -67t-75 -75t-54.5 -79.5t-37 -92.5h768v-119h-950q4 66 23 128t37 106.5t63.5 99
t67 80t85.5 77t80.5 63.5t88.5 63q3 3 5 4q61 43 88.5 63t72.5 55.5t64.5 56.5t46.5 54t38 61.5t19.5 65.5t8.5 78q0 127 -80 212t-227 85q-153 0 -235.5 -96.5t-85.5 -254.5h-144z" />
    <glyph glyph-name="three" unicode="3" horiz-adv-x="1286" 
d="M215 1087q6 171 119 277t309 106q188 0 296 -97t108 -251q0 -128 -51.5 -205.5t-149.5 -128.5q276 -83 276 -380q0 -193 -129.5 -312t-355.5 -119q-220 0 -342 109t-143 311l-2 21h149l2 -25q15 -150 104 -223.5t234 -73.5q152 0 246 87.5t94 228.5q0 68 -21.5 121
t-57 86.5t-85 55.5t-102 31t-111.5 9h-45v133q30 0 84 4q121 9 191.5 74.5t70.5 183.5q0 111 -70 174.5t-194 63.5q-123 0 -195.5 -64t-83.5 -168l-2 -29h-143z" />
    <glyph glyph-name="four" unicode="4" horiz-adv-x="1286" 
d="M154 393v109l651 960h127v-950h180v-119h-180v-393h-144v393h-634zM307 512h481v702h-6z" />
    <glyph glyph-name="five" unicode="5" horiz-adv-x="1286" 
d="M1028 1339h-620l-74 -501q52 64 139.5 101.5t194.5 37.5q222 0 350.5 -132.5t128.5 -369.5q0 -102 -35.5 -193t-99.5 -159t-159.5 -108t-209.5 -40q-196 0 -337 114t-154 302h143q15 -129 113 -211t235 -82q95 0 175.5 41t133 128.5t52.5 207.5q0 175 -91.5 276
t-263.5 101q-114 0 -194.5 -56t-124.5 -134l-148 16l113 784h733v-123z" />
    <glyph glyph-name="six" unicode="6" horiz-adv-x="1286" 
d="M127 700q0 120 16 228t54.5 209.5t95.5 175.5t146 118t200 44q107 0 189 -27.5t135 -78.5t85 -113.5t50 -143.5h-144q-10 34 -19.5 58t-26 54.5t-38.5 51t-52.5 39.5t-73.5 28t-97 9q-98 0 -171.5 -48.5t-116 -133.5t-64 -184.5t-25.5 -217.5q58 99 160.5 153t231.5 54
q209 0 347 -145t138 -357q0 -214 -146 -356t-364 -142q-116 0 -217 46.5t-170 132.5q-72 89 -97.5 214t-25.5 332zM283 473q0 -156 100 -265.5t252 -109.5q153 0 261 110.5t108 264.5q0 156 -106.5 266.5t-262.5 110.5q-155 0 -253.5 -104t-98.5 -273z" />
    <glyph glyph-name="seven" unicode="7" horiz-adv-x="1286" 
d="M1100 1333q-225 -228 -389.5 -604t-184.5 -729h-143q15 253 100 514.5t199.5 464t249.5 360.5h-764v123h932v-129z" />
    <glyph glyph-name="eight" unicode="8" horiz-adv-x="1286" 
d="M645 1475q194 0 323.5 -101t129.5 -264q0 -121 -67.5 -209.5t-178.5 -122.5q58 -15 111 -47.5t96 -80t69 -114t27 -141.5q0 -196 -142.5 -308t-365.5 -112q-228 0 -371.5 112t-142.5 308q1 75 28 141.5t71.5 114t97.5 80t110 47.5q-119 37 -183 122.5t-64 209.5
q0 163 129.5 264t322.5 101zM276 403q0 -138 98.5 -222.5t270.5 -84.5t269.5 85.5t97.5 224.5q0 134 -98.5 220.5t-268.5 86.5q-171 0 -270 -87t-99 -223zM338 1090q0 -112 84 -187.5t223 -75.5q141 0 225 75t84 188q0 109 -82.5 185.5t-226.5 76.5t-225.5 -76.5
t-81.5 -185.5z" />
    <glyph glyph-name="nine" unicode="9" horiz-adv-x="1286" 
d="M115 977q0 214 146 356t364 142q117 0 219 -45t170 -130q71 -88 95 -214t24 -336q0 -126 -17 -237.5t-55 -211t-95.5 -171.5t-143.5 -113.5t-193 -41.5q-202 0 -320 100t-151 263h143q13 -49 33.5 -87.5t56 -75.5t94 -57t136.5 -20q94 0 164.5 42.5t113 121t64.5 179
t26 227.5q-50 -84 -151 -138.5t-226 -54.5q-213 0 -355 144t-142 358zM258 977q0 -156 105.5 -266.5t261.5 -110.5q155 0 257.5 109.5t102.5 267.5t-103.5 266.5t-256.5 108.5t-260 -110t-107 -265z" />
    <glyph glyph-name="colon" unicode=":" horiz-adv-x="417" 
d="M127 950h164v-239h-164v239zM127 0v240h164v-240h-164z" />
    <glyph glyph-name="semicolon" unicode=";" horiz-adv-x="432" 
d="M156 240h159l-139 -482h-123zM150 711v239h163v-239h-163z" />
    <glyph glyph-name="less" unicode="&#x3c;" horiz-adv-x="1193" 
d="M1079 893l-825 -375l825 -375v-137l-964 449v127l964 448v-137z" />
    <glyph glyph-name="equal" unicode="=" horiz-adv-x="1245" 
d="M119 375h1009v-119h-1009v119zM119 618v119h1009v-119h-1009z" />
    <glyph glyph-name="greater" unicode="&#x3e;" horiz-adv-x="1193" 
d="M115 893v137l964 -448v-127l-964 -449v137l825 375z" />
    <glyph glyph-name="question" unicode="?" horiz-adv-x="1116" 
d="M131 1051q0 201 121.5 323.5t312.5 122.5q189 0 304.5 -111.5t115.5 -291.5q0 -48 -11.5 -93t-23 -72.5t-42.5 -69t-42 -54t-51 -53.5q-2 -3 -3.5 -4t-3 -3t-3.5 -4q-7 -7 -35.5 -36t-37.5 -39.5t-31.5 -37t-31 -44t-21 -44t-17 -53.5t-4.5 -57v-55h-142v71
q0 35 6.5 68.5t14 58.5t25.5 54.5t29 46t36.5 44.5t36 39t39.5 40q84 84 110 119q60 83 60 178q0 125 -76.5 202.5t-200.5 77.5q-127 0 -209 -87.5t-82 -235.5v-29h-143v29zM479 0v240h164v-240h-164z" />
    <glyph glyph-name="at" unicode="@" horiz-adv-x="1710" 
d="M920 -102q-232 0 -417.5 93.5t-293 268.5t-107.5 402q0 177 64.5 329t172.5 254.5t249.5 160.5t294.5 58q330 0 529.5 -191t199.5 -501q0 -233 -87.5 -367.5t-236.5 -134.5q-95 0 -144 45.5t-52 122.5q-26 -83 -95 -134.5t-172 -51.5q-151 0 -247.5 105t-96.5 286
q0 93 33 176t86.5 140.5t124 90.5t143.5 33q101 0 162.5 -52.5t79.5 -139.5l12 156h123l-47 -504q-1 -8 -2 -24.5t-2 -24.5q0 -57 20.5 -85t75.5 -28q68 0 114.5 53.5t67.5 139.5t21 198q0 261 -162.5 420.5t-447.5 159.5q-131 0 -250 -51t-208 -140t-141.5 -219t-52.5 -280
q0 -142 49 -262.5t138 -206.5t219.5 -134.5t286.5 -48.5h360v-112h-364zM608 647q0 -278 238 -278q117 0 181.5 90.5t64.5 255.5q0 112 -56.5 181t-158.5 69q-115 0 -192 -90.5t-77 -227.5z" />
    <glyph glyph-name="A" unicode="A" horiz-adv-x="1374" 
d="M197 0h-156l547 1462h198l547 -1462h-155l-170 453h-641zM412 575h551l-273 754h-6z" />
    <glyph glyph-name="B" unicode="B" horiz-adv-x="1265" 
d="M160 0v1462h499q195 0 318 -101.5t123 -285.5q0 -117 -68 -199t-182 -122v-2q136 -18 223.5 -109.5t87.5 -239.5q0 -192 -132.5 -297.5t-358.5 -105.5h-510zM309 127h373q151 0 239.5 75t88.5 201q0 132 -86.5 206.5t-235.5 74.5h-379v-557zM309 809h314q155 0 240 68.5
t85 197.5q0 260 -317 260h-322v-526z" />
    <glyph glyph-name="C" unicode="C" horiz-adv-x="1525" 
d="M1466 418q-50 -193 -219 -317t-424 -124q-173 0 -314.5 59.5t-234 162.5t-142.5 239.5t-50 292.5q0 155 50 291.5t142.5 239t234 162t314.5 59.5q251 0 410 -117t229 -319h-151q-126 311 -488 311q-144 0 -259 -52.5t-186.5 -141t-109 -199.5t-37.5 -234q0 -124 37 -235
t108.5 -199.5t186.5 -140.5t260 -52q191 0 316.5 86t173.5 228h153z" />
    <glyph glyph-name="D" unicode="D" horiz-adv-x="1404" 
d="M584 1462q350 0 545.5 -189.5t195.5 -514.5q0 -158 -50 -296.5t-141.5 -241t-229 -161.5t-304.5 -59h-440v1462h424zM309 127h297q115 0 217 41t180.5 118t124.5 199t46 273q0 146 -46 258.5t-126.5 181t-183.5 103t-224 34.5h-285v-1208z" />
    <glyph glyph-name="E" unicode="E" horiz-adv-x="1179" 
d="M1049 1462v-127h-740v-526h697v-127h-697v-555h746v-127h-895v1462h889z" />
    <glyph glyph-name="F" unicode="F" horiz-adv-x="1112" 
d="M160 0v1462h874v-127h-725v-526h664v-127h-664v-682h-149z" />
    <glyph glyph-name="G" unicode="G" horiz-adv-x="1564" 
d="M813 606v123h635l-18 -729h-109l-10 285q-135 -314 -518 -314q-171 0 -308 61.5t-224 167t-133 241.5t-46 290q0 121 30.5 233.5t92.5 207.5t148 166t203 111t253 40q130 0 237 -35.5t181 -98t123.5 -139.5t76.5 -169h-153q-44 144 -156.5 230.5t-308.5 86.5
q-113 0 -208.5 -36t-162.5 -97t-114.5 -142t-70 -172t-22.5 -186q0 -96 21 -187t66.5 -172.5t110 -142.5t158.5 -97t206 -36q108 0 199.5 33.5t160 97t107.5 161.5t40 220z" />
    <glyph glyph-name="H" unicode="H" horiz-adv-x="1380" 
d="M1071 1462h152v-1462h-152v676h-762v-676h-149v1462h149v-659h762v659z" />
    <glyph glyph-name="I" unicode="I" horiz-adv-x="468" 
d="M160 1462h149v-1462h-149v1462z" />
    <glyph glyph-name="J" unicode="J" horiz-adv-x="991" 
d="M217 354q3 -122 66.5 -189t175.5 -67q118 0 174.5 78.5t56.5 210.5v1075h150v-1073q0 -195 -98 -305.5t-283 -110.5q-171 0 -278.5 102.5t-108.5 280.5l-2 68h145z" />
    <glyph glyph-name="K" unicode="K" horiz-adv-x="1294" 
d="M309 0h-149v1462h149v-770l713 770h192l-569 -606l606 -856h-182l-522 754l-238 -250v-504z" />
    <glyph glyph-name="L" unicode="L" horiz-adv-x="1101" 
d="M160 1462h149v-1335h729v-127h-878v1462z" />
    <glyph glyph-name="M" unicode="M" horiz-adv-x="1722" 
d="M160 0v1462l246 -2l456 -1280h2l453 1282h246v-1462h-150v1284h-4l-461 -1284h-172l-463 1284h-4v-1284h-149z" />
    <glyph glyph-name="N" unicode="N" horiz-adv-x="1443" 
d="M160 1462h178l645 -1003q29 -44 82.5 -130t71.5 -114q0 46 -1 137t-1 137v973h149v-1462h-182l-635 987q-27 41 -80.5 126t-79.5 126q0 -49 1 -148t1 -147v-944h-149v1462z" />
    <glyph glyph-name="O" unicode="O" horiz-adv-x="1660" 
d="M829 1491q171 0 314 -61t237.5 -165t146.5 -241.5t52 -292.5t-52 -293t-146.5 -242t-237.5 -164.5t-314 -60.5t-313 60.5t-236 164.5t-146 242t-52 293t52 292.5t146 241.5t236 165t313 61zM231 731q0 -96 24 -187.5t73.5 -173t119 -142.5t168 -96.5t213.5 -35.5
q116 0 215 35.5t168.5 96.5t118.5 142.5t72.5 173t23.5 187.5t-23.5 187t-72.5 172t-118.5 142t-168.5 96.5t-215 35.5q-115 0 -213.5 -35.5t-168 -96.5t-119 -142t-73.5 -172t-24 -187z" />
    <glyph glyph-name="P" unicode="P" horiz-adv-x="1183" 
d="M592 731q174 0 268 78.5t94 228.5q0 140 -89 218.5t-259 78.5h-297v-604h283zM160 0v1462h467q210 0 344.5 -116.5t134.5 -307.5q0 -194 -139 -313t-355 -119h-303v-606h-149z" />
    <glyph glyph-name="Q" unicode="Q" horiz-adv-x="1660" 
d="M944 428q131 -39 293 -176q93 89 141.5 215.5t48.5 265.5q0 96 -23.5 187t-72.5 172t-118.5 142t-168.5 96.5t-215 35.5q-115 0 -213.5 -35.5t-168 -96.5t-119 -142t-73.5 -172t-24 -187t24 -187.5t73.5 -173t119 -142.5t168 -96.5t213.5 -35.5q172 0 306 78
q-122 107 -248 156zM82 733q0 155 52 292.5t146 241.5t236 165t313 61t314 -61t237.5 -165t146.5 -241.5t52 -292.5q0 -171 -62.5 -321t-177.5 -254q101 -87 209 -119l-51 -105q-104 21 -258 150q-179 -111 -410 -111q-171 0 -313 60.5t-236 164.5t-146 242t-52 293z" />
    <glyph glyph-name="R" unicode="R" horiz-adv-x="1300" 
d="M160 0v1462h508q122 0 216 -31.5t152 -87t87.5 -127.5t29.5 -157q0 -152 -86 -251.5t-225 -133.5q96 -23 146.5 -99.5t101.5 -246.5q35 -111 61.5 -178t65.5 -136v-14h-162q-23 47 -44.5 106.5t-46.5 137t-38 112.5q-20 55 -36 90t-41.5 72t-55 58t-73 34t-99.5 13h-312
v-623h-149zM309 750h359q163 0 247 82.5t84 226.5q0 57 -17 104t-55 87t-107.5 62.5t-166.5 22.5h-344v-585z" />
    <glyph glyph-name="S" unicode="S" horiz-adv-x="1255" 
d="M254 444q10 -166 120.5 -255t274.5 -89q71 0 131.5 15.5t110 47t78 86.5t28.5 128q0 41 -10 74.5t-23.5 58t-41.5 47t-51.5 36t-66.5 30t-72 25.5t-83 24q-71 21 -117.5 37t-103 38.5t-92.5 44.5t-73 53t-57.5 65.5t-34 80t-13.5 99.5q-2 127 64 219.5t171.5 136
t235.5 43.5q210 0 342.5 -107t152.5 -317h-151q-20 149 -108 223t-236 74q-140 0 -231 -67t-91 -195q0 -61 22.5 -106t74 -79t114 -58.5t162.5 -53.5q184 -53 257 -89q158 -78 197 -218q15 -52 15 -115q0 -86 -28 -156t-75 -116t-112 -77.5t-136 -45t-149 -13.5
q-110 0 -205 28t-171 84t-121.5 148t-49.5 211h152z" />
    <glyph glyph-name="T" unicode="T" horiz-adv-x="1148" 
d="M37 1335v127h1073v-127h-461v-1335h-151v1335h-461z" />
    <glyph glyph-name="U" unicode="U" horiz-adv-x="1370" 
d="M1221 520q0 -117 -33 -215.5t-97 -173t-168 -116.5t-237 -42q-134 0 -237.5 42t-167.5 117t-96.5 173t-32.5 215v942h149v-942q0 -120 40.5 -213t129 -151t215.5 -58q95 0 169 33t120.5 91t70 133.5t23.5 164.5v942h152v-942z" />
    <glyph glyph-name="V" unicode="V" horiz-adv-x="1318" 
d="M25 1462h163l467 -1308h7l468 1308h166l-542 -1460l-191 -2z" />
    <glyph glyph-name="W" unicode="W" horiz-adv-x="1847" 
d="M25 1462h159l269 -1097l51 -205h2l51 205l258 1097h213l254 -1093l51 -211h4l52 211l274 1093h160l-387 -1462h-207l-305 1309h-2l-228 -942l-88 -367h-207l-92 365z" />
    <glyph glyph-name="X" unicode="X" horiz-adv-x="1263" 
d="M25 0l516 752l-496 710h184l400 -585l413 585h175l-502 -712l524 -750h-188l-422 625l-428 -625h-176z" />
    <glyph glyph-name="Y" unicode="Y" horiz-adv-x="1226" 
d="M207 1462q333 -592 405 -723h4q73 132 210 376t194 347h172l-504 -864v-598h-151v598l-502 864h172z" />
    <glyph glyph-name="Z" unicode="Z" horiz-adv-x="1241" 
d="M96 131l856 1200h-811v131h983v-131l-852 -1200h877v-131h-1053v131z" />
    <glyph glyph-name="bracketleft" unicode="[" horiz-adv-x="538" 
d="M510 1386h-223v-1681h223v-111h-350v1903h350v-111z" />
    <glyph glyph-name="backslash" unicode="\" horiz-adv-x="669" 
d="M168 1575l498 -1770h-138l-499 1770h139z" />
    <glyph glyph-name="bracketright" unicode="]" horiz-adv-x="538" 
d="M29 1386v111h350v-1903h-350v111h223v1681h-223z" />
    <glyph glyph-name="asciicircum" unicode="^" horiz-adv-x="1224" 
d="M557 1427h107l458 -866h-135l-377 721l-370 -721h-138z" />
    <glyph glyph-name="underscore" unicode="_" horiz-adv-x="1425" 
d="M-4 -70h1434v-73h-1434v73z" />
    <glyph glyph-name="grave" unicode="`" horiz-adv-x="481" 
d="M178 1462l191 -268h-105l-266 268h180z" />
    <glyph glyph-name="a" unicode="a" horiz-adv-x="1097" 
d="M139 743q11 61 41 118t79.5 106.5t127 79.5t170.5 30q99 0 174.5 -23.5t119 -59.5t71 -87.5t36.5 -99.5t9 -102v-488q0 -111 18 -217h-154q-6 55 -6 162v47h-2q-16 -39 -39.5 -74t-65 -72.5t-109 -60t-152.5 -22.5q-180 0 -277.5 90.5t-97.5 218.5q0 59 18 106.5t65.5 81
t78.5 54.5t108.5 40t101 24t108.5 19q6 1 9 2q134 22 194 55.5t60 100.5q0 89 -72 137.5t-194 48.5q-106 0 -178.5 -57t-97.5 -158h-144zM223 289q0 -85 69 -139t185 -54q70 0 132.5 25t112 72t78.5 123.5t29 172.5v160q-21 -53 -95.5 -90.5t-227.5 -64.5
q-138 -23 -210.5 -72t-72.5 -133z" />
    <glyph glyph-name="b" unicode="b" horiz-adv-x="1202" 
d="M653 1077q225 0 353.5 -154t128.5 -393q0 -156 -55 -279t-166 -196t-261 -73q-138 0 -234 67t-138 168h-2v-217h-144v1462h144v-620h2q41 98 137.5 166.5t234.5 68.5zM270 530q0 -82 21.5 -156t64 -135.5t113.5 -98t162 -36.5q172 0 266 118t94 308q0 188 -95.5 307
t-264.5 119q-172 0 -266.5 -121.5t-94.5 -304.5z" />
    <glyph glyph-name="c" unicode="c" horiz-adv-x="1134" 
d="M1055 309q-43 -156 -160 -241.5t-299 -85.5q-120 0 -220 42.5t-166.5 116t-103 173.5t-36.5 214q0 153 62 276.5t183 198t281 74.5q182 0 298 -87.5t153 -231.5h-146q-35 92 -111.5 147.5t-195.5 55.5q-170 0 -275.5 -123.5t-105.5 -309.5q0 -185 105 -306.5t276 -121.5
q119 0 198 54t115 155h148z" />
    <glyph glyph-name="d" unicode="d" horiz-adv-x="1202" 
d="M549 1077q139 0 235.5 -68.5t139.5 -166.5h2v620h143v-1462h-143v217h-2q-44 -101 -140 -168t-235 -67q-150 0 -260 73t-164.5 196t-54.5 279t54.5 278.5t164.5 195.5t260 73zM213 530q0 -190 93 -308t265 -118q92 0 163 36.5t113 98t63.5 135.5t21.5 156
q0 183 -94.5 304.5t-266.5 121.5q-169 0 -263.5 -118.5t-94.5 -307.5z" />
    <glyph glyph-name="e" unicode="e" horiz-adv-x="1134" 
d="M1047 313q-46 -156 -168 -243.5t-299 -87.5q-155 0 -272 72.5t-177.5 196t-60.5 279.5q0 152 61.5 276.5t177 197.5t264.5 73q101 0 182 -30t134.5 -80.5t90.5 -120.5t54.5 -146.5t20.5 -162.5q2 -14 2 -50h-850q11 -175 112 -281t259 -106q118 0 205 55.5t120 157.5h144
zM209 602h704q-16 170 -100.5 264.5t-239.5 94.5q-153 0 -251 -99.5t-113 -259.5z" />
    <glyph glyph-name="f" unicode="f" horiz-adv-x="610" 
d="M219 1194q0 116 60 192t184 76h108v-119h-82q-63 0 -96 -34.5t-33 -120.5v-129h181v-117h-181v-942h-141v942h-147v117h147v135z" />
    <glyph glyph-name="g" unicode="g" horiz-adv-x="1202" 
d="M926 1059h143v-998q0 -212 -130.5 -340.5t-344.5 -128.5q-199 0 -326 95.5t-147 261.5h145q36 -236 328 -236q156 0 244 91t88 266v145h-2q-95 -233 -369 -233q-152 0 -263.5 74.5t-166.5 197t-55 276.5q0 153 55 275.5t166.5 197t263.5 74.5q142 0 233.5 -63.5
t135.5 -159.5h2v205zM213 530q0 -119 38.5 -213.5t121 -153.5t198.5 -59q78 0 141.5 26.5t103.5 69.5t67 100t38 114t11 116q0 63 -14.5 124t-44.5 115.5t-72 96t-101.5 66t-128.5 24.5q-114 0 -196.5 -59t-122 -154t-39.5 -213z" />
    <glyph glyph-name="h" unicode="h" horiz-adv-x="1114" 
d="M135 0v1462h144v-604q100 219 327 219q184 0 283.5 -104.5t99.5 -298.5v-674h-143v664q0 292 -254 292q-63 0 -117 -23t-99 -70.5t-71 -130.5t-26 -193v-539h-144z" />
    <glyph glyph-name="i" unicode="i" horiz-adv-x="423" 
d="M289 1257h-152v205h152v-205zM135 0v1059h144v-1059h-144z" />
    <glyph glyph-name="j" unicode="j" horiz-adv-x="454" 
d="M322 1257h-154v205h154v-205zM-23 -403v118h80q65 0 92 25.5t27 91.5v1227h141v-1225q0 -237 -235 -237h-105z" />
    <glyph glyph-name="k" unicode="k" horiz-adv-x="987" 
d="M279 0h-144v1462h144v-895l493 492h176l-448 -447l461 -612h-177l-383 516l-122 -119v-397z" />
    <glyph glyph-name="l" unicode="l" horiz-adv-x="411" 
d="M135 1462h144v-1462h-144v1462z" />
    <glyph glyph-name="m" unicode="m" horiz-adv-x="1665" 
d="M135 0v1059h144v-189q25 84 102.5 146.5t177.5 62.5q124 0 202 -51.5t116 -159.5q57 110 132.5 160.5t182.5 50.5q167 0 257.5 -105t90.5 -300v-674h-143v664q0 294 -219 294q-117 0 -193 -103.5t-76 -295.5v-559h-143v664q0 158 -55 226t-166 68q-91 0 -152.5 -59
t-87.5 -150.5t-26 -209.5v-539h-144z" />
    <glyph glyph-name="n" unicode="n" horiz-adv-x="1114" 
d="M135 0v1059h144v-201q100 219 327 219q184 0 283.5 -104.5t99.5 -298.5v-674h-143v664q0 292 -254 292q-63 0 -117 -23t-99 -70.5t-71 -130.5t-26 -193v-539h-144z" />
    <glyph glyph-name="o" unicode="o" horiz-adv-x="1179" 
d="M590 -18q-157 0 -277 74.5t-181.5 197.5t-61.5 274t61.5 274.5t181.5 199t277 75.5q156 0 276 -75t182 -199t62 -275q0 -150 -62 -273.5t-181.5 -198t-276.5 -74.5zM213 528q0 -180 105.5 -303t271.5 -123t271.5 123t105.5 303q0 182 -105.5 305t-271.5 123t-271.5 -123
t-105.5 -305z" />
    <glyph glyph-name="p" unicode="p" horiz-adv-x="1202" 
d="M653 1077q225 0 353.5 -154t128.5 -393q0 -156 -55 -279t-166 -196t-261 -73q-138 0 -234 67t-138 168h-2v-627h-144v1469h144v-217h2q41 98 137.5 166.5t234.5 68.5zM270 530q0 -82 21.5 -156t64 -135.5t113.5 -98t162 -36.5q172 0 266 118t94 308q0 188 -95.5 307
t-264.5 119q-172 0 -266.5 -121.5t-94.5 -304.5z" />
    <glyph glyph-name="q" unicode="q" horiz-adv-x="1202" 
d="M549 1077q139 0 235.5 -68.5t139.5 -166.5h2v217h143v-1469h-143v627h-2q-44 -101 -140 -168t-235 -67q-150 0 -260 73t-164.5 196t-54.5 279t54.5 278.5t164.5 195.5t260 73zM213 530q0 -190 93 -308t265 -118q92 0 163 36.5t113 98t63.5 135.5t21.5 156
q0 183 -94.5 304.5t-266.5 121.5q-169 0 -263.5 -118.5t-94.5 -307.5z" />
    <glyph glyph-name="r" unicode="r" horiz-adv-x="663" 
d="M279 1059v-209q81 215 327 215v-133q-61 0 -119 -25q-47 -16 -82.5 -41.5t-65 -68.5t-45 -111.5t-15.5 -159.5v-526h-144v1059h144z" />
    <glyph glyph-name="s" unicode="s" horiz-adv-x="956" 
d="M729 741q-10 111 -82 163t-172 52q-92 0 -159.5 -44t-67.5 -124q0 -126 192 -176q125 -33 144 -39q66 -17 115 -38t94.5 -53t69.5 -80t24 -109q0 -63 -25 -116t-65.5 -88t-93.5 -59t-108 -35t-110 -11q-70 0 -135.5 17.5t-125.5 54t-101.5 103t-52.5 156.5h143
q17 -105 87.5 -159t188.5 -54q108 0 181 45.5t73 139.5q0 69 -51 104.5t-147 61.5q-75 22 -148 39q-60 16 -109.5 39t-92.5 57t-67 83.5t-24 110.5q0 92 57.5 161t141.5 101.5t176 32.5q158 0 265 -84.5t128 -251.5h-143z" />
    <glyph glyph-name="t" unicode="t" horiz-adv-x="589" 
d="M317 252q0 -65 33 -100t94 -35h78v-117h-84q-133 0 -197.5 66.5t-64.5 183.5v692h-158v117h158v254l141 63v-317h203v-117h-203v-690z" />
    <glyph glyph-name="u" unicode="u" horiz-adv-x="1114" 
d="M127 385v674h143v-664q0 -293 254 -293q62 0 116 23t99.5 70.5t72 131t26.5 193.5v539h143v-1059h-143v205q-100 -223 -328 -223q-185 0 -284 104t-99 299z" />
    <glyph glyph-name="v" unicode="v" horiz-adv-x="1007" 
d="M172 1059q66 -176 185 -502t147 -401h2l330 903h153q-58 -150 -407 -1059h-156l-406 1059h152z" />
    <glyph glyph-name="w" unicode="w" horiz-adv-x="1472" 
d="M328 0l-308 1059h148l190 -690l50 -197h2q10 38 27 108t22 89l186 690h180l185 -684q9 -37 26.5 -105.5t24.5 -97.5h2q47 178 53 203l189 684h147l-309 -1059h-162l-195 715q-9 31 -49 184h-2q-16 -55 -49 -184l-197 -715h-161z" />
    <glyph glyph-name="x" unicode="x" horiz-adv-x="1024" 
d="M37 0l387 543l-367 516h174l281 -404l281 404h174l-367 -514l387 -545h-174l-301 432l-301 -432h-174z" />
    <glyph glyph-name="y" unicode="y" horiz-adv-x="1032" 
d="M170 1059l362 -922h3q55 152 164 461.5t163 460.5h150q-215 -578 -477 -1268q-36 -100 -94.5 -150.5t-159.5 -50.5h-113v119h98q20 0 37 4.5t29.5 9.5t24.5 17.5t18.5 20t15.5 26t12 26l12 30t11 28.5l37 96l-443 1092h150z" />
    <glyph glyph-name="z" unicode="z" horiz-adv-x="991" 
d="M733 940h-137h-471v119h780v-90l-665 -850h112h566v-119h-844v98z" />
    <glyph glyph-name="braceleft" unicode="{" horiz-adv-x="706" 
d="M543 1403q-59 0 -90 -49.5t-31 -134.5v-396q0 -54 -14 -100.5t-35 -76t-46.5 -52t-46 -33.5t-36.5 -14v-4q21 -4 48 -19.5t58 -45.5t51.5 -86t20.5 -126v-395q0 -84 31.5 -135t89.5 -51h94v-93h-127q-83 0 -149 73t-66 196v379q0 115 -52.5 183.5t-123.5 68.5v106
q70 0 123 69.5t53 182.5v379q0 123 66 195.5t149 72.5h127v-94h-94z" />
    <glyph glyph-name="bar" unicode="|" horiz-adv-x="434" 
d="M160 1774h114v-2212h-114v2212z" />
    <glyph glyph-name="braceright" unicode="}" horiz-adv-x="706" 
d="M164 1403h-94v94h127q83 0 149 -72.5t66 -195.5v-379q0 -113 53 -182.5t123 -69.5v-106q-71 0 -123.5 -68.5t-52.5 -183.5v-379q0 -123 -66 -196t-149 -73h-127v93h94q58 0 89.5 51t31.5 135v395q0 70 20.5 126t51.5 86t58 45.5t48 19.5v4q-16 3 -36.5 14t-46 33.5
t-46.5 52t-35 76t-14 100.5v396q0 85 -31 134.5t-90 49.5z" />
    <glyph glyph-name="asciitilde" unicode="~" horiz-adv-x="1300" 
d="M1174 645q-14 -125 -90 -196.5t-207 -71.5q-58 0 -123.5 22.5t-114.5 50t-109 50t-108 22.5q-75 0 -116.5 -38.5t-47.5 -106.5h-131q8 121 85 194.5t210 73.5q65 0 134 -22.5t117.5 -50t105 -50t98.5 -22.5q143 0 165 145h132z" />
    <glyph glyph-name="uni00A0" unicode="&#xa0;" horiz-adv-x="454" 
 />
    <glyph glyph-name="exclamdown" unicode="&#xa1;" horiz-adv-x="489" 
d="M319 82v-483h-151v483l37 620h78zM164 821v240h164v-240h-164z" />
    <glyph glyph-name="cent" unicode="&#xa2;" horiz-adv-x="1122" 
d="M526 -209v195q-211 23 -333.5 174t-122.5 368q0 141 53.5 258t158 194t244.5 93v191h138v-191q153 -15 251 -99.5t132 -215.5h-146q-65 168 -237 196v-848q182 27 243 203h148q-39 -141 -138.5 -224.5t-252.5 -98.5v-195h-138zM213 528q0 -165 85 -281.5t228 -140.5v848
q-143 -24 -228 -142t-85 -284z" />
    <glyph glyph-name="sterling" unicode="&#xa3;" horiz-adv-x="1269" 
d="M92 639v115h166q-39 62 -57.5 95.5t-39.5 98t-22 129.5q-2 126 63.5 222.5t176 147t246.5 50.5q223 0 349.5 -121t141.5 -325h-149q-21 153 -103 236t-239 83q-146 0 -241 -76t-95 -209q0 -41 15 -88t31 -77.5t48 -86t45 -79.5h403v-115h-350q21 -53 21 -113
q0 -128 -63.5 -227.5t-166.5 -183.5q112 48 207 45q87 -2 219 -37q121 -35 191 -31q51 2 110 21.5t99 48.5l67 -101q-116 -96 -311 -96q-92 0 -229 39q-115 39 -234 39q-104 0 -207 -70l-82 113q17 18 58 59t59.5 60.5t48 59.5t43 73t24.5 82.5t11 105.5q0 53 -24 113h-230z
" />
    <glyph glyph-name="currency" unicode="&#xa4;" horiz-adv-x="1210" 
d="M92 715q0 175 115 319l-109 111l82 82l111 -111q140 111 319 111q174 0 310 -111l112 111l82 -84l-108 -111q110 -142 110 -313q0 -178 -112 -316l110 -112l-78 -80l-110 113q-139 -117 -318 -117q-180 0 -321 115l-109 -113l-80 82l109 110q-115 141 -115 314zM227 715
q0 -162 111 -275.5t270 -113.5q155 0 264 113.5t109 279.5q0 162 -108.5 275.5t-262.5 113.5q-162 0 -272.5 -113.5t-110.5 -279.5z" />
    <glyph glyph-name="yen" unicode="&#xa5;" horiz-adv-x="1226" 
d="M207 1462q333 -592 405 -723h4q73 132 210 376t194 347h172l-422 -723h221v-110h-284l-19 -31v-106h303v-113h-303v-379h-151v379h-301v113h301v106l-19 31h-282v110h219l-420 723h172z" />
    <glyph glyph-name="brokenbar" unicode="&#xa6;" horiz-adv-x="509" 
d="M313 844h-116v508h116v-508zM197 -139v508h116v-508h-116z" />
    <glyph glyph-name="section" unicode="&#xa7;" horiz-adv-x="1136" 
d="M131 737q0 85 59 145.5t154 90.5q-143 88 -143 221q0 92 57.5 161t141 101.5t175.5 32.5q159 0 266 -85t128 -251h-142q-6 57 -29.5 100t-59.5 67.5t-78 36t-89 11.5q-92 0 -159.5 -44.5t-67.5 -125.5q0 -41 21 -73.5t63.5 -57.5t84 -42.5t103.5 -39.5q19 -7 29 -10
q64 -24 110 -44.5t97 -52t82.5 -65t52.5 -80t21 -100.5q0 -138 -183 -238q148 -95 148 -233q0 -78 -37.5 -140t-98.5 -97.5t-129.5 -53.5t-138.5 -18t-136 17.5t-127 54t-103 103t-53 156.5h143q17 -105 89.5 -159t190.5 -54q107 0 181.5 46t74.5 139q0 33 -15 61.5
t-35 47.5t-58.5 39.5t-65 31t-76.5 29.5t-73 28h-1l-1 1h-1l-1 1h-1h-1l-1 1h-1l-1 1h-1h-1l-1 1h-1q-167 68 -230 109q-123 82 -131 209q-1 10 -1 21zM274 741q0 -34 17 -63.5t41.5 -50.5t67.5 -43t79.5 -37t92.5 -36q27 -10 40 -15q96 -39 119 -50q133 66 133 181
q0 41 -17 74.5t-41.5 57t-70.5 47.5t-84.5 39t-103.5 38q-36 13 -94 37q-179 -44 -179 -179z" />
    <glyph glyph-name="dieresis" unicode="&#xa8;" horiz-adv-x="712" 
d="M131 1462h137v-198h-137v198zM438 1264v198h137v-198h-137z" />
    <glyph glyph-name="copyright" unicode="&#xa9;" horiz-adv-x="1730" 
d="M866 -49q-158 0 -302.5 60.5t-250.5 164.5t-168.5 250t-62.5 309q0 160 62.5 304.5t168.5 247.5t250.5 163.5t302.5 60.5t303 -60.5t250.5 -163.5t168.5 -247.5t63 -304.5q0 -163 -63 -309t-169 -250t-250.5 -164.5t-302.5 -60.5zM207 735q0 -188 88 -344t239.5 -245
t331.5 -89q179 0 330 89t239.5 245t88.5 344q0 183 -88.5 337.5t-240 243.5t-329.5 89q-135 0 -257.5 -52.5t-210 -142t-139.5 -214t-52 -261.5zM506 735q0 164 102 271.5t271 107.5q253 0 333 -237h-118q-56 139 -215 139q-118 0 -186 -78.5t-68 -202.5q0 -122 67 -200
t187 -78q169 0 215 139h118q-27 -107 -115 -173.5t-220 -66.5q-168 0 -269.5 107t-101.5 272z" />
    <glyph glyph-name="ordfeminine" unicode="&#xaa;" horiz-adv-x="802" 
d="M350 664q-117 0 -188.5 63t-71.5 156q0 50 23.5 88.5t51.5 60t81 39t81 23t83 14.5q8 1 13.5 2t10.5 2q77 13 111.5 33.5t34.5 60.5q0 58 -44.5 86.5t-119.5 28.5q-68 0 -115 -38.5t-59 -106.5h-113q3 37 22 78t52 80t88.5 64t122.5 25q284 0 284 -270l2 -317
q0 -70 9 -158h-129q-5 25 -5 104l-2 17q-69 -135 -223 -135zM211 883q0 -52 41.5 -84.5t109.5 -32.5q97 0 156 66.5t60 201.5v62q-39 -63 -193 -88q-174 -28 -174 -125z" />
    <glyph glyph-name="guillemotleft" unicode="&#xab;" horiz-adv-x="843" 
d="M84 530l246 428h131l-223 -428l223 -428h-131zM383 530l246 428h131l-223 -428l223 -428h-131z" />
    <glyph glyph-name="logicalnot" unicode="&#xac;" horiz-adv-x="1247" 
d="M115 672v110h1020v-557h-113v447h-907z" />
    <glyph glyph-name="uni00AD" unicode="&#xad;" horiz-adv-x="958" 
d="M160 598h639v-121h-639v121z" />
    <glyph glyph-name="registered" unicode="&#xae;" horiz-adv-x="1730" 
d="M1104 545q4 -14 12.5 -44.5t13 -44t13.5 -34.5t20 -39v-8h-123q-10 15 -19 37.5t-14 40t-13.5 47.5t-12.5 45q-21 61 -50 89t-87 28h-109v-287h-119v731h265q123 0 190.5 -58t67.5 -151q0 -69 -38.5 -121.5t-101.5 -73.5q41 -18 62.5 -52.5t42.5 -104.5zM82 735
q0 -163 62.5 -309t168.5 -250t250.5 -164.5t302.5 -60.5t302.5 60.5t250.5 164.5t169 250t63 309q0 160 -63 304.5t-168.5 247.5t-250.5 163.5t-303 60.5t-302.5 -60.5t-250.5 -163.5t-168.5 -247.5t-62.5 -304.5zM207 735q0 137 52 261.5t139.5 214t210 142t257.5 52.5
q178 0 329.5 -89.5t240 -244t88.5 -336.5q0 -188 -88.5 -344t-239.5 -245t-330 -89q-180 0 -331.5 89t-239.5 245t-88 344zM735 758h142q66 0 105.5 36t39.5 93q0 56 -38 87.5t-112 31.5h-137v-248z" />
    <glyph glyph-name="macron" unicode="&#xaf;" horiz-adv-x="835" 
d="M74 1350h686v-88h-686v88z" />
    <glyph glyph-name="degree" unicode="&#xb0;" horiz-adv-x="696" 
d="M348 1038q78 0 126 51t48 121t-48 121t-126 51t-125 -51t-47 -121t47 -121t125 -51zM78 1210q0 113 77.5 192t192.5 79q112 0 191 -79t79 -192q0 -115 -78.5 -192.5t-191.5 -77.5q-116 0 -193 77t-77 193z" />
    <glyph glyph-name="plusminus" unicode="&#xb1;" horiz-adv-x="1245" 
d="M119 160h1007v-113h-1007v113zM119 567v115h444v319h119v-319h444v-115h-444v-317h-119v317h-444z" />
    <glyph glyph-name="uni00B2" unicode="&#xb2;" horiz-adv-x="716" 
d="M61 801q2 56 18.5 105t38 83.5t59 71t68 59t79.5 56.5q44 30 63.5 44t49 37t41 38t25.5 37t18.5 44.5t4.5 50.5q0 69 -42.5 114.5t-121.5 45.5q-83 0 -127.5 -50.5t-46.5 -137.5h-118q1 133 81 210t214 77q126 0 203 -70.5t77 -181.5q0 -44 -11 -82t-24.5 -63.5t-44 -57
t-48.5 -47.5t-60 -49q-25 -20 -75 -55t-76.5 -55.5t-55.5 -54.5t-41 -69h446v-100h-594z" />
    <glyph glyph-name="uni00B3" unicode="&#xb3;" horiz-adv-x="727" 
d="M371 784q-139 0 -218 67t-90 189l-2 15h119l2 -15q9 -77 59 -117t128 -40q82 0 132 47t50 123q0 82 -55.5 121.5t-143.5 39.5h-45v103q38 0 58 2q66 3 104.5 38t38.5 99q0 61 -37.5 96t-103.5 35t-105 -34t-47 -91l-2 -16h-117q6 107 77.5 173.5t193.5 66.5
q120 0 190 -60.5t70 -159.5q0 -133 -119 -196q160 -51 160 -226q0 -112 -79.5 -186t-217.5 -74z" />
    <glyph glyph-name="acute" unicode="&#xb4;" horiz-adv-x="528" 
d="M391 1462h180l-266 -268h-104z" />
    <glyph glyph-name="uni00B5" unicode="&#xb5;" horiz-adv-x="1114" 
d="M127 -410v1469h143v-664q0 -159 66 -226t188 -67q62 0 116 23t99.5 70.5t72 131t26.5 193.5v539h143v-1059h-143v205q-98 -223 -328 -223q-164 0 -240 94v-486h-143z" />
    <glyph glyph-name="paragraph" unicode="&#xb6;" horiz-adv-x="1138" 
d="M981 -236h-113v1604h-264v-1604h-112v879q-123 0 -223 56.5t-154 147.5t-54 197q0 200 124.5 309t349.5 109h446v-1698z" />
    <glyph glyph-name="periodcentered" unicode="&#xb7;" horiz-adv-x="514" 
d="M258 666q54 0 92.5 -38.5t38.5 -92.5q0 -50 -39.5 -91t-89.5 -41q-54 0 -93.5 39t-39.5 93t38.5 92.5t92.5 38.5z" />
    <glyph glyph-name="cedilla" unicode="&#xb8;" horiz-adv-x="542" 
d="M242 -424q-101 0 -187 41l33 82q64 -39 137 -39q59 0 100.5 20.5t41.5 59.5q0 35 -27 55.5t-72 20.5q-47 0 -112 -27l-50 70l125 141h97l-109 -125l4 -4q34 27 92 27q73 0 121.5 -38t48.5 -110q0 -60 -38 -101t-90.5 -57t-114.5 -16z" />
    <glyph glyph-name="uni00B9" unicode="&#xb9;" horiz-adv-x="477" 
d="M258 801v637h-209v84q109 0 158.5 29.5t68.5 127.5h99v-878h-117z" />
    <glyph glyph-name="ordmasculine" unicode="&#xba;" horiz-adv-x="925" 
d="M463 649q-163 0 -266 107.5t-103 273.5t103 274.5t266 108.5t265.5 -108.5t102.5 -274.5t-102.5 -273.5t-265.5 -107.5zM215 1030q0 -120 70 -199t178 -79t177 78.5t69 199.5q0 122 -69.5 202.5t-176.5 80.5q-108 0 -178 -80.5t-70 -202.5z" />
    <glyph glyph-name="guillemotright" unicode="&#xbb;" horiz-adv-x="843" 
d="M760 530l-246 -428h-131l223 428l-223 428h131zM84 102l223 428l-223 428h131l246 -428l-246 -428h-131z" />
    <glyph glyph-name="onequarter" unicode="&#xbc;" horiz-adv-x="1419" 
d="M258 584v637h-209v84q109 0 158.5 29.5t68.5 127.5h99v-878h-117zM356 4l564 1456h131l-564 -1456h-131zM764 225v105l381 549h117v-555h106v-99h-106v-225h-119v225h-379zM877 324h266v378h-4z" />
    <glyph glyph-name="onehalf" unicode="&#xbd;" horiz-adv-x="1572" 
d="M258 584v637h-209v84q109 0 158.5 29.5t68.5 127.5h99v-878h-117zM360 4l564 1456h131l-563 -1456h-132zM918 0q2 56 18 105t37.5 83.5t59 71t68 59.5t79.5 56q119 81 160.5 127.5t41.5 124.5q0 69 -42 114t-121 45q-83 0 -128 -50.5t-47 -137.5h-118q1 133 81 210
t214 77q126 0 203 -70.5t77 -181.5q0 -44 -11 -82t-24.5 -63.5t-44 -57t-48.5 -47.5t-60 -49q-25 -20 -75 -55t-76.5 -55.5t-55.5 -54.5t-41 -69h446v-100h-593z" />
    <glyph glyph-name="threequarters" unicode="&#xbe;" horiz-adv-x="1574" 
d="M371 567q-139 0 -218 67t-90 189l-2 15h119l2 -15q9 -77 59 -117t128 -40q82 0 132 47t50 123q0 82 -55.5 121.5t-143.5 39.5h-45v103q38 0 58 2q66 3 104.5 38t38.5 99q0 61 -37.5 96t-103.5 35t-105 -34t-47 -91l-2 -16h-117q6 107 77.5 173t193.5 66q120 0 190 -60
t70 -159q0 -133 -119 -196q160 -51 160 -226q0 -112 -79.5 -186t-217.5 -74zM502 4l563 1456h131l-563 -1456h-131zM920 225v105l380 549h117v-555h107v-99h-107v-225h-119v225h-378zM1032 324h266v378h-4z" />
    <glyph glyph-name="questiondown" unicode="&#xbf;" horiz-adv-x="1081" 
d="M987 10q0 -201 -121.5 -323.5t-312.5 -122.5q-189 0 -304.5 111.5t-115.5 291.5q0 76 29.5 145.5t56 102t83.5 92.5q7 8 11 12q7 7 35.5 36t37.5 40t31.5 37t31.5 44t21.5 44.5t17 53.5t4.5 57v55h141v-72q0 -41 -6.5 -77t-23 -70t-29 -56t-41 -54.5t-41 -45.5t-46.5 -47
q-84 -84 -110 -119q-60 -83 -60 -178q0 -125 76.5 -202.5t200.5 -77.5q127 0 209 87.5t82 235.5v29h143v-29zM475 821v240h162v-240h-162z" />
    <glyph glyph-name="Agrave" unicode="&#xc0;" horiz-adv-x="1374" 
d="M197 0h-156l547 1462h198l547 -1462h-155l-170 453h-641zM354 1802h213l260 -209h-155zM412 575h551l-273 754h-6z" />
    <glyph glyph-name="Aacute" unicode="&#xc1;" horiz-adv-x="1374" 
d="M197 0h-156l547 1462h198l547 -1462h-155l-170 453h-641zM412 575h551l-273 754h-6zM547 1593l260 209h213l-318 -209h-155z" />
    <glyph glyph-name="Acircumflex" unicode="&#xc2;" horiz-adv-x="1374" 
d="M197 0h-156l547 1462h198l547 -1462h-155l-170 453h-641zM356 1577l250 231h162l250 -231h-156l-176 152l-174 -152h-156zM412 575h551l-273 754h-6z" />
    <glyph glyph-name="Atilde" unicode="&#xc3;" horiz-adv-x="1374" 
d="M197 0h-156l547 1462h198l547 -1462h-155l-170 453h-641zM340 1593q5 94 55.5 150.5t141.5 56.5q47 0 102.5 -26t105.5 -52t84 -26q91 0 101 106h104q-6 -93 -61 -151t-142 -58q-50 0 -108 26.5t-109 52.5t-84 26q-89 0 -92 -105h-98zM412 575h551l-273 754h-6z" />
    <glyph glyph-name="Adieresis" unicode="&#xc4;" horiz-adv-x="1374" 
d="M197 0h-156l547 1462h198l547 -1462h-155l-170 453h-641zM412 575h551l-273 754h-6zM453 1593v209h141v-209h-141zM778 1593v209h142v-209h-142z" />
    <glyph glyph-name="Aring" unicode="&#xc5;" horiz-adv-x="1374" 
d="M197 0h-156l547 1462h198l547 -1462h-155l-170 453h-641zM412 575h551l-273 754h-6zM463 1792q0 92 65 156.5t156 64.5t156 -64.5t65 -156.5t-65 -156.5t-156 -64.5t-156 64.5t-65 156.5zM563 1790q0 -54 33 -87.5t88 -33.5q54 0 86.5 33.5t32.5 87.5t-32.5 87.5
t-86.5 33.5q-55 0 -88 -33.5t-33 -87.5z" />
    <glyph glyph-name="AE" unicode="&#xc6;" horiz-adv-x="2011" 
d="M41 0l848 1462h989v-127h-717v-526h674v-127h-674v-555h723v-127h-874v467h-533l-270 -467h-166zM547 592h463v743h-33z" />
    <glyph glyph-name="Ccedilla" unicode="&#xc7;" horiz-adv-x="1525" 
d="M1466 418q-48 -184 -205 -306t-393 -132l-90 -105l4 -4q34 27 92 27q73 0 121.5 -38t48.5 -110q0 -60 -38 -101t-90.5 -57t-114.5 -16q-101 0 -187 41l33 82q64 -39 137 -39q59 0 100.5 20.5t41.5 59.5q0 35 -27 55.5t-72 20.5q-47 0 -112 -27l-49 70l106 121
q-161 8 -292.5 70.5t-218 164t-133 234t-46.5 282.5q0 155 50 291.5t142.5 239t234 162t314.5 59.5q251 0 410 -117t229 -319h-151q-126 311 -488 311q-144 0 -259 -52.5t-186.5 -141t-109 -199.5t-37.5 -234q0 -124 37 -235t108.5 -199.5t186.5 -140.5t260 -52
q191 0 316.5 86t173.5 228h153z" />
    <glyph glyph-name="Egrave" unicode="&#xc8;" horiz-adv-x="1179" 
d="M1049 1462v-127h-740v-526h697v-127h-697v-555h746v-127h-895v1462h889zM254 1802h213l260 -209h-156z" />
    <glyph glyph-name="Eacute" unicode="&#xc9;" horiz-adv-x="1179" 
d="M1049 1462v-127h-740v-526h697v-127h-697v-555h746v-127h-895v1462h889zM446 1593l261 209h213l-318 -209h-156z" />
    <glyph glyph-name="Ecircumflex" unicode="&#xca;" horiz-adv-x="1179" 
d="M1049 1462v-127h-740v-526h697v-127h-697v-555h746v-127h-895v1462h889zM258 1577l250 231h162l250 -231h-156l-176 152l-174 -152h-156z" />
    <glyph glyph-name="Edieresis" unicode="&#xcb;" horiz-adv-x="1179" 
d="M1049 1462v-127h-740v-526h697v-127h-697v-555h746v-127h-895v1462h889zM354 1593v209h142v-209h-142zM680 1593v209h141v-209h-141z" />
    <glyph glyph-name="Igrave" unicode="&#xcc;" horiz-adv-x="468" 
d="M160 1462h149v-1462h-149v1462zM-98 1802h213l260 -209h-156z" />
    <glyph glyph-name="Iacute" unicode="&#xcd;" horiz-adv-x="468" 
d="M160 1462h149v-1462h-149v1462zM94 1593l260 209h213l-317 -209h-156z" />
    <glyph glyph-name="Icircumflex" unicode="&#xce;" horiz-adv-x="468" 
d="M160 1462h149v-1462h-149v1462zM-96 1577l250 231h161l250 -231h-155l-177 152l-174 -152h-155z" />
    <glyph glyph-name="Idieresis" unicode="&#xcf;" horiz-adv-x="468" 
d="M160 1462h149v-1462h-149v1462zM0 1593v209h141v-209h-141zM326 1593v209h141v-209h-141z" />
    <glyph glyph-name="Eth" unicode="&#xd0;" horiz-adv-x="1404" 
d="M584 1462q350 0 545.5 -189.5t195.5 -514.5q0 -158 -50 -296.5t-141.5 -241t-229 -161.5t-304.5 -59h-440v668h-146v108h146v686h424zM309 127h297q115 0 217 41t180.5 118t124.5 199t46 273q0 146 -46 258.5t-126.5 181t-183.5 103t-224 34.5h-285v-559h348v-108h-348
v-541z" />
    <glyph glyph-name="Ntilde" unicode="&#xd1;" horiz-adv-x="1443" 
d="M160 1462h178l645 -1003q29 -44 82.5 -130t71.5 -114q0 46 -1 137t-1 137v973h149v-1462h-182l-635 987q-27 41 -80.5 126t-79.5 126q0 -49 1 -148t1 -147v-944h-149v1462zM375 1593q5 94 55 150.5t141 56.5q47 0 102.5 -26t106 -52t84.5 -26q91 0 101 106h104
q-6 -93 -61 -151t-142 -58q-50 0 -108 26.5t-109 52.5t-84 26q-89 0 -92 -105h-98z" />
    <glyph glyph-name="Ograve" unicode="&#xd2;" horiz-adv-x="1660" 
d="M829 1491q171 0 314 -61t237.5 -165t146.5 -241.5t52 -292.5t-52 -293t-146.5 -242t-237.5 -164.5t-314 -60.5t-313 60.5t-236 164.5t-146 242t-52 293t52 292.5t146 241.5t236 165t313 61zM231 731q0 -96 24 -187.5t73.5 -173t119 -142.5t168 -96.5t213.5 -35.5
q116 0 215 35.5t168.5 96.5t118.5 142.5t72.5 173t23.5 187.5t-23.5 187t-72.5 172t-118.5 142t-168.5 96.5t-215 35.5q-115 0 -213.5 -35.5t-168 -96.5t-119 -142t-73.5 -172t-24 -187zM496 1802h213l260 -209h-156z" />
    <glyph glyph-name="Oacute" unicode="&#xd3;" horiz-adv-x="1660" 
d="M829 1491q171 0 314 -61t237.5 -165t146.5 -241.5t52 -292.5t-52 -293t-146.5 -242t-237.5 -164.5t-314 -60.5t-313 60.5t-236 164.5t-146 242t-52 293t52 292.5t146 241.5t236 165t313 61zM231 731q0 -96 24 -187.5t73.5 -173t119 -142.5t168 -96.5t213.5 -35.5
q116 0 215 35.5t168.5 96.5t118.5 142.5t72.5 173t23.5 187.5t-23.5 187t-72.5 172t-118.5 142t-168.5 96.5t-215 35.5q-115 0 -213.5 -35.5t-168 -96.5t-119 -142t-73.5 -172t-24 -187zM688 1593l260 209h213l-317 -209h-156z" />
    <glyph glyph-name="Ocircumflex" unicode="&#xd4;" horiz-adv-x="1660" 
d="M829 1491q171 0 314 -61t237.5 -165t146.5 -241.5t52 -292.5t-52 -293t-146.5 -242t-237.5 -164.5t-314 -60.5t-313 60.5t-236 164.5t-146 242t-52 293t52 292.5t146 241.5t236 165t313 61zM231 731q0 -96 24 -187.5t73.5 -173t119 -142.5t168 -96.5t213.5 -35.5
q116 0 215 35.5t168.5 96.5t118.5 142.5t72.5 173t23.5 187.5t-23.5 187t-72.5 172t-118.5 142t-168.5 96.5t-215 35.5q-115 0 -213.5 -35.5t-168 -96.5t-119 -142t-73.5 -172t-24 -187zM500 1577l250 231h161l250 -231h-155l-177 152l-174 -152h-155z" />
    <glyph glyph-name="Otilde" unicode="&#xd5;" horiz-adv-x="1660" 
d="M829 1491q171 0 314 -61t237.5 -165t146.5 -241.5t52 -292.5t-52 -293t-146.5 -242t-237.5 -164.5t-314 -60.5t-313 60.5t-236 164.5t-146 242t-52 293t52 292.5t146 241.5t236 165t313 61zM231 731q0 -96 24 -187.5t73.5 -173t119 -142.5t168 -96.5t213.5 -35.5
q116 0 215 35.5t168.5 96.5t118.5 142.5t72.5 173t23.5 187.5t-23.5 187t-72.5 172t-118.5 142t-168.5 96.5t-215 35.5q-115 0 -213.5 -35.5t-168 -96.5t-119 -142t-73.5 -172t-24 -187zM481 1593q5 94 55.5 150.5t141.5 56.5q47 0 102.5 -26t106 -52t84.5 -26q90 0 100 106
h105q-6 -93 -61 -151t-142 -58q-50 0 -108 26.5t-109 52.5t-84 26q-89 0 -92 -105h-99z" />
    <glyph glyph-name="Odieresis" unicode="&#xd6;" horiz-adv-x="1660" 
d="M829 1491q171 0 314 -61t237.5 -165t146.5 -241.5t52 -292.5t-52 -293t-146.5 -242t-237.5 -164.5t-314 -60.5t-313 60.5t-236 164.5t-146 242t-52 293t52 292.5t146 241.5t236 165t313 61zM231 731q0 -96 24 -187.5t73.5 -173t119 -142.5t168 -96.5t213.5 -35.5
q116 0 215 35.5t168.5 96.5t118.5 142.5t72.5 173t23.5 187.5t-23.5 187t-72.5 172t-118.5 142t-168.5 96.5t-215 35.5q-115 0 -213.5 -35.5t-168 -96.5t-119 -142t-73.5 -172t-24 -187zM596 1593v209h141v-209h-141zM922 1593v209h141v-209h-141z" />
    <glyph glyph-name="multiply" unicode="&#xd7;" horiz-adv-x="1206" 
d="M147 893l86 86l371 -369l369 369l86 -86l-369 -369l369 -368l-86 -86l-369 368l-371 -368l-86 86l371 368z" />
    <glyph glyph-name="Oslash" unicode="&#xd8;" horiz-adv-x="1660" 
d="M829 1491q313 0 517 -191l165 160l76 -76l-170 -161q78 -100 120 -227t42 -265q0 -155 -52 -293t-146.5 -242t-237.5 -164.5t-314 -60.5q-313 0 -520 197l-164 -156l-69 76l164 156q-158 206 -158 487q0 155 52 292.5t146 241.5t236 165t313 61zM231 731q0 -214 113 -387
l899 860q-163 160 -414 160q-115 0 -213.5 -35.5t-168 -96.5t-119 -142t-73.5 -172t-24 -187zM410 264q165 -168 419 -168q116 0 215 35.5t168.5 96.5t118.5 142.5t72.5 173t23.5 187.5q0 223 -116 391z" />
    <glyph glyph-name="Ugrave" unicode="&#xd9;" horiz-adv-x="1370" 
d="M1221 520q0 -117 -33 -215.5t-97 -173t-168 -116.5t-237 -42q-134 0 -237.5 42t-167.5 117t-96.5 173t-32.5 215v942h149v-942q0 -120 40.5 -213t129 -151t215.5 -58q95 0 169 33t120.5 91t70 133.5t23.5 164.5v942h152v-942zM354 1802h213l260 -209h-155z" />
    <glyph glyph-name="Uacute" unicode="&#xda;" horiz-adv-x="1370" 
d="M1221 520q0 -117 -33 -215.5t-97 -173t-168 -116.5t-237 -42q-134 0 -237.5 42t-167.5 117t-96.5 173t-32.5 215v942h149v-942q0 -120 40.5 -213t129 -151t215.5 -58q95 0 169 33t120.5 91t70 133.5t23.5 164.5v942h152v-942zM547 1593l260 209h213l-318 -209h-155z" />
    <glyph glyph-name="Ucircumflex" unicode="&#xdb;" horiz-adv-x="1370" 
d="M1221 520q0 -117 -33 -215.5t-97 -173t-168 -116.5t-237 -42q-134 0 -237.5 42t-167.5 117t-96.5 173t-32.5 215v942h149v-942q0 -120 40.5 -213t129 -151t215.5 -58q95 0 169 33t120.5 91t70 133.5t23.5 164.5v942h152v-942zM356 1577l250 231h162l250 -231h-156
l-176 152l-174 -152h-156z" />
    <glyph glyph-name="Udieresis" unicode="&#xdc;" horiz-adv-x="1370" 
d="M1221 520q0 -117 -33 -215.5t-97 -173t-168 -116.5t-237 -42q-134 0 -237.5 42t-167.5 117t-96.5 173t-32.5 215v942h149v-942q0 -120 40.5 -213t129 -151t215.5 -58q95 0 169 33t120.5 91t70 133.5t23.5 164.5v942h152v-942zM453 1593v209h141v-209h-141zM778 1593v209
h142v-209h-142z" />
    <glyph glyph-name="Yacute" unicode="&#xdd;" horiz-adv-x="1226" 
d="M207 1462q333 -592 405 -723h4q73 132 210 376t194 347h172l-504 -864v-598h-151v598l-502 864h172zM471 1593l260 209h213l-317 -209h-156z" />
    <glyph glyph-name="Thorn" unicode="&#xde;" horiz-adv-x="1173" 
d="M627 1182q209 0 339 -112.5t130 -303.5q0 -196 -131 -311t-347 -113h-309v-342h-149v1462h149v-280h318zM309 467h289q346 0 346 299q0 140 -84.5 214.5t-253.5 74.5h-297v-588z" />
    <glyph glyph-name="germandbls" unicode="&#xdf;" horiz-adv-x="1067" 
d="M125 1077q0 192 112.5 303t288.5 111q169 0 284.5 -95t115.5 -261q0 -137 -69 -221.5t-179 -114.5q158 -31 240.5 -129t82.5 -260q0 -194 -121.5 -311t-332.5 -117q-103 0 -174 18v123q68 -21 164 -21q159 0 241 84.5t82 227.5q0 90 -25 153t-73 97.5t-107 49.5t-137 15
l-51 2v113q66 2 121 18.5t99.5 48t69.5 84.5t25 123q0 120 -68.5 186t-181.5 66q-264 0 -264 -313v-1057h-143v1077z" />
    <glyph glyph-name="agrave" unicode="&#xe0;" horiz-adv-x="1097" 
d="M139 743q11 61 41 118t79.5 106.5t127 79.5t170.5 30q99 0 174.5 -23.5t119 -59.5t71 -87.5t36.5 -99.5t9 -102v-488q0 -111 18 -217h-154q-6 55 -6 162v47h-2q-16 -39 -39.5 -74t-65 -72.5t-109 -60t-152.5 -22.5q-180 0 -277.5 90.5t-97.5 218.5q0 59 18 106.5t65.5 81
t78.5 54.5t108.5 40t101 24t108.5 19q6 1 9 2q134 22 194 55.5t60 100.5q0 89 -72 137.5t-194 48.5q-106 0 -178.5 -57t-97.5 -158h-144zM223 289q0 -85 69 -139t185 -54q70 0 132.5 25t112 72t78.5 123.5t29 172.5v160q-21 -53 -95.5 -90.5t-227.5 -64.5
q-138 -23 -210.5 -72t-72.5 -133zM293 1470h180l191 -268h-105z" />
    <glyph glyph-name="aacute" unicode="&#xe1;" horiz-adv-x="1097" 
d="M139 743q11 61 41 118t79.5 106.5t127 79.5t170.5 30q99 0 174.5 -23.5t119 -59.5t71 -87.5t36.5 -99.5t9 -102v-488q0 -111 18 -217h-154q-6 55 -6 162v47h-2q-16 -39 -39.5 -74t-65 -72.5t-109 -60t-152.5 -22.5q-180 0 -277.5 90.5t-97.5 218.5q0 59 18 106.5t65.5 81
t78.5 54.5t108.5 40t101 24t108.5 19q6 1 9 2q134 22 194 55.5t60 100.5q0 89 -72 137.5t-194 48.5q-106 0 -178.5 -57t-97.5 -158h-144zM223 289q0 -85 69 -139t185 -54q70 0 132.5 25t112 72t78.5 123.5t29 172.5v160q-21 -53 -95.5 -90.5t-227.5 -64.5
q-138 -23 -210.5 -72t-72.5 -133zM473 1202l191 268h180l-266 -268h-105z" />
    <glyph glyph-name="acircumflex" unicode="&#xe2;" horiz-adv-x="1097" 
d="M139 743q11 61 41 118t79.5 106.5t127 79.5t170.5 30q99 0 174.5 -23.5t119 -59.5t71 -87.5t36.5 -99.5t9 -102v-488q0 -111 18 -217h-154q-6 55 -6 162v47h-2q-16 -39 -39.5 -74t-65 -72.5t-109 -60t-152.5 -22.5q-180 0 -277.5 90.5t-97.5 218.5q0 59 18 106.5t65.5 81
t78.5 54.5t108.5 40t101 24t108.5 19q6 1 9 2q134 22 194 55.5t60 100.5q0 89 -72 137.5t-194 48.5q-106 0 -178.5 -57t-97.5 -158h-144zM223 289q0 -85 69 -139t185 -54q70 0 132.5 25t112 72t78.5 123.5t29 172.5v160q-21 -53 -95.5 -90.5t-227.5 -64.5
q-138 -23 -210.5 -72t-72.5 -133zM256 1202l227 268h150l225 -268h-139l-162 191l-162 -191h-139z" />
    <glyph glyph-name="atilde" unicode="&#xe3;" horiz-adv-x="1097" 
d="M139 743q11 61 41 118t79.5 106.5t127 79.5t170.5 30q99 0 174.5 -23.5t119 -59.5t71 -87.5t36.5 -99.5t9 -102v-488q0 -111 18 -217h-154q-6 55 -6 162v47h-2q-16 -39 -39.5 -74t-65 -72.5t-109 -60t-152.5 -22.5q-180 0 -277.5 90.5t-97.5 218.5q0 59 18 106.5t65.5 81
t78.5 54.5t108.5 40t101 24t108.5 19q6 1 9 2q134 22 194 55.5t60 100.5q0 89 -72 137.5t-194 48.5q-106 0 -178.5 -57t-97.5 -158h-144zM209 1264q3 93 53.5 149.5t140.5 56.5q48 0 104 -26.5t106.5 -53t84.5 -26.5q45 0 70.5 28t30.5 78h102q-6 -93 -61 -150.5t-142 -57.5
q-49 0 -107 26t-109.5 52t-84.5 26q-87 0 -90 -102h-98zM223 289q0 -85 69 -139t185 -54q70 0 132.5 25t112 72t78.5 123.5t29 172.5v160q-21 -53 -95.5 -90.5t-227.5 -64.5q-138 -23 -210.5 -72t-72.5 -133z" />
    <glyph glyph-name="adieresis" unicode="&#xe4;" horiz-adv-x="1097" 
d="M139 743q11 61 41 118t79.5 106.5t127 79.5t170.5 30q99 0 174.5 -23.5t119 -59.5t71 -87.5t36.5 -99.5t9 -102v-488q0 -111 18 -217h-154q-6 55 -6 162v47h-2q-16 -39 -39.5 -74t-65 -72.5t-109 -60t-152.5 -22.5q-180 0 -277.5 90.5t-97.5 218.5q0 59 18 106.5t65.5 81
t78.5 54.5t108.5 40t101 24t108.5 19q6 1 9 2q134 22 194 55.5t60 100.5q0 89 -72 137.5t-194 48.5q-106 0 -178.5 -57t-97.5 -158h-144zM223 289q0 -85 69 -139t185 -54q70 0 132.5 25t112 72t78.5 123.5t29 172.5v160q-21 -53 -95.5 -90.5t-227.5 -64.5
q-138 -23 -210.5 -72t-72.5 -133zM334 1272v198h137v-198h-137zM641 1272v198h137v-198h-137z" />
    <glyph glyph-name="aring" unicode="&#xe5;" horiz-adv-x="1097" 
d="M139 743q11 61 41 118t79.5 106.5t127 79.5t170.5 30q99 0 174.5 -23.5t119 -59.5t71 -87.5t36.5 -99.5t9 -102v-488q0 -111 18 -217h-154q-6 55 -6 162v47h-2q-16 -39 -39.5 -74t-65 -72.5t-109 -60t-152.5 -22.5q-180 0 -277.5 90.5t-97.5 218.5q0 59 18 106.5t65.5 81
t78.5 54.5t108.5 40t101 24t108.5 19q6 1 9 2q134 22 194 55.5t60 100.5q0 89 -72 137.5t-194 48.5q-106 0 -178.5 -57t-97.5 -158h-144zM223 289q0 -85 69 -139t185 -54q70 0 132.5 25t112 72t78.5 123.5t29 172.5v160q-21 -53 -95.5 -90.5t-227.5 -64.5
q-138 -23 -210.5 -72t-72.5 -133zM334 1362q0 92 65 156.5t156 64.5t156 -64.5t65 -156.5t-65 -156.5t-156 -64.5t-156 64.5t-65 156.5zM434 1360q0 -54 33.5 -88.5t87.5 -34.5t86.5 34.5t32.5 88.5t-32.5 88.5t-86.5 34.5t-87.5 -34.5t-33.5 -88.5z" />
    <glyph glyph-name="ae" unicode="&#xe6;" horiz-adv-x="1812" 
d="M82 289q0 40 10.5 75t26.5 61.5t44.5 50t53.5 40t65 31.5t68.5 24t74 19t70.5 14.5t70 11.5q129 22 186.5 57.5t57.5 98.5q0 90 -70.5 138t-193.5 48q-106 0 -175 -56.5t-94 -158.5h-137q9 55 37 110.5t75 107t122.5 84t167.5 32.5q112 0 192 -32t119 -78.5t57 -108.5
q119 219 369 219q98 0 175.5 -29t128 -78.5t84 -120t49 -146.5t18.5 -166q0 -7 1 -22.5t1 -22.5h-785q6 -181 91.5 -286.5t236.5 -105.5q112 0 187.5 54.5t111.5 158.5h141q-45 -158 -157 -244.5t-281 -86.5q-299 0 -399 266q-50 -119 -161 -193.5t-265 -74.5
q-180 0 -276.5 90.5t-96.5 218.5zM223 289q0 -86 64.5 -139.5t179.5 -53.5q152 0 248 99.5t96 289.5v150q-49 -95 -311 -139q-277 -46 -277 -207zM952 602h637q-16 176 -89.5 267.5t-221.5 91.5q-147 0 -230.5 -97.5t-95.5 -261.5z" />
    <glyph glyph-name="ccedilla" unicode="&#xe7;" horiz-adv-x="1134" 
d="M1055 309q-42 -153 -155 -238t-288 -89l-92 -107l4 -4q34 27 92 27q73 0 121.5 -38t48.5 -110q0 -60 -38 -101t-90.5 -57t-114.5 -16q-101 0 -187 41l33 82q64 -39 137 -39q59 0 100.5 20.5t41.5 59.5q0 35 -27 55.5t-72 20.5q-47 0 -112 -27l-49 70l112 127
q-208 26 -329 176.5t-121 365.5q0 153 62 276.5t183 198t281 74.5q182 0 298 -87.5t153 -231.5h-146q-35 92 -111.5 147.5t-195.5 55.5q-170 0 -275.5 -123.5t-105.5 -309.5q0 -185 105 -306.5t276 -121.5q119 0 198 54t115 155h148z" />
    <glyph glyph-name="egrave" unicode="&#xe8;" horiz-adv-x="1134" 
d="M1047 313q-46 -156 -168 -243.5t-299 -87.5q-155 0 -272 72.5t-177.5 196t-60.5 279.5q0 152 61.5 276.5t177 197.5t264.5 73q101 0 182 -30t134.5 -80.5t90.5 -120.5t54.5 -146.5t20.5 -162.5q2 -14 2 -50h-850q11 -175 112 -281t259 -106q118 0 205 55.5t120 157.5h144
zM209 602h704q-16 170 -100.5 264.5t-239.5 94.5q-153 0 -251 -99.5t-113 -259.5zM309 1462h180l191 -268h-105z" />
    <glyph glyph-name="eacute" unicode="&#xe9;" horiz-adv-x="1134" 
d="M1047 313q-46 -156 -168 -243.5t-299 -87.5q-155 0 -272 72.5t-177.5 196t-60.5 279.5q0 152 61.5 276.5t177 197.5t264.5 73q101 0 182 -30t134.5 -80.5t90.5 -120.5t54.5 -146.5t20.5 -162.5q2 -14 2 -50h-850q11 -175 112 -281t259 -106q118 0 205 55.5t120 157.5h144
zM209 602h704q-16 170 -100.5 264.5t-239.5 94.5q-153 0 -251 -99.5t-113 -259.5zM489 1194l191 268h180l-266 -268h-105z" />
    <glyph glyph-name="ecircumflex" unicode="&#xea;" horiz-adv-x="1134" 
d="M1047 313q-46 -156 -168 -243.5t-299 -87.5q-155 0 -272 72.5t-177.5 196t-60.5 279.5q0 152 61.5 276.5t177 197.5t264.5 73q101 0 182 -30t134.5 -80.5t90.5 -120.5t54.5 -146.5t20.5 -162.5q2 -14 2 -50h-850q11 -175 112 -281t259 -106q118 0 205 55.5t120 157.5h144
zM209 602h704q-16 170 -100.5 264.5t-239.5 94.5q-153 0 -251 -99.5t-113 -259.5zM272 1194l228 268h149l225 -268h-139l-162 190l-161 -190h-140z" />
    <glyph glyph-name="edieresis" unicode="&#xeb;" horiz-adv-x="1134" 
d="M1047 313q-46 -156 -168 -243.5t-299 -87.5q-155 0 -272 72.5t-177.5 196t-60.5 279.5q0 152 61.5 276.5t177 197.5t264.5 73q101 0 182 -30t134.5 -80.5t90.5 -120.5t54.5 -146.5t20.5 -162.5q2 -14 2 -50h-850q11 -175 112 -281t259 -106q118 0 205 55.5t120 157.5h144
zM209 602h704q-16 170 -100.5 264.5t-239.5 94.5q-153 0 -251 -99.5t-113 -259.5zM348 1264v198h137v-198h-137zM655 1264v198h138v-198h-138z" />
    <glyph glyph-name="igrave" unicode="&#xec;" horiz-adv-x="411" 
d="M135 0v1059h144v-1059h-144zM-57 1462h180l190 -268h-104z" />
    <glyph glyph-name="iacute" unicode="&#xed;" horiz-adv-x="411" 
d="M135 0v1059h144v-1059h-144zM123 1194l190 268h181l-267 -268h-104z" />
    <glyph glyph-name="icircumflex" unicode="&#xee;" horiz-adv-x="411" 
d="M135 0v1059h144v-1059h-144zM-94 1194l227 268h150l225 -268h-139l-162 190l-162 -190h-139z" />
    <glyph glyph-name="idieresis" unicode="&#xef;" horiz-adv-x="411" 
d="M135 0v1059h144v-1059h-144zM-16 1264v198h137v-198h-137zM291 1264v198h137v-198h-137z" />
    <glyph glyph-name="eth" unicode="&#xf0;" horiz-adv-x="1191" 
d="M332 1276l219 104q-96 71 -178 111l131 76q118 -83 172 -127l250 119l39 -80l-215 -103q122 -108 200 -218.5t125 -266t47 -346.5q0 -116 -34.5 -217.5t-99.5 -179t-166 -122t-226 -44.5t-226 44.5t-166 122t-99.5 179t-34.5 217.5q0 106 33.5 202.5t96 171t159.5 118.5
t216 44q211 0 338 -141q-74 195 -286 377l-256 -121zM219 545q0 -197 106 -318t271 -121t272 121t107 318q0 178 -101.5 295.5t-283.5 117.5q-174 0 -272.5 -114t-98.5 -299z" />
    <glyph glyph-name="ntilde" unicode="&#xf1;" horiz-adv-x="1114" 
d="M135 0v1059h144v-201q100 219 327 219q184 0 283.5 -104.5t99.5 -298.5v-674h-143v664q0 292 -254 292q-63 0 -117 -23t-99 -70.5t-71 -130.5t-26 -193v-539h-144zM205 1255q3 94 53.5 150.5t140.5 56.5q48 0 104 -26.5t106.5 -53t84.5 -26.5q45 0 70.5 28t30.5 78h102
q-6 -93 -61 -151t-142 -58q-49 0 -107 26.5t-109.5 52.5t-84.5 26q-87 0 -90 -103h-98z" />
    <glyph glyph-name="ograve" unicode="&#xf2;" horiz-adv-x="1179" 
d="M590 -18q-157 0 -277 74.5t-181.5 197.5t-61.5 274t61.5 274.5t181.5 199t277 75.5q156 0 276 -75t182 -199t62 -275q0 -150 -62 -273.5t-181.5 -198t-276.5 -74.5zM213 528q0 -180 105.5 -303t271.5 -123t271.5 123t105.5 303q0 182 -105.5 305t-271.5 123t-271.5 -123
t-105.5 -305zM326 1462h180l190 -268h-104z" />
    <glyph glyph-name="oacute" unicode="&#xf3;" horiz-adv-x="1179" 
d="M590 -18q-157 0 -277 74.5t-181.5 197.5t-61.5 274t61.5 274.5t181.5 199t277 75.5q156 0 276 -75t182 -199t62 -275q0 -150 -62 -273.5t-181.5 -198t-276.5 -74.5zM213 528q0 -180 105.5 -303t271.5 -123t271.5 123t105.5 303q0 182 -105.5 305t-271.5 123t-271.5 -123
t-105.5 -305zM506 1194l190 268h181l-267 -268h-104z" />
    <glyph glyph-name="ocircumflex" unicode="&#xf4;" horiz-adv-x="1179" 
d="M590 -18q-157 0 -277 74.5t-181.5 197.5t-61.5 274t61.5 274.5t181.5 199t277 75.5q156 0 276 -75t182 -199t62 -275q0 -150 -62 -273.5t-181.5 -198t-276.5 -74.5zM213 528q0 -180 105.5 -303t271.5 -123t271.5 123t105.5 303q0 182 -105.5 305t-271.5 123t-271.5 -123
t-105.5 -305zM289 1194l227 268h150l225 -268h-139l-162 190l-162 -190h-139z" />
    <glyph glyph-name="otilde" unicode="&#xf5;" horiz-adv-x="1179" 
d="M590 -18q-157 0 -277 74.5t-181.5 197.5t-61.5 274t61.5 274.5t181.5 199t277 75.5q156 0 276 -75t182 -199t62 -275q0 -150 -62 -273.5t-181.5 -198t-276.5 -74.5zM213 528q0 -180 105.5 -303t271.5 -123t271.5 123t105.5 303q0 182 -105.5 305t-271.5 123t-271.5 -123
t-105.5 -305zM244 1255q3 94 53.5 150.5t140.5 56.5q48 0 104 -26.5t106.5 -53t84.5 -26.5q45 0 70.5 28t30.5 78h102q-6 -93 -61 -151t-142 -58q-49 0 -107 26.5t-109.5 52.5t-84.5 26q-87 0 -90 -103h-98z" />
    <glyph glyph-name="odieresis" unicode="&#xf6;" horiz-adv-x="1179" 
d="M590 -18q-157 0 -277 74.5t-181.5 197.5t-61.5 274t61.5 274.5t181.5 199t277 75.5q156 0 276 -75t182 -199t62 -275q0 -150 -62 -273.5t-181.5 -198t-276.5 -74.5zM213 528q0 -180 105.5 -303t271.5 -123t271.5 123t105.5 303q0 182 -105.5 305t-271.5 123t-271.5 -123
t-105.5 -305zM367 1264v198h137v-198h-137zM674 1264v198h137v-198h-137z" />
    <glyph glyph-name="divide" unicode="&#xf7;" horiz-adv-x="1245" 
d="M518 162q0 44 30.5 75t74.5 31t74 -31t30 -75q0 -40 -30.5 -72.5t-71.5 -32.5q-44 0 -75.5 31t-31.5 74zM119 465v119h1009v-119h-1009zM518 887q0 43 30.5 73.5t74.5 30.5t74 -30.5t30 -73.5q0 -41 -30.5 -74t-71.5 -33q-44 0 -75.5 31.5t-31.5 75.5z" />
    <glyph glyph-name="oslash" unicode="&#xf8;" horiz-adv-x="1179" 
d="M590 -18q-193 0 -324 106l-100 -113l-78 64l107 119q-125 153 -125 370q0 151 61.5 274.5t181.5 199t277 75.5q193 0 325 -110l111 123l70 -74l-109 -121q123 -151 123 -367q0 -150 -62 -273.5t-181.5 -198t-276.5 -74.5zM213 528q0 -152 76 -264l538 604q-98 88 -237 88
q-166 0 -271.5 -123t-105.5 -305zM356 188q99 -86 234 -86q166 0 271.5 123t105.5 303q0 146 -74 263z" />
    <glyph glyph-name="ugrave" unicode="&#xf9;" horiz-adv-x="1114" 
d="M127 385v674h143v-664q0 -293 254 -293q62 0 116 23t99.5 70.5t72 131t26.5 193.5v539h143v-1059h-143v205q-100 -223 -328 -223q-185 0 -284 104t-99 299zM293 1462h180l191 -268h-105z" />
    <glyph glyph-name="uacute" unicode="&#xfa;" horiz-adv-x="1114" 
d="M127 385v674h143v-664q0 -293 254 -293q62 0 116 23t99.5 70.5t72 131t26.5 193.5v539h143v-1059h-143v205q-100 -223 -328 -223q-185 0 -284 104t-99 299zM473 1194l191 268h180l-266 -268h-105z" />
    <glyph glyph-name="ucircumflex" unicode="&#xfb;" horiz-adv-x="1114" 
d="M127 385v674h143v-664q0 -293 254 -293q62 0 116 23t99.5 70.5t72 131t26.5 193.5v539h143v-1059h-143v205q-100 -223 -328 -223q-185 0 -284 104t-99 299zM256 1194l227 268h150l225 -268h-139l-162 190l-162 -190h-139z" />
    <glyph glyph-name="udieresis" unicode="&#xfc;" horiz-adv-x="1114" 
d="M127 385v674h143v-664q0 -293 254 -293q62 0 116 23t99.5 70.5t72 131t26.5 193.5v539h143v-1059h-143v205q-100 -223 -328 -223q-185 0 -284 104t-99 299zM334 1264v198h137v-198h-137zM641 1264v198h137v-198h-137z" />
    <glyph glyph-name="yacute" unicode="&#xfd;" horiz-adv-x="1032" 
d="M170 1059l362 -922h3q55 152 164 461.5t163 460.5h150q-215 -578 -477 -1268q-36 -100 -94.5 -150.5t-159.5 -50.5h-113v119h98q20 0 37 4.5t29.5 9.5t24.5 17.5t18.5 20t15.5 26t12 26l12 30t11 28.5l37 96l-443 1092h150zM428 1194l190 268h181l-267 -268h-104z" />
    <glyph glyph-name="thorn" unicode="&#xfe;" horiz-adv-x="1202" 
d="M279 -410h-144v1872h144v-620h2q41 98 137.5 166.5t234.5 68.5q225 0 353.5 -154t128.5 -393q0 -156 -55 -279t-166 -196t-261 -73q-138 0 -234 67t-138 168h-2v-627zM270 530q0 -82 21.5 -156t64 -135.5t113.5 -98t162 -36.5q172 0 266 118t94 308q0 188 -95.5 307
t-264.5 119q-172 0 -266.5 -121.5t-94.5 -304.5z" />
    <glyph glyph-name="ydieresis" unicode="&#xff;" horiz-adv-x="1032" 
d="M170 1059l362 -922h3q55 152 164 461.5t163 460.5h150q-215 -578 -477 -1268q-36 -100 -94.5 -150.5t-159.5 -50.5h-113v119h98q20 0 37 4.5t29.5 9.5t24.5 17.5t18.5 20t15.5 26t12 26l12 30t11 28.5l37 96l-443 1092h150zM289 1264v198h137v-198h-137zM596 1264v198
h137v-198h-137z" />
    <glyph glyph-name="Amacron" unicode="&#x100;" horiz-adv-x="1374" 
d="M197 0h-156l547 1462h198l547 -1462h-155l-170 453h-641zM387 1634v95h598v-95h-598zM412 575h551l-273 754h-6z" />
    <glyph glyph-name="amacron" unicode="&#x101;" horiz-adv-x="1097" 
d="M139 743q11 61 41 118t79.5 106.5t127 79.5t170.5 30q99 0 174.5 -23.5t119 -59.5t71 -87.5t36.5 -99.5t9 -102v-488q0 -111 18 -217h-154q-6 55 -6 162v47h-2q-16 -39 -39.5 -74t-65 -72.5t-109 -60t-152.5 -22.5q-180 0 -277.5 90.5t-97.5 218.5q0 59 18 106.5t65.5 81
t78.5 54.5t108.5 40t101 24t108.5 19q6 1 9 2q134 22 194 55.5t60 100.5q0 89 -72 137.5t-194 48.5q-106 0 -178.5 -57t-97.5 -158h-144zM213 1270v88h686v-88h-686zM223 289q0 -85 69 -139t185 -54q70 0 132.5 25t112 72t78.5 123.5t29 172.5v160q-21 -53 -95.5 -90.5
t-227.5 -64.5q-138 -23 -210.5 -72t-72.5 -133z" />
    <glyph glyph-name="Abreve" unicode="&#x102;" horiz-adv-x="1374" 
d="M197 0h-156l547 1462h198l547 -1462h-155l-170 453h-641zM393 1802h111q8 -58 59 -103.5t125 -45.5t124 45.5t56 103.5h115q-18 -107 -98.5 -177.5t-196.5 -70.5t-196.5 70.5t-98.5 177.5zM412 575h551l-273 754h-6z" />
    <glyph glyph-name="abreve" unicode="&#x103;" horiz-adv-x="1097" 
d="M139 743q11 61 41 118t79.5 106.5t127 79.5t170.5 30q99 0 174.5 -23.5t119 -59.5t71 -87.5t36.5 -99.5t9 -102v-488q0 -111 18 -217h-154q-6 55 -6 162v47h-2q-16 -39 -39.5 -74t-65 -72.5t-109 -60t-152.5 -22.5q-180 0 -277.5 90.5t-97.5 218.5q0 59 18 106.5t65.5 81
t78.5 54.5t108.5 40t101 24t108.5 19q6 1 9 2q134 22 194 55.5t60 100.5q0 89 -72 137.5t-194 48.5q-106 0 -178.5 -57t-97.5 -158h-144zM223 289q0 -85 69 -139t185 -54q70 0 132.5 25t112 72t78.5 123.5t29 172.5v160q-21 -53 -95.5 -90.5t-227.5 -64.5
q-138 -23 -210.5 -72t-72.5 -133zM264 1470h111q5 -77 52 -126.5t132 -49.5t131 49.5t49 126.5h115q-8 -123 -88.5 -198.5t-206.5 -75.5t-206.5 75.5t-88.5 198.5z" />
    <glyph glyph-name="Aogonek" unicode="&#x104;" horiz-adv-x="1374" 
d="M197 0h-156l547 1462h198l547 -1462q-91 -67 -137 -117t-43 -104q3 -107 141 -107v-88q-116 0 -191 46t-75 137q-1 47 22 91t50 71t78 71l-170 453h-641zM412 575h551l-273 754h-6z" />
    <glyph glyph-name="aogonek" unicode="&#x105;" horiz-adv-x="1093" 
d="M139 743q11 61 41 118t79.5 106.5t127 79.5t170.5 30q99 0 174.5 -23.5t119 -59.5t71 -87.5t36.5 -99.5t9 -102v-488q0 -111 18 -217h-8q-88 -63 -128.5 -113t-43.5 -108q-3 -52 36 -80.5t111 -28.5v-86q-116 0 -188 46t-72 137q-1 69 33 121t106 112q-6 55 -6 162v47h-2
q-16 -39 -39.5 -74t-65 -72.5t-109 -60t-152.5 -22.5q-180 0 -277.5 90.5t-97.5 218.5q0 59 18 106.5t65.5 81t78.5 54.5t108.5 40t101 24t108.5 19q6 1 9 2q134 22 194 55.5t60 100.5q0 89 -72 137.5t-194 48.5q-106 0 -178.5 -57t-97.5 -158h-144zM223 289q0 -85 69 -139
t185 -54q70 0 132.5 25t112 72t78.5 123.5t29 172.5v160q-21 -53 -95.5 -90.5t-227.5 -64.5q-138 -23 -210.5 -72t-72.5 -133z" />
    <glyph glyph-name="Cacute" unicode="&#x106;" horiz-adv-x="1544" 
d="M1466 418q-50 -193 -219 -317t-424 -124q-173 0 -314.5 59.5t-234 162.5t-142.5 239.5t-50 292.5q0 155 50 291.5t142.5 239t234 162t314.5 59.5q251 0 410 -117t229 -319h-151q-126 311 -488 311q-144 0 -259 -52.5t-186.5 -141t-109 -199.5t-37.5 -234q0 -124 37 -235
t108.5 -199.5t186.5 -140.5t260 -52q191 0 316.5 86t173.5 228h153zM684 1593l260 209h213l-317 -209h-156z" />
    <glyph glyph-name="cacute" unicode="&#x107;" horiz-adv-x="1134" 
d="M1055 309q-43 -156 -160 -241.5t-299 -85.5q-120 0 -220 42.5t-166.5 116t-103 173.5t-36.5 214q0 153 62 276.5t183 198t281 74.5q182 0 298 -87.5t153 -231.5h-146q-35 92 -111.5 147.5t-195.5 55.5q-170 0 -275.5 -123.5t-105.5 -309.5q0 -185 105 -306.5t276 -121.5
q119 0 198 54t115 155h148zM510 1194l190 268h181l-267 -268h-104z" />
    <glyph glyph-name="Ccircumflex" unicode="&#x108;" horiz-adv-x="1544" 
d="M1466 418q-50 -193 -219 -317t-424 -124q-173 0 -314.5 59.5t-234 162.5t-142.5 239.5t-50 292.5q0 155 50 291.5t142.5 239t234 162t314.5 59.5q251 0 410 -117t229 -319h-151q-126 311 -488 311q-144 0 -259 -52.5t-186.5 -141t-109 -199.5t-37.5 -234q0 -124 37 -235
t108.5 -199.5t186.5 -140.5t260 -52q191 0 316.5 86t173.5 228h153zM494 1577l249 231h162l250 -231h-156l-176 152l-174 -152h-155z" />
    <glyph glyph-name="ccircumflex" unicode="&#x109;" horiz-adv-x="1134" 
d="M1055 309q-43 -156 -160 -241.5t-299 -85.5q-120 0 -220 42.5t-166.5 116t-103 173.5t-36.5 214q0 153 62 276.5t183 198t281 74.5q182 0 298 -87.5t153 -231.5h-146q-35 92 -111.5 147.5t-195.5 55.5q-170 0 -275.5 -123.5t-105.5 -309.5q0 -185 105 -306.5t276 -121.5
q119 0 198 54t115 155h148zM293 1194l227 268h150l225 -268h-139l-162 190l-162 -190h-139z" />
    <glyph glyph-name="Cdotaccent" unicode="&#x10a;" horiz-adv-x="1544" 
d="M1466 418q-50 -193 -219 -317t-424 -124q-173 0 -314.5 59.5t-234 162.5t-142.5 239.5t-50 292.5q0 155 50 291.5t142.5 239t234 162t314.5 59.5q251 0 410 -117t229 -319h-151q-126 311 -488 311q-144 0 -259 -52.5t-186.5 -141t-109 -199.5t-37.5 -234q0 -124 37 -235
t108.5 -199.5t186.5 -140.5t260 -52q191 0 316.5 86t173.5 228h153zM756 1602v200h141v-200h-141z" />
    <glyph glyph-name="cdotaccent" unicode="&#x10b;" horiz-adv-x="1134" 
d="M1055 309q-43 -156 -160 -241.5t-299 -85.5q-120 0 -220 42.5t-166.5 116t-103 173.5t-36.5 214q0 153 62 276.5t183 198t281 74.5q182 0 298 -87.5t153 -231.5h-146q-35 92 -111.5 147.5t-195.5 55.5q-170 0 -275.5 -123.5t-105.5 -309.5q0 -185 105 -306.5t276 -121.5
q119 0 198 54t115 155h148zM524 1264v198h140v-198h-140z" />
    <glyph glyph-name="Ccaron" unicode="&#x10c;" horiz-adv-x="1544" 
d="M1466 418q-50 -193 -219 -317t-424 -124q-173 0 -314.5 59.5t-234 162.5t-142.5 239.5t-50 292.5q0 155 50 291.5t142.5 239t234 162t314.5 59.5q251 0 410 -117t229 -319h-151q-126 311 -488 311q-144 0 -259 -52.5t-186.5 -141t-109 -199.5t-37.5 -234q0 -124 37 -235
t108.5 -199.5t186.5 -140.5t260 -52q191 0 316.5 86t173.5 228h153zM489 1808h156l174 -151l176 151h156l-250 -231h-162z" />
    <glyph glyph-name="ccaron" unicode="&#x10d;" horiz-adv-x="1134" 
d="M1055 309q-43 -156 -160 -241.5t-299 -85.5q-120 0 -220 42.5t-166.5 116t-103 173.5t-36.5 214q0 153 62 276.5t183 198t281 74.5q182 0 298 -87.5t153 -231.5h-146q-35 92 -111.5 147.5t-195.5 55.5q-170 0 -275.5 -123.5t-105.5 -309.5q0 -185 105 -306.5t276 -121.5
q119 0 198 54t115 155h148zM293 1460h139l162 -190l162 190h139l-225 -268h-150z" />
    <glyph glyph-name="Dcaron" unicode="&#x10e;" horiz-adv-x="1404" 
d="M584 1462q350 0 545.5 -189.5t195.5 -514.5q0 -158 -50 -296.5t-141.5 -241t-229 -161.5t-304.5 -59h-440v1462h424zM309 127h297q115 0 217 41t180.5 118t124.5 199t46 273q0 146 -46 258.5t-126.5 181t-183.5 103t-224 34.5h-285v-1208zM338 1808h156l174 -151l176 151
h155l-249 -231h-162z" />
    <glyph glyph-name="dcaron" unicode="&#x10f;" horiz-adv-x="1202" 
d="M549 1077q139 0 235.5 -68.5t139.5 -166.5h2v620h143v-1462h-143v217h-2q-44 -101 -140 -168t-235 -67q-150 0 -260 73t-164.5 196t-54.5 279t54.5 278.5t164.5 195.5t260 73zM213 530q0 -190 93 -308t265 -118q92 0 163 36.5t113 98t63.5 135.5t21.5 156
q0 183 -94.5 304.5t-266.5 121.5q-169 0 -263.5 -118.5t-94.5 -307.5zM1171 1151l15 311h151l-73 -311h-93z" />
    <glyph glyph-name="Dcroat" unicode="&#x110;" horiz-adv-x="1404" 
d="M584 1462q350 0 545.5 -189.5t195.5 -514.5q0 -158 -50 -296.5t-141.5 -241t-229 -161.5t-304.5 -59h-440v668h-146v108h146v686h424zM309 127h297q115 0 217 41t180.5 118t124.5 199t46 273q0 146 -46 258.5t-126.5 181t-183.5 103t-224 34.5h-285v-559h348v-108h-348
v-541z" />
    <glyph glyph-name="dcroat" unicode="&#x111;" horiz-adv-x="1202" 
d="M549 1077q139 0 235.5 -68.5t139.5 -166.5h2v362h-318v94h318v164h143v-164h217v-94h-217v-1204h-143v217h-2q-44 -101 -140 -168t-235 -67q-150 0 -260 73t-164.5 196t-54.5 279t54.5 278.5t164.5 195.5t260 73zM213 530q0 -190 93 -308t265 -118q92 0 163 36.5t113 98
t63.5 135.5t21.5 156q0 183 -94.5 304.5t-266.5 121.5q-169 0 -263.5 -118.5t-94.5 -307.5z" />
    <glyph glyph-name="Emacron" unicode="&#x112;" horiz-adv-x="1179" 
d="M1049 1462v-127h-740v-526h697v-127h-697v-555h746v-127h-895v1462h889zM289 1634v95h598v-95h-598z" />
    <glyph glyph-name="emacron" unicode="&#x113;" horiz-adv-x="1134" 
d="M1047 313q-46 -156 -168 -243.5t-299 -87.5q-155 0 -272 72.5t-177.5 196t-60.5 279.5q0 152 61.5 276.5t177 197.5t264.5 73q101 0 182 -30t134.5 -80.5t90.5 -120.5t54.5 -146.5t20.5 -162.5q2 -14 2 -50h-850q11 -175 112 -281t259 -106q118 0 205 55.5t120 157.5h144
zM209 602h704q-16 170 -100.5 264.5t-239.5 94.5q-153 0 -251 -99.5t-113 -259.5zM229 1262v88h686v-88h-686z" />
    <glyph glyph-name="Ebreve" unicode="&#x114;" horiz-adv-x="1179" 
d="M1049 1462v-127h-740v-526h697v-127h-697v-555h746v-127h-895v1462h889zM293 1802h110q8 -58 59.5 -103.5t125.5 -45.5t124 45.5t56 103.5h115q-18 -107 -98.5 -177.5t-196.5 -70.5t-196.5 70.5t-98.5 177.5z" />
    <glyph glyph-name="ebreve" unicode="&#x115;" horiz-adv-x="1134" 
d="M1047 313q-46 -156 -168 -243.5t-299 -87.5q-155 0 -272 72.5t-177.5 196t-60.5 279.5q0 152 61.5 276.5t177 197.5t264.5 73q101 0 182 -30t134.5 -80.5t90.5 -120.5t54.5 -146.5t20.5 -162.5q2 -14 2 -50h-850q11 -175 112 -281t259 -106q118 0 205 55.5t120 157.5h144
zM209 602h704q-16 170 -100.5 264.5t-239.5 94.5q-153 0 -251 -99.5t-113 -259.5zM281 1462h110q5 -77 52 -126.5t132 -49.5t131.5 49.5t49.5 126.5h114q-8 -123 -88.5 -198.5t-206.5 -75.5t-206 75.5t-88 198.5z" />
    <glyph glyph-name="Edotaccent" unicode="&#x116;" horiz-adv-x="1179" 
d="M1049 1462v-127h-740v-526h697v-127h-697v-555h746v-127h-895v1462h889zM518 1602v200h141v-200h-141z" />
    <glyph glyph-name="edotaccent" unicode="&#x117;" horiz-adv-x="1134" 
d="M1047 313q-46 -156 -168 -243.5t-299 -87.5q-155 0 -272 72.5t-177.5 196t-60.5 279.5q0 152 61.5 276.5t177 197.5t264.5 73q101 0 182 -30t134.5 -80.5t90.5 -120.5t54.5 -146.5t20.5 -162.5q2 -14 2 -50h-850q11 -175 112 -281t259 -106q118 0 205 55.5t120 157.5h144
zM209 602h704q-16 170 -100.5 264.5t-239.5 94.5q-153 0 -251 -99.5t-113 -259.5zM502 1264v198h139v-198h-139z" />
    <glyph glyph-name="Eogonek" unicode="&#x118;" horiz-adv-x="1179" 
d="M1049 1462v-127h-740v-526h697v-127h-697v-555h746v-127q-92 -66 -139 -116.5t-44 -104.5q3 -107 144 -107v-88q-118 0 -193 46t-75 137q-1 68 36 118t115 115h-739v1462h889z" />
    <glyph glyph-name="eogonek" unicode="&#x119;" horiz-adv-x="1134" 
d="M1047 313q-37 -126 -125 -208.5t-217 -110.5q-81 -61 -120 -110t-42 -105q-3 -52 35.5 -80.5t109.5 -28.5v-86q-114 0 -185 46t-71 137q-1 65 28.5 115t88.5 100q-220 12 -349.5 165t-129.5 383q0 152 61.5 276.5t177 197.5t264.5 73q101 0 182 -30t134.5 -80.5
t90.5 -120.5t54.5 -146.5t20.5 -162.5q2 -14 2 -50h-850q11 -175 112 -281t259 -106q118 0 205 55.5t120 157.5h144zM209 602h704q-16 170 -100.5 264.5t-239.5 94.5q-153 0 -251 -99.5t-113 -259.5z" />
    <glyph glyph-name="Ecaron" unicode="&#x11a;" horiz-adv-x="1179" 
d="M1049 1462v-127h-740v-526h697v-127h-697v-555h746v-127h-895v1462h889zM254 1808h156l174 -151l176 151h155l-249 -231h-162z" />
    <glyph glyph-name="ecaron" unicode="&#x11b;" horiz-adv-x="1134" 
d="M1047 313q-46 -156 -168 -243.5t-299 -87.5q-155 0 -272 72.5t-177.5 196t-60.5 279.5q0 152 61.5 276.5t177 197.5t264.5 73q101 0 182 -30t134.5 -80.5t90.5 -120.5t54.5 -146.5t20.5 -162.5q2 -14 2 -50h-850q11 -175 112 -281t259 -106q118 0 205 55.5t120 157.5h144
zM209 602h704q-16 170 -100.5 264.5t-239.5 94.5q-153 0 -251 -99.5t-113 -259.5zM270 1460h140l161 -190l162 190h139l-225 -268h-149z" />
    <glyph glyph-name="Gcircumflex" unicode="&#x11c;" horiz-adv-x="1564" 
d="M813 606v123h635l-18 -729h-109l-10 285q-135 -314 -518 -314q-171 0 -308 61.5t-224 167t-133 241.5t-46 290q0 121 30.5 233.5t92.5 207.5t148 166t203 111t253 40q130 0 237 -35.5t181 -98t123.5 -139.5t76.5 -169h-153q-44 144 -156.5 230.5t-308.5 86.5
q-113 0 -208.5 -36t-162.5 -97t-114.5 -142t-70 -172t-22.5 -186q0 -96 21 -187t66.5 -172.5t110 -142.5t158.5 -97t206 -36q108 0 199.5 33.5t160 97t107.5 161.5t40 220zM467 1577l250 231h162l249 -231h-155l-176 152l-174 -152h-156z" />
    <glyph glyph-name="gcircumflex" unicode="&#x11d;" horiz-adv-x="1202" 
d="M926 1059h143v-998q0 -212 -130.5 -340.5t-344.5 -128.5q-199 0 -326 95.5t-147 261.5h145q36 -236 328 -236q156 0 244 91t88 266v145h-2q-95 -233 -369 -233q-152 0 -263.5 74.5t-166.5 197t-55 276.5q0 153 55 275.5t166.5 197t263.5 74.5q142 0 233.5 -63.5
t135.5 -159.5h2v205zM213 530q0 -119 38.5 -213.5t121 -153.5t198.5 -59q78 0 141.5 26.5t103.5 69.5t67 100t38 114t11 116q0 63 -14.5 124t-44.5 115.5t-72 96t-101.5 66t-128.5 24.5q-114 0 -196.5 -59t-122 -154t-39.5 -213zM287 1194l227 268h150l225 -268h-139
l-162 190l-162 -190h-139z" />
    <glyph glyph-name="Gbreve" unicode="&#x11e;" horiz-adv-x="1564" 
d="M813 606v123h635l-18 -729h-109l-10 285q-135 -314 -518 -314q-171 0 -308 61.5t-224 167t-133 241.5t-46 290q0 121 30.5 233.5t92.5 207.5t148 166t203 111t253 40q130 0 237 -35.5t181 -98t123.5 -139.5t76.5 -169h-153q-44 144 -156.5 230.5t-308.5 86.5
q-113 0 -208.5 -36t-162.5 -97t-114.5 -142t-70 -172t-22.5 -186q0 -96 21 -187t66.5 -172.5t110 -142.5t158.5 -97t206 -36q108 0 199.5 33.5t160 97t107.5 161.5t40 220zM504 1802h110q8 -58 59.5 -103.5t125.5 -45.5t124 45.5t56 103.5h115q-18 -107 -98.5 -177.5
t-196.5 -70.5t-196.5 70.5t-98.5 177.5z" />
    <glyph glyph-name="gbreve" unicode="&#x11f;" horiz-adv-x="1202" 
d="M926 1059h143v-998q0 -212 -130.5 -340.5t-344.5 -128.5q-199 0 -326 95.5t-147 261.5h145q36 -236 328 -236q156 0 244 91t88 266v145h-2q-95 -233 -369 -233q-152 0 -263.5 74.5t-166.5 197t-55 276.5q0 153 55 275.5t166.5 197t263.5 74.5q142 0 233.5 -63.5
t135.5 -159.5h2v205zM213 530q0 -119 38.5 -213.5t121 -153.5t198.5 -59q78 0 141.5 26.5t103.5 69.5t67 100t38 114t11 116q0 63 -14.5 124t-44.5 115.5t-72 96t-101.5 66t-128.5 24.5q-114 0 -196.5 -59t-122 -154t-39.5 -213zM297 1462h111q5 -77 52 -126.5t132 -49.5
t131 49.5t49 126.5h115q-8 -123 -88.5 -198.5t-206.5 -75.5t-206.5 75.5t-88.5 198.5z" />
    <glyph glyph-name="Gdotaccent" unicode="&#x120;" horiz-adv-x="1564" 
d="M813 606v123h635l-18 -729h-109l-10 285q-135 -314 -518 -314q-171 0 -308 61.5t-224 167t-133 241.5t-46 290q0 121 30.5 233.5t92.5 207.5t148 166t203 111t253 40q130 0 237 -35.5t181 -98t123.5 -139.5t76.5 -169h-153q-44 144 -156.5 230.5t-308.5 86.5
q-113 0 -208.5 -36t-162.5 -97t-114.5 -142t-70 -172t-22.5 -186q0 -96 21 -187t66.5 -172.5t110 -142.5t158.5 -97t206 -36q108 0 199.5 33.5t160 97t107.5 161.5t40 220zM727 1602v200h141v-200h-141z" />
    <glyph glyph-name="gdotaccent" unicode="&#x121;" horiz-adv-x="1202" 
d="M926 1059h143v-998q0 -212 -130.5 -340.5t-344.5 -128.5q-199 0 -326 95.5t-147 261.5h145q36 -236 328 -236q156 0 244 91t88 266v145h-2q-95 -233 -369 -233q-152 0 -263.5 74.5t-166.5 197t-55 276.5q0 153 55 275.5t166.5 197t263.5 74.5q142 0 233.5 -63.5
t135.5 -159.5h2v205zM213 530q0 -119 38.5 -213.5t121 -153.5t198.5 -59q78 0 141.5 26.5t103.5 69.5t67 100t38 114t11 116q0 63 -14.5 124t-44.5 115.5t-72 96t-101.5 66t-128.5 24.5q-114 0 -196.5 -59t-122 -154t-39.5 -213zM518 1264v198h139v-198h-139z" />
    <glyph glyph-name="uni0122" unicode="&#x122;" horiz-adv-x="1564" 
d="M813 606v123h635l-18 -729h-109l-10 285q-135 -314 -518 -314q-171 0 -308 61.5t-224 167t-133 241.5t-46 290q0 121 30.5 233.5t92.5 207.5t148 166t203 111t253 40q130 0 237 -35.5t181 -98t123.5 -139.5t76.5 -169h-153q-44 144 -156.5 230.5t-308.5 86.5
q-113 0 -208.5 -36t-162.5 -97t-114.5 -142t-70 -172t-22.5 -186q0 -96 21 -187t66.5 -172.5t110 -142.5t158.5 -97t206 -36q108 0 199.5 33.5t160 97t107.5 161.5t40 220zM696 -281v177h187v-154q0 -85 -43.5 -127.5t-122.5 -42.5v61q24 6 38.5 14t21 20t8 22.5t1.5 29.5
h-90z" />
    <glyph glyph-name="uni0123" unicode="&#x123;" horiz-adv-x="1202" 
d="M926 1059h143v-998q0 -212 -130.5 -340.5t-344.5 -128.5q-199 0 -326 95.5t-147 261.5h145q36 -236 328 -236q156 0 244 91t88 266v145h-2q-95 -233 -369 -233q-152 0 -263.5 74.5t-166.5 197t-55 276.5q0 153 55 275.5t166.5 197t263.5 74.5q142 0 233.5 -63.5
t135.5 -159.5h2v205zM213 530q0 -119 38.5 -213.5t121 -153.5t198.5 -59q78 0 141.5 26.5t103.5 69.5t67 100t38 114t11 116q0 63 -14.5 124t-44.5 115.5t-72 96t-101.5 66t-128.5 24.5q-114 0 -196.5 -59t-122 -154t-39.5 -213zM492 1241v154q0 86 43.5 128t123.5 42v-62
q-46 -11 -58.5 -30t-12.5 -56h92v-176h-188z" />
    <glyph glyph-name="Hcircumflex" unicode="&#x124;" horiz-adv-x="1380" 
d="M1071 1462h152v-1462h-152v676h-762v-676h-149v1462h149v-659h762v659zM360 1577l250 231h162l250 -231h-156l-176 152l-174 -152h-156z" />
    <glyph glyph-name="hcircumflex" unicode="&#x125;" horiz-adv-x="1114" 
d="M135 0v1462h144v-604q100 219 327 219q184 0 283.5 -104.5t99.5 -298.5v-674h-143v664q0 292 -254 292q-63 0 -117 -23t-99 -70.5t-71 -130.5t-26 -193v-539h-144zM-119 1577l250 231h162l250 -231h-156l-176 152l-174 -152h-156z" />
    <glyph glyph-name="Hbar" unicode="&#x126;" horiz-adv-x="1380" 
d="M1071 1462h152v-278h104v-90h-104v-1094h-152v676h-762v-676h-149v1094h-105v90h105v278h149v-278h762v278zM309 803h762v291h-762v-291z" />
    <glyph glyph-name="hbar" unicode="&#x127;" horiz-adv-x="1114" 
d="M135 0v1204h-151v94h151v164h144v-164h403v-94h-403v-346q100 219 327 219q184 0 283.5 -104.5t99.5 -298.5v-674h-143v664q0 292 -254 292q-63 0 -117 -23t-99 -70.5t-71 -130.5t-26 -193v-539h-144z" />
    <glyph glyph-name="Itilde" unicode="&#x128;" horiz-adv-x="468" 
d="M160 1462h149v-1462h-149v1462zM-113 1593q5 94 55.5 150.5t141.5 56.5q47 0 102.5 -26t106 -52t84.5 -26q90 0 100 106h105q-6 -93 -61 -151t-142 -58q-50 0 -108 26.5t-109 52.5t-84 26q-89 0 -92 -105h-99z" />
    <glyph glyph-name="itilde" unicode="&#x129;" horiz-adv-x="411" 
d="M135 0v1059h144v-1059h-144zM-141 1255q3 94 53.5 150.5t140.5 56.5q48 0 104 -26.5t106.5 -53t84.5 -26.5q45 0 70.5 28t30.5 78h102q-6 -93 -61 -151t-142 -58q-49 0 -107 26.5t-109.5 52.5t-84.5 26q-87 0 -90 -103h-98z" />
    <glyph glyph-name="Imacron" unicode="&#x12a;" horiz-adv-x="468" 
d="M160 1462h149v-1462h-149v1462zM-66 1634v95h598v-95h-598z" />
    <glyph glyph-name="imacron" unicode="&#x12b;" horiz-adv-x="411" 
d="M135 0v1059h144v-1059h-144zM-137 1262v88h686v-88h-686z" />
    <glyph glyph-name="Ibreve" unicode="&#x12c;" horiz-adv-x="468" 
d="M160 1462h149v-1462h-149v1462zM-59 1802h110q8 -58 59.5 -103.5t125.5 -45.5t124 45.5t56 103.5h114q-18 -107 -98 -177.5t-196 -70.5t-196.5 70.5t-98.5 177.5z" />
    <glyph glyph-name="ibreve" unicode="&#x12d;" horiz-adv-x="411" 
d="M135 0v1059h144v-1059h-144zM-86 1462h111q5 -77 52 -126.5t132 -49.5t131 49.5t49 126.5h115q-8 -123 -88.5 -198.5t-206.5 -75.5t-206.5 75.5t-88.5 198.5z" />
    <glyph glyph-name="Iogonek" unicode="&#x12e;" horiz-adv-x="479" 
d="M309 0q-94 -82 -124 -119q-47 -58 -46 -108q3 -101 131 -101v-96q-116 0 -186 45t-70 139q-1 36 9.5 68t34.5 63.5t44.5 53t57.5 55.5v1462h149v-1462z" />
    <glyph glyph-name="iogonek" unicode="&#x12f;" horiz-adv-x="411" 
d="M135 0v1059h144v-1059h-3q-87 -64 -127 -114t-43 -107q-3 -52 36 -80.5t110 -28.5v-86q-114 0 -185 46t-71 137q-1 69 33 121t104 112h2zM135 1264v198h139v-198h-139z" />
    <glyph glyph-name="Idotaccent" unicode="&#x130;" horiz-adv-x="468" 
d="M160 1462h149v-1462h-149v1462zM166 1602v200h141v-200h-141z" />
    <glyph glyph-name="dotlessi" unicode="&#x131;" horiz-adv-x="411" 
d="M135 0v1059h144v-1059h-144z" />
    <glyph glyph-name="IJ" unicode="&#x132;" horiz-adv-x="1083" 
d="M160 1462h149v-946h-149v946zM162 424h145l2 -70q3 -122 66.5 -189t175.5 -67q118 0 174.5 78.5t56.5 210.5v1075h150v-1073q0 -195 -98 -305.5t-283 -110.5q-171 0 -278.5 102.5t-108.5 280.5z" />
    <glyph glyph-name="ij" unicode="&#x133;" horiz-adv-x="831" 
d="M289 1257h-152v205h152v-205zM135 0v1059h144v-1059h-144zM354 -403v118h80q65 0 92 25.5t27 91.5v1227h141v-1225q0 -237 -235 -237h-105zM545 1257v205h153v-205h-153z" />
    <glyph glyph-name="Jcircumflex" unicode="&#x134;" horiz-adv-x="991" 
d="M217 354q3 -122 66.5 -189t175.5 -67q118 0 174.5 78.5t56.5 210.5v1075h150v-1073q0 -195 -98 -305.5t-283 -110.5q-171 0 -278.5 102.5t-108.5 280.5l-2 68h145zM432 1577l250 231h162l250 -231h-156l-176 152l-174 -152h-156z" />
    <glyph glyph-name="jcircumflex" unicode="&#x135;" horiz-adv-x="456" 
d="M322 -166q0 -237 -236 -237h-104v118h79q65 0 92 25.5t27 91.5v1227h142v-1225zM-16 1194l227 268h149l226 -268h-140l-161 190l-162 -190h-139z" />
    <glyph glyph-name="uni0136" unicode="&#x136;" horiz-adv-x="1294" 
d="M309 0h-149v1462h149v-770l713 770h192l-569 -606l606 -856h-182l-522 754l-238 -250v-504zM592 -281v177h186v-154q0 -85 -43.5 -127.5t-122.5 -42.5v61q45 11 57.5 30.5t12.5 55.5h-90z" />
    <glyph glyph-name="uni0137" unicode="&#x137;" horiz-adv-x="987" 
d="M279 0h-144v1462h144v-895l493 492h176l-448 -447l461 -612h-177l-383 516l-122 -119v-397zM410 -281v177h186v-154q0 -85 -43.5 -127.5t-122.5 -42.5v61q45 11 57.5 30.5t12.5 55.5h-90z" />
    <glyph glyph-name="kgreenlandic" unicode="&#x138;" horiz-adv-x="987" 
d="M279 0h-144v1059h144v-514l493 514h176l-438 -459l451 -600h-177l-372 502l-133 -129v-373z" />
    <glyph glyph-name="Lacute" unicode="&#x139;" horiz-adv-x="1101" 
d="M160 1462h149v-1335h729v-127h-878v1462zM197 1593l260 209h213l-318 -209h-155z" />
    <glyph glyph-name="lacute" unicode="&#x13a;" horiz-adv-x="411" 
d="M135 1462h144v-1462h-144v1462zM150 1593l260 209h213l-318 -209h-155z" />
    <glyph glyph-name="uni013B" unicode="&#x13b;" horiz-adv-x="1101" 
d="M160 1462h149v-1335h729v-127h-878v1462zM449 -281v177h186v-154q0 -85 -43.5 -127.5t-122.5 -42.5v61q45 11 57.5 30.5t12.5 55.5h-90z" />
    <glyph glyph-name="uni013C" unicode="&#x13c;" horiz-adv-x="411" 
d="M135 1462h144v-1462h-144v1462zM111 -281v177h186v-154q0 -85 -43.5 -127.5t-122.5 -42.5v61q45 11 57.5 30.5t12.5 55.5h-90z" />
    <glyph glyph-name="Lcaron" unicode="&#x13d;" horiz-adv-x="1101" 
d="M160 1462h149v-1335h729v-127h-878v1462zM506 1051l59 411h156l-123 -411h-92z" />
    <glyph glyph-name="lcaron" unicode="&#x13e;" horiz-adv-x="411" 
d="M135 1462h144v-1462h-144v1462zM381 1151l14 311h152l-74 -311h-92z" />
    <glyph glyph-name="Ldot" unicode="&#x13f;" horiz-adv-x="1101" 
d="M160 1462h149v-1335h729v-127h-878v1462zM762 688v201h141v-201h-141z" />
    <glyph glyph-name="ldot" unicode="&#x140;" horiz-adv-x="604" 
d="M135 1462h144v-1462h-144v1462zM436 651v199h139v-199h-139z" />
    <glyph glyph-name="Lslash" unicode="&#x141;" horiz-adv-x="1101" 
d="M160 1462h149v-729l504 357v-113l-504 -356v-494h729v-127h-878v516l-170 -121v113l170 121v833z" />
    <glyph glyph-name="lslash" unicode="&#x142;" horiz-adv-x="446" 
d="M428 924l-154 -131v-789h-143v666l-133 -113v121l133 115v673h143v-551l152 132z" />
    <glyph glyph-name="Nacute" unicode="&#x143;" horiz-adv-x="1443" 
d="M160 1462h178l645 -1003q29 -44 82.5 -130t71.5 -114q0 46 -1 137t-1 137v973h149v-1462h-182l-635 987q-27 41 -80.5 126t-79.5 126q0 -49 1 -148t1 -147v-944h-149v1462zM582 1593l260 209h213l-318 -209h-155z" />
    <glyph glyph-name="nacute" unicode="&#x144;" horiz-adv-x="1114" 
d="M135 0v1059h144v-201q100 219 327 219q184 0 283.5 -104.5t99.5 -298.5v-674h-143v664q0 292 -254 292q-63 0 -117 -23t-99 -70.5t-71 -130.5t-26 -193v-539h-144zM467 1194l190 268h181l-267 -268h-104z" />
    <glyph glyph-name="uni0145" unicode="&#x145;" horiz-adv-x="1443" 
d="M160 1462h178l645 -1003q29 -44 82.5 -130t71.5 -114q0 46 -1 137t-1 137v973h149v-1462h-182l-635 987q-27 41 -80.5 126t-79.5 126q0 -49 1 -148t1 -147v-944h-149v1462zM639 -281v177h186v-154q0 -85 -43.5 -127.5t-122.5 -42.5v61q45 11 57.5 30.5t12.5 55.5h-90z
" />
    <glyph glyph-name="uni0146" unicode="&#x146;" horiz-adv-x="1114" 
d="M135 0v1059h144v-201q100 219 327 219q184 0 283.5 -104.5t99.5 -298.5v-674h-143v664q0 292 -254 292q-63 0 -117 -23t-99 -70.5t-71 -130.5t-26 -193v-539h-144zM467 -281v177h186v-154q0 -85 -43.5 -127.5t-122.5 -42.5v61q45 11 57.5 30.5t12.5 55.5h-90z" />
    <glyph glyph-name="Ncaron" unicode="&#x147;" horiz-adv-x="1443" 
d="M160 1462h178l645 -1003q29 -44 82.5 -130t71.5 -114q0 46 -1 137t-1 137v973h149v-1462h-182l-635 987q-27 41 -80.5 126t-79.5 126q0 -49 1 -148t1 -147v-944h-149v1462zM387 1808h156l174 -151l176 151h156l-250 -231h-162z" />
    <glyph glyph-name="ncaron" unicode="&#x148;" horiz-adv-x="1114" 
d="M135 0v1059h144v-201q100 219 327 219q184 0 283.5 -104.5t99.5 -298.5v-674h-143v664q0 292 -254 292q-63 0 -117 -23t-99 -70.5t-71 -130.5t-26 -193v-539h-144zM250 1460h139l162 -190l162 190h139l-225 -268h-150z" />
    <glyph glyph-name="napostrophe" unicode="&#x149;" horiz-adv-x="1114" 
d="M135 0v1059h144v-201q100 219 327 219q184 0 283.5 -104.5t99.5 -298.5v-674h-143v664q0 292 -254 292q-63 0 -117 -23t-99 -70.5t-71 -130.5t-26 -193v-539h-144zM-100 1128l57 168h-35v166h115v-170l-72 -164h-65z" />
    <glyph glyph-name="Eng" unicode="&#x14a;" horiz-adv-x="1443" 
d="M160 1462h178l645 -1003q29 -44 82.5 -130t71.5 -114q0 46 -1 137t-1 137v973h149v-1460v-2q0 -194 -90.5 -305.5t-286.5 -114.5v125q121 1 175.5 73.5t56.5 221.5h-37l-635 987q-27 41 -80.5 126t-79.5 126q0 -49 1 -148t1 -147v-944h-149v1462z" />
    <glyph glyph-name="eng" unicode="&#x14b;" horiz-adv-x="1114" 
d="M989 -170q0 -107 -60 -170t-177 -63h-121v118h92q64 0 93.5 26t29.5 91v832q0 292 -254 292q-63 0 -117 -23t-99 -70.5t-71 -130.5t-26 -193v-539h-144v1059h144v-201q100 219 327 219q184 0 283.5 -104.5t99.5 -298.5v-844z" />
    <glyph glyph-name="Omacron" unicode="&#x14c;" horiz-adv-x="1660" 
d="M829 1491q171 0 314 -61t237.5 -165t146.5 -241.5t52 -292.5t-52 -293t-146.5 -242t-237.5 -164.5t-314 -60.5t-313 60.5t-236 164.5t-146 242t-52 293t52 292.5t146 241.5t236 165t313 61zM231 731q0 -96 24 -187.5t73.5 -173t119 -142.5t168 -96.5t213.5 -35.5
q116 0 215 35.5t168.5 96.5t118.5 142.5t72.5 173t23.5 187.5t-23.5 187t-72.5 172t-118.5 142t-168.5 96.5t-215 35.5q-115 0 -213.5 -35.5t-168 -96.5t-119 -142t-73.5 -172t-24 -187zM530 1634v95h598v-95h-598z" />
    <glyph glyph-name="omacron" unicode="&#x14d;" horiz-adv-x="1179" 
d="M590 -18q-157 0 -277 74.5t-181.5 197.5t-61.5 274t61.5 274.5t181.5 199t277 75.5q156 0 276 -75t182 -199t62 -275q0 -150 -62 -273.5t-181.5 -198t-276.5 -74.5zM213 528q0 -180 105.5 -303t271.5 -123t271.5 123t105.5 303q0 182 -105.5 305t-271.5 123t-271.5 -123
t-105.5 -305zM246 1262v88h686v-88h-686z" />
    <glyph glyph-name="Obreve" unicode="&#x14e;" horiz-adv-x="1660" 
d="M829 1491q171 0 314 -61t237.5 -165t146.5 -241.5t52 -292.5t-52 -293t-146.5 -242t-237.5 -164.5t-314 -60.5t-313 60.5t-236 164.5t-146 242t-52 293t52 292.5t146 241.5t236 165t313 61zM231 731q0 -96 24 -187.5t73.5 -173t119 -142.5t168 -96.5t213.5 -35.5
q116 0 215 35.5t168.5 96.5t118.5 142.5t72.5 173t23.5 187.5t-23.5 187t-72.5 172t-118.5 142t-168.5 96.5t-215 35.5q-115 0 -213.5 -35.5t-168 -96.5t-119 -142t-73.5 -172t-24 -187zM535 1802h110q8 -58 59 -103.5t125 -45.5t124.5 45.5t56.5 103.5h114
q-18 -107 -98.5 -177.5t-196.5 -70.5t-196 70.5t-98 177.5z" />
    <glyph glyph-name="obreve" unicode="&#x14f;" horiz-adv-x="1179" 
d="M590 -18q-157 0 -277 74.5t-181.5 197.5t-61.5 274t61.5 274.5t181.5 199t277 75.5q156 0 276 -75t182 -199t62 -275q0 -150 -62 -273.5t-181.5 -198t-276.5 -74.5zM213 528q0 -180 105.5 -303t271.5 -123t271.5 123t105.5 303q0 182 -105.5 305t-271.5 123t-271.5 -123
t-105.5 -305zM299 1462h111q5 -77 52 -126.5t132 -49.5t131 49.5t49 126.5h115q-8 -123 -88.5 -198.5t-206.5 -75.5t-206.5 75.5t-88.5 198.5z" />
    <glyph glyph-name="Ohungarumlaut" unicode="&#x150;" horiz-adv-x="1660" 
d="M829 1491q171 0 314 -61t237.5 -165t146.5 -241.5t52 -292.5t-52 -293t-146.5 -242t-237.5 -164.5t-314 -60.5t-313 60.5t-236 164.5t-146 242t-52 293t52 292.5t146 241.5t236 165t313 61zM231 731q0 -96 24 -187.5t73.5 -173t119 -142.5t168 -96.5t213.5 -35.5
q116 0 215 35.5t168.5 96.5t118.5 142.5t72.5 173t23.5 187.5t-23.5 187t-72.5 172t-118.5 142t-168.5 96.5t-215 35.5q-115 0 -213.5 -35.5t-168 -96.5t-119 -142t-73.5 -172t-24 -187zM598 1597l182 207h168l-243 -207h-107zM874 1597l181 207h168l-244 -207h-105z" />
    <glyph glyph-name="ohungarumlaut" unicode="&#x151;" horiz-adv-x="1179" 
d="M590 -18q-157 0 -277 74.5t-181.5 197.5t-61.5 274t61.5 274.5t181.5 199t277 75.5q156 0 276 -75t182 -199t62 -275q0 -150 -62 -273.5t-181.5 -198t-276.5 -74.5zM213 528q0 -180 105.5 -303t271.5 -123t271.5 123t105.5 303q0 182 -105.5 305t-271.5 123t-271.5 -123
t-105.5 -305zM309 1194l183 268h167l-243 -268h-107zM586 1194l180 268h168l-244 -268h-104z" />
    <glyph glyph-name="OE" unicode="&#x152;" horiz-adv-x="2312" 
d="M82 731q0 154 49 292.5t137.5 242t221 164.5t290.5 61q189 0 326 -79.5t215 -219.5v270h858v-127h-706v-526h663v-127h-663v-555h712v-127h-864v270q-78 -140 -215 -219.5t-326 -79.5q-158 0 -290.5 60.5t-221 164t-137.5 242t-49 293.5zM231 731q0 -121 36 -233.5
t103 -202.5t173.5 -144.5t236.5 -54.5q109 0 200 35.5t154.5 96.5t108 142.5t65.5 172.5t21 188q0 96 -21 187t-65.5 172t-108 142t-154.5 96.5t-200 35.5q-105 0 -195 -35.5t-154 -96.5t-110 -142t-68 -172.5t-22 -186.5z" />
    <glyph glyph-name="oe" unicode="&#x153;" horiz-adv-x="2009" 
d="M588 -18q-157 0 -276.5 74.5t-180.5 197.5t-61 274t61 274.5t180.5 199t276.5 75.5q156 0 267.5 -73t170.5 -201q57 127 167 200.5t261 73.5q101 0 181.5 -30t133.5 -80.5t89 -120.5t53 -146.5t20 -162.5v-50h-841q9 -175 109.5 -281t258.5 -106q118 0 203.5 55.5
t118.5 157.5h143q-46 -156 -166.5 -243.5t-296.5 -87.5q-157 0 -268 72t-168 200q-58 -126 -169 -199t-267 -73zM213 528q0 -181 104 -303.5t271 -122.5q166 0 270.5 123t104.5 303q0 182 -104.5 305t-270.5 123q-167 0 -271 -123t-104 -305zM1092 602h698q-32 359 -336 359
q-153 0 -250.5 -99.5t-111.5 -259.5z" />
    <glyph glyph-name="Racute" unicode="&#x154;" horiz-adv-x="1300" 
d="M160 0v1462h508q122 0 216 -31.5t152 -87t87.5 -127.5t29.5 -157q0 -152 -86 -251.5t-225 -133.5q96 -23 146.5 -99.5t101.5 -246.5q35 -111 61.5 -178t65.5 -136v-14h-162q-23 47 -44.5 106.5t-46.5 137t-38 112.5q-20 55 -36 90t-41.5 72t-55 58t-73 34t-99.5 13h-312
v-623h-149zM309 750h359q163 0 247 82.5t84 226.5q0 57 -17 104t-55 87t-107.5 62.5t-166.5 22.5h-344v-585zM496 1593l260 209h213l-318 -209h-155z" />
    <glyph glyph-name="racute" unicode="&#x155;" horiz-adv-x="663" 
d="M279 1059v-209q81 215 327 215v-133q-61 0 -119 -25q-47 -16 -82.5 -41.5t-65 -68.5t-45 -111.5t-15.5 -159.5v-526h-144v1059h144zM240 1194l190 268h180l-266 -268h-104z" />
    <glyph glyph-name="uni0156" unicode="&#x156;" horiz-adv-x="1300" 
d="M160 0v1462h508q122 0 216 -31.5t152 -87t87.5 -127.5t29.5 -157q0 -152 -86 -251.5t-225 -133.5q96 -23 146.5 -99.5t101.5 -246.5q35 -111 61.5 -178t65.5 -136v-14h-162q-23 47 -44.5 106.5t-46.5 137t-38 112.5q-20 55 -36 90t-41.5 72t-55 58t-73 34t-99.5 13h-312
v-623h-149zM309 750h359q163 0 247 82.5t84 226.5q0 57 -17 104t-55 87t-107.5 62.5t-166.5 22.5h-344v-585zM551 -281v177h186v-154q0 -85 -43.5 -127.5t-122.5 -42.5v61q45 11 57.5 30.5t12.5 55.5h-90z" />
    <glyph glyph-name="uni0157" unicode="&#x157;" horiz-adv-x="663" 
d="M279 1059v-209q81 215 327 215v-133q-61 0 -119 -25q-47 -16 -82.5 -41.5t-65 -68.5t-45 -111.5t-15.5 -159.5v-526h-144v1059h144zM109 -281v177h186v-154q0 -85 -43.5 -127.5t-122.5 -42.5v61q45 11 57.5 30.5t12.5 55.5h-90z" />
    <glyph glyph-name="Rcaron" unicode="&#x158;" horiz-adv-x="1300" 
d="M160 0v1462h508q122 0 216 -31.5t152 -87t87.5 -127.5t29.5 -157q0 -152 -86 -251.5t-225 -133.5q96 -23 146.5 -99.5t101.5 -246.5q35 -111 61.5 -178t65.5 -136v-14h-162q-23 47 -44.5 106.5t-46.5 137t-38 112.5q-20 55 -36 90t-41.5 72t-55 58t-73 34t-99.5 13h-312
v-623h-149zM301 1808h156l174 -151l176 151h156l-250 -231h-162zM309 750h359q163 0 247 82.5t84 226.5q0 57 -17 104t-55 87t-107.5 62.5t-166.5 22.5h-344v-585z" />
    <glyph glyph-name="rcaron" unicode="&#x159;" horiz-adv-x="663" 
d="M279 1059v-209q81 215 327 215v-133q-61 0 -119 -25q-47 -16 -82.5 -41.5t-65 -68.5t-45 -111.5t-15.5 -159.5v-526h-144v1059h144zM23 1460h139l162 -190l161 190h140l-226 -268h-149z" />
    <glyph glyph-name="Sacute" unicode="&#x15a;" horiz-adv-x="1255" 
d="M254 444q10 -166 120.5 -255t274.5 -89q71 0 131.5 15.5t110 47t78 86.5t28.5 128q0 41 -10 74.5t-23.5 58t-41.5 47t-51.5 36t-66.5 30t-72 25.5t-83 24q-71 21 -117.5 37t-103 38.5t-92.5 44.5t-73 53t-57.5 65.5t-34 80t-13.5 99.5q-2 127 64 219.5t171.5 136
t235.5 43.5q210 0 342.5 -107t152.5 -317h-151q-20 149 -108 223t-236 74q-140 0 -231 -67t-91 -195q0 -61 22.5 -106t74 -79t114 -58.5t162.5 -53.5q184 -53 257 -89q158 -78 197 -218q15 -52 15 -115q0 -86 -28 -156t-75 -116t-112 -77.5t-136 -45t-149 -13.5
q-110 0 -205 28t-171 84t-121.5 148t-49.5 211h152zM479 1593l260 209h213l-317 -209h-156z" />
    <glyph glyph-name="sacute" unicode="&#x15b;" horiz-adv-x="956" 
d="M729 741q-10 111 -82 163t-172 52q-92 0 -159.5 -44t-67.5 -124q0 -126 192 -176q125 -33 144 -39q66 -17 115 -38t94.5 -53t69.5 -80t24 -109q0 -63 -25 -116t-65.5 -88t-93.5 -59t-108 -35t-110 -11q-70 0 -135.5 17.5t-125.5 54t-101.5 103t-52.5 156.5h143
q17 -105 87.5 -159t188.5 -54q108 0 181 45.5t73 139.5q0 69 -51 104.5t-147 61.5q-75 22 -148 39q-60 16 -109.5 39t-92.5 57t-67 83.5t-24 110.5q0 92 57.5 161t141.5 101.5t176 32.5q158 0 265 -84.5t128 -251.5h-143zM395 1194l191 268h180l-266 -268h-105z" />
    <glyph glyph-name="Scircumflex" unicode="&#x15c;" horiz-adv-x="1255" 
d="M254 444q10 -166 120.5 -255t274.5 -89q71 0 131.5 15.5t110 47t78 86.5t28.5 128q0 41 -10 74.5t-23.5 58t-41.5 47t-51.5 36t-66.5 30t-72 25.5t-83 24q-71 21 -117.5 37t-103 38.5t-92.5 44.5t-73 53t-57.5 65.5t-34 80t-13.5 99.5q-2 127 64 219.5t171.5 136
t235.5 43.5q210 0 342.5 -107t152.5 -317h-151q-20 149 -108 223t-236 74q-140 0 -231 -67t-91 -195q0 -61 22.5 -106t74 -79t114 -58.5t162.5 -53.5q184 -53 257 -89q158 -78 197 -218q15 -52 15 -115q0 -86 -28 -156t-75 -116t-112 -77.5t-136 -45t-149 -13.5
q-110 0 -205 28t-171 84t-121.5 148t-49.5 211h152zM289 1577l250 231h161l250 -231h-155l-177 152l-174 -152h-155z" />
    <glyph glyph-name="scircumflex" unicode="&#x15d;" horiz-adv-x="956" 
d="M729 741q-10 111 -82 163t-172 52q-92 0 -159.5 -44t-67.5 -124q0 -126 192 -176q125 -33 144 -39q66 -17 115 -38t94.5 -53t69.5 -80t24 -109q0 -63 -25 -116t-65.5 -88t-93.5 -59t-108 -35t-110 -11q-70 0 -135.5 17.5t-125.5 54t-101.5 103t-52.5 156.5h143
q17 -105 87.5 -159t188.5 -54q108 0 181 45.5t73 139.5q0 69 -51 104.5t-147 61.5q-75 22 -148 39q-60 16 -109.5 39t-92.5 57t-67 83.5t-24 110.5q0 92 57.5 161t141.5 101.5t176 32.5q158 0 265 -84.5t128 -251.5h-143zM178 1194l228 268h149l225 -268h-139l-162 190
l-162 -190h-139z" />
    <glyph glyph-name="Scedilla" unicode="&#x15e;" horiz-adv-x="1255" 
d="M254 444q10 -166 120.5 -255t274.5 -89q71 0 131.5 15.5t110 47t78 86.5t28.5 128q0 41 -10 74.5t-23.5 58t-41.5 47t-51.5 36t-66.5 30t-72 25.5t-83 24q-71 21 -117.5 37t-103 38.5t-92.5 44.5t-73 53t-57.5 65.5t-34 80t-13.5 99.5q-2 127 64 219.5t171.5 136
t235.5 43.5q210 0 342.5 -107t152.5 -317h-151q-20 149 -108 223t-236 74q-140 0 -231 -67t-91 -195q0 -61 22.5 -106t74 -79t114 -58.5t162.5 -53.5q184 -53 257 -89q158 -78 197 -218q15 -52 15 -115q0 -84 -26.5 -152.5t-71 -114.5t-106.5 -77.5t-129.5 -46.5t-143.5 -17
l-86 -98l4 -4q34 27 92 27q73 0 121.5 -38t48.5 -110q0 -60 -38 -101t-91 -57t-115 -16q-100 0 -186 41l33 82q64 -39 137 -39q59 0 100 20.5t41 59.5q0 35 -26.5 55.5t-71.5 20.5q-48 0 -113 -27l-49 70l105 118q-98 9 -181 41.5t-148.5 88t-104 142t-42.5 195.5h152z" />
    <glyph glyph-name="scedilla" unicode="&#x15f;" horiz-adv-x="956" 
d="M729 741q-10 111 -82 163t-172 52q-92 0 -159.5 -44t-67.5 -124q0 -126 192 -176q125 -33 144 -39q66 -17 115 -38t94.5 -53t69.5 -80t24 -109q0 -72 -31 -129.5t-82.5 -94t-112 -57.5t-126.5 -26l-97 -111l4 -4q34 27 93 27q73 0 121.5 -38t48.5 -110q0 -60 -38 -101
t-91 -57t-115 -16q-101 0 -187 41l33 82q64 -39 137 -39q59 0 100.5 20.5t41.5 59.5q0 35 -27 55.5t-72 20.5q-47 0 -112 -27l-49 70l112 127q-65 6 -123 26t-110.5 58t-88.5 100.5t-46 144.5h143q17 -105 87.5 -159t188.5 -54q108 0 181 45.5t73 139.5q0 69 -51 104.5
t-147 61.5q-75 22 -148 39q-60 16 -109.5 39t-92.5 57t-67 83.5t-24 110.5q0 92 57.5 161t141.5 101.5t176 32.5q158 0 265 -84.5t128 -251.5h-143z" />
    <glyph glyph-name="Scaron" unicode="&#x160;" horiz-adv-x="1255" 
d="M254 444q10 -166 120.5 -255t274.5 -89q71 0 131.5 15.5t110 47t78 86.5t28.5 128q0 41 -10 74.5t-23.5 58t-41.5 47t-51.5 36t-66.5 30t-72 25.5t-83 24q-71 21 -117.5 37t-103 38.5t-92.5 44.5t-73 53t-57.5 65.5t-34 80t-13.5 99.5q-2 127 64 219.5t171.5 136
t235.5 43.5q210 0 342.5 -107t152.5 -317h-151q-20 149 -108 223t-236 74q-140 0 -231 -67t-91 -195q0 -61 22.5 -106t74 -79t114 -58.5t162.5 -53.5q184 -53 257 -89q158 -78 197 -218q15 -52 15 -115q0 -86 -28 -156t-75 -116t-112 -77.5t-136 -45t-149 -13.5
q-110 0 -205 28t-171 84t-121.5 148t-49.5 211h152zM285 1808h155l174 -151l177 151h155l-250 -231h-161z" />
    <glyph glyph-name="scaron" unicode="&#x161;" horiz-adv-x="956" 
d="M729 741q-10 111 -82 163t-172 52q-92 0 -159.5 -44t-67.5 -124q0 -126 192 -176q125 -33 144 -39q66 -17 115 -38t94.5 -53t69.5 -80t24 -109q0 -63 -25 -116t-65.5 -88t-93.5 -59t-108 -35t-110 -11q-70 0 -135.5 17.5t-125.5 54t-101.5 103t-52.5 156.5h143
q17 -105 87.5 -159t188.5 -54q108 0 181 45.5t73 139.5q0 69 -51 104.5t-147 61.5q-75 22 -148 39q-60 16 -109.5 39t-92.5 57t-67 83.5t-24 110.5q0 92 57.5 161t141.5 101.5t176 32.5q158 0 265 -84.5t128 -251.5h-143zM176 1460h139l162 -190l162 190h139l-225 -268h-150
z" />
    <glyph glyph-name="uni0162" unicode="&#x162;" horiz-adv-x="1148" 
d="M37 1335v127h1073v-127h-461v-1335h-151v1335h-461zM492 -281v177h186v-154q0 -85 -43.5 -127.5t-122.5 -42.5v61q45 11 57.5 30.5t12.5 55.5h-90z" />
    <glyph glyph-name="uni0163" unicode="&#x163;" horiz-adv-x="589" 
d="M317 252q0 -65 33 -100t94 -35h78v-117h-84q-133 0 -197.5 66.5t-64.5 183.5v692h-158v117h158v254l141 63v-317h203v-117h-203v-690zM252 -276v176h186v-154q0 -85 -43.5 -127.5t-122.5 -42.5v62q45 11 57.5 30.5t12.5 55.5h-90z" />
    <glyph glyph-name="Tcaron" unicode="&#x164;" horiz-adv-x="1148" 
d="M37 1335v127h1073v-127h-461v-1335h-151v1335h-461zM240 1808h155l174 -151l176 151h156l-250 -231h-162z" />
    <glyph glyph-name="tcaron" unicode="&#x165;" horiz-adv-x="589" 
d="M317 252q0 -65 33 -100t94 -35h78v-117h-84q-133 0 -197.5 66.5t-64.5 183.5v692h-158v117h158v254l141 63v-317h203v-117h-203v-690zM422 1151l14 311h152l-74 -311h-92z" />
    <glyph glyph-name="Tbar" unicode="&#x166;" horiz-adv-x="1148" 
d="M37 1335v127h1073v-127h-461v-334h328v-108h-328v-893h-151v893h-326v108h326v334h-461z" />
    <glyph glyph-name="tbar" unicode="&#x167;" horiz-adv-x="589" 
d="M496 594h-179v-342q0 -65 33 -100t94 -35h78v-117h-84q-133 0 -197.5 66.5t-64.5 183.5v344h-158v100h158v248h-158v117h158v254l141 63v-317h203v-117h-203v-248h179v-100z" />
    <glyph glyph-name="Utilde" unicode="&#x168;" horiz-adv-x="1370" 
d="M1221 520q0 -117 -33 -215.5t-97 -173t-168 -116.5t-237 -42q-134 0 -237.5 42t-167.5 117t-96.5 173t-32.5 215v942h149v-942q0 -120 40.5 -213t129 -151t215.5 -58q95 0 169 33t120.5 91t70 133.5t23.5 164.5v942h152v-942zM340 1593q5 94 55.5 150.5t141.5 56.5
q47 0 102.5 -26t105.5 -52t84 -26q91 0 101 106h104q-6 -93 -61 -151t-142 -58q-50 0 -108 26.5t-109 52.5t-84 26q-89 0 -92 -105h-98z" />
    <glyph glyph-name="utilde" unicode="&#x169;" horiz-adv-x="1114" 
d="M127 385v674h143v-664q0 -293 254 -293q62 0 116 23t99.5 70.5t72 131t26.5 193.5v539h143v-1059h-143v205q-100 -223 -328 -223q-185 0 -284 104t-99 299zM211 1255q3 93 54 150t141 57q48 0 103.5 -26.5t106 -53t84.5 -26.5q45 0 70.5 28t30.5 78h102q-6 -93 -61 -151
t-142 -58q-49 0 -107 26.5t-109.5 52.5t-84.5 26q-87 0 -90 -103h-98z" />
    <glyph glyph-name="Umacron" unicode="&#x16a;" horiz-adv-x="1370" 
d="M1221 520q0 -117 -33 -215.5t-97 -173t-168 -116.5t-237 -42q-134 0 -237.5 42t-167.5 117t-96.5 173t-32.5 215v942h149v-942q0 -120 40.5 -213t129 -151t215.5 -58q95 0 169 33t120.5 91t70 133.5t23.5 164.5v942h152v-942zM387 1634v95h598v-95h-598z" />
    <glyph glyph-name="umacron" unicode="&#x16b;" horiz-adv-x="1114" 
d="M127 385v674h143v-664q0 -293 254 -293q62 0 116 23t99.5 70.5t72 131t26.5 193.5v539h143v-1059h-143v205q-100 -223 -328 -223q-185 0 -284 104t-99 299zM213 1262v88h686v-88h-686z" />
    <glyph glyph-name="Ubreve" unicode="&#x16c;" horiz-adv-x="1370" 
d="M1221 520q0 -117 -33 -215.5t-97 -173t-168 -116.5t-237 -42q-134 0 -237.5 42t-167.5 117t-96.5 173t-32.5 215v942h149v-942q0 -120 40.5 -213t129 -151t215.5 -58q95 0 169 33t120.5 91t70 133.5t23.5 164.5v942h152v-942zM393 1802h111q8 -58 59 -103.5t125 -45.5
t124 45.5t56 103.5h115q-18 -107 -98.5 -177.5t-196.5 -70.5t-196.5 70.5t-98.5 177.5z" />
    <glyph glyph-name="ubreve" unicode="&#x16d;" horiz-adv-x="1114" 
d="M127 385v674h143v-664q0 -293 254 -293q62 0 116 23t99.5 70.5t72 131t26.5 193.5v539h143v-1059h-143v205q-100 -223 -328 -223q-185 0 -284 104t-99 299zM266 1462h111q5 -77 52 -126.5t132 -49.5t131 49.5t49 126.5h115q-8 -123 -88.5 -198.5t-206.5 -75.5
t-206.5 75.5t-88.5 198.5z" />
    <glyph glyph-name="Uring" unicode="&#x16e;" horiz-adv-x="1370" 
d="M1221 520q0 -117 -33 -215.5t-97 -173t-168 -116.5t-237 -42q-134 0 -237.5 42t-167.5 117t-96.5 173t-32.5 215v942h149v-942q0 -120 40.5 -213t129 -151t215.5 -58q95 0 169 33t120.5 91t70 133.5t23.5 164.5v942h152v-942zM463 1792q0 92 65 156.5t156 64.5t156 -64.5
t65 -156.5t-65 -156.5t-156 -64.5t-156 64.5t-65 156.5zM563 1790q0 -54 33 -87.5t88 -33.5q54 0 86.5 33.5t32.5 87.5t-32.5 87.5t-86.5 33.5q-55 0 -88 -33.5t-33 -87.5z" />
    <glyph glyph-name="uring" unicode="&#x16f;" horiz-adv-x="1114" 
d="M127 385v674h143v-664q0 -293 254 -293q62 0 116 23t99.5 70.5t72 131t26.5 193.5v539h143v-1059h-143v205q-100 -223 -328 -223q-185 0 -284 104t-99 299zM334 1354q0 92 65 156.5t156 64.5t156 -64.5t65 -156.5t-65 -156.5t-156 -64.5t-156 64.5t-65 156.5zM434 1352
q0 -54 33.5 -88.5t87.5 -34.5t86.5 34.5t32.5 88.5t-32.5 88.5t-86.5 34.5t-87.5 -34.5t-33.5 -88.5z" />
    <glyph glyph-name="Uhungarumlaut" unicode="&#x170;" horiz-adv-x="1370" 
d="M1221 520q0 -117 -33 -215.5t-97 -173t-168 -116.5t-237 -42q-134 0 -237.5 42t-167.5 117t-96.5 173t-32.5 215v942h149v-942q0 -120 40.5 -213t129 -151t215.5 -58q95 0 169 33t120.5 91t70 133.5t23.5 164.5v942h152v-942zM457 1597l182 207h168l-244 -207h-106z
M733 1597l180 207h168l-243 -207h-105z" />
    <glyph glyph-name="uhungarumlaut" unicode="&#x171;" horiz-adv-x="1114" 
d="M127 385v674h143v-664q0 -293 254 -293q62 0 116 23t99.5 70.5t72 131t26.5 193.5v539h143v-1059h-143v205q-100 -223 -328 -223q-185 0 -284 104t-99 299zM276 1194l183 268h168l-244 -268h-107zM553 1194l180 268h168l-244 -268h-104z" />
    <glyph glyph-name="Uogonek" unicode="&#x172;" horiz-adv-x="1370" 
d="M1221 520q0 -136 -42.5 -245t-133.5 -186t-222 -103q-78 -57 -120 -106.5t-39 -100.5q3 -107 139 -107v-88q-115 0 -188.5 46t-73.5 137q-1 61 28.5 108.5t87.5 97.5q-126 4 -224 48t-158.5 118.5t-91.5 170.5t-31 210v942h149v-942q0 -120 40.5 -213t129 -151t215.5 -58
q95 0 169 33t120.5 91t70 133.5t23.5 164.5v942h152v-942z" />
    <glyph glyph-name="uogonek" unicode="&#x173;" horiz-adv-x="1114" 
d="M127 385v674h143v-664q0 -293 254 -293q62 0 116 23t99.5 70.5t72 131t26.5 193.5v539h143v-1059q-87 -64 -127 -114t-43 -107q-3 -52 35.5 -80.5t109.5 -28.5v-86q-114 0 -185 46t-71 137q-1 69 33 121t105 112v205q-100 -223 -328 -223q-185 0 -284 104t-99 299z" />
    <glyph glyph-name="Wcircumflex" unicode="&#x174;" horiz-adv-x="1847" 
d="M25 1462h159l269 -1097l51 -205h2l51 205l258 1097h213l254 -1093l51 -211h4l52 211l274 1093h160l-387 -1462h-207l-305 1309h-2l-228 -942l-88 -367h-207l-92 365zM590 1577l250 231h161l250 -231h-155l-176 152l-175 -152h-155z" />
    <glyph glyph-name="wcircumflex" unicode="&#x175;" horiz-adv-x="1472" 
d="M328 0l-308 1059h148l190 -690l50 -197h2q10 38 27 108t22 89l186 690h180l185 -684q9 -37 26.5 -105.5t24.5 -97.5h2q47 178 53 203l189 684h147l-309 -1059h-162l-195 715q-9 31 -49 184h-2q-16 -55 -49 -184l-197 -715h-161zM451 1194l227 268h149l226 -268h-140
l-161 190l-162 -190h-139z" />
    <glyph glyph-name="Ycircumflex" unicode="&#x176;" horiz-adv-x="1226" 
d="M207 1462q333 -592 405 -723h4q73 132 210 376t194 347h172l-504 -864v-598h-151v598l-502 864h172zM281 1577l249 231h162l250 -231h-156l-176 152l-174 -152h-155z" />
    <glyph glyph-name="ycircumflex" unicode="&#x177;" horiz-adv-x="1032" 
d="M170 1059l362 -922h3q55 152 164 461.5t163 460.5h150q-215 -578 -477 -1268q-36 -100 -94.5 -150.5t-159.5 -50.5h-113v119h98q20 0 37 4.5t29.5 9.5t24.5 17.5t18.5 20t15.5 26t12 26l12 30t11 28.5l37 96l-443 1092h150zM211 1194l227 268h150l225 -268h-139l-162 190
l-162 -190h-139z" />
    <glyph glyph-name="Ydieresis" unicode="&#x178;" horiz-adv-x="1226" 
d="M207 1462q333 -592 405 -723h4q73 132 210 376t194 347h172l-504 -864v-598h-151v598l-502 864h172zM377 1593v209h141v-209h-141zM702 1593v209h142v-209h-142z" />
    <glyph glyph-name="Zacute" unicode="&#x179;" horiz-adv-x="1241" 
d="M96 131l856 1200h-811v131h983v-131l-852 -1200h877v-131h-1053v131zM467 1593l260 209h213l-317 -209h-156z" />
    <glyph glyph-name="zacute" unicode="&#x17a;" horiz-adv-x="991" 
d="M733 940h-137h-471v119h780v-90l-665 -850h112h566v-119h-844v98zM403 1194l191 268h180l-266 -268h-105z" />
    <glyph glyph-name="Zdotaccent" unicode="&#x17b;" horiz-adv-x="1241" 
d="M96 131l856 1200h-811v131h983v-131l-852 -1200h877v-131h-1053v131zM539 1602v200h141v-200h-141z" />
    <glyph glyph-name="zdotaccent" unicode="&#x17c;" horiz-adv-x="991" 
d="M733 940h-137h-471v119h780v-90l-665 -850h112h566v-119h-844v98zM418 1264v198h139v-198h-139z" />
    <glyph glyph-name="Zcaron" unicode="&#x17d;" horiz-adv-x="1241" 
d="M96 131l856 1200h-811v131h983v-131l-852 -1200h877v-131h-1053v131zM272 1808h156l174 -151l176 151h156l-250 -231h-162z" />
    <glyph glyph-name="zcaron" unicode="&#x17e;" horiz-adv-x="991" 
d="M733 940h-137h-471v119h780v-90l-665 -850h112h566v-119h-844v98zM186 1460h140l161 -190l162 190h139l-225 -268h-149z" />
    <glyph glyph-name="florin" unicode="&#x192;" horiz-adv-x="757" 
d="M-70 -293l21 115h65q70 0 109.5 43.5t56.5 138.5l140 784h-203l20 113h201l53 297q11 59 30 104t51.5 82.5t84 57.5t119.5 20h115l-23 -119h-68q-81 0 -118 -31t-54 -122l-51 -289h207l-20 -113h-207l-140 -796q-54 -285 -305 -285h-84z" />
    <glyph glyph-name="Aringacute" unicode="&#x1fa;" horiz-adv-x="1374" 
d="M197 0h-156l547 1462h198l547 -1462h-155l-170 453h-641zM412 575h551l-273 754h-6zM463 1792q0 82 53.5 143.5t132.5 75.5l209 158h213l-289 -178q55 -28 89 -81.5t34 -117.5q0 -92 -65 -156.5t-156 -64.5t-156 64.5t-65 156.5zM563 1790q0 -54 33 -87.5t88 -33.5
q54 0 86.5 33.5t32.5 87.5t-32.5 87.5t-86.5 33.5q-55 0 -88 -33.5t-33 -87.5z" />
    <glyph glyph-name="aringacute" unicode="&#x1fb;" horiz-adv-x="1097" 
d="M139 743q11 61 41 118t79.5 106.5t127 79.5t170.5 30q99 0 174.5 -23.5t119 -59.5t71 -87.5t36.5 -99.5t9 -102v-488q0 -111 18 -217h-154q-6 55 -6 162v47h-2q-16 -39 -39.5 -74t-65 -72.5t-109 -60t-152.5 -22.5q-180 0 -277.5 90.5t-97.5 218.5q0 59 18 106.5t65.5 81
t78.5 54.5t108.5 40t101 24t108.5 19q6 1 9 2q134 22 194 55.5t60 100.5q0 89 -72 137.5t-194 48.5q-106 0 -178.5 -57t-97.5 -158h-144zM223 289q0 -85 69 -139t185 -54q70 0 132.5 25t112 72t78.5 123.5t29 172.5v160q-21 -53 -95.5 -90.5t-227.5 -64.5
q-138 -23 -210.5 -72t-72.5 -133zM334 1362q0 78 49.5 138.5t124.5 78.5l170 238h180l-242 -242q70 -22 115 -80.5t45 -132.5q0 -92 -65 -156.5t-156 -64.5t-156 64.5t-65 156.5zM434 1360q0 -54 33.5 -88.5t87.5 -34.5t86.5 34.5t32.5 88.5t-32.5 88.5t-86.5 34.5
t-87.5 -34.5t-33.5 -88.5z" />
    <glyph glyph-name="AEacute" unicode="&#x1fc;" horiz-adv-x="2011" 
d="M41 0l848 1462h989v-127h-717v-526h674v-127h-674v-555h723v-127h-874v467h-533l-270 -467h-166zM547 592h463v743h-33zM1339 1593l260 209h213l-317 -209h-156z" />
    <glyph glyph-name="aeacute" unicode="&#x1fd;" horiz-adv-x="1812" 
d="M82 289q0 40 10.5 75t26.5 61.5t44.5 50t53.5 40t65 31.5t68.5 24t74 19t70.5 14.5t70 11.5q129 22 186.5 57.5t57.5 98.5q0 90 -70.5 138t-193.5 48q-106 0 -175 -56.5t-94 -158.5h-137q9 55 37 110.5t75 107t122.5 84t167.5 32.5q112 0 192 -32t119 -78.5t57 -108.5
q119 219 369 219q98 0 175.5 -29t128 -78.5t84 -120t49 -146.5t18.5 -166q0 -7 1 -22.5t1 -22.5h-785q6 -181 91.5 -286.5t236.5 -105.5q112 0 187.5 54.5t111.5 158.5h141q-45 -158 -157 -244.5t-281 -86.5q-299 0 -399 266q-50 -119 -161 -193.5t-265 -74.5
q-180 0 -276.5 90.5t-96.5 218.5zM223 289q0 -86 64.5 -139.5t179.5 -53.5q152 0 248 99.5t96 289.5v150q-49 -95 -311 -139q-277 -46 -277 -207zM813 1194l191 268h180l-266 -268h-105zM952 602h637q-16 176 -89.5 267.5t-221.5 91.5q-147 0 -230.5 -97.5t-95.5 -261.5z
" />
    <glyph glyph-name="Oslashacute" unicode="&#x1fe;" horiz-adv-x="1660" 
d="M829 1491q313 0 517 -191l165 160l76 -76l-170 -161q78 -100 120 -227t42 -265q0 -155 -52 -293t-146.5 -242t-237.5 -164.5t-314 -60.5q-313 0 -520 197l-164 -156l-69 76l164 156q-158 206 -158 487q0 155 52 292.5t146 241.5t236 165t313 61zM231 731q0 -214 113 -387
l899 860q-163 160 -414 160q-115 0 -213.5 -35.5t-168 -96.5t-119 -142t-73.5 -172t-24 -187zM410 264q165 -168 419 -168q116 0 215 35.5t168.5 96.5t118.5 142.5t72.5 173t23.5 187.5q0 223 -116 391zM688 1593l260 209h213l-317 -209h-156z" />
    <glyph glyph-name="oslashacute" unicode="&#x1ff;" horiz-adv-x="1179" 
d="M590 -18q-193 0 -324 106l-100 -113l-78 64l107 119q-125 153 -125 370q0 151 61.5 274.5t181.5 199t277 75.5q193 0 325 -110l111 123l70 -74l-109 -121q123 -151 123 -367q0 -150 -62 -273.5t-181.5 -198t-276.5 -74.5zM213 528q0 -152 76 -264l538 604q-98 88 -237 88
q-166 0 -271.5 -123t-105.5 -305zM356 188q99 -86 234 -86q166 0 271.5 123t105.5 303q0 146 -74 263zM506 1194l190 268h181l-267 -268h-104z" />
    <glyph glyph-name="uni0218" unicode="&#x218;" horiz-adv-x="1255" 
d="M254 444q10 -166 120.5 -255t274.5 -89q71 0 131.5 15.5t110 47t78 86.5t28.5 128q0 41 -10 74.5t-23.5 58t-41.5 47t-51.5 36t-66.5 30t-72 25.5t-83 24q-71 21 -117.5 37t-103 38.5t-92.5 44.5t-73 53t-57.5 65.5t-34 80t-13.5 99.5q-2 127 64 219.5t171.5 136
t235.5 43.5q210 0 342.5 -107t152.5 -317h-151q-20 149 -108 223t-236 74q-140 0 -231 -67t-91 -195q0 -61 22.5 -106t74 -79t114 -58.5t162.5 -53.5q184 -53 257 -89q158 -78 197 -218q15 -52 15 -115q0 -86 -28 -156t-75 -116t-112 -77.5t-136 -45t-149 -13.5
q-110 0 -205 28t-171 84t-121.5 148t-49.5 211h152zM553 -281v177h186v-154q0 -85 -43.5 -127.5t-122.5 -42.5v61q45 11 57.5 30.5t12.5 55.5h-90z" />
    <glyph glyph-name="uni0219" unicode="&#x219;" horiz-adv-x="956" 
d="M729 741q-10 111 -82 163t-172 52q-92 0 -159.5 -44t-67.5 -124q0 -126 192 -176q125 -33 144 -39q66 -17 115 -38t94.5 -53t69.5 -80t24 -109q0 -63 -25 -116t-65.5 -88t-93.5 -59t-108 -35t-110 -11q-70 0 -135.5 17.5t-125.5 54t-101.5 103t-52.5 156.5h143
q17 -105 87.5 -159t188.5 -54q108 0 181 45.5t73 139.5q0 69 -51 104.5t-147 61.5q-75 22 -148 39q-60 16 -109.5 39t-92.5 57t-67 83.5t-24 110.5q0 92 57.5 161t141.5 101.5t176 32.5q158 0 265 -84.5t128 -251.5h-143zM399 -281v177h187v-154q0 -85 -43.5 -127.5
t-122.5 -42.5v61q24 6 38.5 14t21 20t8 22.5t1.5 29.5h-90z" />
    <glyph glyph-name="uni021A" unicode="&#x21a;" horiz-adv-x="1148" 
d="M37 1335v127h1073v-127h-461v-1335h-151v1335h-461zM492 -281v177h186v-154q0 -85 -43.5 -127.5t-122.5 -42.5v61q45 11 57.5 30.5t12.5 55.5h-90z" />
    <glyph glyph-name="uni021B" unicode="&#x21b;" horiz-adv-x="589" 
d="M317 252q0 -65 33 -100t94 -35h78v-117h-84q-133 0 -197.5 66.5t-64.5 183.5v692h-158v117h158v254l141 63v-317h203v-117h-203v-690zM252 -276v176h186v-154q0 -85 -43.5 -127.5t-122.5 -42.5v62q45 11 57.5 30.5t12.5 55.5h-90z" />
    <glyph glyph-name="uni0237" unicode="&#x237;" horiz-adv-x="456" 
d="M322 -166q0 -237 -236 -237h-104v118h79q65 0 92 25.5t27 91.5v1227h142v-1225z" />
    <glyph glyph-name="circumflex" unicode="&#x2c6;" horiz-adv-x="856" 
d="M92 1194l227 268h150l225 -268h-139l-162 190l-162 -190h-139z" />
    <glyph glyph-name="caron" unicode="&#x2c7;" horiz-adv-x="768" 
d="M82 1460h139l162 -190l162 190h139l-225 -268h-150z" />
    <glyph glyph-name="breve" unicode="&#x2d8;" horiz-adv-x="780" 
d="M393 1188q-126 0 -206.5 75.5t-88.5 198.5h111q5 -77 52 -126.5t132 -49.5t131 49.5t49 126.5h115q-8 -123 -88.5 -198.5t-206.5 -75.5z" />
    <glyph glyph-name="dotaccent" unicode="&#x2d9;" horiz-adv-x="249" 
d="M195 1264h-140v198h140v-198z" />
    <glyph glyph-name="ring" unicode="&#x2da;" horiz-adv-x="604" 
d="M80 1354q0 92 65 156.5t156 64.5t156 -64.5t65 -156.5t-65 -156.5t-156 -64.5t-156 64.5t-65 156.5zM180 1352q0 -54 33.5 -88.5t87.5 -34.5t86.5 34.5t32.5 88.5t-32.5 88.5t-86.5 34.5t-87.5 -34.5t-33.5 -88.5z" />
    <glyph glyph-name="ogonek" unicode="&#x2db;" horiz-adv-x="550" 
d="M428 0q-87 -64 -127 -114t-43 -107q-3 -52 35.5 -80.5t109.5 -28.5v-86q-114 0 -185 46t-71 137q-1 69 33 121t105 112h143z" />
    <glyph glyph-name="tilde" unicode="&#x2dc;" horiz-adv-x="1271" 
d="M285 1255q3 94 53.5 150.5t140.5 56.5q48 0 104 -26.5t106.5 -53t84.5 -26.5q90 0 100 106h103q-6 -93 -61 -151t-142 -58q-49 0 -107 26.5t-109.5 52.5t-84.5 26q-87 0 -90 -103h-98z" />
    <glyph glyph-name="hungarumlaut" unicode="&#x2dd;" horiz-adv-x="841" 
d="M545 1462h168l-244 -268h-104zM88 1194l182 268h168l-243 -268h-107z" />
    <glyph glyph-name="gravecomb" unicode="&#x300;" 
d="M178 1462l191 -268h-105l-266 268h180z" />
    <glyph glyph-name="acutecomb" unicode="&#x301;" 
d="M391 1462h180l-266 -268h-104z" />
    <glyph glyph-name="uni0302" unicode="&#x302;" 
d="M92 1194l227 268h150l225 -268h-139l-162 190l-162 -190h-139z" />
    <glyph glyph-name="tildecomb" unicode="&#x303;" 
d="M285 1255q3 94 53.5 150.5t140.5 56.5q48 0 104 -26.5t106.5 -53t84.5 -26.5q90 0 100 106h103q-6 -93 -61 -151t-142 -58q-49 0 -107 26.5t-109.5 52.5t-84.5 26q-87 0 -90 -103h-98z" />
    <glyph glyph-name="uni0304" unicode="&#x304;" 
d="M74 1350h686v-88h-686v88z" />
    <glyph glyph-name="uni0306" unicode="&#x306;" 
d="M393 1188q-126 0 -206.5 75.5t-88.5 198.5h111q5 -77 52 -126.5t132 -49.5t131 49.5t49 126.5h115q-8 -123 -88.5 -198.5t-206.5 -75.5z" />
    <glyph glyph-name="uni0307" unicode="&#x307;" 
d="M195 1264h-140v198h140v-198z" />
    <glyph glyph-name="uni0308" unicode="&#x308;" 
d="M131 1462h137v-198h-137v198zM438 1264v198h137v-198h-137z" />
    <glyph glyph-name="uni030A" unicode="&#x30a;" 
d="M80 1354q0 92 65 156.5t156 64.5t156 -64.5t65 -156.5t-65 -156.5t-156 -64.5t-156 64.5t-65 156.5zM180 1352q0 -54 33.5 -88.5t87.5 -34.5t86.5 34.5t32.5 88.5t-32.5 88.5t-86.5 34.5t-87.5 -34.5t-33.5 -88.5z" />
    <glyph glyph-name="uni030B" unicode="&#x30b;" 
d="M545 1462h168l-244 -268h-104zM88 1194l182 268h168l-243 -268h-107z" />
    <glyph glyph-name="uni030C" unicode="&#x30c;" 
d="M82 1460h139l162 -190l162 190h139l-225 -268h-150z" />
    <glyph glyph-name="uni0312" unicode="&#x312;" 
d="M279 1241h-189v154q0 86 44 128t124 42v-62q-47 -11 -59.5 -30.5t-12.5 -55.5h93v-176z" />
    <glyph glyph-name="uni0326" unicode="&#x326;" 
d="M102 -104h187v-154q0 -85 -43.5 -127.5t-122.5 -42.5v61q45 11 57.5 30.5t12.5 55.5h-91v177z" />
    <glyph glyph-name="uni0327" unicode="&#x327;" 
d="M242 -424q-101 0 -187 41l33 82q64 -39 137 -39q59 0 100.5 20.5t41.5 59.5q0 35 -27 55.5t-72 20.5q-47 0 -112 -27l-50 70l125 141h97l-109 -125l4 -4q34 27 92 27q73 0 121.5 -38t48.5 -110q0 -60 -38 -101t-90.5 -57t-114.5 -16z" />
    <glyph glyph-name="uni0328" unicode="&#x328;" 
d="M428 0q-87 -64 -127 -114t-43 -107q-3 -52 35.5 -80.5t109.5 -28.5v-86q-114 0 -185 46t-71 137q-1 69 33 121t105 112h143z" />
    <glyph glyph-name="uni0335" unicode="&#x335;" 
d="M1243 1204h-698v94h698v-94z" />
    <glyph glyph-name="uni0338" unicode="&#x338;" 
d="M1114 1016l-930 -1041l-78 64l938 1051z" />
    <glyph glyph-name="uni0374" unicode="&#x374;" horiz-adv-x="491" 
d="M236 1462h157l-188 -309h-107z" />
    <glyph glyph-name="uni0375" unicode="&#x375;" horiz-adv-x="499" 
d="M260 -416h-158l189 310h106z" />
    <glyph glyph-name="uni037E" unicode="&#x37e;" horiz-adv-x="421" 
d="M156 240h159l-139 -482h-123zM150 711v239h163v-239h-163z" />
    <glyph glyph-name="tonos" unicode="&#x384;" horiz-adv-x="532" 
d="M334 1462h158l-189 -268h-106z" />
    <glyph glyph-name="dieresistonos" unicode="&#x385;" horiz-adv-x="704" 
d="M51 1462h137v-198h-137v198zM246 1214l69 310h158l-121 -310h-106zM508 1264v198h137v-198h-137z" />
    <glyph glyph-name="Alphatonos" unicode="&#x386;" horiz-adv-x="1366" 
d="M197 0h-156l547 1462h198l547 -1462h-155l-170 453h-641zM78 1155l104 307h154l-154 -307h-104zM412 575h551l-273 754h-6z" />
    <glyph glyph-name="anoteleia" unicode="&#x387;" horiz-adv-x="514" 
d="M258 666q54 0 92.5 -38.5t38.5 -92.5q0 -50 -39.5 -91t-89.5 -41q-54 0 -93.5 39t-39.5 93t38.5 92.5t92.5 38.5z" />
    <glyph glyph-name="Epsilontonos" unicode="&#x388;" horiz-adv-x="1173" 
d="M1049 1462v-127h-740v-526h697v-127h-697v-555h746v-127h-895v1462h889zM-195 1155l105 307h153l-153 -307h-105z" />
    <glyph glyph-name="Etatonos" unicode="&#x389;" horiz-adv-x="1388" 
d="M1071 1462h152v-1462h-152v676h-762v-676h-149v1462h149v-659h762v659zM-195 1155l105 307h153l-153 -307h-105z" />
    <glyph glyph-name="Iotatonos" unicode="&#x38a;" horiz-adv-x="466" 
d="M160 1462h149v-1462h-149v1462zM-178 1155l104 307h154l-154 -307h-104z" />
    <glyph glyph-name="Omicrontonos" unicode="&#x38c;" horiz-adv-x="1652" 
d="M829 1491q171 0 314 -61t237.5 -165t146.5 -241.5t52 -292.5t-52 -293t-146.5 -242t-237.5 -164.5t-314 -60.5t-313 60.5t-236 164.5t-146 242t-52 293t52 292.5t146 241.5t236 165t313 61zM-98 1155l104 307h154l-154 -307h-104zM231 731q0 -96 24 -187.5t73.5 -173
t119 -142.5t168 -96.5t213.5 -35.5q116 0 215 35.5t168.5 96.5t118.5 142.5t72.5 173t23.5 187.5t-23.5 187t-72.5 172t-118.5 142t-168.5 96.5t-215 35.5q-115 0 -213.5 -35.5t-168 -96.5t-119 -142t-73.5 -172t-24 -187z" />
    <glyph glyph-name="Upsilontonos" unicode="&#x38e;" horiz-adv-x="1193" 
d="M207 1462q333 -592 405 -723h4q73 132 210 376t194 347h172l-504 -864v-598h-151v598l-502 864h172zM-291 1155l105 307h153l-153 -307h-105z" />
    <glyph glyph-name="Omegatonos" unicode="&#x38f;" horiz-adv-x="1480" 
d="M92 0v127h426v160q-81 21 -157.5 72.5t-138 124.5t-99 173t-37.5 207q0 179 79 319.5t226 220t338 79.5t338 -79.5t226 -220t79 -319.5q0 -107 -37.5 -207t-98.5 -173t-137.5 -124.5t-156.5 -72.5v-160h422v-127h-541v387q181 32 297.5 165t116.5 306q0 217 -140 357.5
t-370 140.5q-227 0 -366.5 -140.5t-139.5 -357.5q0 -174 116 -306.5t298 -164.5v-387h-543zM-102 1155l104 307h154l-154 -307h-104z" />
    <glyph glyph-name="iotadieresistonos" unicode="&#x390;" horiz-adv-x="487" 
d="M356 -4q-131 0 -181 62.5t-50 195.5v805h143v-799q0 -71 27 -103t94 -32q27 0 47 2v-127q-54 -4 -80 -4zM-100 1264v198h137v-198h-137zM94 1214l70 310h158l-121 -310h-107zM356 1264v198h138v-198h-138z" />
    <glyph glyph-name="Alpha" unicode="&#x391;" horiz-adv-x="1374" 
d="M197 0h-156l547 1462h198l547 -1462h-155l-170 453h-641zM412 575h551l-273 754h-6z" />
    <glyph glyph-name="Beta" unicode="&#x392;" horiz-adv-x="1261" 
d="M160 0v1462h499q195 0 318 -101.5t123 -285.5q0 -117 -68 -199t-182 -122v-2q136 -18 223.5 -109.5t87.5 -239.5q0 -192 -132.5 -297.5t-358.5 -105.5h-510zM309 127h373q151 0 239.5 75t88.5 201q0 132 -86.5 206.5t-235.5 74.5h-379v-557zM309 809h314q155 0 240 68.5
t85 197.5q0 260 -317 260h-322v-526z" />
    <glyph glyph-name="Gamma" unicode="&#x393;" horiz-adv-x="1042" 
d="M160 0v1462h837v-127h-688v-1335h-149z" />
    <glyph glyph-name="uni0394" unicode="&#x394;" horiz-adv-x="1415" 
d="M41 0l567 1462h199l567 -1462h-1333zM244 123h927l-460 1206h-6z" />
    <glyph glyph-name="Epsilon" unicode="&#x395;" horiz-adv-x="1173" 
d="M1049 1462v-127h-740v-526h697v-127h-697v-555h746v-127h-895v1462h889z" />
    <glyph glyph-name="Zeta" unicode="&#x396;" horiz-adv-x="1241" 
d="M96 131l856 1200h-811v131h983v-131l-852 -1200h877v-131h-1053v131z" />
    <glyph glyph-name="Eta" unicode="&#x397;" horiz-adv-x="1388" 
d="M1071 1462h152v-1462h-152v676h-762v-676h-149v1462h149v-659h762v659z" />
    <glyph glyph-name="Theta" unicode="&#x398;" horiz-adv-x="1652" 
d="M829 1491q171 0 314 -61t237.5 -165t146.5 -241.5t52 -292.5t-52 -293t-146.5 -242t-237.5 -164.5t-314 -60.5t-313 60.5t-236 164.5t-146 242t-52 293t52 292.5t146 241.5t236 165t313 61zM231 731q0 -96 24 -187.5t73.5 -173t119 -142.5t168 -96.5t213.5 -35.5
q116 0 215 35.5t168.5 96.5t118.5 142.5t72.5 173t23.5 187.5t-23.5 187t-72.5 172t-118.5 142t-168.5 96.5t-215 35.5q-115 0 -213.5 -35.5t-168 -96.5t-119 -142t-73.5 -172t-24 -187zM453 664v131h731v-131h-731z" />
    <glyph glyph-name="Iota" unicode="&#x399;" horiz-adv-x="466" 
d="M160 1462h149v-1462h-149v1462z" />
    <glyph glyph-name="Kappa" unicode="&#x39a;" horiz-adv-x="1296" 
d="M309 0h-149v1462h149v-770l713 770h192l-569 -606l606 -856h-182l-522 754l-238 -250v-504z" />
    <glyph glyph-name="Lambda" unicode="&#x39b;" horiz-adv-x="1318" 
d="M25 0l544 1462h181l546 -1462h-163l-471 1290h-5l-471 -1290h-161z" />
    <glyph glyph-name="Mu" unicode="&#x39c;" horiz-adv-x="1691" 
d="M160 0v1462l246 -2l456 -1280h2l453 1282h246v-1462h-150v1284h-4l-461 -1284h-172l-463 1284h-4v-1284h-149z" />
    <glyph glyph-name="Nu" unicode="&#x39d;" horiz-adv-x="1443" 
d="M160 1462h178l645 -1003q29 -44 82.5 -130t71.5 -114q0 46 -1 137t-1 137v973h149v-1462h-182l-635 987q-27 41 -80.5 126t-79.5 126q0 -49 1 -148t1 -147v-944h-149v1462z" />
    <glyph glyph-name="Xi" unicode="&#x39e;" horiz-adv-x="1230" 
d="M90 0v127h1053v-127h-1053zM90 1335v127h1047v-127h-1047zM172 684v123h901v-123h-901z" />
    <glyph glyph-name="Omicron" unicode="&#x39f;" horiz-adv-x="1652" 
d="M829 1491q171 0 314 -61t237.5 -165t146.5 -241.5t52 -292.5t-52 -293t-146.5 -242t-237.5 -164.5t-314 -60.5t-313 60.5t-236 164.5t-146 242t-52 293t52 292.5t146 241.5t236 165t313 61zM231 731q0 -96 24 -187.5t73.5 -173t119 -142.5t168 -96.5t213.5 -35.5
q116 0 215 35.5t168.5 96.5t118.5 142.5t72.5 173t23.5 187.5t-23.5 187t-72.5 172t-118.5 142t-168.5 96.5t-215 35.5q-115 0 -213.5 -35.5t-168 -96.5t-119 -142t-73.5 -172t-24 -187z" />
    <glyph glyph-name="Pi" unicode="&#x3a0;" horiz-adv-x="1388" 
d="M1229 1462v-1462h-150v1335h-770v-1335h-149v1462h1069z" />
    <glyph glyph-name="Rho" unicode="&#x3a1;" horiz-adv-x="1185" 
d="M592 731q174 0 268 78.5t94 228.5q0 140 -89 218.5t-259 78.5h-297v-604h283zM160 0v1462h467q210 0 344.5 -116.5t134.5 -307.5q0 -194 -139 -313t-355 -119h-303v-606h-149z" />
    <glyph glyph-name="Sigma" unicode="&#x3a3;" horiz-adv-x="1202" 
d="M766 731l-483 -604h858v-127h-1039v117l504 616l-504 613v116h1039v-127h-858z" />
    <glyph glyph-name="Tau" unicode="&#x3a4;" horiz-adv-x="1150" 
d="M37 1335v127h1073v-127h-461v-1335h-151v1335h-461z" />
    <glyph glyph-name="Upsilon" unicode="&#x3a5;" horiz-adv-x="1193" 
d="M207 1462q333 -592 405 -723h4q73 132 210 376t194 347h172l-504 -864v-598h-151v598l-502 864h172z" />
    <glyph glyph-name="Phi" unicode="&#x3a6;" horiz-adv-x="1579" 
d="M715 -41v188q-332 12 -509 163.5t-177 420.5q0 268 177 418t509 162v192h151v-192q332 -10 509 -161t177 -419q0 -270 -177 -422t-509 -162v-188h-151zM180 731q0 -213 136.5 -331t398.5 -128v914q-261 -9 -398 -126t-137 -329zM866 272q262 10 398.5 128t136.5 331
q0 212 -137 329t-398 126v-914z" />
    <glyph glyph-name="Chi" unicode="&#x3a7;" horiz-adv-x="1228" 
d="M25 0l516 752l-496 710h184l400 -585l413 585h175l-502 -712l524 -750h-188l-422 625l-428 -625h-176z" />
    <glyph glyph-name="Psi" unicode="&#x3a8;" horiz-adv-x="1499" 
d="M676 0v352q-283 7 -441.5 160t-158.5 410v540h151v-540q0 -197 120 -315.5t329 -127.5v983h149v-983q209 6 329 125t120 318v540h149v-540q0 -256 -157.5 -410t-440.5 -160v-352h-149z" />
    <glyph glyph-name="uni03A9" unicode="&#x3a9;" horiz-adv-x="1480" 
d="M92 0v127h426v160q-81 21 -157.5 72.5t-138 124.5t-99 173t-37.5 207q0 179 79 319.5t226 220t338 79.5t338 -79.5t226 -220t79 -319.5q0 -107 -37.5 -207t-98.5 -173t-137.5 -124.5t-156.5 -72.5v-160h422v-127h-541v387q181 32 297.5 165t116.5 306q0 217 -140 357.5
t-370 140.5q-227 0 -366.5 -140.5t-139.5 -357.5q0 -174 116 -306.5t298 -164.5v-387h-543z" />
    <glyph glyph-name="Iotadieresis" unicode="&#x3aa;" horiz-adv-x="466" 
d="M160 1462h149v-1462h-149v1462zM0 1593v209h141v-209h-141zM326 1593v209h141v-209h-141z" />
    <glyph glyph-name="Upsilondieresis" unicode="&#x3ab;" horiz-adv-x="1193" 
d="M207 1462q333 -592 405 -723h4q73 132 210 376t194 347h172l-504 -864v-598h-151v598l-502 864h172zM362 1593v209h142v-209h-142zM688 1593v209h141v-209h-141z" />
    <glyph glyph-name="alphatonos" unicode="&#x3ac;" horiz-adv-x="1277" 
d="M551 -18q-120 0 -213 42.5t-151 117.5t-87.5 172.5t-29.5 211.5t30 213.5t87.5 175.5t148.5 120t205 44q147 0 236.5 -58.5t131.5 -148.5h4v187h144v-803q0 -70 27.5 -101.5t95.5 -31.5q25 0 45 2v-127q-54 -4 -80 -4q-115 0 -168 47t-62 143q-43 -89 -132.5 -145.5
t-231.5 -56.5zM213 526q0 -183 93.5 -300t260.5 -117q174 0 269.5 110.5t95.5 306.5q0 199 -95.5 311.5t-269.5 112.5q-167 0 -260.5 -118.5t-93.5 -305.5zM432 1194l137 268h158l-188 -268h-107z" />
    <glyph glyph-name="epsilontonos" unicode="&#x3ad;" horiz-adv-x="1056" 
d="M508 -18q-200 0 -314 81.5t-114 221.5q0 203 248 266v2q-104 28 -160.5 92.5t-56.5 163.5q0 124 106.5 195t282.5 71q188 0 316 -87t155 -253h-135q-20 106 -107.5 162.5t-218.5 56.5q-111 0 -185.5 -45.5t-74.5 -120.5q0 -84 71 -135t199 -51h139l-2 -113h-141
q-139 0 -216 -53t-77 -143q0 -88 78.5 -141.5t214.5 -53.5q155 0 244 60.5t108 150.5h140q-28 -147 -154 -237t-346 -90zM416 1194l137 268h158l-189 -268h-106z" />
    <glyph glyph-name="etatonos" unicode="&#x3ae;" horiz-adv-x="1120" 
d="M846 -410v1074q0 292 -254 292q-63 0 -117 -23t-99 -70.5t-71 -130.5t-26 -193v-539h-144v1059h144v-201q100 219 327 219q184 0 283.5 -104.5t99.5 -298.5v-1084h-143zM455 1194l137 268h158l-189 -268h-106z" />
    <glyph glyph-name="iotatonos" unicode="&#x3af;" horiz-adv-x="487" 
d="M356 -4q-131 0 -181 62.5t-50 195.5v805h143v-799q0 -71 27 -103t94 -32q27 0 47 2v-127q-54 -4 -80 -4zM111 1194l137 268h158l-189 -268h-106z" />
    <glyph glyph-name="upsilondieresistonos" unicode="&#x3b0;" horiz-adv-x="1107" 
d="M555 -16q-211 0 -319.5 108.5t-108.5 325.5v641h143v-619q0 -152 70.5 -239.5t214.5 -87.5t214.5 87.5t70.5 239.5v619h143v-641q0 -216 -109.5 -325t-318.5 -109zM256 1264v198h137v-198h-137zM451 1214l69 310h158l-121 -310h-106zM713 1264v198h137v-198h-137z" />
    <glyph glyph-name="alpha" unicode="&#x3b1;" horiz-adv-x="1275" 
d="M551 -18q-120 0 -213 42.5t-151 117.5t-87.5 172.5t-29.5 211.5t30 213.5t87.5 175.5t148.5 120t205 44q147 0 236.5 -58.5t131.5 -148.5h4v187h144v-803q0 -70 27.5 -101.5t95.5 -31.5q25 0 45 2v-127q-54 -4 -80 -4q-115 0 -168 47t-62 143q-43 -89 -132.5 -145.5
t-231.5 -56.5zM213 526q0 -183 93.5 -300t260.5 -117q174 0 269.5 110.5t95.5 306.5q0 199 -95.5 311.5t-269.5 112.5q-167 0 -260.5 -118.5t-93.5 -305.5z" />
    <glyph glyph-name="beta" unicode="&#x3b2;" horiz-adv-x="1144" 
d="M125 1004q0 239 126 361t331 122q188 0 309 -96.5t121 -266.5q0 -126 -77 -210t-198 -119v-2q160 -31 255 -136t95 -260q0 -194 -114 -305.5t-307 -111.5q-274 0 -396 202h-2v-588h-143v1410zM268 498q11 -181 105.5 -283t267.5 -102q136 0 218.5 83t82.5 220
q0 97 -53 167.5t-131 103t-168 32.5h-96v119q172 5 273 74.5t101 199.5q0 116 -79.5 181t-206.5 65q-140 0 -227 -82.5t-87 -243.5v-534z" />
    <glyph glyph-name="gamma" unicode="&#x3b3;" horiz-adv-x="1093" 
d="M473 -8q-105 244 -442 1067h147q186 -456 367 -887h2q57 130 118 279.5t132.5 329t111.5 278.5h154q-47 -112 -134.5 -323.5t-163.5 -392t-149 -347.5l-2 -408h-143z" />
    <glyph glyph-name="delta" unicode="&#x3b4;" horiz-adv-x="1103" 
d="M551 -16q-219 0 -350 138t-131 351q0 184 97 304.5t253 158.5v4q-238 100 -238 272q0 37 8.5 69.5t31 65.5t57.5 58t93 44t133.5 26.5t182 3t234.5 -24.5v-121q-125 20 -224 25t-163 -3.5t-108.5 -23.5t-67 -38.5t-31.5 -45.5t-9 -47q0 -145 369 -237q112 -27 192.5 -103
t118 -173.5t37.5 -207.5q0 -217 -133.5 -356t-351.5 -139zM215 479q0 -160 92.5 -264t243.5 -104t243.5 104t92.5 264q0 164 -92 269.5t-244 105.5t-244 -105.5t-92 -269.5z" />
    <glyph glyph-name="epsilon" unicode="&#x3b5;" horiz-adv-x="1056" 
d="M508 -18q-200 0 -314 81.5t-114 221.5q0 203 248 266v2q-104 28 -160.5 92.5t-56.5 163.5q0 124 106.5 195t282.5 71q188 0 316 -87t155 -253h-135q-20 106 -107.5 162.5t-218.5 56.5q-111 0 -185.5 -45.5t-74.5 -120.5q0 -84 71 -135t199 -51h139l-2 -113h-141
q-139 0 -216 -53t-77 -143q0 -88 78.5 -141.5t214.5 -53.5q155 0 244 60.5t108 150.5h140q-28 -147 -154 -237t-346 -90z" />
    <glyph glyph-name="zeta" unicode="&#x3b6;" horiz-adv-x="931" 
d="M723 -322q14 83 4 142t-70.5 99t-183.5 63q-70 14 -124.5 30.5t-110.5 47t-92.5 70t-59.5 101t-23 138.5q0 55 16.5 115.5t40 114t68.5 121t82 116.5t102 123.5t106 119.5t117 126.5t114 123.5h-639v133h827v-121q-55 -61 -150 -162t-160 -170t-143.5 -162t-126.5 -164.5
t-81 -151t-33 -144.5q0 -42 11 -77t27 -60.5t45 -47t56 -35.5t69 -27.5t73.5 -21t80.5 -18.5q113 -22 182 -60.5t96.5 -91t32.5 -120.5t-10 -150h-143z" />
    <glyph glyph-name="eta" unicode="&#x3b7;" horiz-adv-x="1114" 
d="M846 -410v1074q0 292 -254 292q-63 0 -117 -23t-99 -70.5t-71 -130.5t-26 -193v-539h-144v1059h144v-201q100 219 327 219q184 0 283.5 -104.5t99.5 -298.5v-1084h-143z" />
    <glyph glyph-name="theta" unicode="&#x3b8;" horiz-adv-x="1265" 
d="M633 -16q-246 0 -394.5 204.5t-148.5 544.5t148.5 546t394.5 206q245 0 395 -206.5t150 -545.5t-150 -544t-395 -205zM236 672q12 -254 120.5 -407.5t276.5 -153.5t276.5 153.5t120.5 407.5h-794zM236 793h794q-12 257 -119.5 412t-277.5 155t-277.5 -155t-119.5 -412z
" />
    <glyph glyph-name="iota" unicode="&#x3b9;" horiz-adv-x="489" 
d="M356 -4q-131 0 -181 62.5t-50 195.5v805h143v-799q0 -71 27 -103t94 -32q27 0 47 2v-127q-54 -4 -80 -4z" />
    <glyph glyph-name="kappa" unicode="&#x3ba;" horiz-adv-x="1032" 
d="M268 0h-143v1059h143v-516l557 516h183l-504 -479l502 -580h-179l-428 481l-131 -121v-360z" />
    <glyph glyph-name="lambda" unicode="&#x3bb;" horiz-adv-x="1021" 
d="M20 0q43 108 418 1063l-53 123q-36 83 -71.5 117t-114.5 34h-86v127h84q67 0 116.5 -13.5t80.5 -33.5t56.5 -59t41 -73t37.5 -93q7 -18 10 -27q464 -1162 465 -1165h-148l-346 872h-2l-342 -872h-146z" />
    <glyph glyph-name="uni03BC" unicode="&#x3bc;" horiz-adv-x="1120" 
d="M127 -410v1469h143v-664q0 -159 66 -226t188 -67q62 0 116 23t99.5 70.5t72 131t26.5 193.5v539h143v-1059h-143v205q-98 -223 -328 -223q-164 0 -240 94v-486h-143z" />
    <glyph glyph-name="nu" unicode="&#x3bd;" horiz-adv-x="1009" 
d="M168 1059q38 -100 156.5 -405t181.5 -476h4q54 145 336 881h143q-192 -502 -407 -1059h-154q-127 325 -408 1059h148z" />
    <glyph glyph-name="xi" unicode="&#x3be;" horiz-adv-x="921" 
d="M803 -322q15 82 0.5 138t-79 93.5t-202.5 67.5q-83 19 -144 38t-121.5 49.5t-99 67.5t-62 91t-23.5 121q0 159 122.5 257.5t327.5 125.5v2q-192 28 -300.5 108.5t-108.5 194.5q0 219 303 303l-316 -6v133h818v-73l2 -52q-326 -19 -497 -98t-171 -205q0 -107 139.5 -172
t390.5 -71v-129q-168 0 -294.5 -32t-201.5 -100.5t-75 -167.5q0 -35 10.5 -64.5t27 -51.5t46.5 -41.5t58 -33t72.5 -28t80 -23.5t90.5 -22q169 -40 250.5 -96t96 -135t-2.5 -189h-137z" />
    <glyph glyph-name="omicron" unicode="&#x3bf;" horiz-adv-x="1183" 
d="M592 -16q-155 0 -275 71.5t-183.5 195t-63.5 277.5t63.5 278t183.5 196.5t275 72.5q154 0 274.5 -72t185 -196.5t64.5 -278.5q0 -235 -145.5 -389.5t-378.5 -154.5zM215 528q0 -180 104.5 -299.5t272.5 -119.5t273.5 119.5t105.5 299.5q0 181 -105.5 301.5t-273.5 120.5
t-272.5 -120.5t-104.5 -301.5z" />
    <glyph glyph-name="pi" unicode="&#x3c0;" horiz-adv-x="1288" 
d="M252 0v938h-195v121h1176v-121h-209v-678q0 -71 27 -103t94 -32q27 0 47 2v-127q-54 -4 -80 -4q-131 0 -181 62.5t-50 195.5v684h-486v-938h-143z" />
    <glyph glyph-name="rho" unicode="&#x3c1;" horiz-adv-x="1177" 
d="M629 -16q-149 0 -240 60t-133 155h-2v-609h-139v947q2 154 59 274.5t170.5 192t267.5 71.5q153 0 267 -72.5t172.5 -196t58.5 -278.5q0 -111 -31.5 -209t-91 -173t-152 -118.5t-206.5 -43.5zM246 528q0 -50 6 -94l2 -2v-10q25 -148 115.5 -229.5t236.5 -81.5
q169 0 266 117.5t97 299.5q0 184 -97 303t-266 119q-167 0 -263.5 -119t-96.5 -303z" />
    <glyph glyph-name="uni03C2" unicode="&#x3c2;" horiz-adv-x="1134" 
d="M74 543q-2 233 136.5 382.5t369.5 149.5q179 0 309 -93t176 -271h-141q-40 119 -130 179t-210 60q-164 0 -266.5 -111.5t-102.5 -277.5q0 -91 27.5 -161.5t82 -120t121.5 -83.5t160 -63q146 -44 223 -98.5t106 -139t11 -217.5h-139q22 146 -31 214.5t-235 123.5
q-106 32 -185 72t-145.5 101t-101.5 150t-35 204z" />
    <glyph glyph-name="sigma" unicode="&#x3c3;" horiz-adv-x="1193" 
d="M592 -16q-238 0 -380 153.5t-142 390.5q0 155 63.5 278.5t185.5 196t281 72.5h4q44 -1 533 -12v-123l-258 6q110 -59 171.5 -174.5t61.5 -253.5q0 -106 -35 -202t-99 -170t-164 -118t-222 -44zM215 528q0 -180 104.5 -298.5t272.5 -118.5q167 0 271 118.5t104 298.5
q0 177 -101.5 297.5t-263.5 124.5h-10q-168 0 -272.5 -120.5t-104.5 -301.5z" />
    <glyph glyph-name="tau" unicode="&#x3c4;" horiz-adv-x="964" 
d="M37 938v121h891v-121h-408v-678q0 -72 29.5 -103.5t109.5 -31.5q31 0 60 2v-127q-33 -4 -94 -4q-142 0 -195 62t-53 196v684h-340z" />
    <glyph glyph-name="upsilon" unicode="&#x3c5;" horiz-adv-x="1110" 
d="M555 -16q-211 0 -319.5 108.5t-108.5 325.5v641h143v-619q0 -152 70.5 -239.5t214.5 -87.5t214.5 87.5t70.5 239.5v619h143v-641q0 -216 -109.5 -325t-318.5 -109z" />
    <glyph glyph-name="phi" unicode="&#x3c6;" horiz-adv-x="1507" 
d="M670 1462h143v-387q154 -2 276 -46.5t197.5 -120t114.5 -172t39 -208.5t-39 -208t-114.5 -171t-197 -119t-276.5 -46v-394h-143v394q-148 3 -264.5 47t-188.5 118.5t-109.5 170.5t-37.5 208q0 111 37.5 207.5t109.5 172t188.5 120t264.5 47.5v387zM215 528
q0 -180 118 -295.5t337 -121.5v839q-218 -6 -336.5 -123t-118.5 -299zM813 111q230 4 355.5 120t125.5 297q0 184 -125.5 301t-355.5 121v-839z" />
    <glyph glyph-name="chi" unicode="&#x3c7;" horiz-adv-x="1126" 
d="M33 -410l446 748l-432 721h158l358 -594l357 594h157l-432 -719l447 -750h-156l-373 623l-373 -623h-157z" />
    <glyph glyph-name="psi" unicode="&#x3c8;" horiz-adv-x="1576" 
d="M719 1462h143v-1349q208 6 327.5 121t119.5 311v514h143v-535q0 -246 -157 -389t-433 -151v-394h-143v394q-278 6 -435 150t-157 390v535h143v-514q0 -197 118 -311.5t331 -120.5v1349z" />
    <glyph glyph-name="omega" unicode="&#x3c9;" horiz-adv-x="1683" 
d="M496 -18q-191 0 -298.5 131t-107.5 379q0 108 26 207t76 180.5t130.5 136t181.5 67.5v-133q-86 -15 -148.5 -83.5t-92.5 -165t-30 -207.5q-1 -180 72.5 -282.5t200.5 -102.5t202.5 120t75.5 318v196h115v-196q0 -198 76.5 -318t204.5 -120q125 0 198.5 102.5t73.5 282.5
q0 111 -30 207t-92.5 164.5t-147.5 84.5v133q133 -19 228.5 -107.5t140 -213t44.5 -270.5q0 -248 -107 -379t-298 -131q-141 0 -232.5 86.5t-113.5 234.5h-2q-22 -148 -114 -234.5t-232 -86.5z" />
    <glyph glyph-name="iotadieresis" unicode="&#x3ca;" horiz-adv-x="487" 
d="M356 -4q-131 0 -181 62.5t-50 195.5v805h143v-799q0 -71 27 -103t94 -32q27 0 47 2v-127q-54 -4 -80 -4zM-27 1264v198h138v-198h-138zM281 1264v198h137v-198h-137z" />
    <glyph glyph-name="upsilondieresis" unicode="&#x3cb;" horiz-adv-x="1107" 
d="M555 -16q-211 0 -319.5 108.5t-108.5 325.5v641h143v-619q0 -152 70.5 -239.5t214.5 -87.5t214.5 87.5t70.5 239.5v619h143v-641q0 -216 -109.5 -325t-318.5 -109zM332 1264v198h137v-198h-137zM639 1264v198h137v-198h-137z" />
    <glyph glyph-name="omicrontonos" unicode="&#x3cc;" horiz-adv-x="1183" 
d="M592 -16q-155 0 -275 71.5t-183.5 195t-63.5 277.5t63.5 278t183.5 196.5t275 72.5q154 0 274.5 -72t185 -196.5t64.5 -278.5q0 -235 -145.5 -389.5t-378.5 -154.5zM215 528q0 -180 104.5 -299.5t272.5 -119.5t273.5 119.5t105.5 299.5q0 181 -105.5 301.5t-273.5 120.5
t-272.5 -120.5t-104.5 -301.5zM508 1194l137 268h158l-189 -268h-106z" />
    <glyph glyph-name="upsilontonos" unicode="&#x3cd;" horiz-adv-x="1107" 
d="M555 -16q-211 0 -319.5 108.5t-108.5 325.5v641h143v-619q0 -152 70.5 -239.5t214.5 -87.5t214.5 87.5t70.5 239.5v619h143v-641q0 -216 -109.5 -325t-318.5 -109zM467 1194l137 268h158l-189 -268h-106z" />
    <glyph glyph-name="omegatonos" unicode="&#x3ce;" horiz-adv-x="1683" 
d="M496 -18q-191 0 -298.5 131t-107.5 379q0 108 26 207t76 180.5t130.5 136t181.5 67.5v-133q-86 -15 -148.5 -83.5t-92.5 -165t-30 -207.5q-1 -180 72.5 -282.5t200.5 -102.5t202.5 120t75.5 318v196h115v-196q0 -198 76.5 -318t204.5 -120q125 0 198.5 102.5t73.5 282.5
q0 111 -30 207t-92.5 164.5t-147.5 84.5v133q133 -19 228.5 -107.5t140 -213t44.5 -270.5q0 -248 -107 -379t-298 -131q-141 0 -232.5 86.5t-113.5 234.5h-2q-22 -148 -114 -234.5t-232 -86.5zM758 1194l137 268h158l-189 -268h-106z" />
    <glyph glyph-name="uni03CF" unicode="&#x3cf;" horiz-adv-x="1056" 
d="M131 0v188h-190v121h190v969h143v-518l557 518h183l-508 -475l489 -494v-121h-721v-188h-143zM274 309h539l-401 406l-138 -121v-285z" />
    <glyph glyph-name="uni03D7" unicode="&#x3d7;" horiz-adv-x="1093" 
d="M279 0h-144v1059h144v-516l557 516h182l-514 -490l358 -393l131 131l92 -106l-626 -611l-180 2l485 486l-365 393l-120 -111v-360z" />
    <glyph glyph-name="uni0400" unicode="&#x400;" horiz-adv-x="1179" 
d="M1049 1462v-127h-740v-526h697v-127h-697v-555h746v-127h-895v1462h889zM287 1802h213l260 -209h-156z" />
    <glyph glyph-name="uni0401" unicode="&#x401;" horiz-adv-x="1179" 
d="M1049 1462v-127h-740v-526h697v-127h-697v-555h746v-127h-895v1462h889zM385 1593v209h141v-209h-141zM711 1593v209h141v-209h-141z" />
    <glyph glyph-name="uni0402" unicode="&#x402;" horiz-adv-x="1503" 
d="M924 879q506 0 506 -443q1 -210 -120.5 -328t-303.5 -118q-103 0 -232 39l19 127q100 -39 194 -39q134 0 213.5 90t79.5 229q0 155 -94 235.5t-281 80.5q-175 0 -332 -41v-711h-151v1335h-399v127h1073v-127h-523v-501q196 45 351 45z" />
    <glyph glyph-name="uni0403" unicode="&#x403;" horiz-adv-x="1042" 
d="M160 0v1462h837v-127h-688v-1335h-149zM457 1593l260 209h213l-318 -209h-155z" />
    <glyph glyph-name="uni0404" unicode="&#x404;" horiz-adv-x="1570" 
d="M1466 418q-50 -193 -219 -317t-424 -124q-173 0 -314.5 59.5t-234 162.5t-142.5 239.5t-50 292.5q0 155 50 291.5t142.5 239t234 162t314.5 59.5q251 0 410 -117t229 -319h-151q-126 311 -488 311q-133 0 -241 -44.5t-179 -121.5t-113.5 -174t-53.5 -209h710v-127h-713
q7 -117 47.5 -219.5t111.5 -183.5t182 -128t249 -47q191 0 316.5 86t173.5 228h153z" />
    <glyph glyph-name="uni0405" unicode="&#x405;" horiz-adv-x="1255" 
d="M254 444q10 -166 120.5 -255t274.5 -89q71 0 131.5 15.5t110 47t78 86.5t28.5 128q0 41 -10 74.5t-23.5 58t-41.5 47t-51.5 36t-66.5 30t-72 25.5t-83 24q-71 21 -117.5 37t-103 38.5t-92.5 44.5t-73 53t-57.5 65.5t-34 80t-13.5 99.5q-2 127 64 219.5t171.5 136
t235.5 43.5q210 0 342.5 -107t152.5 -317h-151q-20 149 -108 223t-236 74q-140 0 -231 -67t-91 -195q0 -61 22.5 -106t74 -79t114 -58.5t162.5 -53.5q184 -53 257 -89q158 -78 197 -218q15 -52 15 -115q0 -86 -28 -156t-75 -116t-112 -77.5t-136 -45t-149 -13.5
q-110 0 -205 28t-171 84t-121.5 148t-49.5 211h152z" />
    <glyph glyph-name="uni0406" unicode="&#x406;" horiz-adv-x="468" 
d="M160 1462h149v-1462h-149v1462z" />
    <glyph glyph-name="uni0407" unicode="&#x407;" horiz-adv-x="468" 
d="M160 1462h149v-1462h-149v1462zM0 1593v209h141v-209h-141zM326 1593v209h141v-209h-141z" />
    <glyph glyph-name="uni0408" unicode="&#x408;" horiz-adv-x="991" 
d="M217 354q3 -122 66.5 -189t175.5 -67q118 0 174.5 78.5t56.5 210.5v1075h150v-1073q0 -195 -98 -305.5t-283 -110.5q-171 0 -278.5 102.5t-108.5 280.5l-2 68h145z" />
    <glyph glyph-name="uni0409" unicode="&#x409;" horiz-adv-x="2013" 
d="M1446 127q174 0 268 78.5t94 228.5q0 139 -88.5 218t-257.5 79h-264v-604h248zM31 -8v127h12q76 0 121 45q33 29 57.5 84.5t35.5 100t26 120.5q8 40 15.5 81t13.5 92.5t10.5 88.5t10 105t8.5 103t8 120t7 120t7.5 139.5t7.5 143.5h827v-606h285q208 0 342.5 -116
t134.5 -306q0 -195 -138.5 -314.5t-355.5 -119.5h-419v1335h-537q-17 -283 -25.5 -401t-25.5 -266.5t-41 -264.5q-27 -119 -62.5 -203.5t-93.5 -136.5q-80 -71 -194 -71h-37z" />
    <glyph glyph-name="uni040A" unicode="&#x40a;" horiz-adv-x="1988" 
d="M309 0h-149v1462h149v-633h721v633h152v-633h274q215 0 347 -112t132 -299t-129.5 -302.5t-335.5 -115.5h-440v705h-721v-705zM1182 127h268q167 0 251.5 78t84.5 213q0 141 -89 214t-261 73h-254v-578z" />
    <glyph glyph-name="uni040B" unicode="&#x40b;" horiz-adv-x="1521" 
d="M924 879q264 0 385 -116.5t121 -334.5v-428h-150v412q0 340 -383 340q-167 0 -324 -41v-711h-151v1335h-399v127h1073v-127h-523v-501q196 45 351 45z" />
    <glyph glyph-name="uni040C" unicode="&#x40c;" horiz-adv-x="1288" 
d="M1065 0l-580 682h-176v-682h-149v1462h149v-653h174l531 653h184l-590 -708l639 -754h-182zM508 1593l260 209h213l-317 -209h-156z" />
    <glyph glyph-name="uni040D" unicode="&#x40d;" horiz-adv-x="1443" 
d="M1284 1462v-1462h-149v958q0 47 1 142.5t1 142.5q-24 -36 -50.5 -78t-58.5 -92.5t-49 -77.5l-653 -995h-166v1462h149v-958q0 -47 -1 -142.5t-1 -142.5q24 36 50.5 78t58.5 92.5t49 77.5l653 995h166zM389 1802h213l260 -209h-155z" />
    <glyph glyph-name="uni040E" unicode="&#x40e;" horiz-adv-x="1222" 
d="M219 0v127h64q89 0 131 40.5t114 186.5l31 60l-524 1048h166l434 -893l409 893h164l-549 -1171q-57 -121 -107.5 -183t-108 -85t-148.5 -23h-76zM295 1806h115q3 -72 53.5 -115.5t128.5 -43.5q79 0 129 43.5t53 115.5h117q-9 -114 -90.5 -182t-208.5 -68t-207.5 68
t-89.5 182z" />
    <glyph glyph-name="uni040F" unicode="&#x40f;" horiz-adv-x="1388" 
d="M621 -326v326h-461v1462h149v-1335h770v1335h150v-1462h-465v-326h-143z" />
    <glyph glyph-name="uni0410" unicode="&#x410;" horiz-adv-x="1374" 
d="M197 0h-156l547 1462h198l547 -1462h-155l-170 453h-641zM412 575h551l-273 754h-6z" />
    <glyph glyph-name="uni0411" unicode="&#x411;" horiz-adv-x="1157" 
d="M160 1462h846v-127h-697v-491h303q220 0 353 -108t133 -306q0 -195 -132 -312.5t-341 -117.5h-465v1462zM309 127h291q163 0 255.5 81.5t92.5 217.5q0 293 -360 293h-279v-592z" />
    <glyph glyph-name="uni0412" unicode="&#x412;" horiz-adv-x="1265" 
d="M160 0v1462h499q195 0 318 -101.5t123 -285.5q0 -117 -68 -199t-182 -122v-2q136 -18 223.5 -109.5t87.5 -239.5q0 -192 -132.5 -297.5t-358.5 -105.5h-510zM309 127h373q151 0 239.5 75t88.5 201q0 132 -86.5 206.5t-235.5 74.5h-379v-557zM309 809h314q155 0 240 68.5
t85 197.5q0 260 -317 260h-322v-526z" />
    <glyph glyph-name="uni0413" unicode="&#x413;" horiz-adv-x="1042" 
d="M160 0v1462h837v-127h-688v-1335h-149z" />
    <glyph glyph-name="uni0414" unicode="&#x414;" horiz-adv-x="1470" 
d="M1260 1462v-1335h147v-496h-143v369h-1078v-369h-143v496h133q102 187 150 395q12 50 22 101t18 117t13 112t11 136t9 136.5t9.5 164.5t9.5 173h842zM330 127h778v1208h-559q-30 -467 -48 -607q-14 -117 -36 -214q-19 -85 -57.5 -196.5t-77.5 -190.5z" />
    <glyph glyph-name="uni0415" unicode="&#x415;" horiz-adv-x="1179" 
d="M1049 1462v-127h-740v-526h697v-127h-697v-555h746v-127h-895v1462h889z" />
    <glyph glyph-name="uni0416" unicode="&#x416;" horiz-adv-x="1875" 
d="M1655 0l-512 682h-129v-682h-152v682h-129l-512 -682h-178l567 756l-518 706h180l461 -653h129v653h152v-653h129l461 653h180l-518 -706l567 -756h-178z" />
    <glyph glyph-name="uni0417" unicode="&#x417;" horiz-adv-x="1280" 
d="M158 1081q9 85 42 155t90.5 124.5t147.5 84.5t205 30q219 0 342 -96t123 -263q0 -119 -65.5 -203t-178.5 -129q142 -32 229 -131t87 -250q0 -197 -134.5 -312.5t-400.5 -115.5q-505 0 -545 443h150q8 -87 42.5 -150t89.5 -98.5t120 -51.5t143 -16q174 0 278.5 78
t104.5 240q0 65 -20.5 116.5t-54.5 83.5t-81.5 53t-98 29.5t-107.5 8.5h-213v127h202q131 0 216 70t85 200q0 118 -80.5 179t-228.5 61q-149 0 -234 -68.5t-104 -198.5h-151z" />
    <glyph glyph-name="uni0418" unicode="&#x418;" horiz-adv-x="1443" 
d="M1284 1462v-1462h-149v958q0 47 1 142.5t1 142.5q-24 -36 -50.5 -78t-58.5 -92.5t-49 -77.5l-653 -995h-166v1462h149v-958q0 -47 -1 -142.5t-1 -142.5q24 36 50.5 78t58.5 92.5t49 77.5l653 995h166z" />
    <glyph glyph-name="uni0419" unicode="&#x419;" horiz-adv-x="1443" 
d="M1284 1462v-1462h-149v958q0 47 1 142.5t1 142.5q-24 -36 -50.5 -78t-58.5 -92.5t-49 -77.5l-653 -995h-166v1462h149v-958q0 -47 -1 -142.5t-1 -142.5q24 36 50.5 78t58.5 92.5t49 77.5l653 995h166zM426 1806h115q3 -72 53.5 -115.5t128.5 -43.5q79 0 129 43.5
t53 115.5h117q-9 -114 -90.5 -182t-208.5 -68t-207.5 68t-89.5 182z" />
    <glyph glyph-name="uni041A" unicode="&#x41a;" horiz-adv-x="1288" 
d="M1065 0l-580 682h-176v-682h-149v1462h149v-653h174l531 653h184l-590 -708l639 -754h-182z" />
    <glyph glyph-name="uni041B" unicode="&#x41b;" horiz-adv-x="1396" 
d="M31 -8v127h12q78 0 123 45q30 27 53 76.5t34 92.5t25 111q1 8 2.5 13.5t2.5 11.5q8 40 15.5 81t13.5 92.5t10.5 88.5t10 105t8.5 103t8 120t7 120t7.5 139.5t7.5 143.5h868v-1464h-152v1337h-577q-31 -513 -49 -665q-16 -146 -43 -267q-27 -119 -62.5 -203.5
t-93.5 -136.5q-80 -71 -194 -71h-37z" />
    <glyph glyph-name="uni041C" unicode="&#x41c;" horiz-adv-x="1722" 
d="M160 0v1462l246 -2l456 -1280h2l453 1282h246v-1462h-150v1284h-4l-461 -1284h-172l-463 1284h-4v-1284h-149z" />
    <glyph glyph-name="uni041D" unicode="&#x41d;" horiz-adv-x="1380" 
d="M1071 1462h152v-1462h-152v676h-762v-676h-149v1462h149v-659h762v659z" />
    <glyph glyph-name="uni041E" unicode="&#x41e;" horiz-adv-x="1660" 
d="M829 1491q171 0 314 -61t237.5 -165t146.5 -241.5t52 -292.5t-52 -293t-146.5 -242t-237.5 -164.5t-314 -60.5t-313 60.5t-236 164.5t-146 242t-52 293t52 292.5t146 241.5t236 165t313 61zM231 731q0 -96 24 -187.5t73.5 -173t119 -142.5t168 -96.5t213.5 -35.5
q116 0 215 35.5t168.5 96.5t118.5 142.5t72.5 173t23.5 187.5t-23.5 187t-72.5 172t-118.5 142t-168.5 96.5t-215 35.5q-115 0 -213.5 -35.5t-168 -96.5t-119 -142t-73.5 -172t-24 -187z" />
    <glyph glyph-name="uni041F" unicode="&#x41f;" horiz-adv-x="1388" 
d="M1229 1462v-1462h-150v1335h-770v-1335h-149v1462h1069z" />
    <glyph glyph-name="uni0420" unicode="&#x420;" horiz-adv-x="1183" 
d="M592 731q174 0 268 78.5t94 228.5q0 140 -89 218.5t-259 78.5h-297v-604h283zM160 0v1462h467q210 0 344.5 -116.5t134.5 -307.5q0 -194 -139 -313t-355 -119h-303v-606h-149z" />
    <glyph glyph-name="uni0421" unicode="&#x421;" horiz-adv-x="1552" 
d="M1466 418q-50 -193 -219 -317t-424 -124q-173 0 -314.5 59.5t-234 162.5t-142.5 239.5t-50 292.5q0 155 50 291.5t142.5 239t234 162t314.5 59.5q251 0 410 -117t229 -319h-151q-126 311 -488 311q-144 0 -259 -52.5t-186.5 -141t-109 -199.5t-37.5 -234q0 -124 37 -235
t108.5 -199.5t186.5 -140.5t260 -52q191 0 316.5 86t173.5 228h153z" />
    <glyph glyph-name="uni0422" unicode="&#x422;" horiz-adv-x="1148" 
d="M37 1335v127h1073v-127h-461v-1335h-151v1335h-461z" />
    <glyph glyph-name="uni0423" unicode="&#x423;" horiz-adv-x="1222" 
d="M219 0v127h64q89 0 131 40.5t114 186.5l31 60l-524 1048h166l434 -893l409 893h164l-549 -1171q-57 -121 -107.5 -183t-108 -85t-148.5 -23h-76z" />
    <glyph glyph-name="uni0424" unicode="&#x424;" horiz-adv-x="1613" 
d="M731 0v158q-300 14 -482.5 174.5t-182.5 427.5q0 269 182.5 430.5t482.5 175.5v158h152v-158q197 -9 346 -83t233 -209t84 -314q0 -267 -181.5 -427.5t-481.5 -174.5v-158h-152zM217 760q0 -210 137.5 -338.5t376.5 -140.5v964q-238 -12 -376 -143t-138 -342zM883 281
q239 12 376.5 140.5t137.5 338.5q0 211 -138 342t-376 143v-964z" />
    <glyph glyph-name="uni0425" unicode="&#x425;" horiz-adv-x="1263" 
d="M25 0l516 752l-496 710h184l400 -585l413 585h175l-502 -712l524 -750h-188l-422 625l-428 -625h-176z" />
    <glyph glyph-name="uni0426" unicode="&#x426;" horiz-adv-x="1441" 
d="M160 0v1462h149v-1335h770v1335h150v-1335h149v-494h-143v367h-1075z" />
    <glyph glyph-name="uni0427" unicode="&#x427;" horiz-adv-x="1259" 
d="M598 569q-506 0 -506 451v442h152v-426q0 -340 383 -340q170 0 323 43v723h152v-1462h-152v614q-196 -45 -352 -45z" />
    <glyph glyph-name="uni0428" unicode="&#x428;" horiz-adv-x="1966" 
d="M160 0v1462h149v-1335h598v1335h152v-1335h598v1335h151v-1462h-1648z" />
    <glyph glyph-name="uni0429" unicode="&#x429;" horiz-adv-x="2019" 
d="M160 0v1462h149v-1335h598v1335h152v-1335h598v1335h151v-1335h148v-494h-144v367h-1652z" />
    <glyph glyph-name="uni042A" unicode="&#x42a;" horiz-adv-x="1413" 
d="M37 1335v127h559v-606h285q210 0 344.5 -116t134.5 -306q0 -194 -139 -314t-355 -120h-420v1335h-409zM596 127h250q173 0 267.5 78.5t94.5 228.5q0 139 -89 218t-259 79h-264v-604z" />
    <glyph glyph-name="uni042B" unicode="&#x42b;" horiz-adv-x="1540" 
d="M1231 1462h151v-1462h-151v1462zM160 0v1462h149v-606h285q210 0 344.5 -116t134.5 -306q0 -195 -138.5 -314.5t-354.5 -119.5h-420zM309 127h250q173 0 268 79t95 228q0 139 -89.5 218t-259.5 79h-264v-604z" />
    <glyph glyph-name="uni042C" unicode="&#x42c;" horiz-adv-x="1159" 
d="M160 0v1462h149v-606h318q210 0 344.5 -116t134.5 -306q0 -194 -139 -314t-355 -120h-452zM309 127h283q174 0 268 78.5t94 228.5q0 139 -89 218t-259 79h-297v-604z" />
    <glyph glyph-name="uni042D" unicode="&#x42d;" horiz-adv-x="1570" 
d="M258 418q48 -142 173.5 -228t316.5 -86q111 0 205 31t161.5 84.5t116.5 127t75 158t31 177.5h-712v127h710q-11 112 -53.5 209t-113.5 174t-179 121.5t-241 44.5q-362 0 -488 -311h-151q70 202 229 319t410 117q173 0 314.5 -59.5t234 -162t142.5 -239t50 -291.5
q0 -156 -50 -292.5t-142.5 -239.5t-234 -162.5t-314.5 -59.5q-255 0 -424.5 124.5t-219.5 316.5h154z" />
    <glyph glyph-name="uni042E" unicode="&#x42e;" horiz-adv-x="1994" 
d="M309 0h-149v1462h149v-653h197q12 141 65 264t141 214.5t216 144.5t280 53q162 0 296.5 -60t223 -163.5t137 -240.5t48.5 -292t-48.5 -291.5t-137 -239.5t-223 -163t-296.5 -60q-157 0 -287.5 55.5t-219 151.5t-139.5 224.5t-58 275.5h-195v-682zM653 729
q0 -95 21.5 -185.5t67 -170.5t109.5 -140.5t156 -95.5t201 -35t201 35t156 95.5t109.5 140.5t67 170.5t21.5 185.5q0 96 -21.5 186.5t-67 171t-109.5 141t-156 95.5t-201 35t-201 -35t-156 -95.5t-109.5 -141t-67 -171t-21.5 -186.5z" />
    <glyph glyph-name="uni042F" unicode="&#x42f;" horiz-adv-x="1296" 
d="M1137 0h-150v623h-311q-56 0 -99.5 -13t-73 -34t-55 -58t-41.5 -72t-36 -90q-13 -35 -38 -112.5t-46.5 -137t-44.5 -106.5h-162v14q39 69 65.5 136t61.5 178q51 170 101.5 246.5t146.5 99.5q-139 34 -225.5 133.5t-86.5 251.5q0 85 29.5 157t87.5 127.5t152.5 87
t216.5 31.5h508v-1462zM297 1059q0 -144 84.5 -226.5t247.5 -82.5h358v585h-344q-97 0 -166.5 -22.5t-107.5 -62.5t-55 -87t-17 -104z" />
    <glyph glyph-name="uni0430" unicode="&#x430;" horiz-adv-x="1097" 
d="M139 743q11 61 41 118t79.5 106.5t127 79.5t170.5 30q99 0 174.5 -23.5t119 -59.5t71 -87.5t36.5 -99.5t9 -102v-488q0 -111 18 -217h-154q-6 55 -6 162v47h-2q-16 -39 -39.5 -74t-65 -72.5t-109 -60t-152.5 -22.5q-180 0 -277.5 90.5t-97.5 218.5q0 59 18 106.5t65.5 81
t78.5 54.5t108.5 40t101 24t108.5 19q6 1 9 2q134 22 194 55.5t60 100.5q0 89 -72 137.5t-194 48.5q-106 0 -178.5 -57t-97.5 -158h-144zM223 289q0 -85 69 -139t185 -54q70 0 132.5 25t112 72t78.5 123.5t29 172.5v160q-21 -53 -95.5 -90.5t-227.5 -64.5
q-138 -23 -210.5 -72t-72.5 -133z" />
    <glyph glyph-name="uni0431" unicode="&#x431;" horiz-adv-x="1161" 
d="M592 -16q-160 0 -284 80.5t-177 224.5q-45 116 -45 317q0 480 209 654q101 85 280 132.5t431 73.5v-135q-148 -17 -245.5 -33t-212 -54t-171.5 -91q-121 -115 -141 -354q60 106 161 161.5t224 55.5q214 0 342.5 -141.5t128.5 -372.5t-139.5 -374.5t-360.5 -143.5z
M229 496q0 -176 98 -283t263 -107q164 0 261 107t97 283q0 181 -92.5 289t-257.5 108q-160 0 -264.5 -110t-104.5 -287z" />
    <glyph glyph-name="uni0432" unicode="&#x432;" horiz-adv-x="1038" 
d="M135 0v1059h430q160 0 250 -68.5t90 -189.5q0 -84 -39.5 -149t-109.5 -101q98 -28 156.5 -98t58.5 -162q0 -136 -94 -213.5t-259 -77.5h-483zM279 104h331q93 0 155 51t62 134q0 87 -62 139.5t-155 52.5h-331v-377zM279 586h272q93 0 152 50t59 136q0 82 -59.5 132
t-151.5 50h-272v-368z" />
    <glyph glyph-name="uni0433" unicode="&#x433;" horiz-adv-x="847" 
d="M829 1059v-119h-550v-940h-144v1059h694z" />
    <glyph glyph-name="uni0434" unicode="&#x434;" horiz-adv-x="1218" 
d="M1044 1059v-940h134v-428h-131v309h-875v-309h-133v428h37q77 0 121 47q77 83 100 346q15 172 33 547h714zM315 119h586v821h-440q-8 -171 -21 -315q-1 -9 -4.5 -54t-5 -63t-6 -59.5t-9 -66t-11 -59t-15.5 -62t-20 -52.5q-21 -54 -54 -90z" />
    <glyph glyph-name="uni0435" unicode="&#x435;" horiz-adv-x="1134" 
d="M1047 313q-46 -156 -168 -243.5t-299 -87.5q-155 0 -272 72.5t-177.5 196t-60.5 279.5q0 152 61.5 276.5t177 197.5t264.5 73q101 0 182 -30t134.5 -80.5t90.5 -120.5t54.5 -146.5t20.5 -162.5q2 -14 2 -50h-850q11 -175 112 -281t259 -106q118 0 205 55.5t120 157.5h144
zM209 602h704q-16 170 -100.5 264.5t-239.5 94.5q-153 0 -251 -99.5t-113 -259.5z" />
    <glyph glyph-name="uni0436" unicode="&#x436;" horiz-adv-x="1435" 
d="M37 0l395 545l-389 514h162l346 -457h94v457h143v-457h99l344 457h162l-389 -514l397 -545h-164l-350 483h-99v-483h-143v483h-94l-352 -483h-162z" />
    <glyph glyph-name="uni0437" unicode="&#x437;" horiz-adv-x="970" 
d="M492 -18q-191 0 -288.5 83t-119.5 246h133q13 -110 82 -159.5t193 -49.5q119 0 193.5 55.5t74.5 147.5q0 68 -38 110.5t-90.5 57t-121.5 14.5h-156v119h160q87 0 141 50.5t54 138.5q0 77 -57.5 119t-159.5 42q-209 0 -234 -178h-135q16 137 109 218t266 81
q163 0 257.5 -72.5t94.5 -193.5q0 -188 -154 -256q207 -60 207 -252q0 -140 -109 -230.5t-302 -90.5z" />
    <glyph glyph-name="uni0438" unicode="&#x438;" horiz-adv-x="1146" 
d="M135 0v1059h144v-856l571 856h162v-1059h-144v856l-571 -856h-162z" />
    <glyph glyph-name="uni0439" unicode="&#x439;" horiz-adv-x="1146" 
d="M135 0v1059h144v-856l571 856h162v-1059h-144v856l-571 -856h-162zM276 1442h115q3 -73 53.5 -117.5t128.5 -44.5q80 0 130 44.5t53 117.5h116q-9 -115 -90 -183.5t-209 -68.5q-127 0 -207.5 68t-89.5 184z" />
    <glyph glyph-name="uni043A" unicode="&#x43a;" horiz-adv-x="976" 
d="M279 0h-144v1059h144v-459h118l381 459h168l-428 -514l434 -545h-172l-385 481h-116v-481z" />
    <glyph glyph-name="uni043B" unicode="&#x43b;" horiz-adv-x="1126" 
d="M993 1059v-1059h-143v940h-440q-8 -171 -21 -315q0 -3 -6.5 -75t-9 -91t-10.5 -82.5t-16.5 -93t-22 -75.5t-31 -76.5t-39.5 -53.5q-79 -86 -215 -86h-29v119h19q68 0 116 51q77 80 101 350q21 242 33 547h714z" />
    <glyph glyph-name="uni043C" unicode="&#x43c;" horiz-adv-x="1406" 
d="M135 0v1059h189l376 -875h7l376 875h189v-1059h-144v831h-2l-364 -831h-117l-364 831h-2v-831h-144z" />
    <glyph glyph-name="uni043D" unicode="&#x43d;" horiz-adv-x="1126" 
d="M279 1059v-465h567v465h145v-1059h-145v475h-567v-475h-144v1059h144z" />
    <glyph glyph-name="uni043E" unicode="&#x43e;" horiz-adv-x="1179" 
d="M590 -18q-157 0 -277 74.5t-181.5 197.5t-61.5 274t61.5 274.5t181.5 199t277 75.5q156 0 276 -75t182 -199t62 -275q0 -150 -62 -273.5t-181.5 -198t-276.5 -74.5zM213 528q0 -180 105.5 -303t271.5 -123t271.5 123t105.5 303q0 182 -105.5 305t-271.5 123t-271.5 -123
t-105.5 -305z" />
    <glyph glyph-name="uni043F" unicode="&#x43f;" horiz-adv-x="1126" 
d="M991 1059v-1059h-143v940h-569v-940h-144v1059h856z" />
    <glyph glyph-name="uni0440" unicode="&#x440;" horiz-adv-x="1202" 
d="M653 1077q225 0 353.5 -154t128.5 -393q0 -156 -55 -279t-166 -196t-261 -73q-138 0 -234 67t-138 168h-2v-627h-144v1469h144v-217h2q41 98 137.5 166.5t234.5 68.5zM270 530q0 -82 21.5 -156t64 -135.5t113.5 -98t162 -36.5q172 0 266 118t94 308q0 188 -95.5 307
t-264.5 119q-172 0 -266.5 -121.5t-94.5 -304.5z" />
    <glyph glyph-name="uni0441" unicode="&#x441;" horiz-adv-x="1134" 
d="M1055 309q-43 -156 -160 -241.5t-299 -85.5q-120 0 -220 42.5t-166.5 116t-103 173.5t-36.5 214q0 153 62 276.5t183 198t281 74.5q182 0 298 -87.5t153 -231.5h-146q-35 92 -111.5 147.5t-195.5 55.5q-170 0 -275.5 -123.5t-105.5 -309.5q0 -185 105 -306.5t276 -121.5
q119 0 198 54t115 155h148z" />
    <glyph glyph-name="uni0442" unicode="&#x442;" horiz-adv-x="940" 
d="M911 1059v-119h-368v-940h-144v940h-370v119h882z" />
    <glyph glyph-name="uni0443" unicode="&#x443;" horiz-adv-x="1032" 
d="M170 1059l362 -922h3q55 152 164 461.5t163 460.5h150q-215 -578 -477 -1268q-36 -100 -94.5 -150.5t-159.5 -50.5h-113v119h98q20 0 37 4.5t29.5 9.5t24.5 17.5t18.5 20t15.5 26t12 26l12 30t11 28.5l37 96l-443 1092h150z" />
    <glyph glyph-name="uni0444" unicode="&#x444;" horiz-adv-x="1433" 
d="M645 -29q-259 12 -417 159.5t-158 397.5q0 251 158 399t417 160v375h143v-375q259 -12 417.5 -160t158.5 -399q0 -250 -158.5 -397.5t-417.5 -159.5v-381h-143v381zM213 528q0 -189 115.5 -306.5t316.5 -129.5v875q-200 -12 -316 -130.5t-116 -308.5zM788 92
q200 12 316.5 129.5t116.5 306.5t-117 308t-316 131v-875z" />
    <glyph glyph-name="uni0445" unicode="&#x445;" horiz-adv-x="1024" 
d="M37 0l387 543l-367 516h174l281 -404l281 404h174l-367 -514l387 -545h-174l-301 432l-301 -432h-174z" />
    <glyph glyph-name="uni0446" unicode="&#x446;" horiz-adv-x="1165" 
d="M135 0v1059h144v-940h569v940h143v-940h135v-416h-131v297h-860z" />
    <glyph glyph-name="uni0447" unicode="&#x447;" horiz-adv-x="1007" 
d="M483 379q-217 0 -319.5 100.5t-102.5 300.5v279h144v-281q0 -146 68 -211t235 -65q114 0 223 20v537h143v-1059h-143v401q-126 -22 -248 -22z" />
    <glyph glyph-name="uni0448" unicode="&#x448;" horiz-adv-x="1632" 
d="M135 0v1059h144v-940h466v940h144v-940h467v940h143v-1059h-1364z" />
    <glyph glyph-name="uni0449" unicode="&#x449;" horiz-adv-x="1673" 
d="M135 0v1059h144v-940h466v940h144v-940h467v940h143v-940h133v-416h-131v297h-1366z" />
    <glyph glyph-name="uni044A" unicode="&#x44a;" horiz-adv-x="1214" 
d="M385 0v940h-371v119h514v-383h246q176 0 284.5 -90.5t108.5 -241.5q0 -157 -108.5 -250.5t-284.5 -93.5h-389zM528 106h226q121 0 196.5 62t75.5 174q0 109 -75.5 168t-196.5 59h-226v-463z" />
    <glyph glyph-name="uni044B" unicode="&#x44b;" horiz-adv-x="1314" 
d="M1038 0v1059h144v-1059h-144zM135 0v1059h144v-383h215q176 0 284.5 -90.5t108.5 -241.5q0 -157 -108.5 -250.5t-284.5 -93.5h-359zM279 119h194q120 0 195 58t75 165q0 103 -75 159t-195 56h-194v-438z" />
    <glyph glyph-name="uni044C" unicode="&#x44c;" horiz-adv-x="964" 
d="M135 0v1059h144v-383h245q175 0 284.5 -90.5t109.5 -241.5q0 -157 -109.5 -250.5t-284.5 -93.5h-389zM279 119h223q121 0 196.5 58t75.5 165q0 103 -75.5 159t-196.5 56h-223v-438z" />
    <glyph glyph-name="uni044D" unicode="&#x44d;" horiz-adv-x="1134" 
d="M383 477v115h535q-18 163 -120 266t-257 103q-119 0 -196 -55.5t-112 -147.5h-145q37 144 153 231.5t298 87.5q160 0 281 -74.5t183 -198t62 -276.5q0 -114 -36.5 -214t-103 -173.5t-166.5 -116t-220 -42.5q-182 0 -299 85.5t-160 241.5h147q36 -101 115.5 -155
t198.5 -54q158 0 261 105.5t118 271.5h-537z" />
    <glyph glyph-name="uni044E" unicode="&#x44e;" horiz-adv-x="1517" 
d="M279 1059v-465h176q21 211 155.5 346t339.5 135q221 0 359.5 -156t138.5 -391t-138.5 -390.5t-359.5 -155.5q-209 0 -344.5 138.5t-150.5 354.5h-176v-475h-144v1059h144zM596 528q0 -182 99.5 -304t254.5 -122t255 122t100 304t-100 304t-255 122t-254.5 -122
t-99.5 -304z" />
    <glyph glyph-name="uni044F" unicode="&#x44f;" horiz-adv-x="1052" 
d="M84 4q35 67 90 229q33 106 72 161t106 83q-101 34 -158 105t-57 168q0 143 108 226t285 83h390v-1059h-144v438h-213q-55 0 -92.5 -11t-63.5 -38t-42 -57.5t-35 -83.5q-10 -28 -27.5 -81t-33 -94t-31.5 -73h-154v4zM281 745q0 -95 75 -145.5t195 -50.5h225v399h-225
q-120 0 -195 -52.5t-75 -150.5z" />
    <glyph glyph-name="uni0450" unicode="&#x450;" horiz-adv-x="1134" 
d="M1047 313q-46 -156 -168 -243.5t-299 -87.5q-155 0 -272 72.5t-177.5 196t-60.5 279.5q0 152 61.5 276.5t177 197.5t264.5 73q101 0 182 -30t134.5 -80.5t90.5 -120.5t54.5 -146.5t20.5 -162.5q2 -14 2 -50h-850q11 -175 112 -281t259 -106q118 0 205 55.5t120 157.5h144
zM209 602h704q-16 170 -100.5 264.5t-239.5 94.5q-153 0 -251 -99.5t-113 -259.5zM309 1462h180l191 -268h-105z" />
    <glyph glyph-name="uni0451" unicode="&#x451;" horiz-adv-x="1134" 
d="M1047 313q-46 -156 -168 -243.5t-299 -87.5q-155 0 -272 72.5t-177.5 196t-60.5 279.5q0 152 61.5 276.5t177 197.5t264.5 73q101 0 182 -30t134.5 -80.5t90.5 -120.5t54.5 -146.5t20.5 -162.5q2 -14 2 -50h-850q11 -175 112 -281t259 -106q118 0 205 55.5t120 157.5h144
zM209 602h704q-16 170 -100.5 264.5t-239.5 94.5q-153 0 -251 -99.5t-113 -259.5zM348 1264v198h137v-198h-137zM655 1264v198h138v-198h-138z" />
    <glyph glyph-name="uni0452" unicode="&#x452;" horiz-adv-x="1122" 
d="M135 0v1204h-151v94h151v164h144v-164h403v-94h-403v-346q100 219 327 219q184 0 283.5 -104.5t99.5 -298.5v-813q0 -136 -55.5 -200t-196.5 -64h-84v120h72q67 0 94 34t27 108v805q0 292 -254 292q-63 0 -117 -23t-99 -70.5t-71 -130.5t-26 -193v-539h-144z" />
    <glyph glyph-name="uni0453" unicode="&#x453;" horiz-adv-x="847" 
d="M829 1059v-119h-550v-940h-144v1059h694zM399 1194l191 268h180l-266 -268h-105z" />
    <glyph glyph-name="uni0454" unicode="&#x454;" horiz-adv-x="1134" 
d="M752 477h-537q15 -166 118 -271.5t261 -105.5q119 0 198 54t115 155h148q-43 -156 -160 -241.5t-299 -85.5q-120 0 -220 42.5t-166.5 116t-103 173.5t-36.5 214q0 153 62 276.5t183 198t281 74.5q182 0 298 -87.5t153 -231.5h-146q-35 92 -111.5 147.5t-195.5 55.5
q-155 0 -257 -103t-120 -266h535v-115z" />
    <glyph glyph-name="uni0455" unicode="&#x455;" horiz-adv-x="956" 
d="M729 741q-10 111 -82 163t-172 52q-92 0 -159.5 -44t-67.5 -124q0 -126 192 -176q125 -33 144 -39q66 -17 115 -38t94.5 -53t69.5 -80t24 -109q0 -63 -25 -116t-65.5 -88t-93.5 -59t-108 -35t-110 -11q-70 0 -135.5 17.5t-125.5 54t-101.5 103t-52.5 156.5h143
q17 -105 87.5 -159t188.5 -54q108 0 181 45.5t73 139.5q0 69 -51 104.5t-147 61.5q-75 22 -148 39q-60 16 -109.5 39t-92.5 57t-67 83.5t-24 110.5q0 92 57.5 161t141.5 101.5t176 32.5q158 0 265 -84.5t128 -251.5h-143z" />
    <glyph glyph-name="uni0456" unicode="&#x456;" horiz-adv-x="423" 
d="M289 1257h-152v205h152v-205zM135 0v1059h144v-1059h-144z" />
    <glyph glyph-name="uni0457" unicode="&#x457;" horiz-adv-x="411" 
d="M135 0v1059h144v-1059h-144zM-16 1264v198h137v-198h-137zM291 1264v198h137v-198h-137z" />
    <glyph glyph-name="uni0458" unicode="&#x458;" horiz-adv-x="454" 
d="M322 1257h-154v205h154v-205zM-23 -403v118h80q65 0 92 25.5t27 91.5v1227h141v-1225q0 -237 -235 -237h-105z" />
    <glyph glyph-name="uni0459" unicode="&#x459;" horiz-adv-x="1638" 
d="M973 1059v-383h225q176 0 284.5 -90.5t108.5 -241.5q0 -157 -108.5 -250.5t-284.5 -93.5h-369v940h-419q-8 -171 -21 -315q0 -3 -6.5 -75t-9 -91t-10.5 -82.5t-16.5 -93t-22 -75.5t-31 -76.5t-39.5 -53.5q-79 -86 -215 -86h-29v119h19q68 0 116 51q77 80 101 350
q21 242 33 547h694zM973 119h203q121 0 196.5 58t75.5 165q0 103 -75.5 159t-196.5 56h-203v-438z" />
    <glyph glyph-name="uni045A" unicode="&#x45a;" horiz-adv-x="1636" 
d="M279 1059v-430h548v430h144v-430h254q170 0 267 -87t97 -227q0 -146 -96 -230.5t-268 -84.5h-398v510h-548v-510h-144v1059h144zM971 119h231q120 0 183 49t63 145q0 93 -64 145t-182 52h-231v-391z" />
    <glyph glyph-name="uni045B" unicode="&#x45b;" horiz-adv-x="1114" 
d="M135 0v1204h-151v94h151v164h144v-164h403v-94h-403v-346q100 219 327 219q184 0 283.5 -104.5t99.5 -298.5v-674h-143v664q0 292 -254 292q-63 0 -117 -23t-99 -70.5t-71 -130.5t-26 -193v-539h-144z" />
    <glyph glyph-name="uni045C" unicode="&#x45c;" horiz-adv-x="976" 
d="M279 0h-144v1059h144v-459h118l381 459h168l-428 -514l434 -545h-172l-385 481h-116v-481zM406 1194l190 268h180l-266 -268h-104z" />
    <glyph glyph-name="uni045D" unicode="&#x45d;" horiz-adv-x="1146" 
d="M135 0v1059h144v-856l571 856h162v-1059h-144v856l-571 -856h-162zM311 1462h181l190 -268h-104z" />
    <glyph glyph-name="uni045E" unicode="&#x45e;" horiz-adv-x="1032" 
d="M170 1059l362 -922h3q55 152 164 461.5t163 460.5h150q-215 -578 -477 -1268q-36 -100 -94.5 -150.5t-159.5 -50.5h-113v119h98q20 0 37 4.5t29.5 9.5t24.5 17.5t18.5 20t15.5 26t12 26l12 30t11 28.5l37 96l-443 1092h150zM215 1442h115q3 -73 53.5 -117.5t128.5 -44.5
q80 0 129.5 44.5t52.5 117.5h117q-9 -115 -90 -183.5t-209 -68.5q-127 0 -207.5 68t-89.5 184z" />
    <glyph glyph-name="uni045F" unicode="&#x45f;" horiz-adv-x="1126" 
d="M498 -297v297h-363v1059h144v-940h569v940h143v-1059h-362v-297h-131z" />
    <glyph glyph-name="uni0490" unicode="&#x490;" horiz-adv-x="1042" 
d="M309 1335v-1335h-149v1462h696v326h141v-453h-688z" />
    <glyph glyph-name="uni0491" unicode="&#x491;" horiz-adv-x="847" 
d="M279 940v-940h-144v1059h563v297h131v-416h-550z" />
    <glyph glyph-name="uni0492" unicode="&#x492;" horiz-adv-x="1042" 
d="M8 666v108h152v688h837v-127h-688v-561h357v-108h-357v-666h-149v666h-152z" />
    <glyph glyph-name="uni0493" unicode="&#x493;" horiz-adv-x="847" 
d="M600 471h-321v-471h-144v471h-121v98h121v490h694v-119h-550v-371h321v-98z" />
    <glyph glyph-name="uni0496" unicode="&#x496;" horiz-adv-x="1927" 
d="M1655 0l-512 682h-129v-682h-152v682h-129l-512 -682h-178l567 756l-518 706h180l461 -653h129v653h152v-653h129l461 653h180l-518 -706l471 -629h149v-494h-143v367h-88z" />
    <glyph glyph-name="uni0497" unicode="&#x497;" horiz-adv-x="1470" 
d="M37 0l395 545l-389 514h162l346 -457h94v457h143v-457h99l344 457h162l-389 -514l311 -426h139v-416h-131v297h-86l-350 483h-99v-483h-143v483h-94l-352 -483h-162z" />
    <glyph glyph-name="uni049A" unicode="&#x49a;" horiz-adv-x="1343" 
d="M1065 0l-580 682h-176v-682h-149v1462h149v-653h174l531 653h184l-590 -708l531 -627h164v-494h-144v367h-94z" />
    <glyph glyph-name="uni049B" unicode="&#x49b;" horiz-adv-x="1011" 
d="M279 0h-144v1059h144v-459h118l381 459h168l-428 -514l340 -426h137v-416h-131v297h-84l-385 481h-116v-481z" />
    <glyph glyph-name="uni049C" unicode="&#x49c;" horiz-adv-x="1288" 
d="M1065 0l-547 682h-53v-272h-74v272h-82v-682h-149v1462h149v-653h82v246h74v-246h51l498 653h184l-553 -708l602 -754h-182z" />
    <glyph glyph-name="uni049D" unicode="&#x49d;" horiz-adv-x="976" 
d="M279 0h-144v1059h144v-465h63v205h70v-205h22l344 465h170l-389 -522l393 -537h-172l-344 475h-24v-203h-70v203h-63v-475z" />
    <glyph glyph-name="uni04A2" unicode="&#x4a2;" horiz-adv-x="1433" 
d="M1071 1462h152v-1335h147v-494h-143v367h-156v676h-762v-676h-149v1462h149v-659h762v659z" />
    <glyph glyph-name="uni04A3" unicode="&#x4a3;" horiz-adv-x="1165" 
d="M279 1059v-465h567v465h145v-940h135v-416h-131v297h-149v475h-567v-475h-144v1059h144z" />
    <glyph glyph-name="uni04AE" unicode="&#x4ae;" horiz-adv-x="1226" 
d="M207 1462q333 -592 405 -723h4q73 132 210 376t194 347h172l-504 -864v-598h-151v598l-502 864h172z" />
    <glyph glyph-name="uni04AF" unicode="&#x4af;" horiz-adv-x="1007" 
d="M166 1059q265 -685 338 -881h4q54 145 336 881h145q-161 -415 -414 -1077v-392h-143v392q-77 198 -223 581.5t-189 495.5h146z" />
    <glyph glyph-name="uni04B2" unicode="&#x4b2;" horiz-adv-x="1308" 
d="M25 0l516 752l-496 710h184l400 -585l413 585h175l-502 -712l436 -623h115v-494h-144v367h-71l-422 625l-428 -625h-176z" />
    <glyph glyph-name="uni04B3" unicode="&#x4b3;" horiz-adv-x="1056" 
d="M37 0l387 543l-367 516h174l281 -404l281 404h174l-367 -514l303 -426h139v-416h-131v297h-98l-301 432l-301 -432h-174z" />
    <glyph glyph-name="uni04B8" unicode="&#x4b8;" horiz-adv-x="1259" 
d="M565 317v252q-473 14 -473 451v442h152v-426q0 -311 321 -338v265h74v-267q172 3 311 43v723h152v-1462h-152v614q-166 -40 -311 -45v-252h-74z" />
    <glyph glyph-name="uni04B9" unicode="&#x4b9;" horiz-adv-x="1007" 
d="M442 174v205q-195 10 -288 110.5t-93 290.5v279h144v-281q0 -131 54 -196.5t183 -77.5v196h70v-198q113 0 219 20v537h143v-1059h-143v401q-110 -19 -219 -22v-205h-70z" />
    <glyph glyph-name="uni04BA" unicode="&#x4ba;" horiz-adv-x="1259" 
d="M662 893q263 0 384 -116t121 -335v-442h-151v426q0 340 -383 340q-171 0 -324 -43v-723h-151v1462h151v-614q196 45 353 45z" />
    <glyph glyph-name="uni04BB" unicode="&#x4bb;" horiz-adv-x="1114" 
d="M135 0v1462h144v-604q100 219 327 219q184 0 283.5 -104.5t99.5 -298.5v-674h-143v664q0 292 -254 292q-63 0 -117 -23t-99 -70.5t-71 -130.5t-26 -193v-539h-144z" />
    <glyph glyph-name="uni04C0" unicode="&#x4c0;" horiz-adv-x="468" 
d="M160 1462h149v-1462h-149v1462z" />
    <glyph glyph-name="uni04CF" unicode="&#x4cf;" horiz-adv-x="411" 
d="M135 1462h144v-1462h-144v1462z" />
    <glyph glyph-name="uni04D8" unicode="&#x4d8;" horiz-adv-x="1570" 
d="M770 -25q-157 0 -288 60t-218 162.5t-134.5 239.5t-47.5 292q0 49 2 74h1249q-10 108 -50.5 205t-109 174.5t-174 123.5t-233.5 46q-185 0 -309 -77t-185 -212h-155q76 197 240 306.5t409 109.5q213 0 378 -95t255 -262.5t90 -378.5q0 -226 -89 -400.5t-253 -271
t-377 -96.5zM227 680q7 -112 45 -213.5t104 -184t168 -131.5t226 -49q108 0 199 32t155 87t110.5 129t70.5 157t30 173h-1108z" />
    <glyph glyph-name="uni04D9" unicode="&#x4d9;" horiz-adv-x="1134" 
d="M88 745q46 157 168 244.5t299 87.5q155 0 272 -72.5t177.5 -196.5t60.5 -280q0 -152 -61.5 -276t-177.5 -197t-265 -73q-101 0 -182 30t-134.5 80.5t-90 120.5t-54 146.5t-20.5 162.5q-2 14 -2 49h850q-11 175 -112 281t-259 106q-119 0 -206 -56t-120 -157h-143z
M221 457q16 -170 100.5 -264.5t239.5 -94.5q153 0 251.5 99.5t113.5 259.5h-705z" />
    <glyph glyph-name="uni04E8" unicode="&#x4e8;" horiz-adv-x="1660" 
d="M829 1491q171 0 314 -61t237.5 -165t146.5 -241.5t52 -292.5t-52 -293t-146.5 -242t-237.5 -164.5t-314 -60.5t-313 60.5t-236 164.5t-146 242t-52 293t52 292.5t146 241.5t236 165t313 61zM233 684q7 -115 49 -219t114.5 -187.5t184.5 -132.5t248 -49q137 0 249.5 49
t184.5 132.5t113.5 187.5t48.5 219h-1192zM236 807h1187q-11 111 -54 209.5t-115.5 177t-182 124.5t-242.5 46q-132 0 -241.5 -46t-181.5 -124.5t-115.5 -177t-54.5 -209.5z" />
    <glyph glyph-name="uni04E9" unicode="&#x4e9;" horiz-adv-x="1179" 
d="M590 -18q-157 0 -277 74.5t-181.5 197.5t-61.5 274t61.5 274.5t181.5 199t277 75.5q156 0 276 -75t182 -199t62 -275q0 -150 -62 -273.5t-181.5 -198t-276.5 -74.5zM215 477q15 -162 118 -268.5t257 -106.5t257 106.5t118 268.5h-750zM217 594h746q-19 159 -120.5 260.5
t-252.5 101.5t-252.5 -101.5t-120.5 -260.5z" />
    <glyph glyph-name="Wgrave" unicode="&#x1e80;" horiz-adv-x="1847" 
d="M25 1462h159l269 -1097l51 -205h2l51 205l258 1097h213l254 -1093l51 -211h4l52 211l274 1093h160l-387 -1462h-207l-305 1309h-2l-228 -942l-88 -367h-207l-92 365zM588 1802h213l260 -209h-156z" />
    <glyph glyph-name="wgrave" unicode="&#x1e81;" horiz-adv-x="1472" 
d="M328 0l-308 1059h148l190 -690l50 -197h2q10 38 27 108t22 89l186 690h180l185 -684q9 -37 26.5 -105.5t24.5 -97.5h2q47 178 53 203l189 684h147l-309 -1059h-162l-195 715q-9 31 -49 184h-2q-16 -55 -49 -184l-197 -715h-161zM487 1462h181l190 -268h-104z" />
    <glyph glyph-name="Wacute" unicode="&#x1e82;" horiz-adv-x="1847" 
d="M25 1462h159l269 -1097l51 -205h2l51 205l258 1097h213l254 -1093l51 -211h4l52 211l274 1093h160l-387 -1462h-207l-305 1309h-2l-228 -942l-88 -367h-207l-92 365zM780 1593l260 209h213l-317 -209h-156z" />
    <glyph glyph-name="wacute" unicode="&#x1e83;" horiz-adv-x="1472" 
d="M328 0l-308 1059h148l190 -690l50 -197h2q10 38 27 108t22 89l186 690h180l185 -684q9 -37 26.5 -105.5t24.5 -97.5h2q47 178 53 203l189 684h147l-309 -1059h-162l-195 715q-9 31 -49 184h-2q-16 -55 -49 -184l-197 -715h-161zM668 1194l190 268h180l-266 -268h-104z
" />
    <glyph glyph-name="Wdieresis" unicode="&#x1e84;" horiz-adv-x="1847" 
d="M25 1462h159l269 -1097l51 -205h2l51 205l258 1097h213l254 -1093l51 -211h4l52 211l274 1093h160l-387 -1462h-207l-305 1309h-2l-228 -942l-88 -367h-207l-92 365zM686 1593v209h141v-209h-141zM1012 1593v209h141v-209h-141z" />
    <glyph glyph-name="wdieresis" unicode="&#x1e85;" horiz-adv-x="1472" 
d="M328 0l-308 1059h148l190 -690l50 -197h2q10 38 27 108t22 89l186 690h180l185 -684q9 -37 26.5 -105.5t24.5 -97.5h2q47 178 53 203l189 684h147l-309 -1059h-162l-195 715q-9 31 -49 184h-2q-16 -55 -49 -184l-197 -715h-161zM514 1264v198h137v-198h-137zM821 1264
v198h137v-198h-137z" />
    <glyph glyph-name="uni1E9E" unicode="&#x1e9e;" horiz-adv-x="1363" 
d="M164 973q0 152 68 264.5t182 168.5t258 56q142 0 279 -42t245 -109l-420 -480q217 -5 346 -111.5t129 -301.5q0 -200 -130.5 -317t-338.5 -117q-120 0 -209 28l35 125q81 -31 174 -31q145 0 231.5 88.5t86.5 229.5q0 133 -101 211t-292 78h-80v129l370 430
q-134 67 -317 67q-163 0 -268 -102t-105 -285v-952h-143v973z" />
    <glyph glyph-name="Ygrave" unicode="&#x1ef2;" horiz-adv-x="1226" 
d="M207 1462q333 -592 405 -723h4q73 132 210 376t194 347h172l-504 -864v-598h-151v598l-502 864h172zM279 1802h213l260 -209h-156z" />
    <glyph glyph-name="ygrave" unicode="&#x1ef3;" horiz-adv-x="1032" 
d="M170 1059l362 -922h3q55 152 164 461.5t163 460.5h150q-215 -578 -477 -1268q-36 -100 -94.5 -150.5t-159.5 -50.5h-113v119h98q20 0 37 4.5t29.5 9.5t24.5 17.5t18.5 20t15.5 26t12 26l12 30t11 28.5l37 96l-443 1092h150zM248 1462h180l190 -268h-104z" />
    <glyph glyph-name="uni2011" unicode="&#x2011;" horiz-adv-x="958" 
d="M160 598h639v-121h-639v121z" />
    <glyph glyph-name="endash" unicode="&#x2013;" horiz-adv-x="1357" 
d="M160 598h1038v-121h-1038v121z" />
    <glyph glyph-name="emdash" unicode="&#x2014;" horiz-adv-x="1794" 
d="M162 598h1472v-121h-1472v121z" />
    <glyph glyph-name="quoteleft" unicode="&#x2018;" horiz-adv-x="399" 
d="M244 981h-160l139 481h123z" />
    <glyph glyph-name="quoteright" unicode="&#x2019;" horiz-adv-x="399" 
d="M156 1462h159l-139 -481h-123z" />
    <glyph glyph-name="quotesinglbase" unicode="&#x201a;" horiz-adv-x="399" 
d="M156 227h159l-139 -481h-123z" />
    <glyph glyph-name="quotedblleft" unicode="&#x201c;" horiz-adv-x="657" 
d="M502 981h-160l139 481h123zM84 981l139 481h123l-102 -481h-160z" />
    <glyph glyph-name="quotedblright" unicode="&#x201d;" horiz-adv-x="657" 
d="M156 1462h159l-139 -481h-123zM311 981l103 481h159l-139 -481h-123z" />
    <glyph glyph-name="quotedblbase" unicode="&#x201e;" horiz-adv-x="657" 
d="M156 240h159l-139 -482h-123zM311 -242l103 482h159l-139 -482h-123z" />
    <glyph glyph-name="dagger" unicode="&#x2020;" horiz-adv-x="1150" 
d="M106 940v119h404v403h127v-403h401v-119h-401v-1255h-127v1255h-404z" />
    <glyph glyph-name="daggerdbl" unicode="&#x2021;" horiz-adv-x="1150" 
d="M1038 940h-401v-735h401v-117h-401v-403h-127v403h-404v117h404v735h-404v119h404v403h127v-403h401v-119z" />
    <glyph glyph-name="bullet" unicode="&#x2022;" horiz-adv-x="1073" 
d="M539 909q158 0 267 -108t109 -266q0 -159 -109 -270t-267 -111t-268.5 111.5t-110.5 269.5t110 266t269 108z" />
    <glyph glyph-name="ellipsis" unicode="&#x2026;" horiz-adv-x="1214" 
d="M127 240h164v-240h-164v240zM526 0v240h164v-240h-164zM926 0v240h164v-240h-164z" />
    <glyph glyph-name="perthousand" unicode="&#x2030;" horiz-adv-x="2543" 
d="M414 760q86 0 133 87.5t47 213.5q0 122 -47 206.5t-133 84.5q-88 0 -135.5 -84t-47.5 -207q0 -126 48 -213.5t135 -87.5zM102 1059q0 107 32.5 196t105 148t174.5 59q77 0 138 -34t98 -91t56 -128t19 -150q0 -78 -19 -150t-56 -131t-98 -94t-138 -35t-138 35t-98 94
t-56.5 131t-19.5 150zM559 4l563 1456h131l-563 -1456h-131zM1106 399q0 78 19.5 149t56.5 128t98.5 91t138.5 34q61 0 113 -22.5t87.5 -60.5t60.5 -89.5t37 -109.5t12 -120q0 -106 -32.5 -197t-104.5 -152.5t-173 -61.5q-77 0 -138.5 35t-98.5 94t-56.5 131t-19.5 151z
M1237 401q0 -126 47.5 -214.5t134.5 -88.5q86 0 132 88.5t46 214.5q0 122 -46 205.5t-132 83.5q-88 0 -135 -83.5t-47 -205.5zM1819 399q0 78 19.5 149t56.5 128t98 91t137 34q77 0 138 -34t98 -91.5t56 -128t19 -148.5t-19 -150t-56 -131t-98 -94.5t-138 -35.5
q-76 0 -137 35t-98 94t-56.5 131t-19.5 151zM1950 401q0 -126 47 -214.5t133 -88.5q87 0 133.5 88t46.5 215q0 123 -46.5 206t-133.5 83q-86 0 -133 -83.5t-47 -205.5z" />
    <glyph glyph-name="guilsinglleft" unicode="&#x2039;" horiz-adv-x="544" 
d="M84 530l246 428h131l-223 -428l223 -428h-131z" />
    <glyph glyph-name="guilsinglright" unicode="&#x203a;" horiz-adv-x="544" 
d="M461 530l-246 -428h-131l223 428l-223 428h131z" />
    <glyph glyph-name="fraction" unicode="&#x2044;" horiz-adv-x="452" 
d="M573 1460l-563 -1456h-131l563 1456h131z" />
    <glyph glyph-name="Euro" unicode="&#x20ac;" horiz-adv-x="1513" 
d="M1083 539h-637q55 -198 207 -322.5t375 -124.5q173 0 309 70v-129q-151 -60 -309 -60q-145 0 -270 43t-216.5 119.5t-153.5 179t-91 224.5h-199l39 112h142q-5 72 -5 88q0 44 2 64h-190l45 110h160q26 126 87.5 233t153 187.5t219.5 126t277 45.5q218 0 383 -96l-43 -113
q-141 88 -340 88q-120 0 -222 -36.5t-174.5 -101t-120.5 -149t-71 -184.5h783l-41 -110h-760q-2 -20 -2 -64q0 -30 4 -88h700z" />
    <glyph glyph-name="uni20B4" unicode="&#x20b4;" horiz-adv-x="1257" 
d="M616 -18q-78 0 -148 12t-135 40.5t-112 72t-76 111t-30 153.5q-3 146 88 243h-90v84h202q83 44 238 90q82 23 182 62h-622v84h761q66 63 66 172q-1 116 -93 184t-229 68q-135 0 -228 -71t-111 -208h-154q13 105 57.5 183.5t111 125.5t147.5 70t175 23q125 0 230.5 -40.5
t174 -126.5t69.5 -202q3 -102 -39 -178h90v-84h-158q-96 -81 -321 -152h479v-84h-721q-79 -39 -118 -95t-38 -146q1 -72 29.5 -125.5t78 -84t110.5 -45t134 -14.5q90 0 171.5 36.5t140.5 113t69 178.5h158q-13 -115 -63.5 -204t-126 -141.5t-164 -78.5t-185.5 -26z" />
    <glyph glyph-name="uni20BD" unicode="&#x20bd;" horiz-adv-x="1185" 
d="M592 735q174 0 269 79t95 241q0 140 -92 216.5t-260 76.5h-295v-613h283zM8 350v107h152v164h-152v114h152v727h465q218 0 350.5 -106.5t132.5 -298.5q0 -202 -138 -319t-358 -117h-303v-164h375v-107h-375v-350h-149v350h-152z" />
    <glyph glyph-name="uni2113" unicode="&#x2113;" horiz-adv-x="980" 
d="M33 422l237 176v489q0 90 14.5 158t47.5 122t91.5 82t141.5 28q131 0 201 -87t70 -221q0 -74 -17.5 -139.5t-47.5 -120t-80.5 -110.5t-105.5 -104t-134 -107l-48 -35v-225q0 -126 37.5 -179t126.5 -53q60 0 109.5 28.5t105.5 84.5l70 -92q-133 -137 -289 -137t-224.5 82
t-68.5 274v119l-170 -125zM403 700l27 19q141 105 209 210.5t68 235.5q0 93 -40 144t-108 51q-156 0 -156 -270v-390z" />
    <glyph glyph-name="uni2116" unicode="&#x2116;" horiz-adv-x="2215" 
d="M160 1462h186l596 -989l160 -272v317v944h151v-1462h-188l-594 989l-162 273v-318v-944h-149v1462zM1380 1100q0 166 104 274.5t267 108.5t267 -108.5t104 -274.5t-104 -274.5t-267 -108.5t-267 108.5t-104 274.5zM1505 1100q0 -122 68.5 -203.5t177.5 -81.5t178.5 81.5
t69.5 203.5q0 121 -69.5 202.5t-178.5 81.5t-177.5 -81t-68.5 -203z" />
    <glyph glyph-name="uni2117" unicode="&#x2117;" horiz-adv-x="1730" 
d="M866 57q-180 0 -331.5 89t-239.5 245t-88 344q0 137 52 261.5t139.5 214t210 142t257.5 52.5q178 0 329.5 -89.5t240 -244t88.5 -336.5q0 -188 -88.5 -344t-239.5 -245t-330 -89zM82 735q0 -163 62.5 -309t168.5 -250t250.5 -164.5t302.5 -60.5t302.5 60.5t250.5 164.5
t169 250t63 309q0 160 -63 304.5t-168.5 247.5t-250.5 163.5t-303 60.5t-302.5 -60.5t-250.5 -163.5t-168.5 -247.5t-62.5 -304.5zM670 371v731h252q120 0 191 -62.5t71 -158.5q0 -99 -74.5 -163.5t-189.5 -64.5h-132v-282h-118zM788 750h119q79 0 119.5 33.5t40.5 95.5
q0 61 -41.5 94t-114.5 33h-123v-256z" />
    <glyph glyph-name="trademark" unicode="&#x2122;" horiz-adv-x="931" 
d="M391 1401h-129v-346h-76v346h-129v61h334v-61zM453 1055v407h112l101 -315l98 315h117v-407h-74v317h-2l-96 -317h-84l-99 317h-2v-317h-71z" />
    <glyph glyph-name="uni2126" unicode="&#x2126;" horiz-adv-x="1523" 
d="M125 0v127h426v160q-81 21 -157.5 72.5t-138 124.5t-99 173t-37.5 207q0 179 79 319.5t226 220t338 79.5t338 -79.5t226 -220t79 -319.5q0 -107 -37.5 -207t-98.5 -173t-137.5 -124.5t-156.5 -72.5v-160h422v-127h-541v387q181 32 297.5 165t116.5 306q0 217 -140 357.5
t-370 140.5q-227 0 -366.5 -140.5t-139.5 -357.5q0 -174 116 -306.5t298 -164.5v-387h-543z" />
    <glyph glyph-name="estimated" unicode="&#x212e;" horiz-adv-x="1220" 
d="M74 528q0 155 71.5 284t197 204.5t278.5 75.5q152 0 273 -75.5t187 -204t66 -284.5h-803v-405q125 -88 277 -88q131 0 240.5 65t172.5 174l60 -32q-72 -127 -196.5 -202t-276.5 -75q-114 0 -216 44.5t-174.5 120t-114.5 179.5t-42 219zM344 598h553v332q-123 92 -276 92
q-152 0 -277 -88v-336z" />
    <glyph glyph-name="uni2153" unicode="&#x2153;" horiz-adv-x="1509" 
d="M258 584v637h-209v84q109 0 158.5 29.5t68.5 127.5h99v-878h-117zM338 4l563 1456h131l-563 -1456h-131zM842 254h119l2 -14q9 -77 59 -117.5t127 -40.5q82 0 132 47t50 123q0 82 -55 122t-143 40h-46v102q38 0 58 2q66 3 104.5 38t38.5 99q0 61 -37.5 96t-103.5 35
t-105 -33.5t-47 -90.5l-2 -17h-116q6 107 77.5 173.5t192.5 66.5q120 0 190 -60t70 -159q0 -134 -119 -197q160 -51 160 -225q0 -112 -79.5 -186t-217.5 -74t-217 67t-90 189z" />
    <glyph glyph-name="uni2154" unicode="&#x2154;" horiz-adv-x="1738" 
d="M61 584q2 56 18.5 105t37.5 83t59.5 70.5t68 59t79.5 56.5q119 81 160.5 127.5t41.5 124.5q0 69 -42.5 114.5t-121.5 45.5q-83 0 -127.5 -50.5t-46.5 -137.5h-118q1 133 81 209.5t214 76.5q126 0 203 -70t77 -181q0 -44 -11 -82t-24.5 -63.5t-44 -57t-48.5 -47.5t-60 -49
q-25 -20 -75 -55t-76.5 -55.5t-55.5 -54.5t-41 -69h446v-100h-594zM565 4l563 1456h132l-564 -1456h-131zM1073 254h119l2 -14q9 -77 59 -117.5t127 -40.5q82 0 132.5 47t50.5 123q0 82 -55.5 122t-143.5 40h-45v102q37 0 57 2q67 3 105.5 38t38.5 99q0 61 -38 96t-104 35
t-104.5 -33.5t-46.5 -90.5l-2 -17h-117q6 107 77.5 173.5t192.5 66.5q120 0 190 -60t70 -159q0 -135 -118 -197q159 -50 159 -225q0 -112 -79.5 -186t-217.5 -74t-217 67t-90 189z" />
    <glyph glyph-name="oneeighth" unicode="&#x215b;" horiz-adv-x="1576" 
d="M258 584v637h-209v84q109 0 158.5 29.5t68.5 127.5h99v-878h-117zM356 4l564 1456h131l-564 -1456h-131zM893 240q0 86 53 148.5t121 78.5q-66 24 -102.5 74.5t-36.5 122.5q0 99 77 162t201 63q123 0 200 -63t77 -162q0 -72 -38.5 -124t-101.5 -73q70 -19 121.5 -80
t51.5 -147q1 -118 -84.5 -187t-225.5 -69q-143 0 -228.5 68.5t-84.5 187.5zM1010 248q0 -73 51 -119.5t145 -46.5q91 0 142 47t51 121q0 71 -51.5 118.5t-141.5 47.5q-93 0 -144.5 -47t-51.5 -121zM1044 649q0 -60 43.5 -99.5t118.5 -39.5q73 0 116.5 39.5t43.5 99.5
q0 59 -42.5 100.5t-117.5 41.5q-76 0 -119 -41.5t-43 -100.5z" />
    <glyph glyph-name="threeeighths" unicode="&#x215c;" horiz-adv-x="1718" 
d="M371 567q-139 0 -218 67t-90 189l-2 15h119l2 -15q9 -77 59 -117t128 -40q82 0 132 47t50 123q0 82 -55.5 121.5t-143.5 39.5h-45v103q38 0 58 2q66 3 104.5 38t38.5 99q0 61 -37.5 96t-103.5 35t-105 -34t-47 -91l-2 -16h-117q6 107 77.5 173t193.5 66q120 0 190 -60
t70 -159q0 -133 -119 -196q160 -51 160 -226q0 -112 -79.5 -186t-217.5 -74zM500 4l563 1456h131l-563 -1456h-131zM1034 240q0 86 53 148.5t121 78.5q-66 24 -102.5 74.5t-36.5 122.5q0 99 77.5 162t201.5 63q122 0 199 -63t77 -162q0 -72 -38 -124t-101 -73
q70 -19 121 -80t51 -147q1 -118 -84 -187t-225 -69q-143 0 -229 68.5t-85 187.5zM1151 248q0 -73 51.5 -119.5t145.5 -46.5q91 0 141.5 47t50.5 121q0 71 -51 118.5t-141 47.5q-93 0 -145 -47.5t-52 -120.5zM1186 649q0 -60 43.5 -99.5t118.5 -39.5q73 0 116 39.5t43 99.5
q0 59 -42.5 100.5t-116.5 41.5q-76 0 -119 -41.5t-43 -100.5z" />
    <glyph glyph-name="fiveeighths" unicode="&#x215d;" horiz-adv-x="1687" 
d="M369 567q-130 0 -213 71t-95 179l117 2q9 -65 62 -108t127 -43q80 0 136 55t56 147q0 90 -52 145.5t-138 55.5q-115 0 -174 -100l-117 12l69 479h459v-100h-364l-41 -264q69 73 182 73q133 0 214 -80.5t81 -220.5q0 -128 -86.5 -215.5t-222.5 -87.5zM508 4l563 1456h131
l-563 -1456h-131zM1004 240q0 86 53 148.5t121 78.5q-66 24 -103 74.5t-37 122.5q0 99 77.5 162t201.5 63q122 0 199 -63t77 -162q0 -72 -38 -124t-101 -73q70 -19 121 -80t51 -147q1 -118 -84 -187t-225 -69q-143 0 -228.5 68.5t-84.5 187.5zM1120 248q0 -73 51.5 -119.5
t145.5 -46.5q91 0 141.5 47t50.5 121q0 71 -51 118.5t-141 47.5q-93 0 -145 -47.5t-52 -120.5zM1155 649q0 -60 43.5 -99.5t118.5 -39.5q73 0 116.5 39.5t43.5 99.5q0 59 -42.5 100.5t-117.5 41.5q-76 0 -119 -41.5t-43 -100.5z" />
    <glyph glyph-name="seveneighths" unicode="&#x215e;" horiz-adv-x="1638" 
d="M170 584q14 227 103.5 433t211.5 343h-436v102h576v-94q-134 -134 -230 -354t-108 -430h-117zM350 4l563 1456h131l-563 -1456h-131zM954 240q0 86 53 148.5t121 78.5q-66 24 -102.5 74.5t-36.5 122.5q0 99 77.5 162t201.5 63q122 0 199 -63t77 -162q0 -72 -38 -124
t-101 -73q70 -19 121 -80t51 -147q1 -118 -84 -187t-225 -69q-143 0 -229 68.5t-85 187.5zM1071 248q0 -73 51.5 -119.5t145.5 -46.5q91 0 141.5 47t50.5 121q0 71 -51 118.5t-141 47.5q-93 0 -145 -47.5t-52 -120.5zM1106 649q0 -60 43.5 -99.5t118.5 -39.5q73 0 116 39.5
t43 99.5q0 59 -42.5 100.5t-116.5 41.5q-76 0 -119 -41.5t-43 -100.5z" />
    <glyph glyph-name="arrowleft" unicode="&#x2190;" horiz-adv-x="1769" 
d="M1634 637h-1255l35 -31l497 -497l-90 -95l-686 686l686 686l92 -94l-497 -497l-37 -33l1255 2v-127z" />
    <glyph glyph-name="arrowup" unicode="&#x2191;" horiz-adv-x="1640" 
d="M135 801l684 686l686 -684l-94 -92l-504 508l-22 24v-1243h-131l2 1243l-27 -29l-500 -503z" />
    <glyph glyph-name="arrowright" unicode="&#x2192;" horiz-adv-x="1769" 
d="M135 637v127l1256 -2l-37 33l-498 497l92 94l686 -686l-686 -686l-90 95l498 497l35 31h-1256z" />
    <glyph glyph-name="arrowdown" unicode="&#x2193;" horiz-adv-x="1640" 
d="M135 662l94 90l500 -504l27 -29l-2 1243h131v-1243l22 25l504 508l94 -93l-686 -684z" />
    <glyph glyph-name="uni2196" unicode="&#x2196;" horiz-adv-x="1361" 
d="M137 1241h926v-125h-612l-101 2l877 -876l-90 -92l-873 872l2 -107v-602h-131z" />
    <glyph glyph-name="uni2197" unicode="&#x2197;" horiz-adv-x="1361" 
d="M1225 1241l2 -928h-131v602l2 107l-873 -872l-90 92l877 876l-101 -2h-612v125h926z" />
    <glyph glyph-name="uni2198" unicode="&#x2198;" horiz-adv-x="1361" 
d="M1225 174h-926v125h612l101 -2l-877 877l90 92l873 -873l-2 107v602h131z" />
    <glyph glyph-name="uni2199" unicode="&#x2199;" horiz-adv-x="1361" 
d="M137 174l-2 928h131v-602l-2 -107l873 873l90 -92l-877 -877l101 2h612v-125h-926z" />
    <glyph glyph-name="uni219E" unicode="&#x219e;" horiz-adv-x="1769" 
d="M1634 637h-663l35 -31l499 -497l-92 -95l-620 623h-414l35 -31l497 -497l-90 -95l-686 686l686 686l92 -94l-497 -497l-37 -33h412l624 624l90 -94l-499 -499l-31 -31l659 2v-127z" />
    <glyph glyph-name="uni219F" unicode="&#x219f;" horiz-adv-x="1640" 
d="M758 -10v663l-31 -35l-498 -499l-94 92l623 620v414l-31 -35l-498 -497l-94 90l686 686l686 -686l-94 -92l-498 497l-32 37v-411l624 -625l-94 -90l-500 499l-30 31l2 -659h-127z" />
    <glyph glyph-name="uni21A0" unicode="&#x21a0;" horiz-adv-x="1769" 
d="M135 637v127l660 -2l-31 31l-500 499l90 94l625 -624h412l-37 33l-498 497l92 94l686 -686l-686 -686l-90 95l498 497l35 31h-414l-621 -623l-92 95l500 497l35 31h-664z" />
    <glyph glyph-name="uni21A1" unicode="&#x21a1;" horiz-adv-x="1640" 
d="M758 1477h127l-2 -660l30 31l500 500l94 -91l-624 -624v-412l32 37l498 498l94 -92l-686 -687l-686 687l94 90l498 -498l31 -35v414l-623 620l94 93l498 -500l31 -35v664z" />
    <glyph glyph-name="uni21A2" unicode="&#x21a2;" horiz-adv-x="1693" 
d="M1559 53l-93 -94l-522 524h-565l41 -39l393 -391l-92 -94l-586 588l588 588l90 -95l-387 -387l-47 -45h563l526 527l91 -95l-431 -428l-61 -63z" />
    <glyph glyph-name="uni21A3" unicode="&#x21a3;" horiz-adv-x="1693" 
d="M135 53l492 496l-62 63l-430 428l90 95l527 -527h563l-47 45l-387 387l90 95l588 -588l-586 -588l-92 94l393 391l41 39h-565l-523 -524z" />
    <glyph glyph-name="uni21A4" unicode="&#x21a4;" horiz-adv-x="1685" 
d="M721 1135l92 -95l-389 -387l-47 -45h1046v520h127v-1163h-127v518h-1046l43 -39l393 -391l-92 -94l-586 588z" />
    <glyph glyph-name="uni21A5" unicode="&#x21a5;" horiz-adv-x="1443" 
d="M135 899l586 588l588 -586l-92 -92l-394 393l-39 41v-1126h519v-117l-1162 2v117h518v1124l-45 -47l-387 -387z" />
    <glyph glyph-name="uni21A6" unicode="&#x21a6;" horiz-adv-x="1685" 
d="M965 1135l585 -588l-585 -588l-93 94l394 391l43 39h-1047v-518h-127v1163h127v-520h1047l-47 45l-390 387z" />
    <glyph glyph-name="uni21A7" unicode="&#x21a7;" horiz-adv-x="1443" 
d="M135 563l92 90l387 -387l45 -47v1124h-518v117l1162 2v-116h-519v-1127l39 41l394 393l92 -92l-588 -586z" />
    <glyph glyph-name="uni21B0" unicode="&#x21b0;" horiz-adv-x="1613" 
d="M719 1503l92 -92l-295 -295l-139 -137h1102v-979h-127v854h-975l137 -133l299 -299l-92 -92l-588 588z" />
    <glyph glyph-name="uni21B1" unicode="&#x21b1;" horiz-adv-x="1613" 
d="M895 1503l586 -585l-588 -588l-92 92l299 299l137 133h-975v-854h-127v979h1102l-139 137l-295 295z" />
    <glyph glyph-name="uni21B2" unicode="&#x21b2;" horiz-adv-x="1613" 
d="M719 -41l-586 586l588 588l92 -93l-299 -299l-137 -133h975v854h127v-979h-1102l139 -137l295 -295z" />
    <glyph glyph-name="uni21B3" unicode="&#x21b3;" horiz-adv-x="1613" 
d="M895 -41l-92 92l295 295l139 137h-1102v979h127v-854h975l-137 133l-299 299l92 93l588 -588z" />
    <glyph glyph-name="partialdiff" unicode="&#x2202;" horiz-adv-x="1191" 
d="M70 545q0 106 33.5 202.5t96 171t159.5 118.5t216 44q211 0 338 -141q-44 113 -138.5 226.5t-198 194.5t-203.5 130l131 76q86 -60 151 -110.5t132.5 -113t115.5 -123t91.5 -135t70 -155t42 -178t15.5 -207.5q0 -116 -34.5 -217.5t-99.5 -179t-166 -122t-226 -44.5
t-226 44.5t-166 122t-99.5 179t-34.5 217.5zM219 545q0 -197 106 -318t271 -121t272 121t107 318q0 178 -101.5 295.5t-283.5 117.5q-174 0 -272.5 -114t-98.5 -299z" />
    <glyph glyph-name="uni2206" unicode="&#x2206;" horiz-adv-x="1460" 
d="M78 0l575 1462h138l591 -1462h-1304zM276 125h900l-455 1137z" />
    <glyph glyph-name="product" unicode="&#x220f;" horiz-adv-x="1554" 
d="M37 1331v131h1479v-131h-230v-1630h-149v1630h-719v-1630h-150v1630h-231z" />
    <glyph glyph-name="summation" unicode="&#x2211;" horiz-adv-x="1337" 
d="M57 -299v115l586 774l-557 758v114h1102v-123h-924l553 -749l-590 -766h985v-123h-1155z" />
    <glyph glyph-name="minus" unicode="&#x2212;" horiz-adv-x="1245" 
d="M119 598h1009v-121h-1009v121z" />
    <glyph glyph-name="uni2215" unicode="&#x2215;" horiz-adv-x="452" 
d="M569 1460l-563 -1456h-121l564 1456h120z" />
    <glyph glyph-name="uni2219" unicode="&#x2219;" horiz-adv-x="612" 
d="M307 768q54 0 92.5 -38.5t38.5 -92.5q0 -50 -39.5 -90.5t-89.5 -40.5q-54 0 -93.5 38.5t-39.5 92.5t38.5 92.5t92.5 38.5z" />
    <glyph glyph-name="radical" unicode="&#x221a;" horiz-adv-x="1339" 
d="M338 1059l324 -907h10l483 1310h160l-553 -1460l-189 -2l-346 940h-207v119h318z" />
    <glyph glyph-name="infinity" unicode="&#x221e;" horiz-adv-x="1599" 
d="M113 520q0 131 79.5 221t210.5 90q56 0 110 -20t105 -59.5t86 -72.5t84 -85q9 -9 13 -14q7 7 35 37t38 40t37 36.5t42 38t41 32t46.5 29.5t46.5 20.5t52 16t53 4.5q132 0 213.5 -90t81.5 -222q0 -137 -80 -226t-213 -89q-58 0 -114 20t-107.5 57t-89.5 72.5t-82 83.5
q-107 -102 -147 -133q-126 -98 -248 -98q-132 0 -212.5 86.5t-80.5 224.5zM221 514q0 -83 50.5 -141t136.5 -58q44 0 87.5 16.5t89.5 52t72 58.5t72 68q-102 102 -149 138q-98 75 -177 75q-85 0 -133.5 -61t-48.5 -148zM870 510q2 -2 27 -26t30 -28.5t28.5 -26t31.5 -27
t30 -22.5t34 -22.5t33 -16.5t36.5 -15t35.5 -7.5t40 -3.5q85 0 133.5 58t48.5 141q0 89 -49 150t-135 61q-22 0 -46.5 -6.5t-43.5 -14.5t-45 -26t-40.5 -28t-42 -35.5t-37 -34.5t-37.5 -37.5t-32 -32.5z" />
    <glyph glyph-name="integral" unicode="&#x222b;" horiz-adv-x="757" 
d="M-70 -293l21 115h65q70 0 109.5 43.5t56.5 138.5l211 1194q11 59 30 104t51.5 82.5t84 57.5t119.5 20h115l-23 -119h-68q-81 0 -118 -31t-54 -122l-211 -1198q-54 -285 -305 -285h-84z" />
    <glyph glyph-name="approxequal" unicode="&#x2248;" horiz-adv-x="1300" 
d="M1174 811q-14 -125 -90 -196.5t-207 -71.5q-58 0 -123.5 22.5t-114.5 50t-109 50t-108 22.5q-75 0 -116.5 -38.5t-47.5 -106.5h-131q8 121 85 194.5t210 73.5q65 0 134 -22.5t117.5 -50t105 -50t98.5 -22.5q143 0 165 145h132zM127 199q8 121 85 194.5t210 73.5
q65 0 134 -22.5t117.5 -50t105 -50t98.5 -22.5q143 0 165 145h132q-14 -125 -90 -196.5t-207 -71.5q-58 0 -123.5 22.5t-114.5 50t-109 50t-108 22.5q-75 0 -116.5 -38.5t-47.5 -106.5h-131z" />
    <glyph glyph-name="notequal" unicode="&#x2260;" horiz-adv-x="1245" 
d="M395 -51l-100 51l131 256h-307v119h368l125 243h-493v119h555l178 346l98 -49l-151 -297h329v-119h-391l-125 -243h516v-119h-575z" />
    <glyph glyph-name="lessequal" unicode="&#x2264;" horiz-adv-x="1241" 
d="M113 74v114h1013v-114h-1013zM113 573v125l1013 299v-127l-847 -235l847 -232v-127z" />
    <glyph glyph-name="greaterequal" unicode="&#x2265;" horiz-adv-x="1241" 
d="M1128 74h-1013v114h1013v-114zM115 276v127l848 232l-848 235v127l1013 -299v-125z" />
    <glyph glyph-name="lozenge" unicode="&#x25ca;" horiz-adv-x="1177" 
d="M651 1462l451 -733l-451 -729h-139l-442 729l442 733h139zM233 729l349 -582l356 582l-356 586z" />
    <glyph glyph-name="fi" unicode="&#xfb01;" horiz-adv-x="1034" 
d="M219 1194q0 116 60 192t184 76h108v-119h-82q-63 0 -96 -34.5t-33 -120.5v-129h181v-117h-181v-942h-141v942h-147v117h147v135zM745 0v1059h144v-1059h-144zM748 1257v205h151v-205h-151z" />
    <glyph glyph-name="fl" unicode="&#xfb02;" horiz-adv-x="1021" 
d="M219 1194q0 116 60 192t184 76h108v-119h-82q-63 0 -96 -34.5t-33 -120.5v-129h181v-117h-181v-942h-141v942h-147v117h147v135zM745 0v1462h144v-1462h-144z" />
    <glyph glyph-name="uniFEFF" unicode="&#xfeff;" horiz-adv-x="14" 
 />
    <glyph glyph-name="Adieresis.ss02" horiz-adv-x="1374" 
d="M223 1462h144v-207h-144v207zM41 0l547 1462h198l547 -1462h-155l-170 453h-641l-170 -453h-156zM412 575h551l-273 754h-6zM1008 1255v207h141v-207h-141z" />
    <glyph glyph-name="i.loclTRK" horiz-adv-x="411" 
d="M135 0v1059h144v-1059h-144zM135 1264v198h139v-198h-139z" />
    <glyph glyph-name="uni0414.loclBGR" horiz-adv-x="1591" 
d="M1528 -369h-142v367h-1181v-367h-142v494h138l506 1337h180l506 -1337h135v-494zM358 125h877l-436 1173h-4z" />
    <glyph glyph-name="uni041B.loclBGR" horiz-adv-x="1318" 
d="M25 0l540 1460l193 2l538 -1462h-166l-466 1309h-7l-469 -1309h-163z" />
    <glyph glyph-name="uni042F.ss03" horiz-adv-x="1302" 
d="M1145 0h-152v623h-393l-350 -623h-172l379 655q-148 33 -231 141.5t-83 260.5q0 186 125.5 295.5t368.5 109.5h508v-1462zM295 1055q0 -141 90 -223t262 -82h346v585h-348q-94 0 -163 -22t-109 -61.5t-59 -88.5t-19 -108z" />
    <glyph glyph-name="uni0431.loclSRB" horiz-adv-x="1093" 
d="M565 -16q-216 0 -347.5 133.5t-131.5 341.5q0 161 86 279.5t254 185.5q-11 6 -33 17.5t-31 16.5q-90 54 -132 109.5t-42 128.5q0 72 54.5 127.5t158.5 71.5q222 34 560 69v-131q-337 -31 -510 -61q-51 -8 -81 -31t-30 -57q0 -39 28.5 -71.5t102.5 -72.5q23 -13 53.5 -28
t72.5 -35.5t71 -34.5q53 -27 85 -45t76.5 -46.5t71.5 -53.5t57.5 -61t47 -73.5t27.5 -87t11 -106.5q0 -217 -133 -351t-346 -134zM229 455q0 -156 90.5 -254.5t245.5 -98.5q153 0 244.5 99t91.5 264q0 63 -17.5 115.5t-40 85.5t-62 64t-64.5 45.5t-68 35.5q-11 5 -16 8
q-53 28 -74 37q-161 -47 -245.5 -150.5t-84.5 -250.5z" />
    <glyph glyph-name="uni0432.loclBGR" horiz-adv-x="1077" 
d="M565 -16q-220 0 -334 132t-114 369v502q0 231 110.5 361.5t321.5 130.5q184 0 295.5 -104.5t111.5 -276.5q0 -119 -61 -206t-166 -124q130 -32 206.5 -132.5t76.5 -242.5q0 -186 -124 -297.5t-323 -111.5zM260 494q0 -186 77.5 -289t237.5 -103q131 0 212 84t81 224
q0 136 -79.5 215.5t-219.5 79.5h-309v-211zM260 823h301q120 0 188 69t68 193q0 125 -72 200t-192 75q-146 0 -219.5 -98t-73.5 -273v-166z" />
    <glyph glyph-name="uni0433.loclBGR" horiz-adv-x="948" 
d="M90 745q29 164 129 247t254 83q160 0 266.5 -75t106.5 -207q0 -62 -21.5 -111.5t-61.5 -83.5t-87 -57t-107 -39q-27 -8 -149 -43q-94 -25 -143.5 -64t-49.5 -112q0 -88 70 -134.5t188 -46.5q111 0 181.5 58t87.5 159h141q-32 -169 -141.5 -251t-268.5 -82
q-106 0 -194.5 30.5t-147.5 100.5t-59 170q0 109 69 172.5t201 103.5q66 19 150 45q104 29 154.5 69.5t50.5 115.5q0 57 -35 96t-86.5 55.5t-114.5 16.5q-96 0 -163 -52t-85 -164h-135z" />
    <glyph glyph-name="uni0434.loclBGR" horiz-adv-x="1202" 
d="M926 1059h143v-998q0 -212 -130.5 -340.5t-344.5 -128.5q-199 0 -326 95.5t-147 261.5h145q36 -236 328 -236q156 0 244 91t88 266v145h-2q-95 -233 -369 -233q-152 0 -263.5 74.5t-166.5 197t-55 276.5q0 153 55 275.5t166.5 197t263.5 74.5q142 0 233.5 -63.5
t135.5 -159.5h2v205zM213 530q0 -119 38.5 -213.5t121 -153.5t198.5 -59q78 0 141.5 26.5t103.5 69.5t67 100t38 114t11 116q0 63 -14.5 124t-44.5 115.5t-72 96t-101.5 66t-128.5 24.5q-114 0 -196.5 -59t-122 -154t-39.5 -213z" />
    <glyph glyph-name="uni0436.loclBGR" horiz-adv-x="1437" 
d="M791 0h-146v475h-94l-348 -475h-166l395 537l-393 522h166l346 -465h94v868h146v-868h96l346 465h166l-395 -522l397 -537h-166l-348 475h-96v-475z" />
    <glyph glyph-name="uni0437.loclBGR" horiz-adv-x="1112" 
d="M121 686q5 83 35 153.5t83 124t133.5 83.5t180.5 30q198 0 309 -95.5t111 -252.5q0 -72 -19.5 -129t-56 -96t-75.5 -64.5t-91 -46.5q143 -32 227 -128.5t84 -254.5q0 -84 -32 -159t-91 -133.5t-152 -93t-208 -34.5q-460 0 -498 447h138q8 -89 39.5 -154.5t80.5 -102.5
t107 -54t127 -17q144 0 245 81.5t101 227.5q0 82 -29 143t-80.5 95.5t-114 51t-138.5 16.5h-160v118h162q129 0 209.5 74t80.5 207q0 109 -73.5 172t-202.5 63q-127 0 -205 -70.5t-90 -201.5h-137z" />
    <glyph glyph-name="uni0438.loclBGR" horiz-adv-x="1114" 
d="M127 385v674h143v-664q0 -293 254 -293q62 0 116 23t99.5 70.5t72 131t26.5 193.5v539h143v-1059h-143v205q-100 -223 -328 -223q-185 0 -284 104t-99 299z" />
    <glyph glyph-name="uni0439.loclBGR" horiz-adv-x="1114" 
d="M127 385v674h143v-664q0 -293 254 -293q62 0 116 23t99.5 70.5t72 131t26.5 193.5v539h143v-1059h-143v205q-100 -223 -328 -223q-185 0 -284 104t-99 299zM260 1442h115q3 -73 53.5 -117.5t128.5 -44.5q80 0 129.5 44.5t52.5 117.5h117q-9 -115 -90 -183.5t-209 -68.5
q-127 0 -207.5 68t-89.5 184z" />
    <glyph glyph-name="uni045D.loclBGR" horiz-adv-x="1114" 
d="M127 385v674h143v-664q0 -293 254 -293q62 0 116 23t99.5 70.5t72 131t26.5 193.5v539h143v-1059h-143v205q-100 -223 -328 -223q-185 0 -284 104t-99 299zM293 1462h180l191 -268h-105z" />
    <glyph glyph-name="uni043A.loclBGR" horiz-adv-x="987" 
d="M279 0h-144v1462h144v-895l493 492h176l-448 -447l461 -612h-177l-383 516l-122 -119v-397z" />
    <glyph glyph-name="uni043B.loclBGR" horiz-adv-x="1036" 
d="M850 0q-66 176 -185 502t-147 401h-2l-330 -903h-153q58 149 407 1059h156l405 -1059h-151z" />
    <glyph glyph-name="uni043F.loclBGR" horiz-adv-x="1114" 
d="M135 0v1059h144v-201q100 219 327 219q184 0 283.5 -104.5t99.5 -298.5v-674h-143v664q0 292 -254 292q-63 0 -117 -23t-99 -70.5t-71 -130.5t-26 -193v-539h-144z" />
    <glyph glyph-name="uni0442.loclBGR" horiz-adv-x="1665" 
d="M135 0v1059h144v-189q25 84 102.5 146.5t177.5 62.5q124 0 202 -51.5t116 -159.5q57 110 132.5 160.5t182.5 50.5q167 0 257.5 -105t90.5 -300v-674h-143v664q0 294 -219 294q-117 0 -193 -103.5t-76 -295.5v-559h-143v664q0 158 -55 226t-166 68q-91 0 -152.5 -59
t-87.5 -150.5t-26 -209.5v-539h-144z" />
    <glyph glyph-name="uni0446.loclBGR" horiz-adv-x="1155" 
d="M127 385v674h143v-664q0 -293 254 -293q62 0 116 23t99.5 70.5t72 131t26.5 193.5v539h143v-940h133v-416h-131v297h-145v205q-100 -223 -328 -223q-185 0 -284 104t-99 299z" />
    <glyph glyph-name="uni0448.loclBGR" horiz-adv-x="1665" 
d="M1530 1059v-1059h-144v188q-25 -84 -102.5 -146t-177.5 -62q-124 0 -202 51t-116 159q-57 -110 -132 -160t-183 -50q-167 0 -257.5 105t-90.5 300v674h143v-664q0 -295 219 -295q116 0 192.5 103.5t76.5 296.5v559h143v-664q0 -158 55 -226.5t166 -68.5q69 0 121.5 33.5
t83.5 92.5t46 133t15 161v539h144z" />
    <glyph glyph-name="uni0449.loclBGR" horiz-adv-x="1705" 
d="M1530 1059v-940h135v-416h-131v297h-148v188q-25 -84 -102.5 -146t-177.5 -62q-124 0 -202 51t-116 159q-57 -110 -132 -160t-183 -50q-167 0 -257.5 105t-90.5 300v674h143v-664q0 -295 219 -295q116 0 192.5 103.5t76.5 296.5v559h143v-664q0 -158 55 -226.5t166 -68.5
q69 0 121.5 33.5t83.5 92.5t46 133t15 161v539h144z" />
    <glyph glyph-name="uni044C.loclBGR" horiz-adv-x="954" 
d="M127 365v694h143v-393q115 51 246 51q176 0 283.5 -94.5t107.5 -257.5q0 -179 -106.5 -281t-282.5 -102q-184 0 -287.5 102.5t-103.5 280.5zM270 365q0 -125 65 -194t183 -69q111 0 178.5 69t67.5 194q0 112 -75 171.5t-197 59.5q-125 0 -222 -51v-180z" />
    <glyph glyph-name="uni044A.loclBGR" horiz-adv-x="1214" 
d="M14 940v119h371v-119h-371zM387 365v694h143v-393q115 51 246 51q176 0 283.5 -94.5t107.5 -257.5q0 -179 -106.5 -281t-282.5 -102q-184 0 -287.5 102.5t-103.5 280.5zM530 365q0 -125 65 -194t183 -69q111 0 178.5 69t67.5 194q0 112 -75 171.5t-197 59.5
q-125 0 -222 -51v-180z" />
    <glyph glyph-name="uni044E.loclBGR" horiz-adv-x="1517" 
d="M279 1462v-868h176q21 211 155.5 346t339.5 135q221 0 359.5 -156t138.5 -391t-138.5 -390.5t-359.5 -155.5q-209 0 -344.5 138.5t-150.5 354.5h-176v-475h-144v1462h144zM596 528q0 -182 99.5 -304t254.5 -122t255 122t100 304t-100 304t-255 122t-254.5 -122
t-99.5 -304z" />
    <glyph glyph-name="uni044F.ss03" horiz-adv-x="1052" 
d="M920 1059v-1059h-144v438h-266l-266 -438h-164l293 469q-110 31 -173 104t-63 175q0 143 108 227t285 84h390zM281 743q0 -94 75 -144t195 -50h225v399h-225q-120 0 -195 -53.5t-75 -151.5z" />
    <glyph glyph-name="zero.lf" horiz-adv-x="1214" 
d="M606 98q79 0 143 38.5t105.5 101t70 146t40.5 170.5t12 177q0 114 -20.5 219t-62.5 196.5t-116 146.5t-172 55q-78 0 -141.5 -36.5t-105 -97t-69.5 -141.5t-40 -166.5t-12 -175.5t12 -177t40 -170.5t69.5 -146t105 -101t141.5 -38.5zM94 731q0 116 16.5 220.5t55 200.5
t96 165.5t146 111t198.5 41.5q111 0 199.5 -41.5t146.5 -111t96.5 -165.5t55 -200.5t16.5 -220.5t-16.5 -222t-55 -205t-96.5 -171t-146.5 -115t-199.5 -43q-110 0 -198.5 43t-146 115t-96 170.5t-55 204.5t-16.5 223z" />
    <glyph glyph-name="zero.tf" horiz-adv-x="1286" 
d="M643 98q79 0 143 38.5t105.5 101t70 146t40.5 170.5t12 177q0 114 -20.5 219t-62.5 196.5t-116 146.5t-172 55q-97 0 -171 -55t-116.5 -146t-63 -196.5t-20.5 -219.5q0 -90 12.5 -177t41 -170.5t70 -146t105.5 -101t142 -38.5zM129 731q0 116 16.5 220.5t55.5 200.5
t97 165.5t146.5 111t198.5 41.5q111 0 199.5 -41.5t146.5 -111t96.5 -165.5t55 -200.5t16.5 -220.5t-16.5 -222t-55 -205t-96.5 -171t-146.5 -115t-199.5 -43q-110 0 -198.5 43t-146.5 115t-97 170.5t-55.5 204.5t-16.5 223z" />
    <glyph glyph-name="zero.zero" horiz-adv-x="1214" 
d="M606 98q79 0 143 38.5t105.5 101t70 146t40.5 170.5t12 177q0 252 -86 420l-465 -987q79 -66 180 -66zM94 731q0 116 16.5 220.5t55 200.5t96 165.5t146 111t198.5 41.5q111 0 199.5 -41.5t146.5 -111t96.5 -165.5t55 -200.5t16.5 -220.5t-16.5 -222t-55 -205t-96.5 -171
t-146.5 -115t-199.5 -43q-110 0 -198.5 43t-146 115t-96 170.5t-55 204.5t-16.5 223zM238 731q0 -289 104 -467l469 1000q-84 84 -205 84q-78 0 -141.5 -36.5t-105 -97t-69.5 -141.5t-40 -166.5t-12 -175.5z" />
    <glyph glyph-name="one.lf" horiz-adv-x="831" 
d="M625 0h-144v1102h-334v108q58 0 95 2t76 7.5t62.5 16.5t46.5 29t37 45.5t25 64.5t19 87h117v-1462z" />
    <glyph glyph-name="one.tf" horiz-adv-x="1286" 
d="M1169 119v-119h-989v119h410v983h-334v108q68 0 109 2.5t83.5 11t66.5 25t46 45t35 69t22 99.5h115v-1343h436z" />
    <glyph glyph-name="two.lf" horiz-adv-x="1169" 
d="M127 1001q2 222 123.5 345.5t345.5 123.5q208 0 326 -112.5t118 -298.5q0 -88 -21 -157.5t-72 -130t-85 -91t-111 -89.5q-19 -15 -28 -22q-33 -25 -91 -67.5t-93 -68.5t-81.5 -67t-75 -75t-54.5 -79.5t-37 -92.5h768v-119h-948q4 66 22 128t39.5 109t61.5 97.5t70 82.5
t84 76t83.5 65.5t87.5 62.5q61 43 88.5 63t72.5 55.5t64.5 56.5t46.5 54t38 61.5t19.5 65.5t8.5 78q0 127 -80 212t-227 85q-152 0 -235 -96.5t-85 -254.5h-143z" />
    <glyph glyph-name="two.tf" horiz-adv-x="1286" 
d="M182 1001q3 222 125 345.5t346 123.5q208 0 326.5 -112.5t118.5 -298.5q0 -71 -19 -134t-37.5 -102t-70 -91t-73 -70t-89.5 -70q-19 -15 -29 -23q-33 -25 -91 -67.5t-93 -68.5t-81.5 -67t-75 -75t-54.5 -79.5t-37 -92.5h768v-119h-950q4 66 23 128t37 106.5t63.5 99
t67 80t85.5 77t80.5 63.5t88.5 63q3 3 5 4q61 43 88.5 63t72.5 55.5t64.5 56.5t46.5 54t38 61.5t19.5 65.5t8.5 78q0 127 -80 212t-227 85q-153 0 -235.5 -96.5t-85.5 -254.5h-144z" />
    <glyph glyph-name="three.lf" horiz-adv-x="1163" 
d="M176 1087q6 171 118 277t308 106q188 0 297 -97t109 -251q0 -128 -51.5 -205.5t-149.5 -128.5q276 -83 276 -380q0 -192 -130 -311.5t-355 -119.5q-221 0 -343.5 109t-143.5 311v21h149v-25q15 -150 104 -223.5t236 -73.5q152 0 246 87.5t94 228.5q0 68 -21.5 121
t-57 86.5t-85 55.5t-102 31t-111.5 9h-45v133q30 0 84 4q121 9 191.5 74.5t70.5 183.5q0 111 -70.5 174.5t-195.5 63.5q-123 0 -194 -64t-82 -168l-5 -29h-141z" />
    </font>
</defs>
</svg>
