<?xml version="1.0" standalone="no"?>
<!DOCTYPE svg PUBLIC "-//W3C//DTD SVG 1.1//EN" "http://www.w3.org/Graphics/SVG/1.1/DTD/svg11.dtd" >
<svg xmlns="http://www.w3.org/2000/svg" xmlns:xlink="http://www.w3.org/1999/xlink" version="1.1">
<metadata>
Created by FontForge 20170731 at Mon Jun 12 17:39:07 2023
 By Aleksey,,,
(c) 2017-2022. Copyright by TYPE.WELTKERN. All rights reserved.
</metadata>
<defs>
<font id="SLBSans-Light" horiz-adv-x="0" >
  <font-face 
    font-family="SLB Sans Light"
    font-weight="300"
    font-stretch="normal"
    units-per-em="2048"
    panose-1="2 0 5 3 4 0 0 2 0 4"
    ascent="1638"
    descent="-410"
    x-height="1059"
    cap-height="1462"
    bbox="-244 -438 2605 2159"
    underline-thickness="122"
    underline-position="-695"
    unicode-range="U+000D-FEFF"
  />
<missing-glyph horiz-adv-x="1454" 
d="M-4 766h692v696h78v-696h692v-70h-692v-696h-78v696h-692v70z" />
    <glyph glyph-name="f_f" unicode="ff" horiz-adv-x="1167" 
d="M819 1059v162q0 107 48.5 174t156.5 67h102v-65h-102q-60 0 -91.5 -42.5t-31.5 -140.5v-155h184v-66h-184v-993h-82v993h-500v-993h-81v993h-152v66h152v162q0 107 48 174t156 67h103v-65h-103q-60 0 -91.5 -42.5t-31.5 -140.5v-155h500z" />
    <glyph glyph-name="f_i" unicode="fi" horiz-adv-x="950" 
d="M238 1221q0 107 48 174t156 67h103v-65h-103q-60 0 -91.5 -42.5t-31.5 -140.5v-155h185v-66h-185v-993h-81v993h-152v66h152v162zM725 1257v205h86v-205h-86zM727 0v1059h82v-1059h-82z" />
    <glyph glyph-name="f_l" unicode="fl" horiz-adv-x="946" 
d="M238 1221q0 107 48 174t156 67h103v-65h-103q-60 0 -91.5 -42.5t-31.5 -140.5v-155h185v-66h-185v-993h-81v993h-152v66h152v162zM725 0v1462h82v-1462h-82z" />
    <glyph glyph-name=".notdef" horiz-adv-x="1454" 
d="M-4 766h692v696h78v-696h692v-70h-692v-696h-78v696h-692v70z" />
    <glyph glyph-name=".null" horiz-adv-x="1075" 
 />
    <glyph glyph-name=".null" horiz-adv-x="1075" 
 />
    <glyph glyph-name="nonmarkingreturn" horiz-adv-x="682" 
 />
    <glyph glyph-name="CR" unicode="&#xd;" horiz-adv-x="450" 
 />
    <glyph glyph-name="space" unicode=" " horiz-adv-x="450" 
 />
    <glyph glyph-name="exclam" unicode="!" horiz-adv-x="417" 
d="M254 963l-25 -621h-41l-24 621v499h90v-499zM172 0v229h74v-229h-74z" />
    <glyph glyph-name="quotedbl" unicode="&#x22;" horiz-adv-x="569" 
d="M131 1462h102l-16 -450h-53zM336 1462h102l-32 -450h-54z" />
    <glyph glyph-name="numbersign" unicode="#" horiz-adv-x="1183" 
d="M461 1462h78l-72 -508h334l71 508h78l-71 -508h233v-63h-242l-49 -354h232v-64h-242l-66 -473h-77l65 473h-334l-65 -473h-78l66 473h-234v64h244l49 354h-234v63h242zM410 537h333l50 354h-334z" />
    <glyph glyph-name="dollar" unicode="$" horiz-adv-x="1243" 
d="M586 1706h82v-231q171 -13 287.5 -112.5t140.5 -285.5h-86q-13 109 -70.5 185t-140 110.5t-183.5 34.5q-152 0 -254 -79t-102 -212q0 -71 20.5 -120t73.5 -89.5t130 -71.5t204 -67q55 -16 94 -29t87 -33t81.5 -41t67.5 -52t54 -66t33 -82.5t13 -102.5q0 -83 -25 -148
t-67 -106t-101 -68.5t-121.5 -39.5t-135.5 -14v-236h-82v238q-86 7 -163 36.5t-142.5 82t-108 136.5t-51.5 191h86q8 -90 49.5 -164t102.5 -120t134 -70.5t148 -24.5q78 0 145 16t124 50t89.5 95.5t32.5 145.5q0 76 -25 131t-78.5 93.5t-111.5 62.5t-151 51
q-140 41 -226.5 77t-150 84.5t-89.5 109t-26 145.5q0 108 57 189.5t149 124t206 47.5v229z" />
    <glyph glyph-name="percent" unicode="%" horiz-adv-x="1769" 
d="M385 719q-70 0 -118 54t-67.5 129t-19.5 163q0 86 19.5 158.5t67.5 124t118 51.5q53 0 93.5 -29.5t63.5 -79t34.5 -106.5t11.5 -119q0 -65 -11.5 -124t-34.5 -110t-63.5 -81.5t-93.5 -30.5zM106 1063q0 -80 15.5 -150t47.5 -129.5t87.5 -94t128.5 -34.5t128.5 35t87 94.5
t46.5 129.5t15 149t-15 148t-46.5 126.5t-87 91t-128.5 33.5t-128.5 -33.5t-87.5 -91t-47.5 -126.5t-15.5 -148zM553 8l563 1448h80l-563 -1448h-80zM1108 408q0 -80 15.5 -150t47 -129.5t87 -94t128.5 -34.5t128.5 35t87 94.5t46.5 129.5t15 149t-15 148t-46.5 126.5
t-87 91t-128.5 33.5t-128.5 -33.5t-87 -91t-47 -126.5t-15.5 -148zM1182 410q0 63 11.5 120t35 106t64 78t93.5 29t93.5 -29.5t63.5 -78.5t34.5 -106t11.5 -119q0 -65 -11.5 -124t-34.5 -110.5t-63.5 -82t-93.5 -30.5t-93.5 30.5t-64 82t-35 111t-11.5 123.5z" />
    <glyph glyph-name="ampersand" unicode="&#x26;" horiz-adv-x="1251" 
d="M944 236q-79 -115 -187 -180.5t-241 -65.5q-98 0 -180.5 33t-136.5 88t-83.5 126t-29.5 148q0 55 11 101t35.5 84t52 67.5t74.5 61t86.5 55.5t103.5 59q3 1 4 2q-112 141 -152.5 215t-40.5 158q0 116 86 196t221 80q137 0 228.5 -80t91.5 -196q0 -111 -84.5 -204
t-241.5 -185l373 -441q74 141 94 301h74q-28 -198 -117 -362l246 -297h-98zM168 387q0 -83 41.5 -158.5t123 -124.5t183.5 -49q113 0 209.5 62.5t169.5 173.5l-397 469q-162 -91 -211 -129q-90 -70 -111 -163q-8 -37 -8 -81zM342 1188q0 -72 29.5 -127.5t117.5 -172.5
q18 -23 27 -36q155 87 222 161.5t67 174.5q0 92 -66 151.5t-172 59.5q-105 0 -165 -59t-60 -152z" />
    <glyph glyph-name="quotesingle" unicode="'" horiz-adv-x="364" 
d="M131 1462h102l-24 -450h-53z" />
    <glyph glyph-name="parenleft" unicode="(" horiz-adv-x="487" 
d="M416 -391q-156 207 -237 452.5t-81 491.5t81 491.5t237 452.5h76q-320 -437 -320 -944t320 -944h-76z" />
    <glyph glyph-name="parenright" unicode=")" horiz-adv-x="487" 
d="M-4 -391q319 436 319 944t-319 944h76q155 -207 236 -452.5t81 -491.5t-81 -491.5t-236 -452.5h-76z" />
    <glyph glyph-name="asterisk" unicode="*" horiz-adv-x="708" 
d="M82 1329l18 55l226 -81v247h57v-247l225 81l19 -55l-224 -82l136 -194l-50 -35l-135 199l-133 -199l-49 35l133 194z" />
    <glyph glyph-name="plus" unicode="+" horiz-adv-x="1196" 
d="M635 565h438v-65h-438v-443h-74v443h-438v65h438v443h74v-443z" />
    <glyph glyph-name="comma" unicode="," horiz-adv-x="321" 
d="M154 229h94l-129 -460h-62z" />
    <glyph glyph-name="hyphen" unicode="-" horiz-adv-x="942" 
d="M164 578h614v-66h-614v66z" />
    <glyph glyph-name="period" unicode="." horiz-adv-x="335" 
d="M131 229h74v-229h-74v229z" />
    <glyph glyph-name="slash" unicode="/" horiz-adv-x="604" 
d="M496 1571h84l-496 -1761h-84z" />
    <glyph glyph-name="zero" unicode="0" horiz-adv-x="1294" 
d="M647 49q77 0 141.5 28.5t110 79.5t79 116.5t53 143.5t29 156.5t9.5 159.5q0 97 -13 188t-44 179t-78 152.5t-121 104.5t-166 40t-165.5 -39.5t-120.5 -104t-78.5 -152t-44.5 -179t-13 -189.5q0 -99 13 -192t44.5 -183.5t78.5 -158t120.5 -109t165.5 -41.5zM143 731
q0 116 16.5 220.5t54.5 200.5t95 165.5t143.5 111t194.5 41.5t195 -41.5t144 -111t95 -165.5t54 -200.5t16 -220.5t-16 -222t-54 -205t-95 -171t-144 -115t-195 -43t-194.5 43t-143.5 115t-95 170.5t-54.5 204.5t-16.5 223z" />
    <glyph glyph-name="one" unicode="1" horiz-adv-x="1294" 
d="M1157 66v-66h-962v66h376v1062h-313v62q176 0 223 11q58 14 79 62q17 40 31 183q0 5 1 16h61v-1396h504z" />
    <glyph glyph-name="two" unicode="2" horiz-adv-x="1294" 
d="M203 1010q5 205 119 332.5t323 127.5q107 0 190.5 -31.5t135 -86t78 -124t26.5 -149.5q0 -44 -7.5 -85t-22.5 -77.5t-32 -67t-43 -61t-47 -53t-53.5 -49.5t-52.5 -43t-53.5 -41t-48.5 -37q-31 -24 -95.5 -72.5t-97.5 -74.5t-83 -72.5t-76.5 -83.5t-50.5 -89t-31 -107h819
v-66h-907q4 59 19 113.5t34.5 97t54 88t62 75.5t74 69.5t75 61t81 60t75.5 56.5q146 112 189 152q103 97 127 209q9 45 9 97q0 142 -88 234t-260 92q-165 0 -260.5 -104t-99.5 -291h-82z" />
    <glyph glyph-name="three" unicode="3" horiz-adv-x="1294" 
d="M244 1098q6 161 113.5 266.5t299.5 105.5q185 0 288.5 -92t103.5 -233q0 -62 -14 -114.5t-36.5 -89t-56 -67t-66.5 -50t-75 -36.5q146 -27 235.5 -125t89.5 -274q0 -182 -124.5 -295.5t-348.5 -113.5q-436 0 -473 413l-2 23h82l4 -41q34 -330 389 -330q105 0 192.5 38
t143 118t55.5 188q0 83 -24 147.5t-63 104.5t-94 65.5t-111.5 35.5t-120.5 10h-45v65q30 0 84 4q130 9 213.5 95.5t83.5 228.5q0 120 -82.5 190t-227.5 70q-144 0 -232 -77t-97 -202l-2 -28h-82z" />
    <glyph glyph-name="four" unicode="4" horiz-adv-x="1294" 
d="M176 430v45l651 987h66v-966h207v-66h-207v-430h-82v430h-635zM274 496h537v800h-6z" />
    <glyph glyph-name="five" unicode="5" horiz-adv-x="1294" 
d="M1026 1389h-655l-92 -621q55 92 152.5 150.5t234.5 58.5q221 0 344 -131t123 -371q0 -102 -33.5 -193t-95 -159t-155.5 -108t-208 -40q-195 0 -330.5 113.5t-148.5 302.5h82q13 -157 125 -249.5t272 -92.5q80 0 152.5 27t130.5 78.5t92.5 134.5t34.5 186
q0 201 -104 314.5t-281 113.5q-77 0 -144 -23t-114.5 -61t-78.5 -74t-53 -75l-83 8l112 784h721v-73z" />
    <glyph glyph-name="six" unicode="6" horiz-adv-x="1294" 
d="M141 700q0 121 15.5 229.5t52.5 210t93 174.5t143 117t196 44q87 0 155.5 -18.5t115.5 -50t81.5 -79.5t55 -99t34.5 -116h-82q-12 49 -26 85.5t-41 77t-64 66.5t-95.5 43t-133.5 17q-111 0 -194.5 -55t-133 -151t-73 -217t-21.5 -263q64 128 173 193t243 65
q138 0 252.5 -66t180 -181t65.5 -253q0 -216 -141 -357t-357 -141q-119 0 -220.5 50t-168.5 149q-65 94 -85 206t-20 320zM231 473q0 -175 115.5 -299.5t286.5 -124.5q113 0 209.5 57.5t152.5 155t56 211.5q0 115 -54 212.5t-150.5 155.5t-213.5 58q-175 0 -288.5 -118
t-113.5 -308z" />
    <glyph glyph-name="seven" unicode="7" horiz-adv-x="1294" 
d="M1100 1397q-233 -242 -405 -630.5t-195 -766.5h-82q11 190 67.5 398t139.5 390.5t181 338.5t198 262h-822v73h918v-65z" />
    <glyph glyph-name="eight" unicode="8" horiz-adv-x="1294" 
d="M647 1475q183 0 311.5 -103t128.5 -262q0 -118 -72.5 -203t-205.5 -125q87 -19 161.5 -69t125 -134.5t51.5 -187.5q1 -197 -137 -306.5t-363 -109.5t-363 109.5t-137 306.5q1 103 51.5 187.5t125 134.5t161.5 69q-133 40 -205.5 125t-72.5 203q0 159 128.5 262t311.5 103
zM229 391q0 -160 111.5 -251t306.5 -91t306.5 91t111.5 251q0 157 -113.5 254.5t-304.5 97.5t-304.5 -97.5t-113.5 -254.5zM289 1108q0 -132 96 -211.5t262 -79.5t262.5 79.5t96.5 211.5q0 123 -92.5 208t-266.5 85t-266 -85t-92 -208z" />
    <glyph glyph-name="nine" unicode="9" horiz-adv-x="1294" 
d="M137 977q0 216 141 357t357 141q120 0 224 -49.5t171 -147.5q64 -94 81 -202.5t17 -325.5q0 -121 -15.5 -229.5t-52 -210t-92.5 -174.5t-143 -117t-196 -44q-108 0 -187.5 27t-129.5 79.5t-79 113.5t-47 143h82q12 -49 26 -85.5t41.5 -77t64 -66.5t95.5 -43t134 -17
q111 0 194.5 54t133 150t73 216t21.5 262q-51 -113 -162.5 -183.5t-253.5 -70.5q-138 0 -252.5 66t-180 181t-65.5 253zM219 977q0 -115 54 -212.5t150.5 -155.5t213.5 -58q175 0 288 118t113 308q0 176 -115 300t-286 124q-113 0 -209.5 -57.5t-152.5 -155t-56 -211.5z" />
    <glyph glyph-name="colon" unicode=":" horiz-adv-x="335" 
d="M131 940h74v-229h-74v229zM131 0v229h74v-229h-74z" />
    <glyph glyph-name="semicolon" unicode=";" horiz-adv-x="362" 
d="M154 229h94l-129 -460h-62zM154 711v229h73v-229h-73z" />
    <glyph glyph-name="less" unicode="&#x3c;" horiz-adv-x="1214" 
d="M1096 926l-914 -408l914 -407v-70l-977 442v70l977 442v-69z" />
    <glyph glyph-name="equal" unicode="=" horiz-adv-x="1222" 
d="M123 356h977v-65h-977v65zM123 639v66h977v-66h-977z" />
    <glyph glyph-name="greater" unicode="&#x3e;" horiz-adv-x="1214" 
d="M119 926v69l977 -442v-70l-977 -442v70l913 407z" />
    <glyph glyph-name="question" unicode="?" horiz-adv-x="1089" 
d="M135 1053q0 200 118.5 321t299.5 121q179 0 290 -107.5t111 -285.5q0 -57 -13.5 -106t-42 -93t-51 -70.5t-61.5 -68.5q-12 -13 -18 -19q-13 -14 -41 -42.5t-43 -44.5t-37 -45t-33 -54t-19.5 -61t-8.5 -76v-62h-78v76q0 37 5.5 69.5t21.5 65t26 52.5t38 53t37 43t44 46
q12 13 18 19q39 40 53.5 55t44.5 52.5t42 63.5t23 65.5t11 81.5q0 144 -90 233.5t-229 89.5q-142 0 -239 -100.5t-97 -271.5v-23h-82v23zM504 0v229h86v-229h-86z" />
    <glyph glyph-name="at" unicode="@" horiz-adv-x="1701" 
d="M915 -88q-131 0 -251.5 32.5t-220.5 96.5t-174 152.5t-115 206.5t-41 253q0 175 62.5 327t167 256t242 163t285.5 59q214 0 379 -88.5t254.5 -246.5t89.5 -359q0 -236 -84 -356.5t-223 -120.5q-163 0 -178 141q-32 -77 -103 -125.5t-182 -48.5q-66 0 -127 27t-108.5 76
t-76 124t-28.5 164q0 91 34 173.5t88.5 138.5t124 89t140.5 33q94 0 160.5 -46t91.5 -126l11 140h81l-38 -500q-1 -9 -2.5 -27.5t-2.5 -27.5q0 -19 -0.5 -38.5t6.5 -38t18.5 -32.5t34.5 -22.5t56 -8.5q63 0 109.5 32.5t73 90.5t39 130t12.5 159q0 131 -47 246.5t-131 200
t-206 133.5t-266 49q-131 0 -255.5 -57.5t-219 -154.5t-152 -236t-57.5 -292q0 -194 96 -348.5t265 -241t379 -86.5h323v-65h-334zM557 645q0 -142 75.5 -231.5t209.5 -89.5q133 0 201.5 99t68.5 296q0 127 -62 207t-176 80q-130 0 -223.5 -105.5t-93.5 -255.5z" />
    <glyph glyph-name="A" unicode="A" horiz-adv-x="1323" 
d="M135 0h-90l551 1462h131l551 -1462h-90l-182 489h-691zM342 559h639l-317 834h-5z" />
    <glyph glyph-name="B" unicode="B" horiz-adv-x="1243" 
d="M164 0v1462h454q96 0 177 -23t143.5 -68t97.5 -118.5t35 -169.5q0 -125 -80.5 -211.5t-195.5 -107.5v-2q68 -6 128 -34t107.5 -74t75 -115t27.5 -152q0 -178 -130.5 -282.5t-340.5 -104.5h-498zM250 70h391q190 0 298 88t108 229q0 160 -101 246t-287 86h-409v-649z
M250 788h330q194 0 299.5 75.5t105.5 219.5q0 150 -98 230t-289 80h-348v-605z" />
    <glyph glyph-name="C" unicode="C" horiz-adv-x="1505" 
d="M1440 397q-53 -191 -215 -302t-404 -111q-169 0 -308.5 58t-232.5 159t-143.5 237t-50.5 291t50.5 291t143.5 237t232.5 159.5t308.5 58.5q237 0 392.5 -108t222.5 -298h-88q-54 154 -186.5 245t-340.5 91q-129 0 -237.5 -38.5t-183.5 -104t-127 -153t-76.5 -183.5
t-24.5 -197t24.5 -197t76.5 -183.5t127 -153t183.5 -104t237.5 -38.5q211 0 344.5 93.5t186.5 250.5h88z" />
    <glyph glyph-name="D" unicode="D" horiz-adv-x="1376" 
d="M565 1462q340 0 532.5 -188.5t192.5 -511.5q0 -156 -49.5 -294.5t-138.5 -242.5t-223 -164.5t-293 -60.5h-422v1462h401zM250 70h344q119 0 227 45t194 129.5t137.5 218.5t51.5 299q0 128 -33.5 234t-92 178.5t-138.5 122.5t-171 73t-191 23h-328v-1323z" />
    <glyph glyph-name="E" unicode="E" horiz-adv-x="1157" 
d="M1020 1462v-69h-770v-609h727v-69h-727v-645h776v-70h-862v1462h856z" />
    <glyph glyph-name="F" unicode="F" horiz-adv-x="1083" 
d="M164 0v1462h837v-69h-751v-609h688v-69h-688v-715h-86z" />
    <glyph glyph-name="G" unicode="G" horiz-adv-x="1548" 
d="M827 637v70h605l-21 -707h-61l-4 340q-64 -164 -203.5 -262t-354.5 -98q-167 0 -301.5 58.5t-221.5 161t-133 238t-46 291.5q0 208 85 377.5t249.5 271t380.5 101.5q123 0 225 -32t173.5 -90t119.5 -129.5t76 -158.5h-88q-24 70 -62 128t-97.5 107.5t-148 77t-198.5 27.5
q-154 0 -277.5 -59.5t-198.5 -157.5t-114 -217t-39 -246q0 -102 21.5 -197.5t69.5 -184t118 -154.5t174.5 -105t232.5 -39q173 0 300 78.5t190 210t63 299.5h-514z" />
    <glyph glyph-name="H" unicode="H" horiz-adv-x="1345" 
d="M1096 1462h86v-1462h-86v715h-846v-715h-86v1462h86v-678h846v678z" />
    <glyph glyph-name="I" unicode="I" horiz-adv-x="413" 
d="M164 1462h86v-1462h-86v1462z" />
    <glyph glyph-name="J" unicode="J" horiz-adv-x="935" 
d="M162 346q0 -131 69 -212t197 -81t197 81t69 212v1116h86v-1116q0 -164 -95 -263t-257 -99t-257 99t-95 263v55h86v-55z" />
    <glyph glyph-name="K" unicode="K" horiz-adv-x="1253" 
d="M250 0h-86v1462h86v-819l766 819h110l-559 -596l625 -866h-102l-578 809l-262 -281v-528z" />
    <glyph glyph-name="L" unicode="L" horiz-adv-x="1071" 
d="M164 1462h86v-1392h756v-70h-842v1462z" />
    <glyph glyph-name="M" unicode="M" horiz-adv-x="1630" 
d="M164 0v1462h123l528 -1351h2l526 1351h123v-1462h-86v1323h-2l-518 -1323h-90l-518 1323h-2v-1323h-86z" />
    <glyph glyph-name="N" unicode="N" horiz-adv-x="1400" 
d="M164 1462h92l760 -1122q22 -32 68 -105t67 -104v246v1085h86v-1462h-92l-737 1092q-20 29 -74.5 113.5t-83.5 125.5v-287v-1044h-86v1462z" />
    <glyph glyph-name="O" unicode="O" horiz-adv-x="1644" 
d="M821 1481q169 0 309 -59.5t233.5 -161.5t144.5 -239t51 -292q0 -208 -87 -377t-257 -270.5t-394 -101.5q-169 0 -309 59t-232.5 160.5t-143 238t-50.5 291.5q0 124 32 237t94.5 206.5t150 162.5t205.5 107.5t253 38.5zM172 729q0 -101 24.5 -197.5t76.5 -184.5t127 -154
t183.5 -105t237.5 -39q130 0 239.5 39t184.5 105t127.5 154t76.5 184.5t24 197.5t-24 197.5t-76.5 185t-127.5 154.5t-184.5 105.5t-239.5 39.5q-129 0 -237.5 -39.5t-183.5 -105.5t-127 -154.5t-76.5 -185t-24.5 -197.5z" />
    <glyph glyph-name="P" unicode="P" horiz-adv-x="1136" 
d="M559 711q197 0 301.5 87.5t104.5 266.5q0 153 -99.5 240.5t-287.5 87.5h-328v-682h309zM164 0v1462h434q198 0 325.5 -104t127.5 -293q0 -201 -129.5 -312.5t-341.5 -111.5h-330v-641h-86z" />
    <glyph glyph-name="Q" unicode="Q" horiz-adv-x="1644" 
d="M934 399q165 -42 319 -192q109 96 164.5 236t55.5 292q0 101 -24 197.5t-76.5 185t-127.5 154.5t-184.5 105.5t-239.5 39.5q-129 0 -237.5 -39.5t-183.5 -105.5t-127 -154.5t-76.5 -185t-24.5 -197.5t24.5 -197.5t76.5 -184.5t127 -154t183.5 -105t237.5 -39
q217 0 373 107q-68 65 -133 109t-148 69zM86 735q0 124 32 237t94.5 206.5t150 162.5t205.5 107.5t253 38.5q169 0 309 -59.5t233.5 -161.5t144.5 -239t51 -292q0 -176 -64.5 -327.5t-185.5 -253.5q103 -97 223 -142l-21 -61q-144 51 -260 158q-185 -123 -430 -123
q-169 0 -309 59t-232.5 160.5t-143 238t-50.5 291.5z" />
    <glyph glyph-name="R" unicode="R" horiz-adv-x="1273" 
d="M164 -2v1464h485q121 0 212.5 -29.5t147 -83t82.5 -122t27 -152.5q0 -154 -84 -252.5t-235 -136.5q92 -21 147.5 -99.5t114.5 -267.5q35 -113 60.5 -179t62.5 -136v-4h-94q-24 51 -46 112.5t-47 141t-36 111.5q-23 67 -40.5 106.5t-44 80t-58 61t-78 33.5t-109.5 13h-381
v-661h-86zM250 729h409q183 0 278 93t95 253q0 52 -11.5 96.5t-39 86t-71 71t-111.5 47t-156 17.5h-393v-664z" />
    <glyph glyph-name="S" unicode="S" horiz-adv-x="1243" 
d="M207 434q8 -90 49.5 -164t102.5 -120t134 -70.5t148 -24.5q78 0 145 16t124 50t89.5 95.5t32.5 145.5q0 76 -25 131t-78.5 93.5t-111.5 62.5t-151 51q-140 41 -226.5 77t-150 84.5t-89.5 109t-26 145.5q0 113 61.5 196.5t160.5 124t220 40.5q92 0 171 -23.5t144.5 -70.5
t108.5 -125.5t56 -180.5h-86q-13 109 -70.5 185t-140 110.5t-183.5 34.5q-152 0 -254 -79t-102 -212q0 -71 20.5 -120t73.5 -89.5t130 -71.5t204 -67q55 -16 94 -29t87 -33t81.5 -41t67.5 -52t54 -66t33 -82.5t13 -102.5q0 -86 -27 -152.5t-72 -108t-108 -68t-128.5 -37
t-141.5 -10.5q-73 0 -143 15.5t-135 50.5t-115.5 86t-84.5 127t-42 169h86z" />
    <glyph glyph-name="T" unicode="T" horiz-adv-x="1134" 
d="M45 1393v69h1045v-69h-480v-1393h-86v1393h-479z" />
    <glyph glyph-name="U" unicode="U" horiz-adv-x="1331" 
d="M1176 518q0 -117 -31 -213.5t-92.5 -168.5t-160 -112t-226.5 -40t-226.5 40t-160 112t-92.5 168.5t-31 213.5v944h86v-944q0 -135 46 -238t143.5 -165t234.5 -62t234.5 62t143.5 165t46 238v944h86v-944z" />
    <glyph glyph-name="V" unicode="V" horiz-adv-x="1290" 
d="M29 1462h94l520 -1374h4l520 1374h95l-562 -1462h-110z" />
    <glyph glyph-name="W" unicode="W" horiz-adv-x="1796" 
d="M29 1462h92l287 -1102l73 -272h4l70 272l276 1102h132l274 -1093l76 -281h4l72 283l284 1091h94l-290 -1089l-101 -373h-127l-94 367l-258 1001h-2l-258 -1006l-92 -362h-125z" />
    <glyph glyph-name="X" unicode="X" horiz-adv-x="1163" 
d="M29 0l503 752l-495 710h94l451 -637l450 637h94l-495 -710l504 -752h-95l-458 678l-459 -678h-94z" />
    <glyph glyph-name="Y" unicode="Y" horiz-adv-x="1150" 
d="M131 1462q73 -130 221.5 -391t220.5 -391h5q73 130 221.5 391t220.5 391h94l-496 -872v-590h-86v590l-495 872h94z" />
    <glyph glyph-name="Z" unicode="Z" horiz-adv-x="1232" 
d="M106 66l916 1327h-870v69h962v-65l-911 -1327h936v-70h-1033v66z" />
    <glyph glyph-name="bracketleft" unicode="[" horiz-adv-x="501" 
d="M469 1432h-231v-1772h231v-66h-305v1903h305v-65z" />
    <glyph glyph-name="backslash" unicode="\" horiz-adv-x="604" 
d="M109 1571l495 -1761h-84l-495 1761h84z" />
    <glyph glyph-name="bracketright" unicode="]" horiz-adv-x="501" 
d="M33 1432v65h305v-1903h-305v66h231v1772h-231z" />
    <glyph glyph-name="asciicircum" unicode="^" horiz-adv-x="1230" 
d="M578 1427h69l477 -866h-77l-433 791l-430 -791h-78z" />
    <glyph glyph-name="underscore" unicode="_" horiz-adv-x="1425" 
d="M-4 -70h1434v-61h-1434v61z" />
    <glyph glyph-name="grave" unicode="`" horiz-adv-x="466" 
d="M137 1462l205 -268h-61l-242 268h98z" />
    <glyph glyph-name="a" unicode="a" horiz-adv-x="1081" 
d="M156 748q13 61 44 116t79.5 101.5t120 74t155.5 27.5q102 0 178.5 -25t121 -68.5t66 -97.5t21.5 -118l2 -537q0 -104 19 -221h-86q-11 67 -11 172v59h-2q-124 -243 -395 -243q-182 0 -282.5 85t-100.5 214q0 249 422 313q63 10 100.5 16.5t85 17t74 21.5t51.5 26.5
t36 35.5t11 45q0 122 -86 180.5t-225 58.5q-121 0 -203 -64.5t-114 -188.5h-82zM168 287q0 -99 79 -166.5t222 -67.5q171 0 285 118.5t114 315.5v175q-27 -46 -117.5 -75t-242.5 -52q-158 -24 -249 -87.5t-91 -160.5z" />
    <glyph glyph-name="b" unicode="b" horiz-adv-x="1161" 
d="M610 1067q118 0 211.5 -44.5t150 -120.5t86 -171.5t29.5 -204.5q0 -86 -18 -163.5t-56.5 -145.5t-93.5 -118t-134.5 -78.5t-174.5 -28.5q-268 0 -387 233h-2v-225h-82v1462h82v-622h2q125 227 387 227zM213 526q0 -66 13 -130t43.5 -125.5t75.5 -108t113.5 -75
t151.5 -28.5q185 0 290.5 132t105.5 335q0 208 -105.5 341.5t-290.5 133.5t-291 -133.5t-106 -341.5z" />
    <glyph glyph-name="c" unicode="c" horiz-adv-x="1105" 
d="M1020 289q-39 -137 -155.5 -217t-284.5 -80q-119 0 -216 44t-159.5 118t-96.5 170t-34 202q0 107 34 204t96.5 172.5t159.5 120t216 44.5q164 0 279 -77.5t155 -209.5h-88q-35 105 -127.5 163t-218.5 58q-188 0 -306 -135.5t-118 -339.5q0 -131 52.5 -237t150 -168
t221.5 -62q129 0 223 60.5t129 169.5h88z" />
    <glyph glyph-name="d" unicode="d" horiz-adv-x="1161" 
d="M551 1067q262 0 387 -227h2v622h82v-1462h-82v225h-2q-119 -233 -387 -233q-95 0 -174.5 28.5t-134.5 78.5t-93.5 118t-56.5 145.5t-18 163.5q0 109 29.5 204.5t86 171.5t150 120.5t211.5 44.5zM156 526q0 -133 45 -237.5t135.5 -167t214.5 -62.5q83 0 151.5 28.5
t113.5 75t75.5 108t43.5 125.5t13 130q0 208 -106 341.5t-291 133.5t-290 -133.5t-105 -341.5z" />
    <glyph glyph-name="e" unicode="e" horiz-adv-x="1112" 
d="M1026 311q-50 -144 -167 -231.5t-288 -87.5q-95 0 -176.5 28.5t-139.5 78.5t-99.5 117.5t-61.5 146t-20 163.5q0 107 32.5 204t92.5 172.5t154.5 120t209.5 44.5q111 0 197 -36.5t141 -104t85.5 -155t39.5 -196.5q4 -50 4 -73h-876q6 -191 121 -317t296 -126
q130 0 227 68t142 184h86zM154 567h796q-21 211 -114 322.5t-273 111.5q-172 0 -285 -122.5t-124 -311.5z" />
    <glyph glyph-name="f" unicode="f" horiz-adv-x="585" 
d="M238 1221q0 107 48 174t156 67h103v-65h-103q-60 0 -91.5 -42.5t-31.5 -140.5v-155h185v-66h-185v-993h-81v993h-152v66h152v162z" />
    <glyph glyph-name="g" unicode="g" horiz-adv-x="1161" 
d="M940 1059h82v-1026q0 -93 -26 -171.5t-78.5 -140.5t-141 -97.5t-205.5 -35.5q-196 0 -308.5 94t-139.5 257h86q28 -137 114.5 -210t247.5 -73q187 0 278 105.5t91 291.5v172h-2q-119 -233 -387 -233q-95 0 -174.5 28.5t-134.5 78.5t-93.5 118t-56.5 145.5t-18 163.5
q0 109 29.5 204.5t86 171.5t150 120.5t211.5 44.5q262 0 387 -227h2v219zM156 526q0 -133 45 -237.5t135.5 -167t214.5 -62.5q83 0 151.5 28.5t113.5 75t75.5 108t43.5 125.5t13 130q0 208 -106 341.5t-291 133.5t-290 -133.5t-105 -341.5z" />
    <glyph glyph-name="h" unicode="h" horiz-adv-x="1079" 
d="M139 0v1462h82v-606q46 99 127.5 155t216.5 56q383 0 383 -410v-657h-82v657q0 95 -23.5 163.5t-66 107t-94.5 56t-117 17.5q-52 0 -98.5 -11.5t-92.5 -42t-79 -78t-53.5 -125.5t-20.5 -179v-565h-82z" />
    <glyph glyph-name="i" unicode="i" horiz-adv-x="364" 
d="M225 1257h-86v205h86v-205zM141 0v1059h82v-1059h-82z" />
    <glyph glyph-name="j" unicode="j" horiz-adv-x="395" 
d="M256 1257h-86v205h86v-205zM-25 -403v65h84q113 0 113 119v1278h84v-1266q0 -100 -48.5 -148t-160.5 -48h-72z" />
    <glyph glyph-name="k" unicode="k" horiz-adv-x="905" 
d="M221 0h-82v1462h82v-938l547 535h104l-454 -447l456 -612h-94l-413 561l-146 -133v-428z" />
    <glyph glyph-name="l" unicode="l" horiz-adv-x="360" 
d="M139 1462h82v-1462h-82v1462z" />
    <glyph glyph-name="m" unicode="m" horiz-adv-x="1632" 
d="M139 0v1059h82v-203q38 95 120 155t183 60q235 0 314 -207q67 112 144 159.5t187 47.5q332 0 332 -414v-657h-82v657q0 349 -250 349q-130 0 -216.5 -102.5t-86.5 -287.5v-616h-82v657q0 184 -71 266.5t-189 82.5q-95 0 -165 -63t-104 -161.5t-34 -216.5v-565h-82z" />
    <glyph glyph-name="n" unicode="n" horiz-adv-x="1079" 
d="M139 0v1059h82v-203q46 99 127.5 155t216.5 56q383 0 383 -410v-657h-82v657q0 95 -23.5 163.5t-66 107t-94.5 56t-117 17.5q-52 0 -98.5 -11.5t-92.5 -42t-79 -78t-53.5 -125.5t-20.5 -179v-565h-82z" />
    <glyph glyph-name="o" unicode="o" horiz-adv-x="1161" 
d="M580 -8q-119 0 -216 44t-159.5 118t-96.5 170t-34 202q0 107 34 204t96.5 172.5t159.5 120t216 44.5q156 0 273.5 -77t175.5 -198.5t58 -265.5q0 -143 -58 -263t-175.5 -195.5t-273.5 -75.5zM156 526q0 -131 52.5 -237t150 -168t221.5 -62q188 0 307 134t119 333
q0 204 -119 339.5t-307 135.5t-306 -135.5t-118 -339.5z" />
    <glyph glyph-name="p" unicode="p" horiz-adv-x="1161" 
d="M610 1067q118 0 211.5 -44.5t150 -120.5t86 -171.5t29.5 -204.5q0 -86 -18 -163.5t-56.5 -145.5t-93.5 -118t-134.5 -78.5t-174.5 -28.5q-268 0 -387 233h-2v-635h-82v1469h82v-219h2q125 227 387 227zM213 526q0 -66 13 -130t43.5 -125.5t75.5 -108t113.5 -75
t151.5 -28.5q185 0 290.5 132t105.5 335q0 208 -105.5 341.5t-290.5 133.5t-291 -133.5t-106 -341.5z" />
    <glyph glyph-name="q" unicode="q" horiz-adv-x="1161" 
d="M551 1067q262 0 387 -227h2v219h82v-1469h-82v635h-2q-119 -233 -387 -233q-95 0 -174.5 28.5t-134.5 78.5t-93.5 118t-56.5 145.5t-18 163.5q0 109 29.5 204.5t86 171.5t150 120.5t211.5 44.5zM156 526q0 -133 45 -237.5t135.5 -167t214.5 -62.5q83 0 151.5 28.5
t113.5 75t75.5 108t43.5 125.5t13 130q0 208 -106 341.5t-291 133.5t-290 -133.5t-105 -341.5z" />
    <glyph glyph-name="r" unicode="r" horiz-adv-x="630" 
d="M221 1059v-209q94 217 348 217v-70q-125 0 -196 -49q-152 -103 -152 -383v-565h-82v1059h82z" />
    <glyph glyph-name="s" unicode="s" horiz-adv-x="919" 
d="M752 745q-14 133 -93 194.5t-194 61.5q-52 0 -97.5 -11t-84.5 -33.5t-61.5 -63t-22.5 -94.5q0 -46 16 -81t48.5 -59.5t68.5 -40.5t88 -30l149 -43q63 -19 108.5 -39t86 -51t61.5 -75t21 -101q0 -61 -23.5 -110t-61 -81t-87.5 -53t-101 -30t-104 -9t-102 10.5t-96 34
t-84.5 59.5t-67.5 90t-45 121h82q15 -115 99.5 -182.5t213.5 -67.5q133 0 214 54.5t81 163.5q0 82 -55.5 126t-161.5 74l-148 41q-46 12 -82.5 26.5t-75.5 38t-65 52t-42.5 70.5t-16.5 92q0 66 31 119t82.5 84.5t111.5 48t123 16.5q150 0 245.5 -79t123.5 -243h-82z" />
    <glyph glyph-name="t" unicode="t" horiz-adv-x="536" 
d="M262 184q0 -118 113 -118h84v-66h-72q-112 0 -159.5 48.5t-47.5 148.5v796h-160v66h160v262l82 39v-301h205v-66h-205v-809z" />
    <glyph glyph-name="u" unicode="u" horiz-adv-x="1079" 
d="M131 401v658h82v-658q0 -95 23.5 -163.5t66 -107t94.5 -56t117 -17.5q52 0 98.5 11.5t92.5 42.5t79 78.5t53.5 125.5t20.5 179v565h82v-1059h-82v213q-99 -221 -344 -221q-383 0 -383 409z" />
    <glyph glyph-name="v" unicode="v" horiz-adv-x="974" 
d="M106 1059l381 -950h2l379 950h82q-70 -176 -211 -529.5t-211 -529.5h-82q-71 176 -211 529.5t-210 529.5h81z" />
    <glyph glyph-name="w" unicode="w" horiz-adv-x="1378" 
d="M342 0l-317 1059h81l222 -748q9 -33 28.5 -98t28.5 -98h2l55 198l205 746h84l203 -733l57 -211h2q10 36 32 106.5t32 106.5l215 731h82l-318 -1059h-86l-205 748q-9 31 -26.5 95t-26.5 95h-2q-9 -31 -26.5 -95t-26.5 -95l-209 -748h-86z" />
    <glyph glyph-name="x" unicode="x" horiz-adv-x="972" 
d="M41 0l391 545l-371 514h101l325 -455l324 455h100l-372 -516l393 -543h-101l-344 483l-346 -483h-100z" />
    <glyph glyph-name="y" unicode="y" horiz-adv-x="983" 
d="M106 1059l402 -991h2q61 165 183.5 495.5t183.5 495.5h81q-79 -213 -237.5 -638t-237.5 -638q-18 -49 -34.5 -79.5t-43 -59t-64 -41.5t-89.5 -13h-70v66h74q24 0 44.5 6t36 20.5t26.5 26.5t22 36t16 36t14.5 40.5t12.5 35.5l37 104l-440 1098h81z" />
    <glyph glyph-name="z" unicode="z" horiz-adv-x="972" 
d="M803 995q-22 0 -74 -1t-78 -1h-514v66h752v-58l-727 -938q20 0 55 1.5t51 1.5h629v-66h-821v59z" />
    <glyph glyph-name="braceleft" unicode="{" horiz-adv-x="694" 
d="M535 1448q-66 0 -109 -49t-43 -150v-426q0 -66 -20.5 -121t-51.5 -86.5t-58 -49t-48 -21.5v-4q16 -3 36.5 -14t46 -34t46.5 -53.5t35 -77t14 -100.5v-426q0 -101 43 -149.5t109 -48.5h86v-50h-107q-82 0 -143.5 72.5t-61.5 196.5v389q0 126 -56.5 197t-129.5 71v57
q73 0 129.5 71.5t56.5 197.5v389q0 124 61.5 196t143.5 72h107v-49h-86z" />
    <glyph glyph-name="bar" unicode="|" horiz-adv-x="401" 
d="M164 1774h74v-2212h-74v2212z" />
    <glyph glyph-name="braceright" unicode="}" horiz-adv-x="694" 
d="M160 1448h-86v49h106q82 0 143.5 -72t61.5 -196v-389q0 -126 56.5 -197.5t129.5 -71.5v-57q-73 0 -129.5 -71t-56.5 -197v-389q0 -124 -61.5 -196.5t-143.5 -72.5h-106v50h86q66 0 108.5 48.5t42.5 149.5v426q0 54 14 100.5t35 77t46.5 53.5t46 34t36.5 14v4
q-21 4 -48 21.5t-58 49t-51.5 86.5t-20.5 121v426q0 101 -42.5 150t-108.5 49z" />
    <glyph glyph-name="asciitilde" unicode="~" horiz-adv-x="1284" 
d="M1153 618q-23 -109 -89 -164t-196 -55q-60 0 -124.5 24t-111.5 53t-108.5 53t-115.5 24q-100 0 -145.5 -40.5t-57.5 -113.5h-74q11 100 79.5 159.5t197.5 59.5q68 0 136.5 -24t115.5 -52.5t104 -52.5t104 -24q101 0 146.5 38t64.5 115h74z" />
    <glyph glyph-name="uni00A0" unicode="&#xa0;" horiz-adv-x="450" 
 />
    <glyph glyph-name="exclamdown" unicode="&#xa1;" horiz-adv-x="417" 
d="M254 96v-499h-90v499l24 621h41zM172 829v230h74v-230h-74z" />
    <glyph glyph-name="cent" unicode="&#xa2;" horiz-adv-x="1093" 
d="M547 -209v201q-111 6 -202 52t-149.5 120t-90 167t-31.5 195q0 139 53.5 257t163 196.5t256.5 87.5v197h78v-199q148 -10 250 -86t139 -199h-88q-32 96 -111.5 153t-189.5 66v-938q114 9 194.5 68.5t112.5 159.5h88q-36 -127 -140 -206t-255 -89v-203h-78zM156 526
q0 -190 108 -321.5t283 -143.5v938q-175 -12 -283 -145.5t-108 -327.5z" />
    <glyph glyph-name="sterling" unicode="&#xa3;" horiz-adv-x="1245" 
d="M88 662v69h195q-8 12 -33.5 51.5t-36 56.5t-30 54t-28.5 63t-16.5 62.5t-7.5 71.5q0 177 131.5 292t335.5 115q112 0 200.5 -34t145 -94.5t88 -138t39.5 -169.5h-82q-47 362 -391 362q-167 0 -276 -92t-109 -241q0 -60 22.5 -115.5t74.5 -136t67 -107.5h432v-69h-397
q24 -61 24 -134q0 -82 -18 -151.5t-53.5 -125.5t-73 -97t-90.5 -86q71 32 119 40.5t108 6.5q33 -1 72 -7.5t61.5 -12.5t60 -16.5t44.5 -12.5q123 -31 198 -25q54 5 120.5 29.5t105.5 56.5l38 -66q-61 -44 -143.5 -69t-165.5 -25q-74 0 -221 39q-3 1 -28 7.5t-31.5 8t-28 7
t-33 7t-29.5 4.5t-34 4t-33 1q-109 0 -209 -68l-68 93q18 19 59 60t60.5 62.5t50 62.5t45 76t26 87t11.5 110q0 68 -32 134h-236z" />
    <glyph glyph-name="currency" unicode="&#xa4;" horiz-adv-x="1228" 
d="M102 715q0 196 127 338l-102 102l53 55l105 -104q141 121 336 121q185 0 331 -123l107 106l53 -55l-106 -106q120 -142 120 -330q0 -190 -120 -332l106 -106l-53 -56l-109 109q-140 -127 -332 -127q-191 0 -333 123l-105 -105l-53 56l102 102q-127 143 -127 332zM180 715
q0 -185 127.5 -314t310.5 -129q112 0 210 56t159.5 160t61.5 231q0 188 -127 315t-301 127q-189 0 -315 -128.5t-126 -317.5z" />
    <glyph glyph-name="yen" unicode="&#xa5;" horiz-adv-x="1150" 
d="M131 1462q73 -130 221.5 -391t220.5 -391h5q73 130 221.5 391t220.5 391h94l-444 -782h258v-66h-295l-15 -24v-92h310v-66h-310v-432h-86v432h-307v66h307v92l-14 24h-293v66h256l-444 782h94z" />
    <glyph glyph-name="brokenbar" unicode="&#xa6;" horiz-adv-x="495" 
d="M289 846h-82v504h82v-504zM207 -137v504h82v-504h-82z" />
    <glyph glyph-name="section" unicode="&#xa7;" horiz-adv-x="1095" 
d="M135 748q0 84 64 144t161 89q-157 89 -157 225q0 66 31.5 119t82.5 85t111 48.5t123 16.5q314 0 369 -322h-82q-14 133 -93 194.5t-194 61.5q-52 0 -97.5 -11t-84.5 -34t-61.5 -63.5t-22.5 -94.5q0 -46 19 -82.5t60 -65.5t85 -50t114 -47q19 -7 56 -21q56 -21 83.5 -31.5
t72 -30.5t65.5 -34.5t49 -38.5t40.5 -48.5t22 -58t9.5 -73.5q0 -82 -59 -141t-150 -93q81 -44 124.5 -100t43.5 -137q0 -61 -23.5 -110t-61 -81t-87.5 -53t-101 -30t-104 -9q-67 0 -127.5 17t-114.5 53t-94.5 98.5t-59.5 146.5h82q15 -115 100 -182t214 -67q133 0 214 54
t81 163q0 34 -11 64t-35 54.5t-47 42.5t-63 37.5t-66.5 30.5t-73.5 29.5t-69 27.5q-153 64 -197 89q-111 64 -134 157q-7 29 -7 62zM217 748q0 -38 18 -72t41 -56t69.5 -47.5t76 -38t88.5 -36.5q153 -63 176 -74q84 22 138.5 77t54.5 124q0 26 -4 48t-9.5 39t-19 33.5
t-23 28t-32.5 24.5t-36.5 21t-45.5 20.5t-49.5 19t-58 21.5t-62.5 23q-52 18 -107 43q-89 -17 -152 -68t-63 -130z" />
    <glyph glyph-name="dieresis" unicode="&#xa8;" horiz-adv-x="722" 
d="M205 1462h74v-176h-74v176zM438 1286v176h74v-176h-74z" />
    <glyph glyph-name="copyright" unicode="&#xa9;" horiz-adv-x="1734" 
d="M868 -49q-159 0 -304 61.5t-249.5 166t-166.5 249.5t-62 305q0 158 62 302.5t166.5 248.5t249.5 165.5t304 61.5q212 0 391.5 -104t284.5 -283.5t105 -390.5q0 -160 -62 -305t-167 -249.5t-249 -166t-303 -61.5zM166 733q0 -144 55.5 -275.5t149.5 -226.5t224 -151.5
t273 -56.5q190 0 351.5 95.5t255.5 259t94 355.5q0 191 -94 353.5t-255.5 258t-351.5 95.5q-143 0 -273 -56t-224 -151t-149.5 -226t-55.5 -274zM510 735q0 161 100 270t273 109q242 0 321 -229h-82q-31 86 -88.5 125t-150.5 39q-144 0 -217.5 -87.5t-73.5 -226.5t73 -226
t218 -87q93 0 155 43t84 121h84q-24 -96 -108.5 -163t-214.5 -67q-173 0 -273 109t-100 270z" />
    <glyph glyph-name="ordfeminine" unicode="&#xaa;" horiz-adv-x="792" 
d="M346 666q-125 0 -193.5 61.5t-68.5 149.5q0 38 13 69.5t39 54t54.5 39t69 28.5t73 19.5t75.5 14.5q107 17 153.5 39t46.5 69q0 71 -53 107.5t-141 36.5q-76 0 -129.5 -42.5t-73.5 -117.5h-84q17 92 91 160.5t192 68.5q66 0 116 -14.5t80.5 -37.5t50 -56t26.5 -65.5
t7 -69.5l2 -349q0 -75 10 -153h-88q-6 41 -6 121v45q-10 -30 -28 -58.5t-48 -57t-78 -45.5t-108 -17zM168 877q0 -61 50.5 -101.5t135.5 -40.5q109 0 182.5 74.5t73.5 208.5v110q-37 -72 -231 -98q-99 -14 -155 -52.5t-56 -100.5z" />
    <glyph glyph-name="guillemotleft" unicode="&#xab;" horiz-adv-x="729" 
d="M90 532l223 410h82l-211 -410l211 -413h-82zM334 532l223 410h82l-211 -410l211 -413h-82z" />
    <glyph glyph-name="logicalnot" unicode="&#xac;" horiz-adv-x="1247" 
d="M123 698v66h1001v-537h-73v471h-928z" />
    <glyph glyph-name="uni00AD" unicode="&#xad;" horiz-adv-x="942" 
d="M164 578h614v-66h-614v66z" />
    <glyph glyph-name="registered" unicode="&#xae;" horiz-adv-x="1734" 
d="M1092 541q30 -104 63 -158v-10h-90q-43 85 -68 176q-19 71 -51.5 102t-95.5 31h-137v-309h-82v731h252q121 0 182 -58.5t61 -150.5q0 -62 -35.5 -111t-99.5 -77q38 -21 58.5 -57t42.5 -109zM86 733q0 -160 62 -305t166.5 -249.5t249.5 -166t304 -61.5t303 61.5t249 166
t167 249.5t62 305q0 211 -105 390.5t-284.5 283.5t-391.5 104q-159 0 -304 -61.5t-249.5 -165.5t-166.5 -248.5t-62 -302.5zM166 733q0 143 55.5 274t149.5 226t224 151t273 56q190 0 351.5 -95.5t255.5 -258t94 -353.5q0 -192 -94 -355.5t-255.5 -259t-351.5 -95.5
q-143 0 -273 56.5t-224 151.5t-149.5 226.5t-55.5 275.5zM713 748h168q75 0 119 41.5t44 105.5q0 143 -167 143h-164v-290z" />
    <glyph glyph-name="macron" unicode="&#xaf;" horiz-adv-x="839" 
d="M82 1298h672v-49h-672v49z" />
    <glyph glyph-name="degree" unicode="&#xb0;" horiz-adv-x="671" 
d="M336 1024q86 0 137 55t51 131t-51.5 131.5t-136.5 55.5t-135.5 -55.5t-50.5 -131.5t50.5 -131t135.5 -55zM82 1210q0 105 73.5 179.5t180.5 74.5q104 0 179 -75t75 -179q0 -107 -74.5 -180.5t-179.5 -73.5q-107 0 -180.5 73.5t-73.5 180.5z" />
    <glyph glyph-name="plusminus" unicode="&#xb1;" horiz-adv-x="1220" 
d="M123 182h975v-65h-975v65zM123 594v65h450v291h74v-291h451v-65h-451v-291h-74v291h-450z" />
    <glyph glyph-name="uni00B2" unicode="&#xb2;" horiz-adv-x="690" 
d="M66 801q3 54 23 104t42 83t65.5 73t67 58t74.5 55q48 34 71 51t53.5 45t43.5 49.5t23 52t10 66.5q0 80 -49.5 132t-143.5 52q-97 0 -148 -58.5t-53 -158.5h-73q2 129 72.5 203.5t203.5 74.5q125 0 194.5 -67.5t69.5 -173.5q0 -29 -5.5 -56.5t-12 -47.5t-22.5 -43
t-25 -35.5t-32.5 -34t-31.5 -28.5t-36 -28.5t-33 -25.5q-19 -15 -65 -49.5t-68.5 -53t-53 -49t-47.5 -62t-24 -67.5h469v-61h-559z" />
    <glyph glyph-name="uni00B3" unicode="&#xb3;" horiz-adv-x="710" 
d="M356 786q-134 0 -205.5 65.5t-82.5 186.5l-2 13h75l2 -19q9 -94 65.5 -139t147.5 -45q94 0 154.5 53t60.5 141q0 44 -13.5 78.5t-35.5 56t-52.5 35.5t-63 19.5t-68.5 5.5h-29v66q19 0 51 4q74 5 119 48t45 118q0 69 -44 109t-122 40t-125 -41.5t-53 -107.5l-2 -17h-74
q5 99 71.5 163t182.5 64q113 0 176.5 -57t63.5 -147q0 -81 -33.5 -128.5t-95.5 -76.5q176 -48 176 -232q0 -113 -77 -184.5t-212 -71.5z" />
    <glyph glyph-name="acute" unicode="&#xb4;" horiz-adv-x="522" 
d="M436 1462h99l-242 -268h-62z" />
    <glyph glyph-name="uni00B5" unicode="&#xb5;" horiz-adv-x="1079" 
d="M131 -410v1469h82v-658q0 -81 16 -142.5t42.5 -99.5t66 -61t82 -32t94.5 -9t98.5 11.5t92.5 42.5t79 78.5t53.5 125.5t20.5 179v565h82v-1059h-82v213q-45 -105 -126.5 -163t-217.5 -58q-216 0 -301 141v-543h-82z" />
    <glyph glyph-name="paragraph" unicode="&#xb6;" horiz-adv-x="1085" 
d="M922 -236h-78v1633h-279v-1633h-78v902q-124 0 -221.5 54.5t-148.5 143t-51 193.5q0 201 121 303t356 102h379v-1698z" />
    <glyph glyph-name="periodcentered" unicode="&#xb7;" horiz-adv-x="524" 
d="M262 666q54 0 92.5 -38.5t38.5 -92.5q0 -50 -39.5 -91t-89.5 -41q-54 0 -93.5 39t-39.5 93t38.5 92.5t92.5 38.5z" />
    <glyph glyph-name="cedilla" unicode="&#xb8;" horiz-adv-x="538" 
d="M246 -416q-94 0 -180 41l20 56q43 -22 75.5 -30.5t84.5 -8.5q73 0 117.5 26.5t44.5 77.5q0 45 -27 69.5t-74 24.5q-13 0 -25.5 -1t-24.5 -3t-21 -4t-19.5 -5.5l-16.5 -5.5t-15.5 -6.5t-13 -6t-12 -6.5t-9.5 -5l-41 56l131 147h75l-141 -150l2 -2q62 46 131 46
q77 0 121.5 -37t44.5 -111q0 -54 -33.5 -91.5t-83.5 -54t-110 -16.5z" />
    <glyph glyph-name="uni00B9" unicode="&#xb9;" horiz-adv-x="430" 
d="M250 801v665h-197v56q46 0 71 1t51 6.5t38.5 14.5t24.5 27.5t17.5 43t10.5 62.5h58v-876h-74z" />
    <glyph glyph-name="ordmasculine" unicode="&#xba;" horiz-adv-x="925" 
d="M461 645q-164 0 -261.5 109t-97.5 268q0 160 98 270.5t261 110.5t261.5 -110.5t98.5 -270.5q0 -159 -98 -268t-262 -109zM186 1022q0 -130 77 -217.5t198 -87.5t198.5 88t77.5 217q0 132 -77.5 221.5t-198.5 89.5t-198 -89t-77 -222z" />
    <glyph glyph-name="guillemotright" unicode="&#xbb;" horiz-adv-x="729" 
d="M639 532l-223 -413h-82l211 413l-211 410h82zM90 119l211 413l-211 410h82l223 -410l-223 -413h-82z" />
    <glyph glyph-name="onequarter" unicode="&#xbc;" horiz-adv-x="1325" 
d="M250 584v665h-197v56q46 0 71 1t51 6.5t38.5 14.5t24.5 27.5t17.5 43t10.5 62.5h58v-876h-74zM317 8l564 1448h80l-564 -1448h-80zM698 244v53l392 580h63v-572h115v-61h-115v-244h-74v244h-381zM780 305h299v440h-4z" />
    <glyph glyph-name="onehalf" unicode="&#xbd;" horiz-adv-x="1495" 
d="M250 584v665h-197v56q46 0 71 1t51 6.5t38.5 14.5t24.5 27.5t17.5 43t10.5 62.5h58v-876h-74zM348 8l563 1448h80l-563 -1448h-80zM870 0q3 54 23 104t42 82.5t66 73t67.5 58.5t74.5 55q48 34 71 51.5t53 45t43 49t23 52t10 66.5q0 80 -49 132t-143 52q-97 0 -148 -58.5
t-53 -158.5h-73q2 129 72.5 204t203.5 75q125 0 194.5 -67.5t69.5 -174.5q0 -29 -5.5 -56.5t-12 -47.5t-22.5 -43t-25 -35.5t-32.5 -34t-31.5 -28.5t-36 -28.5t-33 -25.5q-19 -15 -65 -49.5t-68.5 -53t-53 -49t-47.5 -62t-24 -67.5h469v-61h-560z" />
    <glyph glyph-name="threequarters" unicode="&#xbe;" horiz-adv-x="1497" 
d="M356 569q-134 0 -205.5 65.5t-82.5 186.5l-2 13h75l2 -19q9 -94 65.5 -139t147.5 -45q94 0 154.5 53t60.5 141q0 44 -13.5 78.5t-35.5 56t-52.5 35.5t-63 19.5t-68.5 5.5h-29v65q11 0 51 5q74 5 119 48t45 117q0 69 -44 109.5t-122 40.5q-77 0 -124.5 -41.5t-53.5 -108.5
l-2 -16h-74q5 99 71.5 163t182.5 64q113 0 176.5 -57t63.5 -147q0 -81 -33.5 -128.5t-95.5 -76.5q176 -48 176 -232q0 -113 -77 -184.5t-212 -71.5zM494 8l563 1448h80l-564 -1448h-79zM870 244v53l392 580h63v-572h115v-61h-115v-244h-74v244h-381zM952 305h299v440h-4z
" />
    <glyph glyph-name="questiondown" unicode="&#xbf;" horiz-adv-x="1089" 
d="M954 6q0 -200 -118 -321t-299 -121q-179 0 -290.5 107.5t-111.5 285.5q0 28 3 54t11.5 51t14.5 43t22 42.5t22.5 36t28 36t27 31t30.5 33t28 29.5q13 13 41.5 42t43 45t36.5 45t33 54.5t19.5 61.5t8.5 76v61h78v-75q0 -54 -13 -100t-44 -91.5t-51 -68.5t-65 -70
q-12 -13 -18 -19q-86 -88 -115 -130q-59 -87 -59 -187q0 -144 90.5 -234t229.5 -90q142 0 238.5 101t96.5 272v23h82v-23zM500 829v230h86v-230h-86z" />
    <glyph glyph-name="Agrave" unicode="&#xc0;" horiz-adv-x="1323" 
d="M135 0h-90l551 1462h131l551 -1462h-90l-182 489h-691zM342 559h639l-317 834h-5zM379 1802h123l264 -205h-82z" />
    <glyph glyph-name="Aacute" unicode="&#xc1;" horiz-adv-x="1323" 
d="M135 0h-90l551 1462h131l551 -1462h-90l-182 489h-691zM342 559h639l-317 834h-5zM563 1597l264 205h123l-305 -205h-82z" />
    <glyph glyph-name="Acircumflex" unicode="&#xc2;" horiz-adv-x="1323" 
d="M135 0h-90l551 1462h131l551 -1462h-90l-182 489h-691zM336 1577l276 231h99l276 -231h-82l-243 184l-244 -184h-82zM342 559h639l-317 834h-5z" />
    <glyph glyph-name="Atilde" unicode="&#xc3;" horiz-adv-x="1323" 
d="M135 0h-90l551 1462h131l551 -1462h-90l-182 489h-691zM326 1622q0 85 46 132.5t124 47.5q39 0 85.5 -20.5t82 -45t74.5 -45t65 -20.5q62 0 99.5 35t37.5 96h57q0 -83 -57 -132.5t-137 -49.5q-39 0 -85.5 20.5t-82 45t-74.5 45t-65 20.5q-113 0 -113 -129h-57zM342 559
h639l-317 834h-5z" />
    <glyph glyph-name="Adieresis" unicode="&#xc4;" horiz-adv-x="1323" 
d="M135 0h-90l551 1462h131l551 -1462h-90l-182 489h-691zM342 559h639l-317 834h-5zM489 1597v205h78v-205h-78zM752 1597v205h77v-205h-77z" />
    <glyph glyph-name="Aring" unicode="&#xc5;" horiz-adv-x="1323" 
d="M135 0h-90l551 1462h131l551 -1462h-90l-182 489h-691zM342 559h639l-317 834h-5zM432 1792q0 92 65 156.5t156 64.5t156 -64.5t65 -156.5t-65 -156.5t-156 -64.5t-156 64.5t-65 156.5zM502 1790q0 -69 41 -111.5t110 -42.5q68 0 110 43t42 111q0 69 -41.5 111.5
t-110.5 42.5t-110 -42.5t-41 -111.5z" />
    <glyph glyph-name="AE" unicode="&#xc6;" horiz-adv-x="1916" 
d="M45 0l879 1462h856v-69h-705v-609h662v-69h-662v-645h711v-70h-797v489h-559l-295 -489h-90zM473 559h516v834h-14z" />
    <glyph glyph-name="Ccedilla" unicode="&#xc7;" horiz-adv-x="1505" 
d="M1440 397q-50 -181 -199.5 -291t-372.5 -120l-127 -136l2 -2q62 46 131 46q77 0 121.5 -37t44.5 -111q0 -54 -33.5 -91.5t-83.5 -54t-110 -16.5q-94 0 -180 41l20 56q43 -22 75.5 -30.5t84.5 -8.5q73 0 117.5 26.5t44.5 77.5q0 45 -27 69.5t-74 24.5q-13 0 -25.5 -1
t-24.5 -3t-21 -4t-19.5 -5.5l-16.5 -5.5t-15.5 -6.5t-13 -6t-12 -6.5t-9.5 -5l-41 56l117 131q-216 7 -378.5 108.5t-245.5 267t-83 369.5q0 155 50.5 291t143.5 237t232.5 159.5t308.5 58.5q237 0 392.5 -108t222.5 -298h-88q-54 154 -186.5 245t-340.5 91
q-129 0 -237.5 -38.5t-183.5 -104t-127 -153t-76.5 -183.5t-24.5 -197t24.5 -197t76.5 -183.5t127 -153t183.5 -104t237.5 -38.5q211 0 344.5 93.5t186.5 250.5h88z" />
    <glyph glyph-name="Egrave" unicode="&#xc8;" horiz-adv-x="1157" 
d="M1020 1462v-69h-770v-609h727v-69h-727v-645h776v-70h-862v1462h856zM303 1802h123l264 -205h-82z" />
    <glyph glyph-name="Eacute" unicode="&#xc9;" horiz-adv-x="1157" 
d="M1020 1462v-69h-770v-609h727v-69h-727v-645h776v-70h-862v1462h856zM487 1597l265 205h122l-305 -205h-82z" />
    <glyph glyph-name="Ecircumflex" unicode="&#xca;" horiz-adv-x="1157" 
d="M1020 1462v-69h-770v-609h727v-69h-727v-645h776v-70h-862v1462h856zM260 1577l277 231h98l276 -231h-82l-243 184l-244 -184h-82z" />
    <glyph glyph-name="Edieresis" unicode="&#xcb;" horiz-adv-x="1157" 
d="M1020 1462v-69h-770v-609h727v-69h-727v-645h776v-70h-862v1462h856zM414 1597v205h78v-205h-78zM676 1597v205h78v-205h-78z" />
    <glyph glyph-name="Igrave" unicode="&#xcc;" horiz-adv-x="413" 
d="M164 1462h86v-1462h-86v1462zM-76 1802h123l264 -205h-82z" />
    <glyph glyph-name="Iacute" unicode="&#xcd;" horiz-adv-x="413" 
d="M164 1462h86v-1462h-86v1462zM109 1597l264 205h123l-306 -205h-81z" />
    <glyph glyph-name="Icircumflex" unicode="&#xce;" horiz-adv-x="413" 
d="M164 1462h86v-1462h-86v1462zM-119 1577l277 231h98l276 -231h-81l-244 184l-244 -184h-82z" />
    <glyph glyph-name="Idieresis" unicode="&#xcf;" horiz-adv-x="413" 
d="M164 1462h86v-1462h-86v1462zM35 1597v205h78v-205h-78zM297 1597v205h78v-205h-78z" />
    <glyph glyph-name="Eth" unicode="&#xd0;" horiz-adv-x="1376" 
d="M565 1462q340 0 532.5 -188.5t192.5 -511.5q0 -156 -49.5 -294.5t-138.5 -242.5t-223 -164.5t-293 -60.5h-422v698h-158v62h158v702h401zM250 70h344q119 0 227 45t194 129.5t137.5 218.5t51.5 299q0 128 -33.5 234t-92 178.5t-138.5 122.5t-171 73t-191 23h-328v-633
h395v-62h-395v-628z" />
    <glyph glyph-name="Ntilde" unicode="&#xd1;" horiz-adv-x="1400" 
d="M164 1462h92l760 -1122q22 -32 68 -105t67 -104v246v1085h86v-1462h-92l-737 1092q-20 29 -74.5 113.5t-83.5 125.5v-287v-1044h-86v1462zM365 1622q0 85 46 132.5t124 47.5q39 0 85.5 -20.5t82 -45t74.5 -45t65 -20.5q62 0 99.5 35t37.5 96h57q0 -83 -57 -132.5
t-137 -49.5q-39 0 -85.5 20.5t-82 45t-74.5 45t-65 20.5q-113 0 -113 -129h-57z" />
    <glyph glyph-name="Ograve" unicode="&#xd2;" horiz-adv-x="1644" 
d="M821 1481q169 0 309 -59.5t233.5 -161.5t144.5 -239t51 -292q0 -208 -87 -377t-257 -270.5t-394 -101.5q-169 0 -309 59t-232.5 160.5t-143 238t-50.5 291.5q0 124 32 237t94.5 206.5t150 162.5t205.5 107.5t253 38.5zM172 729q0 -101 24.5 -197.5t76.5 -184.5t127 -154
t183.5 -105t237.5 -39q130 0 239.5 39t184.5 105t127.5 154t76.5 184.5t24 197.5t-24 197.5t-76.5 185t-127.5 154.5t-184.5 105.5t-239.5 39.5q-129 0 -237.5 -39.5t-183.5 -105.5t-127 -154.5t-76.5 -185t-24.5 -197.5zM539 1802h123l264 -205h-82z" />
    <glyph glyph-name="Oacute" unicode="&#xd3;" horiz-adv-x="1644" 
d="M821 1481q169 0 309 -59.5t233.5 -161.5t144.5 -239t51 -292q0 -208 -87 -377t-257 -270.5t-394 -101.5q-169 0 -309 59t-232.5 160.5t-143 238t-50.5 291.5q0 124 32 237t94.5 206.5t150 162.5t205.5 107.5t253 38.5zM172 729q0 -101 24.5 -197.5t76.5 -184.5t127 -154
t183.5 -105t237.5 -39q130 0 239.5 39t184.5 105t127.5 154t76.5 184.5t24 197.5t-24 197.5t-76.5 185t-127.5 154.5t-184.5 105.5t-239.5 39.5q-129 0 -237.5 -39.5t-183.5 -105.5t-127 -154.5t-76.5 -185t-24.5 -197.5zM723 1597l264 205h123l-305 -205h-82z" />
    <glyph glyph-name="Ocircumflex" unicode="&#xd4;" horiz-adv-x="1644" 
d="M821 1481q169 0 309 -59.5t233.5 -161.5t144.5 -239t51 -292q0 -208 -87 -377t-257 -270.5t-394 -101.5q-169 0 -309 59t-232.5 160.5t-143 238t-50.5 291.5q0 124 32 237t94.5 206.5t150 162.5t205.5 107.5t253 38.5zM172 729q0 -101 24.5 -197.5t76.5 -184.5t127 -154
t183.5 -105t237.5 -39q130 0 239.5 39t184.5 105t127.5 154t76.5 184.5t24 197.5t-24 197.5t-76.5 185t-127.5 154.5t-184.5 105.5t-239.5 39.5q-129 0 -237.5 -39.5t-183.5 -105.5t-127 -154.5t-76.5 -185t-24.5 -197.5zM496 1577l276 231h98l277 -231h-82l-244 184
l-243 -184h-82z" />
    <glyph glyph-name="Otilde" unicode="&#xd5;" horiz-adv-x="1644" 
d="M821 1481q169 0 309 -59.5t233.5 -161.5t144.5 -239t51 -292q0 -208 -87 -377t-257 -270.5t-394 -101.5q-169 0 -309 59t-232.5 160.5t-143 238t-50.5 291.5q0 124 32 237t94.5 206.5t150 162.5t205.5 107.5t253 38.5zM172 729q0 -101 24.5 -197.5t76.5 -184.5t127 -154
t183.5 -105t237.5 -39q130 0 239.5 39t184.5 105t127.5 154t76.5 184.5t24 197.5t-24 197.5t-76.5 185t-127.5 154.5t-184.5 105.5t-239.5 39.5q-129 0 -237.5 -39.5t-183.5 -105.5t-127 -154.5t-76.5 -185t-24.5 -197.5zM485 1622q0 85 46 132.5t124 47.5q49 0 109.5 -33
t114 -65.5t84.5 -32.5q62 0 99.5 35t37.5 96h57q0 -83 -57 -132.5t-137 -49.5q-49 0 -109.5 33t-114 65.5t-84.5 32.5q-60 0 -86 -32.5t-26 -96.5h-58z" />
    <glyph glyph-name="Odieresis" unicode="&#xd6;" horiz-adv-x="1644" 
d="M821 1481q169 0 309 -59.5t233.5 -161.5t144.5 -239t51 -292q0 -208 -87 -377t-257 -270.5t-394 -101.5q-169 0 -309 59t-232.5 160.5t-143 238t-50.5 291.5q0 124 32 237t94.5 206.5t150 162.5t205.5 107.5t253 38.5zM172 729q0 -101 24.5 -197.5t76.5 -184.5t127 -154
t183.5 -105t237.5 -39q130 0 239.5 39t184.5 105t127.5 154t76.5 184.5t24 197.5t-24 197.5t-76.5 185t-127.5 154.5t-184.5 105.5t-239.5 39.5q-129 0 -237.5 -39.5t-183.5 -105.5t-127 -154.5t-76.5 -185t-24.5 -197.5zM649 1597v205h78v-205h-78zM911 1597v205h78v-205
h-78z" />
    <glyph glyph-name="multiply" unicode="&#xd7;" horiz-adv-x="1167" 
d="M156 899l49 49l379 -379l379 379l49 -49l-379 -379l379 -379l-49 -49l-379 379l-379 -379l-49 49l379 379z" />
    <glyph glyph-name="Oslash" unicode="&#xd8;" horiz-adv-x="1644" 
d="M821 1481q164 0 299.5 -55t231.5 -154l178 162l49 -50l-180 -165q77 -99 118.5 -225t41.5 -265q0 -208 -87 -377t-257 -270.5t-394 -101.5q-168 0 -305 57.5t-235 161.5l-172 -158l-46 49l175 160q-152 203 -152 479q0 124 32 237t94.5 206.5t150 162.5t205.5 107.5
t253 38.5zM172 729q0 -242 127 -424l995 914q-177 192 -473 192q-129 0 -237.5 -39.5t-183.5 -105.5t-127 -154.5t-76.5 -185t-24.5 -197.5zM340 254q177 -205 481 -205q130 0 239.5 39t184.5 105t127.5 154t76.5 184.5t24 197.5q0 249 -136 434z" />
    <glyph glyph-name="Ugrave" unicode="&#xd9;" horiz-adv-x="1331" 
d="M1176 518q0 -117 -31 -213.5t-92.5 -168.5t-160 -112t-226.5 -40t-226.5 40t-160 112t-92.5 168.5t-31 213.5v944h86v-944q0 -135 46 -238t143.5 -165t234.5 -62t234.5 62t143.5 165t46 238v944h86v-944zM389 1802h123l264 -205h-82z" />
    <glyph glyph-name="Uacute" unicode="&#xda;" horiz-adv-x="1331" 
d="M1176 518q0 -117 -31 -213.5t-92.5 -168.5t-160 -112t-226.5 -40t-226.5 40t-160 112t-92.5 168.5t-31 213.5v944h86v-944q0 -135 46 -238t143.5 -165t234.5 -62t234.5 62t143.5 165t46 238v944h86v-944zM573 1597l265 205h123l-306 -205h-82z" />
    <glyph glyph-name="Ucircumflex" unicode="&#xdb;" horiz-adv-x="1331" 
d="M1176 518q0 -117 -31 -213.5t-92.5 -168.5t-160 -112t-226.5 -40t-226.5 40t-160 112t-92.5 168.5t-31 213.5v944h86v-944q0 -135 46 -238t143.5 -165t234.5 -62t234.5 62t143.5 165t46 238v944h86v-944zM346 1577l277 231h98l276 -231h-82l-243 184l-244 -184h-82z" />
    <glyph glyph-name="Udieresis" unicode="&#xdc;" horiz-adv-x="1331" 
d="M1176 518q0 -117 -31 -213.5t-92.5 -168.5t-160 -112t-226.5 -40t-226.5 40t-160 112t-92.5 168.5t-31 213.5v944h86v-944q0 -135 46 -238t143.5 -165t234.5 -62t234.5 62t143.5 165t46 238v944h86v-944zM500 1597v205h78v-205h-78zM762 1597v205h78v-205h-78z" />
    <glyph glyph-name="Yacute" unicode="&#xdd;" horiz-adv-x="1150" 
d="M131 1462q73 -130 221.5 -391t220.5 -391h5q73 130 221.5 391t220.5 391h94l-496 -872v-590h-86v590l-495 872h94zM473 1597l264 205h123l-305 -205h-82z" />
    <glyph glyph-name="Thorn" unicode="&#xde;" horiz-adv-x="1122" 
d="M584 1171q96 0 177.5 -24.5t143 -72t96.5 -123t35 -171.5q0 -200 -129 -309t-342 -109h-315v-362h-86v1462h86v-291h334zM250 432h295q405 0 405 348q0 152 -99 237t-288 85h-313v-670z" />
    <glyph glyph-name="germandbls" unicode="&#xdf;" horiz-adv-x="1034" 
d="M129 1063q0 104 30.5 186t83.5 132t121 76t146 26q161 0 271 -94t110 -256q0 -67 -23.5 -125t-64 -98.5t-87 -68.5t-98.5 -44q166 -29 258.5 -134t92.5 -260q0 -191 -114.5 -304t-334.5 -113q-100 0 -182 20v70q94 -25 182 -25q179 0 273 96t94 256q0 89 -32 157.5
t-86 109t-118.5 60.5t-136.5 20h-68v75q70 3 134 24t115.5 58t82.5 95.5t31 130.5q0 134 -83 209t-216 75q-134 0 -216.5 -91t-82.5 -263v-1063h-82v1063z" />
    <glyph glyph-name="agrave" unicode="&#xe0;" horiz-adv-x="1081" 
d="M156 748q13 61 44 116t79.5 101.5t120 74t155.5 27.5q102 0 178.5 -25t121 -68.5t66 -97.5t21.5 -118l2 -537q0 -104 19 -221h-86q-11 67 -11 172v59h-2q-124 -243 -395 -243q-182 0 -282.5 85t-100.5 214q0 249 422 313q63 10 100.5 16.5t85 17t74 21.5t51.5 26.5
t36 35.5t11 45q0 122 -86 180.5t-225 58.5q-121 0 -203 -64.5t-114 -188.5h-82zM168 287q0 -99 79 -166.5t222 -67.5q171 0 285 118.5t114 315.5v175q-27 -46 -117.5 -75t-242.5 -52q-158 -24 -249 -87.5t-91 -160.5zM334 1466h98l205 -268h-62z" />
    <glyph glyph-name="aacute" unicode="&#xe1;" horiz-adv-x="1081" 
d="M156 748q13 61 44 116t79.5 101.5t120 74t155.5 27.5q102 0 178.5 -25t121 -68.5t66 -97.5t21.5 -118l2 -537q0 -104 19 -221h-86q-11 67 -11 172v59h-2q-124 -243 -395 -243q-182 0 -282.5 85t-100.5 214q0 249 422 313q63 10 100.5 16.5t85 17t74 21.5t51.5 26.5
t36 35.5t11 45q0 122 -86 180.5t-225 58.5q-121 0 -203 -64.5t-114 -188.5h-82zM168 287q0 -99 79 -166.5t222 -67.5q171 0 285 118.5t114 315.5v175q-27 -46 -117.5 -75t-242.5 -52q-158 -24 -249 -87.5t-91 -160.5zM502 1198l205 268h98l-242 -268h-61z" />
    <glyph glyph-name="acircumflex" unicode="&#xe2;" horiz-adv-x="1081" 
d="M156 748q13 61 44 116t79.5 101.5t120 74t155.5 27.5q102 0 178.5 -25t121 -68.5t66 -97.5t21.5 -118l2 -537q0 -104 19 -221h-86q-11 67 -11 172v59h-2q-124 -243 -395 -243q-182 0 -282.5 85t-100.5 214q0 249 422 313q63 10 100.5 16.5t85 17t74 21.5t51.5 26.5
t36 35.5t11 45q0 122 -86 180.5t-225 58.5q-121 0 -203 -64.5t-114 -188.5h-82zM168 287q0 -99 79 -166.5t222 -67.5q171 0 285 118.5t114 315.5v175q-27 -46 -117.5 -75t-242.5 -52q-158 -24 -249 -87.5t-91 -160.5zM295 1198l219 268h86l219 -268h-61l-201 217l-201 -217
h-61z" />
    <glyph glyph-name="atilde" unicode="&#xe3;" horiz-adv-x="1081" 
d="M156 748q13 61 44 116t79.5 101.5t120 74t155.5 27.5q102 0 178.5 -25t121 -68.5t66 -97.5t21.5 -118l2 -537q0 -104 19 -221h-86q-11 67 -11 172v59h-2q-124 -243 -395 -243q-182 0 -282.5 85t-100.5 214q0 249 422 313q63 10 100.5 16.5t85 17t74 21.5t51.5 26.5
t36 35.5t11 45q0 122 -86 180.5t-225 58.5q-121 0 -203 -64.5t-114 -188.5h-82zM168 287q0 -99 79 -166.5t222 -67.5q171 0 285 118.5t114 315.5v175q-27 -46 -117.5 -75t-242.5 -52q-158 -24 -249 -87.5t-91 -160.5zM219 1286q0 85 46 132.5t124 47.5q39 0 85.5 -20.5
t82 -45t74.5 -45t65 -20.5q62 0 100 35t38 96h57q0 -83 -57.5 -132.5t-137.5 -49.5q-39 0 -85.5 20.5t-82 45t-74.5 45t-65 20.5q-113 0 -113 -129h-57z" />
    <glyph glyph-name="adieresis" unicode="&#xe4;" horiz-adv-x="1081" 
d="M156 748q13 61 44 116t79.5 101.5t120 74t155.5 27.5q102 0 178.5 -25t121 -68.5t66 -97.5t21.5 -118l2 -537q0 -104 19 -221h-86q-11 67 -11 172v59h-2q-124 -243 -395 -243q-182 0 -282.5 85t-100.5 214q0 249 422 313q63 10 100.5 16.5t85 17t74 21.5t51.5 26.5
t36 35.5t11 45q0 122 -86 180.5t-225 58.5q-121 0 -203 -64.5t-114 -188.5h-82zM168 287q0 -99 79 -166.5t222 -67.5q171 0 285 118.5t114 315.5v175q-27 -46 -117.5 -75t-242.5 -52q-158 -24 -249 -87.5t-91 -160.5zM399 1290v176h74v-176h-74zM633 1290v176h74v-176h-74z
" />
    <glyph glyph-name="aring" unicode="&#xe5;" horiz-adv-x="1081" 
d="M156 748q13 61 44 116t79.5 101.5t120 74t155.5 27.5q102 0 178.5 -25t121 -68.5t66 -97.5t21.5 -118l2 -537q0 -104 19 -221h-86q-11 67 -11 172v59h-2q-124 -243 -395 -243q-182 0 -282.5 85t-100.5 214q0 249 422 313q63 10 100.5 16.5t85 17t74 21.5t51.5 26.5
t36 35.5t11 45q0 122 -86 180.5t-225 58.5q-121 0 -203 -64.5t-114 -188.5h-82zM168 287q0 -99 79 -166.5t222 -67.5q171 0 285 118.5t114 315.5v175q-27 -46 -117.5 -75t-242.5 -52q-158 -24 -249 -87.5t-91 -160.5zM332 1358q0 92 65 156.5t156 64.5t156 -64.5t65 -156.5
t-65 -156.5t-156 -64.5t-156 64.5t-65 156.5zM401 1356q0 -68 42.5 -112t109.5 -44t109.5 44t42.5 112t-42.5 111.5t-109.5 43.5t-109.5 -43.5t-42.5 -111.5z" />
    <glyph glyph-name="ae" unicode="&#xe6;" horiz-adv-x="1816" 
d="M86 287q0 249 422 313q63 10 100.5 16.5t85 17t74 21.5t51.5 26.5t36 35.5t11 45q0 124 -85.5 181.5t-225.5 57.5q-121 0 -203 -64.5t-114 -188.5h-82q13 61 44 116t79.5 101.5t120 74t155.5 27.5q167 0 260 -68.5t115 -173.5q99 242 358 242q112 0 194 -34t133 -100.5
t78.5 -153.5t37.5 -204q4 -50 4 -73h-787q1 -77 14 -142.5t39.5 -121.5t66.5 -95.5t98 -61.5t130 -22q129 0 217 67t134 185h86q-51 -146 -159.5 -232.5t-277.5 -86.5q-308 0 -389 293q-15 -50 -45 -98t-80.5 -95t-131.5 -75.5t-181 -28.5q-182 0 -282.5 85t-100.5 214z
M168 287q0 -99 79 -166.5t222 -67.5q184 0 291.5 116t107.5 318v175q-27 -47 -116.5 -75.5t-243.5 -51.5q-158 -24 -249 -87.5t-91 -160.5zM948 567h707q-21 224 -104 329t-263 105q-169 0 -252 -117t-88 -317z" />
    <glyph glyph-name="ccedilla" unicode="&#xe7;" horiz-adv-x="1105" 
d="M1020 289q-37 -130 -144 -209t-262 -88l-135 -142l2 -2q62 46 131 46q77 0 121.5 -37t44.5 -111q0 -54 -33.5 -91.5t-83.5 -54t-110 -16.5q-94 0 -180 41l20 56q43 -22 75.5 -30.5t84.5 -8.5q73 0 117.5 26.5t44.5 77.5q0 45 -27 69.5t-74 24.5q-13 0 -25.5 -1t-24.5 -3
t-21 -4t-19.5 -5.5l-16.5 -5.5t-15.5 -6.5t-13 -6t-12 -6.5t-9.5 -5l-41 56l125 141q-109 7 -198.5 53.5t-147 119.5t-88.5 165.5t-31 193.5q0 107 34 204t96.5 172.5t159.5 120t216 44.5q164 0 279 -77.5t155 -209.5h-88q-35 105 -127.5 163t-218.5 58q-188 0 -306 -135.5
t-118 -339.5q0 -131 52.5 -237t150 -168t221.5 -62q129 0 223 60.5t129 169.5h88z" />
    <glyph glyph-name="egrave" unicode="&#xe8;" horiz-adv-x="1112" 
d="M1026 311q-50 -144 -167 -231.5t-288 -87.5q-95 0 -176.5 28.5t-139.5 78.5t-99.5 117.5t-61.5 146t-20 163.5q0 107 32.5 204t92.5 172.5t154.5 120t209.5 44.5q111 0 197 -36.5t141 -104t85.5 -155t39.5 -196.5q4 -50 4 -73h-876q6 -191 121 -317t296 -126
q130 0 227 68t142 184h86zM154 567h796q-21 211 -114 322.5t-273 111.5q-172 0 -285 -122.5t-124 -311.5zM340 1462h98l205 -268h-61z" />
    <glyph glyph-name="eacute" unicode="&#xe9;" horiz-adv-x="1112" 
d="M1026 311q-50 -144 -167 -231.5t-288 -87.5q-95 0 -176.5 28.5t-139.5 78.5t-99.5 117.5t-61.5 146t-20 163.5q0 107 32.5 204t92.5 172.5t154.5 120t209.5 44.5q111 0 197 -36.5t141 -104t85.5 -155t39.5 -196.5q4 -50 4 -73h-876q6 -191 121 -317t296 -126
q130 0 227 68t142 184h86zM154 567h796q-21 211 -114 322.5t-273 111.5q-172 0 -285 -122.5t-124 -311.5zM508 1194l205 268h98l-242 -268h-61z" />
    <glyph glyph-name="ecircumflex" unicode="&#xea;" horiz-adv-x="1112" 
d="M1026 311q-50 -144 -167 -231.5t-288 -87.5q-95 0 -176.5 28.5t-139.5 78.5t-99.5 117.5t-61.5 146t-20 163.5q0 107 32.5 204t92.5 172.5t154.5 120t209.5 44.5q111 0 197 -36.5t141 -104t85.5 -155t39.5 -196.5q4 -50 4 -73h-876q6 -191 121 -317t296 -126
q130 0 227 68t142 184h86zM154 567h796q-21 211 -114 322.5t-273 111.5q-172 0 -285 -122.5t-124 -311.5zM301 1194l219 268h86l219 -268h-61l-201 217l-201 -217h-61z" />
    <glyph glyph-name="edieresis" unicode="&#xeb;" horiz-adv-x="1112" 
d="M1026 311q-50 -144 -167 -231.5t-288 -87.5q-95 0 -176.5 28.5t-139.5 78.5t-99.5 117.5t-61.5 146t-20 163.5q0 107 32.5 204t92.5 172.5t154.5 120t209.5 44.5q111 0 197 -36.5t141 -104t85.5 -155t39.5 -196.5q4 -50 4 -73h-876q6 -191 121 -317t296 -126
q130 0 227 68t142 184h86zM154 567h796q-21 211 -114 322.5t-273 111.5q-172 0 -285 -122.5t-124 -311.5zM406 1286v176h73v-176h-73zM639 1286v176h74v-176h-74z" />
    <glyph glyph-name="igrave" unicode="&#xec;" horiz-adv-x="360" 
d="M139 0v1059h82v-1059h-82zM-41 1462h98l205 -268h-61z" />
    <glyph glyph-name="iacute" unicode="&#xed;" horiz-adv-x="360" 
d="M139 0v1059h82v-1059h-82zM127 1194l205 268h98l-242 -268h-61z" />
    <glyph glyph-name="icircumflex" unicode="&#xee;" horiz-adv-x="360" 
d="M139 0v1059h82v-1059h-82zM-80 1194l219 268h86l219 -268h-61l-201 217l-200 -217h-62z" />
    <glyph glyph-name="idieresis" unicode="&#xef;" horiz-adv-x="360" 
d="M139 0v1059h82v-1059h-82zM25 1286v176h73v-176h-73zM258 1286v176h74v-176h-74z" />
    <glyph glyph-name="eth" unicode="&#xf0;" horiz-adv-x="1161" 
d="M336 1268l254 121q-74 57 -182 122l73 39q115 -79 176 -129l254 121l27 -55l-227 -109q82 -72 144.5 -148.5t117.5 -179.5t84.5 -235.5t29.5 -288.5q0 -143 -58 -263t-175.5 -195.5t-273.5 -75.5q-119 0 -216 44t-159.5 118t-96.5 170t-34 202q0 107 34 204t96.5 172.5
t159.5 120t216 44.5q225 0 368 -156q-86 253 -305 435l-281 -134zM156 526q0 -131 52.5 -237t150 -168t221.5 -62q188 0 307 134t119 333q0 204 -119 339.5t-307 135.5t-306 -135.5t-118 -339.5z" />
    <glyph glyph-name="ntilde" unicode="&#xf1;" horiz-adv-x="1079" 
d="M139 0v1059h82v-203q46 99 127.5 155t216.5 56q383 0 383 -410v-657h-82v657q0 95 -23.5 163.5t-66 107t-94.5 56t-117 17.5q-52 0 -98.5 -11.5t-92.5 -42t-79 -78t-53.5 -125.5t-20.5 -179v-565h-82zM190 1282q0 85 46 132.5t124 47.5q49 0 109.5 -33t114 -65.5
t84.5 -32.5q62 0 99.5 35t37.5 96h57q0 -83 -57 -132.5t-137 -49.5q-49 0 -109.5 33t-114 65.5t-84.5 32.5q-60 0 -86 -32.5t-26 -96.5h-58z" />
    <glyph glyph-name="ograve" unicode="&#xf2;" horiz-adv-x="1161" 
d="M580 -8q-119 0 -216 44t-159.5 118t-96.5 170t-34 202q0 107 34 204t96.5 172.5t159.5 120t216 44.5q156 0 273.5 -77t175.5 -198.5t58 -265.5q0 -143 -58 -263t-175.5 -195.5t-273.5 -75.5zM156 526q0 -131 52.5 -237t150 -168t221.5 -62q188 0 307 134t119 333
q0 204 -119 339.5t-307 135.5t-306 -135.5t-118 -339.5zM358 1462h99l205 -268h-62z" />
    <glyph glyph-name="oacute" unicode="&#xf3;" horiz-adv-x="1161" 
d="M580 -8q-119 0 -216 44t-159.5 118t-96.5 170t-34 202q0 107 34 204t96.5 172.5t159.5 120t216 44.5q156 0 273.5 -77t175.5 -198.5t58 -265.5q0 -143 -58 -263t-175.5 -195.5t-273.5 -75.5zM156 526q0 -131 52.5 -237t150 -168t221.5 -62q188 0 307 134t119 333
q0 204 -119 339.5t-307 135.5t-306 -135.5t-118 -339.5zM526 1194l205 268h98l-241 -268h-62z" />
    <glyph glyph-name="ocircumflex" unicode="&#xf4;" horiz-adv-x="1161" 
d="M580 -8q-119 0 -216 44t-159.5 118t-96.5 170t-34 202q0 107 34 204t96.5 172.5t159.5 120t216 44.5q156 0 273.5 -77t175.5 -198.5t58 -265.5q0 -143 -58 -263t-175.5 -195.5t-273.5 -75.5zM156 526q0 -131 52.5 -237t150 -168t221.5 -62q188 0 307 134t119 333
q0 204 -119 339.5t-307 135.5t-306 -135.5t-118 -339.5zM319 1194l220 268h86l219 -268h-62l-200 217l-201 -217h-62z" />
    <glyph glyph-name="otilde" unicode="&#xf5;" horiz-adv-x="1161" 
d="M580 -8q-119 0 -216 44t-159.5 118t-96.5 170t-34 202q0 107 34 204t96.5 172.5t159.5 120t216 44.5q156 0 273.5 -77t175.5 -198.5t58 -265.5q0 -143 -58 -263t-175.5 -195.5t-273.5 -75.5zM156 526q0 -131 52.5 -237t150 -168t221.5 -62q188 0 307 134t119 333
q0 204 -119 339.5t-307 135.5t-306 -135.5t-118 -339.5zM244 1282q0 85 46 132.5t124 47.5q39 0 85.5 -20.5t82 -45t74.5 -45t65 -20.5q62 0 99.5 35t37.5 96h57q0 -83 -57 -132.5t-137 -49.5q-39 0 -85.5 20.5t-82 45t-74.5 45t-65 20.5q-113 0 -113 -129h-57z" />
    <glyph glyph-name="odieresis" unicode="&#xf6;" horiz-adv-x="1161" 
d="M580 -8q-119 0 -216 44t-159.5 118t-96.5 170t-34 202q0 107 34 204t96.5 172.5t159.5 120t216 44.5q156 0 273.5 -77t175.5 -198.5t58 -265.5q0 -143 -58 -263t-175.5 -195.5t-273.5 -75.5zM156 526q0 -131 52.5 -237t150 -168t221.5 -62q188 0 307 134t119 333
q0 204 -119 339.5t-307 135.5t-306 -135.5t-118 -339.5zM424 1286v176h74v-176h-74zM657 1286v176h74v-176h-74z" />
    <glyph glyph-name="divide" unicode="&#xf7;" horiz-adv-x="1222" 
d="M539 174q0 29 21 50.5t50 21.5t50.5 -21.5t21.5 -50.5t-21.5 -50.5t-50.5 -21.5t-50 21.5t-21 50.5zM123 492v65h977v-65h-977zM539 874q0 29 21 50.5t50 21.5t50.5 -21.5t21.5 -50.5q0 -28 -21.5 -49.5t-50.5 -21.5t-50 21t-21 50z" />
    <glyph glyph-name="oslash" unicode="&#xf8;" horiz-adv-x="1161" 
d="M580 -8q-191 0 -324 110l-102 -116l-58 43l109 125q-131 149 -131 372q0 107 34 204t96.5 172.5t159.5 120t216 44.5q194 0 327 -117l117 131l49 -51l-115 -131q129 -154 129 -373q0 -143 -58 -263t-175.5 -195.5t-273.5 -75.5zM156 526q0 -186 102 -313l600 682
q-112 106 -278 106q-188 0 -306 -135.5t-118 -339.5zM307 160q115 -101 273 -101q188 0 307 134t119 333q0 184 -99 316z" />
    <glyph glyph-name="ugrave" unicode="&#xf9;" horiz-adv-x="1079" 
d="M131 401v658h82v-658q0 -95 23.5 -163.5t66 -107t94.5 -56t117 -17.5q52 0 98.5 11.5t92.5 42.5t79 78.5t53.5 125.5t20.5 179v565h82v-1059h-82v213q-99 -221 -344 -221q-383 0 -383 409zM313 1462h99l204 -268h-61z" />
    <glyph glyph-name="uacute" unicode="&#xfa;" horiz-adv-x="1079" 
d="M131 401v658h82v-658q0 -95 23.5 -163.5t66 -107t94.5 -56t117 -17.5q52 0 98.5 11.5t92.5 42.5t79 78.5t53.5 125.5t20.5 179v565h82v-1059h-82v213q-99 -221 -344 -221q-383 0 -383 409zM481 1194l205 268h98l-241 -268h-62z" />
    <glyph glyph-name="ucircumflex" unicode="&#xfb;" horiz-adv-x="1079" 
d="M131 401v658h82v-658q0 -95 23.5 -163.5t66 -107t94.5 -56t117 -17.5q52 0 98.5 11.5t92.5 42.5t79 78.5t53.5 125.5t20.5 179v565h82v-1059h-82v213q-99 -221 -344 -221q-383 0 -383 409zM274 1194l220 268h86l219 -268h-62l-200 217l-201 -217h-62z" />
    <glyph glyph-name="udieresis" unicode="&#xfc;" horiz-adv-x="1079" 
d="M131 401v658h82v-658q0 -95 23.5 -163.5t66 -107t94.5 -56t117 -17.5q52 0 98.5 11.5t92.5 42.5t79 78.5t53.5 125.5t20.5 179v565h82v-1059h-82v213q-99 -221 -344 -221q-383 0 -383 409zM379 1286v176h74v-176h-74zM612 1286v176h74v-176h-74z" />
    <glyph glyph-name="yacute" unicode="&#xfd;" horiz-adv-x="983" 
d="M106 1059l402 -991h2q61 165 183.5 495.5t183.5 495.5h81q-79 -213 -237.5 -638t-237.5 -638q-18 -49 -34.5 -79.5t-43 -59t-64 -41.5t-89.5 -13h-70v66h74q24 0 44.5 6t36 20.5t26.5 26.5t22 36t16 36t14.5 40.5t12.5 35.5l37 104l-440 1098h81zM428 1194l205 268h98
l-242 -268h-61z" />
    <glyph glyph-name="thorn" unicode="&#xfe;" horiz-adv-x="1161" 
d="M221 -410h-82v1872h82v-622h2q125 227 387 227q118 0 211.5 -44.5t150 -120.5t86 -171.5t29.5 -204.5q0 -86 -18 -163.5t-56.5 -145.5t-93.5 -118t-134.5 -78.5t-174.5 -28.5q-268 0 -387 233h-2v-635zM213 526q0 -66 13 -130t43.5 -125.5t75.5 -108t113.5 -75
t151.5 -28.5q185 0 290.5 132t105.5 335q0 208 -105.5 341.5t-290.5 133.5t-291 -133.5t-106 -341.5z" />
    <glyph glyph-name="ydieresis" unicode="&#xff;" horiz-adv-x="983" 
d="M106 1059l402 -991h2q61 165 183.5 495.5t183.5 495.5h81q-79 -213 -237.5 -638t-237.5 -638q-18 -49 -34.5 -79.5t-43 -59t-64 -41.5t-89.5 -13h-70v66h74q24 0 44.5 6t36 20.5t26.5 26.5t22 36t16 36t14.5 40.5t12.5 35.5l37 104l-440 1098h81zM326 1286v176h73v-176
h-73zM559 1286v176h74v-176h-74z" />
    <glyph glyph-name="Amacron" unicode="&#x100;" horiz-adv-x="1323" 
d="M135 0h-90l551 1462h131l551 -1462h-90l-182 489h-691zM342 559h639l-317 834h-5zM375 1640v50h571v-50h-571z" />
    <glyph glyph-name="amacron" unicode="&#x101;" horiz-adv-x="1081" 
d="M156 748q13 61 44 116t79.5 101.5t120 74t155.5 27.5q102 0 178.5 -25t121 -68.5t66 -97.5t21.5 -118l2 -537q0 -104 19 -221h-86q-11 67 -11 172v59h-2q-124 -243 -395 -243q-182 0 -282.5 85t-100.5 214q0 249 422 313q63 10 100.5 16.5t85 17t74 21.5t51.5 26.5
t36 35.5t11 45q0 122 -86 180.5t-225 58.5q-121 0 -203 -64.5t-114 -188.5h-82zM168 287q0 -99 79 -166.5t222 -67.5q171 0 285 118.5t114 315.5v175q-27 -46 -117.5 -75t-242.5 -52q-158 -24 -249 -87.5t-91 -160.5zM219 1253v50h672v-50h-672z" />
    <glyph glyph-name="Abreve" unicode="&#x102;" horiz-adv-x="1323" 
d="M135 0h-90l551 1462h131l551 -1462h-90l-182 489h-691zM342 559h639l-317 834h-5zM381 1802h61q2 -41 25.5 -83.5t75 -76.5t119.5 -34q51 0 94 19.5t69 50t40 63t16 61.5h61q-8 -99 -84.5 -171t-195.5 -72t-196 72t-85 171z" />
    <glyph glyph-name="abreve" unicode="&#x103;" horiz-adv-x="1081" 
d="M156 748q13 61 44 116t79.5 101.5t120 74t155.5 27.5q102 0 178.5 -25t121 -68.5t66 -97.5t21.5 -118l2 -537q0 -104 19 -221h-86q-11 67 -11 172v59h-2q-124 -243 -395 -243q-182 0 -282.5 85t-100.5 214q0 249 422 313q63 10 100.5 16.5t85 17t74 21.5t51.5 26.5
t36 35.5t11 45q0 122 -86 180.5t-225 58.5q-121 0 -203 -64.5t-114 -188.5h-82zM168 287q0 -99 79 -166.5t222 -67.5q171 0 285 118.5t114 315.5v175q-27 -46 -117.5 -75t-242.5 -52q-158 -24 -249 -87.5t-91 -160.5zM276 1466h62q3 -91 60 -155t159 -64t159 64t60 155h62
q-8 -123 -83 -195.5t-198 -72.5t-198 72.5t-83 195.5z" />
    <glyph glyph-name="Aogonek" unicode="&#x104;" horiz-adv-x="1323" 
d="M135 0h-90l551 1462h131l551 -1462q-94 -65 -132 -110.5t-38 -112.5q0 -56 42.5 -91.5t121.5 -35.5v-45q-91 0 -159.5 44.5t-68.5 127.5q0 70 35 118.5t109 104.5l-182 489h-691zM342 559h639l-317 834h-5z" />
    <glyph glyph-name="aogonek" unicode="&#x105;" horiz-adv-x="1067" 
d="M156 748q13 61 44 116t79.5 101.5t120 74t155.5 27.5q102 0 178.5 -25t121 -68.5t66 -97.5t21.5 -118l2 -537q0 -104 19 -221q-98 -64 -137.5 -110t-39.5 -113q0 -56 46.5 -92.5t128.5 -36.5v-41q-95 0 -165.5 43.5t-70.5 126.5q0 69 37 118t115 105q-11 67 -11 172v59
h-2q-124 -243 -395 -243q-182 0 -282.5 85t-100.5 214q0 249 422 313q63 10 100.5 16.5t85 17t74 21.5t51.5 26.5t36 35.5t11 45q0 122 -86 180.5t-225 58.5q-121 0 -203 -64.5t-114 -188.5h-82zM168 287q0 -99 79 -166.5t222 -67.5q171 0 285 118.5t114 315.5v175
q-27 -46 -117.5 -75t-242.5 -52q-158 -24 -249 -87.5t-91 -160.5z" />
    <glyph glyph-name="Cacute" unicode="&#x106;" horiz-adv-x="1550" 
d="M1440 397q-53 -191 -215 -302t-404 -111q-169 0 -308.5 58t-232.5 159t-143.5 237t-50.5 291t50.5 291t143.5 237t232.5 159.5t308.5 58.5q237 0 392.5 -108t222.5 -298h-88q-54 154 -186.5 245t-340.5 91q-129 0 -237.5 -38.5t-183.5 -104t-127 -153t-76.5 -183.5
t-24.5 -197t24.5 -197t76.5 -183.5t127 -153t183.5 -104t237.5 -38.5q211 0 344.5 93.5t186.5 250.5h88zM723 1597l264 205h123l-305 -205h-82z" />
    <glyph glyph-name="cacute" unicode="&#x107;" horiz-adv-x="1105" 
d="M1020 289q-39 -137 -155.5 -217t-284.5 -80q-119 0 -216 44t-159.5 118t-96.5 170t-34 202q0 107 34 204t96.5 172.5t159.5 120t216 44.5q164 0 279 -77.5t155 -209.5h-88q-35 105 -127.5 163t-218.5 58q-188 0 -306 -135.5t-118 -339.5q0 -131 52.5 -237t150 -168
t221.5 -62q129 0 223 60.5t129 169.5h88zM530 1194l205 268h99l-242 -268h-62z" />
    <glyph glyph-name="Ccircumflex" unicode="&#x108;" horiz-adv-x="1550" 
d="M1440 397q-53 -191 -215 -302t-404 -111q-169 0 -308.5 58t-232.5 159t-143.5 237t-50.5 291t50.5 291t143.5 237t232.5 159.5t308.5 58.5q237 0 392.5 -108t222.5 -298h-88q-54 154 -186.5 245t-340.5 91q-129 0 -237.5 -38.5t-183.5 -104t-127 -153t-76.5 -183.5
t-24.5 -197t24.5 -197t76.5 -183.5t127 -153t183.5 -104t237.5 -38.5q211 0 344.5 93.5t186.5 250.5h88zM496 1577l276 231h98l277 -231h-82l-244 184l-243 -184h-82z" />
    <glyph glyph-name="ccircumflex" unicode="&#x109;" horiz-adv-x="1105" 
d="M1020 289q-39 -137 -155.5 -217t-284.5 -80q-119 0 -216 44t-159.5 118t-96.5 170t-34 202q0 107 34 204t96.5 172.5t159.5 120t216 44.5q164 0 279 -77.5t155 -209.5h-88q-35 105 -127.5 163t-218.5 58q-188 0 -306 -135.5t-118 -339.5q0 -131 52.5 -237t150 -168
t221.5 -62q129 0 223 60.5t129 169.5h88zM324 1194l219 268h86l219 -268h-62l-200 217l-201 -217h-61z" />
    <glyph glyph-name="Cdotaccent" unicode="&#x10a;" horiz-adv-x="1550" 
d="M1440 397q-53 -191 -215 -302t-404 -111q-169 0 -308.5 58t-232.5 159t-143.5 237t-50.5 291t50.5 291t143.5 237t232.5 159.5t308.5 58.5q237 0 392.5 -108t222.5 -298h-88q-54 154 -186.5 245t-340.5 91q-129 0 -237.5 -38.5t-183.5 -104t-127 -153t-76.5 -183.5
t-24.5 -197t24.5 -197t76.5 -183.5t127 -153t183.5 -104t237.5 -38.5q211 0 344.5 93.5t186.5 250.5h88zM782 1606v196h78v-196h-78z" />
    <glyph glyph-name="cdotaccent" unicode="&#x10b;" horiz-adv-x="1105" 
d="M1020 289q-39 -137 -155.5 -217t-284.5 -80q-119 0 -216 44t-159.5 118t-96.5 170t-34 202q0 107 34 204t96.5 172.5t159.5 120t216 44.5q164 0 279 -77.5t155 -209.5h-88q-35 105 -127.5 163t-218.5 58q-188 0 -306 -135.5t-118 -339.5q0 -131 52.5 -237t150 -168
t221.5 -62q129 0 223 60.5t129 169.5h88zM547 1286v176h74v-176h-74z" />
    <glyph glyph-name="Ccaron" unicode="&#x10c;" horiz-adv-x="1550" 
d="M1440 397q-53 -191 -215 -302t-404 -111q-169 0 -308.5 58t-232.5 159t-143.5 237t-50.5 291t50.5 291t143.5 237t232.5 159.5t308.5 58.5q237 0 392.5 -108t222.5 -298h-88q-54 154 -186.5 245t-340.5 91q-129 0 -237.5 -38.5t-183.5 -104t-127 -153t-76.5 -183.5
t-24.5 -197t24.5 -197t76.5 -183.5t127 -153t183.5 -104t237.5 -38.5q211 0 344.5 93.5t186.5 250.5h88zM494 1808h81l244 -184l244 184h82l-277 -231h-98z" />
    <glyph glyph-name="ccaron" unicode="&#x10d;" horiz-adv-x="1105" 
d="M1020 289q-39 -137 -155.5 -217t-284.5 -80q-119 0 -216 44t-159.5 118t-96.5 170t-34 202q0 107 34 204t96.5 172.5t159.5 120t216 44.5q164 0 279 -77.5t155 -209.5h-88q-35 105 -127.5 163t-218.5 58q-188 0 -306 -135.5t-118 -339.5q0 -131 52.5 -237t150 -168
t221.5 -62q129 0 223 60.5t129 169.5h88zM322 1458h61l201 -217l200 217h62l-219 -268h-86z" />
    <glyph glyph-name="Dcaron" unicode="&#x10e;" horiz-adv-x="1376" 
d="M565 1462q340 0 532.5 -188.5t192.5 -511.5q0 -156 -49.5 -294.5t-138.5 -242.5t-223 -164.5t-293 -60.5h-422v1462h401zM250 70h344q119 0 227 45t194 129.5t137.5 218.5t51.5 299q0 128 -33.5 234t-92 178.5t-138.5 122.5t-171 73t-191 23h-328v-1323zM330 1808h82
l243 -184l244 184h82l-276 -231h-99z" />
    <glyph glyph-name="dcaron" unicode="&#x10f;" horiz-adv-x="1161" 
d="M551 1067q262 0 387 -227h2v622h82v-1462h-82v225h-2q-119 -233 -387 -233q-95 0 -174.5 28.5t-134.5 78.5t-93.5 118t-56.5 145.5t-18 163.5q0 109 29.5 204.5t86 171.5t150 120.5t211.5 44.5zM156 526q0 -133 45 -237.5t135.5 -167t214.5 -62.5q83 0 151.5 28.5
t113.5 75t75.5 108t43.5 125.5t13 130q0 208 -106 341.5t-291 133.5t-290 -133.5t-105 -341.5zM1128 1155l17 307h82l-53 -307h-46z" />
    <glyph glyph-name="Dcroat" unicode="&#x110;" horiz-adv-x="1376" 
d="M565 1462q340 0 532.5 -188.5t192.5 -511.5q0 -156 -49.5 -294.5t-138.5 -242.5t-223 -164.5t-293 -60.5h-422v698h-158v62h158v702h401zM250 70h344q119 0 227 45t194 129.5t137.5 218.5t51.5 299q0 128 -33.5 234t-92 178.5t-138.5 122.5t-171 73t-191 23h-328v-633
h395v-62h-395v-628z" />
    <glyph glyph-name="dcroat" unicode="&#x111;" horiz-adv-x="1161" 
d="M551 1067q262 0 387 -227h2v381h-326v61h326v180h82v-180h240v-61h-240v-1221h-82v225h-2q-119 -233 -387 -233q-95 0 -174.5 28.5t-134.5 78.5t-93.5 118t-56.5 145.5t-18 163.5q0 109 29.5 204.5t86 171.5t150 120.5t211.5 44.5zM156 526q0 -133 45 -237.5t135.5 -167
t214.5 -62.5q83 0 151.5 28.5t113.5 75t75.5 108t43.5 125.5t13 130q0 208 -106 341.5t-291 133.5t-290 -133.5t-105 -341.5z" />
    <glyph glyph-name="Emacron" unicode="&#x112;" horiz-adv-x="1157" 
d="M1020 1462v-69h-770v-609h727v-69h-727v-645h776v-70h-862v1462h856zM299 1640v50h571v-50h-571z" />
    <glyph glyph-name="emacron" unicode="&#x113;" horiz-adv-x="1112" 
d="M1026 311q-50 -144 -167 -231.5t-288 -87.5q-95 0 -176.5 28.5t-139.5 78.5t-99.5 117.5t-61.5 146t-20 163.5q0 107 32.5 204t92.5 172.5t154.5 120t209.5 44.5q111 0 197 -36.5t141 -104t85.5 -155t39.5 -196.5q4 -50 4 -73h-876q6 -191 121 -317t296 -126
q130 0 227 68t142 184h86zM154 567h796q-21 211 -114 322.5t-273 111.5q-172 0 -285 -122.5t-124 -311.5zM225 1249v49h672v-49h-672z" />
    <glyph glyph-name="Ebreve" unicode="&#x114;" horiz-adv-x="1157" 
d="M1020 1462v-69h-770v-609h727v-69h-727v-645h776v-70h-862v1462h856zM305 1802h62q2 -29 16 -61.5t40 -63t69 -50t94 -19.5t94 19.5t69 50t40 63t16 61.5h61q-8 -99 -84.5 -171t-195.5 -72t-196 72t-85 171z" />
    <glyph glyph-name="ebreve" unicode="&#x115;" horiz-adv-x="1112" 
d="M1026 311q-50 -144 -167 -231.5t-288 -87.5q-95 0 -176.5 28.5t-139.5 78.5t-99.5 117.5t-61.5 146t-20 163.5q0 107 32.5 204t92.5 172.5t154.5 120t209.5 44.5q111 0 197 -36.5t141 -104t85.5 -155t39.5 -196.5q4 -50 4 -73h-876q6 -191 121 -317t296 -126
q130 0 227 68t142 184h86zM154 567h796q-21 211 -114 322.5t-273 111.5q-172 0 -285 -122.5t-124 -311.5zM283 1462h61q3 -91 60 -155t159 -64t159 64t60 155h62q-8 -123 -83 -195.5t-198 -72.5t-197.5 72.5t-82.5 195.5z" />
    <glyph glyph-name="Edotaccent" unicode="&#x116;" horiz-adv-x="1157" 
d="M1020 1462v-69h-770v-609h727v-69h-727v-645h776v-70h-862v1462h856zM547 1606v196h78v-196h-78z" />
    <glyph glyph-name="edotaccent" unicode="&#x117;" horiz-adv-x="1112" 
d="M1026 311q-50 -144 -167 -231.5t-288 -87.5q-95 0 -176.5 28.5t-139.5 78.5t-99.5 117.5t-61.5 146t-20 163.5q0 107 32.5 204t92.5 172.5t154.5 120t209.5 44.5q111 0 197 -36.5t141 -104t85.5 -155t39.5 -196.5q4 -50 4 -73h-876q6 -191 121 -317t296 -126
q130 0 227 68t142 184h86zM154 567h796q-21 211 -114 322.5t-273 111.5q-172 0 -285 -122.5t-124 -311.5zM524 1286v176h74v-176h-74z" />
    <glyph glyph-name="Eogonek" unicode="&#x118;" horiz-adv-x="1157" 
d="M1020 1462v-69h-770v-609h727v-69h-727v-645h776v-70q-96 -65 -135 -110.5t-39 -112.5q0 -56 43.5 -91.5t124.5 -35.5v-45q-93 0 -162.5 44.5t-69.5 127.5q0 70 35.5 119t110.5 104h-770v1462h856z" />
    <glyph glyph-name="eogonek" unicode="&#x119;" horiz-adv-x="1112" 
d="M1026 311q-43 -125 -139 -209t-234 -104q-89 -62 -125 -107.5t-36 -111.5q0 -56 43 -92.5t122 -36.5v-41q-91 0 -158 43.5t-67 126.5q0 66 32.5 114.5t98.5 98.5q-116 1 -210.5 45.5t-154.5 118.5t-92 169t-32 201q0 107 32.5 204t92.5 172.5t154.5 120t209.5 44.5
q111 0 197 -36.5t141 -104t85.5 -155t39.5 -196.5q4 -50 4 -73h-876q6 -191 121 -317t296 -126q130 0 227 68t142 184h86zM154 567h796q-21 211 -114 322.5t-273 111.5q-172 0 -285 -122.5t-124 -311.5z" />
    <glyph glyph-name="Ecaron" unicode="&#x11a;" horiz-adv-x="1157" 
d="M1020 1462v-69h-770v-609h727v-69h-727v-645h776v-70h-862v1462h856zM258 1808h82l244 -184l243 184h82l-276 -231h-98z" />
    <glyph glyph-name="ecaron" unicode="&#x11b;" horiz-adv-x="1112" 
d="M1026 311q-50 -144 -167 -231.5t-288 -87.5q-95 0 -176.5 28.5t-139.5 78.5t-99.5 117.5t-61.5 146t-20 163.5q0 107 32.5 204t92.5 172.5t154.5 120t209.5 44.5q111 0 197 -36.5t141 -104t85.5 -155t39.5 -196.5q4 -50 4 -73h-876q6 -191 121 -317t296 -126
q130 0 227 68t142 184h86zM154 567h796q-21 211 -114 322.5t-273 111.5q-172 0 -285 -122.5t-124 -311.5zM299 1458h61l201 -217l201 217h61l-219 -268h-86z" />
    <glyph glyph-name="Gcircumflex" unicode="&#x11c;" horiz-adv-x="1548" 
d="M827 637v70h605l-21 -707h-61l-4 340q-64 -164 -203.5 -262t-354.5 -98q-167 0 -301.5 58.5t-221.5 161t-133 238t-46 291.5q0 208 85 377.5t249.5 271t380.5 101.5q123 0 225 -32t173.5 -90t119.5 -129.5t76 -158.5h-88q-24 70 -62 128t-97.5 107.5t-148 77t-198.5 27.5
q-154 0 -277.5 -59.5t-198.5 -157.5t-114 -217t-39 -246q0 -102 21.5 -197.5t69.5 -184t118 -154.5t174.5 -105t232.5 -39q173 0 300 78.5t190 210t63 299.5h-514zM465 1577l276 231h99l276 -231h-82l-243 184l-244 -184h-82z" />
    <glyph glyph-name="gcircumflex" unicode="&#x11d;" horiz-adv-x="1161" 
d="M940 1059h82v-1026q0 -93 -26 -171.5t-78.5 -140.5t-141 -97.5t-205.5 -35.5q-196 0 -308.5 94t-139.5 257h86q28 -137 114.5 -210t247.5 -73q187 0 278 105.5t91 291.5v172h-2q-119 -233 -387 -233q-95 0 -174.5 28.5t-134.5 78.5t-93.5 118t-56.5 145.5t-18 163.5
q0 109 29.5 204.5t86 171.5t150 120.5t211.5 44.5q262 0 387 -227h2v219zM156 526q0 -133 45 -237.5t135.5 -167t214.5 -62.5q83 0 151.5 28.5t113.5 75t75.5 108t43.5 125.5t13 130q0 208 -106 341.5t-291 133.5t-290 -133.5t-105 -341.5zM291 1194l219 268h86l219 -268
h-61l-201 217l-201 -217h-61z" />
    <glyph glyph-name="Gbreve" unicode="&#x11e;" horiz-adv-x="1548" 
d="M827 637v70h605l-21 -707h-61l-4 340q-64 -164 -203.5 -262t-354.5 -98q-167 0 -301.5 58.5t-221.5 161t-133 238t-46 291.5q0 208 85 377.5t249.5 271t380.5 101.5q123 0 225 -32t173.5 -90t119.5 -129.5t76 -158.5h-88q-24 70 -62 128t-97.5 107.5t-148 77t-198.5 27.5
q-154 0 -277.5 -59.5t-198.5 -157.5t-114 -217t-39 -246q0 -102 21.5 -197.5t69.5 -184t118 -154.5t174.5 -105t232.5 -39q173 0 300 78.5t190 210t63 299.5h-514zM510 1802h61q2 -41 25.5 -83.5t75 -76.5t119.5 -34q51 0 94 19.5t69 50t40 63t16 61.5h61q-8 -99 -84.5 -171
t-195.5 -72t-196 72t-85 171z" />
    <glyph glyph-name="gbreve" unicode="&#x11f;" horiz-adv-x="1161" 
d="M940 1059h82v-1026q0 -93 -26 -171.5t-78.5 -140.5t-141 -97.5t-205.5 -35.5q-196 0 -308.5 94t-139.5 257h86q28 -137 114.5 -210t247.5 -73q187 0 278 105.5t91 291.5v172h-2q-119 -233 -387 -233q-95 0 -174.5 28.5t-134.5 78.5t-93.5 118t-56.5 145.5t-18 163.5
q0 109 29.5 204.5t86 171.5t150 120.5t211.5 44.5q262 0 387 -227h2v219zM156 526q0 -133 45 -237.5t135.5 -167t214.5 -62.5q83 0 151.5 28.5t113.5 75t75.5 108t43.5 125.5t13 130q0 208 -106 341.5t-291 133.5t-290 -133.5t-105 -341.5zM272 1462h62q3 -91 60 -155
t159 -64t159 64t60 155h62q-8 -123 -83 -195.5t-198 -72.5t-198 72.5t-83 195.5z" />
    <glyph glyph-name="Gdotaccent" unicode="&#x120;" horiz-adv-x="1548" 
d="M827 637v70h605l-21 -707h-61l-4 340q-64 -164 -203.5 -262t-354.5 -98q-167 0 -301.5 58.5t-221.5 161t-133 238t-46 291.5q0 208 85 377.5t249.5 271t380.5 101.5q123 0 225 -32t173.5 -90t119.5 -129.5t76 -158.5h-88q-24 70 -62 128t-97.5 107.5t-148 77t-198.5 27.5
q-154 0 -277.5 -59.5t-198.5 -157.5t-114 -217t-39 -246q0 -102 21.5 -197.5t69.5 -184t118 -154.5t174.5 -105t232.5 -39q173 0 300 78.5t190 210t63 299.5h-514zM752 1606v196h77v-196h-77z" />
    <glyph glyph-name="gdotaccent" unicode="&#x121;" horiz-adv-x="1161" 
d="M940 1059h82v-1026q0 -93 -26 -171.5t-78.5 -140.5t-141 -97.5t-205.5 -35.5q-196 0 -308.5 94t-139.5 257h86q28 -137 114.5 -210t247.5 -73q187 0 278 105.5t91 291.5v172h-2q-119 -233 -387 -233q-95 0 -174.5 28.5t-134.5 78.5t-93.5 118t-56.5 145.5t-18 163.5
q0 109 29.5 204.5t86 171.5t150 120.5t211.5 44.5q262 0 387 -227h2v219zM156 526q0 -133 45 -237.5t135.5 -167t214.5 -62.5q83 0 151.5 28.5t113.5 75t75.5 108t43.5 125.5t13 130q0 208 -106 341.5t-291 133.5t-290 -133.5t-105 -341.5zM514 1286v176h74v-176h-74z" />
    <glyph glyph-name="uni0122" unicode="&#x122;" horiz-adv-x="1548" 
d="M827 637v70h605l-21 -707h-61l-4 340q-64 -164 -203.5 -262t-354.5 -98q-167 0 -301.5 58.5t-221.5 161t-133 238t-46 291.5q0 208 85 377.5t249.5 271t380.5 101.5q123 0 225 -32t173.5 -90t119.5 -129.5t76 -158.5h-88q-24 70 -62 128t-97.5 107.5t-148 77t-198.5 27.5
q-154 0 -277.5 -59.5t-198.5 -157.5t-114 -217t-39 -246q0 -102 21.5 -197.5t69.5 -184t118 -154.5t174.5 -105t232.5 -39q173 0 300 78.5t190 210t63 299.5h-514zM717 -276v172h127v-150q0 -88 -27.5 -129t-85.5 -41v47q29 8 41 30t12 71h-67z" />
    <glyph glyph-name="uni0123" unicode="&#x123;" horiz-adv-x="1161" 
d="M940 1059h82v-1026q0 -93 -26 -171.5t-78.5 -140.5t-141 -97.5t-205.5 -35.5q-196 0 -308.5 94t-139.5 257h86q28 -137 114.5 -210t247.5 -73q187 0 278 105.5t91 291.5v172h-2q-119 -233 -387 -233q-95 0 -174.5 28.5t-134.5 78.5t-93.5 118t-56.5 145.5t-18 163.5
q0 109 29.5 204.5t86 171.5t150 120.5t211.5 44.5q262 0 387 -227h2v219zM156 526q0 -133 45 -237.5t135.5 -167t214.5 -62.5q83 0 151.5 28.5t113.5 75t75.5 108t43.5 125.5t13 130q0 208 -106 341.5t-291 133.5t-290 -133.5t-105 -341.5zM485 1241v150q0 88 27.5 129
t85.5 41v-48q-30 -8 -41.5 -29.5t-11.5 -70.5h67v-172h-127z" />
    <glyph glyph-name="Hcircumflex" unicode="&#x124;" horiz-adv-x="1345" 
d="M1096 1462h86v-1462h-86v715h-846v-715h-86v1462h86v-678h846v678zM348 1577l277 231h98l276 -231h-81l-244 184l-244 -184h-82z" />
    <glyph glyph-name="hcircumflex" unicode="&#x125;" horiz-adv-x="1079" 
d="M139 0v1462h82v-606q46 99 127.5 155t216.5 56q383 0 383 -410v-657h-82v657q0 95 -23.5 163.5t-66 107t-94.5 56t-117 17.5q-52 0 -98.5 -11.5t-92.5 -42t-79 -78t-53.5 -125.5t-20.5 -179v-565h-82zM-131 1577l276 231h99l276 -231h-82l-243 184l-244 -184h-82z" />
    <glyph glyph-name="Hbar" unicode="&#x126;" horiz-adv-x="1345" 
d="M1096 1462h86v-301h108v-61h-108v-1100h-86v715h-846v-715h-86v1100h-103v61h103v301h86v-301h846v301zM250 784h846v316h-846v-316z" />
    <glyph glyph-name="hbar" unicode="&#x127;" horiz-adv-x="1079" 
d="M139 0v1221h-159v61h159v180h82v-180h457v-61h-457v-365q46 99 127.5 155t216.5 56q383 0 383 -410v-657h-82v657q0 95 -23.5 163.5t-66 107t-94.5 56t-117 17.5q-52 0 -98.5 -11.5t-92.5 -42t-79 -78t-53.5 -125.5t-20.5 -179v-565h-82z" />
    <glyph glyph-name="Itilde" unicode="&#x128;" horiz-adv-x="413" 
d="M164 1462h86v-1462h-86v1462zM-129 1622q0 85 46 132.5t124 47.5q39 0 85.5 -20.5t82 -45t74.5 -45t65 -20.5q62 0 99.5 35t37.5 96h58q0 -83 -57.5 -132.5t-137.5 -49.5q-39 0 -85.5 20.5t-82 45t-74.5 45t-65 20.5q-113 0 -113 -129h-57z" />
    <glyph glyph-name="itilde" unicode="&#x129;" horiz-adv-x="360" 
d="M139 0v1059h82v-1059h-82zM-156 1282q0 85 46 132.5t124 47.5q49 0 109.5 -33t114 -65.5t84.5 -32.5q62 0 99.5 35t37.5 96h57q0 -83 -57 -132.5t-137 -49.5q-49 0 -109.5 33t-114 65.5t-84.5 32.5q-60 0 -86 -32.5t-26 -96.5h-58z" />
    <glyph glyph-name="Imacron" unicode="&#x12a;" horiz-adv-x="413" 
d="M164 1462h86v-1462h-86v1462zM-80 1640v50h572v-50h-572z" />
    <glyph glyph-name="imacron" unicode="&#x12b;" horiz-adv-x="360" 
d="M139 0v1059h82v-1059h-82zM-156 1249v49h672v-49h-672z" />
    <glyph glyph-name="Ibreve" unicode="&#x12c;" horiz-adv-x="413" 
d="M164 1462h86v-1462h-86v1462zM-74 1802h62q2 -29 16 -61.5t40 -63t69 -50t94 -19.5t94 19.5t69 50t40 63t16 61.5h61q-8 -99 -84.5 -171t-195.5 -72t-196 72t-85 171z" />
    <glyph glyph-name="ibreve" unicode="&#x12d;" horiz-adv-x="360" 
d="M139 0v1059h82v-1059h-82zM-98 1462h61q3 -91 60 -155t159 -64t159 64t60 155h62q-8 -123 -83 -195.5t-198 -72.5t-197.5 72.5t-82.5 195.5z" />
    <glyph glyph-name="Iogonek" unicode="&#x12e;" horiz-adv-x="440" 
d="M250 0l-26 -26l-28.5 -28.5t-25 -26.5t-25 -30t-20 -29.5t-17.5 -33t-9.5 -32.5t-4.5 -36q0 -55 44.5 -83.5t105.5 -28.5v-66q-100 0 -164 44t-64 134q0 67 38.5 122.5t109.5 119.5v1462h86v-1462z" />
    <glyph glyph-name="iogonek" unicode="&#x12f;" horiz-adv-x="360" 
d="M139 0v1059h82v-1059q-93 -64 -130.5 -110t-37.5 -113q0 -56 43.5 -92.5t122.5 -36.5v-41q-91 0 -158 43.5t-67 126.5q0 69 35 118t110 105zM143 1286v176h74v-176h-74z" />
    <glyph glyph-name="Idotaccent" unicode="&#x130;" horiz-adv-x="413" 
d="M164 1462h86v-1462h-86v1462zM168 1606v196h78v-196h-78z" />
    <glyph glyph-name="dotlessi" unicode="&#x131;" horiz-adv-x="360" 
d="M139 0v1059h82v-1059h-82z" />
    <glyph glyph-name="IJ" unicode="&#x132;" horiz-adv-x="1024" 
d="M164 1462h86v-979h-86v979zM164 346v55h86v-55q0 -131 69 -212t197 -81t197 81t69 212v1116h86v-1116q0 -164 -95 -263t-257 -99t-257 99t-95 263z" />
    <glyph glyph-name="ij" unicode="&#x133;" horiz-adv-x="702" 
d="M225 1257h-86v205h86v-205zM141 0v1059h82v-1059h-82zM283 -403v65h84q112 0 112 119v1278h84v-1266q0 -100 -48.5 -148t-160.5 -48h-71zM477 1257v205h86v-205h-86z" />
    <glyph glyph-name="Jcircumflex" unicode="&#x134;" horiz-adv-x="935" 
d="M162 346q0 -131 69 -212t197 -81t197 81t69 212v1116h86v-1116q0 -164 -95 -263t-257 -99t-257 99t-95 263v55h86v-55zM410 1577l276 231h98l277 -231h-82l-244 184l-243 -184h-82z" />
    <glyph glyph-name="jcircumflex" unicode="&#x135;" horiz-adv-x="395" 
d="M256 -207q0 -100 -48.5 -148t-160.5 -48h-72v65h84q113 0 113 119v1278h84v-1266zM35 1194l219 268h86l219 -268h-61l-201 217l-201 -217h-61z" />
    <glyph glyph-name="uni0136" unicode="&#x136;" horiz-adv-x="1253" 
d="M250 0h-86v1462h86v-819l766 819h110l-559 -596l625 -866h-102l-578 809l-262 -281v-528zM588 -276v172h127v-150q0 -88 -27.5 -129t-85.5 -41v47q29 8 41 30t12 71h-67z" />
    <glyph glyph-name="uni0137" unicode="&#x137;" horiz-adv-x="905" 
d="M221 0h-82v1462h82v-938l547 535h104l-454 -447l456 -612h-94l-413 561l-146 -133v-428zM399 -276v172h127v-150q0 -88 -27 -129t-85 -41v47q29 8 41 30t12 71h-68z" />
    <glyph glyph-name="kgreenlandic" unicode="&#x138;" horiz-adv-x="905" 
d="M221 0h-82v1059h82v-535l547 535h104l-454 -447l456 -612h-94l-413 561l-146 -133v-428z" />
    <glyph glyph-name="Lacute" unicode="&#x139;" horiz-adv-x="1071" 
d="M164 1462h86v-1392h756v-70h-842v1462zM223 1597l264 205h123l-305 -205h-82z" />
    <glyph glyph-name="lacute" unicode="&#x13a;" horiz-adv-x="360" 
d="M139 1462h82v-1462h-82v1462zM168 1597l264 205h123l-305 -205h-82z" />
    <glyph glyph-name="uni013B" unicode="&#x13b;" horiz-adv-x="1071" 
d="M164 1462h86v-1392h756v-70h-842v1462zM442 -276v172h127v-150q0 -88 -27 -129t-85 -41v47q29 8 41 30t12 71h-68z" />
    <glyph glyph-name="uni013C" unicode="&#x13c;" horiz-adv-x="360" 
d="M139 1462h82v-1462h-82v1462zM96 -276v172h127v-150q0 -88 -27 -129t-85 -41v47q29 8 41 30t12 71h-68z" />
    <glyph glyph-name="Lcaron" unicode="&#x13d;" horiz-adv-x="1071" 
d="M164 1462h86v-1392h756v-70h-842v1462zM465 1055l70 407h83l-104 -407h-49z" />
    <glyph glyph-name="lcaron" unicode="&#x13e;" horiz-adv-x="360" 
d="M139 1462h82v-1462h-82v1462zM326 1155l16 307h82l-53 -307h-45z" />
    <glyph glyph-name="Ldot" unicode="&#x13f;" horiz-adv-x="1071" 
d="M164 1462h86v-1392h756v-70h-842v1462zM766 666v196h78v-196h-78z" />
    <glyph glyph-name="ldot" unicode="&#x140;" horiz-adv-x="559" 
d="M139 1462h82v-1462h-82v1462zM406 674v176h73v-176h-73z" />
    <glyph glyph-name="Lslash" unicode="&#x141;" horiz-adv-x="1071" 
d="M164 1462h86v-790l538 381v-82l-538 -381v-520h756v-70h-842v530l-199 -141v82l199 141v850z" />
    <glyph glyph-name="lslash" unicode="&#x142;" horiz-adv-x="417" 
d="M369 940l-154 -145v-789h-82v711l-149 -144v89l149 143v663h82v-585l154 147v-90z" />
    <glyph glyph-name="Nacute" unicode="&#x143;" horiz-adv-x="1400" 
d="M164 1462h92l760 -1122q22 -32 68 -105t67 -104v246v1085h86v-1462h-92l-737 1092q-20 29 -74.5 113.5t-83.5 125.5v-287v-1044h-86v1462zM602 1597l264 205h123l-305 -205h-82z" />
    <glyph glyph-name="nacute" unicode="&#x144;" horiz-adv-x="1079" 
d="M139 0v1059h82v-203q46 99 127.5 155t216.5 56q383 0 383 -410v-657h-82v657q0 95 -23.5 163.5t-66 107t-94.5 56t-117 17.5q-52 0 -98.5 -11.5t-92.5 -42t-79 -78t-53.5 -125.5t-20.5 -179v-565h-82zM473 1194l205 268h98l-241 -268h-62z" />
    <glyph glyph-name="uni0145" unicode="&#x145;" horiz-adv-x="1400" 
d="M164 1462h92l760 -1122q22 -32 68 -105t67 -104v246v1085h86v-1462h-92l-737 1092q-20 29 -74.5 113.5t-83.5 125.5v-287v-1044h-86v1462zM647 -276v172h127v-150q0 -88 -27 -129t-85 -41v47q29 8 41 30t12 71h-68z" />
    <glyph glyph-name="uni0146" unicode="&#x146;" horiz-adv-x="1079" 
d="M139 0v1059h82v-203q46 99 127.5 155t216.5 56q383 0 383 -410v-657h-82v657q0 95 -23.5 163.5t-66 107t-94.5 56t-117 17.5q-52 0 -98.5 -11.5t-92.5 -42t-79 -78t-53.5 -125.5t-20.5 -179v-565h-82zM473 -276v172h127v-150q0 -88 -27.5 -129t-85.5 -41v47q30 8 42 30
t12 71h-68z" />
    <glyph glyph-name="Ncaron" unicode="&#x147;" horiz-adv-x="1400" 
d="M164 1462h92l760 -1122q22 -32 68 -105t67 -104v246v1085h86v-1462h-92l-737 1092q-20 29 -74.5 113.5t-83.5 125.5v-287v-1044h-86v1462zM373 1808h82l243 -184l244 184h82l-276 -231h-99z" />
    <glyph glyph-name="ncaron" unicode="&#x148;" horiz-adv-x="1079" 
d="M139 0v1059h82v-203q46 99 127.5 155t216.5 56q383 0 383 -410v-657h-82v657q0 95 -23.5 163.5t-66 107t-94.5 56t-117 17.5q-52 0 -98.5 -11.5t-92.5 -42t-79 -78t-53.5 -125.5t-20.5 -179v-565h-82zM264 1458h62l200 -217l201 217h61l-219 -268h-86z" />
    <glyph glyph-name="napostrophe" unicode="&#x149;" horiz-adv-x="1079" 
d="M139 0v1059h82v-203q46 99 127.5 155t216.5 56q383 0 383 -410v-657h-82v657q0 95 -23.5 163.5t-66 107t-94.5 56t-117 17.5q-52 0 -98.5 -11.5t-92.5 -42t-79 -78t-53.5 -125.5t-20.5 -179v-565h-82zM-129 1143l59 160v159h52v-166l-66 -153h-45z" />
    <glyph glyph-name="Eng" unicode="&#x14a;" horiz-adv-x="1400" 
d="M164 1462h92l760 -1122q22 -32 68 -105t67 -104v246v1085h86v-1458v-4q0 -72 -9 -129t-33 -109t-62.5 -87t-100 -56t-143.5 -22v63q139 2 206.5 83t67.5 257h-18l-737 1092q-20 29 -74.5 113.5t-83.5 125.5v-287v-1044h-86v1462z" />
    <glyph glyph-name="eng" unicode="&#x14b;" horiz-adv-x="1079" 
d="M948 -215q0 -90 -55.5 -139t-149.5 -49h-110v65h110q59 0 91 32t32 91v872q0 95 -23.5 163.5t-66 107t-94.5 56t-117 17.5q-52 0 -98.5 -11.5t-92.5 -42t-79 -78t-53.5 -125.5t-20.5 -179v-565h-82v1059h82v-203q46 99 127.5 155t216.5 56q383 0 383 -410v-872z" />
    <glyph glyph-name="Omacron" unicode="&#x14c;" horiz-adv-x="1644" 
d="M821 1481q169 0 309 -59.5t233.5 -161.5t144.5 -239t51 -292q0 -208 -87 -377t-257 -270.5t-394 -101.5q-169 0 -309 59t-232.5 160.5t-143 238t-50.5 291.5q0 124 32 237t94.5 206.5t150 162.5t205.5 107.5t253 38.5zM172 729q0 -101 24.5 -197.5t76.5 -184.5t127 -154
t183.5 -105t237.5 -39q130 0 239.5 39t184.5 105t127.5 154t76.5 184.5t24 197.5t-24 197.5t-76.5 185t-127.5 154.5t-184.5 105.5t-239.5 39.5q-129 0 -237.5 -39.5t-183.5 -105.5t-127 -154.5t-76.5 -185t-24.5 -197.5zM535 1640v50h571v-50h-571z" />
    <glyph glyph-name="omacron" unicode="&#x14d;" horiz-adv-x="1161" 
d="M580 -8q-119 0 -216 44t-159.5 118t-96.5 170t-34 202q0 107 34 204t96.5 172.5t159.5 120t216 44.5q156 0 273.5 -77t175.5 -198.5t58 -265.5q0 -143 -58 -263t-175.5 -195.5t-273.5 -75.5zM156 526q0 -131 52.5 -237t150 -168t221.5 -62q188 0 307 134t119 333
q0 204 -119 339.5t-307 135.5t-306 -135.5t-118 -339.5zM244 1249v49h671v-49h-671z" />
    <glyph glyph-name="Obreve" unicode="&#x14e;" horiz-adv-x="1644" 
d="M821 1481q169 0 309 -59.5t233.5 -161.5t144.5 -239t51 -292q0 -208 -87 -377t-257 -270.5t-394 -101.5q-169 0 -309 59t-232.5 160.5t-143 238t-50.5 291.5q0 124 32 237t94.5 206.5t150 162.5t205.5 107.5t253 38.5zM172 729q0 -101 24.5 -197.5t76.5 -184.5t127 -154
t183.5 -105t237.5 -39q130 0 239.5 39t184.5 105t127.5 154t76.5 184.5t24 197.5t-24 197.5t-76.5 185t-127.5 154.5t-184.5 105.5t-239.5 39.5q-129 0 -237.5 -39.5t-183.5 -105.5t-127 -154.5t-76.5 -185t-24.5 -197.5zM541 1802h61q2 -29 16 -61.5t40 -63t69 -50
t94 -19.5t94 19.5t69 50t40 63t16 61.5h62q-8 -99 -85 -171t-196 -72t-195.5 72t-84.5 171z" />
    <glyph glyph-name="obreve" unicode="&#x14f;" horiz-adv-x="1161" 
d="M580 -8q-119 0 -216 44t-159.5 118t-96.5 170t-34 202q0 107 34 204t96.5 172.5t159.5 120t216 44.5q156 0 273.5 -77t175.5 -198.5t58 -265.5q0 -143 -58 -263t-175.5 -195.5t-273.5 -75.5zM156 526q0 -131 52.5 -237t150 -168t221.5 -62q188 0 307 134t119 333
q0 204 -119 339.5t-307 135.5t-306 -135.5t-118 -339.5zM301 1462h61q3 -91 60.5 -155t159.5 -64t159 64t60 155h61q-8 -123 -82.5 -195.5t-197.5 -72.5t-198 72.5t-83 195.5z" />
    <glyph glyph-name="Ohungarumlaut" unicode="&#x150;" horiz-adv-x="1644" 
d="M821 1481q169 0 309 -59.5t233.5 -161.5t144.5 -239t51 -292q0 -208 -87 -377t-257 -270.5t-394 -101.5q-169 0 -309 59t-232.5 160.5t-143 238t-50.5 291.5q0 124 32 237t94.5 206.5t150 162.5t205.5 107.5t253 38.5zM172 729q0 -101 24.5 -197.5t76.5 -184.5t127 -154
t183.5 -105t237.5 -39q130 0 239.5 39t184.5 105t127.5 154t76.5 184.5t24 197.5t-24 197.5t-76.5 185t-127.5 154.5t-184.5 105.5t-239.5 39.5q-129 0 -237.5 -39.5t-183.5 -105.5t-127 -154.5t-76.5 -185t-24.5 -197.5zM606 1602l205 206h98l-241 -206h-62zM815 1602
l205 206h98l-241 -206h-62z" />
    <glyph glyph-name="ohungarumlaut" unicode="&#x151;" horiz-adv-x="1161" 
d="M580 -8q-119 0 -216 44t-159.5 118t-96.5 170t-34 202q0 107 34 204t96.5 172.5t159.5 120t216 44.5q156 0 273.5 -77t175.5 -198.5t58 -265.5q0 -143 -58 -263t-175.5 -195.5t-273.5 -75.5zM156 526q0 -131 52.5 -237t150 -168t221.5 -62q188 0 307 134t119 333
q0 204 -119 339.5t-307 135.5t-306 -135.5t-118 -339.5zM403 1194l205 268h99l-242 -268h-62zM612 1194l205 268h98l-241 -268h-62z" />
    <glyph glyph-name="OE" unicode="&#x152;" horiz-adv-x="2299" 
d="M86 729q0 154 49 292t136 239.5t214 161t275 59.5q212 0 363.5 -106.5t224.5 -289.5v377h815v-69h-729v-609h686v-69h-686v-645h735v-70h-821v373q-73 -181 -224.5 -287t-363.5 -106q-197 0 -352 101t-238.5 271t-83.5 377zM172 729q0 -100 23.5 -197.5t72.5 -184.5
t117.5 -153.5t165.5 -105.5t209 -39q121 0 221 39t167 105t113.5 154.5t67.5 184t21 197.5t-21 198t-67.5 184.5t-113.5 154.5t-167 105.5t-221 39.5q-112 0 -209 -39t-165.5 -106t-117.5 -154.5t-72.5 -185t-23.5 -197.5z" />
    <glyph glyph-name="oe" unicode="&#x153;" horiz-adv-x="2045" 
d="M580 -8q-119 0 -216 44t-159.5 118t-96.5 170t-34 202q0 107 34 204t96.5 172.5t159.5 120t216 44.5q168 0 289 -87t178 -230q54 144 169.5 230.5t280.5 86.5q111 0 197 -36.5t141 -104t85.5 -155t39.5 -196.5q4 -50 4 -73h-877q6 -191 121.5 -317t296.5 -126
q130 0 227 68t142 184h86q-50 -144 -167 -231.5t-288 -87.5q-170 0 -287 85.5t-171 227.5q-57 -141 -178 -227t-289 -86zM156 526q0 -131 52.5 -237t150 -168t221.5 -62q188 0 307 134t119 333q0 204 -119 339.5t-307 135.5t-306 -135.5t-118 -339.5zM1087 567h797
q-21 211 -114 322.5t-273 111.5q-173 0 -286 -122.5t-124 -311.5z" />
    <glyph glyph-name="Racute" unicode="&#x154;" horiz-adv-x="1273" 
d="M164 -2v1464h485q121 0 212.5 -29.5t147 -83t82.5 -122t27 -152.5q0 -154 -84 -252.5t-235 -136.5q92 -21 147.5 -99.5t114.5 -267.5q35 -113 60.5 -179t62.5 -136v-4h-94q-24 51 -46 112.5t-47 141t-36 111.5q-23 67 -40.5 106.5t-44 80t-58 61t-78 33.5t-109.5 13h-381
v-661h-86zM250 729h409q183 0 278 93t95 253q0 52 -11.5 96.5t-39 86t-71 71t-111.5 47t-156 17.5h-393v-664zM522 1597l264 205h123l-305 -205h-82z" />
    <glyph glyph-name="racute" unicode="&#x155;" horiz-adv-x="630" 
d="M221 1059v-209q94 217 348 217v-70q-125 0 -196 -49q-152 -103 -152 -383v-565h-82v1059h82zM242 1194l204 268h99l-242 -268h-61z" />
    <glyph glyph-name="uni0156" unicode="&#x156;" horiz-adv-x="1273" 
d="M164 -2v1464h485q121 0 212.5 -29.5t147 -83t82.5 -122t27 -152.5q0 -154 -84 -252.5t-235 -136.5q92 -21 147.5 -99.5t114.5 -267.5q35 -113 60.5 -179t62.5 -136v-4h-94q-24 51 -46 112.5t-47 141t-36 111.5q-23 67 -40.5 106.5t-44 80t-58 61t-78 33.5t-109.5 13h-381
v-661h-86zM250 729h409q183 0 278 93t95 253q0 52 -11.5 96.5t-39 86t-71 71t-111.5 47t-156 17.5h-393v-664zM559 -276v172h127v-150q0 -88 -27.5 -129t-85.5 -41v47q30 8 42 30t12 71h-68z" />
    <glyph glyph-name="uni0157" unicode="&#x157;" horiz-adv-x="630" 
d="M221 1059v-209q94 217 348 217v-70q-125 0 -196 -49q-152 -103 -152 -383v-565h-82v1059h82zM109 -276v172h127v-150q0 -88 -27.5 -129t-85.5 -41v47q29 8 41 30t12 71h-67z" />
    <glyph glyph-name="Rcaron" unicode="&#x158;" horiz-adv-x="1273" 
d="M164 -2v1464h485q121 0 212.5 -29.5t147 -83t82.5 -122t27 -152.5q0 -154 -84 -252.5t-235 -136.5q92 -21 147.5 -99.5t114.5 -267.5q35 -113 60.5 -179t62.5 -136v-4h-94q-24 51 -46 112.5t-47 141t-36 111.5q-23 67 -40.5 106.5t-44 80t-58 61t-78 33.5t-109.5 13h-381
v-661h-86zM250 729h409q183 0 278 93t95 253q0 52 -11.5 96.5t-39 86t-71 71t-111.5 47t-156 17.5h-393v-664zM293 1808h82l243 -184l244 184h82l-276 -231h-99z" />
    <glyph glyph-name="rcaron" unicode="&#x159;" horiz-adv-x="630" 
d="M221 1059v-209q94 217 348 217v-70q-125 0 -196 -49q-152 -103 -152 -383v-565h-82v1059h82zM33 1458h61l201 -217l201 217h61l-219 -268h-86z" />
    <glyph glyph-name="Sacute" unicode="&#x15a;" horiz-adv-x="1243" 
d="M207 434q8 -90 49.5 -164t102.5 -120t134 -70.5t148 -24.5q78 0 145 16t124 50t89.5 95.5t32.5 145.5q0 76 -25 131t-78.5 93.5t-111.5 62.5t-151 51q-140 41 -226.5 77t-150 84.5t-89.5 109t-26 145.5q0 113 61.5 196.5t160.5 124t220 40.5q92 0 171 -23.5t144.5 -70.5
t108.5 -125.5t56 -180.5h-86q-13 109 -70.5 185t-140 110.5t-183.5 34.5q-152 0 -254 -79t-102 -212q0 -71 20.5 -120t73.5 -89.5t130 -71.5t204 -67q55 -16 94 -29t87 -33t81.5 -41t67.5 -52t54 -66t33 -82.5t13 -102.5q0 -86 -27 -152.5t-72 -108t-108 -68t-128.5 -37
t-141.5 -10.5q-73 0 -143 15.5t-135 50.5t-115.5 86t-84.5 127t-42 169h86zM506 1597l264 205h123l-305 -205h-82z" />
    <glyph glyph-name="sacute" unicode="&#x15b;" horiz-adv-x="919" 
d="M752 745q-14 133 -93 194.5t-194 61.5q-52 0 -97.5 -11t-84.5 -33.5t-61.5 -63t-22.5 -94.5q0 -46 16 -81t48.5 -59.5t68.5 -40.5t88 -30l149 -43q63 -19 108.5 -39t86 -51t61.5 -75t21 -101q0 -61 -23.5 -110t-61 -81t-87.5 -53t-101 -30t-104 -9t-102 10.5t-96 34
t-84.5 59.5t-67.5 90t-45 121h82q15 -115 99.5 -182.5t213.5 -67.5q133 0 214 54.5t81 163.5q0 82 -55.5 126t-161.5 74l-148 41q-46 12 -82.5 26.5t-75.5 38t-65 52t-42.5 70.5t-16.5 92q0 66 31 119t82.5 84.5t111.5 48t123 16.5q150 0 245.5 -79t123.5 -243h-82z
M406 1194l204 268h99l-242 -268h-61z" />
    <glyph glyph-name="Scircumflex" unicode="&#x15c;" horiz-adv-x="1243" 
d="M207 434q8 -90 49.5 -164t102.5 -120t134 -70.5t148 -24.5q78 0 145 16t124 50t89.5 95.5t32.5 145.5q0 76 -25 131t-78.5 93.5t-111.5 62.5t-151 51q-140 41 -226.5 77t-150 84.5t-89.5 109t-26 145.5q0 113 61.5 196.5t160.5 124t220 40.5q92 0 171 -23.5t144.5 -70.5
t108.5 -125.5t56 -180.5h-86q-13 109 -70.5 185t-140 110.5t-183.5 34.5q-152 0 -254 -79t-102 -212q0 -71 20.5 -120t73.5 -89.5t130 -71.5t204 -67q55 -16 94 -29t87 -33t81.5 -41t67.5 -52t54 -66t33 -82.5t13 -102.5q0 -86 -27 -152.5t-72 -108t-108 -68t-128.5 -37
t-141.5 -10.5q-73 0 -143 15.5t-135 50.5t-115.5 86t-84.5 127t-42 169h86zM279 1577l276 231h98l277 -231h-82l-244 184l-244 -184h-81z" />
    <glyph glyph-name="scircumflex" unicode="&#x15d;" horiz-adv-x="919" 
d="M752 745q-14 133 -93 194.5t-194 61.5q-52 0 -97.5 -11t-84.5 -33.5t-61.5 -63t-22.5 -94.5q0 -46 16 -81t48.5 -59.5t68.5 -40.5t88 -30l149 -43q63 -19 108.5 -39t86 -51t61.5 -75t21 -101q0 -61 -23.5 -110t-61 -81t-87.5 -53t-101 -30t-104 -9t-102 10.5t-96 34
t-84.5 59.5t-67.5 90t-45 121h82q15 -115 99.5 -182.5t213.5 -67.5q133 0 214 54.5t81 163.5q0 82 -55.5 126t-161.5 74l-148 41q-46 12 -82.5 26.5t-75.5 38t-65 52t-42.5 70.5t-16.5 92q0 66 31 119t82.5 84.5t111.5 48t123 16.5q150 0 245.5 -79t123.5 -243h-82z
M199 1194l219 268h86l219 -268h-61l-201 217l-201 -217h-61z" />
    <glyph glyph-name="Scedilla" unicode="&#x15e;" horiz-adv-x="1243" 
d="M207 434q8 -90 49.5 -164t102.5 -120t134 -70.5t148 -24.5q78 0 145 16t124 50t89.5 95.5t32.5 145.5q0 76 -25 131t-78.5 93.5t-111.5 62.5t-151 51q-140 41 -226.5 77t-150 84.5t-89.5 109t-26 145.5q0 113 61.5 196.5t160.5 124t220 40.5q92 0 171 -23.5t144.5 -70.5
t108.5 -125.5t56 -180.5h-86q-13 109 -70.5 185t-140 110.5t-183.5 34.5q-152 0 -254 -79t-102 -212q0 -71 20.5 -120t73.5 -89.5t130 -71.5t204 -67q55 -16 94 -29t87 -33t81.5 -41t67.5 -52t54 -66t33 -82.5t13 -102.5q0 -101 -36 -174.5t-99.5 -115t-137.5 -62
t-163 -24.5l-127 -133l2 -3q62 46 131 46q77 0 121.5 -37t44.5 -111q0 -54 -33.5 -91.5t-83.5 -54t-110 -16.5q-95 0 -181 41l21 56q43 -22 75.5 -30.5t84.5 -8.5q73 0 117 26.5t44 77.5q0 45 -27 69.5t-73 24.5q-75 0 -158 -43l-41 56l117 131q-89 5 -169 33t-148.5 80.5
t-113.5 138.5t-54 196h86z" />
    <glyph glyph-name="scedilla" unicode="&#x15f;" horiz-adv-x="919" 
d="M752 745q-14 133 -93 194.5t-194 61.5q-52 0 -97.5 -11t-84.5 -33.5t-61.5 -63t-22.5 -94.5q0 -46 16 -81t48.5 -59.5t68.5 -40.5t88 -30l149 -43q63 -19 108.5 -39t86 -51t61.5 -75t21 -101q0 -66 -26.5 -118.5t-72.5 -84.5t-99 -51t-113 -25l-142 -150l2 -2
q62 46 131 46q77 0 121.5 -37t44.5 -111q0 -54 -33.5 -91.5t-83.5 -54t-110 -16.5q-94 0 -180 41l20 56q43 -22 75.5 -30.5t84.5 -8.5q73 0 117.5 26.5t44.5 77.5q0 45 -27 69.5t-74 24.5q-13 0 -25.5 -1t-24.5 -3t-21 -4t-19.5 -5.5l-16.5 -5.5t-15.5 -6.5t-13 -6t-12 -6.5
t-9.5 -5l-41 56l127 143q-137 3 -241 80t-140 235h82q15 -115 99.5 -182.5t213.5 -67.5q133 0 214 54.5t81 163.5q0 82 -55.5 126t-161.5 74l-148 41q-46 12 -82.5 26.5t-75.5 38t-65 52t-42.5 70.5t-16.5 92q0 66 31 119t82.5 84.5t111.5 48t123 16.5q150 0 245.5 -79
t123.5 -243h-82z" />
    <glyph glyph-name="Scaron" unicode="&#x160;" horiz-adv-x="1243" 
d="M207 434q8 -90 49.5 -164t102.5 -120t134 -70.5t148 -24.5q78 0 145 16t124 50t89.5 95.5t32.5 145.5q0 76 -25 131t-78.5 93.5t-111.5 62.5t-151 51q-140 41 -226.5 77t-150 84.5t-89.5 109t-26 145.5q0 113 61.5 196.5t160.5 124t220 40.5q92 0 171 -23.5t144.5 -70.5
t108.5 -125.5t56 -180.5h-86q-13 109 -70.5 185t-140 110.5t-183.5 34.5q-152 0 -254 -79t-102 -212q0 -71 20.5 -120t73.5 -89.5t130 -71.5t204 -67q55 -16 94 -29t87 -33t81.5 -41t67.5 -52t54 -66t33 -82.5t13 -102.5q0 -86 -27 -152.5t-72 -108t-108 -68t-128.5 -37
t-141.5 -10.5q-73 0 -143 15.5t-135 50.5t-115.5 86t-84.5 127t-42 169h86zM276 1808h82l244 -184l244 184h82l-277 -231h-98z" />
    <glyph glyph-name="scaron" unicode="&#x161;" horiz-adv-x="919" 
d="M752 745q-14 133 -93 194.5t-194 61.5q-52 0 -97.5 -11t-84.5 -33.5t-61.5 -63t-22.5 -94.5q0 -46 16 -81t48.5 -59.5t68.5 -40.5t88 -30l149 -43q63 -19 108.5 -39t86 -51t61.5 -75t21 -101q0 -61 -23.5 -110t-61 -81t-87.5 -53t-101 -30t-104 -9t-102 10.5t-96 34
t-84.5 59.5t-67.5 90t-45 121h82q15 -115 99.5 -182.5t213.5 -67.5q133 0 214 54.5t81 163.5q0 82 -55.5 126t-161.5 74l-148 41q-46 12 -82.5 26.5t-75.5 38t-65 52t-42.5 70.5t-16.5 92q0 66 31 119t82.5 84.5t111.5 48t123 16.5q150 0 245.5 -79t123.5 -243h-82z
M197 1458h61l201 -217l200 217h62l-219 -268h-86z" />
    <glyph glyph-name="uni0162" unicode="&#x162;" horiz-adv-x="1134" 
d="M45 1393v69h1045v-69h-480v-1393h-86v1393h-479zM516 -276v172h127v-150q0 -88 -27.5 -129t-85.5 -41v47q30 8 42 30t12 71h-68z" />
    <glyph glyph-name="uni0163" unicode="&#x163;" horiz-adv-x="536" 
d="M262 184q0 -118 113 -118h84v-66h-72q-112 0 -159.5 48.5t-47.5 148.5v796h-160v66h160v262l82 39v-301h205v-66h-205v-809zM252 -264v172h127v-150q0 -88 -27.5 -129t-85.5 -41v47q29 8 41 30t12 71h-67z" />
    <glyph glyph-name="Tcaron" unicode="&#x164;" horiz-adv-x="1134" 
d="M45 1393v69h1045v-69h-480v-1393h-86v1393h-479zM242 1808h82l243 -184l244 184h82l-277 -231h-98z" />
    <glyph glyph-name="tcaron" unicode="&#x165;" horiz-adv-x="536" 
d="M262 184q0 -118 113 -118h84v-66h-72q-112 0 -159.5 48.5t-47.5 148.5v796h-160v66h160v262l82 39v-301h205v-66h-205v-809zM367 1155l16 307h82l-53 -307h-45z" />
    <glyph glyph-name="Tbar" unicode="&#x166;" horiz-adv-x="1134" 
d="M45 1393v69h1045v-69h-480v-383h359v-62h-359v-948h-86v948h-354v62h354v383h-479z" />
    <glyph glyph-name="tbar" unicode="&#x167;" horiz-adv-x="536" 
d="M438 623h-176v-439q0 -118 113 -118h84v-66h-72q-112 0 -159.5 48.5t-47.5 148.5v426h-160v57h160v313h-160v66h160v262l82 39v-301h205v-66h-205v-313h176v-57z" />
    <glyph glyph-name="Utilde" unicode="&#x168;" horiz-adv-x="1331" 
d="M1176 518q0 -117 -31 -213.5t-92.5 -168.5t-160 -112t-226.5 -40t-226.5 40t-160 112t-92.5 168.5t-31 213.5v944h86v-944q0 -135 46 -238t143.5 -165t234.5 -62t234.5 62t143.5 165t46 238v944h86v-944zM336 1622q0 85 46 132.5t124 47.5q39 0 85.5 -20.5t82 -45
t74.5 -45t65 -20.5q62 0 99.5 35t37.5 96h58q0 -83 -57.5 -132.5t-137.5 -49.5q-39 0 -85.5 20.5t-82 45t-74.5 45t-65 20.5q-113 0 -113 -129h-57z" />
    <glyph glyph-name="utilde" unicode="&#x169;" horiz-adv-x="1079" 
d="M131 401v658h82v-658q0 -95 23.5 -163.5t66 -107t94.5 -56t117 -17.5q52 0 98.5 11.5t92.5 42.5t79 78.5t53.5 125.5t20.5 179v565h82v-1059h-82v213q-99 -221 -344 -221q-383 0 -383 409zM199 1282q0 85 46 132.5t124 47.5q39 0 85.5 -20.5t82 -45t74.5 -45t65 -20.5
q62 0 99.5 35t37.5 96h57q0 -83 -57 -132.5t-137 -49.5q-39 0 -85.5 20.5t-82 45t-74.5 45t-65 20.5q-113 0 -113 -129h-57z" />
    <glyph glyph-name="Umacron" unicode="&#x16a;" horiz-adv-x="1331" 
d="M1176 518q0 -117 -31 -213.5t-92.5 -168.5t-160 -112t-226.5 -40t-226.5 40t-160 112t-92.5 168.5t-31 213.5v944h86v-944q0 -135 46 -238t143.5 -165t234.5 -62t234.5 62t143.5 165t46 238v944h86v-944zM385 1640v50h571v-50h-571z" />
    <glyph glyph-name="umacron" unicode="&#x16b;" horiz-adv-x="1079" 
d="M131 401v658h82v-658q0 -95 23.5 -163.5t66 -107t94.5 -56t117 -17.5q52 0 98.5 11.5t92.5 42.5t79 78.5t53.5 125.5t20.5 179v565h82v-1059h-82v213q-99 -221 -344 -221q-383 0 -383 409zM199 1249v49h671v-49h-671z" />
    <glyph glyph-name="Ubreve" unicode="&#x16c;" horiz-adv-x="1331" 
d="M1176 518q0 -117 -31 -213.5t-92.5 -168.5t-160 -112t-226.5 -40t-226.5 40t-160 112t-92.5 168.5t-31 213.5v944h86v-944q0 -135 46 -238t143.5 -165t234.5 -62t234.5 62t143.5 165t46 238v944h86v-944zM391 1802h62q2 -29 16 -61.5t40 -63t69 -50t94 -19.5t94 19.5
t69 50t40 63t16 61.5h61q-8 -99 -84.5 -171t-195.5 -72t-196 72t-85 171z" />
    <glyph glyph-name="ubreve" unicode="&#x16d;" horiz-adv-x="1079" 
d="M131 401v658h82v-658q0 -95 23.5 -163.5t66 -107t94.5 -56t117 -17.5q52 0 98.5 11.5t92.5 42.5t79 78.5t53.5 125.5t20.5 179v565h82v-1059h-82v213q-99 -221 -344 -221q-383 0 -383 409zM256 1462h61q3 -91 60.5 -155t159.5 -64t159 64t60 155h61q-8 -123 -82.5 -195.5
t-197.5 -72.5t-198 72.5t-83 195.5z" />
    <glyph glyph-name="Uring" unicode="&#x16e;" horiz-adv-x="1331" 
d="M1176 518q0 -117 -31 -213.5t-92.5 -168.5t-160 -112t-226.5 -40t-226.5 40t-160 112t-92.5 168.5t-31 213.5v944h86v-944q0 -135 46 -238t143.5 -165t234.5 -62t234.5 62t143.5 165t46 238v944h86v-944zM442 1792q0 92 65.5 156.5t156.5 64.5t156 -64.5t65 -156.5
t-65 -156.5t-156 -64.5t-156.5 64.5t-65.5 156.5zM512 1790q0 -69 41.5 -111.5t110.5 -42.5q68 0 109.5 43t41.5 111q0 69 -41 111.5t-110 42.5t-110.5 -42.5t-41.5 -111.5z" />
    <glyph glyph-name="uring" unicode="&#x16f;" horiz-adv-x="1079" 
d="M131 401v658h82v-658q0 -95 23.5 -163.5t66 -107t94.5 -56t117 -17.5q52 0 98.5 11.5t92.5 42.5t79 78.5t53.5 125.5t20.5 179v565h82v-1059h-82v213q-99 -221 -344 -221q-383 0 -383 409zM311 1354q0 92 65 156.5t156 64.5t156.5 -64.5t65.5 -156.5t-65.5 -156.5
t-156.5 -64.5t-156 64.5t-65 156.5zM381 1352q0 -68 42 -112t109 -44t109.5 44t42.5 112t-42.5 111.5t-109.5 43.5t-109 -43.5t-42 -111.5z" />
    <glyph glyph-name="Uhungarumlaut" unicode="&#x170;" horiz-adv-x="1331" 
d="M1176 518q0 -117 -31 -213.5t-92.5 -168.5t-160 -112t-226.5 -40t-226.5 40t-160 112t-92.5 168.5t-31 213.5v944h86v-944q0 -135 46 -238t143.5 -165t234.5 -62t234.5 62t143.5 165t46 238v944h86v-944zM457 1602l205 206h98l-242 -206h-61zM666 1602l204 206h99
l-242 -206h-61z" />
    <glyph glyph-name="uhungarumlaut" unicode="&#x171;" horiz-adv-x="1079" 
d="M131 401v658h82v-658q0 -95 23.5 -163.5t66 -107t94.5 -56t117 -17.5q52 0 98.5 11.5t92.5 42.5t79 78.5t53.5 125.5t20.5 179v565h82v-1059h-82v213q-99 -221 -344 -221q-383 0 -383 409zM358 1194l205 268h99l-242 -268h-62zM567 1194l205 268h98l-241 -268h-62z" />
    <glyph glyph-name="Uogonek" unicode="&#x172;" horiz-adv-x="1331" 
d="M1176 518q0 -210 -98.5 -350t-291.5 -174q-90 -63 -126.5 -108t-36.5 -111q0 -56 42 -91.5t121 -35.5v-45q-91 0 -159 44.5t-68 127.5q0 65 31 113t94 96h-18q-128 0 -226.5 40t-160 112t-92.5 168.5t-31 213.5v944h86v-944q0 -135 46 -238t143.5 -165t234.5 -62
t234.5 62t143.5 165t46 238v944h86v-944z" />
    <glyph glyph-name="uogonek" unicode="&#x173;" horiz-adv-x="1079" 
d="M131 401v658h82v-658q0 -95 23.5 -163.5t66 -107t94.5 -56t117 -17.5q52 0 98.5 11.5t92.5 42.5t79 78.5t53.5 125.5t20.5 179v565h82v-1059q-93 -64 -130.5 -110t-37.5 -113q0 -56 43.5 -92.5t122.5 -36.5v-41q-91 0 -158 43.5t-67 126.5q0 69 35 118t110 105v213
q-99 -221 -344 -221q-383 0 -383 409z" />
    <glyph glyph-name="Wcircumflex" unicode="&#x174;" horiz-adv-x="1796" 
d="M29 1462h92l287 -1102l73 -272h4l70 272l276 1102h132l274 -1093l76 -281h4l72 283l284 1091h94l-290 -1089l-101 -373h-127l-94 367l-258 1001h-2l-258 -1006l-92 -362h-125zM565 1577l277 231h98l277 -231h-82l-244 184l-244 -184h-82z" />
    <glyph glyph-name="wcircumflex" unicode="&#x175;" horiz-adv-x="1378" 
d="M342 0l-317 1059h81l222 -748q9 -33 28.5 -98t28.5 -98h2l55 198l205 746h84l203 -733l57 -211h2q10 36 32 106.5t32 106.5l215 731h82l-318 -1059h-86l-205 748q-9 31 -26.5 95t-26.5 95h-2q-9 -31 -26.5 -95t-26.5 -95l-209 -748h-86zM467 1194l219 268h86l219 -268
h-61l-201 217l-201 -217h-61z" />
    <glyph glyph-name="Ycircumflex" unicode="&#x176;" horiz-adv-x="1150" 
d="M131 1462q73 -130 221.5 -391t220.5 -391h5q73 130 221.5 391t220.5 391h94l-496 -872v-590h-86v590l-495 872h94zM246 1577l276 231h99l276 -231h-82l-244 184l-243 -184h-82z" />
    <glyph glyph-name="ycircumflex" unicode="&#x177;" horiz-adv-x="983" 
d="M106 1059l402 -991h2q61 165 183.5 495.5t183.5 495.5h81q-79 -213 -237.5 -638t-237.5 -638q-18 -49 -34.5 -79.5t-43 -59t-64 -41.5t-89.5 -13h-70v66h74q24 0 44.5 6t36 20.5t26.5 26.5t22 36t16 36t14.5 40.5t12.5 35.5l37 104l-440 1098h81zM221 1194l219 268h86
l219 -268h-61l-201 217l-200 -217h-62z" />
    <glyph glyph-name="Ydieresis" unicode="&#x178;" horiz-adv-x="1150" 
d="M131 1462q73 -130 221.5 -391t220.5 -391h5q73 130 221.5 391t220.5 391h94l-496 -872v-590h-86v590l-495 872h94zM399 1597v205h78v-205h-78zM662 1597v205h77v-205h-77z" />
    <glyph glyph-name="Zacute" unicode="&#x179;" horiz-adv-x="1232" 
d="M106 66l916 1327h-870v69h962v-65l-911 -1327h936v-70h-1033v66zM504 1597l264 205h123l-305 -205h-82z" />
    <glyph glyph-name="zacute" unicode="&#x17a;" horiz-adv-x="972" 
d="M803 995q-22 0 -74 -1t-78 -1h-514v66h752v-58l-727 -938q20 0 55 1.5t51 1.5h629v-66h-821v59zM424 1194l205 268h98l-242 -268h-61z" />
    <glyph glyph-name="Zdotaccent" unicode="&#x17b;" horiz-adv-x="1232" 
d="M106 66l916 1327h-870v69h962v-65l-911 -1327h936v-70h-1033v66zM563 1606v196h78v-196h-78z" />
    <glyph glyph-name="zdotaccent" unicode="&#x17c;" horiz-adv-x="972" 
d="M803 995q-22 0 -74 -1t-78 -1h-514v66h752v-58l-727 -938q20 0 55 1.5t51 1.5h629v-66h-821v59zM440 1286v176h74v-176h-74z" />
    <glyph glyph-name="Zcaron" unicode="&#x17d;" horiz-adv-x="1232" 
d="M106 66l916 1327h-870v69h962v-65l-911 -1327h936v-70h-1033v66zM274 1808h82l244 -184l244 184h82l-277 -231h-98z" />
    <glyph glyph-name="zcaron" unicode="&#x17e;" horiz-adv-x="972" 
d="M803 995q-22 0 -74 -1t-78 -1h-514v66h752v-58l-727 -938q20 0 55 1.5t51 1.5h629v-66h-821v59zM215 1458h61l201 -217l201 217h61l-219 -268h-86z" />
    <glyph glyph-name="florin" unicode="&#x192;" horiz-adv-x="718" 
d="M-86 -293l12 66h66q92 0 134.5 47t66.5 184l143 809h-232l13 66h229l57 319q9 50 19 85t29.5 71t46 58t68 36t96.5 14h114l-12 -65h-68q-107 0 -149.5 -39t-65.5 -168l-55 -311h238l-13 -66h-237l-146 -821q-9 -48 -16 -78t-20 -67t-31.5 -59t-45.5 -42.5t-66.5 -29.5
t-90.5 -9h-84z" />
    <glyph glyph-name="Aringacute" unicode="&#x1fa;" horiz-adv-x="1323" 
d="M135 0h-90l551 1462h131l551 -1462h-90l-182 489h-691zM342 559h639l-317 834h-5zM432 1792q0 92 65 156.5t156 64.5h6l215 146h123l-270 -158q65 -24 106 -81t41 -128q0 -92 -65 -156.5t-156 -64.5t-156 64.5t-65 156.5zM502 1790q0 -69 41 -111.5t110 -42.5
q68 0 110 43t42 111q0 69 -41.5 111.5t-110.5 42.5t-110 -42.5t-41 -111.5z" />
    <glyph glyph-name="aringacute" unicode="&#x1fb;" horiz-adv-x="1081" 
d="M156 748q13 61 44 116t79.5 101.5t120 74t155.5 27.5q102 0 178.5 -25t121 -68.5t66 -97.5t21.5 -118l2 -537q0 -104 19 -221h-86q-11 67 -11 172v59h-2q-124 -243 -395 -243q-182 0 -282.5 85t-100.5 214q0 249 422 313q63 10 100.5 16.5t85 17t74 21.5t51.5 26.5
t36 35.5t11 45q0 122 -86 180.5t-225 58.5q-121 0 -203 -64.5t-114 -188.5h-82zM168 287q0 -99 79 -166.5t222 -67.5q171 0 285 118.5t114 315.5v175q-27 -46 -117.5 -75t-242.5 -52q-158 -24 -249 -87.5t-91 -160.5zM332 1358q0 87 58 150t142 71l173 223h98l-205 -227
q75 -15 125.5 -76.5t50.5 -140.5q0 -92 -65 -156.5t-156 -64.5t-156 64.5t-65 156.5zM401 1356q0 -68 42.5 -112t109.5 -44t109.5 44t42.5 112t-42.5 111.5t-109.5 43.5t-109.5 -43.5t-42.5 -111.5z" />
    <glyph glyph-name="AEacute" unicode="&#x1fc;" horiz-adv-x="1916" 
d="M45 0l879 1462h856v-69h-705v-609h662v-69h-662v-645h711v-70h-797v489h-559l-295 -489h-90zM473 559h516v834h-14zM1356 1597l264 205h123l-305 -205h-82z" />
    <glyph glyph-name="aeacute" unicode="&#x1fd;" horiz-adv-x="1816" 
d="M86 287q0 249 422 313q63 10 100.5 16.5t85 17t74 21.5t51.5 26.5t36 35.5t11 45q0 124 -85.5 181.5t-225.5 57.5q-121 0 -203 -64.5t-114 -188.5h-82q13 61 44 116t79.5 101.5t120 74t155.5 27.5q167 0 260 -68.5t115 -173.5q99 242 358 242q112 0 194 -34t133 -100.5
t78.5 -153.5t37.5 -204q4 -50 4 -73h-787q1 -77 14 -142.5t39.5 -121.5t66.5 -95.5t98 -61.5t130 -22q129 0 217 67t134 185h86q-51 -146 -159.5 -232.5t-277.5 -86.5q-308 0 -389 293q-15 -50 -45 -98t-80.5 -95t-131.5 -75.5t-181 -28.5q-182 0 -282.5 85t-100.5 214z
M168 287q0 -99 79 -166.5t222 -67.5q184 0 291.5 116t107.5 318v175q-27 -47 -116.5 -75.5t-243.5 -51.5q-158 -24 -249 -87.5t-91 -160.5zM850 1194l205 268h98l-242 -268h-61zM948 567h707q-21 224 -104 329t-263 105q-169 0 -252 -117t-88 -317z" />
    <glyph glyph-name="Oslashacute" unicode="&#x1fe;" horiz-adv-x="1644" 
d="M821 1481q164 0 299.5 -55t231.5 -154l178 162l49 -50l-180 -165q77 -99 118.5 -225t41.5 -265q0 -208 -87 -377t-257 -270.5t-394 -101.5q-168 0 -305 57.5t-235 161.5l-172 -158l-46 49l175 160q-152 203 -152 479q0 124 32 237t94.5 206.5t150 162.5t205.5 107.5
t253 38.5zM172 729q0 -242 127 -424l995 914q-177 192 -473 192q-129 0 -237.5 -39.5t-183.5 -105.5t-127 -154.5t-76.5 -185t-24.5 -197.5zM340 254q177 -205 481 -205q130 0 239.5 39t184.5 105t127.5 154t76.5 184.5t24 197.5q0 249 -136 434zM723 1597l264 205h123
l-305 -205h-82z" />
    <glyph glyph-name="oslashacute" unicode="&#x1ff;" horiz-adv-x="1161" 
d="M580 -8q-191 0 -324 110l-102 -116l-58 43l109 125q-131 149 -131 372q0 107 34 204t96.5 172.5t159.5 120t216 44.5q194 0 327 -117l117 131l49 -51l-115 -131q129 -154 129 -373q0 -143 -58 -263t-175.5 -195.5t-273.5 -75.5zM156 526q0 -186 102 -313l600 682
q-112 106 -278 106q-188 0 -306 -135.5t-118 -339.5zM307 160q115 -101 273 -101q188 0 307 134t119 333q0 184 -99 316zM526 1194l205 268h98l-241 -268h-62z" />
    <glyph glyph-name="uni0218" unicode="&#x218;" horiz-adv-x="1243" 
d="M207 434q8 -90 49.5 -164t102.5 -120t134 -70.5t148 -24.5q78 0 145 16t124 50t89.5 95.5t32.5 145.5q0 76 -25 131t-78.5 93.5t-111.5 62.5t-151 51q-140 41 -226.5 77t-150 84.5t-89.5 109t-26 145.5q0 113 61.5 196.5t160.5 124t220 40.5q92 0 171 -23.5t144.5 -70.5
t108.5 -125.5t56 -180.5h-86q-13 109 -70.5 185t-140 110.5t-183.5 34.5q-152 0 -254 -79t-102 -212q0 -71 20.5 -120t73.5 -89.5t130 -71.5t204 -67q55 -16 94 -29t87 -33t81.5 -41t67.5 -52t54 -66t33 -82.5t13 -102.5q0 -86 -27 -152.5t-72 -108t-108 -68t-128.5 -37
t-141.5 -10.5q-73 0 -143 15.5t-135 50.5t-115.5 86t-84.5 127t-42 169h86zM590 -274v172h127v-150q0 -88 -27.5 -129t-85.5 -41v47q29 8 41 30t12 71h-67z" />
    <glyph glyph-name="uni0219" unicode="&#x219;" horiz-adv-x="919" 
d="M752 745q-14 133 -93 194.5t-194 61.5q-52 0 -97.5 -11t-84.5 -33.5t-61.5 -63t-22.5 -94.5q0 -46 16 -81t48.5 -59.5t68.5 -40.5t88 -30l149 -43q63 -19 108.5 -39t86 -51t61.5 -75t21 -101q0 -61 -23.5 -110t-61 -81t-87.5 -53t-101 -30t-104 -9t-102 10.5t-96 34
t-84.5 59.5t-67.5 90t-45 121h82q15 -115 99.5 -182.5t213.5 -67.5q133 0 214 54.5t81 163.5q0 82 -55.5 126t-161.5 74l-148 41q-46 12 -82.5 26.5t-75.5 38t-65 52t-42.5 70.5t-16.5 92q0 66 31 119t82.5 84.5t111.5 48t123 16.5q150 0 245.5 -79t123.5 -243h-82z
M416 -276v172h127v-150q0 -88 -27.5 -129t-85.5 -41v47q29 8 41 30t12 71h-67z" />
    <glyph glyph-name="uni021A" unicode="&#x21a;" horiz-adv-x="1134" 
d="M45 1393v69h1045v-69h-480v-1393h-86v1393h-479zM516 -276v172h127v-150q0 -88 -27.5 -129t-85.5 -41v47q30 8 42 30t12 71h-68z" />
    <glyph glyph-name="uni021B" unicode="&#x21b;" horiz-adv-x="536" 
d="M262 184q0 -118 113 -118h84v-66h-72q-112 0 -159.5 48.5t-47.5 148.5v796h-160v66h160v262l82 39v-301h205v-66h-205v-809zM252 -264v172h127v-150q0 -88 -27.5 -129t-85.5 -41v47q29 8 41 30t12 71h-67z" />
    <glyph glyph-name="uni0237" unicode="&#x237;" horiz-adv-x="395" 
d="M256 -207q0 -100 -48.5 -148t-160.5 -48h-72v65h84q113 0 113 119v1278h84v-1266z" />
    <glyph glyph-name="circumflex" unicode="&#x2c6;" horiz-adv-x="894" 
d="M98 1194l219 268h86l220 -268h-62l-201 217l-200 -217h-62z" />
    <glyph glyph-name="caron" unicode="&#x2c7;" horiz-adv-x="671" 
d="M74 1458h61l201 -217l201 217h61l-219 -268h-86z" />
    <glyph glyph-name="breve" unicode="&#x2d8;" horiz-adv-x="788" 
d="M395 1194q-123 0 -197.5 72.5t-82.5 195.5h61q3 -91 60 -155t159 -64t159 64t60 155h62q-8 -123 -83 -195.5t-198 -72.5z" />
    <glyph glyph-name="dotaccent" unicode="&#x2d9;" horiz-adv-x="147" 
d="M111 1286h-74v176h74v-176z" />
    <glyph glyph-name="ring" unicode="&#x2da;" horiz-adv-x="612" 
d="M84 1354q0 92 65 156.5t156 64.5t156 -64.5t65 -156.5t-65 -156.5t-156 -64.5t-156 64.5t-65 156.5zM154 1352q0 -68 42 -112t109 -44t109.5 44t42.5 112t-42.5 111.5t-109.5 43.5t-109 -43.5t-42 -111.5z" />
    <glyph glyph-name="ogonek" unicode="&#x2db;" horiz-adv-x="559" 
d="M401 0q-93 -64 -130.5 -110t-37.5 -113q0 -56 43.5 -92.5t122.5 -36.5v-41q-91 0 -158 43.5t-67 126.5q0 69 35 118t110 105h82z" />
    <glyph glyph-name="tilde" unicode="&#x2dc;" horiz-adv-x="1280" 
d="M299 1282q0 85 46 132.5t124 47.5q39 0 85.5 -20.5t82 -45t74.5 -45t65 -20.5q62 0 99.5 35t37.5 96h58q0 -83 -57.5 -132.5t-137.5 -49.5q-39 0 -85.5 20.5t-82 45t-74.5 45t-65 20.5q-113 0 -113 -129h-57z" />
    <glyph glyph-name="hungarumlaut" unicode="&#x2dd;" horiz-adv-x="849" 
d="M537 1462h98l-242 -268h-61zM123 1194l205 268h98l-242 -268h-61z" />
    <glyph glyph-name="gravecomb" unicode="&#x300;" 
d="M137 1462l205 -268h-61l-242 268h98z" />
    <glyph glyph-name="acutecomb" unicode="&#x301;" 
d="M436 1462h99l-242 -268h-62z" />
    <glyph glyph-name="uni0302" unicode="&#x302;" 
d="M98 1194l219 268h86l220 -268h-62l-201 217l-200 -217h-62z" />
    <glyph glyph-name="tildecomb" unicode="&#x303;" 
d="M299 1282q0 85 46 132.5t124 47.5q39 0 85.5 -20.5t82 -45t74.5 -45t65 -20.5q62 0 99.5 35t37.5 96h58q0 -83 -57.5 -132.5t-137.5 -49.5q-39 0 -85.5 20.5t-82 45t-74.5 45t-65 20.5q-113 0 -113 -129h-57z" />
    <glyph glyph-name="uni0304" unicode="&#x304;" 
d="M82 1298h672v-49h-672v49z" />
    <glyph glyph-name="uni0306" unicode="&#x306;" 
d="M395 1194q-123 0 -197.5 72.5t-82.5 195.5h61q3 -91 60 -155t159 -64t159 64t60 155h62q-8 -123 -83 -195.5t-198 -72.5z" />
    <glyph glyph-name="uni0307" unicode="&#x307;" 
d="M111 1286h-74v176h74v-176z" />
    <glyph glyph-name="uni0308" unicode="&#x308;" 
d="M205 1462h74v-176h-74v176zM438 1286v176h74v-176h-74z" />
    <glyph glyph-name="uni030A" unicode="&#x30a;" 
d="M84 1354q0 92 65 156.5t156 64.5t156 -64.5t65 -156.5t-65 -156.5t-156 -64.5t-156 64.5t-65 156.5zM154 1352q0 -68 42 -112t109 -44t109.5 44t42.5 112t-42.5 111.5t-109.5 43.5t-109 -43.5t-42 -111.5z" />
    <glyph glyph-name="uni030B" unicode="&#x30b;" 
d="M537 1462h98l-242 -268h-61zM123 1194l205 268h98l-242 -268h-61z" />
    <glyph glyph-name="uni030C" unicode="&#x30c;" 
d="M74 1458h61l201 -217l201 217h61l-219 -268h-86z" />
    <glyph glyph-name="uni0312" unicode="&#x312;" 
d="M252 1241h-127v150q0 88 27.5 129t85.5 41v-48q-30 -8 -42 -29.5t-12 -70.5h68v-172z" />
    <glyph glyph-name="uni0326" unicode="&#x326;" 
d="M137 -104h127v-150q0 -88 -27 -129t-85 -41v47q29 8 41 30t12 71h-68v172z" />
    <glyph glyph-name="uni0327" unicode="&#x327;" 
d="M246 -416q-94 0 -180 41l20 56q43 -22 75.5 -30.5t84.5 -8.5q73 0 117.5 26.5t44.5 77.5q0 45 -27 69.5t-74 24.5q-13 0 -25.5 -1t-24.5 -3t-21 -4t-19.5 -5.5l-16.5 -5.5t-15.5 -6.5t-13 -6t-12 -6.5t-9.5 -5l-41 56l131 147h75l-141 -150l2 -2q62 46 131 46
q77 0 121.5 -37t44.5 -111q0 -54 -33.5 -91.5t-83.5 -54t-110 -16.5z" />
    <glyph glyph-name="uni0328" unicode="&#x328;" 
d="M401 0q-93 -64 -130.5 -110t-37.5 -113q0 -56 43.5 -92.5t122.5 -36.5v-41q-91 0 -158 43.5t-67 126.5q0 69 35 118t110 105h82z" />
    <glyph glyph-name="uni0335" unicode="&#x335;" 
d="M1223 1221h-699v61h699v-61z" />
    <glyph glyph-name="uni0338" unicode="&#x338;" 
d="M1098 1030l-920 -1044l-57 43l928 1052z" />
    <glyph glyph-name="uni0374" unicode="&#x374;" horiz-adv-x="446" 
d="M246 1462h98l-180 -309h-62z" />
    <glyph glyph-name="uni0375" unicode="&#x375;" horiz-adv-x="446" 
d="M201 -418h-99l181 309h61z" />
    <glyph glyph-name="uni037E" unicode="&#x37e;" horiz-adv-x="362" 
d="M154 229h94l-129 -460h-62zM154 711v229h73v-229h-73z" />
    <glyph glyph-name="tonos" unicode="&#x384;" horiz-adv-x="522" 
d="M362 1462h99l-180 -268h-62z" />
    <glyph glyph-name="dieresistonos" unicode="&#x385;" horiz-adv-x="716" 
d="M123 1462h74v-176h-74v176zM264 1223l103 309h98l-139 -309h-62zM520 1286v176h74v-176h-74z" />
    <glyph glyph-name="Alphatonos" unicode="&#x386;" horiz-adv-x="1323" 
d="M135 0h-90l551 1462h131l551 -1462h-90l-182 489h-691zM125 1155l100 307h103l-142 -307h-61zM342 559h639l-317 834h-5z" />
    <glyph glyph-name="anoteleia" unicode="&#x387;" horiz-adv-x="524" 
d="M262 666q54 0 92.5 -38.5t38.5 -92.5q0 -50 -39.5 -91t-89.5 -41q-54 0 -93.5 39t-39.5 93t38.5 92.5t92.5 38.5z" />
    <glyph glyph-name="Epsilontonos" unicode="&#x388;" horiz-adv-x="1157" 
d="M1020 1462v-69h-770v-609h727v-69h-727v-645h776v-70h-862v1462h856zM-141 1155l100 307h102l-141 -307h-61z" />
    <glyph glyph-name="Etatonos" unicode="&#x389;" horiz-adv-x="1345" 
d="M1096 1462h86v-1462h-86v715h-846v-715h-86v1462h86v-678h846v678zM-141 1155l100 307h102l-141 -307h-61z" />
    <glyph glyph-name="Iotatonos" unicode="&#x38a;" horiz-adv-x="413" 
d="M164 1462h86v-1462h-86v1462zM-121 1155l101 307h102l-141 -307h-62z" />
    <glyph glyph-name="Omicrontonos" unicode="&#x38c;" horiz-adv-x="1644" 
d="M821 1481q169 0 309 -59.5t233.5 -161.5t144.5 -239t51 -292q0 -208 -87 -377t-257 -270.5t-394 -101.5q-169 0 -309 59t-232.5 160.5t-143 238t-50.5 291.5q0 124 32 237t94.5 206.5t150 162.5t205.5 107.5t253 38.5zM-59 1155l100 307h102l-141 -307h-61zM172 729
q0 -101 24.5 -197.5t76.5 -184.5t127 -154t183.5 -105t237.5 -39q130 0 239.5 39t184.5 105t127.5 154t76.5 184.5t24 197.5t-24 197.5t-76.5 185t-127.5 154.5t-184.5 105.5t-239.5 39.5q-129 0 -237.5 -39.5t-183.5 -105.5t-127 -154.5t-76.5 -185t-24.5 -197.5z" />
    <glyph glyph-name="Upsilontonos" unicode="&#x38e;" horiz-adv-x="1150" 
d="M131 1462q73 -130 221.5 -391t220.5 -391h5q73 130 221.5 391t220.5 391h94l-496 -872v-590h-86v590l-495 872h94zM-244 1155l101 307h102l-141 -307h-62z" />
    <glyph glyph-name="Omegatonos" unicode="&#x38f;" horiz-adv-x="1456" 
d="M94 0v70h451v221q-83 16 -165 67.5t-148.5 127t-108 177.5t-41.5 209q0 131 45 243.5t126 193t200 126.5t262 46t262 -46t200 -126.5t126 -193t45 -243.5q0 -107 -41.5 -209t-108 -177.5t-148 -127t-163.5 -67.5v-221h448v-70h-530v342q131 22 238.5 102.5t166 192
t58.5 229.5q0 236 -152 390.5t-401 154.5t-401 -154.5t-152 -390.5q0 -118 58.5 -229.5t166 -192t238.5 -102.5v-342h-531zM-59 1155l100 307h102l-141 -307h-61z" />
    <glyph glyph-name="iotadieresistonos" unicode="&#x390;" horiz-adv-x="444" 
d="M328 0q-109 0 -154 46.5t-45 143.5v869h82v-881q0 -56 28 -84t97 -28q24 0 47 2v-66q-18 -2 -55 -2zM-57 1286v176h73v-176h-73zM84 1223l102 309h99l-140 -309h-61zM340 1286v176h74v-176h-74z" />
    <glyph glyph-name="Alpha" unicode="&#x391;" horiz-adv-x="1323" 
d="M135 0h-90l551 1462h131l551 -1462h-90l-182 489h-691zM342 559h639l-317 834h-5z" />
    <glyph glyph-name="Beta" unicode="&#x392;" horiz-adv-x="1243" 
d="M164 0v1462h454q96 0 177 -23t143.5 -68t97.5 -118.5t35 -169.5q0 -125 -80.5 -211.5t-195.5 -107.5v-2q68 -6 128 -34t107.5 -74t75 -115t27.5 -152q0 -178 -130.5 -282.5t-340.5 -104.5h-498zM250 70h391q190 0 298 88t108 229q0 160 -101 246t-287 86h-409v-649z
M250 788h330q194 0 299.5 75.5t105.5 219.5q0 150 -98 230t-289 80h-348v-605z" />
    <glyph glyph-name="Gamma" unicode="&#x393;" horiz-adv-x="1015" 
d="M164 0v1462h801v-69h-715v-1393h-86z" />
    <glyph glyph-name="uni0394" unicode="&#x394;" horiz-adv-x="1363" 
d="M45 0l571 1462h132l571 -1462h-1274zM162 70h1040l-518 1323h-4z" />
    <glyph glyph-name="Epsilon" unicode="&#x395;" horiz-adv-x="1157" 
d="M1020 1462v-69h-770v-609h727v-69h-727v-645h776v-70h-862v1462h856z" />
    <glyph glyph-name="Zeta" unicode="&#x396;" horiz-adv-x="1232" 
d="M106 66l916 1327h-870v69h962v-65l-911 -1327h936v-70h-1033v66z" />
    <glyph glyph-name="Eta" unicode="&#x397;" horiz-adv-x="1345" 
d="M1096 1462h86v-1462h-86v715h-846v-715h-86v1462h86v-678h846v678z" />
    <glyph glyph-name="Theta" unicode="&#x398;" horiz-adv-x="1644" 
d="M821 1481q169 0 309 -59.5t233.5 -161.5t144.5 -239t51 -292q0 -208 -87 -377t-257 -270.5t-394 -101.5q-169 0 -309 59t-232.5 160.5t-143 238t-50.5 291.5q0 124 32 237t94.5 206.5t150 162.5t205.5 107.5t253 38.5zM172 729q0 -101 24.5 -197.5t76.5 -184.5t127 -154
t183.5 -105t237.5 -39q130 0 239.5 39t184.5 105t127.5 154t76.5 184.5t24 197.5t-24 197.5t-76.5 185t-127.5 154.5t-184.5 105.5t-239.5 39.5q-129 0 -237.5 -39.5t-183.5 -105.5t-127 -154.5t-76.5 -185t-24.5 -197.5zM414 694v70h780v-70h-780z" />
    <glyph glyph-name="Iota" unicode="&#x399;" horiz-adv-x="413" 
d="M164 1462h86v-1462h-86v1462z" />
    <glyph glyph-name="Kappa" unicode="&#x39a;" horiz-adv-x="1253" 
d="M250 0h-86v1462h86v-819l766 819h110l-559 -596l625 -866h-102l-578 809l-262 -281v-528z" />
    <glyph glyph-name="Lambda" unicode="&#x39b;" horiz-adv-x="1290" 
d="M29 0l561 1462h110l562 -1462h-95l-520 1374h-4l-520 -1374h-94z" />
    <glyph glyph-name="Mu" unicode="&#x39c;" horiz-adv-x="1630" 
d="M164 0v1462h123l528 -1351h2l526 1351h123v-1462h-86v1323h-2l-518 -1323h-90l-518 1323h-2v-1323h-86z" />
    <glyph glyph-name="Nu" unicode="&#x39d;" horiz-adv-x="1400" 
d="M164 1462h92l760 -1122q22 -32 68 -105t67 -104v246v1085h86v-1462h-92l-737 1092q-20 29 -74.5 113.5t-83.5 125.5v-287v-1044h-86v1462z" />
    <glyph glyph-name="Xi" unicode="&#x39e;" horiz-adv-x="1214" 
d="M92 0v70h1030v-70h-1030zM92 1393v69h1024v-69h-1024zM176 715v69h877v-69h-877z" />
    <glyph glyph-name="Omicron" unicode="&#x39f;" horiz-adv-x="1644" 
d="M821 1481q169 0 309 -59.5t233.5 -161.5t144.5 -239t51 -292q0 -208 -87 -377t-257 -270.5t-394 -101.5q-169 0 -309 59t-232.5 160.5t-143 238t-50.5 291.5q0 124 32 237t94.5 206.5t150 162.5t205.5 107.5t253 38.5zM172 729q0 -101 24.5 -197.5t76.5 -184.5t127 -154
t183.5 -105t237.5 -39q130 0 239.5 39t184.5 105t127.5 154t76.5 184.5t24 197.5t-24 197.5t-76.5 185t-127.5 154.5t-184.5 105.5t-239.5 39.5q-129 0 -237.5 -39.5t-183.5 -105.5t-127 -154.5t-76.5 -185t-24.5 -197.5z" />
    <glyph glyph-name="Pi" unicode="&#x3a0;" horiz-adv-x="1345" 
d="M1182 1462v-1462h-86v1393h-846v-1393h-86v1462h1018z" />
    <glyph glyph-name="Rho" unicode="&#x3a1;" horiz-adv-x="1136" 
d="M559 711q197 0 301.5 87.5t104.5 266.5q0 153 -99.5 240.5t-287.5 87.5h-328v-682h309zM164 0v1462h434q198 0 325.5 -104t127.5 -293q0 -201 -129.5 -312.5t-341.5 -111.5h-330v-641h-86z" />
    <glyph glyph-name="Sigma" unicode="&#x3a3;" horiz-adv-x="1185" 
d="M717 731l-512 -661h919v-70h-1018v66l521 667l-521 664v65h1018v-69h-919z" />
    <glyph glyph-name="Tau" unicode="&#x3a4;" horiz-adv-x="1134" 
d="M45 1393v69h1045v-69h-480v-1393h-86v1393h-479z" />
    <glyph glyph-name="Upsilon" unicode="&#x3a5;" horiz-adv-x="1150" 
d="M131 1462q73 -130 221.5 -391t220.5 -391h5q73 130 221.5 391t220.5 391h94l-496 -872v-590h-86v590l-495 872h94z" />
    <glyph glyph-name="Phi" unicode="&#x3a6;" horiz-adv-x="1507" 
d="M711 -31v195q-336 9 -508 152.5t-172 412.5q0 270 172 414t508 153v197h86v-197q336 -9 508 -153t172 -414q0 -269 -172 -412.5t-508 -152.5v-195h-86zM117 729q0 -235 150 -361t444 -135v994q-294 -9 -444 -135t-150 -363zM797 233q294 9 444 135t150 361
q0 237 -150 363t-444 135v-994z" />
    <glyph glyph-name="Chi" unicode="&#x3a7;" horiz-adv-x="1163" 
d="M29 0l503 752l-495 710h94l451 -637l450 637h94l-495 -710l504 -752h-95l-458 678l-459 -678h-94z" />
    <glyph glyph-name="Psi" unicode="&#x3a8;" horiz-adv-x="1433" 
d="M674 0v352q-268 6 -430 150.5t-162 384.5v575h86v-575q0 -208 138.5 -333.5t367.5 -131.5v1040h86v-1040q229 6 367.5 131.5t138.5 333.5v575h86v-575q0 -240 -162 -384.5t-430 -150.5v-352h-86z" />
    <glyph glyph-name="uni03A9" unicode="&#x3a9;" horiz-adv-x="1456" 
d="M94 0v70h451v221q-83 16 -165 67.5t-148.5 127t-108 177.5t-41.5 209q0 131 45 243.5t126 193t200 126.5t262 46t262 -46t200 -126.5t126 -193t45 -243.5q0 -107 -41.5 -209t-108 -177.5t-148 -127t-163.5 -67.5v-221h448v-70h-530v342q131 22 238.5 102.5t166 192
t58.5 229.5q0 236 -152 390.5t-401 154.5t-401 -154.5t-152 -390.5q0 -118 58.5 -229.5t166 -192t238.5 -102.5v-342h-531z" />
    <glyph glyph-name="Iotadieresis" unicode="&#x3aa;" horiz-adv-x="413" 
d="M164 1462h86v-1462h-86v1462zM35 1597v205h78v-205h-78zM297 1597v205h78v-205h-78z" />
    <glyph glyph-name="Upsilondieresis" unicode="&#x3ab;" horiz-adv-x="1150" 
d="M131 1462q73 -130 221.5 -391t220.5 -391h5q73 130 221.5 391t220.5 391h94l-496 -872v-590h-86v590l-495 872h94zM403 1597v205h78v-205h-78zM666 1597v205h77v-205h-77z" />
    <glyph glyph-name="alphatonos" unicode="&#x3ac;" horiz-adv-x="1255" 
d="M547 -12q-118 0 -210.5 43.5t-149 119t-85 171t-28.5 204.5q0 112 28.5 208.5t85 172.5t149 120t210.5 44q284 0 389 -227h4v215h82v-881q0 -56 28 -84t97 -28q24 0 47 2v-66q-18 -2 -55 -2q-109 0 -154 46.5t-45 143.5v25h-4q-105 -227 -389 -227zM156 526
q0 -207 102.5 -339t288.5 -132q194 0 297.5 123t103.5 348q0 230 -103.5 354t-297.5 124q-186 0 -288.5 -133t-102.5 -345zM434 1194l144 268h98l-180 -268h-62z" />
    <glyph glyph-name="epsilontonos" unicode="&#x3ad;" horiz-adv-x="1040" 
d="M492 -14q-192 0 -301 80.5t-109 216.5q0 202 260 264v2q-231 63 -231 260q0 119 103 188.5t271 69.5q174 0 297.5 -84t151.5 -248h-84q-23 131 -120.5 198.5t-244.5 67.5q-127 0 -209.5 -53t-82.5 -139q0 -100 79.5 -160.5t221.5 -60.5h149v-76h-149q-156 0 -243 -62.5
t-87 -166.5t88 -168t240 -64q179 0 279.5 72t123.5 180h84q-16 -65 -49 -119t-89 -100t-145.5 -72t-203.5 -26zM428 1194l143 268h99l-181 -268h-61z" />
    <glyph glyph-name="etatonos" unicode="&#x3ae;" horiz-adv-x="1079" 
d="M866 -410v1067q0 95 -23.5 163.5t-66 107t-94.5 56t-117 17.5q-52 0 -98.5 -11.5t-92.5 -42t-79 -78t-53.5 -125.5t-20.5 -179v-565h-82v1059h82v-203q46 99 127.5 155t216.5 56q383 0 383 -410v-1067h-82zM455 1194l143 268h98l-180 -268h-61z" />
    <glyph glyph-name="iotatonos" unicode="&#x3af;" horiz-adv-x="444" 
d="M328 0q-109 0 -154 46.5t-45 143.5v869h82v-881q0 -56 28 -84t97 -28q24 0 47 2v-66q-18 -2 -55 -2zM106 1194l144 268h98l-180 -268h-62z" />
    <glyph glyph-name="upsilondieresistonos" unicode="&#x3b0;" horiz-adv-x="1069" 
d="M535 -8q-197 0 -300.5 105t-103.5 304v658h82v-658q0 -167 82.5 -254.5t239.5 -87.5t239 87.5t82 254.5v658h82v-658q0 -199 -103 -304t-300 -105zM305 1286v176h74v-176h-74zM446 1223l103 309h98l-139 -309h-62zM702 1286v176h74v-176h-74z" />
    <glyph glyph-name="alpha" unicode="&#x3b1;" horiz-adv-x="1255" 
d="M547 -12q-118 0 -210.5 43.5t-149 119t-85 171t-28.5 204.5q0 112 28.5 208.5t85 172.5t149 120t210.5 44q284 0 389 -227h4v215h82v-881q0 -56 28 -84t97 -28q24 0 47 2v-66q-18 -2 -55 -2q-109 0 -154 46.5t-45 143.5v25h-4q-105 -227 -389 -227zM156 526
q0 -207 102.5 -339t288.5 -132q194 0 297.5 123t103.5 348q0 230 -103.5 354t-297.5 124q-186 0 -288.5 -133t-102.5 -345z" />
    <glyph glyph-name="beta" unicode="&#x3b2;" horiz-adv-x="1112" 
d="M129 1022q0 119 35.5 210t97.5 144.5t139 80t166 26.5q171 0 288.5 -94t117.5 -256q0 -137 -83.5 -224t-209.5 -121v-2q167 -29 269 -137t102 -254q0 -188 -113 -298.5t-305 -110.5q-291 0 -420 231h-2v-627h-82v1432zM211 508q14 -216 120 -336.5t302 -120.5
q151 0 243.5 94.5t92.5 249.5q0 85 -35.5 153t-93 108.5t-126 61.5t-139.5 21h-108v76q192 6 308 86.5t116 231.5q0 134 -90.5 209t-233.5 75q-77 0 -140.5 -23t-112.5 -69.5t-76 -123.5t-27 -179v-514z" />
    <glyph glyph-name="gamma" unicode="&#x3b3;" horiz-adv-x="1048" 
d="M483 0q-72 161 -142 323t-177 418t-133 318h82q295 -697 411 -950h2q111 244 410 950h82q-47 -111 -138.5 -327.5t-167.5 -394.5t-147 -337l-2 -412h-82z" />
    <glyph glyph-name="delta" unicode="&#x3b4;" horiz-adv-x="1081" 
d="M539 -8q-146 0 -253.5 67.5t-159.5 175.5t-52 240q0 186 101.5 311.5t264.5 165.5v4q-247 100 -247 267q0 52 18 95t66 80.5t124 58t202 20.5t290 -25v-68q-150 24 -264.5 25t-180 -14.5t-106.5 -45.5t-54.5 -60t-13.5 -66q0 -89 103 -157t291 -112q87 -21 154 -71
t106.5 -117t59.5 -140.5t20 -150.5q0 -131 -53 -239.5t-161.5 -176t-254.5 -67.5zM156 475q0 -181 105.5 -298.5t277.5 -117.5q174 0 280.5 117.5t106.5 298.5q0 187 -106 306.5t-281 119.5q-173 0 -278 -119.5t-105 -306.5z" />
    <glyph glyph-name="epsilon" unicode="&#x3b5;" horiz-adv-x="1040" 
d="M492 -14q-192 0 -301 80.5t-109 216.5q0 202 260 264v2q-231 63 -231 260q0 119 103 188.5t271 69.5q174 0 297.5 -84t151.5 -248h-84q-23 131 -120.5 198.5t-244.5 67.5q-127 0 -209.5 -53t-82.5 -139q0 -100 79.5 -160.5t221.5 -60.5h149v-76h-149q-156 0 -243 -62.5
t-87 -166.5t88 -168t240 -64q179 0 279.5 72t123.5 180h84q-16 -65 -49 -119t-89 -100t-145.5 -72t-203.5 -26z" />
    <glyph glyph-name="zeta" unicode="&#x3b6;" horiz-adv-x="897" 
d="M750 -317q13 84 2.5 144.5t-71.5 101t-181 57.5q-51 7 -90.5 15t-87.5 22.5t-83 33.5t-70.5 48.5t-57.5 67t-36 90t-14 116.5q0 65 21 136t53.5 136t83 138.5t99.5 133t113.5 130.5t113.5 121t112 114.5t97 100.5h-684v73h786v-67q-41 -46 -130 -138t-157.5 -163.5
t-153 -173t-140 -185.5t-94 -179.5t-38.5 -176.5q0 -51 12 -93.5t31 -72.5t50 -54t60.5 -39t72 -28t75 -19.5t78.5 -13.5q111 -17 180 -50t99 -79.5t36.5 -108.5t-6.5 -138h-81z" />
    <glyph glyph-name="eta" unicode="&#x3b7;" horiz-adv-x="1079" 
d="M866 -410v1067q0 95 -23.5 163.5t-66 107t-94.5 56t-117 17.5q-52 0 -98.5 -11.5t-92.5 -42t-79 -78t-53.5 -125.5t-20.5 -179v-565h-82v1059h82v-203q46 99 127.5 155t216.5 56q383 0 383 -410v-1067h-82z" />
    <glyph glyph-name="theta" unicode="&#x3b8;" horiz-adv-x="1243" 
d="M621 -8q-236 0 -381.5 204t-145.5 535q0 334 145.5 540t381.5 206t382 -206t146 -540q0 -331 -146 -535t-382 -204zM176 698q8 -288 130 -463.5t315 -175.5t315.5 176t130.5 463h-891zM176 764h891q-5 193 -62 340t-156.5 227t-227.5 80q-193 0 -315 -177.5t-130 -469.5z
" />
    <glyph glyph-name="iota" unicode="&#x3b9;" horiz-adv-x="444" 
d="M328 0q-109 0 -154 46.5t-45 143.5v869h82v-881q0 -56 28 -84t97 -28q24 0 47 2v-66q-18 -2 -55 -2z" />
    <glyph glyph-name="kappa" unicode="&#x3ba;" horiz-adv-x="976" 
d="M211 0h-82v1059h82v-567l623 567h110l-532 -492l534 -567h-110l-484 514l-141 -123v-391z" />
    <glyph glyph-name="lambda" unicode="&#x3bb;" horiz-adv-x="974" 
d="M25 0q70 176 210 529.5t211 529.5l-65 164q-15 38 -24.5 58t-25.5 45t-33.5 37t-44 21t-60.5 9h-82v65h75q46 0 81.5 -6.5t62 -23.5t44.5 -34t35.5 -49.5t28.5 -57t28 -69.5q1 -2 1 -3t1 -2.5t1 -2.5q95 -239 251 -632.5t230 -577.5h-82l-381 950h-2l-379 -950h-81z" />
    <glyph glyph-name="uni03BC" unicode="&#x3bc;" horiz-adv-x="1079" 
d="M131 -410v1469h82v-658q0 -81 16 -142.5t42.5 -99.5t66 -61t82 -32t94.5 -9t98.5 11.5t92.5 42.5t79 78.5t53.5 125.5t20.5 179v565h82v-1059h-82v213q-45 -105 -126.5 -163t-217.5 -58q-216 0 -301 141v-543h-82z" />
    <glyph glyph-name="nu" unicode="&#x3bd;" horiz-adv-x="974" 
d="M106 1059l381 -950h2l379 950h82q-70 -176 -211 -529.5t-211 -529.5h-82q-71 176 -211 529.5t-210 529.5h81z" />
    <glyph glyph-name="xi" unicode="&#x3be;" horiz-adv-x="886" 
d="M838 -317q15 82 1.5 139t-81.5 95.5t-211 66.5q-59 12 -104.5 23t-97.5 28t-89.5 36.5t-74.5 48t-60 62t-37 78.5t-14 98q0 168 134.5 272.5t356.5 131.5v2q-210 28 -327 109t-117 200q0 243 381 316h-381v73h786v-65q-195 -12 -337 -43.5t-219.5 -76.5t-112.5 -95.5
t-35 -108.5q0 -124 153.5 -196t431.5 -76v-76q-182 0 -322 -38.5t-226 -123t-86 -205.5q0 -42 12 -78t31 -62.5t51.5 -49.5t63 -38t77.5 -30t83.5 -24t90.5 -21q131 -29 207.5 -61.5t115 -76t44 -100t-5.5 -134.5h-82z" />
    <glyph glyph-name="omicron" unicode="&#x3bf;" horiz-adv-x="1161" 
d="M580 -8q-119 0 -216 44t-159.5 118t-96.5 170t-34 202q0 107 34 204t96.5 172.5t159.5 120t216 44.5q156 0 273.5 -77t175.5 -198.5t58 -265.5q0 -143 -58 -263t-175.5 -195.5t-273.5 -75.5zM156 526q0 -131 52.5 -237t150 -168t221.5 -62q188 0 307 134t119 333
q0 204 -119 339.5t-307 135.5t-306 -135.5t-118 -339.5z" />
    <glyph glyph-name="pi" unicode="&#x3c0;" horiz-adv-x="1265" 
d="M262 0v993h-201v66h1143v-66h-213v-815q0 -56 28 -84t97 -28q24 0 47 2v-66q-18 -2 -55 -2q-109 0 -154 46.5t-45 143.5v803h-565v-993h-82z" />
    <glyph glyph-name="rho" unicode="&#x3c1;" horiz-adv-x="1148" 
d="M596 -8q-82 0 -149 19t-113.5 52t-78 71.5t-52.5 84.5h-2v-629h-82v936q0 109 29.5 204.5t86 171.5t150 120.5t211.5 44.5t211.5 -44.5t151 -120.5t87 -172t29.5 -204t-29.5 -202.5t-87 -169.5t-151 -118.5t-211.5 -43.5zM201 526q0 -222 102.5 -344.5t292.5 -122.5
q186 0 291.5 131.5t105.5 335.5q0 208 -105.5 341.5t-291.5 133.5q-185 0 -290 -133.5t-105 -341.5z" />
    <glyph glyph-name="uni03C2" unicode="&#x3c2;" horiz-adv-x="1105" 
d="M74 551q0 100 32.5 192t93.5 164.5t156.5 116t212.5 43.5q168 0 289 -84t176 -244h-88q-49 132 -148 197t-229 65q-122 0 -217 -60.5t-145.5 -161.5t-50.5 -224q0 -79 20.5 -145t56.5 -114t89.5 -87t113.5 -66t135 -49q46 -13 81 -25t70 -26t60 -29t48 -34t38 -40.5
t27 -48t16.5 -58t4 -69t-6.5 -81.5h-82q23 146 -34 218t-240 124q-86 24 -152 51.5t-130 71t-105.5 98t-66.5 132t-25 173.5z" />
    <glyph glyph-name="sigma" unicode="&#x3c3;" horiz-adv-x="1171" 
d="M580 -8q-119 0 -216 44t-159.5 118t-96.5 170t-34 202q0 107 34 204t96.5 172.5t159.5 120t216 44.5h4q85 -1 257 -4t257 -4v-66q-44 1 -134 2t-135 2v-2q116 -53 187 -182t71 -287q0 -143 -58 -263t-175.5 -195.5t-273.5 -75.5zM156 526q0 -131 52.5 -237t150 -168
t221.5 -62q188 0 307 134t119 333q0 131 -51.5 238t-146.5 170.5t-216 66.5h-12q-188 0 -306 -135.5t-118 -339.5z" />
    <glyph glyph-name="tau" unicode="&#x3c4;" horiz-adv-x="974" 
d="M41 993v66h893v-66h-442v-815q0 -57 31 -84.5t114 -27.5q32 0 63 2v-66q-25 -2 -71 -2q-123 0 -171 46t-48 144v803h-369z" />
    <glyph glyph-name="upsilon" unicode="&#x3c5;" horiz-adv-x="1069" 
d="M535 -8q-197 0 -300.5 105t-103.5 304v658h82v-658q0 -167 82.5 -254.5t239.5 -87.5t239 87.5t82 254.5v658h82v-658q0 -199 -103 -304t-300 -105z" />
    <glyph glyph-name="phi" unicode="&#x3c6;" horiz-adv-x="1454" 
d="M672 1462h82v-395q161 -1 284 -45t196 -120.5t109.5 -171t36.5 -204.5q0 -109 -36.5 -202.5t-109.5 -168.5t-196 -118.5t-284 -44.5v-402h-82v402q-153 1 -270.5 45.5t-187.5 120t-105 168.5t-35 200q0 86 21.5 163.5t68 146.5t115 119.5t169.5 80.5t224 31v395zM156 526
q0 -98 32 -181.5t94 -147t162 -100.5t228 -38v942q-252 -3 -384 -135t-132 -340zM754 59q137 1 242.5 37t170.5 99.5t98 147t33 183.5q0 102 -33 187t-98 150t-170.5 101t-242.5 37v-942z" />
    <glyph glyph-name="chi" unicode="&#x3c7;" horiz-adv-x="1095" 
d="M41 -410l459 750l-439 719h95l393 -653l391 653h94l-436 -721l457 -748h-94l-412 689l-414 -689h-94z" />
    <glyph glyph-name="psi" unicode="&#x3c8;" horiz-adv-x="1519" 
d="M719 1462h82v-1403q237 5 371.5 128.5t134.5 336.5v535h82v-535q0 -245 -156.5 -386.5t-431.5 -145.5v-402h-82v402q-276 6 -432 147t-156 385v535h82v-535q0 -213 134 -336t372 -129v1403z" />
    <glyph glyph-name="omega" unicode="&#x3c9;" horiz-adv-x="1697" 
d="M492 -12q-186 0 -292 130.5t-106 373.5q0 100 23.5 195t69.5 177.5t122 139.5t172 73v-73q-94 -18 -165.5 -98t-105.5 -188t-34 -226q0 -207 86 -322t230 -115q142 0 229.5 138t87.5 362v201h80v-201q0 -224 87.5 -362t229.5 -138q144 0 230 115t86 322q0 117 -34 225
t-105.5 188t-165.5 99v73q127 -22 217 -114.5t130 -213.5t40 -257q0 -243 -106 -373.5t-292 -130.5q-144 0 -240 95.5t-116 258.5h-2q-20 -163 -116 -258.5t-240 -95.5z" />
    <glyph glyph-name="iotadieresis" unicode="&#x3ca;" horiz-adv-x="444" 
d="M328 0q-109 0 -154 46.5t-45 143.5v869h82v-881q0 -56 28 -84t97 -28q24 0 47 2v-66q-18 -2 -55 -2zM16 1286v176h74v-176h-74zM250 1286v176h74v-176h-74z" />
    <glyph glyph-name="upsilondieresis" unicode="&#x3cb;" horiz-adv-x="1069" 
d="M535 -8q-197 0 -300.5 105t-103.5 304v658h82v-658q0 -167 82.5 -254.5t239.5 -87.5t239 87.5t82 254.5v658h82v-658q0 -199 -103 -304t-300 -105zM379 1286v176h74v-176h-74zM612 1286v176h74v-176h-74z" />
    <glyph glyph-name="omicrontonos" unicode="&#x3cc;" horiz-adv-x="1161" 
d="M580 -8q-119 0 -216 44t-159.5 118t-96.5 170t-34 202q0 107 34 204t96.5 172.5t159.5 120t216 44.5q156 0 273.5 -77t175.5 -198.5t58 -265.5q0 -143 -58 -263t-175.5 -195.5t-273.5 -75.5zM156 526q0 -131 52.5 -237t150 -168t221.5 -62q188 0 307 134t119 333
q0 204 -119 339.5t-307 135.5t-306 -135.5t-118 -339.5zM516 1194l143 268h99l-180 -268h-62z" />
    <glyph glyph-name="upsilontonos" unicode="&#x3cd;" horiz-adv-x="1069" 
d="M535 -8q-197 0 -300.5 105t-103.5 304v658h82v-658q0 -167 82.5 -254.5t239.5 -87.5t239 87.5t82 254.5v658h82v-658q0 -199 -103 -304t-300 -105zM469 1194l143 268h99l-181 -268h-61z" />
    <glyph glyph-name="omegatonos" unicode="&#x3ce;" horiz-adv-x="1697" 
d="M492 -12q-186 0 -292 130.5t-106 373.5q0 100 23.5 195t69.5 177.5t122 139.5t172 73v-73q-94 -18 -165.5 -98t-105.5 -188t-34 -226q0 -207 86 -322t230 -115q142 0 229.5 138t87.5 362v201h80v-201q0 -224 87.5 -362t229.5 -138q144 0 230 115t86 322q0 117 -34 225
t-105.5 188t-165.5 99v73q127 -22 217 -114.5t130 -213.5t40 -257q0 -243 -106 -373.5t-292 -130.5q-144 0 -240 95.5t-116 258.5h-2q-20 -163 -116 -258.5t-240 -95.5zM784 1194l144 268h98l-180 -268h-62z" />
    <glyph glyph-name="uni03CF" unicode="&#x3cf;" horiz-adv-x="1011" 
d="M135 0v197h-196v69h196v998h82v-568l623 568h110l-532 -490l518 -508v-69h-719v-197h-82zM217 266h604l-463 455l-141 -125v-330z" />
    <glyph glyph-name="uni03D7" unicode="&#x3d7;" horiz-adv-x="1030" 
d="M221 0h-82v1059h82v-567l623 567h110l-532 -492l405 -442l129 125l54 -55l-627 -605h-109l502 484l-414 440l-141 -123v-391z" />
    <glyph glyph-name="uni0400" unicode="&#x400;" horiz-adv-x="1157" 
d="M1020 1462v-69h-770v-609h727v-69h-727v-645h776v-70h-862v1462h856zM338 1802h123l264 -205h-82z" />
    <glyph glyph-name="uni0401" unicode="&#x401;" horiz-adv-x="1157" 
d="M1020 1462v-69h-770v-609h727v-69h-727v-645h776v-70h-862v1462h856zM449 1597v205h77v-205h-77zM711 1597v205h77v-205h-77z" />
    <glyph glyph-name="uni0402" unicode="&#x402;" horiz-adv-x="1464" 
d="M883 860q264 0 381.5 -106t117.5 -326q0 -105 -33.5 -190.5t-90.5 -138.5t-128.5 -81t-150.5 -28t-131 12t-109 35l25 72q58 -26 105 -38t110 -12q141 0 229 105t88 268q0 359 -411 359q-176 0 -357 -46v-745h-86v1393h-417v69h1044v-69h-541v-578q196 45 355 45z" />
    <glyph glyph-name="uni0403" unicode="&#x403;" horiz-adv-x="1015" 
d="M164 0v1462h801v-69h-715v-1393h-86zM485 1597l265 205h122l-305 -205h-82z" />
    <glyph glyph-name="uni0404" unicode="&#x404;" horiz-adv-x="1550" 
d="M1440 397q-53 -191 -215 -302t-404 -111q-169 0 -308.5 58t-232.5 159t-143.5 237t-50.5 291t50.5 291t143.5 237t232.5 159.5t308.5 58.5q237 0 392.5 -108t222.5 -298h-88q-54 154 -186.5 245t-340.5 91q-122 0 -226 -35t-177 -94t-126.5 -139t-82 -169t-35.5 -184h741
v-69h-743q2 -100 27.5 -194t78 -179.5t127 -149.5t182 -101.5t234.5 -37.5q211 0 344.5 93.5t186.5 250.5h88z" />
    <glyph glyph-name="uni0405" unicode="&#x405;" horiz-adv-x="1243" 
d="M207 434q8 -90 49.5 -164t102.5 -120t134 -70.5t148 -24.5q78 0 145 16t124 50t89.5 95.5t32.5 145.5q0 76 -25 131t-78.5 93.5t-111.5 62.5t-151 51q-140 41 -226.5 77t-150 84.5t-89.5 109t-26 145.5q0 113 61.5 196.5t160.5 124t220 40.5q92 0 171 -23.5t144.5 -70.5
t108.5 -125.5t56 -180.5h-86q-13 109 -70.5 185t-140 110.5t-183.5 34.5q-152 0 -254 -79t-102 -212q0 -71 20.5 -120t73.5 -89.5t130 -71.5t204 -67q55 -16 94 -29t87 -33t81.5 -41t67.5 -52t54 -66t33 -82.5t13 -102.5q0 -86 -27 -152.5t-72 -108t-108 -68t-128.5 -37
t-141.5 -10.5q-73 0 -143 15.5t-135 50.5t-115.5 86t-84.5 127t-42 169h86z" />
    <glyph glyph-name="uni0406" unicode="&#x406;" horiz-adv-x="413" 
d="M164 1462h86v-1462h-86v1462z" />
    <glyph glyph-name="uni0407" unicode="&#x407;" horiz-adv-x="413" 
d="M164 1462h86v-1462h-86v1462zM35 1597v205h78v-205h-78zM297 1597v205h78v-205h-78z" />
    <glyph glyph-name="uni0408" unicode="&#x408;" horiz-adv-x="935" 
d="M162 346q0 -131 69 -212t197 -81t197 81t69 212v1116h86v-1116q0 -164 -95 -263t-257 -99t-257 99t-95 263v55h86v-55z" />
    <glyph glyph-name="uni0409" unicode="&#x409;" horiz-adv-x="1982" 
d="M1430 70q196 0 300.5 87.5t104.5 266.5q0 153 -99.5 240.5t-287.5 87.5h-297v-682h279zM31 -8v69h4q82 0 133 54q30 31 52.5 84t33.5 97t25 118q8 42 15.5 85.5t14 97.5t11 93t10 109.5t9 108t9 126t8 127t8.5 148t9 153.5h778v-641h317q198 0 325.5 -104t127.5 -293
q0 -201 -129.5 -312.5t-341.5 -111.5h-385v1393h-612q-24 -404 -42 -603t-51 -372q-26 -129 -55.5 -215.5t-81.5 -141.5q-66 -69 -172 -69h-20z" />
    <glyph glyph-name="uni040A" unicode="&#x40a;" horiz-adv-x="1961" 
d="M250 0h-86v1462h86v-641h805v641h86v-641h289q214 0 342.5 -105.5t128.5 -305.5q0 -127 -61 -221.5t-163 -141.5t-229 -47h-393v752h-805v-752zM1141 70h286q187 0 287.5 93t100.5 247q0 178 -103.5 260t-302.5 82h-268v-682z" />
    <glyph glyph-name="uni040B" unicode="&#x40b;" horiz-adv-x="1474" 
d="M883 860q264 0 381.5 -106t117.5 -326v-428h-86v432q0 359 -411 359q-176 0 -357 -46v-745h-86v1393h-417v69h1044v-69h-541v-578q196 45 355 45z" />
    <glyph glyph-name="uni040C" unicode="&#x40c;" horiz-adv-x="1243" 
d="M1081 0l-653 715h-178v-715h-86v1462h86v-678h180l588 678h108l-622 -712l688 -750h-111zM528 1597l265 205h122l-305 -205h-82z" />
    <glyph glyph-name="uni040D" unicode="&#x40d;" horiz-adv-x="1400" 
d="M1237 1462v-1462h-86v1065v266q-26 -37 -75.5 -115t-69.5 -108l-754 -1108h-88v1462h86v-1065v-266q26 37 75.5 115t69.5 108l754 1108h88zM418 1802h123l264 -205h-82z" />
    <glyph glyph-name="uni040E" unicode="&#x40e;" horiz-adv-x="1177" 
d="M223 0v70h49q38 0 64 7t47.5 20.5t43.5 45t41.5 68t51.5 102.5l43 88l-526 1061h94l477 -968l455 968h90l-563 -1194q-42 -90 -70 -136.5t-65 -79.5t-79 -42.5t-110 -9.5h-43zM295 1802h78q5 -80 61 -131t141 -51t141.5 51t61.5 131h78q-9 -107 -87.5 -175t-193.5 -68
t-193 68t-87 175z" />
    <glyph glyph-name="uni040F" unicode="&#x40f;" horiz-adv-x="1345" 
d="M631 -326v326h-467v1462h86v-1392h846v1392h86v-1462h-471v-326h-80z" />
    <glyph glyph-name="uni0410" unicode="&#x410;" horiz-adv-x="1323" 
d="M135 0h-90l551 1462h131l551 -1462h-90l-182 489h-691zM342 559h639l-317 834h-5z" />
    <glyph glyph-name="uni0411" unicode="&#x411;" horiz-adv-x="1107" 
d="M164 1462h801v-69h-715v-572h330q215 0 343 -102t128 -301q0 -191 -129 -304.5t-324 -113.5h-434v1462zM250 70h328q186 0 286.5 96.5t100.5 251.5q0 177 -103 255.5t-303 78.5h-309v-682z" />
    <glyph glyph-name="uni0412" unicode="&#x412;" horiz-adv-x="1243" 
d="M164 0v1462h454q96 0 177 -23t143.5 -68t97.5 -118.5t35 -169.5q0 -125 -80.5 -211.5t-195.5 -107.5v-2q68 -6 128 -34t107.5 -74t75 -115t27.5 -152q0 -178 -130.5 -282.5t-340.5 -104.5h-498zM250 70h391q190 0 298 88t108 229q0 160 -101 246t-287 86h-409v-649z
M250 788h330q194 0 299.5 75.5t105.5 219.5q0 150 -98 230t-289 80h-348v-605z" />
    <glyph glyph-name="uni0413" unicode="&#x413;" horiz-adv-x="1015" 
d="M164 0v1462h801v-69h-715v-1393h-86z" />
    <glyph glyph-name="uni0414" unicode="&#x414;" horiz-adv-x="1429" 
d="M1221 1462v-1392h137v-439h-80v369h-1147v-369h-80v439h119q108 203 158 409q18 72 30 142t21.5 180t14 167.5t14 237t14.5 256.5h799zM260 70h875v1323h-633q-2 -39 -8 -138t-8 -130.5t-7.5 -109.5t-8 -108.5t-8 -91.5t-10 -93t-11 -79.5t-13.5 -85t-16 -76.5
q-20 -85 -64.5 -204t-87.5 -207z" />
    <glyph glyph-name="uni0415" unicode="&#x415;" horiz-adv-x="1157" 
d="M1020 1462v-69h-770v-609h727v-69h-727v-645h776v-70h-862v1462h856z" />
    <glyph glyph-name="uni0416" unicode="&#x416;" horiz-adv-x="1835" 
d="M1667 0l-573 715h-133v-715h-87v715h-133l-573 -715h-107l609 752l-543 710h104l506 -678h137v678h87v-678h137l506 678h104l-543 -710l609 -752h-107z" />
    <glyph glyph-name="uni0417" unicode="&#x417;" horiz-adv-x="1255" 
d="M178 1098q7 78 37.5 144t84.5 118t140 81t195 29q204 0 317 -92t113 -250q0 -119 -64 -205t-184 -132q142 -27 234 -126.5t92 -263.5q0 -197 -129 -309t-381 -112q-479 0 -520 436h86q32 -367 436 -367q193 0 307.5 88t114.5 271q0 93 -35.5 162t-96 107t-130 55.5
t-148.5 17.5h-209v69h203q145 0 241.5 81.5t96.5 227.5q0 133 -90.5 203t-253.5 70q-167 0 -259.5 -78.5t-111.5 -224.5h-86z" />
    <glyph glyph-name="uni0418" unicode="&#x418;" horiz-adv-x="1400" 
d="M1237 1462v-1462h-86v1065v266q-26 -37 -75.5 -115t-69.5 -108l-754 -1108h-88v1462h86v-1065v-266q26 37 75.5 115t69.5 108l754 1108h88z" />
    <glyph glyph-name="uni0419" unicode="&#x419;" horiz-adv-x="1400" 
d="M1237 1462v-1462h-86v1065v266q-26 -37 -75.5 -115t-69.5 -108l-754 -1108h-88v1462h86v-1065v-266q26 37 75.5 115t69.5 108l754 1108h88zM420 1802h78q5 -80 61 -131t141 -51t141.5 51t61.5 131h78q-9 -107 -87.5 -175t-193.5 -68t-193 68t-87 175z" />
    <glyph glyph-name="uni041A" unicode="&#x41a;" horiz-adv-x="1243" 
d="M1081 0l-653 715h-178v-715h-86v1462h86v-678h180l588 678h108l-622 -712l688 -750h-111z" />
    <glyph glyph-name="uni041B" unicode="&#x41b;" horiz-adv-x="1355" 
d="M31 -8v69h4q84 0 135 54q18 19 32 43t24.5 59t16.5 58.5t16 71t15 67.5q9 42 17 85.5t15 96.5t12.5 94t11 109t9 108.5t9 126t8 127.5t8.5 147.5t9 153.5h819v-1464h-86v1395h-653q-2 -38 -9 -149t-8.5 -141.5t-7.5 -117.5t-8.5 -116.5t-8 -96.5t-10 -100t-11.5 -83.5
t-14 -90t-16 -80.5q-19 -91 -31.5 -139.5t-41 -114t-64.5 -103.5q-66 -69 -172 -69h-20z" />
    <glyph glyph-name="uni041C" unicode="&#x41c;" horiz-adv-x="1630" 
d="M164 0v1462h123l528 -1351h2l526 1351h123v-1462h-86v1323h-2l-518 -1323h-90l-518 1323h-2v-1323h-86z" />
    <glyph glyph-name="uni041D" unicode="&#x41d;" horiz-adv-x="1345" 
d="M1096 1462h86v-1462h-86v715h-846v-715h-86v1462h86v-678h846v678z" />
    <glyph glyph-name="uni041E" unicode="&#x41e;" horiz-adv-x="1644" 
d="M821 1481q169 0 309 -59.5t233.5 -161.5t144.5 -239t51 -292q0 -208 -87 -377t-257 -270.5t-394 -101.5q-169 0 -309 59t-232.5 160.5t-143 238t-50.5 291.5q0 124 32 237t94.5 206.5t150 162.5t205.5 107.5t253 38.5zM172 729q0 -101 24.5 -197.5t76.5 -184.5t127 -154
t183.5 -105t237.5 -39q130 0 239.5 39t184.5 105t127.5 154t76.5 184.5t24 197.5t-24 197.5t-76.5 185t-127.5 154.5t-184.5 105.5t-239.5 39.5q-129 0 -237.5 -39.5t-183.5 -105.5t-127 -154.5t-76.5 -185t-24.5 -197.5z" />
    <glyph glyph-name="uni041F" unicode="&#x41f;" horiz-adv-x="1345" 
d="M1182 1462v-1462h-86v1393h-846v-1393h-86v1462h1018z" />
    <glyph glyph-name="uni0420" unicode="&#x420;" horiz-adv-x="1136" 
d="M559 711q197 0 301.5 87.5t104.5 266.5q0 153 -99.5 240.5t-287.5 87.5h-328v-682h309zM164 0v1462h434q198 0 325.5 -104t127.5 -293q0 -201 -129.5 -312.5t-341.5 -111.5h-330v-641h-86z" />
    <glyph glyph-name="uni0421" unicode="&#x421;" horiz-adv-x="1505" 
d="M1440 397q-53 -191 -215 -302t-404 -111q-169 0 -308.5 58t-232.5 159t-143.5 237t-50.5 291t50.5 291t143.5 237t232.5 159.5t308.5 58.5q237 0 392.5 -108t222.5 -298h-88q-54 154 -186.5 245t-340.5 91q-129 0 -237.5 -38.5t-183.5 -104t-127 -153t-76.5 -183.5
t-24.5 -197t24.5 -197t76.5 -183.5t127 -153t183.5 -104t237.5 -38.5q211 0 344.5 93.5t186.5 250.5h88z" />
    <glyph glyph-name="uni0422" unicode="&#x422;" horiz-adv-x="1134" 
d="M45 1393v69h1045v-69h-480v-1393h-86v1393h-479z" />
    <glyph glyph-name="uni0423" unicode="&#x423;" horiz-adv-x="1177" 
d="M223 0v70h49q38 0 64 7t47.5 20.5t43.5 45t41.5 68t51.5 102.5l43 88l-526 1061h94l477 -968l455 968h90l-563 -1194q-42 -90 -70 -136.5t-65 -79.5t-79 -42.5t-110 -9.5h-43z" />
    <glyph glyph-name="uni0424" unicode="&#x424;" horiz-adv-x="1536" 
d="M725 0v162q-302 15 -476.5 174.5t-174.5 421.5q0 267 174 428t477 176v162h86v-162q303 -15 477 -176t174 -428q0 -262 -174.5 -421.5t-476.5 -174.5v-162h-86zM160 758q0 -232 151 -372.5t414 -154.5v1065q-263 -14 -414 -157.5t-151 -380.5zM811 231q263 14 414 154.5
t151 372.5q0 237 -151 380.5t-414 157.5v-1065z" />
    <glyph glyph-name="uni0425" unicode="&#x425;" horiz-adv-x="1163" 
d="M29 0l503 752l-495 710h94l451 -637l450 637h94l-495 -710l504 -752h-95l-458 678l-459 -678h-94z" />
    <glyph glyph-name="uni0426" unicode="&#x426;" horiz-adv-x="1390" 
d="M164 0v1462h86v-1392h846v1392h86v-1392h137v-437h-80v367h-1075z" />
    <glyph glyph-name="uni0427" unicode="&#x427;" horiz-adv-x="1196" 
d="M592 602q-264 0 -382 106t-118 326v428h86v-432q0 -358 412 -358q179 0 356 45v745h86v-1462h-86v647q-196 -45 -354 -45z" />
    <glyph glyph-name="uni0428" unicode="&#x428;" horiz-adv-x="1908" 
d="M164 0v1462h86v-1392h661v1392h86v-1392h662v1392h86v-1462h-1581z" />
    <glyph glyph-name="uni0429" unicode="&#x429;" horiz-adv-x="1953" 
d="M164 0v1462h86v-1392h661v1392h86v-1392h662v1392h86v-1392h137v-437h-80v367h-1638z" />
    <glyph glyph-name="uni042A" unicode="&#x42a;" horiz-adv-x="1380" 
d="M45 1393v69h504v-641h317q198 0 325.5 -104t127.5 -293q0 -201 -129.5 -312.5t-341.5 -111.5h-385v1393h-418zM549 70h278q197 0 301.5 87.5t104.5 266.5q0 153 -99.5 240.5t-287.5 87.5h-297v-682z" />
    <glyph glyph-name="uni042B" unicode="&#x42b;" horiz-adv-x="1437" 
d="M1188 1462h86v-1462h-86v1462zM164 0v1462h86v-641h317q198 0 325.5 -104t127.5 -293q0 -201 -129.5 -312.5t-341.5 -111.5h-385zM250 70h278q197 0 301.5 87.5t104.5 266.5q0 153 -99.5 240.5t-287.5 87.5h-297v-682z" />
    <glyph glyph-name="uni042C" unicode="&#x42c;" horiz-adv-x="1112" 
d="M164 0v1462h86v-641h348q198 0 325.5 -104t127.5 -293q0 -201 -129.5 -312.5t-341.5 -111.5h-416zM250 70h309q197 0 301.5 87.5t104.5 266.5q0 153 -99.5 240.5t-287.5 87.5h-328v-682z" />
    <glyph glyph-name="uni042D" unicode="&#x42d;" horiz-adv-x="1550" 
d="M199 397q53 -157 186 -250.5t344 -93.5q127 0 234.5 37.5t182 101.5t127 149.5t78 179.5t27.5 194h-743v69h741q-7 95 -35.5 184t-82 169t-126.5 139t-177 94t-226 35q-208 0 -340 -91t-186 -245h-88q67 190 222 298t392 108q169 0 308.5 -58.5t232.5 -159.5t143.5 -237
t50.5 -291t-50.5 -291t-143.5 -237t-232.5 -159t-308.5 -58q-242 0 -403 111t-215 302h88z" />
    <glyph glyph-name="uni042E" unicode="&#x42e;" horiz-adv-x="1933" 
d="M250 0h-86v1462h86v-678h207q9 146 60.5 272.5t138.5 221t215 149t280 54.5q160 0 292.5 -59.5t220 -161.5t135.5 -239t48 -292t-48 -291.5t-136 -238t-220 -160.5t-292 -59q-158 0 -289.5 57.5t-219 157t-136.5 233.5t-51 287h-205v-715zM541 729q0 -101 23 -197.5
t72 -184.5t119 -154t172.5 -105t223.5 -39t223.5 39t172.5 105t119 154t72 184.5t23 197.5t-23 197.5t-72 185t-119 154.5t-172.5 105.5t-223.5 39.5t-223.5 -39.5t-172.5 -105.5t-119 -154.5t-72 -185t-23 -197.5z" />
    <glyph glyph-name="uni042F" unicode="&#x42f;" horiz-adv-x="1273" 
d="M1110 -2h-86v661h-381q-63 0 -109.5 -13t-78 -33.5t-58 -61t-44 -80t-40.5 -106.5q-11 -32 -36 -111.5t-47 -141t-46 -112.5h-94v4q37 70 62.5 136t60.5 179q59 189 114.5 267.5t147.5 99.5q-151 38 -235 136.5t-84 252.5q0 84 27 152.5t82.5 122t147 83t212.5 29.5h485
v-1464zM242 1075q0 -160 94.5 -253t277.5 -93h410v664h-393q-88 0 -156 -17.5t-111.5 -47t-71 -71t-39 -86t-11.5 -96.5z" />
    <glyph glyph-name="uni0430" unicode="&#x430;" horiz-adv-x="1081" 
d="M156 748q13 61 44 116t79.5 101.5t120 74t155.5 27.5q102 0 178.5 -25t121 -68.5t66 -97.5t21.5 -118l2 -537q0 -104 19 -221h-86q-11 67 -11 172v59h-2q-124 -243 -395 -243q-182 0 -282.5 85t-100.5 214q0 249 422 313q63 10 100.5 16.5t85 17t74 21.5t51.5 26.5
t36 35.5t11 45q0 122 -86 180.5t-225 58.5q-121 0 -203 -64.5t-114 -188.5h-82zM168 287q0 -99 79 -166.5t222 -67.5q171 0 285 118.5t114 315.5v175q-27 -46 -117.5 -75t-242.5 -52q-158 -24 -249 -87.5t-91 -160.5z" />
    <glyph glyph-name="uni0431" unicode="&#x431;" horiz-adv-x="1142" 
d="M582 -8q-156 0 -277.5 79.5t-171.5 221.5q-41 107 -41 309q0 475 193 647q97 88 274.5 137.5t419.5 81.5v-73q-108 -15 -182 -28t-172 -36.5t-171 -58t-118 -78.5q-120 -120 -152 -385q64 113 171 170t237 57q218 0 347.5 -144t129.5 -382q0 -231 -136.5 -374.5
t-350.5 -143.5zM174 510q0 -202 110 -323t298 -121t296.5 121t108.5 323q0 208 -103 330.5t-292 122.5q-181 0 -299.5 -125.5t-118.5 -327.5z" />
    <glyph glyph-name="uni0432" unicode="&#x432;" horiz-adv-x="1003" 
d="M139 0v1059h408q143 0 228 -70t85 -188q0 -83 -39.5 -149.5t-107.5 -100.5q96 -26 156.5 -99t60.5 -163q0 -132 -88.5 -210.5t-239.5 -78.5h-463zM221 66h389q98 0 168 59.5t70 153.5q0 99 -70 161t-168 62h-389v-436zM221 567h326q99 0 165 59.5t66 155.5
q0 94 -66 152.5t-165 58.5h-326v-426z" />
    <glyph glyph-name="uni0433" unicode="&#x433;" horiz-adv-x="813" 
d="M793 1059v-66h-572v-993h-82v1059h654z" />
    <glyph glyph-name="uni0434" unicode="&#x434;" horiz-adv-x="1161" 
d="M993 1059v-993h127v-351h-73v285h-932v-285h-74v351h31q81 0 121 43q78 86 102 383q22 264 35 567h663zM252 66h659v927h-503q-13 -229 -23 -354q-1 -15 -6 -76t-7.5 -89.5t-9 -84.5t-13.5 -92t-18.5 -79.5t-25.5 -76.5q-20 -49 -53 -75z" />
    <glyph glyph-name="uni0435" unicode="&#x435;" horiz-adv-x="1112" 
d="M1026 311q-50 -144 -167 -231.5t-288 -87.5q-95 0 -176.5 28.5t-139.5 78.5t-99.5 117.5t-61.5 146t-20 163.5q0 107 32.5 204t92.5 172.5t154.5 120t209.5 44.5q111 0 197 -36.5t141 -104t85.5 -155t39.5 -196.5q4 -50 4 -73h-876q6 -191 121 -317t296 -126
q130 0 227 68t142 184h86zM154 567h796q-21 211 -114 322.5t-273 111.5q-172 0 -285 -122.5t-124 -311.5z" />
    <glyph glyph-name="uni0436" unicode="&#x436;" horiz-adv-x="1339" 
d="M41 0l418 543l-412 516h94l383 -481h105v481h82v-481h104l383 481h94l-411 -516l417 -543h-94l-391 512h-102v-512h-82v512h-103l-391 -512h-94z" />
    <glyph glyph-name="uni0437" unicode="&#x437;" horiz-adv-x="935" 
d="M477 -8q-179 0 -268.5 79t-112.5 238h80q18 -134 94.5 -193t206.5 -59q132 0 217.5 67t85.5 175q0 50 -16.5 89t-44 63.5t-65 40t-77 22t-83.5 6.5h-148v66h160q96 0 156.5 63t60.5 166q0 87 -65.5 136.5t-180.5 49.5q-226 0 -258 -206h-78q19 125 100.5 198.5
t235.5 73.5q153 0 240.5 -68.5t87.5 -177.5q0 -192 -154 -264q211 -59 211 -258q0 -136 -102.5 -221.5t-282.5 -85.5z" />
    <glyph glyph-name="uni0438" unicode="&#x438;" horiz-adv-x="1087" 
d="M139 0v1059h82v-938l637 938h90v-1059h-82v938l-637 -938h-90z" />
    <glyph glyph-name="uni0439" unicode="&#x439;" horiz-adv-x="1087" 
d="M139 0v1059h82v-938l637 938h90v-1059h-82v938l-637 -938h-90zM264 1434h78q5 -80 61.5 -131.5t141.5 -51.5t141.5 51.5t61.5 131.5h77q-9 -108 -87 -176t-193 -68t-193.5 68.5t-87.5 175.5z" />
    <glyph glyph-name="uni043A" unicode="&#x43a;" horiz-adv-x="905" 
d="M221 0h-82v1059h82v-481h129l422 481h98l-452 -514l456 -545h-102l-428 512h-123v-512z" />
    <glyph glyph-name="uni043B" unicode="&#x43b;" horiz-adv-x="1091" 
d="M952 1059v-1059h-82v993h-503q-13 -229 -23 -354q-1 -15 -6 -70.5t-7 -81.5t-8.5 -80t-12.5 -85t-16 -76.5t-21.5 -75.5t-28 -60.5t-35.5 -50.5q-62 -67 -178 -67h-21v65h21q72 0 121 52q78 86 102 383q22 264 35 567h663z" />
    <glyph glyph-name="uni043C" unicode="&#x43c;" horiz-adv-x="1327" 
d="M139 0v1059h101l422 -961h4l421 961h101v-1059h-82v901h-2l-399 -901h-82l-400 901h-2v-901h-82z" />
    <glyph glyph-name="uni043D" unicode="&#x43d;" horiz-adv-x="1087" 
d="M221 1059v-492h645v492h82v-1059h-82v502h-645v-502h-82v1059h82z" />
    <glyph glyph-name="uni043E" unicode="&#x43e;" horiz-adv-x="1161" 
d="M580 -8q-119 0 -216 44t-159.5 118t-96.5 170t-34 202q0 107 34 204t96.5 172.5t159.5 120t216 44.5q156 0 273.5 -77t175.5 -198.5t58 -265.5q0 -143 -58 -263t-175.5 -195.5t-273.5 -75.5zM156 526q0 -131 52.5 -237t150 -168t221.5 -62q188 0 307 134t119 333
q0 204 -119 339.5t-307 135.5t-306 -135.5t-118 -339.5z" />
    <glyph glyph-name="uni043F" unicode="&#x43f;" horiz-adv-x="1087" 
d="M948 1059v-1059h-82v993h-645v-993h-82v1059h809z" />
    <glyph glyph-name="uni0440" unicode="&#x440;" horiz-adv-x="1161" 
d="M610 1067q118 0 211.5 -44.5t150 -120.5t86 -171.5t29.5 -204.5q0 -86 -18 -163.5t-56.5 -145.5t-93.5 -118t-134.5 -78.5t-174.5 -28.5q-268 0 -387 233h-2v-635h-82v1469h82v-219h2q125 227 387 227zM213 526q0 -66 13 -130t43.5 -125.5t75.5 -108t113.5 -75
t151.5 -28.5q185 0 290.5 132t105.5 335q0 208 -105.5 341.5t-290.5 133.5t-291 -133.5t-106 -341.5z" />
    <glyph glyph-name="uni0441" unicode="&#x441;" horiz-adv-x="1105" 
d="M1020 289q-39 -137 -155.5 -217t-284.5 -80q-119 0 -216 44t-159.5 118t-96.5 170t-34 202q0 107 34 204t96.5 172.5t159.5 120t216 44.5q164 0 279 -77.5t155 -209.5h-88q-35 105 -127.5 163t-218.5 58q-188 0 -306 -135.5t-118 -339.5q0 -131 52.5 -237t150 -168
t221.5 -62q129 0 223 60.5t129 169.5h88z" />
    <glyph glyph-name="uni0442" unicode="&#x442;" horiz-adv-x="911" 
d="M881 1059v-66h-383v-993h-82v993h-385v66h850z" />
    <glyph glyph-name="uni0443" unicode="&#x443;" horiz-adv-x="983" 
d="M106 1059l402 -991h2q61 165 183.5 495.5t183.5 495.5h81q-79 -213 -237.5 -638t-237.5 -638q-18 -49 -34.5 -79.5t-43 -59t-64 -41.5t-89.5 -13h-70v66h74q24 0 44.5 6t36 20.5t26.5 26.5t22 36t16 36t14.5 40.5t12.5 35.5l37 104l-440 1098h81z" />
    <glyph glyph-name="uni0444" unicode="&#x444;" horiz-adv-x="1363" 
d="M641 -25q-261 10 -414 159t-153 392q0 246 153 396t414 161v379h82v-379q261 -11 414 -161t153 -396q0 -243 -153 -392t-414 -159v-385h-82v385zM156 526q0 -212 130.5 -342.5t354.5 -142.5v977q-224 -12 -354.5 -145t-130.5 -347zM723 41q224 12 354.5 142.5
t130.5 342.5q0 214 -130.5 347t-354.5 145v-977z" />
    <glyph glyph-name="uni0445" unicode="&#x445;" horiz-adv-x="972" 
d="M41 0l391 545l-371 514h101l325 -455l324 455h100l-372 -516l393 -543h-101l-344 483l-346 -483h-100z" />
    <glyph glyph-name="uni0446" unicode="&#x446;" horiz-adv-x="1116" 
d="M139 0v1059h82v-993h645v993h82v-993h127v-351h-74v285h-862z" />
    <glyph glyph-name="uni0447" unicode="&#x447;" horiz-adv-x="960" 
d="M479 403q-220 0 -319 95t-99 290v271h82v-266q0 -168 73.5 -242t258.5 -74q130 0 264 25v557h82v-1059h-82v428q-131 -25 -260 -25z" />
    <glyph glyph-name="uni0448" unicode="&#x448;" horiz-adv-x="1568" 
d="M139 0v1059h82v-993h522v993h82v-993h523v993h82v-1059h-1291z" />
    <glyph glyph-name="uni0449" unicode="&#x449;" horiz-adv-x="1597" 
d="M139 0v1059h82v-993h522v993h82v-993h523v993h82v-993h126v-351h-73v285h-1344z" />
    <glyph glyph-name="uni044A" unicode="&#x44a;" horiz-adv-x="1179" 
d="M401 0v993h-385v66h467v-400h265q169 0 274.5 -88.5t105.5 -234.5q0 -152 -105.5 -244t-274.5 -92h-347zM483 66h262q133 0 217.5 70t84.5 200q0 124 -84.5 191t-217.5 67h-262v-528z" />
    <glyph glyph-name="uni044B" unicode="&#x44b;" horiz-adv-x="1218" 
d="M997 0v1059h82v-1059h-82zM139 0v1059h82v-400h234q169 0 275 -88.5t106 -234.5q0 -152 -106 -244t-275 -92h-316zM221 66h232q133 0 217 70t84 200q0 124 -84 191t-217 67h-232v-528z" />
    <glyph glyph-name="uni044C" unicode="&#x44c;" horiz-adv-x="917" 
d="M139 0v1059h82v-400h264q169 0 275 -88.5t106 -234.5q0 -152 -106 -244t-275 -92h-346zM221 66h262q133 0 217 70t84 200q0 124 -84 191t-217 67h-262v-528z" />
    <glyph glyph-name="uni044D" unicode="&#x44d;" horiz-adv-x="1105" 
d="M350 502v65h598q-12 189 -127.5 311.5t-294.5 122.5q-126 0 -218.5 -58t-127.5 -163h-88q40 132 155 209.5t279 77.5q119 0 216 -44.5t159.5 -120t96.5 -172.5t34 -204q0 -106 -34 -202t-96.5 -170t-159.5 -118t-216 -44q-168 0 -284.5 80t-155.5 217h88
q35 -109 129 -169.5t223 -60.5q182 0 299 126t125 317h-600z" />
    <glyph glyph-name="uni044E" unicode="&#x44e;" horiz-adv-x="1456" 
d="M221 1059v-492h189q7 135 65 247.5t168 182.5t252 70q112 0 205.5 -44.5t154.5 -119t94 -171.5t33 -204t-33 -203.5t-94 -171.5t-154.5 -119t-205.5 -44q-109 0 -200 41.5t-151.5 112.5t-95.5 163t-40 195h-187v-502h-82v1059h82zM489 528q0 -201 114.5 -337t291.5 -136
q117 0 210 62.5t144 170.5t51 240t-51 240t-144 170.5t-210 62.5q-177 0 -291.5 -136t-114.5 -337z" />
    <glyph glyph-name="uni044F" unicode="&#x44f;" horiz-adv-x="1007" 
d="M88 4q51 100 88 219q38 123 76 179t108 83q-102 33 -160.5 103.5t-58.5 167.5q0 138 106 220.5t275 82.5h346v-1059h-82v463h-264q-49 0 -85.5 -9.5t-60 -23.5t-43.5 -43.5t-32 -56.5t-29 -74q-7 -19 -25 -77.5t-33 -100.5t-32 -78h-94v4zM223 756q0 -110 84 -169
t217 -59h262v465h-262q-134 0 -217.5 -61t-83.5 -176z" />
    <glyph glyph-name="uni0450" unicode="&#x450;" horiz-adv-x="1112" 
d="M1026 311q-50 -144 -167 -231.5t-288 -87.5q-95 0 -176.5 28.5t-139.5 78.5t-99.5 117.5t-61.5 146t-20 163.5q0 107 32.5 204t92.5 172.5t154.5 120t209.5 44.5q111 0 197 -36.5t141 -104t85.5 -155t39.5 -196.5q4 -50 4 -73h-876q6 -191 121 -317t296 -126
q130 0 227 68t142 184h86zM154 567h796q-21 211 -114 322.5t-273 111.5q-172 0 -285 -122.5t-124 -311.5zM340 1462h98l205 -268h-61z" />
    <glyph glyph-name="uni0451" unicode="&#x451;" horiz-adv-x="1112" 
d="M1026 311q-50 -144 -167 -231.5t-288 -87.5q-95 0 -176.5 28.5t-139.5 78.5t-99.5 117.5t-61.5 146t-20 163.5q0 107 32.5 204t92.5 172.5t154.5 120t209.5 44.5q111 0 197 -36.5t141 -104t85.5 -155t39.5 -196.5q4 -50 4 -73h-876q6 -191 121 -317t296 -126
q130 0 227 68t142 184h86zM154 567h796q-21 211 -114 322.5t-273 111.5q-172 0 -285 -122.5t-124 -311.5zM406 1286v176h73v-176h-73zM639 1286v176h74v-176h-74z" />
    <glyph glyph-name="uni0452" unicode="&#x452;" horiz-adv-x="1087" 
d="M139 0v1221h-159v61h159v180h82v-180h457v-61h-457v-365q46 99 127.5 155t216.5 56q383 0 383 -410v-864q0 -100 -48.5 -148t-160.5 -48h-71v65h84q114 0 114 119v876q0 95 -23.5 163.5t-66 107t-94.5 56t-117 17.5q-52 0 -98.5 -11.5t-92.5 -42t-79 -78t-53.5 -125.5
t-20.5 -179v-565h-82z" />
    <glyph glyph-name="uni0453" unicode="&#x453;" horiz-adv-x="813" 
d="M793 1059v-66h-572v-993h-82v1059h654zM414 1194l204 268h99l-242 -268h-61z" />
    <glyph glyph-name="uni0454" unicode="&#x454;" horiz-adv-x="1105" 
d="M756 502h-600q8 -191 125 -317t299 -126q129 0 223 60.5t129 169.5h88q-39 -137 -155.5 -217t-284.5 -80q-119 0 -216 44t-159.5 118t-96.5 170t-34 202q0 107 34 204t96.5 172.5t159.5 120t216 44.5q164 0 279 -77.5t155 -209.5h-88q-35 105 -127.5 163t-218.5 58
q-179 0 -294.5 -122.5t-127.5 -311.5h598v-65z" />
    <glyph glyph-name="uni0455" unicode="&#x455;" horiz-adv-x="919" 
d="M752 745q-14 133 -93 194.5t-194 61.5q-52 0 -97.5 -11t-84.5 -33.5t-61.5 -63t-22.5 -94.5q0 -46 16 -81t48.5 -59.5t68.5 -40.5t88 -30l149 -43q63 -19 108.5 -39t86 -51t61.5 -75t21 -101q0 -61 -23.5 -110t-61 -81t-87.5 -53t-101 -30t-104 -9t-102 10.5t-96 34
t-84.5 59.5t-67.5 90t-45 121h82q15 -115 99.5 -182.5t213.5 -67.5q133 0 214 54.5t81 163.5q0 82 -55.5 126t-161.5 74l-148 41q-46 12 -82.5 26.5t-75.5 38t-65 52t-42.5 70.5t-16.5 92q0 66 31 119t82.5 84.5t111.5 48t123 16.5q150 0 245.5 -79t123.5 -243h-82z" />
    <glyph glyph-name="uni0456" unicode="&#x456;" horiz-adv-x="364" 
d="M225 1257h-86v205h86v-205zM141 0v1059h82v-1059h-82z" />
    <glyph glyph-name="uni0457" unicode="&#x457;" horiz-adv-x="360" 
d="M139 0v1059h82v-1059h-82zM25 1286v176h73v-176h-73zM258 1286v176h74v-176h-74z" />
    <glyph glyph-name="uni0458" unicode="&#x458;" horiz-adv-x="395" 
d="M256 1257h-86v205h86v-205zM-25 -403v65h84q113 0 113 119v1278h84v-1266q0 -100 -48.5 -148t-160.5 -48h-72z" />
    <glyph glyph-name="uni0459" unicode="&#x459;" horiz-adv-x="1607" 
d="M932 1059v-400h244q169 0 274.5 -88.5t105.5 -234.5q0 -152 -105.5 -244t-274.5 -92h-326v993h-483q-13 -229 -23 -354q-1 -15 -6 -70.5t-7 -81.5t-8.5 -80t-12.5 -85t-16 -76.5t-21.5 -75.5t-28 -60.5t-35.5 -50.5q-62 -67 -178 -67h-21v65h21q72 0 121 52
q78 86 102 383q22 264 35 567h643zM932 66h242q133 0 217 70t84 200q0 124 -84 191t-217 67h-242v-528z" />
    <glyph glyph-name="uni045A" unicode="&#x45a;" horiz-adv-x="1603" 
d="M221 1059v-451h625v451h82v-451h274q164 0 257 -84t93 -219q0 -141 -92 -223t-258 -82h-356v543h-625v-543h-82v1059h82zM928 66h272q130 0 200 60.5t70 178.5q0 114 -71 176t-199 62h-272v-477z" />
    <glyph glyph-name="uni045B" unicode="&#x45b;" horiz-adv-x="1079" 
d="M139 0v1221h-159v61h159v180h82v-180h457v-61h-457v-365q46 99 127.5 155t216.5 56q383 0 383 -410v-657h-82v657q0 95 -23.5 163.5t-66 107t-94.5 56t-117 17.5q-52 0 -98.5 -11.5t-92.5 -42t-79 -78t-53.5 -125.5t-20.5 -179v-565h-82z" />
    <glyph glyph-name="uni045C" unicode="&#x45c;" horiz-adv-x="905" 
d="M221 0h-82v1059h82v-481h129l422 481h98l-452 -514l456 -545h-102l-428 512h-123v-512zM399 1194l205 268h98l-241 -268h-62z" />
    <glyph glyph-name="uni045D" unicode="&#x45d;" horiz-adv-x="1087" 
d="M139 0v1059h82v-938l637 938h90v-1059h-82v938l-637 -938h-90zM324 1462h98l205 -268h-62z" />
    <glyph glyph-name="uni045E" unicode="&#x45e;" horiz-adv-x="983" 
d="M106 1059l402 -991h2q61 165 183.5 495.5t183.5 495.5h81q-79 -213 -237.5 -638t-237.5 -638q-18 -49 -34.5 -79.5t-43 -59t-64 -41.5t-89.5 -13h-70v66h74q24 0 44.5 6t36 20.5t26.5 26.5t22 36t16 36t14.5 40.5t12.5 35.5l37 104l-440 1098h81zM201 1434h78
q5 -80 61.5 -131.5t140.5 -51.5q85 0 141.5 51.5t61.5 131.5h78q-9 -107 -87.5 -175.5t-193.5 -68.5t-193 68t-87 176z" />
    <glyph glyph-name="uni045F" unicode="&#x45f;" horiz-adv-x="1087" 
d="M508 -285v285h-369v1059h82v-993h645v993h82v-1059h-366v-285h-74z" />
    <glyph glyph-name="uni0490" unicode="&#x490;" horiz-adv-x="1015" 
d="M250 1393v-1393h-86v1462h721v326h80v-395h-715z" />
    <glyph glyph-name="uni0491" unicode="&#x491;" horiz-adv-x="813" 
d="M221 993v-993h-82v1059h580v284h74v-350h-572z" />
    <glyph glyph-name="uni0492" unicode="&#x492;" horiz-adv-x="1015" 
d="M6 698v62h158v702h801v-69h-715v-633h395v-62h-395v-698h-86v698h-158z" />
    <glyph glyph-name="uni0493" unicode="&#x493;" horiz-adv-x="813" 
d="M571 504h-350v-504h-82v504h-127v61h127v494h654v-66h-572v-428h350v-61z" />
    <glyph glyph-name="uni0496" unicode="&#x496;" horiz-adv-x="1865" 
d="M1667 0l-573 715h-133v-715h-87v715h-133l-573 -715h-107l609 752l-543 710h104l506 -678h137v678h87v-678h137l506 678h104l-543 -710l553 -682h97v-437h-80v367h-68z" />
    <glyph glyph-name="uni0497" unicode="&#x497;" horiz-adv-x="1357" 
d="M41 0l418 543l-412 516h94l383 -481h105v481h82v-481h104l383 481h94l-411 -516l366 -477h101v-351h-74v285h-70l-391 512h-102v-512h-82v512h-103l-391 -512h-94z" />
    <glyph glyph-name="uni049A" unicode="&#x49a;" horiz-adv-x="1294" 
d="M1081 0l-653 715h-178v-715h-86v1462h86v-678h180l588 678h108l-622 -712l624 -680h115v-437h-80v367h-82z" />
    <glyph glyph-name="uni049B" unicode="&#x49b;" horiz-adv-x="923" 
d="M221 0h-82v1059h82v-481h129l422 481h98l-452 -514l401 -479h94v-351h-73v285h-68l-428 512h-123v-512z" />
    <glyph glyph-name="uni049C" unicode="&#x49c;" horiz-adv-x="1243" 
d="M1079 0l-618 715h-49v-287h-74v287h-88v-715h-86v1462h86v-678h88v252h74v-252h51l553 678h110l-589 -710l655 -752h-113z" />
    <glyph glyph-name="uni049D" unicode="&#x49d;" horiz-adv-x="905" 
d="M221 0h-82v1059h82v-492h74v232h70v-232h22l383 492h102l-415 -527l417 -532h-102l-387 502h-20v-230h-70v230h-74v-502z" />
    <glyph glyph-name="uni04A2" unicode="&#x4a2;" horiz-adv-x="1390" 
d="M1096 1462h86v-1392h137v-437h-80v367h-143v715h-846v-715h-86v1462h86v-678h846v678z" />
    <glyph glyph-name="uni04A3" unicode="&#x4a3;" horiz-adv-x="1116" 
d="M221 1059v-492h645v492h82v-993h127v-351h-74v285h-135v502h-645v-502h-82v1059h82z" />
    <glyph glyph-name="uni04AE" unicode="&#x4ae;" horiz-adv-x="1150" 
d="M131 1462q73 -130 221.5 -391t220.5 -391h5q73 130 221.5 391t220.5 391h94l-496 -872v-590h-86v590l-495 872h94z" />
    <glyph glyph-name="uni04AF" unicode="&#x4af;" horiz-adv-x="974" 
d="M106 1059l381 -950h2l379 950h82q-69 -174 -210.5 -530.5t-211.5 -530.5v-408h-82v408q-70 174 -211 530.5t-210 530.5h81z" />
    <glyph glyph-name="uni04B2" unicode="&#x4b2;" horiz-adv-x="1243" 
d="M29 0l503 752l-495 710h94l451 -637l450 637h94l-495 -710l456 -682h105v-437h-80v367h-72l-458 678l-459 -678h-94z" />
    <glyph glyph-name="uni04B3" unicode="&#x4b3;" horiz-adv-x="991" 
d="M41 0l391 545l-371 514h101l325 -455l324 455h100l-372 -516l346 -477h96v-351h-74v285h-76l-344 483l-346 -483h-100z" />
    <glyph glyph-name="uni04B8" unicode="&#x4b8;" horiz-adv-x="1196" 
d="M537 338v266q-234 10 -339.5 116t-105.5 314v428h86v-432q0 -335 359 -356v272h73v-274q177 3 336 45v745h86v-1462h-86v647q-176 -42 -336 -45v-264h-73z" />
    <glyph glyph-name="uni04B9" unicode="&#x4b9;" horiz-adv-x="960" 
d="M416 170v236q-186 13 -270.5 107.5t-84.5 274.5v271h82v-266q0 -155 61.5 -229.5t211.5 -84.5v217h69v-219q126 0 254 25v557h82v-1059h-82v428q-128 -25 -254 -25v-233h-69z" />
    <glyph glyph-name="uni04BA" unicode="&#x4ba;" horiz-adv-x="1196" 
d="M604 860q264 0 382 -106t118 -326v-428h-86v432q0 359 -412 359q-175 0 -356 -46v-745h-86v1462h86v-647q196 45 354 45z" />
    <glyph glyph-name="uni04BB" unicode="&#x4bb;" horiz-adv-x="1079" 
d="M139 0v1462h82v-606q46 99 127.5 155t216.5 56q383 0 383 -410v-657h-82v657q0 95 -23.5 163.5t-66 107t-94.5 56t-117 17.5q-52 0 -98.5 -11.5t-92.5 -42t-79 -78t-53.5 -125.5t-20.5 -179v-565h-82z" />
    <glyph glyph-name="uni04C0" unicode="&#x4c0;" horiz-adv-x="413" 
d="M164 1462h86v-1462h-86v1462z" />
    <glyph glyph-name="uni04CF" unicode="&#x4cf;" horiz-adv-x="360" 
d="M139 1462h82v-1462h-82v1462z" />
    <glyph glyph-name="uni04D8" unicode="&#x4d8;" horiz-adv-x="1556" 
d="M762 -20q-154 0 -282.5 59t-214 160.5t-132.5 238t-47 291.5q0 37 2 55h1294q-6 95 -33.5 184t-79 169t-123 139t-172 94t-218.5 35q-212 0 -349 -91t-198 -245h-88q73 190 234 298t401 108q162 0 297.5 -56.5t226 -154.5t140.5 -231t50 -285q0 -350 -196 -559t-512 -209
zM166 715q2 -100 26 -194.5t73 -180.5t118 -150.5t166.5 -102.5t212.5 -38q124 0 228 38t174.5 102.5t120.5 150.5t73.5 180.5t25.5 194.5h-1218z" />
    <glyph glyph-name="uni04D9" unicode="&#x4d9;" horiz-adv-x="1112" 
d="M86 748q50 144 167 231.5t288 87.5q118 0 214.5 -44t157 -118.5t93 -170t32.5 -202.5t-32.5 -204t-92.5 -172t-154.5 -119.5t-209.5 -44.5q-111 0 -197 36.5t-141 103.5t-85.5 154.5t-39.5 196.5q-4 50 -4 74h876q-6 191 -121 316.5t-296 125.5q-131 0 -227.5 -68
t-141.5 -183h-86zM162 492q21 -211 114 -323t273 -112q172 0 285 123t124 312h-796z" />
    <glyph glyph-name="uni04E8" unicode="&#x4e8;" horiz-adv-x="1644" 
d="M821 1481q169 0 309 -59.5t233.5 -161.5t144.5 -239t51 -292q0 -208 -87 -377t-257 -270.5t-394 -101.5q-169 0 -309 59t-232.5 160.5t-143 238t-50.5 291.5q0 124 32 237t94.5 206.5t150 162.5t205.5 107.5t253 38.5zM172 715q2 -100 27.5 -194.5t78 -180.5t127 -150.5
t182 -102.5t234.5 -38q128 0 236.5 38t183 102.5t127 150.5t78 180.5t27.5 194.5h-1301zM174 784h1296q-6 96 -34 185.5t-81.5 170.5t-127 140.5t-178.5 95t-228 35.5q-122 0 -226 -35.5t-177 -95t-126.5 -140.5t-82 -170.5t-35.5 -185.5z" />
    <glyph glyph-name="uni04E9" unicode="&#x4e9;" horiz-adv-x="1161" 
d="M580 -8q-119 0 -216 44t-159.5 118t-96.5 170t-34 202q0 107 34 204t96.5 172.5t159.5 120t216 44.5q156 0 273.5 -77t175.5 -198.5t58 -265.5q0 -143 -58 -263t-175.5 -195.5t-273.5 -75.5zM156 502q8 -191 125 -317t299 -126t300 126t126 317h-850zM158 567h846
q-12 189 -128.5 311.5t-295.5 122.5t-294.5 -122.5t-127.5 -311.5z" />
    <glyph glyph-name="Wgrave" unicode="&#x1e80;" horiz-adv-x="1796" 
d="M29 1462h92l287 -1102l73 -272h4l70 272l276 1102h132l274 -1093l76 -281h4l72 283l284 1091h94l-290 -1089l-101 -373h-127l-94 367l-258 1001h-2l-258 -1006l-92 -362h-125zM608 1802h123l264 -205h-82z" />
    <glyph glyph-name="wgrave" unicode="&#x1e81;" horiz-adv-x="1378" 
d="M342 0l-317 1059h81l222 -748q9 -33 28.5 -98t28.5 -98h2l55 198l205 746h84l203 -733l57 -211h2q10 36 32 106.5t32 106.5l215 731h82l-318 -1059h-86l-205 748q-9 31 -26.5 95t-26.5 95h-2q-9 -31 -26.5 -95t-26.5 -95l-209 -748h-86zM506 1462h98l205 -268h-61z" />
    <glyph glyph-name="Wacute" unicode="&#x1e82;" horiz-adv-x="1796" 
d="M29 1462h92l287 -1102l73 -272h4l70 272l276 1102h132l274 -1093l76 -281h4l72 283l284 1091h94l-290 -1089l-101 -373h-127l-94 367l-258 1001h-2l-258 -1006l-92 -362h-125zM793 1597l264 205h123l-306 -205h-81z" />
    <glyph glyph-name="wacute" unicode="&#x1e83;" horiz-adv-x="1378" 
d="M342 0l-317 1059h81l222 -748q9 -33 28.5 -98t28.5 -98h2l55 198l205 746h84l203 -733l57 -211h2q10 36 32 106.5t32 106.5l215 731h82l-318 -1059h-86l-205 748q-9 31 -26.5 95t-26.5 95h-2q-9 -31 -26.5 -95t-26.5 -95l-209 -748h-86zM674 1194l205 268h98l-242 -268
h-61z" />
    <glyph glyph-name="Wdieresis" unicode="&#x1e84;" horiz-adv-x="1796" 
d="M29 1462h92l287 -1102l73 -272h4l70 272l276 1102h132l274 -1093l76 -281h4l72 283l284 1091h94l-290 -1089l-101 -373h-127l-94 367l-258 1001h-2l-258 -1006l-92 -362h-125zM719 1597v205h78v-205h-78zM981 1597v205h78v-205h-78z" />
    <glyph glyph-name="wdieresis" unicode="&#x1e85;" horiz-adv-x="1378" 
d="M342 0l-317 1059h81l222 -748q9 -33 28.5 -98t28.5 -98h2l55 198l205 746h84l203 -733l57 -211h2q10 36 32 106.5t32 106.5l215 731h82l-318 -1059h-86l-205 748q-9 31 -26.5 95t-26.5 95h-2q-9 -31 -26.5 -95t-26.5 -95l-209 -748h-86zM537 1286v176h73v-176h-73z
M770 1286v176h74v-176h-74z" />
    <glyph glyph-name="uni1E9E" unicode="&#x1e9e;" horiz-adv-x="1325" 
d="M168 977q0 225 130 355t335 130q139 0 259.5 -41t244.5 -112l-453 -500q114 0 206.5 -22.5t164.5 -69.5t111.5 -125t39.5 -182q0 -131 -58.5 -228.5t-148.5 -144.5t-196 -47q-79 0 -131 12t-109 35l25 72q58 -26 105 -38t110 -12q140 0 228.5 101.5t88.5 249.5
q0 151 -105.5 240t-332.5 89h-76v92l414 461q-94 47 -185 74t-202 27q-172 0 -275.5 -110t-103.5 -306v-977h-86v977z" />
    <glyph glyph-name="Ygrave" unicode="&#x1ef2;" horiz-adv-x="1150" 
d="M131 1462q73 -130 221.5 -391t220.5 -391h5q73 130 221.5 391t220.5 391h94l-496 -872v-590h-86v590l-495 872h94zM289 1802h123l264 -205h-82z" />
    <glyph glyph-name="ygrave" unicode="&#x1ef3;" horiz-adv-x="983" 
d="M106 1059l402 -991h2q61 165 183.5 495.5t183.5 495.5h81q-79 -213 -237.5 -638t-237.5 -638q-18 -49 -34.5 -79.5t-43 -59t-64 -41.5t-89.5 -13h-70v66h74q24 0 44.5 6t36 20.5t26.5 26.5t22 36t16 36t14.5 40.5t12.5 35.5l37 104l-440 1098h81zM260 1462h98l205 -268
h-61z" />
    <glyph glyph-name="uni2011" unicode="&#x2011;" horiz-adv-x="942" 
d="M164 578h614v-66h-614v66z" />
    <glyph glyph-name="endash" unicode="&#x2013;" horiz-adv-x="1325" 
d="M164 578h997v-66h-997v66z" />
    <glyph glyph-name="emdash" unicode="&#x2014;" horiz-adv-x="1744" 
d="M164 578h1417v-66h-1417v66z" />
    <glyph glyph-name="quoteleft" unicode="&#x2018;" horiz-adv-x="321" 
d="M168 1001h-94l129 461h61z" />
    <glyph glyph-name="quoteright" unicode="&#x2019;" horiz-adv-x="321" 
d="M154 1462h94l-129 -461h-62z" />
    <glyph glyph-name="quotesinglbase" unicode="&#x201a;" horiz-adv-x="321" 
d="M154 227h94l-129 -460h-62z" />
    <glyph glyph-name="quotedblleft" unicode="&#x201c;" horiz-adv-x="501" 
d="M348 1001h-94l129 461h61zM74 1001l129 461h61l-96 -461h-94z" />
    <glyph glyph-name="quotedblright" unicode="&#x201d;" horiz-adv-x="501" 
d="M154 1462h94l-129 -461h-62zM238 1001l96 461h94l-129 -461h-61z" />
    <glyph glyph-name="quotedblbase" unicode="&#x201e;" horiz-adv-x="501" 
d="M154 227h94l-129 -460h-62zM238 -233l96 460h94l-129 -460h-61z" />
    <glyph glyph-name="dagger" unicode="&#x2020;" horiz-adv-x="1138" 
d="M123 993v66h409v403h74v-403h410v-66h-410v-1304h-74v1304h-409z" />
    <glyph glyph-name="daggerdbl" unicode="&#x2021;" horiz-adv-x="1138" 
d="M1016 993h-410v-835h410v-66h-410v-403h-74v403h-409v66h409v835h-409v66h409v403h74v-403h410v-66z" />
    <glyph glyph-name="bullet" unicode="&#x2022;" horiz-adv-x="1083" 
d="M543 909q159 0 268 -108t109 -266q0 -159 -109.5 -270t-267.5 -111t-268.5 111.5t-110.5 269.5t110 266t269 108z" />
    <glyph glyph-name="ellipsis" unicode="&#x2026;" horiz-adv-x="1040" 
d="M131 229h74v-229h-74v229zM483 0v229h74v-229h-74zM836 0v229h73v-229h-73z" />
    <glyph glyph-name="perthousand" unicode="&#x2030;" horiz-adv-x="2416" 
d="M385 719q53 0 93.5 30.5t63.5 81.5t34.5 110t11.5 124q0 61 -11.5 118.5t-34.5 106.5t-63.5 79t-93.5 30q-70 0 -118 -51.5t-67.5 -124t-19.5 -158.5q0 -88 19.5 -163t67.5 -129t118 -54zM106 1063q0 79 15.5 148t47.5 126.5t87.5 91t128.5 33.5t128.5 -33.5t87 -91
t46.5 -126.5t15 -148t-15 -149t-46.5 -129.5t-87 -94.5t-128.5 -35t-128.5 34.5t-87.5 94t-47.5 129.5t-15.5 150zM553 8l563 1448h80l-563 -1448h-80zM1108 408q0 79 15.5 148t47 126.5t87 91t128.5 33.5t128.5 -33.5t87 -91t46.5 -126.5t15 -148t-15 -149t-46.5 -129.5
t-87 -94.5t-128.5 -35t-128.5 34.5t-87 94t-47 129.5t-15.5 150zM1182 410q0 -64 11.5 -123.5t35 -111t64 -82t93.5 -30.5t93.5 30.5t63.5 82t34.5 110.5t11.5 124q0 62 -11.5 119t-34.5 106t-63.5 78.5t-93.5 29.5t-93.5 -29t-64 -78t-35 -106t-11.5 -120zM1755 408
q0 79 15.5 148t47.5 126.5t87.5 91t128.5 33.5t128 -33.5t86.5 -91t46.5 -126.5t15 -148t-15 -149t-46.5 -129.5t-86.5 -94.5t-128 -35t-128.5 34.5t-87.5 94t-47.5 129.5t-15.5 150zM1829 410q0 -88 19.5 -163.5t67.5 -129.5t118 -54q53 0 93.5 30.5t63 82t34 110.5
t11.5 124q0 62 -11.5 119t-34 106t-63 78.5t-93.5 29.5q-70 0 -118 -51.5t-67.5 -124t-19.5 -157.5z" />
    <glyph glyph-name="guilsinglleft" unicode="&#x2039;" horiz-adv-x="485" 
d="M90 532l223 410h82l-211 -410l211 -413h-82z" />
    <glyph glyph-name="guilsinglright" unicode="&#x203a;" horiz-adv-x="485" 
d="M395 532l-223 -413h-82l211 413l-211 410h82z" />
    <glyph glyph-name="fraction" unicode="&#x2044;" horiz-adv-x="417" 
d="M530 1456l-563 -1448h-80l564 1448h79z" />
    <glyph glyph-name="Euro" unicode="&#x20ac;" horiz-adv-x="1511" 
d="M1092 571h-725q32 -153 116.5 -271t222.5 -188.5t310 -70.5q185 0 315 72v-74q-152 -64 -315 -64q-197 0 -353.5 80t-250 212.5t-127.5 303.5h-174l26 66h137q-6 53 -6 104q0 43 2 66h-174l27 65h156q19 134 78 249t151.5 201t223 135.5t284.5 49.5q216 0 383 -92
l-25 -65q-78 45 -159.5 68.5t-198.5 23.5q-144 0 -262.5 -45t-198 -124.5t-129 -180.5t-66.5 -220h836l-20 -65h-824q-2 -23 -2 -66q0 -51 6 -104h756z" />
    <glyph glyph-name="uni20B4" unicode="&#x20b4;" horiz-adv-x="1243" 
d="M614 -14q-76 0 -141.5 10.5t-129 37t-109 68t-73.5 108t-30 152.5q-3 166 107 261h-107v65h205q75 38 219 80q176 52 252 90h-676v66h774q72 69 72 192q-3 133 -107 212t-256 79q-156 0 -263 -84t-124 -246h-86q11 102 53 180.5t106.5 125.5t143.5 70.5t170 23.5
q187 0 316.5 -96.5t132.5 -264.5q3 -118 -51 -192h106v-66h-170q-99 -78 -370 -158l-41 -12h581v-65h-747q-78 -42 -116.5 -103.5t-37.5 -157.5q1 -84 35 -145.5t92 -95.5t125 -50t145 -16q75 0 147.5 24.5t133.5 70.5t100.5 120t46.5 164h86q-8 -115 -56 -204
t-121.5 -140.5t-158.5 -77.5t-178 -26z" />
    <glyph glyph-name="uni20BD" unicode="&#x20bd;" horiz-adv-x="1136" 
d="M559 711q197 0 301.5 87.5t104.5 266.5q0 153 -99.5 240.5t-287.5 87.5h-328v-682h309zM6 389v70h158v182h-158v70h158v751h434q198 0 325.5 -104t127.5 -293q0 -201 -129.5 -312.5t-341.5 -111.5h-330v-182h395v-70h-395v-389h-86v389h-158z" />
    <glyph glyph-name="uni2113" unicode="&#x2113;" horiz-adv-x="960" 
d="M37 422l235 168v473q0 70 7 126.5t26 111t49.5 91t80.5 59t116 22.5q128 0 195 -89.5t67 -218.5q0 -88 -25.5 -162t-80.5 -142t-120 -124t-167 -129l-66 -47v-233q0 -141 47 -208t152 -67q72 0 118.5 28t106.5 97l47 -57q-56 -62 -120 -97.5t-152 -35.5q-143 0 -212 77.5
t-69 262.5v174l-194 -140zM354 649l29 21q94 68 154 120.5t107 112t68 123t21 139.5q0 110 -46.5 176t-135.5 66q-93 0 -145 -88.5t-52 -255.5v-414z" />
    <glyph glyph-name="uni2116" unicode="&#x2116;" horiz-adv-x="2150" 
d="M164 1462h92l709 -1108q86 -138 145 -223v266v1065h86v-1462h-92l-709 1108q-86 138 -145 223v-266v-1065h-86v1462zM1329 1104q0 159 98.5 269t260.5 110t260 -110t98 -269t-98 -269t-260 -110t-260.5 110t-98.5 269zM1411 1104q0 -131 77.5 -218t199.5 -87t199 87
t77 218t-77 218t-199 87t-199.5 -87t-77.5 -218z" />
    <glyph glyph-name="uni2117" unicode="&#x2117;" horiz-adv-x="1734" 
d="M868 23q-143 0 -273 56.5t-224 151.5t-149.5 226.5t-55.5 275.5q0 143 55.5 274t149.5 226t224 151t273 56q190 0 351.5 -95.5t255.5 -258t94 -353.5q0 -192 -94 -355.5t-255.5 -259t-351.5 -95.5zM86 733q0 -160 62 -305t166.5 -249.5t249.5 -166t304 -61.5t303 61.5
t249 166t167 249.5t62 305q0 211 -105 390.5t-284.5 283.5t-391.5 104q-159 0 -304 -61.5t-249.5 -165.5t-166.5 -248.5t-62 -302.5zM682 373v731h244q115 0 182.5 -59t67.5 -152q0 -94 -69.5 -152.5t-184.5 -58.5h-158v-309h-82zM764 748h145q187 0 187 145q0 66 -46 105.5
t-132 39.5h-154v-290z" />
    <glyph glyph-name="trademark" unicode="&#x2122;" horiz-adv-x="917" 
d="M387 1409h-131v-354h-66v354h-131v53h328v-53zM453 1055v407h100l106 -329l107 329h104v-407h-65v331h-2l-103 -331h-77l-105 329h-2v-329h-63z" />
    <glyph glyph-name="uni2126" unicode="&#x2126;" horiz-adv-x="1511" 
d="M135 0v70h451v221q-83 16 -165 67.5t-148.5 127t-108 177.5t-41.5 209q0 131 45 243.5t126 193t200 126.5t262 46t262 -46t200 -126.5t126 -193t45 -243.5q0 -107 -41.5 -209t-108 -177.5t-148 -127t-163.5 -67.5v-221h448v-70h-530v342q131 22 238.5 102.5t166 192
t58.5 229.5q0 236 -152 390.5t-401 154.5t-401 -154.5t-152 -390.5q0 -118 58.5 -229.5t166 -192t238.5 -102.5v-342h-531z" />
    <glyph glyph-name="estimated" unicode="&#x212e;" horiz-adv-x="1220" 
d="M74 528q0 155 71.5 284t197 204.5t278.5 75.5q152 0 273 -75.5t187 -204t66 -284.5h-803v-405q125 -88 277 -88q131 0 240.5 65t172.5 174l60 -32q-72 -127 -196.5 -202t-276.5 -75q-114 0 -216 44.5t-174.5 120t-114.5 179.5t-42 219zM344 598h553v332q-123 92 -276 92
q-152 0 -277 -88v-336z" />
    <glyph glyph-name="uni2153" unicode="&#x2153;" horiz-adv-x="1419" 
d="M250 584v665h-197v56q46 0 71 1t51 6.5t38.5 14.5t24.5 27.5t17.5 43t10.5 62.5h58v-876h-74zM322 8l563 1448h80l-564 -1448h-79zM774 250h76l2 -19q9 -94 65.5 -139t147.5 -45q94 0 154.5 53.5t60.5 141.5q0 55 -19.5 94t-54 60t-74 30.5t-85.5 9.5h-29v66q19 0 51 4
q74 5 119 48t45 118q0 69 -44 109t-122 40t-125 -41.5t-53 -107.5l-2 -17h-74q5 100 71.5 164t182.5 64q113 0 176.5 -57.5t63.5 -147.5q0 -81 -33.5 -128.5t-95.5 -76.5q176 -48 176 -231q0 -113 -77 -184.5t-212 -71.5q-134 0 -206 65.5t-83 186.5z" />
    <glyph glyph-name="uni2154" unicode="&#x2154;" horiz-adv-x="1675" 
d="M66 584q3 45 14.5 85.5t36 76.5t44 61t58.5 57.5t57 46t62 45.5q47 34 70.5 51.5t54 45t43.5 49.5t23 52.5t10 66.5q0 80 -49.5 132t-143.5 52q-97 0 -148 -58.5t-53 -158.5h-73q2 129 72.5 203.5t203.5 74.5q125 0 194.5 -67.5t69.5 -173.5q0 -29 -5.5 -56.5t-12 -47.5
t-22.5 -43t-25 -35.5t-32.5 -34t-31.5 -28.5t-36 -28.5t-33 -25.5q-19 -15 -65 -49.5t-68.5 -53t-53 -49t-47.5 -62t-24 -67.5h469v-61h-559zM557 8l563 1448h80l-563 -1448h-80zM1030 250h76l2 -19q9 -94 65.5 -139t147.5 -45q94 0 154.5 53.5t60.5 141.5q0 55 -19.5 94
t-54 60t-74 30.5t-85.5 9.5h-29v66q19 0 51 4q74 5 119 48t45 118q0 69 -44 109t-122 40t-125 -41.5t-53 -107.5l-2 -17h-74q5 100 71.5 164t182.5 64q113 0 176.5 -57.5t63.5 -147.5q0 -81 -33.5 -128.5t-95.5 -76.5q176 -48 176 -231q0 -113 -77 -184.5t-212 -71.5
q-134 0 -206 65.5t-83 186.5z" />
    <glyph glyph-name="oneeighth" unicode="&#x215b;" horiz-adv-x="1513" 
d="M250 584v665h-197v56q46 0 71 1t51 6.5t38.5 14.5t24.5 27.5t17.5 43t10.5 62.5h58v-876h-74zM317 8l564 1448h80l-564 -1448h-80zM840 236q1 89 58.5 151.5t133.5 81.5q-75 22 -116.5 73t-41.5 124q0 97 78 158t193 61q114 0 191 -61t77 -158q0 -73 -42.5 -125.5
t-113.5 -73.5q77 -16 134 -78.5t57 -152.5q1 -117 -83.5 -183.5t-219.5 -66.5q-136 0 -221 66.5t-84 183.5zM913 240q0 -87 62 -139t170 -52q107 0 168 52t61 139t-61 140.5t-168 53.5t-169.5 -54t-62.5 -140zM950 657q0 -72 53 -116.5t142 -44.5t141.5 44.5t52.5 116.5
q0 69 -51 116.5t-143 47.5t-143.5 -47.5t-51.5 -116.5z" />
    <glyph glyph-name="threeeighths" unicode="&#x215c;" horiz-adv-x="1658" 
d="M356 569q-134 0 -205.5 65.5t-82.5 186.5l-2 13h75l2 -19q9 -94 65.5 -139t147.5 -45q94 0 154.5 53t60.5 141q0 44 -13.5 78.5t-35.5 56t-52.5 35.5t-63 19.5t-68.5 5.5h-29v65q11 0 51 5q74 5 119 48t45 117q0 69 -44 109.5t-122 40.5q-77 0 -124.5 -41.5t-53.5 -108.5
l-2 -16h-74q5 99 71.5 163t182.5 64q113 0 176.5 -57t63.5 -147q0 -81 -33.5 -128.5t-95.5 -76.5q176 -48 176 -232q0 -113 -77 -184.5t-212 -71.5zM492 8l563 1448h80l-564 -1448h-79zM985 236q1 89 59 151.5t134 81.5q-75 22 -116.5 73t-41.5 124q0 97 77.5 158t192.5 61
q114 0 191.5 -61t77.5 -158q0 -73 -42.5 -125.5t-113.5 -73.5q77 -16 133.5 -78.5t56.5 -152.5q1 -117 -83.5 -183.5t-219.5 -66.5q-136 0 -221 66.5t-84 183.5zM1059 240q0 -87 61.5 -139t169.5 -52t169 52t61 139q0 86 -61.5 140t-168.5 54t-169 -54t-62 -140zM1096 657
q0 -72 52.5 -116.5t141.5 -44.5t142 44.5t53 116.5q0 69 -51.5 116.5t-143.5 47.5t-143 -47.5t-51 -116.5z" />
    <glyph glyph-name="fiveeighths" unicode="&#x215d;" horiz-adv-x="1619" 
d="M358 569q-119 0 -202 68t-90 182h73q7 -83 69 -134.5t150 -51.5q93 0 159.5 62t66.5 173q0 109 -57.5 172.5t-161.5 63.5q-75 0 -126.5 -37t-78.5 -86l-76 10l68 469h436v-63h-379l-49 -328q73 100 213 100q133 0 208.5 -78.5t75.5 -222.5q0 -127 -81.5 -213t-217.5 -86z
M500 8l563 1448h80l-563 -1448h-80zM946 236q1 89 59 151.5t134 81.5q-75 22 -116.5 73t-41.5 124q0 97 77.5 158t192.5 61q114 0 191.5 -61t77.5 -158q0 -73 -42.5 -125.5t-113.5 -73.5q77 -16 133.5 -78.5t56.5 -152.5q1 -117 -83.5 -183.5t-219.5 -66.5q-136 0 -221 66.5
t-84 183.5zM1020 240q0 -87 61.5 -139t169.5 -52t169 52t61 139q0 86 -61.5 140t-168.5 54t-169 -54t-62 -140zM1057 657q0 -72 52.5 -116.5t141.5 -44.5t142 44.5t53 116.5q0 69 -51.5 116.5t-143.5 47.5t-143 -47.5t-51 -116.5z" />
    <glyph glyph-name="seveneighths" unicode="&#x215e;" horiz-adv-x="1538" 
d="M186 584q13 223 111 446t225 367h-469v63h555v-63q-136 -141 -236 -368.5t-112 -444.5h-74zM348 8l563 1448h80l-563 -1448h-80zM864 236q1 89 59 151.5t134 81.5q-75 22 -116.5 73t-41.5 124q0 97 77.5 158t192.5 61q114 0 191.5 -61t77.5 -158q0 -73 -42.5 -125.5
t-113.5 -73.5q77 -16 134 -78.5t57 -152.5q1 -117 -84 -183.5t-220 -66.5q-136 0 -221 66.5t-84 183.5zM938 240q0 -87 61.5 -139t169.5 -52t169 52t61 139q0 86 -61.5 140t-168.5 54t-169 -54t-62 -140zM975 657q0 -72 52.5 -116.5t141.5 -44.5t142 44.5t53 116.5
q0 69 -51.5 116.5t-143.5 47.5t-143 -47.5t-51 -116.5z" />
    <glyph glyph-name="arrowleft" unicode="&#x2190;" horiz-adv-x="1742" 
d="M1604 666h-1323l38 -31l545 -545l-55 -57l-670 669l670 670l55 -57l-545 -545l-38 -31h1323v-73z" />
    <glyph glyph-name="arrowup" unicode="&#x2191;" horiz-adv-x="1617" 
d="M139 795l670 669l670 -669l-58 -56l-542 547l-29 33v-1319h-82v1319l-29 -33l-542 -547z" />
    <glyph glyph-name="arrowright" unicode="&#x2192;" horiz-adv-x="1742" 
d="M139 666v73h1323l-39 31l-544 545l55 57l670 -670l-670 -669l-55 57l544 545l39 31h-1323z" />
    <glyph glyph-name="arrowdown" unicode="&#x2193;" horiz-adv-x="1617" 
d="M139 668l58 55l542 -547l29 -33v1319h82v-1319l29 33l542 547l58 -55l-670 -670z" />
    <glyph glyph-name="uni2196" unicode="&#x2196;" horiz-adv-x="1335" 
d="M139 1225h901v-70h-688l-92 4l936 -932l-57 -57l-924 922l4 -88v-680h-80v901z" />
    <glyph glyph-name="uni2197" unicode="&#x2197;" horiz-adv-x="1335" 
d="M1196 1225v-901h-80v680l4 88l-923 -922l-58 57l936 932l-92 -4h-688v70h901z" />
    <glyph glyph-name="uni2198" unicode="&#x2198;" horiz-adv-x="1335" 
d="M1196 190h-901v70h688l92 -4l-936 932l58 57l923 -921l-4 88v680h80v-902z" />
    <glyph glyph-name="uni2199" unicode="&#x2199;" horiz-adv-x="1335" 
d="M139 190v902h80v-680l-4 -88l924 921l57 -57l-936 -932l92 4h688v-70h-901z" />
    <glyph glyph-name="uni219E" unicode="&#x219e;" horiz-adv-x="1742" 
d="M1604 739v-73h-732l39 -31l545 -545l-55 -57l-633 633h-487l38 -31l545 -545l-55 -57l-670 669l670 670l55 -57l-545 -545l-38 -31h487l633 633l55 -57l-545 -545l-39 -31h732z" />
    <glyph glyph-name="uni219F" unicode="&#x219f;" horiz-adv-x="1617" 
d="M846 0h-74v731l-31 -39l-544 -545l-58 56l633 633v487l-31 -39l-544 -545l-58 56l670 669l670 -669l-58 -56l-544 545l-31 39v-487l633 -633l-58 -56l-544 545l-31 39v-731z" />
    <glyph glyph-name="uni21A0" unicode="&#x21a0;" horiz-adv-x="1742" 
d="M870 739l-39 31l-544 545l55 57l633 -633h487l-39 31l-544 545l55 57l670 -670l-670 -669l-55 57l544 545l39 31h-487l-633 -633l-55 57l544 545l39 31h-731v73h731z" />
    <glyph glyph-name="uni21A1" unicode="&#x21a1;" horiz-adv-x="1617" 
d="M846 733l31 39l544 545l58 -55l-633 -633v-488l31 39l544 545l58 -55l-670 -670l-670 670l58 55l544 -545l31 -39v488l-633 633l58 55l544 -545l31 -39v731h74v-731z" />
    <glyph glyph-name="uni21A2" unicode="&#x21a2;" horiz-adv-x="1654" 
d="M1516 8l-56 -57l-547 547h-632l34 -29l461 -461l-55 -57l-582 581l580 580l55 -57l-459 -459l-34 -29h632l545 545l55 -57l-460 -459l-60 -64l60 -63z" />
    <glyph glyph-name="uni21A3" unicode="&#x21a3;" horiz-adv-x="1654" 
d="M139 8l463 461l60 63l-60 64l-461 459l56 57l544 -545h633l-35 29l-458 459l55 57l580 -580l-582 -581l-55 57l460 461l35 29h-633l-546 -547z" />
    <glyph glyph-name="uni21A4" unicode="&#x21a4;" horiz-adv-x="1636" 
d="M719 1112l55 -57l-459 -459l-34 -29h1138v529h78v-1129h-78v531h-1138l34 -29l461 -461l-55 -57l-582 581z" />
    <glyph glyph-name="uni21A5" unicode="&#x21a5;" horiz-adv-x="1439" 
d="M139 889l580 579l581 -581l-57 -56l-461 461l-28 35v-1257h530v-70h-1128v70h528v1257l-29 -35l-458 -458z" />
    <glyph glyph-name="uni21A6" unicode="&#x21a6;" horiz-adv-x="1636" 
d="M918 1112l579 -580l-582 -581l-55 57l461 461l35 29h-1139v-531h-78v1129h78v-529h1139l-35 29l-459 459z" />
    <glyph glyph-name="uni21A7" unicode="&#x21a7;" horiz-adv-x="1439" 
d="M139 573l58 56l458 -459l29 -35v1258h-528v69h1128v-69h-530v-1258l28 35l461 461l57 -56l-581 -581z" />
    <glyph glyph-name="uni21B0" unicode="&#x21b0;" horiz-adv-x="1593" 
d="M719 1513l55 -57l-459 -459l-34 -28h1173v-967h-78v897h-1095l34 -29l461 -460l-55 -58l-582 582z" />
    <glyph glyph-name="uni21B1" unicode="&#x21b1;" horiz-adv-x="1593" 
d="M874 1513l580 -579l-582 -582l-55 58l461 460l35 29h-1096v-897h-78v967h1174l-35 28l-459 459z" />
    <glyph glyph-name="uni21B2" unicode="&#x21b2;" horiz-adv-x="1593" 
d="M719 -51l-580 579l582 582l55 -57l-461 -461l-34 -29h1095v897h78v-966h-1173l34 -29l459 -459z" />
    <glyph glyph-name="uni21B3" unicode="&#x21b3;" horiz-adv-x="1593" 
d="M874 -51l-55 57l459 459l35 29h-1174v966h78v-897h1096l-35 29l-461 461l55 57l582 -582z" />
    <glyph glyph-name="partialdiff" unicode="&#x2202;" horiz-adv-x="1161" 
d="M74 526q0 107 34 204t96.5 172.5t159.5 120t216 44.5q225 0 368 -156q-30 89 -77 168.5t-96 137.5t-116.5 115t-122 95t-128.5 84l73 39q57 -39 94 -66t93 -71.5t93.5 -81.5t85 -91t79 -106t65 -121t52.5 -141t31.5 -161t12.5 -185q0 -143 -58 -263t-175.5 -195.5
t-273.5 -75.5q-119 0 -216 44t-159.5 118t-96.5 170t-34 202zM156 526q0 -131 52.5 -237t150 -168t221.5 -62q188 0 307 134t119 333q0 204 -119 339.5t-307 135.5t-306 -135.5t-118 -339.5z" />
    <glyph glyph-name="uni2206" unicode="&#x2206;" horiz-adv-x="1433" 
d="M82 0l584 1462h88l598 -1462h-1270zM188 68h1057l-534 1296z" />
    <glyph glyph-name="product" unicode="&#x220f;" horiz-adv-x="1568" 
d="M45 1397v65h1479v-65h-271v-1696h-82v1696h-774v-1696h-82v1696h-270z" />
    <glyph glyph-name="summation" unicode="&#x2211;" horiz-adv-x="1347" 
d="M61 -299v61l615 828l-586 811v61h1102v-69h-1002l580 -803l-616 -819h1063v-70h-1156z" />
    <glyph glyph-name="minus" unicode="&#x2212;" horiz-adv-x="1222" 
d="M123 578h977v-66h-977v66z" />
    <glyph glyph-name="uni2215" unicode="&#x2215;" horiz-adv-x="417" 
d="M530 1456l-563 -1448h-80l564 1448h79z" />
    <glyph glyph-name="uni2219" unicode="&#x2219;" horiz-adv-x="620" 
d="M311 768q54 0 92.5 -38.5t38.5 -92.5q0 -50 -39.5 -90.5t-89.5 -40.5q-54 0 -93.5 38.5t-39.5 92.5t38.5 92.5t92.5 38.5z" />
    <glyph glyph-name="radical" unicode="&#x221a;" horiz-adv-x="1308" 
d="M303 1059l344 -953h17l524 1356h92l-575 -1460l-99 -2l-364 989h-217v70h278z" />
    <glyph glyph-name="infinity" unicode="&#x221e;" horiz-adv-x="1601" 
d="M117 524q0 124 78.5 211.5t203.5 87.5q31 0 62.5 -8t56.5 -18.5t56 -33t50 -37t49.5 -45t43.5 -44.5t43.5 -48t38.5 -42q9 10 38.5 42.5t43 47.5t43.5 44.5t49.5 45t50 37t56 32.5t56.5 19t62 8q125 0 204 -87.5t79 -211.5q0 -137 -77.5 -222t-205.5 -85q-48 0 -97 16
t-86.5 38.5t-81 59.5t-70 64.5t-64.5 69.5q-47 -53 -83 -87.5t-89 -76t-110.5 -63t-117.5 -21.5q-128 0 -205 85t-77 222zM190 512q0 -92 56 -162.5t153 -70.5q30 0 59 6.5t58.5 22t50 28t51.5 40t45 40.5t48 47l43 43q-103 114 -149 154q-113 99 -206 100q-97 0 -153 -73.5
t-56 -174.5zM844 506q11 -10 43.5 -43t47 -46.5t45 -40.5t51.5 -40t50 -28.5t58 -22t59 -6.5q97 0 153 70.5t56 162.5q0 101 -56 174.5t-153 73.5q-45 0 -90.5 -20t-94 -62t-76.5 -70.5t-75 -81.5q-12 -14 -18 -20z" />
    <glyph glyph-name="integral" unicode="&#x222b;" horiz-adv-x="718" 
d="M-86 -293l12 66h66q92 0 134.5 47t66.5 184l210 1194q9 50 19 85t29.5 71t46 58t68 36t96.5 14h114l-12 -65h-68q-107 0 -149.5 -39t-65.5 -168l-213 -1198q-9 -48 -16 -78t-20 -67t-31.5 -59t-45.5 -42.5t-66.5 -29.5t-90.5 -9h-84z" />
    <glyph glyph-name="approxequal" unicode="&#x2248;" horiz-adv-x="1284" 
d="M1153 756q-23 -109 -89 -164t-196 -55q-60 0 -124.5 24t-111.5 52.5t-108.5 52.5t-115.5 24q-100 0 -145.5 -40t-57.5 -113h-74q11 100 79.5 159.5t197.5 59.5q68 0 136.5 -24t115.5 -53t104 -53t104 -24q101 0 146.5 38t64.5 116h74zM131 236q11 100 79.5 159.5
t197.5 59.5q68 0 136.5 -24t115.5 -53t104 -53t104 -24q101 0 146.5 38t64.5 116h74q-23 -109 -89 -164t-196 -55q-60 0 -124.5 24t-111.5 52.5t-108.5 52.5t-115.5 24q-100 0 -145.5 -40t-57.5 -113h-74z" />
    <glyph glyph-name="notequal" unicode="&#x2260;" horiz-adv-x="1222" 
d="M373 -39l-58 29l150 301h-342v65h375l139 283h-514v66h547l180 362l59 -29l-166 -333h357v-66h-389l-142 -283h531v-65h-563z" />
    <glyph glyph-name="lessequal" unicode="&#x2264;" horiz-adv-x="1214" 
d="M119 102v66h977v-66h-977zM119 584v82l977 297v-72l-901 -266l901 -267v-71z" />
    <glyph glyph-name="greaterequal" unicode="&#x2265;" horiz-adv-x="1214" 
d="M1096 102h-977v66h977v-66zM119 287v71l901 267l-901 266v72l977 -297v-82z" />
    <glyph glyph-name="lozenge" unicode="&#x25ca;" horiz-adv-x="1187" 
d="M606 1462l463 -733l-463 -729h-41l-463 729l463 733h41zM188 729l398 -633l397 633l-397 637z" />
    <glyph glyph-name="fi" unicode="&#xfb01;" horiz-adv-x="950" 
d="M238 1221q0 107 48 174t156 67h103v-65h-103q-60 0 -91.5 -42.5t-31.5 -140.5v-155h185v-66h-185v-993h-81v993h-152v66h152v162zM725 1257v205h86v-205h-86zM727 0v1059h82v-1059h-82z" />
    <glyph glyph-name="fl" unicode="&#xfb02;" horiz-adv-x="946" 
d="M238 1221q0 107 48 174t156 67h103v-65h-103q-60 0 -91.5 -42.5t-31.5 -140.5v-155h185v-66h-185v-993h-81v993h-152v66h152v162zM725 0v1462h82v-1462h-82z" />
    <glyph glyph-name="uniFEFF" unicode="&#xfeff;" horiz-adv-x="18" 
 />
    <glyph glyph-name="Adieresis.ss02" horiz-adv-x="1323" 
d="M311 1462h78v-196h-78v196zM45 0l551 1462h131l551 -1462h-90l-182 489h-691l-180 -489h-90zM342 559h639l-317 834h-5zM934 1266v196h78v-196h-78z" />
    <glyph glyph-name="i.loclTRK" horiz-adv-x="360" 
d="M139 0v1059h82v-1059h-82zM143 1286v176h74v-176h-74z" />
    <glyph glyph-name="uni0414.loclBGR" horiz-adv-x="1583" 
d="M1511 -369h-79v367h-1280v-367h-80v437h131l534 1394h111l534 -1394h129v-437zM295 68h995l-495 1306h-4z" />
    <glyph glyph-name="uni041B.loclBGR" horiz-adv-x="1290" 
d="M29 0l561 1462h110l562 -1462h-95l-520 1374h-4l-520 -1374h-94z" />
    <glyph glyph-name="uni042F.ss03" horiz-adv-x="1273" 
d="M1110 -2h-86v661h-463l-375 -659h-96l391 676q-156 24 -240.5 136t-84.5 263q0 84 27 152.5t82.5 122t147 83t212.5 29.5h485v-1464zM242 1071q0 -157 98 -249.5t291 -92.5h393v664h-393q-109 0 -187 -26t-121 -72t-62 -101t-19 -123z" />
    <glyph glyph-name="uni0431.loclSRB" horiz-adv-x="1067" 
d="M553 -8q-207 0 -334 133t-127 340q0 176 99 305t288 191q-89 43 -108 55q-91 49 -132.5 97t-41.5 120q0 65 51.5 112.5t138.5 59.5q262 36 553 63v-67q-359 -34 -539 -66q-61 -10 -91.5 -38t-30.5 -66q0 -43 22 -74.5t92 -69.5q53 -30 217 -110q54 -26 88 -43.5t81 -46.5
t77 -55t63 -65t51.5 -80t31 -96t12.5 -118q0 -214 -129 -347.5t-332 -133.5zM174 467q0 -179 102 -294.5t277 -115.5q172 0 275.5 116t103.5 306q0 54 -10.5 101t-24.5 80.5t-40.5 65.5t-44.5 49.5t-52 39.5t-47.5 28.5t-45.5 22.5q-4 2 -6.5 3.5t-5.5 2.5q-82 42 -94 48
q-188 -44 -287.5 -162.5t-99.5 -290.5z" />
    <glyph glyph-name="uni0432.loclBGR" horiz-adv-x="1026" 
d="M543 -8q-210 0 -316 127t-106 354v543q0 220 102.5 343.5t302.5 123.5q170 0 273.5 -102t103.5 -267q0 -125 -61 -214.5t-166 -125.5q131 -29 208 -129.5t77 -247.5q0 -183 -116.5 -294t-301.5 -111zM203 496q0 -208 86 -323.5t264 -115.5q146 0 236 92.5t90 249.5
q0 154 -88 246t-236 92h-352v-241zM203 803h344q125 0 199.5 82.5t74.5 222.5q0 142 -80 225.5t-211 83.5q-164 0 -245.5 -107t-81.5 -300v-207z" />
    <glyph glyph-name="uni0433.loclBGR" horiz-adv-x="917" 
d="M96 745q30 162 126.5 242t236.5 80q95 0 172.5 -27.5t128.5 -90t51 -150.5q0 -50 -16 -92t-41.5 -70.5t-63.5 -52t-74 -38t-81 -26.5l-148 -41q-105 -30 -159 -74t-54 -126q0 -109 82 -163.5t215 -54.5q127 0 207.5 66.5t101.5 183.5h82q-18 -84 -57 -146.5t-92 -98.5
t-113 -53t-127 -17q-54 0 -104.5 8t-102 28.5t-89 51.5t-61.5 81t-24 114q0 57 20 101t59.5 75t84 51t106.5 39l150 43q106 30 161.5 76.5t55.5 134.5q0 54 -23.5 94.5t-63 63t-85.5 33.5t-98 11q-107 0 -184.5 -61.5t-96.5 -194.5h-82z" />
    <glyph glyph-name="uni0434.loclBGR" horiz-adv-x="1161" 
d="M940 1059h82v-1026q0 -93 -26 -171.5t-78.5 -140.5t-141 -97.5t-205.5 -35.5q-196 0 -308.5 94t-139.5 257h86q28 -137 114.5 -210t247.5 -73q187 0 278 105.5t91 291.5v172h-2q-119 -233 -387 -233q-95 0 -174.5 28.5t-134.5 78.5t-93.5 118t-56.5 145.5t-18 163.5
q0 109 29.5 204.5t86 171.5t150 120.5t211.5 44.5q262 0 387 -227h2v219zM156 526q0 -133 45 -237.5t135.5 -167t214.5 -62.5q83 0 151.5 28.5t113.5 75t75.5 108t43.5 125.5t13 130q0 208 -106 341.5t-291 133.5t-290 -133.5t-105 -341.5z" />
    <glyph glyph-name="uni0436.loclBGR" horiz-adv-x="1339" 
d="M711 0h-82v502h-103l-387 -502h-98l418 532l-416 527h98l385 -492h103v895h82v-895h104l383 492h98l-415 -527l417 -532h-98l-387 502h-102v-502z" />
    <glyph glyph-name="uni0437.loclBGR" horiz-adv-x="1079" 
d="M127 700q10 160 116 264.5t294 104.5q185 0 287 -91.5t102 -232.5q0 -62 -14 -113.5t-36 -87.5t-55.5 -65.5t-67 -49t-75.5 -36.5q145 -27 234 -124.5t89 -272.5q0 -181 -125 -294.5t-344 -113.5q-224 0 -338 110t-133 325h80q7 -82 31.5 -146.5t61 -106t85.5 -68
t101 -37.5t112 -11q104 0 190.5 37.5t142 117t55.5 187.5q0 83 -24 147t-62.5 103.5t-93.5 64.5t-110.5 35t-119.5 10h-148v66h156q143 0 234.5 86t91.5 237q0 119 -81.5 189t-225.5 70q-141 0 -229 -81t-101 -223h-80z" />
    <glyph glyph-name="uni0438.loclBGR" horiz-adv-x="1079" 
d="M131 401v658h82v-658q0 -95 23.5 -163.5t66 -107t94.5 -56t117 -17.5q52 0 98.5 11.5t92.5 42.5t79 78.5t53.5 125.5t20.5 179v565h82v-1059h-82v213q-99 -221 -344 -221q-383 0 -383 409z" />
    <glyph glyph-name="uni0439.loclBGR" horiz-adv-x="1079" 
d="M131 401v658h82v-658q0 -95 23.5 -163.5t66 -107t94.5 -56t117 -17.5q52 0 98.5 11.5t92.5 42.5t79 78.5t53.5 125.5t20.5 179v565h82v-1059h-82v213q-99 -221 -344 -221q-383 0 -383 409zM254 1434h78q5 -80 61.5 -131.5t141.5 -51.5q84 0 140.5 51.5t61.5 131.5h78
q-9 -108 -87 -176t-193 -68t-193.5 68.5t-87.5 175.5z" />
    <glyph glyph-name="uni045D.loclBGR" horiz-adv-x="1079" 
d="M131 401v658h82v-658q0 -95 23.5 -163.5t66 -107t94.5 -56t117 -17.5q52 0 98.5 11.5t92.5 42.5t79 78.5t53.5 125.5t20.5 179v565h82v-1059h-82v213q-99 -221 -344 -221q-383 0 -383 409zM313 1462h99l204 -268h-61z" />
    <glyph glyph-name="uni043A.loclBGR" horiz-adv-x="905" 
d="M221 0h-82v1462h82v-938l547 535h104l-454 -447l456 -612h-94l-413 561l-146 -133v-428z" />
    <glyph glyph-name="uni043B.loclBGR" horiz-adv-x="1003" 
d="M883 0l-381 950h-2l-379 -950h-82q71 176 211.5 529.5t210.5 529.5h82q70 -176 211 -529.5t211 -529.5h-82z" />
    <glyph glyph-name="uni043F.loclBGR" horiz-adv-x="1079" 
d="M139 0v1059h82v-203q46 99 127.5 155t216.5 56q383 0 383 -410v-657h-82v657q0 95 -23.5 163.5t-66 107t-94.5 56t-117 17.5q-52 0 -98.5 -11.5t-92.5 -42t-79 -78t-53.5 -125.5t-20.5 -179v-565h-82z" />
    <glyph glyph-name="uni0442.loclBGR" horiz-adv-x="1632" 
d="M139 0v1059h82v-203q38 95 120 155t183 60q235 0 314 -207q67 112 144 159.5t187 47.5q332 0 332 -414v-657h-82v657q0 349 -250 349q-130 0 -216.5 -102.5t-86.5 -287.5v-616h-82v657q0 184 -71 266.5t-189 82.5q-95 0 -165 -63t-104 -161.5t-34 -216.5v-565h-82z" />
    <glyph glyph-name="uni0446.loclBGR" horiz-adv-x="1107" 
d="M131 401v658h82v-658q0 -95 23.5 -163.5t66 -107t94.5 -56t117 -17.5q52 0 98.5 11.5t92.5 42.5t79 78.5t53.5 125.5t20.5 179v565h82v-993h127v-351h-74v285h-135v213q-99 -221 -344 -221q-383 0 -383 409z" />
    <glyph glyph-name="uni0448.loclBGR" horiz-adv-x="1632" 
d="M1493 1059v-1059h-82v203q-38 -95 -120 -155t-183 -60q-234 0 -313 207q-67 -112 -144.5 -159.5t-187.5 -47.5q-332 0 -332 413v658h82v-658q0 -348 250 -348q130 0 216.5 102t86.5 287v617h82v-658q0 -184 71 -266t189 -82q95 0 165 63t104 161.5t34 216.5v565h82z" />
    <glyph glyph-name="uni0449.loclBGR" horiz-adv-x="1660" 
d="M1493 1059v-993h127v-351h-74v285h-135v203q-38 -95 -120 -155t-183 -60q-234 0 -313 207q-67 -112 -144.5 -159.5t-187.5 -47.5q-332 0 -332 413v658h82v-658q0 -348 250 -348q130 0 216.5 102t86.5 287v617h82v-658q0 -184 71 -266t189 -82q95 0 165 63t104 161.5
t34 216.5v565h82z" />
    <glyph glyph-name="uni044C.loclBGR" horiz-adv-x="909" 
d="M131 362v697h82v-420q122 61 264 61q170 0 275.5 -91.5t105.5 -246.5q0 -176 -96.5 -273t-265.5 -97q-172 0 -268.5 99t-96.5 271zM213 362q0 -149 73.5 -227t209.5 -78q130 0 205 77t75 228q0 133 -83.5 203t-217.5 70q-140 0 -262 -66v-207z" />
    <glyph glyph-name="uni044A.loclBGR" horiz-adv-x="1179" 
d="M16 993v66h467v-420q122 61 265 61q169 0 274.5 -91.5t105.5 -246.5q0 -176 -96.5 -273t-265.5 -97q-172 0 -268.5 99t-96.5 271v631h-385zM483 362q0 -149 73.5 -227t209.5 -78q130 0 205.5 77t75.5 228q0 133 -84 203t-218 70q-140 0 -262 -66v-207z" />
    <glyph glyph-name="uni044E.loclBGR" horiz-adv-x="1456" 
d="M221 1462v-895h189q7 135 65 247.5t168 182.5t252 70q112 0 205.5 -44.5t154.5 -119t94 -171.5t33 -204t-33 -203.5t-94 -171.5t-154.5 -119t-205.5 -44q-109 0 -200 41.5t-151.5 112.5t-95.5 163t-40 195h-187v-502h-82v1462h82zM489 528q0 -201 114.5 -337t291.5 -136
q117 0 210 62.5t144 170.5t51 240t-51 240t-144 170.5t-210 62.5q-177 0 -291.5 -136t-114.5 -337z" />
    </font>
</defs>
</svg>
